<?xml version="1.0" standalone="no"?>
<!DOCTYPE svg PUBLIC "-//W3C//DTD SVG 1.1//EN" "http://www.w3.org/Graphics/SVG/1.1/DTD/svg11.dtd" >
<svg>
<metadata>
Created by FontForge 20090914 at Tue Aug  4 21:56:22 2020
 By www-data
Copyright &#194;&#169; 1995 ParaGraph Intl., &#194;&#169; 1998 ParaType Inc., ParaType Ltd. All rights reserved.
</metadata>
<defs>
<font id="FuturaPT-HeavyObl" horiz-adv-x="500" >
  <font-face 
    font-family="Futura PT Heavy Italic"
    font-weight="400"
    font-style="italic"
    font-stretch="normal"
    units-per-em="1000"
    panose-1="2 11 8 2 2 2 4 9 3 3"
    ascent="763"
    descent="-237"
    x-height="446"
    cap-height="667"
    bbox="-330 -260.001 1235 955"
    underline-thickness="50"
    underline-position="-150"
    slope="-7"
    unicode-range="U+0020-U+FB02"
  />
<missing-glyph horiz-adv-x="233" 
 />
    <glyph glyph-name="afii10017.var.accented" unicode="&#x410;`" horiz-adv-x="677" 
d="M517 0l-34 126h-252l-63 -126h-166l352 667h142l179 -667h-158zM289 244h166l-54 235zM508 925l86 -72l-180 -129l-59 53z" />
    <glyph glyph-name="afii10022.var.accented" unicode="&#x415;`" horiz-adv-x="502" 
d="M520 667l-16 -130h-218l-16 -129h210l-16 -130h-210l-18 -148h222l-16 -130h-372l82 667h368zM420 925l86 -72l-180 -129l-59 53z" />
    <glyph glyph-name="afii10026.var.accented" unicode="&#x418;`" horiz-adv-x="743" 
d="M152 667h154l-54 -432l361 432h136l-82 -667h-154l54 433l-360 -433h-137zM541 925l86 -72l-180 -129l-59 53z" />
    <glyph glyph-name="afii10032.var.accented" unicode="&#x41e;`" horiz-adv-x="810" 
d="M464 682c105.333 0 188.334 -29 249.001 -87c62.667 -60.667 94 -139.667 94 -237c0 -49.333 -8.66699 -98 -26 -146s-43 -89.333 -77 -124c-67.333 -68.667 -159.333 -103 -276 -103c-106.667 0 -191.334 31.667 -254.001 95c-62.667 64 -94 141.667 -94 233
c0 108.667 36.667 198 110 268c70.667 67.333 162 101 274 101zM458.001 540c-65.333 0 -118.334 -21.335 -159.001 -64.002s-61 -93.667 -61 -153c0 -57.333 18 -104 54 -140c36.667 -37.333 85.334 -56 146.001 -56c62 0 111.667 19 149 57
c41.333 42.667 62 97.334 62 164.001c0 58.667 -17.667 105.334 -53 140.001s-81.333 52 -138 52zM574 924.998l86 -72l-180 -129l-59 53z" />
    <glyph glyph-name="afii10037.var.accented" unicode="&#x423;`" horiz-adv-x="622" 
d="M82 667h168l102 -308l172 308h170l-387 -667h-166l117 196zM480 925l86 -72l-180 -129l-59 53z" />
    <glyph glyph-name="afii10045.var.accented" unicode="&#x42b;`" horiz-adv-x="847" 
d="M70 0l83 666.999h152l-32 -261h91c70.667 0 125 -18.333 163 -55c32.667 -31.333 49 -74.666 49 -129.999c0 -68.667 -20.333 -122.667 -61 -162c-24.667 -23.333 -54.5 -39 -89.5 -47s-77.167 -12 -126.5 -12h-229zM258 282.999l-19.998 -160h64
c41.333 0 69.666 5 84.999 15c24.667 14.667 37 38.667 37 72c0 26 -9.66699 45.333 -29 58c-14.667 10 -40.334 15 -77.001 15h-60zM696.002 666.999h154l-82 -667h-154zM593.002 924.999l86 -72l-180 -129l-59 53z" />
    <glyph glyph-name="afii10047.var.accented" unicode="&#x42d;`" horiz-adv-x="623" 
d="M45 32l18.998 162.001c54 -46 116.667 -69 188 -69c50 0 91.667 12.333 125 37c36.667 27.333 59.334 65 68.001 113h-268l16 124h263c-6.66699 45.333 -26 81 -58 107c-29.333 24 -68.666 36 -117.999 36c-40.667 0 -77 -7.66699 -109 -23
c-18 -8.66699 -42.333 -24 -73 -46l20 165c62.667 29.333 126 44 190 44c97.333 0 174.333 -29 231 -87c54 -55.333 81 -132 81 -230c0 -120.667 -34.667 -216.334 -104 -287.001c-38 -38 -77.5 -63 -118.5 -75s-87.5 -18 -139.5 -18c-77.333 0 -148.333 15.667 -213 47z
M430.998 925.001l86 -72l-180 -129l-59 53z" />
    <glyph glyph-name="afii10048.var.accented" unicode="&#x42e;`" horiz-adv-x="1058" 
d="M275 417h83.999c14.667 63.333 44 118 88 164c63.333 67.333 147.333 101 252 101c110 0 197 -30.667 261 -92c63.333 -60.667 95 -139.667 95 -237c0 -108.667 -34.333 -197.667 -103 -267c-37.333 -37.333 -77.5 -63.5 -120.5 -78.5s-92.167 -22.5 -147.5 -22.5
c-106.667 0 -189.667 31.667 -249 95c-53.333 56.667 -82.666 125.667 -87.999 207h-88l-35 -287h-154l82 667h154zM705.999 540c-58.667 0 -107.999 -19.334 -147.999 -58.001c-42 -42 -63 -94.667 -63 -158c0 -56.667 18 -103.667 54 -141
c37.333 -37.333 84.666 -56 141.999 -56c58 0 106 19 144 57c41.333 42 62 96.667 62 164c0 56.667 -18.333 103.334 -55 140.001c-34.667 34.667 -80 52 -136 52zM698 924.999l86 -72l-180 -129l-59 53z" />
    <glyph glyph-name="afii10049.var.accented" unicode="&#x42f;`" horiz-adv-x="602" 
d="M608 667l-81.999 -666.999h-154l30 243h-16l-189 -243h-185l227 263c-37.333 8.66699 -67 25.667 -89 51c-25.333 29.333 -38 66.666 -38 111.999c0 73.333 23 132 69 176c45.333 43.333 111.666 65 198.999 65h228zM440.001 541.001h-45c-44 0 -75.667 -9 -95 -27
c-20 -18 -30 -41.667 -30 -71c0 -28.667 9.66699 -49.667 29 -63c17.333 -12.667 44.333 -19 81 -19h36zM470.001 925.001l86 -72l-180 -129l-59 53z" />
    <glyph glyph-name="afii10023.var.accented" unicode="&#x401;`" horiz-adv-x="502" 
d="M70 0l82 667h368l-16 -130h-218l-16 -129h210l-16 -130h-210l-18 -148h222l-16 -130h-372zM377 925l72 -61l-161 -129l-45 42zM110 825c0 16.667 6.33301 31.667 19 45s27.667 20 45 20s32.333 -6.66699 45 -20s19 -28.333 19 -45c0 -17.333 -6.5 -32.333 -19.5 -45
s-27.833 -19 -44.5 -19c-15.333 0 -29.833 6 -43.5 18s-20.5 27.333 -20.5 46zM458 825c0 19.333 6.66699 35 20 47s27.666 18 42.999 18c17.333 0 32.333 -6.66699 45 -20s19 -28.333 19 -45c0 -18.667 -6.83301 -34 -20.5 -46s-28.167 -18 -43.5 -18
s-29.666 5.66699 -42.999 17s-20 27 -20 47z" />
    <glyph glyph-name="afii10065.var.accented" unicode="&#x430;`" horiz-adv-x="598" 
d="M444 392l3.99902 53.999h144l-55 -446h-144l11 51c-19.333 -22.667 -40.333 -39.334 -63 -50.001c-23.333 -10.667 -51 -16 -83 -16c-57.333 0 -103.333 18.333 -138 55c-40 42.667 -60 97.334 -60 164.001c0 78.667 24 142.667 72 192
c42.667 43.333 97.334 65 164.001 65c34.667 0 63.667 -5.66699 87 -17c24 -11.333 44.333 -28.666 61 -51.999zM326.999 336.999c-34.667 0 -62.998 -11 -84.998 -33c-22.667 -22.667 -34 -52.334 -34 -89.001c0 -30 9.66699 -55.333 29 -76
c19.333 -20 44.666 -30 75.999 -30c33.333 0 60.666 10 81.999 30c25.333 24.667 38 56.667 38 96c0 32.667 -10.333 58.334 -31 77.001c-18 16.667 -43 25 -75 25zM448.001 714.999l86 -65l-169 -135l-59 48z" />
    <glyph glyph-name="afii10070.var.accented" unicode="&#x435;`" horiz-adv-x="542" 
d="M218 283h181.002c-2.66699 24.667 -12.334 44 -29.001 58c-14.667 12 -34.334 18 -59.001 18c-27.333 0 -50 -9 -68 -27c-12.667 -14 -21 -30.333 -25 -49zM537.002 195l-332.999 0.000976562c-1.33301 -26 4.66699 -48.333 18 -67c15.333 -20.667 38.333 -31 69 -31
c24.667 0 43.667 4.33301 57 13c13.333 9.33301 23.666 22.666 30.999 39.999l145 -12c-19.333 -48 -46.333 -85 -81 -111c-37.333 -28 -88.333 -42 -153 -42c-76 0 -134 20 -174 60c-37.333 37.333 -56 89.333 -56 156c0 83.333 25.667 149.333 77 198
c44 41.333 103 62 177 62c72 0 127.667 -19 167 -57c26.667 -26 43.667 -58.5 51 -97.5s9 -76.167 5 -111.5zM420.003 715.001l86 -65l-169 -135l-59 48z" />
    <glyph glyph-name="afii10074.var.accented" unicode="&#x438;`" horiz-adv-x="580" 
d="M111 446h144l-31 -253l219 253h134l-55 -446h-144l32 257l-220 -257h-134zM439 715l86 -65l-169 -135l-59 48z" />
    <glyph glyph-name="afii10080.var.accented" unicode="&#x43e;`" horiz-adv-x="592" 
d="M337 461c78.667 0 141 -23 187 -69c40 -40 60 -90.333 60 -151c0 -72.667 -24 -133.667 -72 -183c-48 -48.667 -116.333 -73 -205 -73c-80.667 0 -142.667 22.333 -186 67c-40.667 42 -61 94.333 -61 157c0 71.333 24 130 72 176c52 50.667 120.333 76 205 76zM315 107
c33.333 0 61.334 10.666 84.001 31.999c24.667 24 37 55.667 37 95c0 32.667 -10 58.334 -30 77.001s-46 28 -78 28c-30.667 0 -57.334 -10.333 -80.001 -31c-26.667 -24 -40 -55.667 -40 -95c0 -30 9.66699 -55.333 29 -76c18.667 -20 44.667 -30 78 -30zM445.001 714.999
l86 -65l-169 -135l-59 48z" />
    <glyph glyph-name="afii10085.var.accented" unicode="&#x443;`" horiz-adv-x="583" 
d="M40 -229l184 286l-173 389h164l99 -244l150 244h169l-431 -675h-162zM441 715l86 -65l-169 -135l-59 48z" />
    <glyph glyph-name="afii10093.var.accented" unicode="&#x44b;`" horiz-adv-x="703" 
d="M111 446h143.999l-19 -153h74c58 0 100.667 -14 128 -42c23.333 -23.333 35 -55 35 -95c0 -49.333 -14 -87.333 -42 -114c-31.333 -28 -81.666 -42 -150.999 -42h-224zM212.999 102l53 0.000976562c22 0 37.667 3 47 9c13.333 8.66699 20 21.667 20 39
c0 13.333 -4.66699 23.666 -14 30.999c-9.33301 6.66699 -26 10 -50 10h-45zM555.999 446.001h144l-55 -446h-144zM500.999 715.001l86 -65l-169 -135l-59 48z" />
    <glyph glyph-name="afii10095.var.accented" unicode="&#x44d;`" horiz-adv-x="460" 
d="M40 19l15.9971 128.001c39.333 -30.667 82.666 -46 129.999 -46c30 0 55 6.33301 75 19c21.333 13.333 35.333 32.333 42 57h-166l13 97h162c-7.33301 22 -20.666 39.333 -39.999 52s-43.666 19 -72.999 19c-43.333 0 -84.666 -14.333 -123.999 -43l16 132
c45.333 18 90.333 27 135 27c74.667 0 132.667 -21 174 -63c37.333 -38 56 -89.667 56 -155c0 -82.667 -24 -147.334 -72 -194.001c-43.333 -42.667 -106.666 -64 -189.999 -64c-58 0 -109.333 11.333 -154 34zM332.997 715.001l86 -65l-169 -135l-59 48z" />
    <glyph glyph-name="afii10096.var.accented" unicode="&#x44e;`" horiz-adv-x="789" 
d="M233 292l54.001 -0.00195312c12.667 46.667 38 85.334 76 116.001c45.333 35.333 103 53 173 53c78 0 139.667 -23 185 -69c40 -40 60 -91.333 60 -154c0 -76 -24 -137.333 -72 -184c-46.667 -46 -111.334 -69 -194.001 -69c-76 0 -134 18 -174 54
c-38.667 34.667 -60.667 80.334 -66 137.001h-56l-21 -176h-142l54 446h142zM516.001 106.998c32.667 0 59.335 10 80.002 30c24.667 24 37 56.333 37 97c0 32.667 -9.33301 58.334 -28 77.001s-43.334 28 -74.001 28c-36 0 -63.667 -11 -83 -33
c-22.667 -24.667 -34 -55.667 -34 -93c0 -30.667 9.66699 -56.334 29 -77.001c19.333 -19.333 43.666 -29 72.999 -29zM544.002 714.998l86 -65l-169 -135l-59 48z" />
    <glyph glyph-name="afii10097.var.accented" unicode="&#x44f;`" horiz-adv-x="492" 
d="M12 0l147.999 162.999c-25.333 7.33301 -45.666 18.333 -60.999 33c-20.667 20.667 -31 49.334 -31 86.001c0 41.333 11.667 76.333 35 105c34 39.333 92.667 59 176 59h210l-55 -446h-144l18 149h-10l-121 -149h-165zM318.999 242.999l12 101h-47
c-27.333 0 -46.333 -5.33301 -57 -16c-10 -10 -15 -23 -15 -39c0 -15.333 6.66699 -27.333 20 -36c8.66699 -6.66699 25.667 -10 51 -10h36zM394.999 714.999l86 -65l-169 -135l-59 48z" />
    <glyph glyph-name="afii10071.var.accented" unicode="&#x451;`" horiz-adv-x="548" 
d="M218 283h181.002c-2.66699 24.667 -12.334 44 -29.001 58c-14.667 12 -34.334 18 -59.001 18c-27.333 0 -50 -9 -68 -27c-12.667 -14 -21 -30.333 -25 -49zM537.002 195l-332.999 0.000976562c-1.33301 -26 4.66699 -48.333 18 -67c15.333 -20.667 38.333 -31 69 -31
c24.667 0 43.667 4.33301 57 13c13.333 9.33301 23.666 22.666 30.999 39.999l145 -12c-19.333 -48 -46.333 -85 -81 -111c-37.333 -28 -88.333 -42 -153 -42c-76 0 -134 20 -174 60c-37.333 37.333 -56 89.333 -56 156c0 83.333 25.667 149.333 77 198
c44 41.333 103 62 177 62c72 0 127.667 -19 167 -57c26.667 -26 43.667 -58.5 51 -97.5s9 -76.167 5 -111.5zM341.003 715.001l71 -56l-155 -135l-44 39zM74.0029 611.001c0 16 6.16699 31.167 18.5 45.5s28.833 21.5 49.5 21.5s37 -7.33301 49 -22s18 -29.667 18 -45
s-6 -30.333 -18 -45s-28.333 -22 -49 -22s-37.167 7.16699 -49.5 21.5s-18.5 29.5 -18.5 45.5zM410.003 611.001c0 16 6.16699 31.167 18.5 45.5s28.833 21.5 49.5 21.5s37 -7.33301 49 -22s18 -29.667 18 -45s-6 -30.333 -18 -45s-28.333 -22 -49 -22
s-37.167 7.16699 -49.5 21.5s-18.5 29.5 -18.5 45.5z" />
    <glyph glyph-name="fi" unicode="fi" horiz-adv-x="573" 
d="M348 328l-96 0.00195312l-40 -328h-144l40 328h-52l15 118h52l9 70c3.33301 24.667 6.66602 44.667 9.99902 60s9.5 33.166 18.5 53.499s20.833 37.833 35.5 52.5c38 38.667 93.333 58 166 58c76 0 133.333 -17.333 172 -52c31.333 -27.333 47 -65.666 47 -114.999
c0 -2 -1.33301 -23.667 -4 -65h-144c1.33301 6.66699 2 16 2 28c0 25.333 -6 44.666 -18 57.999c-13.333 14.667 -32.666 22 -57.999 22s-44.333 -7.66699 -57 -23c-13.333 -14.667 -22.333 -41.334 -27 -80.001l-8 -67h96zM425 446.002h144l-55 -446h-144z" />
    <glyph glyph-name="fl" unicode="fl" horiz-adv-x="574" 
d="M348 328l-96 0.00292969l-40 -328h-144l40 328h-52l15 118h52l9 70c3.33301 24.667 6.66602 44.667 9.99902 60s9.5 33.166 18.5 53.499s20.833 37.833 35.5 52.5c38 38.667 93.333 58 166 58c76 0 133.333 -17.333 172 -52c31.333 -27.333 47 -66 47 -116
c0 -8.66699 -1 -21.5 -3 -38.5s-3 -29.5 -3 -37.5l-61 -496h-144l62 499c2 11.333 3 23.666 3 36.999c0 26 -6 45.333 -18 58c-13.333 14.667 -32.666 22 -57.999 22s-44.333 -7.66699 -57 -23c-13.333 -14.667 -22.333 -41.334 -27 -80.001l-8 -67h96z" />
    <glyph glyph-name=".notdef" horiz-adv-x="233" 
 />
    <glyph glyph-name="space" unicode=" " horiz-adv-x="233" 
 />
    <glyph glyph-name="exclam" unicode="!" horiz-adv-x="298" 
d="M249 223h-152l55 444h152zM64 75c0 25.333 8.83301 46.833 26.5 64.5s39.167 26.5 64.5 26.5s46.833 -8.83301 64.5 -26.5s26.5 -39.167 26.5 -64.5s-8.83301 -46.833 -26.5 -64.5s-39.167 -26.5 -64.5 -26.5s-46.833 8.83301 -64.5 26.5s-26.5 39.167 -26.5 64.5z" />
    <glyph glyph-name="quotedbl" unicode="&#x22;" horiz-adv-x="407" 
d="M261 667l-57 -268h-93l10 268h140zM444 667l-56 -268h-93l9 268h140z" />
    <glyph glyph-name="numbersign" unicode="#" horiz-adv-x="600" 
d="M504 295h102l-30 -111h-102l-53 -184h-128l53 184h-89l-53 -184h-128l53 184h-101l31 111h100l27 92h-100l30 110h100l49 170h128l-49 -170h89l49 170h128l-49 -170h101l-30 -110h-101zM376 295l27 92h-89l-27 -92h89z" />
    <glyph glyph-name="dollar" unicode="$" horiz-adv-x="600" 
d="M344 775l90.002 -0.000976562l-12 -101c52 -4 101 -26.333 147 -67l-74 -108c-32 34 -68.667 51 -110 51c-28.667 0 -49.667 -6.66699 -63 -20c-12.667 -11.333 -19 -26.666 -19 -45.999c0 -17.333 7 -32 21 -44c10 -8 31 -19.667 63 -35l37 -17
c37.333 -17.333 65.666 -38.333 84.999 -63c22 -28 33 -62.667 33 -104c0 -62 -20.333 -114.667 -61 -158c-38 -39.333 -85.333 -61 -142 -65l-15 -110h-90l15 108c-68.667 9.33301 -128 41 -178 95l79 102c19.333 -20.667 38 -36.334 56 -47.001
c27.333 -16 54.666 -24 81.999 -24c32.667 0 57.667 7 75 21s26 33.667 26 59c0 18 -7.33301 33.667 -22 47c-8.66699 8 -29 20 -61 36l-33 17c-41.333 20.667 -71 43 -89 67c-20.667 26.667 -31 60.334 -31 101.001c0 59.333 18.667 107.666 56 144.999
c32.667 32.667 73.667 52.334 123 59.001z" />
    <glyph glyph-name="percent" unicode="%" horiz-adv-x="830" 
d="M185 2l474 676l68 -15l-475 -677zM655 234c-26 0 -46.999 -7.66797 -62.999 -23.001c-19.333 -18 -29 -41 -29 -69c0 -18 5.66699 -33.667 17 -47c12.667 -15.333 30.667 -23 54 -23c25.333 0 46.666 9 63.999 27c17.333 17.333 26 39 26 65
c0 22.667 -7 40.334 -21 53.001c-12 11.333 -28 17 -48 17zM659.001 314.999c53.333 0 94 -13.999 122 -41.999c26 -24.667 39 -58 39 -100c0 -52.667 -16 -96 -48 -130c-32.667 -34.667 -78.667 -52 -138 -52c-52 0 -92.333 12.667 -121 38c-30 25.333 -45 61 -45 107
c0 51.333 16.667 93.666 50 126.999c34 34.667 81 52 141 52zM284.001 676c53.333 0 94 -13.999 122 -41.999c26 -24.667 39 -58 39 -100c0 -52.667 -16 -96 -48 -130c-32.667 -34.667 -78.667 -52 -138 -52c-52 0 -92.333 12.667 -121 38c-30 25.333 -45 61 -45 107
c0 51.333 16.667 93.666 50 126.999c34 34.667 81 52 141 52zM280.001 595.001c-26 0 -46.999 -7.66797 -62.999 -23.001c-19.333 -18 -29 -41 -29 -69c0 -18 5.66699 -33.667 17 -47c12.667 -15.333 30.667 -23 54 -23c25.333 0 46.666 9 63.999 27
c17.333 17.333 26 39 26 65c0 22.667 -7 40.334 -21 53.001c-12 11.333 -28 17 -48 17z" />
    <glyph glyph-name="ampersand" unicode="&#x26;" horiz-adv-x="744" 
d="M637 337l77.002 -85c-30.667 -34 -64.334 -66 -101.001 -96l123 -156h-188l-50 62c-32.667 -29.333 -64 -49.333 -94 -60c-30 -11.333 -69.667 -17 -119 -17c-74.667 0 -129.667 17.667 -165 53c-32 32 -48 71.333 -48 118c0 52 16.333 96.667 49 134
s78.334 64.333 137.001 81c-33.333 38 -50 76.667 -50 116c0 53.333 17.667 98 53 134c40 40.667 94 61 162 61c59.333 0 104.666 -15.667 135.999 -47c28 -26.667 42 -61 42 -103c0 -46.667 -16.667 -87 -50 -121c-22.667 -23.333 -53.334 -44 -92.001 -62l82 -105
c32.667 26.667 64.667 57.667 96 93zM422.002 162l-97.001 125c-26 -8.66699 -47.667 -21.667 -65 -39s-26 -38.333 -26 -63c0 -17.333 5.66699 -32.333 17 -45c14.667 -14.667 35.334 -22 62.001 -22c36 0 72.333 14.667 109 44zM398.001 426
c21.333 10.667 38.667 22.666 52 35.999c18 18 27 38 27 60c0 18 -5.66699 31.667 -17 41c-10 8.66699 -23.667 13 -41 13c-19.333 0 -35 -6 -47 -18c-12 -13.333 -18 -28.666 -18 -45.999c0 -26 14.667 -54.667 44 -86z" />
    <glyph glyph-name="quotesingle" unicode="'" horiz-adv-x="224" 
d="M261 667l-57 -268h-93l10 268h140z" />
    <glyph glyph-name="parenleft" unicode="(" horiz-adv-x="335" 
d="M273 740l89.999 -53.999c-35.333 -56.667 -63.666 -115 -84.999 -175c-42 -113.333 -63 -227 -63 -341c0 -116 17 -217.667 51 -305l-106 -49c-44 105.333 -66 219.666 -66 342.999c0 135.333 25.333 265 76 389c28.667 69.333 63 133.333 103 192z" />
    <glyph glyph-name="parenright" unicode=")" horiz-adv-x="335" 
d="M142 691l105.999 49.002c44 -105.333 66 -220 66 -344c0 -62.667 -4.83301 -123.834 -14.5 -183.501s-30.167 -127.834 -61.5 -204.501c-28 -68 -62.333 -132 -103 -192l-90 54c34.667 56 63.334 114.333 86.001 175c42 110.667 63 231.667 63 363
c0 96 -17.333 190.333 -52 283z" />
    <glyph glyph-name="asterisk" unicode="*" horiz-adv-x="598" 
d="M238 659l99 -44l6 114h99l-23 -114l110 44l19 -93l-114 -26l63 -87l-86 -58l-49 97l-72 -97l-70 58l83 86l-108 26z" />
    <glyph glyph-name="plus" unicode="+" 
d="M73 282v116h154v154h126v-154h154v-116h-154v-155h-126v155h-154z" />
    <glyph glyph-name="comma" unicode="," horiz-adv-x="351" 
d="M8 -128l145 282l136 -7l-185 -279z" />
    <glyph glyph-name="hyphen" unicode="-" horiz-adv-x="356" 
d="M73 190l16 126h256l-16 -126h-256z" />
    <glyph glyph-name="period" unicode="." horiz-adv-x="278" 
d="M54 75c0 25.333 8.83301 46.833 26.5 64.5s39.167 26.5 64.5 26.5s46.833 -8.83301 64.5 -26.5s26.5 -39.167 26.5 -64.5s-8.83301 -46.833 -26.5 -64.5s-39.167 -26.5 -64.5 -26.5s-46.833 8.83301 -64.5 26.5s-26.5 39.167 -26.5 64.5z" />
    <glyph glyph-name="slash" unicode="/" horiz-adv-x="697" 
d="M-40 -184l634 933l113 -20l-634 -933z" />
    <glyph glyph-name="zero" unicode="0" horiz-adv-x="600" 
d="M311 -15c-72.667 0 -130.333 20.666 -173 61.999c-54.667 53.333 -82 131 -82 233c0 68.667 10.833 130.5 32.5 185.5s49.5 99.833 83.5 134.5c54 54.667 120.667 82 200 82c69.333 0 125 -21 167 -63c51.333 -51.333 77 -128 77 -230c0 -144 -39 -254.667 -117 -332
c-28 -27.333 -56.333 -46.166 -85 -56.499s-63 -15.5 -103 -15.5zM313.001 116.999c28.667 0 53.001 10.335 73.001 31.002c25.333 26 44 61.667 56 107s18 90.666 18 135.999c0 71.333 -14.333 118.666 -43 141.999c-14.667 11.333 -31.334 17 -50.001 17
c-28 0 -53.333 -10.333 -76 -31c-26 -24 -45.667 -58.167 -59 -102.5s-20 -89.5 -20 -135.5c0 -62 12 -106.333 36 -133c18 -20.667 39.667 -31 65 -31z" />
    <glyph glyph-name="one" unicode="1" horiz-adv-x="600" 
d="M231 0l66 537h-95l16 130h249l-82 -667h-154z" />
    <glyph glyph-name="two" unicode="2" horiz-adv-x="600" 
d="M38 0l200.002 199.999c57.333 57.333 99.333 103 126 137c40.667 51.333 61 96 61 134c0 26.667 -8.33301 47.334 -25 62.001c-14 12.667 -34 19 -60 19c-26.667 0 -47.667 -8.33301 -63 -25c-16.667 -18.667 -26.334 -45.667 -29.001 -81h-154
c5.33301 65.333 28.333 119.666 69 162.999c45.333 48.667 107.666 73 186.999 73c76.667 0 136 -20.333 178 -61c36.667 -35.333 55 -82.666 55 -141.999c0 -51.333 -14.667 -99.333 -44 -144c-24 -36 -60.333 -76.333 -109 -121l-91 -84h211l-17 -130h-495z" />
    <glyph glyph-name="three" unicode="3" horiz-adv-x="600" 
d="M257 467l-148.002 0.000976562c8 62.667 31 113 69 151c41.333 42 100 63 176 63c74 0 130.667 -18.667 170 -56c34.667 -33.333 52 -77 52 -131c0 -38 -9.66699 -69.667 -29 -95c-16 -20.667 -36.667 -36 -62 -46c22.667 -12 41.334 -29.333 56.001 -52
c16 -24.667 24 -53 24 -85c0 -68 -21 -123.333 -63 -166c-42.667 -44 -104.667 -66 -186 -66c-83.333 0 -147.333 22.333 -192 67c-43.333 43.333 -67.333 99 -72 167h154c2.66699 -30 12 -54.333 28 -73c17.333 -19.333 42.333 -29 75 -29c32 0 56.667 9.33301 74 28
c16 17.333 24 39.333 24 66c0 26 -8.66699 46.667 -26 62c-15.333 13.333 -41 20 -77 20h-9l14 106h10c34 0 59.333 6 76 18c20 15.333 30 36.666 30 63.999c0 22 -8 39.667 -24 53c-14 12 -32.667 18 -56 18c-24.667 0 -44.667 -7.66699 -60 -23
c-15.333 -16 -24.666 -36.333 -27.999 -61z" />
    <glyph glyph-name="four" unicode="4" horiz-adv-x="600" 
d="M569 667l-52 -421h80l-15 -122h-80l-15 -124h-148l15 124h-326l11 88l350 455h180zM205 246h164l31 255z" />
    <glyph glyph-name="five" unicode="5" horiz-adv-x="600" 
d="M580 667l-16.001 -129.999h-232l-32 -88c18.667 2.66699 33.334 4 44.001 4c70 0 124.333 -18.667 163 -56c37.333 -36 56 -85 56 -147c0 -77.333 -23 -140 -69 -188c-29.333 -31.333 -61.833 -52 -97.5 -62s-75.834 -15 -120.501 -15c-90 0 -170.333 26.333 -241 79
l52 137c24.667 -26.667 53.334 -47.334 86.001 -62.001s64 -22 94 -22c44.667 0 78.667 10.333 102 31c24 20.667 36 48.667 36 84c0 31.333 -11.667 57 -35 77c-24 21.333 -60 32 -108 32c-48.667 0 -95 -11.667 -139 -35l119 361h338z" />
    <glyph glyph-name="six" unicode="6" horiz-adv-x="600" 
d="M385 682l148.999 -36.001l-183 -201c36 6 70.5 3.83301 103.5 -6.5s60.833 -27.166 83.5 -50.499c36 -37.333 54 -86.333 54 -147c0 -77.333 -24 -139.333 -72 -186c-47.333 -46.667 -114.666 -70 -201.999 -70c-78 0 -139.333 17 -184 51c-53.333 41.333 -80 98 -80 170
c0 49.333 12 95.333 36 138c15.333 26.667 45 64 89 112zM313.999 110.999c36 0 64.665 10.667 85.998 32c22.667 22 34 51.333 34 88c0 28.667 -9.66699 52 -29 70c-19.333 19.333 -46.666 29 -81.999 29c-33.333 0 -61 -11 -83 -33c-21.333 -21.333 -32 -48 -32 -80
c0 -30.667 9.66699 -55.667 29 -75c20.667 -20.667 46.334 -31 77.001 -31z" />
    <glyph glyph-name="seven" unicode="7" horiz-adv-x="600" 
d="M52 20l358 517h-286l16 130h530l-471 -682z" />
    <glyph glyph-name="eight" unicode="8" horiz-adv-x="600" 
d="M460 346c27.333 -8 51.001 -21.334 71.001 -40.001c29.333 -28.667 44 -65.334 44 -110.001c0 -59.333 -19.333 -108.333 -58 -147c-42.667 -42.667 -108 -64 -196 -64c-78.667 0 -139.667 17 -183 51c-45.333 36 -68 82.667 -68 140c0 53.333 16.667 96 50 128
c25.333 24 57.333 40.333 96 49c-22 12 -40.333 28.667 -55 50c-16.667 24.667 -25 53.334 -25 86.001c0 52.667 17 96.334 51 131.001c40 41.333 98.667 62 176 62c73.333 0 128.666 -18.333 165.999 -55c32 -30 48 -71.667 48 -125c0 -44 -12.333 -79.667 -37 -107
c-20 -22 -46.667 -38.333 -80 -49zM352.001 409.999c26 0 47 8 63 24s24 36.667 24 62c0 22 -7.66699 39.667 -23 53c-14 12.667 -33 19 -57 19c-24.667 0 -44.667 -7.66699 -60 -23c-16.667 -16.667 -25 -37.667 -25 -63c0 -18 6 -33.667 18 -47
c15.333 -16.667 35.333 -25 60 -25zM319.001 106.999c30.667 0 55 8.66699 73 26c18 16.667 27 39 27 67c0 29.333 -10 52 -30 68c-18.667 13.333 -39.667 20 -63 20c-32 0 -57.333 -10 -76 -30c-16 -16 -24 -38 -24 -66c0 -25.333 8.66699 -46 26 -62
c16 -15.333 38.333 -23 67 -23z" />
    <glyph glyph-name="nine" unicode="9" horiz-adv-x="600" 
d="M141 21l179.999 202.001c-72.667 -6.66699 -132 12.666 -178 57.999c-38.667 36.667 -58 87.334 -58 152.001c0 75.333 24 135.666 72 180.999s116 68 204 68c84.667 0 149.334 -20.667 194.001 -62c42 -38.667 63 -90 63 -154c0 -50.667 -13.333 -98.667 -40 -144
c-14 -24.667 -46 -65 -96 -121l-192 -215zM356.999 556.001c-36 0 -64 -10.666 -84 -31.999s-30 -49 -30 -83c0 -28.667 9.33301 -52.334 28 -71.001c20 -20 46.667 -30 80 -30c34 0 61 10 81 30c22.667 22.667 34 50.667 34 84c0 30.667 -10.333 55.667 -31 75
c-19.333 18 -45.333 27 -78 27z" />
    <glyph glyph-name="colon" unicode=":" horiz-adv-x="278" 
d="M48 76c0 25.333 8.83301 46.833 26.5 64.5s39.167 26.5 64.5 26.5s46.833 -8.83301 64.5 -26.5s26.5 -39.167 26.5 -64.5s-8.83301 -46.833 -26.5 -64.5s-39.167 -26.5 -64.5 -26.5s-46.833 8.83301 -64.5 26.5s-26.5 39.167 -26.5 64.5zM85 370
c0 25.333 8.83301 46.833 26.5 64.5s39.167 26.5 64.5 26.5s46.833 -8.83301 64.5 -26.5s26.5 -39.167 26.5 -64.5s-8.83301 -46.833 -26.5 -64.5s-39.167 -26.5 -64.5 -26.5s-46.833 8.83301 -64.5 26.5s-26.5 39.167 -26.5 64.5z" />
    <glyph glyph-name="semicolon" unicode=";" horiz-adv-x="354" 
d="M-12 -128l145 282l136 -7l-185 -279zM130 370c0 25.333 8.83301 46.833 26.5 64.5s39.167 26.5 64.5 26.5s46.833 -8.83301 64.5 -26.5s26.5 -39.167 26.5 -64.5s-8.83301 -46.833 -26.5 -64.5s-39.167 -26.5 -64.5 -26.5s-46.833 8.83301 -64.5 26.5
s-26.5 39.167 -26.5 64.5z" />
    <glyph glyph-name="less" unicode="&#x3c;" 
d="M58 388l434 219v-124l-301 -149l301 -149v-124l-434 219v108z" />
    <glyph glyph-name="equal" unicode="=" 
d="M73 371v110h434v-110h-434zM73 199v110h434v-110h-434z" />
    <glyph glyph-name="greater" unicode="&#x3e;" 
d="M522 388v-108l-434 -219v124l301 149l-301 149v124z" />
    <glyph glyph-name="question" unicode="?" horiz-adv-x="525" 
d="M339 214h-145.999l23 184c14 -3.33301 29.333 -5 46 -5c44 0 77 9 99 27c21.333 17.333 32 41 32 71c0 20 -6.33301 36.333 -19 49c-12 12 -28 18 -48 18c-23.333 0 -41 -5.66699 -53 -17c-16 -15.333 -24.667 -35 -26 -59h-150c8 58.667 30.667 106.334 68 143.001
c38.667 38 94 57 166 57c70 0 124.333 -19.667 163 -59c34 -34.667 51 -79.667 51 -135c0 -60.667 -18.333 -108.334 -55 -143.001c-36.667 -33.333 -83.334 -50 -140.001 -50zM158.001 75c0 25.333 8.83301 46.833 26.5 64.5s39.167 26.5 64.5 26.5
s46.833 -8.83301 64.5 -26.5s26.5 -39.167 26.5 -64.5s-8.83301 -46.833 -26.5 -64.5s-39.167 -26.5 -64.5 -26.5s-46.833 8.83301 -64.5 26.5s-26.5 39.167 -26.5 64.5z" />
    <glyph glyph-name="at" unicode="@" horiz-adv-x="734" 
d="M523 445l12.999 42.0029h84l-65 -203c-5.33301 -18 -8 -31 -8 -39c0 -9.33301 2.66699 -16.666 8 -21.999c4.66699 -4.66699 11.667 -7 21 -7c12 0 25 5.66699 39 17c19.333 16 34.166 40.167 44.499 72.5s15.5 62.833 15.5 91.5c0 61.333 -21.333 110.333 -64 147
c-42 36 -96 54 -162 54c-83.333 0 -152.666 -28.667 -207.999 -86c-28 -28.667 -49.667 -62.834 -65 -102.501s-23 -79.834 -23 -120.501c0 -70 21 -126 63 -168c42.667 -42 106.334 -63 191.001 -63c57.333 0 116.666 11 177.999 33l10 -76
c-57.333 -21.333 -125 -32 -203 -32c-102.667 0 -181.667 27 -237 81c-56.667 54 -85 126.667 -85 218c0 55.333 9.66699 107.666 29 156.999s46 91.333 80 126c70.667 72 162.667 108 276 108c98.667 0 174.667 -29.333 228 -88c45.333 -50 68 -111.333 68 -184
c0 -90.667 -24 -160 -72 -208c-30 -30 -67 -45 -111 -45c-27.333 0 -48.333 6.33301 -63 19c-10.667 8.66699 -17.667 21 -21 37c-14 -20.667 -30.667 -36.334 -50 -47.001c-21.333 -11.333 -46.333 -17 -75 -17c-40 0 -71.333 11.333 -94 34c-24 25.333 -36 58.333 -36 99
c0 30 6.33301 61 19 93s30.334 59 53.001 81c34.667 33.333 76 50 124 50c45.333 0 78 -17.333 98 -52zM385.999 225.003c20 0 38.666 7.66504 55.999 22.998c30 26.667 45 60.334 45 101.001c0 18.667 -5 33.334 -15 44.001c-11.333 11.333 -25.666 17 -42.999 17
c-22.667 0 -42.667 -8.33301 -60 -25c-28.667 -26.667 -43 -59 -43 -97c0 -20 6 -36 18 -48c11.333 -10 25.333 -15 42 -15z" />
    <glyph glyph-name="A" unicode="A" horiz-adv-x="677" 
d="M517 0l-34 126h-252l-63 -126h-166l352 667h142l179 -667h-158zM289 244h166l-54 235z" />
    <glyph glyph-name="B" unicode="B" horiz-adv-x="594" 
d="M70 0l82 666.999h213c66.667 0 115.667 -15.333 147 -46c28.667 -27.333 43 -65.333 43 -114c0 -41.333 -10.333 -76 -31 -104c-18 -24.667 -41.333 -41.667 -70 -51c30 -7.33301 55.333 -20.666 76 -39.999c28.667 -28 43 -63.333 43 -106c0 -59.333 -18 -107 -54 -143
c-42 -42 -109 -63 -201 -63h-248zM291 546.999l-17.999 -151.001h31c39.333 0 67.666 8.33301 84.999 25c15.333 14 23 34 23 60c0 20.667 -7 37.334 -21 50.001c-13.333 10.667 -36 16 -68 16h-32zM259.001 281.998l-20.001 -162h56c48.667 0 82 8.33301 100 25
c16 14 24 35.333 24 64c0 21.333 -6 38 -18 50c-15.333 15.333 -42.666 23 -81.999 23h-60z" />
    <glyph glyph-name="C" unicode="C" horiz-adv-x="605" 
d="M587 187l-19.999 -165.999c-48 -24 -102 -36 -162 -36c-95.333 0 -173.666 29.667 -234.999 89c-60 60 -90 137 -90 231c0 111.333 35.333 202.333 106 273c69.333 69.333 158.333 104 267 104c71.333 0 134.333 -16 189 -48l-19 -163
c-44.667 44.667 -100.334 67 -167.001 67s-119.334 -21 -158.001 -63c-40 -42.667 -60 -95 -60 -157c0 -56.667 17.333 -102.334 52 -137.001s81.667 -52 141 -52c56 0 108 19.333 156 58z" />
    <glyph glyph-name="D" unicode="D" horiz-adv-x="685" 
d="M152 667l195 -0.000976562c113.333 0 198.333 -28.333 255 -85c53.333 -53.333 80 -127.333 80 -222c0 -113.333 -34.667 -202.666 -104 -267.999c-64.667 -61.333 -165.667 -92 -303 -92h-205zM290 536.999l-50 -407.001h47c75.333 0 132 17 170 51
c44.667 40 67 98.333 67 175c0 58.667 -16 103.334 -48 134.001c-32.667 31.333 -79 47 -139 47h-47z" />
    <glyph glyph-name="E" unicode="E" horiz-adv-x="502" 
d="M520 667l-16 -130h-218l-16 -129h210l-16 -130h-210l-18 -148h222l-16 -130h-372l82 667h368z" />
    <glyph glyph-name="F" unicode="F" horiz-adv-x="483" 
d="M523 667l-16 -130h-216l-16 -129h200l-16 -130h-200l-35 -278h-154l83 667h370z" />
    <glyph glyph-name="G" unicode="G" horiz-adv-x="767" 
d="M432 241l15.001 122.999h312c-3.33301 -123.333 -37.666 -218.333 -102.999 -285c-60 -62.667 -142 -94 -246 -94c-103.333 0 -185 31.333 -245 94c-56.667 59.333 -85 136.333 -85 231c0 108.667 33.333 198.334 100 269.001c38.667 40 80 67.167 124 81.5
s93.667 21.5 149 21.5c75.333 0 138 -16.333 188 -49c42.667 -28 78.667 -68 108 -120l-142 -75c-14.667 32.667 -35.334 58 -62.001 76c-27.333 18.667 -61.333 28 -102 28c-58 0 -104.667 -18.667 -140 -56c-43.333 -45.333 -65 -102 -65 -170
c0 -60 18.333 -107.667 55 -143c32 -32 77.667 -48 137 -48c43.333 0 78.666 10 105.999 30c28 20 47 48.667 57 86h-161z" />
    <glyph glyph-name="H" unicode="H" horiz-adv-x="720" 
d="M306 667l-31 -250h266l31 250h154l-82 -667h-154l35 287h-266l-35 -287h-154l82 667h154z" />
    <glyph glyph-name="I" unicode="I" horiz-adv-x="306" 
d="M155 667h154l-82 -667h-154z" />
    <glyph glyph-name="J" unicode="J" horiz-adv-x="415" 
d="M267 667l153.998 -0.000976562l-56 -453c-8 -60.667 -19 -104.667 -33 -132c-9.33301 -18.667 -21 -34.667 -35 -48c-34 -32.667 -83.667 -49 -149 -49c-43.333 0 -78.666 8 -105.999 24s-49.666 38.667 -66.999 68l105 96c6 -16 14 -28.667 24 -38
c10.667 -9.33301 24 -14 40 -14c15.333 0 28.333 4.66699 39 14c14.667 12.667 24 38.334 28 77.001z" />
    <glyph glyph-name="K" unicode="K" horiz-adv-x="670" 
d="M306 667l-34 -279l244 279h184l-291 -323l247 -344h-194l-201 302l-37 -302h-154l82 667h154z" />
    <glyph glyph-name="L" unicode="L" horiz-adv-x="448" 
d="M152 667h154l-66 -537h208l-16 -130h-362z" />
    <glyph glyph-name="M" unicode="M" horiz-adv-x="886" 
d="M196 0h-154l190 667h127l114 -399l216 399h131l24 -667h-154l-4 398l-213 -398h-58l-117 398z" />
    <glyph glyph-name="N" unicode="N" horiz-adv-x="796" 
d="M224 0h-154l83 667h134l307 -434l54 434h154l-82 -667h-134l-309 436z" />
    <glyph glyph-name="O" unicode="O" horiz-adv-x="810" 
d="M464 682c105.333 0 188.334 -29 249.001 -87c62.667 -60.667 94 -139.667 94 -237c0 -49.333 -8.66699 -98 -26 -146s-43 -89.333 -77 -124c-67.333 -68.667 -159.333 -103 -276 -103c-106.667 0 -191.334 31.667 -254.001 95c-62.667 64 -94 141.667 -94 233
c0 108.667 36.667 198 110 268c70.667 67.333 162 101 274 101zM458.001 540c-65.333 0 -118.334 -21.335 -159.001 -64.002s-61 -93.667 -61 -153c0 -57.333 18 -104 54 -140c36.667 -37.333 85.334 -56 146.001 -56c62 0 111.667 19 149 57
c41.333 42.667 62 97.334 62 164.001c0 58.667 -17.667 105.334 -53 140.001s-81.333 52 -138 52z" />
    <glyph glyph-name="P" unicode="P" horiz-adv-x="572" 
d="M152 667h225c78 0 135.667 -18.667 173 -56c36 -36 54 -83.667 54 -143c0 -76.667 -21.667 -135 -65 -175c-42 -39.333 -108 -59 -198 -59h-88l-29 -234h-154zM291 541l-22.999 -181h55c45.333 0 77.666 9.66699 96.999 29c17.333 16.667 26 39.667 26 69
c0 24.667 -7.33301 44 -22 58c-17.333 16.667 -46.333 25 -87 25h-46z" />
    <glyph glyph-name="Q" unicode="Q" horiz-adv-x="813" 
d="M639 -39l-46.001 60c-51.333 -23.333 -107.333 -35 -168 -35c-105.333 0 -189.666 31.667 -252.999 95c-61.333 61.333 -92 138.333 -92 231c0 110 35.333 199.667 106 269c68.667 67.333 160.667 101 276 101c110.667 0 197.667 -31.667 261 -95
c58 -58 87 -133.667 87 -227c0 -57.333 -11 -111 -33 -161c-20 -45.333 -48.667 -82 -86 -110l86 -107zM533.999 285l65 -84.001c35.333 36.667 53 84.334 53 143.001c0 60 -19.333 108.333 -58 145c-35.333 34 -82 51 -140 51c-66 0 -118.667 -21.333 -158 -64
c-38.667 -42 -58 -94 -58 -156c0 -53.333 16.667 -98 50 -134c36.667 -39.333 86 -59 148 -59c26.667 0 49 4.66699 67 14l-108 126z" />
    <glyph glyph-name="R" unicode="R" horiz-adv-x="607" 
d="M152 667l208.999 0.000976562c38.667 0 72.167 -3.83301 100.5 -11.5s53.833 -23.834 76.5 -48.501c32 -33.333 48 -78.666 48 -135.999c0 -60.667 -18.333 -109.334 -55 -146.001c-29.333 -28 -64.666 -46 -105.999 -54l172 -271h-180l-161 263l-32 -263h-154z
M290.999 547.001l-23 -183h38c39.333 0 69.333 8 90 24c22.667 17.333 34 43.333 34 78c0 30 -10.667 51.667 -32 65c-16.667 10.667 -44.667 16 -84 16h-23z" />
    <glyph glyph-name="S" unicode="S" horiz-adv-x="550" 
d="M554 616l-77.0029 -112c-35.333 32 -72.666 48 -111.999 48c-28 0 -49 -5.66699 -63 -17c-15.333 -12 -23 -28 -23 -48c0 -18 7.66699 -33 23 -45c9.33301 -8 31 -19.667 65 -35l39 -18c38.667 -18 68 -39.333 88 -64c22.667 -28.667 34 -63.334 34 -104.001
c0 -69.333 -22.333 -126.333 -67 -171c-44 -43.333 -107.667 -65 -191 -65c-51.333 0 -95.666 10 -132.999 30c-31.333 17.333 -61 41 -89 71l86 110c15.333 -21.333 34 -39 56 -53c24 -14.667 50 -22 78 -22c30.667 0 55.334 7 74.001 21
c18.667 14.667 28 35.334 28 62.001c0 18 -6.33301 33.333 -19 46c-10 10 -27.667 20 -53 30l-39 16c-38 14 -69.333 33.667 -94 59c-29.333 30 -44 67.667 -44 113c0 60.667 20 111 60 151c42.667 42 102.667 63 180 63c72.667 0 137 -22 193 -66z" />
    <glyph glyph-name="T" unicode="T" horiz-adv-x="460" 
d="M515 537h-145l-66 -537h-154l66 537h-145l16 130h444z" />
    <glyph glyph-name="U" unicode="U" horiz-adv-x="710" 
d="M151 667l154 -0.000976562l-44 -364c-3.33301 -23.333 -5 -42.666 -5 -57.999c0 -38 9.66699 -66.667 29 -86c21.333 -20 50.666 -30 87.999 -30c43.333 0 76 11 98 33s37 64.333 45 127l46 378h154l-48 -388c-4.66699 -36.667 -8.66699 -64.167 -12 -82.5
s-10.666 -41.5 -21.999 -69.5s-26.333 -51.333 -45 -70c-46.667 -48 -119.667 -72 -219 -72c-94.667 0 -165 23 -211 69c-39.333 38.667 -59 90 -59 154c0 22 2.66699 57 8 105z" />
    <glyph glyph-name="V" unicode="V" horiz-adv-x="678" 
d="M83 667h160l117 -427l221 427h172l-364 -667h-106z" />
    <glyph glyph-name="W" unicode="W" horiz-adv-x="1002" 
d="M83 667h156l88 -442l197 442h106l87 -442l196 442h164l-308 -667h-132l-89 405l-189 -405h-132z" />
    <glyph glyph-name="X" unicode="X" horiz-adv-x="686" 
d="M7 0l289 354l-169 313h181l87 -190l133 190h189l-245 -313l201 -354h-181l-119 231l-177 -231h-189z" />
    <glyph glyph-name="Y" unicode="Y" horiz-adv-x="632" 
d="M236 0l38 311l-195 356h176l109 -207l159 207h188l-283 -356l-38 -311h-154z" />
    <glyph glyph-name="Z" unicode="Z" horiz-adv-x="616" 
d="M673 667l-381 -537h282l-16 -130h-539l382 537h-264l16 130h520z" />
    <glyph glyph-name="bracketleft" unicode="[" horiz-adv-x="357" 
d="M394 631h-92l-87 -717h92l-12 -98h-214l112 913h214z" />
    <glyph glyph-name="backslash" unicode="\" horiz-adv-x="579" 
d="M584 -184l-113 -20l-406 933l113 20z" />
    <glyph glyph-name="bracketright" unicode="]" horiz-adv-x="357" 
d="M119 631l13 98h214l-112 -913h-214l12 98h92l87 717h-92z" />
    <glyph glyph-name="asciicircum" unicode="^" horiz-adv-x="496" 
d="M285 570l-111 -237h-132l161 334h165l161 -334h-132z" />
    <glyph glyph-name="underscore" unicode="_" 
d="M0 -184v118h500v-118h-500z" />
    <glyph glyph-name="grave" unicode="`" 
d="M303 515l-135 135l103 65l103 -152z" />
    <glyph glyph-name="a" unicode="a" horiz-adv-x="598" 
d="M444 392l3.99902 53.999h144l-55 -446h-144l11 51c-19.333 -22.667 -40.333 -39.334 -63 -50.001c-23.333 -10.667 -51 -16 -83 -16c-57.333 0 -103.333 18.333 -138 55c-40 42.667 -60 97.334 -60 164.001c0 78.667 24 142.667 72 192
c42.667 43.333 97.334 65 164.001 65c34.667 0 63.667 -5.66699 87 -17c24 -11.333 44.333 -28.666 61 -51.999zM326.999 336.999c-34.667 0 -62.998 -11 -84.998 -33c-22.667 -22.667 -34 -52.334 -34 -89.001c0 -30 9.66699 -55.333 29 -76
c19.333 -20 44.666 -30 75.999 -30c33.333 0 60.666 10 81.999 30c25.333 24.667 38 56.667 38 96c0 32.667 -10.333 58.334 -31 77.001c-18 16.667 -43 25 -75 25z" />
    <glyph glyph-name="b" unicode="b" horiz-adv-x="602" 
d="M295 729l-42 -333c15.333 19.333 33.666 34.666 54.999 45.999c25.333 12.667 54.333 19 87 19c55.333 0 100.333 -16 135 -48c42.667 -39.333 64 -93.666 64 -162.999c0 -84.667 -24.333 -152 -73 -202c-41.333 -42 -96.333 -63 -165 -63
c-37.333 0 -68.666 7 -93.999 21c-21.333 12 -39.333 28.333 -54 49l-4 -55h-144l91 729h144zM344 337c-34.667 0 -62.333 -10.332 -83 -30.999c-24.667 -24.667 -37 -55.334 -37 -92.001c0 -34 9.66699 -59.667 29 -77c20 -18.667 44.333 -28 73 -28c32.667 0 60 11 82 33
c25.333 24 38 55 38 93c0 30.667 -10.333 55.667 -31 75c-18 18 -41.667 27 -71 27z" />
    <glyph glyph-name="c" unicode="c" horiz-adv-x="431" 
d="M445 432l-17 -131c-27.333 25.333 -60.666 38 -99.999 38c-35.333 0 -64.333 -11.333 -87 -34c-22 -24 -33 -53.667 -33 -89c0 -32.667 10.667 -59 32 -79c20.667 -20 46.667 -30 78 -30c34 0 64.333 12 91 36l-16 -132c-35.333 -17.333 -74.666 -26 -117.999 -26
c-64.667 0 -116.334 20.667 -155.001 62c-40 43.333 -60 97 -60 161c0 73.333 23.333 134 70 182c46 47.333 107.667 71 185 71c47.333 0 90.666 -9.66699 129.999 -29z" />
    <glyph glyph-name="d" unicode="d" horiz-adv-x="602" 
d="M441 392l41 337h144l-90 -729h-143l8 51c-15.333 -22 -35 -38.667 -59 -50c-22 -10.667 -50.667 -16 -86 -16c-55.333 0 -100.333 17 -135 51c-40.667 40.667 -61 94.667 -61 162c0 82 25.667 148.667 77 200c42 42 95.333 63 160 63c60 0 108 -23 144 -69zM326 337
c-32.667 0 -60 -11.001 -82 -33.001c-24 -24 -36 -54.333 -36 -91c0 -32 10.333 -57.667 31 -77c18 -18 42.667 -27 74 -27c34 0 61.667 11.333 83 34c23.333 24.667 35 55.334 35 92.001c0 28.667 -9.66699 52.667 -29 72c-20 20 -45.333 30 -76 30z" />
    <glyph glyph-name="e" unicode="e" horiz-adv-x="542" 
d="M218 283h181.002c-2.66699 24.667 -12.334 44 -29.001 58c-14.667 12 -34.334 18 -59.001 18c-27.333 0 -50 -9 -68 -27c-12.667 -14 -21 -30.333 -25 -49zM537.002 195l-332.999 0.000976562c-1.33301 -26 4.66699 -48.333 18 -67c15.333 -20.667 38.333 -31 69 -31
c24.667 0 43.667 4.33301 57 13c13.333 9.33301 23.666 22.666 30.999 39.999l145 -12c-19.333 -48 -46.333 -85 -81 -111c-37.333 -28 -88.333 -42 -153 -42c-76 0 -134 20 -174 60c-37.333 37.333 -56 89.333 -56 156c0 83.333 25.667 149.333 77 198
c44 41.333 103 62 177 62c72 0 127.667 -19 167 -57c26.667 -26 43.667 -58.5 51 -97.5s9 -76.167 5 -111.5z" />
    <glyph glyph-name="f" unicode="f" horiz-adv-x="326" 
d="M360 330h-114.001l-40 -330h-144l40 330h-52l16 116h52l10 97c6.66699 66.667 25.667 116 57 148c32.667 32.667 74.667 49 126 49c30.667 0 62.334 -6 95.001 -18l-16 -124c-16 12 -33 18 -51 18c-20 0 -35 -5.66699 -45 -17c-12.667 -12.667 -20.667 -34.667 -24 -66
l-10 -87h114z" />
    <glyph glyph-name="g" unicode="g" horiz-adv-x="595" 
d="M440 392l5 53.999h144l-56 -448c-10 -73.333 -32.333 -127.333 -67 -162c-43.333 -43.333 -108.333 -65 -195 -65c-75.333 0 -133 18.667 -173 56c-34 33.333 -54.667 74 -62 122h154c4.66699 -18 13.667 -32.667 27 -44c14.667 -12 35.667 -18 63 -18
c34 0 60.333 11 79 33c16 18.667 26 46.334 30 83.001l6 48c-29.333 -42 -75 -63 -137 -63c-58 0 -104 17.667 -138 53c-40 41.333 -60 95.333 -60 162c0 78.667 24.333 143 73 193c42.667 43.333 96 65 160 65c60.667 0 109.667 -23 147 -69zM320 335.999
c-33.333 0 -59.666 -9.66699 -78.999 -29c-22 -22 -33 -52 -33 -90c0 -32.667 10 -58.667 30 -78c19.333 -18 43.333 -27 72 -27c33.333 0 59.666 9.66699 78.999 29c10.667 10 19.5 24.167 26.5 42.5s10.5 35.833 10.5 52.5c0 30.667 -9.66699 55 -29 73
c-18 18 -43.667 27 -77 27z" />
    <glyph glyph-name="h" unicode="h" horiz-adv-x="571" 
d="M150 729l144 -0.000976562l-42 -332c16.667 17.333 35 31.333 55 42c24 12.667 54.333 19 91 19c49.333 0 87 -12.667 113 -38c25.333 -24.667 38 -60 38 -106c0 -19.333 -2.33301 -47.666 -7 -84.999l-27 -229h-144l24 193c4 30.667 6 54.667 6 72
c0 23.333 -6 41.333 -18 54c-12.667 12.667 -29.667 19 -51 19c-28.667 0 -51 -8 -67 -24c-18 -18 -29.667 -49.333 -35 -94l-26 -220h-144z" />
    <glyph glyph-name="i" unicode="i" horiz-adv-x="276" 
d="M120 446h144l-55 -446h-144zM127 636c0 23.333 8.16699 43.166 24.5 59.499s36.166 24.5 59.499 24.5s43.166 -8.16699 59.499 -24.5s24.5 -36.166 24.5 -59.499s-8.16699 -43.166 -24.5 -59.499s-36.166 -24.5 -59.499 -24.5s-43.166 8.16699 -59.499 24.5
s-24.5 36.166 -24.5 59.499z" />
    <glyph glyph-name="j" unicode="j" horiz-adv-x="276" 
d="M120 446h144l-85 -675h-144zM127 636c0 23.333 8.16699 43.166 24.5 59.499s36.166 24.5 59.499 24.5s43.166 -8.16699 59.499 -24.5s24.5 -36.166 24.5 -59.499s-8.16699 -43.166 -24.5 -59.499s-36.166 -24.5 -59.499 -24.5s-43.166 8.16699 -59.499 24.5
s-24.5 36.166 -24.5 59.499z" />
    <glyph glyph-name="k" unicode="k" horiz-adv-x="566" 
d="M151 729h144l-55 -447l164 164h192l-219 -205l202 -241h-185l-164 196l-26 -196h-144z" />
    <glyph glyph-name="l" unicode="l" horiz-adv-x="264" 
d="M150 729h144l-90 -729h-144z" />
    <glyph glyph-name="m" unicode="m" horiz-adv-x="843" 
d="M56 0l54.998 446.001h144l-8 -52c13.333 18.667 31 34 53 46c24.667 11.333 50 17 76 17c32.667 0 59.667 -7.33301 81 -22c21.333 -14 36.666 -34 45.999 -60c16.667 24.667 36.334 44 59.001 58c26 16 57.667 24 95 24c50.667 0 90.334 -13.667 119.001 -41
c16.667 -16 28.167 -35.5 34.5 -58.5s9.16602 -41.667 8.49902 -56s-2.66699 -34.833 -6 -61.5l-29 -240h-144l26 215c3.33301 30 5 48.333 5 55c0 22 -6 39 -18 51c-10.667 10.667 -25 16 -43 16c-22 0 -40.333 -7.33301 -55 -22c-18.667 -18.667 -31 -52 -37 -100
l-26 -215h-144l27 220c2.66699 24 4 40.333 4 49c0 23.333 -5.33301 40.333 -16 51c-11.333 11.333 -26.666 17 -45.999 17c-21.333 0 -39.666 -7.66699 -54.999 -23c-18 -18.667 -30 -52.334 -36 -101.001l-26 -213h-144z" />
    <glyph glyph-name="n" unicode="n" horiz-adv-x="567" 
d="M111 446l144.001 -0.000976562l-7 -49c16.667 17.333 35 31.333 55 42c24 12.667 53.333 19 88 19c51.333 0 90 -12.667 116 -38c25.333 -24.667 38 -60 38 -106c0 -19.333 -2.33301 -47.666 -7 -84.999l-27 -229h-144l24 193c4 30.667 6 54.667 6 72
c0 23.333 -6 41.333 -18 54c-12.667 12.667 -30.334 19 -53.001 19c-27.333 0 -49 -8 -65 -24c-18 -18.667 -29.667 -50 -35 -94l-26 -220h-144z" />
    <glyph glyph-name="o" unicode="o" horiz-adv-x="592" 
d="M337 461c78.667 0 141 -23 187 -69c40 -40 60 -90.333 60 -151c0 -72.667 -24 -133.667 -72 -183c-48 -48.667 -116.333 -73 -205 -73c-80.667 0 -142.667 22.333 -186 67c-40.667 42 -61 94.333 -61 157c0 71.333 24 130 72 176c52 50.667 120.333 76 205 76zM315 107
c33.333 0 61.334 10.666 84.001 31.999c24.667 24 37 55.667 37 95c0 32.667 -10 58.334 -30 77.001s-46 28 -78 28c-30.667 0 -57.334 -10.333 -80.001 -31c-26.667 -24 -40 -55.667 -40 -95c0 -30 9.66699 -55.333 29 -76c18.667 -20 44.667 -30 78 -30z" />
    <glyph glyph-name="p" unicode="p" horiz-adv-x="598" 
d="M210 55l-36 -283.999h-144l83 675h144l-8 -52c16 19.333 34.667 34.666 56 45.999c27.333 14 58 21 92 21c56 0 101 -16.333 135 -49c39.333 -39.333 59 -95 59 -167c0 -83.333 -25 -150 -75 -200c-40 -40 -90.333 -60 -151 -60c-40 0 -72.333 6.33301 -97 19
c-22.667 12 -42 29 -58 51zM341 337.001c-33.333 0 -61.332 -11.333 -83.999 -34c-24 -24 -36 -54 -36 -90c0 -30 9 -54.333 27 -73c19.333 -20.667 44.333 -31 75 -31c31.333 0 58 10.333 80 31c12 10.667 21.667 25.167 29 43.5s11 35.833 11 52.5
c0 31.333 -10.333 56.333 -31 75c-18.667 17.333 -42.334 26 -71.001 26z" />
    <glyph glyph-name="q" unicode="q" horiz-adv-x="598" 
d="M440 392l6 54h144l-83 -675h-144l34 276c-16 -18.667 -35 -33.667 -57 -45c-23.333 -11.333 -51.333 -17 -84 -17c-56.667 0 -102.667 18.333 -138 55c-38.667 38.667 -58 93 -58 163c0 80 24.667 145.333 74 196c40.667 41.333 95.667 62 165 62
c30.667 0 57.667 -6 81 -18c24.667 -12.667 44.667 -29.667 60 -51zM328 337c-33.333 0 -61.334 -11.334 -84.001 -34.001c-24 -24 -36 -53.667 -36 -89c0 -31.333 9 -56.666 27 -75.999s42.333 -29 73 -29s57.334 10 80.001 30c26.667 23.333 40 56 40 98
c0 30 -9.33301 54.333 -28 73c-18 18 -42 27 -72 27z" />
    <glyph glyph-name="r" unicode="r" horiz-adv-x="384" 
d="M56 0l54.999 446h144l-13 -66c12.667 25.333 31.334 45 56.001 59c22.667 12 47.667 18 75 18c22 0 41.667 -2.33301 59 -7l-28 -134c-20 10 -41 15 -63 15c-30 0 -54.667 -9 -74 -27c-22 -20.667 -36.333 -58.667 -43 -114l-24 -190h-144z" />
    <glyph glyph-name="s" unicode="s" horiz-adv-x="434" 
d="M428 416l-60.998 -89.001c-26.667 20 -54.667 30 -84 30c-20 0 -34.333 -4 -43 -12c-6.66699 -5.33301 -10 -12.666 -10 -21.999c0 -10 4.66699 -18 14 -24c4 -2.66699 15.667 -6.66699 35 -12l33 -9c33.333 -9.33301 59 -23.333 77 -42c22 -22 33 -50.333 33 -85
c0 -45.333 -14 -82 -42 -110c-36 -37.333 -88.333 -56 -157 -56c-44.667 0 -83.334 7.33301 -116.001 22c-23.333 10.667 -46.333 26 -69 46l61 97c16.667 -16 35 -28.333 55 -37c23.333 -9.33301 44 -14 62 -14s32.667 3.33301 44 10c12 6.66699 18 16.334 18 29.001
c0 12 -4.66699 21.333 -14 28c-2.66699 2 -14.334 6.33301 -35.001 13l-32 10c-32.667 9.33301 -57.667 22.666 -75 39.999c-20 22 -30 48.667 -30 80c0 41.333 14 76 42 104c32.667 32 81.667 48 147 48c54.667 0 103.667 -15 147 -45z" />
    <glyph glyph-name="t" unicode="t" horiz-adv-x="299" 
d="M334 330h-88l-41 -330h-144l41 330h-52l14 116h52l18 144h144l-18 -144h88z" />
    <glyph glyph-name="u" unicode="u" horiz-adv-x="570" 
d="M423 446l143.998 -0.00195312l-28 -241c-2.66699 -22.667 -5.5 -41.5 -8.5 -56.5s-9.33301 -32.833 -19 -53.5s-22.167 -38.334 -37.5 -53.001c-39.333 -38 -97.666 -57 -174.999 -57c-80.667 0 -138.667 17 -174 51c-32 30 -48 70 -48 120c0 18.667 1.66699 39.667 5 63
l27 227h144l-26 -222c-3.33301 -31.333 -5 -47.666 -5 -48.999c0 -21.333 6.33301 -37.666 19 -48.999c14 -12.667 33.667 -19 59 -19c28 0 50 8.33301 66 25c14.667 14.667 24.334 41.334 29.001 80.001z" />
    <glyph glyph-name="v" unicode="v" horiz-adv-x="546" 
d="M54 446h150l85 -239l147 239h160l-284 -446h-86z" />
    <glyph glyph-name="w" unicode="w" horiz-adv-x="852" 
d="M450 254l-145 -254h-92l-159 446h152l81 -237l141 237h84l93 -237l133 237h162l-269 -446h-90z" />
    <glyph glyph-name="x" unicode="x" horiz-adv-x="620" 
d="M632 446l-206 -205l184 -241h-182l-102 144l-131 -144h-192l234 241l-158 205h182l77 -115l102 115h192z" />
    <glyph glyph-name="y" unicode="y" horiz-adv-x="583" 
d="M40 -229l184 286l-173 389h164l99 -244l150 244h169l-431 -675h-162z" />
    <glyph glyph-name="z" unicode="z" horiz-adv-x="499" 
d="M552 446l-281 -326h223l-17 -120h-477l282 326h-201l18 120h453z" />
    <glyph glyph-name="braceleft" unicode="{" horiz-adv-x="506" 
d="M284 272c18 -9.33301 30.335 -21 37.002 -35s10 -32.333 10 -55c0 -9.33301 -0.666992 -21.333 -2 -36l-19 -160c-1.33301 -8 -2 -13.667 -2 -17c0 -16 5.66699 -27 17 -33s31.333 -9 60 -9h19l-13 -109c-29.333 -1.33301 -54.333 -2 -75 -2
c-46.667 0 -80.667 8.33301 -102 25c-23.333 18 -35 43.667 -35 77c0 12 1.33301 26 4 42l23 189c0.666992 4 1 9.66699 1 17c0 14.667 -3.66699 27.667 -11 39s-19.333 17 -36 17l13 106c36.667 2 58 26.333 64 73l23 184c6 52.667 22.667 90 50 112
c27.333 21.333 70.666 32 129.999 32c26.667 0 47.334 -0.666992 62.001 -2l-13 -109h-39c-22.667 0 -39.334 -4.66699 -50.001 -14s-17.334 -24.333 -20.001 -45l-20 -161c-4 -30.667 -12.333 -57.5 -25 -80.5s-29.667 -38.167 -51 -45.5z" />
    <glyph glyph-name="bar" unicode="|" horiz-adv-x="504" 
d="M226 -250v1000h126v-1000h-126z" />
    <glyph glyph-name="braceright" unicode="}" horiz-adv-x="506" 
d="M193 -14l19.998 160.998c8.66699 71.333 33.667 113.333 75 126c-19.333 8 -32 18.667 -38 32s-9 30 -9 50c0 12.667 1 27.334 3 44.001l19 160c0.666992 3.33301 1 9.33301 1 18c0 12.667 -4.5 22.167 -13.5 28.5s-18 10 -27 11s-21.167 1.5 -36.5 1.5h-19l13 109
c16 1.33301 40.667 2 74 2c91.333 0 137 -34 137 -102c0 -14 -1 -28 -3 -42l-22 -183c-0.666992 -4 -1 -10.333 -1 -19c0 -15.333 4.16699 -28 12.5 -38s19.833 -15.333 34.5 -16l-13 -106c-38 -4 -59.333 -28.333 -64 -73l-24 -190c-2 -18.667 -4 -32.5 -6 -41.5
s-6.5 -20.5 -13.5 -34.5s-16.833 -26 -29.5 -36c-26.667 -21.333 -66.667 -32 -120 -32c-27.333 0 -51.666 0.666992 -72.999 2l13 109h19c15.333 0 26.833 0.333008 34.5 1s16.334 2.83398 26.001 6.50098s16.667 9.66699 21 18s7.5 19.5 9.5 33.5z" />
    <glyph glyph-name="asciitilde" unicode="~" 
d="M286 225l-36.0029 14c-29.333 10.667 -50.666 16 -63.999 16c-32 0 -57.667 -20.333 -77 -61l-71 43l5 11c20.667 45.333 39.334 76.333 56.001 93c24 24 54 36 90 36c24 0 50.667 -5.66699 80 -17l45 -17c27.333 -10.667 50.333 -16 69 -16
c28.667 0 52.334 17.333 71.001 52l72 -42l-4 -8c-41.333 -82.667 -91 -124 -149 -124c-22.667 0 -51.667 6.66699 -87 20z" />
    <glyph glyph-name="uni00A0" unicode="&#xa0;" horiz-adv-x="233" 
 />
    <glyph glyph-name="exclamdown" unicode="&#xa1;" horiz-adv-x="298" 
d="M259 214l-54 -444h-156l54 444h156zM109 362c0 25.333 8.83301 46.833 26.5 64.5s39.167 26.5 64.5 26.5s46.833 -8.83301 64.5 -26.5s26.5 -39.167 26.5 -64.5s-8.83301 -46.833 -26.5 -64.5s-39.167 -26.5 -64.5 -26.5s-46.833 8.83301 -64.5 26.5
s-26.5 39.167 -26.5 64.5z" />
    <glyph glyph-name="cent" unicode="&#xa2;" horiz-adv-x="600" 
d="M532 544l-15.999 -130c-29.333 24 -61.333 36 -96 36c-36 0 -65 -11 -87 -33c-23.333 -23.333 -35 -51.333 -35 -84c0 -30.667 9.66699 -55.667 29 -75c20 -20 47 -30 81 -30s64 11.333 90 34l-17 -133c-26 -12.667 -53.333 -20.334 -82 -23.001l-11 -93h-90l13 100
c-46.667 9.33301 -85.334 32.333 -116.001 69c-30 38.667 -45 85.334 -45 140.001c0 76 22.667 136.667 68 182c39.333 39.333 88.333 61.333 147 66l10 90h90l-11 -94c24.667 -2.66699 50.667 -10 78 -22z" />
    <glyph glyph-name="sterling" unicode="&#xa3;" horiz-adv-x="600" 
d="M189 248h-109.998l11 92h75c-14 43.333 -21 83.666 -21 120.999c0 64 20.333 116.333 61 157c42.667 42.667 102 64 178 64c72.667 0 128.667 -21 168 -63c38 -39.333 57 -92.666 57 -159.999c0 -12 -0.333008 -21 -1 -27h-145c0.666992 4 1 11 1 21
c0 34.667 -8.33301 60.667 -25 78c-14.667 14.667 -34.334 22 -59.001 22c-22.667 0 -42 -7 -58 -21c-21.333 -18.667 -32 -46.667 -32 -84c0 -14.667 7.33301 -50.667 22 -108h166l-12 -92h-146c0.666992 -4 1 -10 1 -18c0 -30.667 -8.66699 -59 -26 -85
c20 -4.66699 39.667 -11.334 59 -20.001c28.667 -11.333 49.334 -17 62.001 -17c16 0 28.667 5 38 15c8.66699 10 14.667 21 18 33l104 -10c-6.66699 -48.667 -24.334 -88.667 -53.001 -120c-26 -27.333 -62 -41 -108 -41c-30.667 0 -65 7.33301 -103 22l-41 16
c-23.333 10 -45 15 -65 15c-32 0 -51.667 -14.333 -59 -43l-107 9c11.333 38 25.666 69 42.999 93c22 30 52.667 49.333 92 58c11.333 18.667 17 40.334 17 65.001c0 12 -0.666992 21.333 -2 28z" />
    <glyph glyph-name="currency" unicode="&#xa4;" horiz-adv-x="667" 
d="M129 67l-67.999 67.999l103 103c-29.333 36.667 -44 82.667 -44 138c0 51.333 15 97.333 45 138l-104 104l68 68l104 -103c37.333 29.333 84 44 140 44c55.333 0 101.666 -14.667 138.999 -44l103 103l68 -68l-102 -103c30 -37.333 45 -83.666 45 -138.999
c0 -56.667 -14.667 -102.667 -44 -138l103 -103l-68 -68l-103 103c-36.667 -30 -82.667 -45 -138 -45c-58.667 0 -106.667 14.667 -144 44zM373.001 236.999c38.667 0 71.001 12.667 97.001 38c26.667 26 40 59.667 40 101c0 40.667 -13 74 -39 100s-58.667 39 -98 39
c-40.667 0 -73.334 -13 -98.001 -39c-26 -26 -39 -59.333 -39 -100c0 -40 12.667 -72.667 38 -98c27.333 -27.333 60.333 -41 99 -41z" />
    <glyph glyph-name="yen" unicode="&#xa5;" horiz-adv-x="600" 
d="M241 347h-140l12 97h82l-107 223h168l91 -212l140 212h182l-165 -223h86l-12 -97h-146l-28 -35l-3 -28h169l-12 -97h-169l-23 -187h-146l23 187h-162l12 97h162l3 28z" />
    <glyph glyph-name="brokenbar" unicode="&#xa6;" horiz-adv-x="504" 
d="M226 365v385h126v-385h-126zM226 -250v386h126v-386h-126z" />
    <glyph glyph-name="section" unicode="&#xa7;" horiz-adv-x="574" 
d="M80 9l129.997 0.00195312c0 -28 7.33301 -49.333 22 -64c12.667 -12.667 30 -19 52 -19c24 0 42 6 54 18c12.667 12.667 19 28.334 19 47.001c0 17.333 -6.33301 32 -19 44c-7.33301 7.33301 -30.666 20.666 -69.999 39.999l-43 21c-33.333 16 -58.666 32.667 -75.999 50
c-29.333 29.333 -44 68.333 -44 117c0 42.667 11.333 78.667 34 108c22 28 49.667 49 83 63c-40.667 26 -61 64 -61 114c0 54 16.333 97.333 49 130c34.667 34 83.667 51 147 51c68.667 0 120 -17.667 154 -53c32.667 -34 49.667 -77.667 51 -131h-130
c0 26 -6.33301 45.333 -19 58s-30 19 -52 19c-22.667 0 -40 -6 -52 -18s-18 -27.333 -18 -46c0 -19.333 10 -36.333 30 -51c14 -10 35 -21.667 63 -35l38 -18c38.667 -18 66.667 -38.333 84 -61c23.333 -28.667 35 -66 35 -112c0 -44.667 -11.333 -81.334 -34 -110.001
c-17.333 -23.333 -42 -40.333 -74 -51c34.667 -30 52 -69 52 -117c0 -54.667 -17.333 -99.334 -52 -134.001c-35.333 -35.333 -84.666 -53 -147.999 -53c-65.333 0 -115.333 18 -150 54c-32.667 34.667 -51 81 -55 139zM320.997 197.002c26 0 45.999 7.66797 59.999 23.001
c14.667 15.333 22 34.666 22 57.999c0 28 -7.66699 48.333 -23 61c-13.333 11.333 -32.333 17 -57 17c-25.333 0 -45 -7.33301 -59 -22c-15.333 -15.333 -23 -37 -23 -65c0 -20.667 7 -38 21 -52c14.667 -13.333 34.334 -20 59.001 -20z" />
    <glyph glyph-name="dieresis" unicode="&#xa8;" 
d="M136 599c0 21.333 7.83301 39.833 23.5 55.5s34.167 23.5 55.5 23.5s39.833 -7.83301 55.5 -23.5s23.5 -34.167 23.5 -55.5s-7.83301 -39.833 -23.5 -55.5s-34.167 -23.5 -55.5 -23.5s-39.833 7.83301 -55.5 23.5s-23.5 34.167 -23.5 55.5zM354 599
c0 21.333 7.83301 39.833 23.5 55.5s34.167 23.5 55.5 23.5s39.833 -7.83301 55.5 -23.5s23.5 -34.167 23.5 -55.5s-7.83301 -39.833 -23.5 -55.5s-34.167 -23.5 -55.5 -23.5s-39.833 7.83301 -55.5 23.5s-23.5 34.167 -23.5 55.5z" />
    <glyph glyph-name="copyright" unicode="&#xa9;" horiz-adv-x="762" 
d="M547 518l0.000976562 -122c-29.333 33.333 -63.333 50 -102 50c-32.667 0 -59.334 -10 -80.001 -30c-21.333 -20.667 -32 -48.667 -32 -84c0 -32 9.33301 -58 28 -78c21.333 -22.667 49.666 -34 84.999 -34c36.667 0 70.334 16.333 101.001 49v-120
c-38 -16.667 -75 -25 -111 -25c-66.667 0 -119 19.667 -157 59c-38.667 40 -58 89.333 -58 148c0 60 19.667 109.667 59 149c40 41.333 93.333 62 160 62c37.333 0 73 -8 107 -24zM421.001 620c-32.667 0 -66.5 -7 -101.5 -21s-64.833 -33 -89.5 -57
c-25.333 -24.667 -46 -55.667 -62 -93s-24 -75.666 -24 -114.999c0 -40 8 -78.833 24 -116.5s36.667 -68.5 62 -92.5c24.667 -24 54.5 -43 89.5 -57s68.833 -21 101.5 -21s66.5 7 101.5 21s64.833 33 89.5 57c25.333 24 46 54.833 62 92.5s24 76.5 24 116.5
c0 39.333 -8 77.666 -24 114.999s-36.667 68.333 -62 93c-24.667 24 -54.5 43 -89.5 57s-68.833 21 -101.5 21zM768.001 333c0 -97.333 -34.333 -180.333 -103 -249c-67.333 -66 -148.666 -99 -243.999 -99s-176.666 33 -243.999 99c-68.667 68.667 -103 151.667 -103 249
c0 98 34.333 181.333 103 250c67.333 66 148.666 99 243.999 99s176.666 -33 243.999 -99c68.667 -68.667 103 -152 103 -250z" />
    <glyph glyph-name="ordfeminine" unicode="&#xaa;" horiz-adv-x="349" 
d="M307 659l84 0.000976562l-32 -264h-84l5 32c-22.667 -27.333 -51.667 -41 -87 -41c-34 0 -61.333 10 -82 30c-24 23.333 -36 55.666 -36 96.999c0 48 14 86.333 42 115c26 26 59.667 39 101 39c37.333 0 66 -13 86 -39zM233 593.001
c-21.333 0 -38.668 -6.66602 -52.001 -19.999c-12.667 -14 -19 -31 -19 -51c0 -18.667 5.33301 -33.334 16 -44.001c10.667 -12 26.667 -18 48 -18s38.333 6.33301 51 19c13.333 12 20 29.667 20 53c0 19.333 -6 34.333 -18 45c-11.333 10.667 -26.666 16 -45.999 16z
M66.998 357.002h287l-9 -66h-286z" />
    <glyph glyph-name="guillemotleft" unicode="&#xab;" horiz-adv-x="534" 
d="M186 214l98 -159l-88 -47l-128 216l181 215l72 -65zM394 214l98 -159l-88 -47l-128 216l181 215l72 -65z" />
    <glyph glyph-name="logicalnot" unicode="&#xac;" 
d="M488 0h-126v149h-310v118h436v-267z" />
    <glyph glyph-name="uni00AD" unicode="&#xad;" horiz-adv-x="356" 
d="M73 190l16 126h256l-16 -126h-256z" />
    <glyph glyph-name="registered" unicode="&#xae;" horiz-adv-x="762" 
d="M268 529h142c54.667 0 94.667 -13 120 -39c20.667 -20.667 31 -48 31 -82c0 -30 -9.66699 -55.333 -29 -76c-15.333 -15.333 -33.333 -25.333 -54 -30l107 -152h-133l-76 128v-128h-108v379zM376 449v-88h15c20.667 0 35.667 3 45 9c12.667 8 19 20.333 19 37
c0 14 -4.66699 24.667 -14 32c-9.33301 6.66699 -26.333 10 -51 10h-14zM421 620c-32.667 0 -66.5 -7 -101.5 -21s-64.833 -33 -89.5 -57c-25.333 -24.667 -46 -55.667 -62 -93s-24 -75.666 -24 -114.999c0 -40 8 -78.833 24 -116.5s36.667 -68.5 62 -92.5
c24.667 -24 54.5 -43 89.5 -57s68.833 -21 101.5 -21s66.5 7 101.5 21s64.833 33 89.5 57c25.333 24 46 54.833 62 92.5s24 76.5 24 116.5c0 39.333 -8 77.666 -24 114.999s-36.667 68.333 -62 93c-24.667 24 -54.5 43 -89.5 57s-68.833 21 -101.5 21zM768 333
c0 -97.333 -34.333 -180.333 -103 -249c-67.333 -66 -148.666 -99 -243.999 -99s-176.666 33 -243.999 99c-68.667 68.667 -103 151.667 -103 249c0 98 34.333 181.333 103 250c67.333 66 148.666 99 243.999 99s176.666 -33 243.999 -99c68.667 -68.667 103 -152 103 -250z
" />
    <glyph glyph-name="macron" unicode="&#xaf;" 
d="M127 543l11 90h380l-11 -90h-380z" />
    <glyph glyph-name="degree" unicode="&#xb0;" horiz-adv-x="502" 
d="M235 515c0 -20 7.5 -37.333 22.5 -52s32.833 -22 53.5 -22s38.5 7.33301 53.5 22s22.5 32 22.5 52s-7.5 37.333 -22.5 52s-32.833 22 -53.5 22s-38.5 -7.33301 -53.5 -22s-22.5 -32 -22.5 -52zM157 515c0 42.667 14.833 78.667 44.5 108s66.167 44 109.5 44
s79.833 -14.667 109.5 -44s44.5 -65.333 44.5 -108s-14.833 -78.667 -44.5 -108s-66.167 -44 -109.5 -44s-79.833 14.667 -109.5 44s-44.5 65.333 -44.5 108z" />
    <glyph glyph-name="plusminus" unicode="&#xb1;" 
d="M63 356v116h154v155h126v-155h154v-116h-154v-155h-126v155h-154zM63 51v116h434v-116h-434z" />
    <glyph glyph-name="twosuperior" unicode="&#xb2;" horiz-adv-x="395" 
d="M62 275l119.001 118.999l26.5 26l24.5 24c4.66699 4.66699 10.5 10.834 17.5 18.501s12.5 14.167 16.5 19.5s8 11 12 17c12 18.667 18 37 18 55c0 15.333 -5 27 -15 35c-8.66699 6.66699 -19.667 10 -33 10c-12.667 0 -23.334 -4.33301 -32.001 -13
c-11.333 -11.333 -18.333 -27 -21 -47h-94c7.33301 43.333 23.666 77.333 48.999 102c25.333 25.333 59 38 101 38c44.667 0 79.334 -10.333 104.001 -31c28 -22.667 42 -52.667 42 -90c0 -27.333 -8.33301 -54.333 -25 -81c-11.333 -18.667 -36 -44.667 -74 -78l-53 -46
h131l-10 -78h-304z" />
    <glyph glyph-name="threesuperior" unicode="&#xb3;" horiz-adv-x="395" 
d="M77 396l94.001 0.000976562c2 -16 7.66699 -28.667 17 -38c10.667 -10.667 24.667 -16 42 -16c18 0 32.333 4.66699 43 14s16 22.666 16 39.999c0 16 -6 28 -18 36c-10 7.33301 -27 11 -51 11h-6l8 70h10c22.667 0 38.667 4 48 12c10.667 8.66699 16 20.667 16 36
c0 14 -4.66699 24.667 -14 32c-9.33301 6.66699 -19.666 10 -30.999 10c-14 0 -25.667 -4.66699 -35 -14c-6.66699 -6.66699 -11.667 -18 -15 -34h-90c6 35.333 20 64 42 86c25.333 25.333 60 38 104 38c45.333 0 80 -12 104 -36c20 -20 30 -46.667 30 -80
c0 -20.667 -5 -38 -15 -52c-9.33301 -14 -23 -24.333 -41 -31c13.333 -6 24.333 -13.667 33 -23c13.333 -15.333 20 -34.333 20 -57c0 -40.667 -13.333 -73.667 -40 -99c-26.667 -26 -65.334 -39 -116.001 -39c-48.667 0 -86.334 13 -113.001 39
c-25.333 25.333 -39.333 57 -42 95z" />
    <glyph glyph-name="acute" unicode="&#xb4;" 
d="M405 715l86 -65l-169 -135l-59 48z" />
    <glyph glyph-name="mu" unicode="&#xb5;" horiz-adv-x="570" 
d="M171 -230h-141.001l83 676h144l-24 -195c-4 -36 -6 -59.333 -6 -70c0 -30 6.66699 -52 20 -66s31 -21 53 -21c23.333 0 42.333 6.66699 57 20c18.667 17.333 31.667 56.333 39 117l27 215h144l-55 -446h-141l7 53c-5.33301 -13.333 -16 -28 -32 -44
c-16.667 -12.667 -36 -19 -58 -19c-23.333 0 -41.666 7 -54.999 21c-12 12 -21 29 -27 51z" />
    <glyph glyph-name="mu" unicode="&#x3bc;" horiz-adv-x="570" 
d="M171 -230h-141.001l83 676h144l-24 -195c-4 -36 -6 -59.333 -6 -70c0 -30 6.66699 -52 20 -66s31 -21 53 -21c23.333 0 42.333 6.66699 57 20c18.667 17.333 31.667 56.333 39 117l27 215h144l-55 -446h-141l7 53c-5.33301 -13.333 -16 -28 -32 -44
c-16.667 -12.667 -36 -19 -58 -19c-23.333 0 -41.666 7 -54.999 21c-12 12 -21 29 -27 51z" />
    <glyph glyph-name="paragraph" unicode="&#xb6;" horiz-adv-x="659" 
d="M313 -94h-108l50 415h-7c-55.333 0 -98 15.667 -128 47c-24.667 25.333 -37 59 -37 101c0 58 16.667 104.333 50 139c38 39.333 105 59 201 59h335l-12 -97h-72l-81 -664h-108l81 664h-83z" />
    <glyph glyph-name="periodcentered" unicode="&#xb7;" horiz-adv-x="256" 
d="M53 334c0 30.667 10.333 56.334 31 77.001s46.334 31 77.001 31s56.334 -10.333 77.001 -31s31 -46.334 31 -77.001s-10.333 -56.334 -31 -77.001s-46.334 -31 -77.001 -31s-56.334 10.333 -77.001 31s-31 46.334 -31 77.001z" />
    <glyph glyph-name="cedilla" unicode="&#xb8;" 
d="M251 -46l94 -51l-126 -139l-74 40z" />
    <glyph glyph-name="onesuperior" unicode="&#xb9;" horiz-adv-x="395" 
d="M195 275l38 314h-66l10 78h158l-48 -392h-92z" />
    <glyph glyph-name="ordmasculine" unicode="&#xba;" horiz-adv-x="352" 
d="M240 667c52 0 92.333 -15.001 121 -45.001c23.333 -24.667 35 -55.667 35 -93c0 -41.333 -13.333 -74.666 -40 -99.999c-28.667 -28.667 -71 -43 -127 -43c-49.333 0 -87.333 11 -114 33c-29.333 24 -44 57.667 -44 101c0 42.667 15 77.667 45 105
c30.667 28 72 42 124 42zM236 592.999c-22 0 -39.001 -6.66504 -51.001 -19.998c-13.333 -14.667 -20 -32.334 -20 -53.001c0 -18.667 6 -33.334 18 -44.001c10.667 -10.667 25.334 -16 44.001 -16c22.667 0 41 6.33301 55 19c13.333 13.333 20 30 20 50
c0 20.667 -6.33301 36.667 -19 48c-12 10.667 -27.667 16 -47 16zM59.999 357.001h300l-8 -66h-300z" />
    <glyph glyph-name="guillemotright" unicode="&#xbb;" horiz-adv-x="534" 
d="M196 234l-97 160l86 45l129 -215l-182 -216l-74 67zM404 234l-97 160l86 45l129 -215l-182 -216l-74 67z" />
    <glyph glyph-name="onequarter" unicode="&#xbc;" horiz-adv-x="860" 
d="M186 267l39 322h-67l10 78h159l-49 -400h-92zM174 10l472 668l65 -23l-472 -669zM783 400l-31 -250h46l-9 -74h-46l-9 -76h-88l9 76h-192l6 50l208 274h106zM570 150h94l19 148z" />
    <glyph glyph-name="onehalf" unicode="&#xbd;" horiz-adv-x="860" 
d="M163 275l38 314h-66l10 78h158l-48 -392h-92zM150 10l472 668l65 -23l-472 -669zM477 0l119.001 119.001c54.667 54.667 87 89.667 97 105c12 17.333 18 36 18 56c0 14.667 -5 26 -15 34c-8.66699 6.66699 -19.667 10 -33 10c-15.333 0 -27.333 -6 -36 -18
c-9.33301 -12.667 -15 -26.667 -17 -42h-94c7.33301 43.333 23.666 77.333 48.999 102c25.333 25.333 59 38 101 38c46 0 83 -12.667 111 -38c23.333 -20.667 35 -48.334 35 -83.001c0 -26.667 -8.33301 -53.667 -25 -81c-11.333 -18.667 -36 -44.667 -74 -78l-53 -46h131
l-10 -78h-304z" />
    <glyph glyph-name="threequarters" unicode="&#xbe;" horiz-adv-x="860" 
d="M78 399l94.001 -0.00195312c0 -16.667 5 -30 15 -40c9.33301 -9.33301 22.666 -14 39.999 -14c19.333 0 34.666 5.33301 45.999 16s17 24 17 40c0 14.667 -6 26.334 -18 35.001c-8.66699 6.66699 -24 10 -46 10h-11l8 70h10c22 0 38 4.33301 48 13
c10.667 9.33301 16 21.333 16 36c0 12 -4.66699 22 -14 30c-8.66699 7.33301 -19.667 11 -33 11s-24.666 -4.66699 -33.999 -14c-6.66699 -7.33301 -11.334 -18.666 -14.001 -33.999h-90c6 35.333 20 64 42 86c24.667 25.333 58 38 100 38s75.333 -9.33301 100 -28
c25.333 -19.333 38 -45 38 -77c0 -20 -5 -38 -15 -54s-23.667 -27.333 -41 -34c13.333 -6 24.333 -13.667 33 -23c13.333 -15.333 20 -34.333 20 -57c0 -40 -14 -73.667 -42 -101c-29.333 -28.667 -67.666 -43 -114.999 -43c-53.333 0 -93.333 14 -120 42
c-22.667 24 -34 54.667 -34 92zM224.001 9.99805l472 668l65 -23l-472 -669zM620.001 149.998h94l19 148zM833.001 399.998l-31 -250h46l-9 -74h-46l-9 -76h-88l9 76h-192l6 50l208 274h106z" />
    <glyph glyph-name="questiondown" unicode="&#xbf;" horiz-adv-x="525" 
d="M239 224l145.999 -0.000976562l-22 -183c-16.667 2 -33.667 3 -51 3c-43.333 0 -75.666 -10 -96.999 -30c-17.333 -16 -26 -37.333 -26 -64c0 -20 6 -36.333 18 -49s29.333 -19 52 -19c20.667 0 37 6 49 18c14 13.333 21.667 32.333 23 57h150
c-5.33301 -61.333 -26 -109.666 -62 -144.999c-36 -36 -89 -54 -159 -54c-71.333 0 -126.333 19 -165 57c-35.333 34 -53 78.667 -53 134c0 58 18.333 105.333 55 142c34.667 34.667 78.667 54 132 58zM237.999 361.999c0 25.333 8.83301 46.833 26.5 64.5
s39.167 26.5 64.5 26.5s46.833 -8.83301 64.5 -26.5s26.5 -39.167 26.5 -64.5s-8.83301 -46.833 -26.5 -64.5s-39.167 -26.5 -64.5 -26.5s-46.833 8.83301 -64.5 26.5s-26.5 39.167 -26.5 64.5z" />
    <glyph glyph-name="Agrave" unicode="&#xc0;" horiz-adv-x="677" 
d="M517 0l-34 126h-252l-63 -126h-166l352 667h142l179 -667h-158zM289 244h166l-54 235zM443 724l-148 129l105 72l114 -148z" />
    <glyph glyph-name="Aacute" unicode="&#xc1;" horiz-adv-x="677" 
d="M517 0l-34 126h-252l-63 -126h-166l352 667h142l179 -667h-158zM289 244h166l-54 235zM508 925l86 -72l-180 -129l-59 53z" />
    <glyph glyph-name="Acircumflex" unicode="&#xc2;" horiz-adv-x="677" 
d="M517 0l-34 126h-252l-63 -126h-166l352 667h142l179 -667h-158zM289 244h166l-54 235zM318 726l-64 71l205 140l172 -140l-66 -71l-114 93z" />
    <glyph glyph-name="Atilde" unicode="&#xc3;" horiz-adv-x="677" 
d="M517 0l-34 126h-252l-63 -126h-166l352 667h142l179 -667h-158zM289 244h166l-54 235zM557 867l65.002 -50.001c-12.667 -21.333 -28.334 -40.666 -47.001 -57.999c-22.667 -20.667 -48.334 -31 -77.001 -31c-16 0 -36.667 5 -62 15l-33 13c-24.667 10 -42 15 -52 15
c-20.667 0 -37.667 -13 -51 -39l-65 50c12.667 22.667 26 41 40 55c22.667 22.667 50 34 82 34c18.667 0 39.667 -4.66699 63 -14l34 -14c21.333 -9.33301 38.333 -14 51 -14c20 0 37.333 12.667 52 38z" />
    <glyph glyph-name="Adieresis" unicode="&#xc4;" horiz-adv-x="677" 
d="M517 0l-34 126h-252l-63 -126h-166l352 667h142l179 -667h-158zM289 244h166l-54 235zM252 811c0 21.333 7.83301 39.833 23.5 55.5s34.167 23.5 55.5 23.5s39.833 -7.83301 55.5 -23.5s23.5 -34.167 23.5 -55.5s-7.83301 -39.833 -23.5 -55.5s-34.167 -23.5 -55.5 -23.5
s-39.833 7.83301 -55.5 23.5s-23.5 34.167 -23.5 55.5zM470 811c0 21.333 7.83301 39.833 23.5 55.5s34.167 23.5 55.5 23.5s39.833 -7.83301 55.5 -23.5s23.5 -34.167 23.5 -55.5s-7.83301 -39.833 -23.5 -55.5s-34.167 -23.5 -55.5 -23.5s-39.833 7.83301 -55.5 23.5
s-23.5 34.167 -23.5 55.5z" />
    <glyph glyph-name="Aring" unicode="&#xc5;" horiz-adv-x="677" 
d="M517 0l-34 126h-252l-63 -126h-166l352 667h142l179 -667h-158zM289 244h166l-54 235zM553 827c0 -26 -9 -48 -27 -66c-22.667 -21.333 -52.334 -32 -89.001 -32s-66.334 10.667 -89.001 32c-18 18 -27 40 -27 66s9 48 27 66c22.667 21.333 52.334 32 89.001 32
s66.334 -10.667 89.001 -32c18 -18 27 -40 27 -66zM437 866c-14.667 0 -26 -4 -34 -12s-12 -17 -12 -27s4 -19 12 -27s19.333 -12 34 -12s26 4 34 12s12 17 12 27s-4 19 -12 27s-19.333 12 -34 12z" />
    <glyph glyph-name="AE" unicode="&#xc6;" horiz-adv-x="920" 
d="M526 0l-35 129h-255l-66 -129h-164l355 667h379l32 -130h-232l35 -129h230l34 -130h-231l41 -148h232l33 -130h-388zM295 247h168l-55 219z" />
    <glyph glyph-name="Ccedilla" unicode="&#xc7;" horiz-adv-x="605" 
d="M587 187l-19.999 -165.999c-48 -24 -102 -36 -162 -36c-95.333 0 -173.666 29.667 -234.999 89c-60 60 -90 137 -90 231c0 111.333 35.333 202.333 106 273c69.333 69.333 158.333 104 267 104c71.333 0 134.333 -16 189 -48l-19 -163
c-44.667 44.667 -100.334 67 -167.001 67s-119.334 -21 -158.001 -63c-40 -42.667 -60 -95 -60 -157c0 -56.667 17.333 -102.334 52 -137.001s81.667 -52 141 -52c56 0 108 19.333 156 58zM376.001 -45.999l100 -50l-120 -140l-80 40z" />
    <glyph glyph-name="Egrave" unicode="&#xc8;" horiz-adv-x="502" 
d="M520 667l-16 -130h-218l-16 -129h210l-16 -130h-210l-18 -148h222l-16 -130h-372l82 667h368zM355 724l-148 129l105 72l114 -148z" />
    <glyph glyph-name="Eacute" unicode="&#xc9;" horiz-adv-x="502" 
d="M520 667l-16 -130h-218l-16 -129h210l-16 -130h-210l-18 -148h222l-16 -130h-372l82 667h368zM420 925l86 -72l-180 -129l-59 53z" />
    <glyph glyph-name="Ecircumflex" unicode="&#xca;" horiz-adv-x="502" 
d="M520 667l-16 -130h-218l-16 -129h210l-16 -130h-210l-18 -148h222l-16 -130h-372l82 667h368zM216 726l-64 71l205 140l172 -140l-66 -71l-114 93z" />
    <glyph glyph-name="Edieresis" unicode="&#xcb;" horiz-adv-x="502" 
d="M520 667l-16 -130h-218l-16 -129h210l-16 -130h-210l-18 -148h222l-16 -130h-372l82 667h368zM159 811c0 21.333 7.83301 39.833 23.5 55.5s34.167 23.5 55.5 23.5s39.833 -7.83301 55.5 -23.5s23.5 -34.167 23.5 -55.5s-7.83301 -39.833 -23.5 -55.5
s-34.167 -23.5 -55.5 -23.5s-39.833 7.83301 -55.5 23.5s-23.5 34.167 -23.5 55.5zM377 811c0 21.333 7.83301 39.833 23.5 55.5s34.167 23.5 55.5 23.5s39.833 -7.83301 55.5 -23.5s23.5 -34.167 23.5 -55.5s-7.83301 -39.833 -23.5 -55.5s-34.167 -23.5 -55.5 -23.5
s-39.833 7.83301 -55.5 23.5s-23.5 34.167 -23.5 55.5z" />
    <glyph glyph-name="Igrave" unicode="&#xcc;" horiz-adv-x="306" 
d="M155 667h154l-82 -667h-154zM258 724l-148 129l105 72l114 -148z" />
    <glyph glyph-name="Iacute" unicode="&#xcd;" horiz-adv-x="306" 
d="M155 667h154l-82 -667h-154zM323 925l86 -72l-180 -129l-59 53z" />
    <glyph glyph-name="Icircumflex" unicode="&#xce;" horiz-adv-x="306" 
d="M155 667h154l-82 -667h-154zM122 726l-64 71l205 140l172 -140l-66 -71l-114 93z" />
    <glyph glyph-name="Idieresis" unicode="&#xcf;" horiz-adv-x="306" 
d="M155 667h154l-82 -667h-154zM60 811c0 21.333 7.83301 39.833 23.5 55.5s34.167 23.5 55.5 23.5s39.833 -7.83301 55.5 -23.5s23.5 -34.167 23.5 -55.5s-7.83301 -39.833 -23.5 -55.5s-34.167 -23.5 -55.5 -23.5s-39.833 7.83301 -55.5 23.5s-23.5 34.167 -23.5 55.5z
M278 811c0 21.333 7.83301 39.833 23.5 55.5s34.167 23.5 55.5 23.5s39.833 -7.83301 55.5 -23.5s23.5 -34.167 23.5 -55.5s-7.83301 -39.833 -23.5 -55.5s-34.167 -23.5 -55.5 -23.5s-39.833 7.83301 -55.5 23.5s-23.5 34.167 -23.5 55.5z" />
    <glyph glyph-name="Eth" unicode="&#xd0;" horiz-adv-x="712" 
d="M148 413l31 253.999h195c113.333 0 198.333 -28.333 255 -85c53.333 -53.333 80 -127.333 80 -222c0 -113.333 -34.667 -202.666 -104 -267.999c-64.667 -61.333 -165.667 -92 -303 -92h-205l37 303h-90l14 110h90zM317 536.999l-15 -124.001h120l-14 -110h-120l-21 -173
h47c75.333 0 132 17 170 51c44.667 40 67 98.333 67 175c0 58.667 -16 103.334 -48 134.001c-32.667 31.333 -79 47 -139 47h-47z" />
    <glyph glyph-name="Ntilde" unicode="&#xd1;" horiz-adv-x="796" 
d="M224 0h-154l83 667h134l307 -434l54 434h154l-82 -667h-134l-309 436zM642 867l65.0029 -50.001c-12.667 -21.333 -28.334 -40.666 -47.001 -57.999c-22.667 -20.667 -48.334 -31 -77.001 -31c-16.667 0 -37.334 5 -62.001 15l-33 13c-24.667 10 -42 15 -52 15
c-20.667 0 -37.667 -13 -51 -39l-65 50c12.667 22.667 26 41 40 55c22.667 22.667 50 34 82 34c18.667 0 39.667 -4.66699 63 -14l34 -14c21.333 -9.33301 38.333 -14 51 -14c20 0 37.333 12.667 52 38z" />
    <glyph glyph-name="Ograve" unicode="&#xd2;" horiz-adv-x="810" 
d="M464 682c105.333 0 188.334 -29 249.001 -87c62.667 -60.667 94 -139.667 94 -237c0 -49.333 -8.66699 -98 -26 -146s-43 -89.333 -77 -124c-67.333 -68.667 -159.333 -103 -276 -103c-106.667 0 -191.334 31.667 -254.001 95c-62.667 64 -94 141.667 -94 233
c0 108.667 36.667 198 110 268c70.667 67.333 162 101 274 101zM458.001 540c-65.333 0 -118.334 -21.335 -159.001 -64.002s-61 -93.667 -61 -153c0 -57.333 18 -104 54 -140c36.667 -37.333 85.334 -56 146.001 -56c62 0 111.667 19 149 57
c41.333 42.667 62 97.334 62 164.001c0 58.667 -17.667 105.334 -53 140.001s-81.333 52 -138 52zM479 723.998l-148 129l105 72l114 -148z" />
    <glyph glyph-name="Oacute" unicode="&#xd3;" horiz-adv-x="810" 
d="M464 682c105.333 0 188.334 -29 249.001 -87c62.667 -60.667 94 -139.667 94 -237c0 -49.333 -8.66699 -98 -26 -146s-43 -89.333 -77 -124c-67.333 -68.667 -159.333 -103 -276 -103c-106.667 0 -191.334 31.667 -254.001 95c-62.667 64 -94 141.667 -94 233
c0 108.667 36.667 198 110 268c70.667 67.333 162 101 274 101zM458.001 540c-65.333 0 -118.334 -21.335 -159.001 -64.002s-61 -93.667 -61 -153c0 -57.333 18 -104 54 -140c36.667 -37.333 85.334 -56 146.001 -56c62 0 111.667 19 149 57
c41.333 42.667 62 97.334 62 164.001c0 58.667 -17.667 105.334 -53 140.001s-81.333 52 -138 52zM574 924.998l86 -72l-180 -129l-59 53z" />
    <glyph glyph-name="Ocircumflex" unicode="&#xd4;" horiz-adv-x="810" 
d="M464 682c105.333 0 188.334 -29 249.001 -87c62.667 -60.667 94 -139.667 94 -237c0 -49.333 -8.66699 -98 -26 -146s-43 -89.333 -77 -124c-67.333 -68.667 -159.333 -103 -276 -103c-106.667 0 -191.334 31.667 -254.001 95c-62.667 64 -94 141.667 -94 233
c0 108.667 36.667 198 110 268c70.667 67.333 162 101 274 101zM458.001 540c-65.333 0 -118.334 -21.335 -159.001 -64.002s-61 -93.667 -61 -153c0 -57.333 18 -104 54 -140c36.667 -37.333 85.334 -56 146.001 -56c62 0 111.667 19 149 57
c41.333 42.667 62 97.334 62 164.001c0 58.667 -17.667 105.334 -53 140.001s-81.333 52 -138 52zM353 725.998l-64 71l205 140l172 -140l-66 -71l-114 93z" />
    <glyph glyph-name="Otilde" unicode="&#xd5;" horiz-adv-x="810" 
d="M464 682c105.333 0 188.334 -29 249.001 -87c62.667 -60.667 94 -139.667 94 -237c0 -49.333 -8.66699 -98 -26 -146s-43 -89.333 -77 -124c-67.333 -68.667 -159.333 -103 -276 -103c-106.667 0 -191.334 31.667 -254.001 95c-62.667 64 -94 141.667 -94 233
c0 108.667 36.667 198 110 268c70.667 67.333 162 101 274 101zM458.001 540c-65.333 0 -118.334 -21.335 -159.001 -64.002s-61 -93.667 -61 -153c0 -57.333 18 -104 54 -140c36.667 -37.333 85.334 -56 146.001 -56c62 0 111.667 19 149 57
c41.333 42.667 62 97.334 62 164.001c0 58.667 -17.667 105.334 -53 140.001s-81.333 52 -138 52zM607 866.998l65.002 -50.001c-12.667 -21.333 -28.334 -40.666 -47.001 -57.999c-22.667 -20.667 -48.334 -31 -77.001 -31c-16 0 -36.667 5 -62 15l-33 13
c-24.667 10 -42 15 -52 15c-20.667 0 -37.667 -13 -51 -39l-65 50c12.667 22.667 26 41 40 55c22.667 22.667 50 34 82 34c18.667 0 39.667 -4.66699 63 -14l34 -14c21.333 -9.33301 38.333 -14 51 -14c20 0 37.333 12.667 52 38z" />
    <glyph glyph-name="Odieresis" unicode="&#xd6;" horiz-adv-x="810" 
d="M464 682c105.333 0 188.334 -29 249.001 -87c62.667 -60.667 94 -139.667 94 -237c0 -49.333 -8.66699 -98 -26 -146s-43 -89.333 -77 -124c-67.333 -68.667 -159.333 -103 -276 -103c-106.667 0 -191.334 31.667 -254.001 95c-62.667 64 -94 141.667 -94 233
c0 108.667 36.667 198 110 268c70.667 67.333 162 101 274 101zM458.001 540c-65.333 0 -118.334 -21.335 -159.001 -64.002s-61 -93.667 -61 -153c0 -57.333 18 -104 54 -140c36.667 -37.333 85.334 -56 146.001 -56c62 0 111.667 19 149 57
c41.333 42.667 62 97.334 62 164.001c0 58.667 -17.667 105.334 -53 140.001s-81.333 52 -138 52zM297 810.998c0 21.333 7.83301 39.833 23.5 55.5s34.167 23.5 55.5 23.5s39.833 -7.83301 55.5 -23.5s23.5 -34.167 23.5 -55.5s-7.83301 -39.833 -23.5 -55.5
s-34.167 -23.5 -55.5 -23.5s-39.833 7.83301 -55.5 23.5s-23.5 34.167 -23.5 55.5zM515 810.998c0 21.333 7.83301 39.833 23.5 55.5s34.167 23.5 55.5 23.5s39.833 -7.83301 55.5 -23.5s23.5 -34.167 23.5 -55.5s-7.83301 -39.833 -23.5 -55.5s-34.167 -23.5 -55.5 -23.5
s-39.833 7.83301 -55.5 23.5s-23.5 34.167 -23.5 55.5z" />
    <glyph glyph-name="multiply" unicode="&#xd7;" 
d="M87 218l118 118l-118 119l87 87l118 -119l118 119l84 -84l-118 -118l118 -119l-87 -87l-118 119l-119 -118z" />
    <glyph glyph-name="Oslash" unicode="&#xd8;" horiz-adv-x="842" 
d="M41 37l109 97.0029c-34.667 57.333 -52 118.666 -52 183.999c0 105.333 36.667 193 110 263c70.667 67.333 162 101 274 101c81.333 0 153.666 -20.333 216.999 -61l104 93l79 -84l-105 -93c32 -58.667 48 -118 48 -178c0 -48.667 -8.66699 -97.334 -26 -146.001
s-43 -90.334 -77 -125.001c-67.333 -68.667 -159.666 -103 -276.999 -103c-84 0 -156.667 21.333 -218 64l-108 -96zM272 242.003l306.999 273c-29.333 16.667 -63.666 25 -102.999 25c-65.333 0 -118.333 -21.333 -159 -64s-61 -93.667 -61 -153
c0 -28.667 5.33301 -55.667 16 -81zM653.999 427.003l-308.001 -272c32.667 -18.667 69.334 -28 110.001 -28c62 0 111.667 19 149 57c41.333 43.333 62 98 62 164c0 28 -4.33301 54.333 -13 79z" />
    <glyph glyph-name="Ugrave" unicode="&#xd9;" horiz-adv-x="710" 
d="M151 667l154 -0.000976562l-44 -364c-3.33301 -23.333 -5 -42.666 -5 -57.999c0 -38 9.66699 -66.667 29 -86c21.333 -20 50.666 -30 87.999 -30c43.333 0 76 11 98 33s37 64.333 45 127l46 378h154l-48 -388c-4.66699 -36.667 -8.66699 -64.167 -12 -82.5
s-10.666 -41.5 -21.999 -69.5s-26.333 -51.333 -45 -70c-46.667 -48 -119.667 -72 -219 -72c-94.667 0 -165 23 -211 69c-39.333 38.667 -59 90 -59 154c0 22 2.66699 57 8 105zM444 723.999l-148 129l105 72l114 -148z" />
    <glyph glyph-name="Uacute" unicode="&#xda;" horiz-adv-x="710" 
d="M151 667l154 -0.000976562l-44 -364c-3.33301 -23.333 -5 -42.666 -5 -57.999c0 -38 9.66699 -66.667 29 -86c21.333 -20 50.666 -30 87.999 -30c43.333 0 76 11 98 33s37 64.333 45 127l46 378h154l-48 -388c-4.66699 -36.667 -8.66699 -64.167 -12 -82.5
s-10.666 -41.5 -21.999 -69.5s-26.333 -51.333 -45 -70c-46.667 -48 -119.667 -72 -219 -72c-94.667 0 -165 23 -211 69c-39.333 38.667 -59 90 -59 154c0 22 2.66699 57 8 105zM524 924.999l86 -72l-180 -129l-59 53z" />
    <glyph glyph-name="Ucircumflex" unicode="&#xdb;" horiz-adv-x="710" 
d="M151 667l154 -0.000976562l-44 -364c-3.33301 -23.333 -5 -42.666 -5 -57.999c0 -38 9.66699 -66.667 29 -86c21.333 -20 50.666 -30 87.999 -30c43.333 0 76 11 98 33s37 64.333 45 127l46 378h154l-48 -388c-4.66699 -36.667 -8.66699 -64.167 -12 -82.5
s-10.666 -41.5 -21.999 -69.5s-26.333 -51.333 -45 -70c-46.667 -48 -119.667 -72 -219 -72c-94.667 0 -165 23 -211 69c-39.333 38.667 -59 90 -59 154c0 22 2.66699 57 8 105zM313 725.999l-64 71l205 140l172 -140l-66 -71l-114 93z" />
    <glyph glyph-name="Udieresis" unicode="&#xdc;" horiz-adv-x="710" 
d="M151 667l154 -0.000976562l-44 -364c-3.33301 -23.333 -5 -42.666 -5 -57.999c0 -38 9.66699 -66.667 29 -86c21.333 -20 50.666 -30 87.999 -30c43.333 0 76 11 98 33s37 64.333 45 127l46 378h154l-48 -388c-4.66699 -36.667 -8.66699 -64.167 -12 -82.5
s-10.666 -41.5 -21.999 -69.5s-26.333 -51.333 -45 -70c-46.667 -48 -119.667 -72 -219 -72c-94.667 0 -165 23 -211 69c-39.333 38.667 -59 90 -59 154c0 22 2.66699 57 8 105zM257 810.999c0 21.333 7.83301 39.833 23.5 55.5s34.167 23.5 55.5 23.5
s39.833 -7.83301 55.5 -23.5s23.5 -34.167 23.5 -55.5s-7.83301 -39.833 -23.5 -55.5s-34.167 -23.5 -55.5 -23.5s-39.833 7.83301 -55.5 23.5s-23.5 34.167 -23.5 55.5zM475 810.999c0 21.333 7.83301 39.833 23.5 55.5s34.167 23.5 55.5 23.5s39.833 -7.83301 55.5 -23.5
s23.5 -34.167 23.5 -55.5s-7.83301 -39.833 -23.5 -55.5s-34.167 -23.5 -55.5 -23.5s-39.833 7.83301 -55.5 23.5s-23.5 34.167 -23.5 55.5z" />
    <glyph glyph-name="Yacute" unicode="&#xdd;" horiz-adv-x="632" 
d="M236 0l38 311l-195 356h176l109 -207l159 207h188l-283 -356l-38 -311h-154zM485 925l86 -72l-180 -129l-59 53z" />
    <glyph glyph-name="Thorn" unicode="&#xde;" horiz-adv-x="572" 
d="M152 667l154 0.00195312l-11 -92h63c29.333 0 52.833 -0.833008 70.5 -2.5s38.167 -6.83398 61.5 -15.501s43.333 -21.334 60 -38.001c36 -36 54 -83.667 54 -143c0 -76.667 -21.667 -135 -65 -175c-42 -39.333 -111.667 -59 -209 -59h-89l-17 -142h-154zM280 449.002
l-23 -181h57c51.333 0 87 9.66699 107 29c17.333 16.667 26 39.667 26 69c0 24.667 -7.33301 44 -22 58c-17.333 16.667 -48 25 -92 25h-53z" />
    <glyph glyph-name="germandbls" unicode="&#xdf;" horiz-adv-x="585" 
d="M204 0l-143.999 0.000976562l62 502c10 78 33 136.333 69 175c39.333 42 94.666 63 165.999 63c70 0 124.667 -20 164 -60c33.333 -34.667 50 -78 50 -130c0 -42.667 -11.333 -78 -34 -106c-18.667 -23.333 -44 -39.333 -76 -48c24 -8 46.333 -21 67 -39
c35.333 -34 53 -78.667 53 -134c0 -72.667 -21 -129.334 -63 -170.001c-27.333 -26 -61.333 -43.667 -102 -53s-89.667 -14 -147 -14h-6l16 124h5c53.333 0 91.333 11.667 114 35c20.667 22 31 49 31 81c0 41.333 -12.333 71 -37 89c-19.333 14 -48.666 21 -87.999 21
l16 122h5c31.333 0 55.666 6.33301 72.999 19c21.333 16 32 38 32 66c0 23.333 -7 41.333 -21 54c-12.667 12.667 -31 19 -55 19c-22.667 0 -40.667 -6.66699 -54 -20c-16.667 -16 -27.667 -45 -33 -87z" />
    <glyph glyph-name="agrave" unicode="&#xe0;" horiz-adv-x="598" 
d="M444 392l3.99902 53.999h144l-55 -446h-144l11 51c-19.333 -22.667 -40.333 -39.334 -63 -50.001c-23.333 -10.667 -51 -16 -83 -16c-57.333 0 -103.333 18.333 -138 55c-40 42.667 -60 97.334 -60 164.001c0 78.667 24 142.667 72 192
c42.667 43.333 97.334 65 164.001 65c34.667 0 63.667 -5.66699 87 -17c24 -11.333 44.333 -28.666 61 -51.999zM326.999 336.999c-34.667 0 -62.998 -11 -84.998 -33c-22.667 -22.667 -34 -52.334 -34 -89.001c0 -30 9.66699 -55.333 29 -76
c19.333 -20 44.666 -30 75.999 -30c33.333 0 60.666 10 81.999 30c25.333 24.667 38 56.667 38 96c0 32.667 -10.333 58.334 -31 77.001c-18 16.667 -43 25 -75 25zM353.001 514.999l-135 135l103 65l103 -152z" />
    <glyph glyph-name="aacute" unicode="&#xe1;" horiz-adv-x="598" 
d="M444 392l3.99902 53.999h144l-55 -446h-144l11 51c-19.333 -22.667 -40.333 -39.334 -63 -50.001c-23.333 -10.667 -51 -16 -83 -16c-57.333 0 -103.333 18.333 -138 55c-40 42.667 -60 97.334 -60 164.001c0 78.667 24 142.667 72 192
c42.667 43.333 97.334 65 164.001 65c34.667 0 63.667 -5.66699 87 -17c24 -11.333 44.333 -28.666 61 -51.999zM326.999 336.999c-34.667 0 -62.998 -11 -84.998 -33c-22.667 -22.667 -34 -52.334 -34 -89.001c0 -30 9.66699 -55.333 29 -76
c19.333 -20 44.666 -30 75.999 -30c33.333 0 60.666 10 81.999 30c25.333 24.667 38 56.667 38 96c0 32.667 -10.333 58.334 -31 77.001c-18 16.667 -43 25 -75 25zM405.001 714.999l86 -65l-169 -135l-59 48z" />
    <glyph glyph-name="acircumflex" unicode="&#xe2;" horiz-adv-x="598" 
d="M444 392l3.99902 53.999h144l-55 -446h-144l11 51c-19.333 -22.667 -40.333 -39.334 -63 -50.001c-23.333 -10.667 -51 -16 -83 -16c-57.333 0 -103.333 18.333 -138 55c-40 42.667 -60 97.334 -60 164.001c0 78.667 24 142.667 72 192
c42.667 43.333 97.334 65 164.001 65c34.667 0 63.667 -5.66699 87 -17c24 -11.333 44.333 -28.666 61 -51.999zM326.999 336.999c-34.667 0 -62.998 -11 -84.998 -33c-22.667 -22.667 -34 -52.334 -34 -89.001c0 -30 9.66699 -55.333 29 -76
c19.333 -20 44.666 -30 75.999 -30c33.333 0 60.666 10 81.999 30c25.333 24.667 38 56.667 38 96c0 32.667 -10.333 58.334 -31 77.001c-18 16.667 -43 25 -75 25zM351.001 609.999l-131 -95l-62 69l200 142l167 -142l-68 -69z" />
    <glyph glyph-name="atilde" unicode="&#xe3;" horiz-adv-x="598" 
d="M444 392l3.99902 53.999h144l-55 -446h-144l11 51c-19.333 -22.667 -40.333 -39.334 -63 -50.001c-23.333 -10.667 -51 -16 -83 -16c-57.333 0 -103.333 18.333 -138 55c-40 42.667 -60 97.334 -60 164.001c0 78.667 24 142.667 72 192
c42.667 43.333 97.334 65 164.001 65c34.667 0 63.667 -5.66699 87 -17c24 -11.333 44.333 -28.666 61 -51.999zM326.999 336.999c-34.667 0 -62.998 -11 -84.998 -33c-22.667 -22.667 -34 -52.334 -34 -89.001c0 -30 9.66699 -55.333 29 -76
c19.333 -20 44.666 -30 75.999 -30c33.333 0 60.666 10 81.999 30c25.333 24.667 38 56.667 38 96c0 32.667 -10.333 58.334 -31 77.001c-18 16.667 -43 25 -75 25zM469.001 656.999l61.9971 -44c-11.333 -22.667 -26 -42.667 -44 -60c-24 -22.667 -49.667 -34 -77 -34
c-18 0 -39 5 -63 15l-32 13c-23.333 9.33301 -40 14 -50 14c-21.333 0 -38.666 -12.667 -51.999 -38l-59 44c10.667 25.333 24.334 46.333 41.001 63c20.667 20.667 46.334 31 77.001 31c19.333 0 42 -5.33301 68 -16l32 -13c22 -8.66699 39.333 -13 52 -13
c19.333 0 34.333 12.667 45 38z" />
    <glyph glyph-name="adieresis" unicode="&#xe4;" horiz-adv-x="598" 
d="M444 392l3.99902 53.999h144l-55 -446h-144l11 51c-19.333 -22.667 -40.333 -39.334 -63 -50.001c-23.333 -10.667 -51 -16 -83 -16c-57.333 0 -103.333 18.333 -138 55c-40 42.667 -60 97.334 -60 164.001c0 78.667 24 142.667 72 192
c42.667 43.333 97.334 65 164.001 65c34.667 0 63.667 -5.66699 87 -17c24 -11.333 44.333 -28.666 61 -51.999zM326.999 336.999c-34.667 0 -62.998 -11 -84.998 -33c-22.667 -22.667 -34 -52.334 -34 -89.001c0 -30 9.66699 -55.333 29 -76
c19.333 -20 44.666 -30 75.999 -30c33.333 0 60.666 10 81.999 30c25.333 24.667 38 56.667 38 96c0 32.667 -10.333 58.334 -31 77.001c-18 16.667 -43 25 -75 25zM156.001 598.999c0 21.333 7.83301 39.833 23.5 55.5s34.167 23.5 55.5 23.5s39.833 -7.83301 55.5 -23.5
s23.5 -34.167 23.5 -55.5s-7.83301 -39.833 -23.5 -55.5s-34.167 -23.5 -55.5 -23.5s-39.833 7.83301 -55.5 23.5s-23.5 34.167 -23.5 55.5zM374.001 598.999c0 21.333 7.83301 39.833 23.5 55.5s34.167 23.5 55.5 23.5s39.833 -7.83301 55.5 -23.5s23.5 -34.167 23.5 -55.5
s-7.83301 -39.833 -23.5 -55.5s-34.167 -23.5 -55.5 -23.5s-39.833 7.83301 -55.5 23.5s-23.5 34.167 -23.5 55.5z" />
    <glyph glyph-name="aring" unicode="&#xe5;" horiz-adv-x="598" 
d="M444 392l3.99902 53.999h144l-55 -446h-144l11 51c-19.333 -22.667 -40.333 -39.334 -63 -50.001c-23.333 -10.667 -51 -16 -83 -16c-57.333 0 -103.333 18.333 -138 55c-40 42.667 -60 97.334 -60 164.001c0 78.667 24 142.667 72 192
c42.667 43.333 97.334 65 164.001 65c34.667 0 63.667 -5.66699 87 -17c24 -11.333 44.333 -28.666 61 -51.999zM326.999 336.999c-34.667 0 -62.998 -11 -84.998 -33c-22.667 -22.667 -34 -52.334 -34 -89.001c0 -30 9.66699 -55.333 29 -76
c19.333 -20 44.666 -30 75.999 -30c33.333 0 60.666 10 81.999 30c25.333 24.667 38 56.667 38 96c0 32.667 -10.333 58.334 -31 77.001c-18 16.667 -43 25 -75 25zM330.001 649.999c-12.667 0 -23 -3 -31 -9c-8.66699 -7.33301 -13 -16.333 -13 -27s4.33301 -19.667 13 -27
c8 -6 18.333 -9 31 -9s23 3 31 9c8.66699 7.33301 13 16.333 13 27s-4.33301 19.667 -13 27c-8 6 -18.333 9 -31 9zM444.001 613.999c0 -25.333 -9 -47 -27 -65c-22 -20.667 -51 -31 -87 -31s-65 10.333 -87 31c-18 18 -27 39.667 -27 65s9 47 27 65c22 20.667 51 31 87 31
s65 -10.333 87 -31c18 -18 27 -39.667 27 -65z" />
    <glyph glyph-name="ae" unicode="&#xe6;" horiz-adv-x="840" 
d="M683 141l133.999 -8.99707c-17.333 -48.667 -46.333 -86.334 -87 -113.001c-36 -22.667 -81 -34 -135 -34c-45.333 0 -83 6.66699 -113 20c-27.333 12.667 -49.333 31 -66 55c-20 -26.667 -45 -46.334 -75 -59.001c-27.333 -10.667 -62.666 -16 -105.999 -16
c-62.667 0 -109 12 -139 36c-31.333 24.667 -47 59 -47 103c0 54 21 95 63 123c31.333 21.333 77 32 137 32c48.667 0 87.334 -9 116.001 -27c5.33301 37.333 -3.33398 64.666 -26.001 81.999c-16.667 14 -42.667 21 -78 21c-34 0 -72.333 -7.33301 -115 -22l13 110
c42.667 12 85 18 127 18c81.333 0 135.333 -25.667 162 -77c42 51.333 100 77 174 77c64.667 0 115.667 -18.667 153 -56c39.333 -39.333 59 -92.666 59 -159.999c0 -12.667 -1.33301 -28.334 -4 -47.001h-330c0 -34.667 8.66699 -61.667 26 -81
c15.333 -18 39.333 -27 72 -27c40 0 68.333 17 85 51zM267.999 192.003c-29.333 0 -51.667 -8.00098 -67 -24.001c-9.33301 -9.33301 -14 -20.666 -14 -33.999c0 -12 5 -22.667 15 -32c14 -12.667 34 -19 60 -19c29.333 0 52 6.66699 68 20c12 10.667 18 23.667 18 39
c0 10.667 -4.66699 20.667 -14 30c-15.333 13.333 -37.333 20 -66 20zM514.998 284.002h190.998c-5.33301 23.333 -15.333 42 -30 56c-15.333 14 -35.666 21 -60.999 21c-27.333 0 -49.333 -7.66699 -66 -23c-15.333 -13.333 -26.666 -31.333 -33.999 -54z" />
    <glyph glyph-name="ccedilla" unicode="&#xe7;" horiz-adv-x="431" 
d="M445 432l-17 -131c-27.333 25.333 -60.666 38 -99.999 38c-35.333 0 -64.333 -11.333 -87 -34c-22 -24 -33 -53.667 -33 -89c0 -32.667 10.667 -59 32 -79c20.667 -20 46.667 -30 78 -30c34 0 64.333 12 91 36l-16 -132c-35.333 -17.333 -74.666 -26 -117.999 -26
c-64.667 0 -116.334 20.667 -155.001 62c-40 43.333 -60 97 -60 161c0 73.333 23.333 134 70 182c46 47.333 107.667 71 185 71c47.333 0 90.666 -9.66699 129.999 -29zM256 -46l94 -51l-126 -139l-74 40z" />
    <glyph glyph-name="egrave" unicode="&#xe8;" horiz-adv-x="542" 
d="M218 283h181.002c-2.66699 24.667 -12.334 44 -29.001 58c-14.667 12 -34.334 18 -59.001 18c-27.333 0 -50 -9 -68 -27c-12.667 -14 -21 -30.333 -25 -49zM537.002 195l-332.999 0.000976562c-1.33301 -26 4.66699 -48.333 18 -67c15.333 -20.667 38.333 -31 69 -31
c24.667 0 43.667 4.33301 57 13c13.333 9.33301 23.666 22.666 30.999 39.999l145 -12c-19.333 -48 -46.333 -85 -81 -111c-37.333 -28 -88.333 -42 -153 -42c-76 0 -134 20 -174 60c-37.333 37.333 -56 89.333 -56 156c0 83.333 25.667 149.333 77 198
c44 41.333 103 62 177 62c72 0 127.667 -19 167 -57c26.667 -26 43.667 -58.5 51 -97.5s9 -76.167 5 -111.5zM351.003 515.001l-135 135l103 65l103 -152z" />
    <glyph glyph-name="eacute" unicode="&#xe9;" horiz-adv-x="542" 
d="M218 283h181.002c-2.66699 24.667 -12.334 44 -29.001 58c-14.667 12 -34.334 18 -59.001 18c-27.333 0 -50 -9 -68 -27c-12.667 -14 -21 -30.333 -25 -49zM537.002 195l-332.999 0.000976562c-1.33301 -26 4.66699 -48.333 18 -67c15.333 -20.667 38.333 -31 69 -31
c24.667 0 43.667 4.33301 57 13c13.333 9.33301 23.666 22.666 30.999 39.999l145 -12c-19.333 -48 -46.333 -85 -81 -111c-37.333 -28 -88.333 -42 -153 -42c-76 0 -134 20 -174 60c-37.333 37.333 -56 89.333 -56 156c0 83.333 25.667 149.333 77 198
c44 41.333 103 62 177 62c72 0 127.667 -19 167 -57c26.667 -26 43.667 -58.5 51 -97.5s9 -76.167 5 -111.5zM423.003 715.001l86 -65l-169 -135l-59 48z" />
    <glyph glyph-name="ecircumflex" unicode="&#xea;" horiz-adv-x="542" 
d="M218 283h181.002c-2.66699 24.667 -12.334 44 -29.001 58c-14.667 12 -34.334 18 -59.001 18c-27.333 0 -50 -9 -68 -27c-12.667 -14 -21 -30.333 -25 -49zM537.002 195l-332.999 0.000976562c-1.33301 -26 4.66699 -48.333 18 -67c15.333 -20.667 38.333 -31 69 -31
c24.667 0 43.667 4.33301 57 13c13.333 9.33301 23.666 22.666 30.999 39.999l145 -12c-19.333 -48 -46.333 -85 -81 -111c-37.333 -28 -88.333 -42 -153 -42c-76 0 -134 20 -174 60c-37.333 37.333 -56 89.333 -56 156c0 83.333 25.667 149.333 77 198
c44 41.333 103 62 177 62c72 0 127.667 -19 167 -57c26.667 -26 43.667 -58.5 51 -97.5s9 -76.167 5 -111.5zM341.003 610.001l-131 -95l-62 69l200 142l167 -142l-68 -69z" />
    <glyph glyph-name="edieresis" unicode="&#xeb;" horiz-adv-x="542" 
d="M218 283h181.002c-2.66699 24.667 -12.334 44 -29.001 58c-14.667 12 -34.334 18 -59.001 18c-27.333 0 -50 -9 -68 -27c-12.667 -14 -21 -30.333 -25 -49zM537.002 195l-332.999 0.000976562c-1.33301 -26 4.66699 -48.333 18 -67c15.333 -20.667 38.333 -31 69 -31
c24.667 0 43.667 4.33301 57 13c13.333 9.33301 23.666 22.666 30.999 39.999l145 -12c-19.333 -48 -46.333 -85 -81 -111c-37.333 -28 -88.333 -42 -153 -42c-76 0 -134 20 -174 60c-37.333 37.333 -56 89.333 -56 156c0 83.333 25.667 149.333 77 198
c44 41.333 103 62 177 62c72 0 127.667 -19 167 -57c26.667 -26 43.667 -58.5 51 -97.5s9 -76.167 5 -111.5zM147.003 599.001c0 21.333 7.83301 39.833 23.5 55.5s34.167 23.5 55.5 23.5s39.833 -7.83301 55.5 -23.5s23.5 -34.167 23.5 -55.5s-7.83301 -39.833 -23.5 -55.5
s-34.167 -23.5 -55.5 -23.5s-39.833 7.83301 -55.5 23.5s-23.5 34.167 -23.5 55.5zM365.003 599.001c0 21.333 7.83301 39.833 23.5 55.5s34.167 23.5 55.5 23.5s39.833 -7.83301 55.5 -23.5s23.5 -34.167 23.5 -55.5s-7.83301 -39.833 -23.5 -55.5
s-34.167 -23.5 -55.5 -23.5s-39.833 7.83301 -55.5 23.5s-23.5 34.167 -23.5 55.5z" />
    <glyph glyph-name="igrave" unicode="&#xec;" horiz-adv-x="276" 
d="M120 446h144l-55 -446h-144zM201 515l-116 135l104 65l83 -152z" />
    <glyph glyph-name="iacute" unicode="&#xed;" horiz-adv-x="276" 
d="M120 446h144l-55 -446h-144zM262 715l86 -65l-149 -135l-59 48z" />
    <glyph glyph-name="icircumflex" unicode="&#xee;" horiz-adv-x="276" 
d="M121 446h144l-55 -446h-144zM215 602l-105 -87l-59 69l176 142l142 -142l-72 -69z" />
    <glyph glyph-name="idieresis" unicode="&#xef;" horiz-adv-x="276" 
d="M121 446h144l-55 -446h-144zM48 599c0 21.333 7 39.833 21 55.5s30.667 23.5 50 23.5c18 0 34.333 -7.16699 49 -21.5s22 -33.5 22 -57.5s-7.33301 -43.167 -22 -57.5s-31 -21.5 -49 -21.5c-19.333 0 -36 7.83301 -50 23.5s-21 34.167 -21 55.5zM236 599
c0 24 7.33301 43.167 22 57.5s31 21.5 49 21.5c19.333 0 36 -7.83301 50 -23.5s21 -34.167 21 -55.5s-7 -39.833 -21 -55.5s-30.667 -23.5 -50 -23.5c-18 0 -34.333 7.16699 -49 21.5s-22 33.5 -22 57.5z" />
    <glyph glyph-name="eth" unicode="&#xf0;" horiz-adv-x="580" 
d="M141 596l50.998 96c82.667 -4.66699 155 -21 217 -49l154 56l29 -76l-110 -39c30.667 -27.333 54.334 -61.333 71.001 -102s25 -89.667 25 -147c0 -126.667 -28.667 -219 -86 -277c-48 -48.667 -113 -73 -195 -73c-74 0 -132.333 21 -175 63
c-41.333 39.333 -62 90.666 -62 153.999c0 69.333 22.667 127.333 68 174c44.667 44.667 102.334 67 173.001 67c62 0 109.667 -16.667 143 -50c-6 62.667 -34.667 109.334 -86 140.001l-195 -79l-27 75l137 51c-44.667 12 -88.667 17.333 -132 16zM318.998 327
c-31.333 0 -56.667 -9.66699 -76 -29c-23.333 -23.333 -35 -54 -35 -92c0 -30.667 9 -55 27 -73c17.333 -17.333 40 -26 68 -26c30 0 54.667 9 74 27c25.333 23.333 38 55 38 95c0 32 -9.33301 56.667 -28 74c-16 16 -38.667 24 -68 24z" />
    <glyph glyph-name="ntilde" unicode="&#xf1;" horiz-adv-x="567" 
d="M111 446l144.001 -0.000976562l-7 -49c16.667 17.333 35 31.333 55 42c24 12.667 53.333 19 88 19c51.333 0 90 -12.667 116 -38c25.333 -24.667 38 -60 38 -106c0 -19.333 -2.33301 -47.666 -7 -84.999l-27 -229h-144l24 193c4 30.667 6 54.667 6 72
c0 23.333 -6 41.333 -18 54c-12.667 12.667 -30.334 19 -53.001 19c-27.333 0 -49 -8 -65 -24c-18 -18.667 -29.667 -50 -35 -94l-26 -220h-144zM499.001 656.999l61.9971 -44c-11.333 -22.667 -26 -42.667 -44 -60c-24 -22.667 -49.667 -34 -77 -34c-18 0 -39 5 -63 15
l-32 13c-23.333 9.33301 -40 14 -50 14c-21.333 0 -38.666 -12.667 -51.999 -38l-59 44c10.667 25.333 24.334 46.333 41.001 63c20.667 20.667 46.334 31 77.001 31c19.333 0 42 -5.33301 68 -16l32 -13c22 -8.66699 39.333 -13 52 -13c19.333 0 34.333 12.667 45 38z" />
    <glyph glyph-name="ograve" unicode="&#xf2;" horiz-adv-x="592" 
d="M337 461c78.667 0 141 -23 187 -69c40 -40 60 -90.333 60 -151c0 -72.667 -24 -133.667 -72 -183c-48 -48.667 -116.333 -73 -205 -73c-80.667 0 -142.667 22.333 -186 67c-40.667 42 -61 94.333 -61 157c0 71.333 24 130 72 176c52 50.667 120.333 76 205 76zM315 107
c33.333 0 61.334 10.666 84.001 31.999c24.667 24 37 55.667 37 95c0 32.667 -10 58.334 -30 77.001s-46 28 -78 28c-30.667 0 -57.334 -10.333 -80.001 -31c-26.667 -24 -40 -55.667 -40 -95c0 -30 9.66699 -55.333 29 -76c18.667 -20 44.667 -30 78 -30zM343.001 514.999
l-135 135l103 65l103 -152z" />
    <glyph glyph-name="oacute" unicode="&#xf3;" horiz-adv-x="592" 
d="M337 461c78.667 0 141 -23 187 -69c40 -40 60 -90.333 60 -151c0 -72.667 -24 -133.667 -72 -183c-48 -48.667 -116.333 -73 -205 -73c-80.667 0 -142.667 22.333 -186 67c-40.667 42 -61 94.333 -61 157c0 71.333 24 130 72 176c52 50.667 120.333 76 205 76zM315 107
c33.333 0 61.334 10.666 84.001 31.999c24.667 24 37 55.667 37 95c0 32.667 -10 58.334 -30 77.001s-46 28 -78 28c-30.667 0 -57.334 -10.333 -80.001 -31c-26.667 -24 -40 -55.667 -40 -95c0 -30 9.66699 -55.333 29 -76c18.667 -20 44.667 -30 78 -30zM415.001 714.999
l86 -65l-169 -135l-59 48z" />
    <glyph glyph-name="ocircumflex" unicode="&#xf4;" horiz-adv-x="592" 
d="M337 461c78.667 0 141 -23 187 -69c40 -40 60 -90.333 60 -151c0 -72.667 -24 -133.667 -72 -183c-48 -48.667 -116.333 -73 -205 -73c-80.667 0 -142.667 22.333 -186 67c-40.667 42 -61 94.333 -61 157c0 71.333 24 130 72 176c52 50.667 120.333 76 205 76zM315 107
c33.333 0 61.334 10.666 84.001 31.999c24.667 24 37 55.667 37 95c0 32.667 -10 58.334 -30 77.001s-46 28 -78 28c-30.667 0 -57.334 -10.333 -80.001 -31c-26.667 -24 -40 -55.667 -40 -95c0 -30 9.66699 -55.333 29 -76c18.667 -20 44.667 -30 78 -30zM361.001 609.999
l-131 -95l-62 69l200 142l167 -142l-68 -69z" />
    <glyph glyph-name="otilde" unicode="&#xf5;" horiz-adv-x="592" 
d="M337 461c78.667 0 141 -23 187 -69c40 -40 60 -90.333 60 -151c0 -72.667 -24 -133.667 -72 -183c-48 -48.667 -116.333 -73 -205 -73c-80.667 0 -142.667 22.333 -186 67c-40.667 42 -61 94.333 -61 157c0 71.333 24 130 72 176c52 50.667 120.333 76 205 76zM315 107
c33.333 0 61.334 10.666 84.001 31.999c24.667 24 37 55.667 37 95c0 32.667 -10 58.334 -30 77.001s-46 28 -78 28c-30.667 0 -57.334 -10.333 -80.001 -31c-26.667 -24 -40 -55.667 -40 -95c0 -30 9.66699 -55.333 29 -76c18.667 -20 44.667 -30 78 -30zM479.001 656.999
l61.9971 -44c-11.333 -22.667 -26 -42.667 -44 -60c-24 -22.667 -49.667 -34 -77 -34c-18 0 -39 5 -63 15l-32 13c-23.333 9.33301 -40 14 -50 14c-21.333 0 -38.666 -12.667 -51.999 -38l-59 44c10.667 25.333 24.334 46.333 41.001 63c20.667 20.667 46.334 31 77.001 31
c19.333 0 42 -5.33301 68 -16l32 -13c22 -8.66699 39.333 -13 52 -13c19.333 0 34.333 12.667 45 38z" />
    <glyph glyph-name="odieresis" unicode="&#xf6;" horiz-adv-x="592" 
d="M337 461c78.667 0 141 -23 187 -69c40 -40 60 -90.333 60 -151c0 -72.667 -24 -133.667 -72 -183c-48 -48.667 -116.333 -73 -205 -73c-80.667 0 -142.667 22.333 -186 67c-40.667 42 -61 94.333 -61 157c0 71.333 24 130 72 176c52 50.667 120.333 76 205 76zM315 107
c33.333 0 61.334 10.666 84.001 31.999c24.667 24 37 55.667 37 95c0 32.667 -10 58.334 -30 77.001s-46 28 -78 28c-30.667 0 -57.334 -10.333 -80.001 -31c-26.667 -24 -40 -55.667 -40 -95c0 -30 9.66699 -55.333 29 -76c18.667 -20 44.667 -30 78 -30zM166.001 598.999
c0 21.333 7.83301 39.833 23.5 55.5s34.167 23.5 55.5 23.5s39.833 -7.83301 55.5 -23.5s23.5 -34.167 23.5 -55.5s-7.83301 -39.833 -23.5 -55.5s-34.167 -23.5 -55.5 -23.5s-39.833 7.83301 -55.5 23.5s-23.5 34.167 -23.5 55.5zM384.001 598.999
c0 21.333 7.83301 39.833 23.5 55.5s34.167 23.5 55.5 23.5s39.833 -7.83301 55.5 -23.5s23.5 -34.167 23.5 -55.5s-7.83301 -39.833 -23.5 -55.5s-34.167 -23.5 -55.5 -23.5s-39.833 7.83301 -55.5 23.5s-23.5 34.167 -23.5 55.5z" />
    <glyph glyph-name="divide" unicode="&#xf7;" 
d="M73 282v116h434v-116h-434zM217 510c0 20 7.16699 37.167 21.5 51.5s31.5 21.5 51.5 21.5s37.167 -7.16699 51.5 -21.5s21.5 -31.5 21.5 -51.5s-7.16699 -37.167 -21.5 -51.5s-31.5 -21.5 -51.5 -21.5s-37.167 7.16699 -51.5 21.5s-21.5 31.5 -21.5 51.5zM217 168
c0 20 7.16699 37.167 21.5 51.5s31.5 21.5 51.5 21.5s37.167 -7.16699 51.5 -21.5s21.5 -31.5 21.5 -51.5s-7.16699 -37.167 -21.5 -51.5s-31.5 -21.5 -51.5 -21.5s-37.167 7.16699 -51.5 21.5s-21.5 31.5 -21.5 51.5z" />
    <glyph glyph-name="oslash" unicode="&#xf8;" horiz-adv-x="612" 
d="M30 6l81 72c-26.667 40 -40 83.667 -40 131c0 70 24 128.667 72 176c52 50.667 120.333 76 205 76c56.667 0 107 -13.667 151 -41l88 78l49 -57l-81 -73c26.667 -38.667 40 -81 40 -127c0 -74 -24 -135 -72 -183c-48.667 -48.667 -115.667 -73 -201 -73
c-60.667 0 -112 12.667 -154 38l-84 -75zM440 271l-168.001 -150c16 -9.33301 33.667 -14 53 -14c36.667 0 66.334 12 89.001 36c22 24 33 52.667 33 86c0 14.667 -2.33301 28.667 -7 42zM225.999 175l169 149.001c-16 10 -34.333 15 -55 15c-32 0 -59 -10.333 -81 -31
c-26.667 -24.667 -40 -55.334 -40 -92.001c0 -14 2.33301 -27.667 7 -41z" />
    <glyph glyph-name="ugrave" unicode="&#xf9;" horiz-adv-x="570" 
d="M423 446l143.998 -0.00195312l-28 -241c-2.66699 -22.667 -5.5 -41.5 -8.5 -56.5s-9.33301 -32.833 -19 -53.5s-22.167 -38.334 -37.5 -53.001c-39.333 -38 -97.666 -57 -174.999 -57c-80.667 0 -138.667 17 -174 51c-32 30 -48 70 -48 120c0 18.667 1.66699 39.667 5 63
l27 227h144l-26 -222c-3.33301 -31.333 -5 -47.666 -5 -48.999c0 -21.333 6.33301 -37.666 19 -48.999c14 -12.667 33.667 -19 59 -19c28 0 50 8.33301 66 25c14.667 14.667 24.334 41.334 29.001 80.001zM331.998 514.998l-135 135l103 65l103 -152z" />
    <glyph glyph-name="uacute" unicode="&#xfa;" horiz-adv-x="570" 
d="M423 446l143.998 -0.00195312l-28 -241c-2.66699 -22.667 -5.5 -41.5 -8.5 -56.5s-9.33301 -32.833 -19 -53.5s-22.167 -38.334 -37.5 -53.001c-39.333 -38 -97.666 -57 -174.999 -57c-80.667 0 -138.667 17 -174 51c-32 30 -48 70 -48 120c0 18.667 1.66699 39.667 5 63
l27 227h144l-26 -222c-3.33301 -31.333 -5 -47.666 -5 -48.999c0 -21.333 6.33301 -37.666 19 -48.999c14 -12.667 33.667 -19 59 -19c28 0 50 8.33301 66 25c14.667 14.667 24.334 41.334 29.001 80.001zM424.998 714.998l86 -65l-169 -135l-59 48z" />
    <glyph glyph-name="ucircumflex" unicode="&#xfb;" horiz-adv-x="570" 
d="M423 446l143.998 -0.00195312l-28 -241c-2.66699 -22.667 -5.5 -41.5 -8.5 -56.5s-9.33301 -32.833 -19 -53.5s-22.167 -38.334 -37.5 -53.001c-39.333 -38 -97.666 -57 -174.999 -57c-80.667 0 -138.667 17 -174 51c-32 30 -48 70 -48 120c0 18.667 1.66699 39.667 5 63
l27 227h144l-26 -222c-3.33301 -31.333 -5 -47.666 -5 -48.999c0 -21.333 6.33301 -37.666 19 -48.999c14 -12.667 33.667 -19 59 -19c28 0 50 8.33301 66 25c14.667 14.667 24.334 41.334 29.001 80.001zM340.998 609.998l-131 -95l-62 69l200 142l167 -142l-68 -69z" />
    <glyph glyph-name="udieresis" unicode="&#xfc;" horiz-adv-x="570" 
d="M423 446l143.998 -0.00195312l-28 -241c-2.66699 -22.667 -5.5 -41.5 -8.5 -56.5s-9.33301 -32.833 -19 -53.5s-22.167 -38.334 -37.5 -53.001c-39.333 -38 -97.666 -57 -174.999 -57c-80.667 0 -138.667 17 -174 51c-32 30 -48 70 -48 120c0 18.667 1.66699 39.667 5 63
l27 227h144l-26 -222c-3.33301 -31.333 -5 -47.666 -5 -48.999c0 -21.333 6.33301 -37.666 19 -48.999c14 -12.667 33.667 -19 59 -19c28 0 50 8.33301 66 25c14.667 14.667 24.334 41.334 29.001 80.001zM160.998 598.998c0 21.333 7.83301 39.833 23.5 55.5
s34.167 23.5 55.5 23.5s39.833 -7.83301 55.5 -23.5s23.5 -34.167 23.5 -55.5s-7.83301 -39.833 -23.5 -55.5s-34.167 -23.5 -55.5 -23.5s-39.833 7.83301 -55.5 23.5s-23.5 34.167 -23.5 55.5zM378.998 598.998c0 21.333 7.83301 39.833 23.5 55.5s34.167 23.5 55.5 23.5
s39.833 -7.83301 55.5 -23.5s23.5 -34.167 23.5 -55.5s-7.83301 -39.833 -23.5 -55.5s-34.167 -23.5 -55.5 -23.5s-39.833 7.83301 -55.5 23.5s-23.5 34.167 -23.5 55.5z" />
    <glyph glyph-name="yacute" unicode="&#xfd;" horiz-adv-x="583" 
d="M40 -229l184 286l-173 389h164l99 -244l150 244h169l-431 -675h-162zM431 715l86 -65l-169 -135l-59 48z" />
    <glyph glyph-name="thorn" unicode="&#xfe;" horiz-adv-x="598" 
d="M210 55l-36 -283.999h-144l118 958h144l-43 -335c16 19.333 34.667 34.666 56 45.999c27.333 14 58 21 92 21c56 0 101 -16.333 135 -49c39.333 -39.333 59 -95 59 -167c0 -83.333 -25 -150 -75 -200c-40 -40 -90.333 -60 -151 -60c-40 0 -72.333 6.33301 -97 19
c-22.667 12 -42 29 -58 51zM341 337.001c-33.333 0 -61.332 -11.333 -83.999 -34c-24 -24 -36 -54 -36 -90c0 -30 9 -54.333 27 -73c19.333 -20.667 44.333 -31 75 -31c31.333 0 58 10.333 80 31c12 10.667 21.667 25.167 29 43.5s11 35.833 11 52.5
c0 31.333 -10.333 56.333 -31 75c-18.667 17.333 -42.334 26 -71.001 26z" />
    <glyph glyph-name="ydieresis" unicode="&#xff;" horiz-adv-x="583" 
d="M40 -229l184 286l-173 389h164l99 -244l150 244h169l-431 -675h-162zM161 599c0 21.333 7.83301 39.833 23.5 55.5s34.167 23.5 55.5 23.5s39.833 -7.83301 55.5 -23.5s23.5 -34.167 23.5 -55.5s-7.83301 -39.833 -23.5 -55.5s-34.167 -23.5 -55.5 -23.5
s-39.833 7.83301 -55.5 23.5s-23.5 34.167 -23.5 55.5zM379 599c0 21.333 7.83301 39.833 23.5 55.5s34.167 23.5 55.5 23.5s39.833 -7.83301 55.5 -23.5s23.5 -34.167 23.5 -55.5s-7.83301 -39.833 -23.5 -55.5s-34.167 -23.5 -55.5 -23.5s-39.833 7.83301 -55.5 23.5
s-23.5 34.167 -23.5 55.5z" />
    <glyph glyph-name="Amacron" unicode="&#x100;" horiz-adv-x="677" 
d="M517 0l-34 126h-252l-63 -126h-166l352 667h142l179 -667h-158zM289 244h166l-54 235zM228 753l12 92h388l-12 -92h-388z" />
    <glyph glyph-name="amacron" unicode="&#x101;" horiz-adv-x="598" 
d="M444 392l3.99902 53.999h144l-55 -446h-144l11 51c-19.333 -22.667 -40.333 -39.334 -63 -50.001c-23.333 -10.667 -51 -16 -83 -16c-57.333 0 -103.333 18.333 -138 55c-40 42.667 -60 97.334 -60 164.001c0 78.667 24 142.667 72 192
c42.667 43.333 97.334 65 164.001 65c34.667 0 63.667 -5.66699 87 -17c24 -11.333 44.333 -28.666 61 -51.999zM326.999 336.999c-34.667 0 -62.998 -11 -84.998 -33c-22.667 -22.667 -34 -52.334 -34 -89.001c0 -30 9.66699 -55.333 29 -76
c19.333 -20 44.666 -30 75.999 -30c33.333 0 60.666 10 81.999 30c25.333 24.667 38 56.667 38 96c0 32.667 -10.333 58.334 -31 77.001c-18 16.667 -43 25 -75 25zM167.001 542.999l11 90h380l-11 -90h-380z" />
    <glyph glyph-name="Abreve" unicode="&#x102;" horiz-adv-x="677" 
d="M517 0l-34 126h-252l-63 -126h-166l352 667h142l179 -667h-158zM289 244h166l-54 235zM513 874h96c-8 -44 -25 -79 -51 -105c-29.333 -29.333 -71.666 -44 -126.999 -44c-54 0 -95 14 -123 42c-27.333 27.333 -41.666 63 -42.999 107h96
c1.33301 -16.667 6.66602 -30.667 15.999 -42c12 -14 31 -21 57 -21c23.333 0 41.666 6 54.999 18c12.667 11.333 20.667 26.333 24 45z" />
    <glyph glyph-name="abreve" unicode="&#x103;" horiz-adv-x="598" 
d="M444 392l3.99902 53.999h144l-55 -446h-144l11 51c-19.333 -22.667 -40.333 -39.334 -63 -50.001c-23.333 -10.667 -51 -16 -83 -16c-57.333 0 -103.333 18.333 -138 55c-40 42.667 -60 97.334 -60 164.001c0 78.667 24 142.667 72 192
c42.667 43.333 97.334 65 164.001 65c34.667 0 63.667 -5.66699 87 -17c24 -11.333 44.333 -28.666 61 -51.999zM326.999 336.999c-34.667 0 -62.998 -11 -84.998 -33c-22.667 -22.667 -34 -52.334 -34 -89.001c0 -30 9.66699 -55.333 29 -76
c19.333 -20 44.666 -30 75.999 -30c33.333 0 60.666 10 81.999 30c25.333 24.667 38 56.667 38 96c0 32.667 -10.333 58.334 -31 77.001c-18 16.667 -43 25 -75 25zM427.001 663.999h93.999c-5.33301 -43.333 -21.666 -78 -48.999 -104
c-29.333 -28.667 -71.333 -43 -126 -43c-55.333 0 -96.666 14 -123.999 42c-26 27.333 -39 62.333 -39 105h94c0 -16.667 5 -30.667 15 -42c11.333 -12.667 29.666 -19 54.999 -19c22.667 0 40.667 5.33301 54 16c13.333 10 22 25 26 45z" />
    <glyph glyph-name="Aogonek" unicode="&#x104;" horiz-adv-x="677" 
d="M354 667l142.001 0.00195312l179 -667h-86l-35 -40c-12.667 -16 -19 -30 -19 -42c0 -10.667 3 -18.334 9 -23.001c6.66699 -6 15.667 -9 27 -9c16 0 32.667 5 50 15l-27 -77c-20.667 -11.333 -42.667 -17 -66 -17c-26 0 -46.333 6.66699 -61 20
c-15.333 13.333 -23 31.666 -23 54.999c0 22.667 8.33301 45 25 67l3 3c1.33301 2.66699 3.5 5.66699 6.5 9l9.5 11c3.33301 4 7.66602 8.5 12.999 13.5l16 14.5l-35 131h-249l-65 -131h-166zM292.001 251.002h161l-52 228z" />
    <glyph glyph-name="aogonek" unicode="&#x105;" horiz-adv-x="598" 
d="M444 392l3.99902 53.999h144l-55 -446h-40c-8.66699 -8.66699 -18.667 -20.334 -30 -35.001c-13.333 -18 -20 -32.667 -20 -44c0 -8.66699 3.33301 -16 10 -22s15.334 -9 26.001 -9c15.333 0 32.666 5 51.999 15l-27 -77c-21.333 -11.333 -44 -17 -68 -17
c-26 0 -45.667 6 -59 18c-15.333 12.667 -23 29.667 -23 51c0 23.333 9.66699 47.333 29 72c12.667 16.667 27.334 32.667 44.001 48h-38l11 51c-17.333 -20 -38 -36 -62 -48s-52.333 -18 -85 -18c-56.667 0 -102.334 18.333 -137.001 55c-40 42.667 -60 97.334 -60 164.001
c0 78.667 24 142.667 72 192c42.667 43.333 97.334 65 164.001 65c34.667 0 63.667 -5.66699 87 -17c24 -11.333 44.333 -28.666 61 -51.999zM326.999 336.999c-34.667 0 -62.998 -11 -84.998 -33c-22.667 -22.667 -34 -52.334 -34 -89.001c0 -30 9.66699 -55.333 29 -76
c19.333 -20 44.666 -30 75.999 -30c33.333 0 60.666 10 81.999 30c25.333 24.667 38 56.667 38 96c0 32.667 -10.333 58.334 -31 77.001c-18 16.667 -43 25 -75 25z" />
    <glyph glyph-name="Cacute" unicode="&#x106;" horiz-adv-x="605" 
d="M587 187l-19.999 -165.999c-48 -24 -102 -36 -162 -36c-95.333 0 -173.666 29.667 -234.999 89c-60 60 -90 137 -90 231c0 111.333 35.333 202.333 106 273c69.333 69.333 158.333 104 267 104c71.333 0 134.333 -16 189 -48l-19 -163
c-44.667 44.667 -100.334 67 -167.001 67s-119.334 -21 -158.001 -63c-40 -42.667 -60 -95 -60 -157c0 -56.667 17.333 -102.334 52 -137.001s81.667 -52 141 -52c56 0 108 19.333 156 58zM549.001 925.001l86 -72l-180 -129l-59 53z" />
    <glyph glyph-name="cacute" unicode="&#x107;" horiz-adv-x="431" 
d="M445 432l-17 -131c-27.333 25.333 -60.666 38 -99.999 38c-35.333 0 -64.333 -11.333 -87 -34c-22 -24 -33 -53.667 -33 -89c0 -32.667 10.667 -59 32 -79c20.667 -20 46.667 -30 78 -30c34 0 64.333 12 91 36l-16 -132c-35.333 -17.333 -74.666 -26 -117.999 -26
c-64.667 0 -116.334 20.667 -155.001 62c-40 43.333 -60 97 -60 161c0 73.333 23.333 134 70 182c46 47.333 107.667 71 185 71c47.333 0 90.666 -9.66699 129.999 -29zM395 715l86 -65l-169 -135l-59 48z" />
    <glyph glyph-name="Ccircumflex" unicode="&#x108;" horiz-adv-x="605" 
d="M587 187l-19.999 -165.999c-48 -24 -102 -36 -162 -36c-95.333 0 -173.666 29.667 -234.999 89c-60 60 -90 137 -90 231c0 111.333 35.333 202.333 106 273c69.333 69.333 158.333 104 267 104c71.333 0 134.333 -16 189 -48l-19 -163
c-44.667 44.667 -100.334 67 -167.001 67s-119.334 -21 -158.001 -63c-40 -42.667 -60 -95 -60 -157c0 -56.667 17.333 -102.334 52 -137.001s81.667 -52 141 -52c56 0 108 19.333 156 58zM323.001 726.001l-64 71l205 140l172 -140l-66 -71l-114 93z" />
    <glyph glyph-name="ccircumflex" unicode="&#x109;" horiz-adv-x="431" 
d="M445 432l-17 -131c-27.333 25.333 -60.666 38 -99.999 38c-35.333 0 -64.333 -11.333 -87 -34c-22 -24 -33 -53.667 -33 -89c0 -32.667 10.667 -59 32 -79c20.667 -20 46.667 -30 78 -30c34 0 64.333 12 91 36l-16 -132c-35.333 -17.333 -74.666 -26 -117.999 -26
c-64.667 0 -116.334 20.667 -155.001 62c-40 43.333 -60 97 -60 161c0 73.333 23.333 134 70 182c46 47.333 107.667 71 185 71c47.333 0 90.666 -9.66699 129.999 -29zM321 610l-131 -95l-62 69l200 142l167 -142l-68 -69z" />
    <glyph glyph-name="Cdotaccent" unicode="&#x10a;" horiz-adv-x="605" 
d="M587 187l-19.999 -165.999c-48 -24 -102 -36 -162 -36c-95.333 0 -173.666 29.667 -234.999 89c-60 60 -90 137 -90 231c0 111.333 35.333 202.333 106 273c69.333 69.333 158.333 104 267 104c71.333 0 134.333 -16 189 -48l-19 -163
c-44.667 44.667 -100.334 67 -167.001 67s-119.334 -21 -158.001 -63c-40 -42.667 -60 -95 -60 -157c0 -56.667 17.333 -102.334 52 -137.001s81.667 -52 141 -52c56 0 108 19.333 156 58zM392.001 815.001c0 24 8.16699 44.167 24.5 60.5s36.5 24.5 60.5 24.5
s44.167 -8.16699 60.5 -24.5s24.5 -36.5 24.5 -60.5s-8.16699 -44.167 -24.5 -60.5s-36.5 -24.5 -60.5 -24.5s-44.167 8.16699 -60.5 24.5s-24.5 36.5 -24.5 60.5z" />
    <glyph glyph-name="cdotaccent" unicode="&#x10b;" horiz-adv-x="431" 
d="M445 432l-17 -131c-27.333 25.333 -60.666 38 -99.999 38c-35.333 0 -64.333 -11.333 -87 -34c-22 -24 -33 -53.667 -33 -89c0 -32.667 10.667 -59 32 -79c20.667 -20 46.667 -30 78 -30c34 0 64.333 12 91 36l-16 -132c-35.333 -17.333 -74.666 -26 -117.999 -26
c-64.667 0 -116.334 20.667 -155.001 62c-40 43.333 -60 97 -60 161c0 73.333 23.333 134 70 182c46 47.333 107.667 71 185 71c47.333 0 90.666 -9.66699 129.999 -29zM265 603c0 23.333 8 43 24 59s35.667 24 59 24s43 -8 59 -24s24 -35.667 24 -59s-8 -43 -24 -59
s-35.667 -24 -59 -24s-43 8 -59 24s-24 35.667 -24 59z" />
    <glyph glyph-name="Ccaron" unicode="&#x10c;" horiz-adv-x="605" 
d="M587 187l-19.999 -165.999c-48 -24 -102 -36 -162 -36c-95.333 0 -173.666 29.667 -234.999 89c-60 60 -90 137 -90 231c0 111.333 35.333 202.333 106 273c69.333 69.333 158.333 104 267 104c71.333 0 134.333 -16 189 -48l-19 -163
c-44.667 44.667 -100.334 67 -167.001 67s-119.334 -21 -158.001 -63c-40 -42.667 -60 -95 -60 -157c0 -56.667 17.333 -102.334 52 -137.001s81.667 -52 141 -52c56 0 108 19.333 156 58zM456.001 844.001l132 93l66 -70l-206 -141l-171 141l64 70z" />
    <glyph glyph-name="ccaron" unicode="&#x10d;" horiz-adv-x="431" 
d="M445 432l-17 -131c-27.333 25.333 -60.666 38 -99.999 38c-35.333 0 -64.333 -11.333 -87 -34c-22 -24 -33 -53.667 -33 -89c0 -32.667 10.667 -59 32 -79c20.667 -20 46.667 -30 78 -30c34 0 64.333 12 91 36l-16 -132c-35.333 -17.333 -74.666 -26 -117.999 -26
c-64.667 0 -116.334 20.667 -155.001 62c-40 43.333 -60 97 -60 161c0 73.333 23.333 134 70 182c46 47.333 107.667 71 185 71c47.333 0 90.666 -9.66699 129.999 -29zM307 631l130 95l67 -68l-202 -143l-165 143l63 68z" />
    <glyph glyph-name="Dcaron" unicode="&#x10e;" horiz-adv-x="685" 
d="M152 667l195 -0.000976562c113.333 0 198.333 -28.333 255 -85c53.333 -53.333 80 -127.333 80 -222c0 -113.333 -34.667 -202.666 -104 -267.999c-64.667 -61.333 -165.667 -92 -303 -92h-205zM290 536.999l-50 -407.001h47c75.333 0 132 17 170 51
c44.667 40 67 98.333 67 175c0 58.667 -16 103.334 -48 134.001c-32.667 31.333 -79 47 -139 47h-47zM370 843.998l132 93l66 -70l-206 -141l-171 141l64 70z" />
    <glyph glyph-name="dcaron" unicode="&#x10f;" horiz-adv-x="749" 
d="M441 392l41 337h144l-90 -729h-143l8 51c-15.333 -22 -35 -38.667 -59 -50c-22 -10.667 -50.667 -16 -86 -16c-55.333 0 -100.333 17 -135 51c-40.667 40.667 -61 94.667 -61 162c0 82 25.667 148.667 77 200c42 42 95.333 63 160 63c60 0 108 -23 144 -69zM326 337
c-32.667 0 -60 -11.001 -82 -33.001c-24 -24 -36 -54.333 -36 -91c0 -32 10.333 -57.667 31 -77c18 -18 42.667 -27 74 -27c34 0 61.667 11.333 83 34c23.333 24.667 35 55.334 35 92.001c0 28.667 -9.66699 52.667 -29 72c-20 20 -45.333 30 -76 30zM633 491.999l82 208
l130 -30l-124 -198z" />
    <glyph glyph-name="Dcroat" unicode="&#x110;" horiz-adv-x="712" 
d="M148 413l31 253.999h195c113.333 0 198.333 -28.333 255 -85c53.333 -53.333 80 -127.333 80 -222c0 -113.333 -34.667 -202.666 -104 -267.999c-64.667 -61.333 -165.667 -92 -303 -92h-205l37 303h-90l14 110h90zM317 536.999l-15 -124.001h120l-14 -110h-120l-21 -173
h47c75.333 0 132 17 170 51c44.667 40 67 98.333 67 175c0 58.667 -16 103.334 -48 134.001c-32.667 31.333 -79 47 -139 47h-47z" />
    <glyph glyph-name="dcroat" unicode="&#x111;" horiz-adv-x="608" 
d="M441 392l18 150h-192l11 94h192l12 93h144l-12 -93h80l-11 -94h-80l-67 -542h-143l8 51c-15.333 -22 -35 -38.667 -59 -50c-22 -10.667 -50.667 -16 -86 -16c-55.333 0 -100.333 17 -135 51c-40.667 40.667 -61 94.667 -61 162c0 82 25.667 148.667 77 200
c42 42 95.333 63 160 63c60 0 108 -23 144 -69zM326 337c-32.667 0 -60 -11.001 -82 -33.001c-24 -24 -36 -54.333 -36 -91c0 -32 10.333 -57.667 31 -77c18 -18 42.667 -27 74 -27c34 0 61.667 11.333 83 34c23.333 24.667 35 55.334 35 92.001
c0 28.667 -9.66699 52.667 -29 72c-20 20 -45.333 30 -76 30z" />
    <glyph glyph-name="Emacron" unicode="&#x112;" horiz-adv-x="502" 
d="M520 667l-16 -130h-218l-16 -129h210l-16 -130h-210l-18 -148h222l-16 -130h-372l82 667h368zM145 753l12 92h388l-12 -92h-388z" />
    <glyph glyph-name="emacron" unicode="&#x113;" horiz-adv-x="542" 
d="M218 283h181.002c-2.66699 24.667 -12.334 44 -29.001 58c-14.667 12 -34.334 18 -59.001 18c-27.333 0 -50 -9 -68 -27c-12.667 -14 -21 -30.333 -25 -49zM537.002 195l-332.999 0.000976562c-1.33301 -26 4.66699 -48.333 18 -67c15.333 -20.667 38.333 -31 69 -31
c24.667 0 43.667 4.33301 57 13c13.333 9.33301 23.666 22.666 30.999 39.999l145 -12c-19.333 -48 -46.333 -85 -81 -111c-37.333 -28 -88.333 -42 -153 -42c-76 0 -134 20 -174 60c-37.333 37.333 -56 89.333 -56 156c0 83.333 25.667 149.333 77 198
c44 41.333 103 62 177 62c72 0 127.667 -19 167 -57c26.667 -26 43.667 -58.5 51 -97.5s9 -76.167 5 -111.5zM142.003 543.001l11 90h380l-11 -90h-380z" />
    <glyph glyph-name="Edotaccent" unicode="&#x116;" horiz-adv-x="502" 
d="M520 667l-16 -130h-218l-16 -129h210l-16 -130h-210l-18 -148h222l-16 -130h-372l82 667h368zM259 815c0 24 8.16699 44.167 24.5 60.5s36.5 24.5 60.5 24.5s44.167 -8.16699 60.5 -24.5s24.5 -36.5 24.5 -60.5s-8.16699 -44.167 -24.5 -60.5s-36.5 -24.5 -60.5 -24.5
s-44.167 8.16699 -60.5 24.5s-24.5 36.5 -24.5 60.5z" />
    <glyph glyph-name="edotaccent" unicode="&#x117;" horiz-adv-x="542" 
d="M218 283h181.002c-2.66699 24.667 -12.334 44 -29.001 58c-14.667 12 -34.334 18 -59.001 18c-27.333 0 -50 -9 -68 -27c-12.667 -14 -21 -30.333 -25 -49zM537.002 195l-332.999 0.000976562c-1.33301 -26 4.66699 -48.333 18 -67c15.333 -20.667 38.333 -31 69 -31
c24.667 0 43.667 4.33301 57 13c13.333 9.33301 23.666 22.666 30.999 39.999l145 -12c-19.333 -48 -46.333 -85 -81 -111c-37.333 -28 -88.333 -42 -153 -42c-76 0 -134 20 -174 60c-37.333 37.333 -56 89.333 -56 156c0 83.333 25.667 149.333 77 198
c44 41.333 103 62 177 62c72 0 127.667 -19 167 -57c26.667 -26 43.667 -58.5 51 -97.5s9 -76.167 5 -111.5zM257.003 603.001c0 23.333 8 43 24 59s35.667 24 59 24s43 -8 59 -24s24 -35.667 24 -59s-8 -43 -24 -59s-35.667 -24 -59 -24s-43 8 -59 24s-24 35.667 -24 59z
" />
    <glyph glyph-name="Eogonek" unicode="&#x118;" horiz-adv-x="502" 
d="M520 667l-15.999 -129.998h-218l-16 -129h210l-16 -130h-210l-18 -148h222l-16 -130h-40l-35 -40c-12.667 -16 -19 -30 -19 -42c0 -10.667 3 -18.334 9 -23.001c6.66699 -6 15.667 -9 27 -9c16 0 32.667 5 50 15l-27 -77c-20.667 -11.333 -42.667 -17 -66 -17
c-26 0 -46.333 6.66699 -61 20c-15.333 13.333 -23 31.666 -23 54.999c0 22.667 8.33301 45 25 67l2 3c2 2.66699 4.5 5.66699 7.5 9l9.5 11c3.33301 4 7.66602 8.5 12.999 13.5l16 14.5h-260l82 667h368z" />
    <glyph glyph-name="eogonek" unicode="&#x119;" horiz-adv-x="542" 
d="M537 195l-332.998 0.000976562c0 -27.333 6 -49.666 18 -66.999c15.333 -20.667 38.333 -31 69 -31c24.667 0 43.667 4.33301 57 13c13.333 9.33301 23.666 22.666 30.999 39.999l145 -12c-6 -32.667 -21.333 -61.334 -46 -86.001c-17.333 -17.333 -41.333 -34 -72 -50
c-35.333 -20 -56.666 -33.667 -63.999 -41c-12.667 -12.667 -19 -26 -19 -40c0 -9.33301 3.33301 -16.666 10 -21.999c6 -6 14.667 -9 26 -9c20 0 37.333 5 52 15l-27 -77c-21.333 -11.333 -44 -17 -68 -17c-26 0 -45.667 6 -59 18c-15.333 14 -23 31 -23 51
c0 22 6 41.667 18 59c9.33301 14 22.666 29 39.999 45c-76.667 0 -135.334 20.333 -176.001 61c-37.333 37.333 -56 87.666 -56 150.999c0 86 25.667 153.667 77 203c44 41.333 102.667 62 176 62c72.667 0 128.667 -19 168 -57c38.667 -38 58 -94 58 -168
c0 -11.333 -0.666992 -25 -2 -41zM218.002 283.001h181.002c-2.66699 24.667 -12.334 44 -29.001 58c-14.667 12 -34.334 18 -59.001 18c-27.333 0 -50 -9 -68 -27c-12.667 -14 -21 -30.333 -25 -49z" />
    <glyph glyph-name="Ecaron" unicode="&#x11a;" horiz-adv-x="502" 
d="M520 667l-16 -130h-218l-16 -129h210l-16 -130h-210l-18 -148h222l-16 -130h-372l82 667h368zM339 844l132 93l66 -70l-206 -141l-171 141l64 70z" />
    <glyph glyph-name="ecaron" unicode="&#x11b;" horiz-adv-x="542" 
d="M218 283h181.002c-2.66699 24.667 -12.334 44 -29.001 58c-14.667 12 -34.334 18 -59.001 18c-27.333 0 -50 -9 -68 -27c-12.667 -14 -21 -30.333 -25 -49zM537.002 195l-332.999 0.000976562c-1.33301 -26 4.66699 -48.333 18 -67c15.333 -20.667 38.333 -31 69 -31
c24.667 0 43.667 4.33301 57 13c13.333 9.33301 23.666 22.666 30.999 39.999l145 -12c-19.333 -48 -46.333 -85 -81 -111c-37.333 -28 -88.333 -42 -153 -42c-76 0 -134 20 -174 60c-37.333 37.333 -56 89.333 -56 156c0 83.333 25.667 149.333 77 198
c44 41.333 103 62 177 62c72 0 127.667 -19 167 -57c26.667 -26 43.667 -58.5 51 -97.5s9 -76.167 5 -111.5zM327.003 631.001l130 95l67 -68l-202 -143l-165 143l63 68z" />
    <glyph glyph-name="Gcircumflex" unicode="&#x11c;" horiz-adv-x="767" 
d="M432 241l15.001 122.999h312c-3.33301 -123.333 -37.666 -218.333 -102.999 -285c-60 -62.667 -142 -94 -246 -94c-103.333 0 -185 31.333 -245 94c-56.667 59.333 -85 136.333 -85 231c0 108.667 33.333 198.334 100 269.001c38.667 40 80 67.167 124 81.5
s93.667 21.5 149 21.5c75.333 0 138 -16.333 188 -49c42.667 -28 78.667 -68 108 -120l-142 -75c-14.667 32.667 -35.334 58 -62.001 76c-27.333 18.667 -61.333 28 -102 28c-58 0 -104.667 -18.667 -140 -56c-43.333 -45.333 -65 -102 -65 -170
c0 -60 18.333 -107.667 55 -143c32 -32 77.667 -48 137 -48c43.333 0 78.666 10 105.999 30c28 20 47 48.667 57 86h-161zM313.001 725.999l-64 71l205 140l172 -140l-66 -71l-114 93z" />
    <glyph glyph-name="gcircumflex" unicode="&#x11d;" horiz-adv-x="595" 
d="M440 392l5 53.999h144l-56 -448c-10 -73.333 -32.333 -127.333 -67 -162c-43.333 -43.333 -108.333 -65 -195 -65c-75.333 0 -133 18.667 -173 56c-34 33.333 -54.667 74 -62 122h154c4.66699 -18 13.667 -32.667 27 -44c14.667 -12 35.667 -18 63 -18
c34 0 60.333 11 79 33c16 18.667 26 46.334 30 83.001l6 48c-29.333 -42 -75 -63 -137 -63c-58 0 -104 17.667 -138 53c-40 41.333 -60 95.333 -60 162c0 78.667 24.333 143 73 193c42.667 43.333 96 65 160 65c60.667 0 109.667 -23 147 -69zM320 335.999
c-33.333 0 -59.666 -9.66699 -78.999 -29c-22 -22 -33 -52 -33 -90c0 -32.667 10 -58.667 30 -78c19.333 -18 43.333 -27 72 -27c33.333 0 59.666 9.66699 78.999 29c10.667 10 19.5 24.167 26.5 42.5s10.5 35.833 10.5 52.5c0 30.667 -9.66699 55 -29 73
c-18 18 -43.667 27 -77 27zM361 609.999l-131 -95l-62 69l200 142l167 -142l-68 -69z" />
    <glyph glyph-name="Gbreve" unicode="&#x11e;" horiz-adv-x="767" 
d="M432 241l15.001 122.999h312c-3.33301 -123.333 -37.666 -218.333 -102.999 -285c-60 -62.667 -142 -94 -246 -94c-103.333 0 -185 31.333 -245 94c-56.667 59.333 -85 136.333 -85 231c0 108.667 33.333 198.334 100 269.001c38.667 40 80 67.167 124 81.5
s93.667 21.5 149 21.5c75.333 0 138 -16.333 188 -49c42.667 -28 78.667 -68 108 -120l-142 -75c-14.667 32.667 -35.334 58 -62.001 76c-27.333 18.667 -61.333 28 -102 28c-58 0 -104.667 -18.667 -140 -56c-43.333 -45.333 -65 -102 -65 -170
c0 -60 18.333 -107.667 55 -143c32 -32 77.667 -48 137 -48c43.333 0 78.666 10 105.999 30c28 20 47 48.667 57 86h-161zM543.001 873.999h96c-8 -44 -25 -79 -51 -105c-29.333 -29.333 -71.666 -44 -126.999 -44c-54 0 -95 14 -123 42
c-27.333 27.333 -41.666 63 -42.999 107h96c1.33301 -16.667 6.66602 -30.667 15.999 -42c12 -14 31 -21 57 -21c23.333 0 41.666 6 54.999 18c12.667 11.333 20.667 26.333 24 45z" />
    <glyph glyph-name="gbreve" unicode="&#x11f;" horiz-adv-x="595" 
d="M440 392l5 53.999h144l-56 -448c-10 -73.333 -32.333 -127.333 -67 -162c-43.333 -43.333 -108.333 -65 -195 -65c-75.333 0 -133 18.667 -173 56c-34 33.333 -54.667 74 -62 122h154c4.66699 -18 13.667 -32.667 27 -44c14.667 -12 35.667 -18 63 -18
c34 0 60.333 11 79 33c16 18.667 26 46.334 30 83.001l6 48c-29.333 -42 -75 -63 -137 -63c-58 0 -104 17.667 -138 53c-40 41.333 -60 95.333 -60 162c0 78.667 24.333 143 73 193c42.667 43.333 96 65 160 65c60.667 0 109.667 -23 147 -69zM320 335.999
c-33.333 0 -59.666 -9.66699 -78.999 -29c-22 -22 -33 -52 -33 -90c0 -32.667 10 -58.667 30 -78c19.333 -18 43.333 -27 72 -27c33.333 0 59.666 9.66699 78.999 29c10.667 10 19.5 24.167 26.5 42.5s10.5 35.833 10.5 52.5c0 30.667 -9.66699 55 -29 73
c-18 18 -43.667 27 -77 27zM427 663.999h93.999c-5.33301 -43.333 -21.666 -78 -48.999 -104c-29.333 -28.667 -71.333 -43 -126 -43c-55.333 0 -96.666 14 -123.999 42c-26 27.333 -39 62.333 -39 105h94c0 -16.667 5 -30.667 15 -42c11.333 -12.667 29.666 -19 54.999 -19
c22.667 0 40.667 5.33301 54 16c13.333 10 22 25 26 45z" />
    <glyph glyph-name="Gdotaccent" unicode="&#x120;" horiz-adv-x="767" 
d="M432 241l15.001 122.999h312c-3.33301 -123.333 -37.666 -218.333 -102.999 -285c-60 -62.667 -142 -94 -246 -94c-103.333 0 -185 31.333 -245 94c-56.667 59.333 -85 136.333 -85 231c0 108.667 33.333 198.334 100 269.001c38.667 40 80 67.167 124 81.5
s93.667 21.5 149 21.5c75.333 0 138 -16.333 188 -49c42.667 -28 78.667 -68 108 -120l-142 -75c-14.667 32.667 -35.334 58 -62.001 76c-27.333 18.667 -61.333 28 -102 28c-58 0 -104.667 -18.667 -140 -56c-43.333 -45.333 -65 -102 -65 -170
c0 -60 18.333 -107.667 55 -143c32 -32 77.667 -48 137 -48c43.333 0 78.666 10 105.999 30c28 20 47 48.667 57 86h-161zM386.001 814.999c0 24 8.16699 44.167 24.5 60.5s36.5 24.5 60.5 24.5s44.167 -8.16699 60.5 -24.5s24.5 -36.5 24.5 -60.5
s-8.16699 -44.167 -24.5 -60.5s-36.5 -24.5 -60.5 -24.5s-44.167 8.16699 -60.5 24.5s-24.5 36.5 -24.5 60.5z" />
    <glyph glyph-name="gdotaccent" unicode="&#x121;" horiz-adv-x="595" 
d="M440 392l5 53.999h144l-56 -448c-10 -73.333 -32.333 -127.333 -67 -162c-43.333 -43.333 -108.333 -65 -195 -65c-75.333 0 -133 18.667 -173 56c-34 33.333 -54.667 74 -62 122h154c4.66699 -18 13.667 -32.667 27 -44c14.667 -12 35.667 -18 63 -18
c34 0 60.333 11 79 33c16 18.667 26 46.334 30 83.001l6 48c-29.333 -42 -75 -63 -137 -63c-58 0 -104 17.667 -138 53c-40 41.333 -60 95.333 -60 162c0 78.667 24.333 143 73 193c42.667 43.333 96 65 160 65c60.667 0 109.667 -23 147 -69zM320 335.999
c-33.333 0 -59.666 -9.66699 -78.999 -29c-22 -22 -33 -52 -33 -90c0 -32.667 10 -58.667 30 -78c19.333 -18 43.333 -27 72 -27c33.333 0 59.666 9.66699 78.999 29c10.667 10 19.5 24.167 26.5 42.5s10.5 35.833 10.5 52.5c0 30.667 -9.66699 55 -29 73
c-18 18 -43.667 27 -77 27zM246 602.999c0 23.333 8 43 24 59s35.667 24 59 24s43 -8 59 -24s24 -35.667 24 -59s-8 -43 -24 -59s-35.667 -24 -59 -24s-43 8 -59 24s-24 35.667 -24 59z" />
    <glyph glyph-name="Gcommaaccent" unicode="&#x122;" horiz-adv-x="767" 
d="M432 241l15.001 122.999h312c-3.33301 -123.333 -37.666 -218.333 -102.999 -285c-60 -62.667 -142 -94 -246 -94c-103.333 0 -185 31.333 -245 94c-56.667 59.333 -85 136.333 -85 231c0 108.667 33.333 198.334 100 269.001c38.667 40 80 67.167 124 81.5
s93.667 21.5 149 21.5c75.333 0 138 -16.333 188 -49c42.667 -28 78.667 -68 108 -120l-142 -75c-14.667 32.667 -35.334 58 -62.001 76c-27.333 18.667 -61.333 28 -102 28c-58 0 -104.667 -18.667 -140 -56c-43.333 -45.333 -65 -102 -65 -170
c0 -60 18.333 -107.667 55 -143c32 -32 77.667 -48 137 -48c43.333 0 78.666 10 105.999 30c28 20 47 48.667 57 86h-161zM295.001 -248.001l66 198l134 -16l-108 -194z" />
    <glyph glyph-name="gcommaaccent" unicode="&#x123;" horiz-adv-x="595" 
d="M440 392l5 53.999h144l-56 -448c-10 -73.333 -32.333 -127.333 -67 -162c-43.333 -43.333 -108.333 -65 -195 -65c-75.333 0 -133 18.667 -173 56c-34 33.333 -54.667 74 -62 122h154c4.66699 -18 13.667 -32.667 27 -44c14.667 -12 35.667 -18 63 -18
c34 0 60.333 11 79 33c16 18.667 26 46.334 30 83.001l6 48c-29.333 -42 -75 -63 -137 -63c-58 0 -104 17.667 -138 53c-40 41.333 -60 95.333 -60 162c0 78.667 24.333 143 73 193c42.667 43.333 96 65 160 65c60.667 0 109.667 -23 147 -69zM320 335.999
c-33.333 0 -59.666 -9.66699 -78.999 -29c-22 -22 -33 -52 -33 -90c0 -32.667 10 -58.667 30 -78c19.333 -18 43.333 -27 72 -27c33.333 0 59.666 9.66699 78.999 29c10.667 10 19.5 24.167 26.5 42.5s10.5 35.833 10.5 52.5c0 30.667 -9.66699 55 -29 73
c-18 18 -43.667 27 -77 27zM420 685.999l-66 -188l-134 16l108 184z" />
    <glyph glyph-name="Hcircumflex" unicode="&#x124;" horiz-adv-x="720" 
d="M306 667l-31 -250h266l31 250h154l-82 -667h-154l35 287h-266l-35 -287h-154l82 667h154zM313 726l-64 71l205 140l172 -140l-66 -71l-114 93z" />
    <glyph glyph-name="hcircumflex" unicode="&#x125;" horiz-adv-x="571" 
d="M150 729l144 -0.000976562l-42 -332c16.667 17.333 35 31.333 55 42c24 12.667 54.333 19 91 19c49.333 0 87 -12.667 113 -38c25.333 -24.667 38 -60 38 -106c0 -19.333 -2.33301 -47.666 -7 -84.999l-27 -229h-144l24 193c4 30.667 6 54.667 6 72
c0 23.333 -6 41.333 -18 54c-12.667 12.667 -29.667 19 -51 19c-28.667 0 -51 -8 -67 -24c-18 -18 -29.667 -49.333 -35 -94l-26 -220h-144zM234 832.999l-131 -95l-62 69l200 142l167 -142l-68 -69z" />
    <glyph glyph-name="Hbar" unicode="&#x126;" horiz-adv-x="720" 
d="M306 667l-7 -53h266l7 53h154l-7 -53h60l-13 -106h-60l-62 -508h-154l36 287h-266l-36 -287h-154l62 508h-60l13 106h60l7 53h154zM552 508h-266l-11 -92h266z" />
    <glyph glyph-name="hbar" unicode="&#x127;" horiz-adv-x="581" 
d="M70 0l67.001 541.999h-80l11 94h80l12 93h144l-12 -93h192l-11 -94h-192l-19 -145c16.667 17.333 35 31.333 55 42c24 12.667 54.333 19 91 19c49.333 0 87 -12.667 113 -38c25.333 -24.667 38 -60 38 -106c0 -19.333 -2.33301 -47.666 -7 -84.999l-27 -229h-144l24 193
c4 30.667 6 54.667 6 72c0 23.333 -6 41.333 -18 54c-12.667 12.667 -30.334 19 -53.001 19c-27.333 0 -49 -8 -65 -24c-18 -18.667 -29.667 -50 -35 -94l-26 -220h-144z" />
    <glyph glyph-name="Imacron" unicode="&#x12a;" horiz-adv-x="306" 
d="M155 667h154l-82 -667h-154zM47 753l12 92h388l-12 -92h-388z" />
    <glyph glyph-name="imacron" unicode="&#x12b;" horiz-adv-x="276" 
d="M120 446h144l-55 -446h-144zM66 543l11 90h276l-11 -90h-276z" />
    <glyph glyph-name="Iogonek" unicode="&#x12e;" horiz-adv-x="306" 
d="M155 667l154.001 0.00195312l-82 -667l-35 -40c-12.667 -16 -19 -30 -19 -42c0 -10.667 3 -18.334 9 -23.001c6.66699 -6 15.667 -9 27 -9c16 0 32.667 5 50 15l-27 -77c-20.667 -11.333 -42.667 -17 -66 -17c-26 0 -46.333 6.66699 -61 20
c-15.333 13.333 -23 31.666 -23 54.999c0 22.667 8.33301 45 25 67l3 3c1.33301 2.66699 3.5 5.66699 6.5 9l9.5 11c3.33301 4 7.66602 8.5 12.999 13.5l16 14.5h-82z" />
    <glyph glyph-name="iogonek" unicode="&#x12f;" horiz-adv-x="276" 
d="M120 446l143.999 0.000976562l-55 -446c-8 -8.66699 -18 -20.334 -30 -35.001c-13.333 -18 -20 -32.667 -20 -44c0 -8.66699 3.33301 -16 10 -22s15.334 -9 26.001 -9c15.333 0 32.666 5 51.999 15l-27 -77c-21.333 -11.333 -44 -17 -68 -17c-26 0 -45.667 6 -59 18
c-15.333 12.667 -23 29.667 -23 51c0 23.333 9.66699 47.333 29 72c12.667 16.667 27.334 32.667 44.001 48h-78zM126.999 636.001c0 23.333 8.16699 43.166 24.5 59.499s36.166 24.5 59.499 24.5s43.166 -8.16699 59.499 -24.5s24.5 -36.166 24.5 -59.499
s-8.16699 -43.166 -24.5 -59.499s-36.166 -24.5 -59.499 -24.5s-43.166 8.16699 -59.499 24.5s-24.5 36.166 -24.5 59.499z" />
    <glyph glyph-name="Idotaccent" unicode="&#x130;" horiz-adv-x="306" 
d="M155 667h154l-82 -667h-154zM155 815c0 24 8.16699 44.167 24.5 60.5s36.5 24.5 60.5 24.5s44.167 -8.16699 60.5 -24.5s24.5 -36.5 24.5 -60.5s-8.16699 -44.167 -24.5 -60.5s-36.5 -24.5 -60.5 -24.5s-44.167 8.16699 -60.5 24.5s-24.5 36.5 -24.5 60.5z" />
    <glyph glyph-name="dotlessi" unicode="&#x131;" horiz-adv-x="276" 
d="M120 446h144l-55 -446h-144z" />
    <glyph glyph-name="Jcircumflex" unicode="&#x134;" horiz-adv-x="415" 
d="M267 667l153.998 -0.000976562l-56 -453c-8 -60.667 -19 -104.667 -33 -132c-9.33301 -18.667 -21 -34.667 -35 -48c-34 -32.667 -83.667 -49 -149 -49c-43.333 0 -78.666 8 -105.999 24s-49.666 38.667 -66.999 68l105 96c6 -16 14 -28.667 24 -38
c10.667 -9.33301 24 -14 40 -14c15.333 0 28.333 4.66699 39 14c14.667 12.667 24 38.334 28 77.001zM227.998 725.999l-64 71l205 140l172 -140l-66 -71l-114 93z" />
    <glyph glyph-name="jcircumflex" unicode="&#x135;" horiz-adv-x="276" 
d="M120 446h144l-85 -675h-144zM215 602l-105 -87l-59 69l176 142l142 -142l-72 -69z" />
    <glyph glyph-name="Kcommaaccent" unicode="&#x136;" horiz-adv-x="670" 
d="M306 667l-34 -279l244 279h184l-291 -323l247 -344h-194l-201 302l-37 -302h-154l82 667h154zM235 -248l66 198l134 -16l-108 -194z" />
    <glyph glyph-name="kcommaaccent" unicode="&#x137;" horiz-adv-x="566" 
d="M151 729h144l-55 -447l164 164h192l-219 -205l202 -241h-185l-164 196l-26 -196h-144zM175 -238l66 188l134 -16l-108 -184z" />
    <glyph glyph-name="Lacute" unicode="&#x139;" horiz-adv-x="448" 
d="M152 667h154l-66 -537h208l-16 -130h-362zM339 925l86 -72l-180 -129l-59 53z" />
    <glyph glyph-name="lacute" unicode="&#x13a;" horiz-adv-x="264" 
d="M150 729h144l-90 -729h-144zM287 955l86 -65l-169 -135l-59 48z" />
    <glyph glyph-name="Lcommaaccent" unicode="&#x13b;" horiz-adv-x="448" 
d="M152 667h154l-66 -537h208l-16 -130h-362zM150 -248l66 198l134 -16l-108 -194z" />
    <glyph glyph-name="lcommaaccent" unicode="&#x13c;" horiz-adv-x="264" 
d="M150 729h144l-90 -729h-144zM10 -238l66 188l134 -16l-108 -184z" />
    <glyph glyph-name="Lcaron" unicode="&#x13d;" horiz-adv-x="448" 
d="M152 667h154l-66 -537h208l-16 -130h-362zM330 472l104 208l130 -30l-146 -198z" />
    <glyph glyph-name="lcaron" unicode="&#x13e;" horiz-adv-x="409" 
d="M150 729h144l-90 -729h-144zM293 492l82 208l130 -30l-124 -198z" />
    <glyph glyph-name="Ldot" unicode="&#x13f;" horiz-adv-x="448" 
d="M152 667h154l-66 -537h208l-16 -130h-362zM332 334c0 24 8.16699 44.167 24.5 60.5s36.5 24.5 60.5 24.5s44.167 -8.16699 60.5 -24.5s24.5 -36.5 24.5 -60.5s-8.16699 -44.167 -24.5 -60.5s-36.5 -24.5 -60.5 -24.5s-44.167 8.16699 -60.5 24.5s-24.5 36.5 -24.5 60.5z
" />
    <glyph glyph-name="ldot" unicode="&#x140;" horiz-adv-x="439" 
d="M150 729h144l-90 -729h-144zM313 364c0 23.333 8 43 24 59s35.667 24 59 24s43 -8 59 -24s24 -35.667 24 -59s-8 -43 -24 -59s-35.667 -24 -59 -24s-43 8 -59 24s-24 35.667 -24 59z" />
    <glyph glyph-name="Lslash" unicode="&#x141;" horiz-adv-x="467" 
d="M92 0l32 258l-93 -55l15 120l92 55l36 289h154l-28 -226l110 65l-15 -120l-110 -65l-23 -191h207l-16 -130h-361z" />
    <glyph glyph-name="lslash" unicode="&#x142;" horiz-adv-x="268" 
d="M121 449l35 280h144l-27 -213l87 54l-13 -106l-87 -54l-50 -410h-144l42 343l-87 -54l13 106z" />
    <glyph glyph-name="Nacute" unicode="&#x143;" horiz-adv-x="796" 
d="M224 0h-154l83 667h134l307 -434l54 434h154l-82 -667h-134l-309 436zM567 925l86 -72l-180 -129l-59 53z" />
    <glyph glyph-name="nacute" unicode="&#x144;" horiz-adv-x="567" 
d="M111 446l144.001 -0.000976562l-7 -49c16.667 17.333 35 31.333 55 42c24 12.667 53.333 19 88 19c51.333 0 90 -12.667 116 -38c25.333 -24.667 38 -60 38 -106c0 -19.333 -2.33301 -47.666 -7 -84.999l-27 -229h-144l24 193c4 30.667 6 54.667 6 72
c0 23.333 -6 41.333 -18 54c-12.667 12.667 -30.334 19 -53.001 19c-27.333 0 -49 -8 -65 -24c-18 -18.667 -29.667 -50 -35 -94l-26 -220h-144zM425.001 714.999l86 -65l-169 -135l-59 48z" />
    <glyph glyph-name="Ncommaaccent" unicode="&#x145;" horiz-adv-x="796" 
d="M224 0h-154l83 667h134l307 -434l54 434h154l-82 -667h-134l-309 436zM294 -248l66 198l134 -16l-108 -194z" />
    <glyph glyph-name="ncommaaccent" unicode="&#x146;" horiz-adv-x="567" 
d="M111 446l144.001 -0.000976562l-7 -49c16.667 17.333 35 31.333 55 42c24 12.667 53.333 19 88 19c51.333 0 90 -12.667 116 -38c25.333 -24.667 38 -60 38 -106c0 -19.333 -2.33301 -47.666 -7 -84.999l-27 -229h-144l24 193c4 30.667 6 54.667 6 72
c0 23.333 -6 41.333 -18 54c-12.667 12.667 -30.334 19 -53.001 19c-27.333 0 -49 -8 -65 -24c-18 -18.667 -29.667 -50 -35 -94l-26 -220h-144zM165.001 -238.001l66 188l134 -16l-108 -184z" />
    <glyph glyph-name="Ncaron" unicode="&#x147;" horiz-adv-x="796" 
d="M224 0h-154l83 667h134l307 -434l54 434h154l-82 -667h-134l-309 436zM485 844l132 93l66 -70l-206 -141l-171 141l64 70z" />
    <glyph glyph-name="ncaron" unicode="&#x148;" horiz-adv-x="567" 
d="M111 446l144.001 -0.000976562l-7 -49c16.667 17.333 35 31.333 55 42c24 12.667 53.333 19 88 19c51.333 0 90 -12.667 116 -38c25.333 -24.667 38 -60 38 -106c0 -19.333 -2.33301 -47.666 -7 -84.999l-27 -229h-144l24 193c4 30.667 6 54.667 6 72
c0 23.333 -6 41.333 -18 54c-12.667 12.667 -30.334 19 -53.001 19c-27.333 0 -49 -8 -65 -24c-18 -18.667 -29.667 -50 -35 -94l-26 -220h-144zM357.001 630.999l130 95l67 -68l-202 -143l-165 143l63 68z" />
    <glyph glyph-name="Omacron" unicode="&#x14c;" horiz-adv-x="810" 
d="M464 682c105.333 0 188.334 -29 249.001 -87c62.667 -60.667 94 -139.667 94 -237c0 -49.333 -8.66699 -98 -26 -146s-43 -89.333 -77 -124c-67.333 -68.667 -159.333 -103 -276 -103c-106.667 0 -191.334 31.667 -254.001 95c-62.667 64 -94 141.667 -94 233
c0 108.667 36.667 198 110 268c70.667 67.333 162 101 274 101zM458.001 540c-65.333 0 -118.334 -21.335 -159.001 -64.002s-61 -93.667 -61 -153c0 -57.333 18 -104 54 -140c36.667 -37.333 85.334 -56 146.001 -56c62 0 111.667 19 149 57
c41.333 42.667 62 97.334 62 164.001c0 58.667 -17.667 105.334 -53 140.001s-81.333 52 -138 52zM298 752.998l12 92h388l-12 -92h-388z" />
    <glyph glyph-name="omacron" unicode="&#x14d;" horiz-adv-x="592" 
d="M337 461c78.667 0 141 -23 187 -69c40 -40 60 -90.333 60 -151c0 -72.667 -24 -133.667 -72 -183c-48 -48.667 -116.333 -73 -205 -73c-80.667 0 -142.667 22.333 -186 67c-40.667 42 -61 94.333 -61 157c0 71.333 24 130 72 176c52 50.667 120.333 76 205 76zM315 107
c33.333 0 61.334 10.666 84.001 31.999c24.667 24 37 55.667 37 95c0 32.667 -10 58.334 -30 77.001s-46 28 -78 28c-30.667 0 -57.334 -10.333 -80.001 -31c-26.667 -24 -40 -55.667 -40 -95c0 -30 9.66699 -55.333 29 -76c18.667 -20 44.667 -30 78 -30zM167.001 542.999
l11 90h380l-11 -90h-380z" />
    <glyph glyph-name="Obreve" unicode="&#x14e;" horiz-adv-x="810" 
d="M464 682c105.333 0 188.334 -29 249.001 -87c62.667 -60.667 94 -139.667 94 -237c0 -49.333 -8.66699 -98 -26 -146s-43 -89.333 -77 -124c-67.333 -68.667 -159.333 -103 -276 -103c-106.667 0 -191.334 31.667 -254.001 95c-62.667 64 -94 141.667 -94 233
c0 108.667 36.667 198 110 268c70.667 67.333 162 101 274 101zM458.001 540c-65.333 0 -118.334 -21.335 -159.001 -64.002s-61 -93.667 -61 -153c0 -57.333 18 -104 54 -140c36.667 -37.333 85.334 -56 146.001 -56c62 0 111.667 19 149 57
c41.333 42.667 62 97.334 62 164.001c0 58.667 -17.667 105.334 -53 140.001s-81.333 52 -138 52zM563 873.998h96c-8 -44 -25 -79 -51 -105c-29.333 -29.333 -71.666 -44 -126.999 -44c-54 0 -95 14 -123 42c-27.333 27.333 -41.666 63 -42.999 107h96
c1.33301 -16.667 6.66602 -30.667 15.999 -42c12 -14 31 -21 57 -21c23.333 0 41.666 6 54.999 18c12.667 11.333 20.667 26.333 24 45z" />
    <glyph glyph-name="obreve" unicode="&#x14f;" horiz-adv-x="592" 
d="M337 461c78.667 0 141 -23 187 -69c40 -40 60 -90.333 60 -151c0 -72.667 -24 -133.667 -72 -183c-48 -48.667 -116.333 -73 -205 -73c-80.667 0 -142.667 22.333 -186 67c-40.667 42 -61 94.333 -61 157c0 71.333 24 130 72 176c52 50.667 120.333 76 205 76zM315 107
c33.333 0 61.334 10.666 84.001 31.999c24.667 24 37 55.667 37 95c0 32.667 -10 58.334 -30 77.001s-46 28 -78 28c-30.667 0 -57.334 -10.333 -80.001 -31c-26.667 -24 -40 -55.667 -40 -95c0 -30 9.66699 -55.333 29 -76c18.667 -20 44.667 -30 78 -30zM437.001 663.999
h93.999c-5.33301 -43.333 -21.666 -78 -48.999 -104c-29.333 -28.667 -71.333 -43 -126 -43c-55.333 0 -96.666 14 -123.999 42c-26 27.333 -39 62.333 -39 105h94c0 -16.667 5 -30.667 15 -42c11.333 -12.667 29.666 -19 54.999 -19c22.667 0 40.667 5.33301 54 16
c13.333 10 22 25 26 45z" />
    <glyph glyph-name="Ohungarumlaut" unicode="&#x150;" horiz-adv-x="810" 
d="M464 682c105.333 0 188.334 -29 249.001 -87c62.667 -60.667 94 -139.667 94 -237c0 -49.333 -8.66699 -98 -26 -146s-43 -89.333 -77 -124c-67.333 -68.667 -159.333 -103 -276 -103c-106.667 0 -191.334 31.667 -254.001 95c-62.667 64 -94 141.667 -94 233
c0 108.667 36.667 198 110 268c70.667 67.333 162 101 274 101zM458.001 540c-65.333 0 -118.334 -21.335 -159.001 -64.002s-61 -93.667 -61 -153c0 -57.333 18 -104 54 -140c36.667 -37.333 85.334 -56 146.001 -56c62 0 111.667 19 149 57
c41.333 42.667 62 97.334 62 164.001c0 58.667 -17.667 105.334 -53 140.001s-81.333 52 -138 52zM464 924.998l77 -66l-156 -135l-49 48zM650 924.998l78 -66l-156 -135l-50 48z" />
    <glyph glyph-name="ohungarumlaut" unicode="&#x151;" horiz-adv-x="592" 
d="M337 461c78.667 0 141 -23 187 -69c40 -40 60 -90.333 60 -151c0 -72.667 -24 -133.667 -72 -183c-48 -48.667 -116.333 -73 -205 -73c-80.667 0 -142.667 22.333 -186 67c-40.667 42 -61 94.333 -61 157c0 71.333 24 130 72 176c52 50.667 120.333 76 205 76zM315 107
c33.333 0 61.334 10.666 84.001 31.999c24.667 24 37 55.667 37 95c0 32.667 -10 58.334 -30 77.001s-46 28 -78 28c-30.667 0 -57.334 -10.333 -80.001 -31c-26.667 -24 -40 -55.667 -40 -95c0 -30 9.66699 -55.333 29 -76c18.667 -20 44.667 -30 78 -30zM327.001 709.999
l74 -66l-151 -135l-46 48zM507.001 708.999l75 -65l-151 -135l-47 48z" />
    <glyph glyph-name="OE" unicode="&#x152;" horiz-adv-x="1032" 
d="M1050 667l-15.998 -129.998h-223l-16 -131h207l-16 -128h-207l-18 -148h223l-16 -130h-362l10 83c-23.333 -28.667 -51.333 -51.334 -84 -68.001c-38 -19.333 -83.333 -29 -136 -29c-91.333 0 -165.333 27 -222 81c-62.667 59.333 -94 139.666 -94 240.999
c0 54.667 10.167 106.5 30.5 155.5s47.166 90.167 80.499 123.5c63.333 62.667 145.666 94 246.999 94c60.667 0 111 -11 151 -33c33.333 -18 61.333 -43.667 84 -77l12 96h365zM430.002 125.002c59.333 0 108 19.999 146 59.999c40.667 42 61 95.667 61 161
c0 58.667 -17.667 106.334 -53 143.001c-35.333 35.333 -80 53 -134 53c-59.333 0 -108 -19.667 -146 -59c-20 -20 -36 -45.333 -48 -76s-18 -61.667 -18 -93c0 -52.667 17 -97 51 -133c34.667 -37.333 81.667 -56 141 -56z" />
    <glyph glyph-name="oe" unicode="&#x153;" horiz-adv-x="903" 
d="M749 147l131 -8.99902c-16 -50.667 -42 -89 -78 -115c-36 -25.333 -84 -38 -144 -38c-88.667 0 -151.667 27.333 -189 82c-40.667 -54.667 -101 -82 -181 -82c-76 0 -134 21.667 -174 65c-36.667 39.333 -55 89 -55 149c0 80.667 28.333 147 85 199
c46.667 42 105.667 63 177 63c78 0 138.333 -24.333 181 -73c36 48.667 91.667 73 167 73c77.333 0 135.333 -18.333 174 -55c37.333 -35.333 56 -85 56 -149c0 -24.667 -1.66699 -45.334 -5 -62.001h-330c0 -30.667 8.66699 -54.667 26 -72c16 -17.333 41.333 -26 76 -26
c40 0 67.667 16.667 83 50zM327 339.001c-31.333 0 -58.333 -11.333 -81 -34c-26 -27.333 -39 -61.333 -39 -102c0 -28.667 9 -52 27 -70c17.333 -17.333 40 -26 68 -26c35.333 0 64 12 86 36c24 25.333 36 58.666 36 99.999c0 28.667 -8.33301 51.334 -25 68.001
c-18 18.667 -42 28 -72 28zM579 283.001h195.002c-4.66699 24 -15 42.667 -31 56c-16.667 13.333 -37.334 20 -62.001 20c-28.667 0 -52 -8.33301 -70 -25c-14.667 -14 -25.334 -31 -32.001 -51z" />
    <glyph glyph-name="Racute" unicode="&#x154;" horiz-adv-x="607" 
d="M152 667l208.999 0.000976562c38.667 0 72.167 -3.83301 100.5 -11.5s53.833 -23.834 76.5 -48.501c32 -33.333 48 -78.666 48 -135.999c0 -60.667 -18.333 -109.334 -55 -146.001c-29.333 -28 -64.666 -46 -105.999 -54l172 -271h-180l-161 263l-32 -263h-154z
M290.999 547.001l-23 -183h38c39.333 0 69.333 8 90 24c22.667 17.333 34 43.333 34 78c0 30 -10.667 51.667 -32 65c-16.667 10.667 -44.667 16 -84 16h-23zM462.999 925.001l86 -72l-180 -129l-59 53z" />
    <glyph glyph-name="racute" unicode="&#x155;" horiz-adv-x="384" 
d="M56 0l54.999 446h144l-13 -66c12.667 25.333 31.334 45 56.001 59c22.667 12 47.667 18 75 18c22 0 41.667 -2.33301 59 -7l-28 -134c-20 10 -41 15 -63 15c-30 0 -54.667 -9 -74 -27c-22 -20.667 -36.333 -58.667 -43 -114l-24 -190h-144zM354.999 715l86 -65l-169 -135
l-59 48z" />
    <glyph glyph-name="Rcommaaccent" unicode="&#x156;" horiz-adv-x="607" 
d="M152 667l208.999 0.000976562c38.667 0 72.167 -3.83301 100.5 -11.5s53.833 -23.834 76.5 -48.501c32 -33.333 48 -78.666 48 -135.999c0 -60.667 -18.333 -109.334 -55 -146.001c-29.333 -28 -64.666 -46 -105.999 -54l172 -271h-180l-161 263l-32 -263h-154z
M290.999 547.001l-23 -183h38c39.333 0 69.333 8 90 24c22.667 17.333 34 43.333 34 78c0 30 -10.667 51.667 -32 65c-16.667 10.667 -44.667 16 -84 16h-23zM199.999 -247.999l66 198l134 -16l-108 -194z" />
    <glyph glyph-name="rcommaaccent" unicode="&#x157;" horiz-adv-x="384" 
d="M56 0l54.999 446h144l-13 -66c12.667 25.333 31.334 45 56.001 59c22.667 12 47.667 18 75 18c22 0 41.667 -2.33301 59 -7l-28 -134c-20 10 -41 15 -63 15c-30 0 -54.667 -9 -74 -27c-22 -20.667 -36.333 -58.667 -43 -114l-24 -190h-144zM69.999 -238l66 188l134 -16
l-108 -184z" />
    <glyph glyph-name="Rcaron" unicode="&#x158;" horiz-adv-x="607" 
d="M152 667l208.999 0.000976562c38.667 0 72.167 -3.83301 100.5 -11.5s53.833 -23.834 76.5 -48.501c32 -33.333 48 -78.666 48 -135.999c0 -60.667 -18.333 -109.334 -55 -146.001c-29.333 -28 -64.666 -46 -105.999 -54l172 -271h-180l-161 263l-32 -263h-154z
M290.999 547.001l-23 -183h38c39.333 0 69.333 8 90 24c22.667 17.333 34 43.333 34 78c0 30 -10.667 51.667 -32 65c-16.667 10.667 -44.667 16 -84 16h-23zM370.999 844.001l132 93l66 -70l-206 -141l-171 141l64 70z" />
    <glyph glyph-name="rcaron" unicode="&#x159;" horiz-adv-x="384" 
d="M56 0l54.999 446h144l-13 -66c12.667 25.333 31.334 45 56.001 59c22.667 12 47.667 18 75 18c22 0 41.667 -2.33301 59 -7l-28 -134c-20 10 -41 15 -63 15c-30 0 -54.667 -9 -74 -27c-22 -20.667 -36.333 -58.667 -43 -114l-24 -190h-144zM266.999 631l130 95l67 -68
l-202 -143l-165 143l63 68z" />
    <glyph glyph-name="Sacute" unicode="&#x15a;" horiz-adv-x="550" 
d="M554 616l-77.0029 -112c-35.333 32 -72.666 48 -111.999 48c-28 0 -49 -5.66699 -63 -17c-15.333 -12 -23 -28 -23 -48c0 -18 7.66699 -33 23 -45c9.33301 -8 31 -19.667 65 -35l39 -18c38.667 -18 68 -39.333 88 -64c22.667 -28.667 34 -63.334 34 -104.001
c0 -69.333 -22.333 -126.333 -67 -171c-44 -43.333 -107.667 -65 -191 -65c-51.333 0 -95.666 10 -132.999 30c-31.333 17.333 -61 41 -89 71l86 110c15.333 -21.333 34 -39 56 -53c24 -14.667 50 -22 78 -22c30.667 0 55.334 7 74.001 21
c18.667 14.667 28 35.334 28 62.001c0 18 -6.33301 33.333 -19 46c-10 10 -27.667 20 -53 30l-39 16c-38 14 -69.333 33.667 -94 59c-29.333 30 -44 67.667 -44 113c0 60.667 20 111 60 151c42.667 42 102.667 63 180 63c72.667 0 137 -22 193 -66zM453.997 925l86 -72
l-180 -129l-59 53z" />
    <glyph glyph-name="sacute" unicode="&#x15b;" horiz-adv-x="434" 
d="M428 416l-60.998 -89.001c-26.667 20 -54.667 30 -84 30c-20 0 -34.333 -4 -43 -12c-6.66699 -5.33301 -10 -12.666 -10 -21.999c0 -10 4.66699 -18 14 -24c4 -2.66699 15.667 -6.66699 35 -12l33 -9c33.333 -9.33301 59 -23.333 77 -42c22 -22 33 -50.333 33 -85
c0 -45.333 -14 -82 -42 -110c-36 -37.333 -88.333 -56 -157 -56c-44.667 0 -83.334 7.33301 -116.001 22c-23.333 10.667 -46.333 26 -69 46l61 97c16.667 -16 35 -28.333 55 -37c23.333 -9.33301 44 -14 62 -14s32.667 3.33301 44 10c12 6.66699 18 16.334 18 29.001
c0 12 -4.66699 21.333 -14 28c-2.66699 2 -14.334 6.33301 -35.001 13l-32 10c-32.667 9.33301 -57.667 22.666 -75 39.999c-20 22 -30 48.667 -30 80c0 41.333 14 76 42 104c32.667 32 81.667 48 147 48c54.667 0 103.667 -15 147 -45zM355.002 714.999l86 -65l-169 -135
l-59 48z" />
    <glyph glyph-name="Scircumflex" unicode="&#x15c;" horiz-adv-x="550" 
d="M554 616l-77.0029 -112c-35.333 32 -72.666 48 -111.999 48c-28 0 -49 -5.66699 -63 -17c-15.333 -12 -23 -28 -23 -48c0 -18 7.66699 -33 23 -45c9.33301 -8 31 -19.667 65 -35l39 -18c38.667 -18 68 -39.333 88 -64c22.667 -28.667 34 -63.334 34 -104.001
c0 -69.333 -22.333 -126.333 -67 -171c-44 -43.333 -107.667 -65 -191 -65c-51.333 0 -95.666 10 -132.999 30c-31.333 17.333 -61 41 -89 71l86 110c15.333 -21.333 34 -39 56 -53c24 -14.667 50 -22 78 -22c30.667 0 55.334 7 74.001 21
c18.667 14.667 28 35.334 28 62.001c0 18 -6.33301 33.333 -19 46c-10 10 -27.667 20 -53 30l-39 16c-38 14 -69.333 33.667 -94 59c-29.333 30 -44 67.667 -44 113c0 60.667 20 111 60 151c42.667 42 102.667 63 180 63c72.667 0 137 -22 193 -66zM222.997 726l-64 71
l205 140l172 -140l-66 -71l-114 93z" />
    <glyph glyph-name="scircumflex" unicode="&#x15d;" horiz-adv-x="434" 
d="M428 416l-60.998 -89.001c-26.667 20 -54.667 30 -84 30c-20 0 -34.333 -4 -43 -12c-6.66699 -5.33301 -10 -12.666 -10 -21.999c0 -10 4.66699 -18 14 -24c4 -2.66699 15.667 -6.66699 35 -12l33 -9c33.333 -9.33301 59 -23.333 77 -42c22 -22 33 -50.333 33 -85
c0 -45.333 -14 -82 -42 -110c-36 -37.333 -88.333 -56 -157 -56c-44.667 0 -83.334 7.33301 -116.001 22c-23.333 10.667 -46.333 26 -69 46l61 97c16.667 -16 35 -28.333 55 -37c23.333 -9.33301 44 -14 62 -14s32.667 3.33301 44 10c12 6.66699 18 16.334 18 29.001
c0 12 -4.66699 21.333 -14 28c-2.66699 2 -14.334 6.33301 -35.001 13l-32 10c-32.667 9.33301 -57.667 22.666 -75 39.999c-20 22 -30 48.667 -30 80c0 41.333 14 76 42 104c32.667 32 81.667 48 147 48c54.667 0 103.667 -15 147 -45zM285.002 609.999l-131 -95l-62 69
l200 142l167 -142l-68 -69z" />
    <glyph glyph-name="Scedilla" unicode="&#x15e;" horiz-adv-x="550" 
d="M554 616l-77.0029 -112c-35.333 32 -72.666 48 -111.999 48c-28 0 -49 -5.66699 -63 -17c-15.333 -12 -23 -28 -23 -48c0 -18 7.66699 -33 23 -45c9.33301 -8 31 -19.667 65 -35l39 -18c38.667 -18 68 -39.333 88 -64c22.667 -28.667 34 -63.334 34 -104.001
c0 -69.333 -22.333 -126.333 -67 -171c-44 -43.333 -107.667 -65 -191 -65c-51.333 0 -95.666 10 -132.999 30c-31.333 17.333 -61 41 -89 71l86 110c15.333 -21.333 34 -39 56 -53c24 -14.667 50 -22 78 -22c30.667 0 55.334 7 74.001 21
c18.667 14.667 28 35.334 28 62.001c0 18 -6.33301 33.333 -19 46c-10 10 -27.667 20 -53 30l-39 16c-38 14 -69.333 33.667 -94 59c-29.333 30 -44 67.667 -44 113c0 60.667 20 111 60 151c42.667 42 102.667 63 180 63c72.667 0 137 -22 193 -66zM244.997 -46l100 -50
l-120 -140l-80 40z" />
    <glyph glyph-name="scedilla" unicode="&#x15f;" horiz-adv-x="434" 
d="M428 416l-60.998 -89.001c-26.667 20 -54.667 30 -84 30c-20 0 -34.333 -4 -43 -12c-6.66699 -5.33301 -10 -12.666 -10 -21.999c0 -10 4.66699 -18 14 -24c4 -2.66699 15.667 -6.66699 35 -12l33 -9c33.333 -9.33301 59 -23.333 77 -42c22 -22 33 -50.333 33 -85
c0 -45.333 -14 -82 -42 -110c-36 -37.333 -88.333 -56 -157 -56c-44.667 0 -83.334 7.33301 -116.001 22c-23.333 10.667 -46.333 26 -69 46l61 97c16.667 -16 35 -28.333 55 -37c23.333 -9.33301 44 -14 62 -14s32.667 3.33301 44 10c12 6.66699 18 16.334 18 29.001
c0 12 -4.66699 21.333 -14 28c-2.66699 2 -14.334 6.33301 -35.001 13l-32 10c-32.667 9.33301 -57.667 22.666 -75 39.999c-20 22 -30 48.667 -30 80c0 41.333 14 76 42 104c32.667 32 81.667 48 147 48c54.667 0 103.667 -15 147 -45zM200.002 -46.001l94 -51l-126 -139
l-74 40z" />
    <glyph glyph-name="Scaron" unicode="&#x160;" horiz-adv-x="550" 
d="M554 616l-77.0029 -112c-35.333 32 -72.666 48 -111.999 48c-28 0 -49 -5.66699 -63 -17c-15.333 -12 -23 -28 -23 -48c0 -18 7.66699 -33 23 -45c9.33301 -8 31 -19.667 65 -35l39 -18c38.667 -18 68 -39.333 88 -64c22.667 -28.667 34 -63.334 34 -104.001
c0 -69.333 -22.333 -126.333 -67 -171c-44 -43.333 -107.667 -65 -191 -65c-51.333 0 -95.666 10 -132.999 30c-31.333 17.333 -61 41 -89 71l86 110c15.333 -21.333 34 -39 56 -53c24 -14.667 50 -22 78 -22c30.667 0 55.334 7 74.001 21
c18.667 14.667 28 35.334 28 62.001c0 18 -6.33301 33.333 -19 46c-10 10 -27.667 20 -53 30l-39 16c-38 14 -69.333 33.667 -94 59c-29.333 30 -44 67.667 -44 113c0 60.667 20 111 60 151c42.667 42 102.667 63 180 63c72.667 0 137 -22 193 -66zM361.997 844l132 93
l66 -70l-206 -141l-171 141l64 70z" />
    <glyph glyph-name="scaron" unicode="&#x161;" horiz-adv-x="434" 
d="M428 416l-60.998 -89.001c-26.667 20 -54.667 30 -84 30c-20 0 -34.333 -4 -43 -12c-6.66699 -5.33301 -10 -12.666 -10 -21.999c0 -10 4.66699 -18 14 -24c4 -2.66699 15.667 -6.66699 35 -12l33 -9c33.333 -9.33301 59 -23.333 77 -42c22 -22 33 -50.333 33 -85
c0 -45.333 -14 -82 -42 -110c-36 -37.333 -88.333 -56 -157 -56c-44.667 0 -83.334 7.33301 -116.001 22c-23.333 10.667 -46.333 26 -69 46l61 97c16.667 -16 35 -28.333 55 -37c23.333 -9.33301 44 -14 62 -14s32.667 3.33301 44 10c12 6.66699 18 16.334 18 29.001
c0 12 -4.66699 21.333 -14 28c-2.66699 2 -14.334 6.33301 -35.001 13l-32 10c-32.667 9.33301 -57.667 22.666 -75 39.999c-20 22 -30 48.667 -30 80c0 41.333 14 76 42 104c32.667 32 81.667 48 147 48c54.667 0 103.667 -15 147 -45zM271.002 630.999l130 95l67 -68
l-202 -143l-165 143l63 68z" />
    <glyph glyph-name="Tcedilla" unicode="&#x162;" horiz-adv-x="460" 
d="M515 537h-145l-66 -537h-154l66 537h-145l16 130h444zM197 -46l100 -50l-120 -140l-80 40z" />
    <glyph glyph-name="tcedilla" unicode="&#x163;" horiz-adv-x="299" 
d="M334 330h-88l-41 -330h-144l41 330h-52l14 116h52l18 144h144l-18 -144h88zM106 -46l94 -51l-126 -139l-74 40z" />
    <glyph glyph-name="Tcaron" unicode="&#x164;" horiz-adv-x="460" 
d="M370 537h145l16 130h-444l-16 -130h145l-66 -537h154zM318 844l132 93l66 -70l-206 -141l-171 141l64 70z" />
    <glyph glyph-name="tcaron" unicode="&#x165;" horiz-adv-x="409" 
d="M334 330h-88l-41 -330h-144l41 330h-52l14 116h52l18 144h144l-18 -144h88zM303 492l82 208l130 -30l-124 -198z" />
    <glyph glyph-name="Utilde" unicode="&#x168;" horiz-adv-x="710" 
d="M151 667l154 -0.000976562l-44 -364c-3.33301 -23.333 -5 -42.666 -5 -57.999c0 -38 9.66699 -66.667 29 -86c21.333 -20 50.666 -30 87.999 -30c43.333 0 76 11 98 33s37 64.333 45 127l46 378h154l-48 -388c-4.66699 -36.667 -8.66699 -64.167 -12 -82.5
s-10.666 -41.5 -21.999 -69.5s-26.333 -51.333 -45 -70c-46.667 -48 -119.667 -72 -219 -72c-94.667 0 -165 23 -211 69c-39.333 38.667 -59 90 -59 154c0 22 2.66699 57 8 105zM589 866.999l65.002 -50.001c-12.667 -21.333 -28.334 -40.666 -47.001 -57.999
c-22.667 -20.667 -48.334 -31 -77.001 -31c-16 0 -36.667 5 -62 15l-33 13c-24.667 10 -42 15 -52 15c-20.667 0 -37.667 -13 -51 -39l-65 50c12.667 22.667 26 41 40 55c22.667 22.667 50 34 82 34c18.667 0 39.667 -4.66699 63 -14l34 -14
c21.333 -9.33301 38.333 -14 51 -14c20 0 37.333 12.667 52 38z" />
    <glyph glyph-name="utilde" unicode="&#x169;" horiz-adv-x="570" 
d="M423 446l143.998 -0.00195312l-28 -241c-2.66699 -22.667 -5.5 -41.5 -8.5 -56.5s-9.33301 -32.833 -19 -53.5s-22.167 -38.334 -37.5 -53.001c-39.333 -38 -97.666 -57 -174.999 -57c-80.667 0 -138.667 17 -174 51c-32 30 -48 70 -48 120c0 18.667 1.66699 39.667 5 63
l27 227h144l-26 -222c-3.33301 -31.333 -5 -47.666 -5 -48.999c0 -21.333 6.33301 -37.666 19 -48.999c14 -12.667 33.667 -19 59 -19c28 0 50 8.33301 66 25c14.667 14.667 24.334 41.334 29.001 80.001zM485.998 656.998l61.9971 -44c-11.333 -22.667 -26 -42.667 -44 -60
c-24 -22.667 -49.667 -34 -77 -34c-18 0 -39 5 -63 15l-32 13c-23.333 9.33301 -40 14 -50 14c-21.333 0 -38.666 -12.667 -51.999 -38l-59 44c10.667 25.333 24.334 46.333 41.001 63c20.667 20.667 46.334 31 77.001 31c19.333 0 42 -5.33301 68 -16l32 -13
c22 -8.66699 39.333 -13 52 -13c19.333 0 34.333 12.667 45 38z" />
    <glyph glyph-name="Umacron" unicode="&#x16a;" horiz-adv-x="710" 
d="M151 667l154 -0.000976562l-44 -364c-3.33301 -23.333 -5 -42.666 -5 -57.999c0 -38 9.66699 -66.667 29 -86c21.333 -20 50.666 -30 87.999 -30c43.333 0 76 11 98 33s37 64.333 45 127l46 378h154l-48 -388c-4.66699 -36.667 -8.66699 -64.167 -12 -82.5
s-10.666 -41.5 -21.999 -69.5s-26.333 -51.333 -45 -70c-46.667 -48 -119.667 -72 -219 -72c-94.667 0 -165 23 -211 69c-39.333 38.667 -59 90 -59 154c0 22 2.66699 57 8 105zM238 752.999l12 92h388l-12 -92h-388z" />
    <glyph glyph-name="umacron" unicode="&#x16b;" horiz-adv-x="570" 
d="M423 446l143.998 -0.00195312l-28 -241c-2.66699 -22.667 -5.5 -41.5 -8.5 -56.5s-9.33301 -32.833 -19 -53.5s-22.167 -38.334 -37.5 -53.001c-39.333 -38 -97.666 -57 -174.999 -57c-80.667 0 -138.667 17 -174 51c-32 30 -48 70 -48 120c0 18.667 1.66699 39.667 5 63
l27 227h144l-26 -222c-3.33301 -31.333 -5 -47.666 -5 -48.999c0 -21.333 6.33301 -37.666 19 -48.999c14 -12.667 33.667 -19 59 -19c28 0 50 8.33301 66 25c14.667 14.667 24.334 41.334 29.001 80.001zM146.998 542.998l11 90h380l-11 -90h-380z" />
    <glyph glyph-name="Ubreve" unicode="&#x16c;" horiz-adv-x="710" 
d="M151 667l154 -0.000976562l-44 -364c-3.33301 -23.333 -5 -42.666 -5 -57.999c0 -38 9.66699 -66.667 29 -86c21.333 -20 50.666 -30 87.999 -30c43.333 0 76 11 98 33s37 64.333 45 127l46 378h154l-48 -388c-4.66699 -36.667 -8.66699 -64.167 -12 -82.5
s-10.666 -41.5 -21.999 -69.5s-26.333 -51.333 -45 -70c-46.667 -48 -119.667 -72 -219 -72c-94.667 0 -165 23 -211 69c-39.333 38.667 -59 90 -59 154c0 22 2.66699 57 8 105zM523 873.999h96c-8 -44 -25 -79 -51 -105c-29.333 -29.333 -71.666 -44 -126.999 -44
c-54 0 -95 14 -123 42c-27.333 27.333 -41.666 63 -42.999 107h96c1.33301 -16.667 6.66602 -30.667 15.999 -42c12 -14 31 -21 57 -21c23.333 0 41.666 6 54.999 18c12.667 11.333 20.667 26.333 24 45z" />
    <glyph glyph-name="ubreve" unicode="&#x16d;" horiz-adv-x="570" 
d="M423 446l143.998 -0.00195312l-28 -241c-2.66699 -22.667 -5.5 -41.5 -8.5 -56.5s-9.33301 -32.833 -19 -53.5s-22.167 -38.334 -37.5 -53.001c-39.333 -38 -97.666 -57 -174.999 -57c-80.667 0 -138.667 17 -174 51c-32 30 -48 70 -48 120c0 18.667 1.66699 39.667 5 63
l27 227h144l-26 -222c-3.33301 -31.333 -5 -47.666 -5 -48.999c0 -21.333 6.33301 -37.666 19 -48.999c14 -12.667 33.667 -19 59 -19c28 0 50 8.33301 66 25c14.667 14.667 24.334 41.334 29.001 80.001zM431.998 663.998h93.999
c-5.33301 -43.333 -21.666 -78 -48.999 -104c-29.333 -28.667 -71.333 -43 -126 -43c-55.333 0 -96.666 14 -123.999 42c-26 27.333 -39 62.333 -39 105h94c0 -16.667 5 -30.667 15 -42c11.333 -12.667 29.666 -19 54.999 -19c22.667 0 40.667 5.33301 54 16
c13.333 10 22 25 26 45z" />
    <glyph glyph-name="Uring" unicode="&#x16e;" horiz-adv-x="710" 
d="M151 667l154 -0.000976562l-44 -364c-3.33301 -23.333 -5 -42.666 -5 -57.999c0 -38 9.66699 -66.667 29 -86c21.333 -20 50.666 -30 87.999 -30c43.333 0 76 11 98 33s37 64.333 45 127l46 378h154l-48 -388c-4.66699 -36.667 -8.66699 -64.167 -12 -82.5
s-10.666 -41.5 -21.999 -69.5s-26.333 -51.333 -45 -70c-46.667 -48 -119.667 -72 -219 -72c-94.667 0 -165 23 -211 69c-39.333 38.667 -59 90 -59 154c0 22 2.66699 57 8 105zM568 826.999c0 -26 -9 -48 -27 -66c-22.667 -21.333 -52.334 -32 -89.001 -32
s-66.334 10.667 -89.001 32c-18 18 -27 40 -27 66s9 48 27 66c22.667 21.333 52.334 32 89.001 32s66.334 -10.667 89.001 -32c18 -18 27 -40 27 -66zM452 865.999c-14.667 0 -26 -4 -34 -12s-12 -17 -12 -27s4 -19 12 -27s19.333 -12 34 -12s26 4 34 12s12 17 12 27
s-4 19 -12 27s-19.333 12 -34 12z" />
    <glyph glyph-name="uring" unicode="&#x16f;" horiz-adv-x="570" 
d="M423 446l143.998 -0.00195312l-28 -241c-2.66699 -22.667 -5.5 -41.5 -8.5 -56.5s-9.33301 -32.833 -19 -53.5s-22.167 -38.334 -37.5 -53.001c-39.333 -38 -97.666 -57 -174.999 -57c-80.667 0 -138.667 17 -174 51c-32 30 -48 70 -48 120c0 18.667 1.66699 39.667 5 63
l27 227h144l-26 -222c-3.33301 -31.333 -5 -47.666 -5 -48.999c0 -21.333 6.33301 -37.666 19 -48.999c14 -12.667 33.667 -19 59 -19c28 0 50 8.33301 66 25c14.667 14.667 24.334 41.334 29.001 80.001zM354.998 649.998c-12.667 0 -23 -3 -31 -9
c-8.66699 -7.33301 -13 -16.333 -13 -27s4.33301 -19.667 13 -27c8 -6 18.333 -9 31 -9s23 3 31 9c8.66699 7.33301 13 16.333 13 27s-4.33301 19.667 -13 27c-8 6 -18.333 9 -31 9zM468.998 613.998c0 -25.333 -9 -47 -27 -65c-22 -20.667 -51 -31 -87 -31
s-65 10.333 -87 31c-18 18 -27 39.667 -27 65s9 47 27 65c22 20.667 51 31 87 31s65 -10.333 87 -31c18 -18 27 -39.667 27 -65z" />
    <glyph glyph-name="Uhungarumlaut" unicode="&#x170;" horiz-adv-x="710" 
d="M151 667l154 -0.000976562l-44 -364c-3.33301 -23.333 -5 -42.666 -5 -57.999c0 -38 9.66699 -66.667 29 -86c21.333 -20 50.666 -30 87.999 -30c43.333 0 76 11 98 33s37 64.333 45 127l46 378h154l-48 -388c-4.66699 -36.667 -8.66699 -64.167 -12 -82.5
s-10.666 -41.5 -21.999 -69.5s-26.333 -51.333 -45 -70c-46.667 -48 -119.667 -72 -219 -72c-94.667 0 -165 23 -211 69c-39.333 38.667 -59 90 -59 154c0 22 2.66699 57 8 105zM420 924.999l77 -66l-156 -135l-49 48zM606 924.999l78 -66l-156 -135l-50 48z" />
    <glyph glyph-name="uhungarumlaut" unicode="&#x171;" horiz-adv-x="570" 
d="M423 446l143.998 -0.00195312l-28 -241c-2.66699 -22.667 -5.5 -41.5 -8.5 -56.5s-9.33301 -32.833 -19 -53.5s-22.167 -38.334 -37.5 -53.001c-39.333 -38 -97.666 -57 -174.999 -57c-80.667 0 -138.667 17 -174 51c-32 30 -48 70 -48 120c0 18.667 1.66699 39.667 5 63
l27 227h144l-26 -222c-3.33301 -31.333 -5 -47.666 -5 -48.999c0 -21.333 6.33301 -37.666 19 -48.999c14 -12.667 33.667 -19 59 -19c28 0 50 8.33301 66 25c14.667 14.667 24.334 41.334 29.001 80.001zM296.998 709.998l74 -66l-151 -135l-46 48zM476.998 708.998l75 -65
l-151 -135l-47 48z" />
    <glyph glyph-name="Uogonek" unicode="&#x172;" horiz-adv-x="710" 
d="M151 667l154.001 0.00195312l-44 -364c-3.33301 -23.333 -5 -42.666 -5 -57.999c0 -38 9.66699 -66.667 29 -86c20 -20 50.333 -30 91 -30c40 0 71.667 11 95 33c21.333 20.667 36.333 63 45 127l46 378h154l-48 -388c-4.66699 -34 -8.33398 -59.333 -11.001 -76
s-8.16699 -36.667 -16.5 -60s-19.166 -43 -32.499 -59c-20 -24.667 -54.333 -50 -103 -76c-38.667 -20.667 -63.334 -38 -74.001 -52c-10 -12.667 -15 -25.334 -15 -38.001c0 -10.667 3 -18.334 9 -23.001c6.66699 -6 15.667 -9 27 -9c16 0 32.667 5 50 15l-27 -77
c-20.667 -11.333 -42.667 -17 -66 -17c-26 0 -46.333 6.66699 -61 20c-15.333 13.333 -23 31.666 -23 54.999c0 19.333 6.66699 39.333 20 60c8.66699 13.333 21.667 28 39 44c-5.33301 -0.666992 -14.666 -1 -27.999 -1c-84.667 0 -150.334 23 -197.001 69
c-39.333 38.667 -59 90 -59 154c0 22 2.66699 57 8 105z" />
    <glyph glyph-name="uogonek" unicode="&#x173;" horiz-adv-x="570" 
d="M423 446l144 -0.00390625l-29 -247c-4.66699 -39.333 -11.667 -70.666 -21 -93.999s-25 -44.333 -47 -63c-16 -14 -39.167 -28.833 -69.5 -44.5s-49.833 -27.834 -58.5 -36.501c-12.667 -12 -19 -25.333 -19 -40c0 -9.33301 3.33301 -16.666 10 -21.999
c6 -6 14.667 -9 26 -9c20 0 37.333 5 52 15l-27 -77c-21.333 -11.333 -44 -17 -68 -17c-26 0 -45.667 6 -59 18c-15.333 14 -23 31 -23 51c0 22 6 41.667 18 59c9.33301 14 22.666 29 39.999 45c-75.333 0 -131 17.333 -167 52c-32 30 -48 70 -48 120
c0 18.667 1.66699 39.667 5 63l27 227h144l-26 -222c-3.33301 -31.333 -5 -47.666 -5 -48.999c0 -21.333 6.33301 -37.666 19 -48.999c14 -12.667 33.667 -19 59 -19c28 0 50 8.33301 66 25c14.667 14.667 24.334 41.334 29.001 80.001z" />
    <glyph glyph-name="Ydieresis" unicode="&#x178;" horiz-adv-x="632" 
d="M236 0l38 311l-195 356h176l109 -207l159 207h188l-283 -356l-38 -311h-154zM212 811c0 21.333 7.83301 39.833 23.5 55.5s34.167 23.5 55.5 23.5s39.833 -7.83301 55.5 -23.5s23.5 -34.167 23.5 -55.5s-7.83301 -39.833 -23.5 -55.5s-34.167 -23.5 -55.5 -23.5
s-39.833 7.83301 -55.5 23.5s-23.5 34.167 -23.5 55.5zM430 811c0 21.333 7.83301 39.833 23.5 55.5s34.167 23.5 55.5 23.5s39.833 -7.83301 55.5 -23.5s23.5 -34.167 23.5 -55.5s-7.83301 -39.833 -23.5 -55.5s-34.167 -23.5 -55.5 -23.5s-39.833 7.83301 -55.5 23.5
s-23.5 34.167 -23.5 55.5z" />
    <glyph glyph-name="Zacute" unicode="&#x179;" horiz-adv-x="616" 
d="M673 667l-381 -537h282l-16 -130h-539l382 537h-264l16 130h520zM487 925l86 -72l-180 -129l-59 53z" />
    <glyph glyph-name="zacute" unicode="&#x17a;" horiz-adv-x="499" 
d="M552 446l-281 -326h223l-17 -120h-477l282 326h-201l18 120h453zM399 715l86 -65l-169 -135l-59 48z" />
    <glyph glyph-name="Zdotaccent" unicode="&#x17b;" horiz-adv-x="616" 
d="M673 667l-381 -537h282l-16 -130h-539l382 537h-264l16 130h520zM310 815c0 24 8.16699 44.167 24.5 60.5s36.5 24.5 60.5 24.5s44.167 -8.16699 60.5 -24.5s24.5 -36.5 24.5 -60.5s-8.16699 -44.167 -24.5 -60.5s-36.5 -24.5 -60.5 -24.5s-44.167 8.16699 -60.5 24.5
s-24.5 36.5 -24.5 60.5z" />
    <glyph glyph-name="zdotaccent" unicode="&#x17c;" horiz-adv-x="499" 
d="M552 446l-281 -326h223l-17 -120h-477l282 326h-201l18 120h453zM236 603c0 23.333 8 43 24 59s35.667 24 59 24s43 -8 59 -24s24 -35.667 24 -59s-8 -43 -24 -59s-35.667 -24 -59 -24s-43 8 -59 24s-24 35.667 -24 59z" />
    <glyph glyph-name="Zcaron" unicode="&#x17d;" horiz-adv-x="616" 
d="M673 667l-381 -537h282l-16 -130h-539l382 537h-264l16 130h520zM400 844l132 93l66 -70l-206 -141l-171 141l64 70z" />
    <glyph glyph-name="zcaron" unicode="&#x17e;" horiz-adv-x="499" 
d="M552 446l-281 -326h223l-17 -120h-477l282 326h-201l18 120h453zM311 631l130 95l67 -68l-202 -143l-165 143l63 68z" />
    <glyph glyph-name="uni018F" unicode="&#x18f;" horiz-adv-x="765" 
d="M83 375l517.003 0.00195312c-4.66699 46 -20.334 84 -47.001 114c-30.667 34 -74 51 -130 51c-38 0 -70.667 -8 -98 -24c-24.667 -13.333 -45 -33.333 -61 -60l-148 51c32 54.667 71.667 96.667 119 126c51.333 32.667 114.666 49 189.999 49
c104 0 185.333 -28.333 244 -85c62 -59.333 93 -139.333 93 -240c0 -120.667 -35.667 -215.334 -107 -284.001c-60 -58.667 -140.667 -88 -242 -88c-100 0 -178.333 28.667 -235 86c-36.667 36.667 -63.334 82.667 -80.001 138s-21.667 110.666 -15 165.999z
M588.003 267.002l-351.002 0.000976562c2.66699 -22.667 9.33398 -43.834 20.001 -63.501s23.334 -35.167 38.001 -46.5c28.667 -22.667 65.667 -34 111 -34c48 0 87 11.333 117 34c34 26 55.667 62.667 65 110z" />
    <glyph glyph-name="florin" unicode="&#x192;" horiz-adv-x="600" 
d="M209 118l59.999 238.002h-68l21 90h69l29 115c13.333 55.333 36.333 98.666 69 129.999c33.333 32.667 77 49 131 49c34.667 0 67.334 -6.66699 98.001 -20l-32 -123c-16.667 11.333 -35 17 -55 17c-19.333 0 -35 -5.66699 -47 -17
c-14 -12.667 -25.333 -37.334 -34 -74.001l-19 -77h102l-22 -90h-102l-68 -268c-13.333 -53.333 -26.5 -95.166 -39.5 -125.499s-29.833 -56.5 -50.5 -78.5c-43.333 -45.333 -106.333 -68 -189 -68c-25.333 0 -47.333 2.33301 -66 7l32 128c13.333 -3.33301 27 -5 41 -5
c32.667 0 59 9.33301 79 28c14 12 25 28.667 33 50s17.333 52.666 28 93.999z" />
    <glyph glyph-name="uni01CF" unicode="&#x1cf;" horiz-adv-x="306" 
d="M155 667h154l-82 -667h-154zM241 844l132 93l66 -70l-206 -141l-171 141l64 70z" />
    <glyph glyph-name="uni01D0" unicode="&#x1d0;" horiz-adv-x="276" 
d="M121 446h144l-55 -446h-144zM210 639l104 87l64 -69l-177 -142l-141 142l67 69z" />
    <glyph glyph-name="uni01DD" unicode="&#x1dd;" horiz-adv-x="547" 
d="M61 255l333.998 0.00195312c0 33.333 -8.66699 58.666 -26 75.999c-15.333 15.333 -37 23 -65 23c-21.333 0 -39.666 -5.33301 -54.999 -16c-11.333 -8 -21.333 -19.667 -30 -35l-137 28c20.667 40 49 71 85 93c38.667 24.667 85.334 37 140.001 37
c71.333 0 128 -20 170 -60c41.333 -40 62 -93.333 62 -160c0 -80.667 -23.667 -144.667 -71 -192c-42 -42.667 -100.667 -64 -176 -64c-70.667 0 -126.334 20.667 -167.001 62c-49.333 49.333 -70.666 118.666 -63.999 207.999zM384.998 166.002h-189
c3.33301 -22.667 12 -40.667 26 -54c15.333 -15.333 37 -23 65 -23c26.667 0 47.667 6 63 18c17.333 13.333 29 33 35 59z" />
    <glyph glyph-name="Gcaron" unicode="&#x1e6;" horiz-adv-x="767" 
d="M432 241l15.001 122.999h312c-3.33301 -123.333 -37.666 -218.333 -102.999 -285c-60 -62.667 -142 -94 -246 -94c-103.333 0 -185 31.333 -245 94c-56.667 59.333 -85 136.333 -85 231c0 108.667 33.333 198.334 100 269.001c38.667 40 80 67.167 124 81.5
s93.667 21.5 149 21.5c75.333 0 138 -16.333 188 -49c42.667 -28 78.667 -68 108 -120l-142 -75c-14.667 32.667 -35.334 58 -62.001 76c-27.333 18.667 -61.333 28 -102 28c-58 0 -104.667 -18.667 -140 -56c-43.333 -45.333 -65 -102 -65 -170
c0 -60 18.333 -107.667 55 -143c32 -32 77.667 -48 137 -48c43.333 0 78.666 10 105.999 30c28 20 47 48.667 57 86h-161zM446.001 843.999l132 93l66 -70l-206 -141l-171 141l64 70z" />
    <glyph glyph-name="gcaron" unicode="&#x1e7;" horiz-adv-x="595" 
d="M440 392l5 53.999h144l-56 -448c-10 -73.333 -32.333 -127.333 -67 -162c-43.333 -43.333 -108.333 -65 -195 -65c-75.333 0 -133 18.667 -173 56c-34 33.333 -54.667 74 -62 122h154c4.66699 -18 13.667 -32.667 27 -44c14.667 -12 35.667 -18 63 -18
c34 0 60.333 11 79 33c16 18.667 26 46.334 30 83.001l6 48c-29.333 -42 -75 -63 -137 -63c-58 0 -104 17.667 -138 53c-40 41.333 -60 95.333 -60 162c0 78.667 24.333 143 73 193c42.667 43.333 96 65 160 65c60.667 0 109.667 -23 147 -69zM320 335.999
c-33.333 0 -59.666 -9.66699 -78.999 -29c-22 -22 -33 -52 -33 -90c0 -32.667 10 -58.667 30 -78c19.333 -18 43.333 -27 72 -27c33.333 0 59.666 9.66699 78.999 29c10.667 10 19.5 24.167 26.5 42.5s10.5 35.833 10.5 52.5c0 30.667 -9.66699 55 -29 73
c-18 18 -43.667 27 -77 27zM327 630.999l130 95l67 -68l-202 -143l-165 143l63 68z" />
    <glyph glyph-name="AEacute" unicode="&#x1fc;" horiz-adv-x="920" 
d="M526 0l-35 129h-255l-66 -129h-164l355 667h379l32 -130h-232l35 -129h230l34 -130h-231l41 -148h232l33 -130h-388zM295 247h168l-55 219zM629 925l86 -72l-180 -129l-59 53z" />
    <glyph glyph-name="aeacute" unicode="&#x1fd;" horiz-adv-x="840" 
d="M683 141l133.999 -8.99707c-17.333 -48.667 -46.333 -86.334 -87 -113.001c-36 -22.667 -81 -34 -135 -34c-45.333 0 -83 6.66699 -113 20c-27.333 12.667 -49.333 31 -66 55c-20 -26.667 -45 -46.334 -75 -59.001c-27.333 -10.667 -62.666 -16 -105.999 -16
c-62.667 0 -109 12 -139 36c-31.333 24.667 -47 59 -47 103c0 54 21 95 63 123c31.333 21.333 77 32 137 32c48.667 0 87.334 -9 116.001 -27c5.33301 37.333 -3.33398 64.666 -26.001 81.999c-16.667 14 -42.667 21 -78 21c-34 0 -72.333 -7.33301 -115 -22l13 110
c42.667 12 85 18 127 18c81.333 0 135.333 -25.667 162 -77c42 51.333 100 77 174 77c64.667 0 115.667 -18.667 153 -56c39.333 -39.333 59 -92.666 59 -159.999c0 -12.667 -1.33301 -28.334 -4 -47.001h-330c0 -34.667 8.66699 -61.667 26 -81
c15.333 -18 39.333 -27 72 -27c40 0 68.333 17 85 51zM267.999 192.003c-29.333 0 -51.667 -8.00098 -67 -24.001c-9.33301 -9.33301 -14 -20.666 -14 -33.999c0 -12 5 -22.667 15 -32c14 -12.667 34 -19 60 -19c29.333 0 52 6.66699 68 20c12 10.667 18 23.667 18 39
c0 10.667 -4.66699 20.667 -14 30c-15.333 13.333 -37.333 20 -66 20zM514.998 284.002h190.998c-5.33301 23.333 -15.333 42 -30 56c-15.333 14 -35.666 21 -60.999 21c-27.333 0 -49.333 -7.66699 -66 -23c-15.333 -13.333 -26.666 -31.333 -33.999 -54zM574.996 715.002
l86 -65l-169 -135l-59 48z" />
    <glyph glyph-name="Scommaaccent" unicode="&#x218;" horiz-adv-x="550" 
d="M554 616l-77.0029 -112c-35.333 32 -72.666 48 -111.999 48c-28 0 -49 -5.66699 -63 -17c-15.333 -12 -23 -28 -23 -48c0 -18 7.66699 -33 23 -45c9.33301 -8 31 -19.667 65 -35l39 -18c38.667 -18 68 -39.333 88 -64c22.667 -28.667 34 -63.334 34 -104.001
c0 -69.333 -22.333 -126.333 -67 -171c-44 -43.333 -107.667 -65 -191 -65c-51.333 0 -95.666 10 -132.999 30c-31.333 17.333 -61 41 -89 71l86 110c15.333 -21.333 34 -39 56 -53c24 -14.667 50 -22 78 -22c30.667 0 55.334 7 74.001 21
c18.667 14.667 28 35.334 28 62.001c0 18 -6.33301 33.333 -19 46c-10 10 -27.667 20 -53 30l-39 16c-38 14 -69.333 33.667 -94 59c-29.333 30 -44 67.667 -44 113c0 60.667 20 111 60 151c42.667 42 102.667 63 180 63c72.667 0 137 -22 193 -66zM159.997 -248l66 198
l134 -16l-108 -194z" />
    <glyph glyph-name="scommaaccent" unicode="&#x219;" horiz-adv-x="434" 
d="M428 416l-60.998 -89.001c-26.667 20 -54.667 30 -84 30c-20 0 -34.333 -4 -43 -12c-6.66699 -5.33301 -10 -12.666 -10 -21.999c0 -10 4.66699 -18 14 -24c4 -2.66699 15.667 -6.66699 35 -12l33 -9c33.333 -9.33301 59 -23.333 77 -42c22 -22 33 -50.333 33 -85
c0 -45.333 -14 -82 -42 -110c-36 -37.333 -88.333 -56 -157 -56c-44.667 0 -83.334 7.33301 -116.001 22c-23.333 10.667 -46.333 26 -69 46l61 97c16.667 -16 35 -28.333 55 -37c23.333 -9.33301 44 -14 62 -14s32.667 3.33301 44 10c12 6.66699 18 16.334 18 29.001
c0 12 -4.66699 21.333 -14 28c-2.66699 2 -14.334 6.33301 -35.001 13l-32 10c-32.667 9.33301 -57.667 22.666 -75 39.999c-20 22 -30 48.667 -30 80c0 41.333 14 76 42 104c32.667 32 81.667 48 147 48c54.667 0 103.667 -15 147 -45zM94.002 -238.001l66 188l134 -16
l-108 -184z" />
    <glyph glyph-name="Tcommaaccent" unicode="&#x21a;" horiz-adv-x="460" 
d="M515 537h-145l-66 -537h-154l66 537h-145l16 130h444zM90 -248l66 198l134 -16l-108 -194z" />
    <glyph glyph-name="tcommaaccent" unicode="&#x21b;" horiz-adv-x="299" 
d="M334 330h-88l-41 -330h-144l41 330h-52l14 116h52l18 144h144l-18 -144h88zM0 -238l66 188l134 -16l-108 -184z" />
    <glyph glyph-name="uni0228" unicode="&#x228;" horiz-adv-x="502" 
d="M520 667l-16 -130h-218l-16 -129h210l-16 -130h-210l-18 -148h222l-16 -130h-372l82 667h368zM226 -46l100 -50l-120 -140l-80 40z" />
    <glyph glyph-name="uni0229" unicode="&#x229;" horiz-adv-x="542" 
d="M218 283h181.002c-2.66699 24.667 -12.334 44 -29.001 58c-14.667 12 -34.334 18 -59.001 18c-27.333 0 -50 -9 -68 -27c-12.667 -14 -21 -30.333 -25 -49zM537.002 195l-332.999 0.000976562c-1.33301 -26 4.66699 -48.333 18 -67c15.333 -20.667 38.333 -31 69 -31
c24.667 0 43.667 4.33301 57 13c13.333 9.33301 23.666 22.666 30.999 39.999l145 -12c-19.333 -48 -46.333 -85 -81 -111c-37.333 -28 -88.333 -42 -153 -42c-76 0 -134 20 -174 60c-37.333 37.333 -56 89.333 -56 156c0 83.333 25.667 149.333 77 198
c44 41.333 103 62 177 62c72 0 127.667 -19 167 -57c26.667 -26 43.667 -58.5 51 -97.5s9 -76.167 5 -111.5zM262.003 -45.999l94 -51l-126 -139l-74 40z" />
    <glyph glyph-name="uni0237" unicode="&#x237;" horiz-adv-x="276" 
d="M120 446h144l-85 -675h-144z" />
    <glyph glyph-name="uni0259" unicode="&#x259;" horiz-adv-x="547" 
d="M61 255l333.998 0.00195312c0 33.333 -8.66699 58.666 -26 75.999c-15.333 15.333 -37 23 -65 23c-21.333 0 -39.666 -5.33301 -54.999 -16c-11.333 -8 -21.333 -19.667 -30 -35l-137 28c20.667 40 49 71 85 93c38.667 24.667 85.334 37 140.001 37
c71.333 0 128 -20 170 -60c41.333 -40 62 -93.333 62 -160c0 -80.667 -23.667 -144.667 -71 -192c-42 -42.667 -100.667 -64 -176 -64c-70.667 0 -126.334 20.667 -167.001 62c-49.333 49.333 -70.666 118.666 -63.999 207.999zM384.998 166.002h-189
c3.33301 -22.667 12 -40.667 26 -54c15.333 -15.333 37 -23 65 -23c26.667 0 47.667 6 63 18c17.333 13.333 29 33 35 59z" />
    <glyph glyph-name="afii57929" unicode="&#x2bc;" 
d="M113 492l82 208l130 -30l-124 -198z" />
    <glyph glyph-name="circumflex" unicode="&#x2c6;" 
d="M331 610l-131 -95l-62 69l200 142l167 -142l-68 -69z" />
    <glyph glyph-name="caron" unicode="&#x2c7;" 
d="M317 631l130 95l67 -68l-202 -143l-165 143l63 68z" />
    <glyph glyph-name="uni02C9" unicode="&#x2c9;" 
d="M127 543l11 90h380l-11 -90h-380z" />
    <glyph glyph-name="breve" unicode="&#x2d8;" 
d="M407 664h93.999c-5.33301 -43.333 -21.666 -78 -48.999 -104c-29.333 -28.667 -71.333 -43 -126 -43c-55.333 0 -96.666 14 -123.999 42c-26 27.333 -39 62.333 -39 105h94c0 -16.667 5 -30.667 15 -42c11.333 -12.667 29.666 -19 54.999 -19
c22.667 0 40.667 5.33301 54 16c13.333 10 22 25 26 45z" />
    <glyph glyph-name="dotaccent" unicode="&#x2d9;" 
d="M241 603c0 23.333 8 43 24 59s35.667 24 59 24s43 -8 59 -24s24 -35.667 24 -59s-8 -43 -24 -59s-35.667 -24 -59 -24s-43 8 -59 24s-24 35.667 -24 59z" />
    <glyph glyph-name="ring" unicode="&#x2da;" 
d="M325 650c-12.667 0 -23 -3 -31 -9c-8.66699 -7.33301 -13 -16.333 -13 -27s4.33301 -19.667 13 -27c8 -6 18.333 -9 31 -9s23 3 31 9c8.66699 7.33301 13 16.333 13 27s-4.33301 19.667 -13 27c-8 6 -18.333 9 -31 9zM439 614c0 -25.333 -9 -47 -27 -65
c-22 -20.667 -51 -31 -87 -31s-65 10.333 -87 31c-18 18 -27 39.667 -27 65s9 47 27 65c22 20.667 51 31 87 31s65 -10.333 87 -31c18 -18 27 -39.667 27 -65z" />
    <glyph glyph-name="ogonek" unicode="&#x2db;" horiz-adv-x="508" 
d="M370 -95l-27.001 -76.999c-21.333 -11.333 -44 -17 -68 -17c-26 0 -45.667 6 -59 18c-15.333 12.667 -23 29.667 -23 51c0 23.333 9.66699 47.333 29 72c12.667 16.667 27.334 32.667 44.001 48h66c-8 -8.66699 -18 -20.334 -30 -35.001c-13.333 -18 -20 -32.667 -20 -44
c0 -8.66699 3.33301 -16 10 -22s15.334 -9 26.001 -9c15.333 0 32.666 5 51.999 15z" />
    <glyph glyph-name="tilde" unicode="&#x2dc;" 
d="M449 657l61.9971 -44c-11.333 -22.667 -26 -42.667 -44 -60c-24 -22.667 -49.667 -34 -77 -34c-18 0 -39 5 -63 15l-32 13c-23.333 9.33301 -40 14 -50 14c-21.333 0 -38.666 -12.667 -51.999 -38l-59 44c10.667 25.333 24.334 46.333 41.001 63
c20.667 20.667 46.334 31 77.001 31c19.333 0 42 -5.33301 68 -16l32 -13c22 -8.66699 39.333 -13 52 -13c19.333 0 34.333 12.667 45 38z" />
    <glyph glyph-name="hungarumlaut" unicode="&#x2dd;" 
d="M297 710l74 -66l-151 -135l-46 48zM477 709l75 -65l-151 -135l-47 48z" />
    <glyph glyph-name="acutecomb" unicode="&#x301;" horiz-adv-x="2" 
d="M-175 715l86 -65l-169 -135l-59 48z" />
    <glyph glyph-name="uni0394" unicode="&#x394;" horiz-adv-x="669" 
d="M667 0h-633l247 667h136zM350 484l-129 -368h257z" />
    <glyph glyph-name="uni0394" unicode="&#x2206;" horiz-adv-x="669" 
d="M667 0h-633l247 667h136zM350 484l-129 -368h257z" />
    <glyph glyph-name="uni03A9" unicode="&#x3a9;" horiz-adv-x="688" 
d="M421 0l-0.00195312 108c42 18.667 74.667 50 98 94c22 41.333 33 89.666 33 144.999c0 73.333 -19.667 129 -59 167c-29.333 28 -65.666 42 -108.999 42s-79.666 -14 -108.999 -42c-39.333 -38 -59 -93.667 -59 -167c0 -55.333 11 -103.666 33 -144.999
c23.333 -44 56 -75.333 98 -94v-108h-268v116h133c-20 11.333 -38.667 25 -56 41c-53.333 52.667 -80 122 -80 208c0 94.667 29.333 171.334 88 230.001c58 58 131.333 87 220 87s162 -29 220 -87c58.667 -58.667 88 -135.334 88 -230.001c0 -86 -26.667 -155.333 -80 -208
c-17.333 -16 -36 -29.667 -56 -41h133v-116h-268z" />
    <glyph glyph-name="uni03A9" unicode="&#x2126;" horiz-adv-x="688" 
d="M421 0l-0.00195312 108c42 18.667 74.667 50 98 94c22 41.333 33 89.666 33 144.999c0 73.333 -19.667 129 -59 167c-29.333 28 -65.666 42 -108.999 42s-79.666 -14 -108.999 -42c-39.333 -38 -59 -93.667 -59 -167c0 -55.333 11 -103.666 33 -144.999
c23.333 -44 56 -75.333 98 -94v-108h-268v116h133c-20 11.333 -38.667 25 -56 41c-53.333 52.667 -80 122 -80 208c0 94.667 29.333 171.334 88 230.001c58 58 131.333 87 220 87s162 -29 220 -87c58.667 -58.667 88 -135.334 88 -230.001c0 -86 -26.667 -155.333 -80 -208
c-17.333 -16 -36 -29.667 -56 -41h133v-116h-268z" />
    <glyph glyph-name="pi" unicode="&#x3c0;" horiz-adv-x="676" 
d="M286 0h-144v330h-76v116h604v-116h-76v-330h-144v330h-164v-330z" />
    <glyph glyph-name="afii10023" unicode="&#x401;" horiz-adv-x="502" 
d="M171 799c0 20.667 7.16699 38.334 21.5 53.001s32.166 22 53.499 22s39.166 -7.33301 53.499 -22s21.5 -32.334 21.5 -53.001s-7.16699 -38.334 -21.5 -53.001s-32.166 -22 -53.499 -22s-39.166 7.33301 -53.499 22s-21.5 32.334 -21.5 53.001zM380 799
c0 20.667 7.33301 38.334 22 53.001s32.334 22 53.001 22s38.334 -7.33301 53.001 -22s22 -32.334 22 -53.001s-7.33301 -38.334 -22 -53.001s-32.334 -22 -53.001 -22s-38.334 7.33301 -53.001 22s-22 32.334 -22 53.001zM520 667l-16 -130h-218l-16 -129h210l-16 -130
h-210l-18 -148h222l-16 -130h-372l82 667h368z" />
    <glyph glyph-name="afii10051" unicode="&#x402;" horiz-adv-x="686" 
d="M135 0l65.999 537h-130l16 130h504l-16 -130h-220l-18 -145c36.667 15.333 74.334 23 113.001 23c74 0 130 -17 168 -51c6.66699 -6 14 -13.833 22 -23.5s16.667 -27 26 -52s14 -52.167 14 -81.5c0 -69.333 -22.667 -124 -68 -164c-38 -33.333 -94.667 -50 -170 -50
c-30 0 -58.333 2.66699 -85 8l14 121c22 -4.66699 41.333 -7 58 -7c31.333 0 54.333 7 69 21c16 16 24 38.667 24 68c0 26 -7 45.667 -21 59c-15.333 14.667 -39 22 -71 22c-36 0 -72.333 -7.66699 -109 -23l-32 -262h-154z" />
    <glyph glyph-name="afii10052" unicode="&#x403;" horiz-adv-x="473" 
d="M533 667l-16 -130h-227l-66 -537h-154l82 667h381zM444 925l86 -72l-180 -129l-59 53z" />
    <glyph glyph-name="afii10053" unicode="&#x404;" horiz-adv-x="623" 
d="M599 192l-20.999 -163.001c-42 -28.667 -100.333 -43 -175 -43c-97.333 0 -174.666 27.667 -231.999 83c-60.667 58.667 -91 135 -91 229c0 120 37.333 215.667 112 287c66.667 64 157 96 271 96c66.667 0 130 -15.667 190 -47l-20 -162c-49.333 46.667 -108 70 -176 70
c-54 0 -98.333 -13.333 -133 -40c-34.667 -27.333 -58.334 -61.666 -71.001 -102.999h274l-15 -124h-273c5.33301 -39.333 20.666 -72 45.999 -98c34 -34.667 83 -52 147 -52c65.333 0 121 22.333 167 67z" />
    <glyph glyph-name="afii10054" unicode="&#x405;" horiz-adv-x="550" 
d="M554 616l-77.0029 -112c-35.333 32 -72.666 48 -111.999 48c-28 0 -49 -5.66699 -63 -17c-15.333 -12 -23 -28 -23 -48c0 -18 7.66699 -33 23 -45c9.33301 -8 31 -19.667 65 -35l39 -18c38.667 -18 68 -39.333 88 -64c22.667 -28.667 34 -63.334 34 -104.001
c0 -69.333 -22.333 -126.333 -67 -171c-44 -43.333 -107.667 -65 -191 -65c-51.333 0 -95.666 10 -132.999 30c-31.333 17.333 -61 41 -89 71l86 110c15.333 -21.333 34 -39 56 -53c24 -14.667 50 -22 78 -22c30.667 0 55.334 7 74.001 21
c18.667 14.667 28 35.334 28 62.001c0 18 -6.33301 33.333 -19 46c-10 10 -27.667 20 -53 30l-39 16c-38 14 -69.333 33.667 -94 59c-29.333 30 -44 67.667 -44 113c0 60.667 20 111 60 151c42.667 42 102.667 63 180 63c72.667 0 137 -22 193 -66z" />
    <glyph glyph-name="afii10055" unicode="&#x406;" horiz-adv-x="306" 
d="M155 667h154l-82 -667h-154z" />
    <glyph glyph-name="afii10056" unicode="&#x407;" horiz-adv-x="337" 
d="M166 667h154l-82 -667h-154zM101 811c0 21.333 6.83301 39.833 20.5 55.5s30.167 23.5 49.5 23.5s35.833 -7.83301 49.5 -23.5s20.5 -34.167 20.5 -55.5s-6.83301 -39.833 -20.5 -55.5s-30.167 -23.5 -49.5 -23.5s-35.833 7.83301 -49.5 23.5s-20.5 34.167 -20.5 55.5z
M275 811c0 21.333 6.83301 39.833 20.5 55.5s30.167 23.5 49.5 23.5s35.833 -7.83301 49.5 -23.5s20.5 -34.167 20.5 -55.5s-6.83301 -39.833 -20.5 -55.5s-30.167 -23.5 -49.5 -23.5s-35.833 7.83301 -49.5 23.5s-20.5 34.167 -20.5 55.5z" />
    <glyph glyph-name="afii10057" unicode="&#x408;" horiz-adv-x="415" 
d="M267 667l153.998 -0.000976562l-56 -453c-8 -60.667 -19 -104.667 -33 -132c-9.33301 -18.667 -21 -34.667 -35 -48c-34 -32.667 -83.667 -49 -149 -49c-43.333 0 -78.666 8 -105.999 24s-49.666 38.667 -66.999 68l105 96c6 -16 14 -28.667 24 -38
c10.667 -9.33301 24 -14 40 -14c15.333 0 28.333 4.66699 39 14c14.667 12.667 24 38.334 28 77.001z" />
    <glyph glyph-name="afii10058" unicode="&#x409;" horiz-adv-x="984" 
d="M468 0l65.002 537h-181l-33 -268c-12.667 -102.667 -39.334 -175.334 -80.001 -218.001c-23.333 -24 -48.166 -39.833 -74.499 -47.5s-55.833 -11.5 -88.5 -11.5c-28.667 0 -53.334 3.33301 -74.001 10l17 138c13.333 -5.33301 27.666 -8 42.999 -8
c28 0 49.667 7.66699 65 23c18.667 18.667 32.667 65 42 139l46 373h488l-32 -261h95c70.667 0 125 -18.333 163 -55c32.667 -31.333 49 -74.666 49 -129.999c0 -68.667 -20.333 -122 -61 -160c-43.333 -40.667 -115.333 -61 -216 -61h-233zM656.002 283l-19.998 -160h64
c41.333 0 69.666 5 84.999 15c24.667 14.667 37 38.667 37 72c0 26 -9.66699 45.333 -29 58c-14.667 10 -40.334 15 -77.001 15h-60z" />
    <glyph glyph-name="afii10059" unicode="&#x40a;" horiz-adv-x="1005" 
d="M489 0l35 282.999h-264l-36 -283h-154l82 667h154l-31 -261h265l32 261h152l-32 -261h95c70.667 0 125 -18.333 163 -55c32.667 -31.333 49 -74.666 49 -129.999c0 -68.667 -20.333 -122 -61 -160c-43.333 -40.667 -115.333 -61 -216 -61h-233zM677 282.999l-19.998 -160
h64c41.333 0 69.666 5 84.999 15c24.667 14.667 37 38.667 37 72c0 26 -9.66699 45.333 -29 58c-14.667 10 -40.334 15 -77.001 15h-60z" />
    <glyph glyph-name="afii10060" unicode="&#x40b;" horiz-adv-x="722" 
d="M135 0l66 537.002h-130l16 130h504l-16 -130h-220l-16 -132c38.667 6.66699 76.667 10 114 10c84 0 146.333 -16 187 -48c38.667 -30 58 -71.667 58 -125c0 -4.66699 -0.333008 -11.167 -1 -19.5s-1.66699 -15.833 -3 -22.5l-1 -10l-24 -190h-154l20 163
c4.66699 17.333 5 36.166 1 56.499s-15.333 36.166 -34 47.499c-20 12 -50.667 18 -92 18c-23.333 0 -52.333 -2.66699 -87 -8l-34 -277h-154z" />
    <glyph glyph-name="afii10061" unicode="&#x40c;" horiz-adv-x="670" 
d="M306 667l-34 -279l244 279h184l-291 -323l247 -344h-194l-201 302l-37 -302h-154l82 667h154zM504 925l86 -72l-180 -129l-59 53z" />
    <glyph glyph-name="afii10062" unicode="&#x40e;" horiz-adv-x="622" 
d="M82 667h168l102 -308l172 308h170l-387 -667h-166l117 196zM482 886l110.999 -46.002c-36.667 -77.333 -106 -116 -208 -116c-54 0 -96.333 10 -127 30c-32 20.667 -55.333 49.334 -70 86.001l111 46c5.33301 -19.333 15.333 -34.666 30 -45.999
c16 -12 36.333 -18 61 -18c26.667 0 47.334 6.33301 62.001 19c12.667 10.667 22.667 25.667 30 45z" />
    <glyph glyph-name="afii10145" unicode="&#x40f;" horiz-adv-x="701" 
d="M70 0l82 667h154l-66 -537h247l66 537h154l-82 -667h-208l-20 -166h-138l20 166h-209z" />
    <glyph glyph-name="afii10017" unicode="&#x410;" horiz-adv-x="677" 
d="M517 0l-34 126h-252l-63 -126h-166l352 667h142l179 -667h-158zM289 244h166l-54 235z" />
    <glyph glyph-name="afii10018" unicode="&#x411;" horiz-adv-x="597" 
d="M70 0l81 667h412l-16 -130h-258l-16 -133h83c80 0 138.667 -19 176 -57c30 -31.333 45 -73 45 -125c0 -67.333 -20 -120 -60 -158c-44 -42.667 -114.333 -64 -211 -64h-236zM258 281l-19 -158.001h57c47.333 0 80.333 8.66699 99 26c16 14.667 24 34.334 24 59.001
c0 28 -9.33301 47.333 -28 58c-16 10 -42.667 15 -80 15h-53z" />
    <glyph glyph-name="afii10019" unicode="&#x412;" horiz-adv-x="594" 
d="M70 0l82 666.999h213c66.667 0 115.667 -15.333 147 -46c28.667 -27.333 43 -65.333 43 -114c0 -41.333 -10.333 -76 -31 -104c-18 -24.667 -41.333 -41.667 -70 -51c30 -7.33301 55.333 -20.666 76 -39.999c28.667 -28 43 -63.333 43 -106c0 -59.333 -18 -107 -54 -143
c-42 -42 -109 -63 -201 -63h-248zM291 546.999l-17.999 -151.001h31c39.333 0 67.666 8.33301 84.999 25c15.333 14 23 34 23 60c0 20.667 -7 37.334 -21 50.001c-13.333 10.667 -36 16 -68 16h-32zM259.001 281.998l-20.001 -162h56c48.667 0 82 8.33301 100 25
c16 14 24 35.333 24 64c0 21.333 -6 38 -18 50c-15.333 15.333 -42.666 23 -81.999 23h-60z" />
    <glyph glyph-name="afii10020" unicode="&#x413;" horiz-adv-x="473" 
d="M533 667l-16 -130h-227l-66 -537h-154l82 667h381z" />
    <glyph glyph-name="afii10021" unicode="&#x414;" horiz-adv-x="701" 
d="M221 667h477l-66 -539h75l-33 -278h-138l18 150h-409l-19 -150h-138l35 278c36 6 66.667 21 92 45c16 16 29.167 37.5 39.5 64.5s16.833 48.667 19.5 65s6 40.833 10 73.5zM351 539l-20 -168.001c-8.66699 -73.333 -18 -122.666 -28 -147.999
c-14.667 -38 -37 -69.667 -67 -95h244l49 411h-178z" />
    <glyph glyph-name="afii10022" unicode="&#x415;" horiz-adv-x="502" 
d="M520 667l-16 -130h-218l-16 -129h210l-16 -130h-210l-18 -148h222l-16 -130h-372l82 667h368z" />
    <glyph glyph-name="afii10024" unicode="&#x416;" horiz-adv-x="941" 
d="M390 0l37 299l-238 -299h-186l290 354l-190 313h172l162 -286l35 286h154l-35 -286l232 286h176l-274 -328l203 -339h-182l-165 299l-37 -299h-154z" />
    <glyph glyph-name="afii10025" unicode="&#x417;" horiz-adv-x="590" 
d="M188 492l-61.002 115c28 21.333 58.667 38.333 92 51c42 16 87.667 24 137 24c76 0 132.667 -18.667 170 -56c29.333 -29.333 44 -68 44 -116c0 -40 -10.667 -73.667 -32 -101c-19.333 -25.333 -44.333 -43.666 -75 -54.999c30.667 -11.333 54.334 -26.333 71.001 -45
c23.333 -26 35 -59 35 -99c0 -62 -21.333 -114.333 -64 -157c-45.333 -45.333 -111 -68 -197 -68c-66.667 0 -121.667 10.333 -165 31c-38 18 -72.333 43.667 -103 77l89 112c21.333 -24.667 44 -44.334 68 -59.001c28.667 -16.667 60.334 -25 95.001 -25
c36.667 0 65 8 85 24c18.667 14.667 28 35.334 28 62.001c0 27.333 -12.333 47.333 -37 60c-18 9.33301 -47 14 -87 14h-42l15 124h38c36 0 64.333 5.33301 85 16c25.333 12 38 32 38 60c0 22 -9.33301 39 -28 51c-14 9.33301 -35.333 14 -64 14c-28 0 -53 -5.33301 -75 -16
c-20 -8.66699 -40 -21.334 -60 -38.001z" />
    <glyph glyph-name="afii10026" unicode="&#x418;" horiz-adv-x="743" 
d="M152 667h154l-54 -432l361 432h136l-82 -667h-154l54 433l-360 -433h-137z" />
    <glyph glyph-name="afii10027" unicode="&#x419;" horiz-adv-x="743" 
d="M152 667h154l-54 -432l361 432h136l-82 -667h-154l54 433l-360 -433h-137zM569 886l110.999 -46.002c-36.667 -77.333 -106 -116 -208 -116c-54 0 -96.333 10 -127 30c-32 20.667 -55.333 49.334 -70 86.001l111 46c5.33301 -19.333 15.333 -34.666 30 -45.999
c16 -12 36.333 -18 61 -18c26.667 0 47.334 6.33301 62.001 19c12.667 10.667 22.667 25.667 30 45z" />
    <glyph glyph-name="afii10028" unicode="&#x41a;" horiz-adv-x="670" 
d="M306 667l-34 -279l244 279h184l-291 -323l247 -344h-194l-201 302l-37 -302h-154l82 667h154z" />
    <glyph glyph-name="afii10029" unicode="&#x41b;" horiz-adv-x="697" 
d="M215 667l488.002 0.000976562l-82 -667h-154l66 537h-181l-33 -268c-12.667 -102.667 -39.334 -175.334 -80.001 -218.001c-23.333 -24 -48.166 -39.833 -74.499 -47.5s-55.833 -11.5 -88.5 -11.5c-28.667 0 -53.334 3.33301 -74.001 10l17 138
c13.333 -5.33301 27.666 -8 42.999 -8c28 0 49.667 7.66699 65 23c18.667 18.667 32.667 65 42 139z" />
    <glyph glyph-name="afii10030" unicode="&#x41c;" horiz-adv-x="886" 
d="M196 0h-154l190 667h127l114 -399l216 399h131l24 -667h-154l-4 398l-213 -398h-58l-117 398z" />
    <glyph glyph-name="afii10031" unicode="&#x41d;" horiz-adv-x="720" 
d="M306 667l-31 -250h266l31 250h154l-82 -667h-154l35 287h-266l-35 -287h-154l82 667h154z" />
    <glyph glyph-name="afii10032" unicode="&#x41e;" horiz-adv-x="810" 
d="M464 682c105.333 0 188.334 -29 249.001 -87c62.667 -60.667 94 -139.667 94 -237c0 -49.333 -8.66699 -98 -26 -146s-43 -89.333 -77 -124c-67.333 -68.667 -159.333 -103 -276 -103c-106.667 0 -191.334 31.667 -254.001 95c-62.667 64 -94 141.667 -94 233
c0 108.667 36.667 198 110 268c70.667 67.333 162 101 274 101zM458.001 540c-65.333 0 -118.334 -21.335 -159.001 -64.002s-61 -93.667 -61 -153c0 -57.333 18 -104 54 -140c36.667 -37.333 85.334 -56 146.001 -56c62 0 111.667 19 149 57
c41.333 42.667 62 97.334 62 164.001c0 58.667 -17.667 105.334 -53 140.001s-81.333 52 -138 52z" />
    <glyph glyph-name="afii10033" unicode="&#x41f;" horiz-adv-x="707" 
d="M70 0l82 667h561l-82 -667h-154l67 537h-253l-67 -537h-154z" />
    <glyph glyph-name="afii10034" unicode="&#x420;" horiz-adv-x="572" 
d="M152 667h225c78 0 135.667 -18.667 173 -56c36 -36 54 -83.667 54 -143c0 -76.667 -21.667 -135 -65 -175c-42 -39.333 -108 -59 -198 -59h-88l-29 -234h-154zM291 541l-22.999 -181h55c45.333 0 77.666 9.66699 96.999 29c17.333 16.667 26 39.667 26 69
c0 24.667 -7.33301 44 -22 58c-17.333 16.667 -46.333 25 -87 25h-46z" />
    <glyph glyph-name="afii10035" unicode="&#x421;" horiz-adv-x="605" 
d="M587 187l-19.999 -165.999c-48 -24 -102 -36 -162 -36c-95.333 0 -173.666 29.667 -234.999 89c-60 60 -90 137 -90 231c0 111.333 35.333 202.333 106 273c69.333 69.333 158.333 104 267 104c71.333 0 134.333 -16 189 -48l-19 -163
c-44.667 44.667 -100.334 67 -167.001 67s-119.334 -21 -158.001 -63c-40 -42.667 -60 -95 -60 -157c0 -56.667 17.333 -102.334 52 -137.001s81.667 -52 141 -52c56 0 108 19.333 156 58z" />
    <glyph glyph-name="afii10036" unicode="&#x422;" horiz-adv-x="460" 
d="M515 537h-145l-66 -537h-154l66 537h-145l16 130h444z" />
    <glyph glyph-name="afii10037" unicode="&#x423;" horiz-adv-x="622" 
d="M82 667h168l102 -308l172 308h170l-387 -667h-166l117 196z" />
    <glyph glyph-name="afii10038" unicode="&#x424;" horiz-adv-x="852" 
d="M343 0l12 93c-86.667 0 -154 22.333 -202 67c-48.667 45.333 -73 106.333 -73 183c0 82 27 149 81 201c55.333 52 140.333 78 255 78h5l11 92h154l-12 -92h4c41.333 0 80.5 -7 117.5 -21s67.167 -32.667 90.5 -56c42 -42.667 63 -100.667 63 -174
c0 -86 -24.333 -152.667 -73 -200c-54 -52 -141 -78 -261 -78h-6l-12 -93h-154zM376 217l35.001 281h-6c-56.667 0 -99.334 -14.333 -128.001 -43s-43 -66.334 -43 -113.001c0 -37.333 12.333 -67.666 37 -90.999c25.333 -22.667 60.333 -34 105 -34zM553.001 498l-35 -281
h4c56 0 98.333 13 127 39c30.667 26.667 46 65 46 115c0 41.333 -12.333 73.333 -37 96c-22 20.667 -55.333 31 -100 31h-5z" />
    <glyph glyph-name="afii10039" unicode="&#x425;" horiz-adv-x="686" 
d="M7 0l289 354l-169 313h181l87 -190l133 190h189l-245 -313l201 -354h-181l-119 231l-177 -231h-189z" />
    <glyph glyph-name="afii10040" unicode="&#x426;" horiz-adv-x="728" 
d="M70 0l82 667h154l-66 -537h247l66 537h154l-66 -537h90l-34 -280h-138l18 150h-507z" />
    <glyph glyph-name="afii10041" unicode="&#x427;" horiz-adv-x="646" 
d="M416 0l32.999 266c-42 -6.66699 -81.333 -10 -118 -10c-75.333 0 -133 14 -173 42c-40 29.333 -60 70 -60 122c0 14 3.33301 46.333 10 97l19 150h154l-17 -135c-4 -33.333 -6 -53.333 -6 -60c0 -30 11 -51.667 33 -65c18 -11.333 47 -17 87 -17
c22.667 0 51.334 3 86.001 9l34 268h154l-82 -667h-154z" />
    <glyph glyph-name="afii10042" unicode="&#x428;" horiz-adv-x="986" 
d="M70 0l82 667h154l-66 -537h189l66 537h154l-66 -537h189l66 537h154l-82 -667h-840z" />
    <glyph glyph-name="afii10043" unicode="&#x429;" horiz-adv-x="1013" 
d="M865 0h-795l82 667h154l-66 -537h189l66 537h154l-66 -537h189l66 537h154l-66 -537h93l-34 -280h-138z" />
    <glyph glyph-name="afii10044" unicode="&#x42a;" horiz-adv-x="660" 
d="M142 0l66 537h-140l16 130h293l-32 -261h97c70.667 0 125 -18.333 163 -55c32.667 -31.333 49 -74.333 49 -129c0 -68 -20.333 -121.667 -61 -161c-43.333 -40.667 -115.333 -61 -216 -61h-235zM330 283l-19.998 -159.999h66c41.333 0 69.666 5 84.999 15
c24.667 14 37 37 37 69c0 27.333 -9.66699 47.666 -29 60.999c-14.667 10 -40.334 15 -77.001 15h-62z" />
    <glyph glyph-name="afii10045" unicode="&#x42b;" horiz-adv-x="847" 
d="M70 0l83 666.999h152l-32 -261h91c70.667 0 125 -18.333 163 -55c32.667 -31.333 49 -74.666 49 -129.999c0 -68.667 -20.333 -122.667 -61 -162c-24.667 -23.333 -54.5 -39 -89.5 -47s-77.167 -12 -126.5 -12h-229zM258 282.999l-19.998 -160h64
c41.333 0 69.666 5 84.999 15c24.667 14.667 37 38.667 37 72c0 26 -9.66699 45.333 -29 58c-14.667 10 -40.334 15 -77.001 15h-60zM696.002 666.999h154l-82 -667h-154z" />
    <glyph glyph-name="afii10046" unicode="&#x42c;" horiz-adv-x="586" 
d="M70 0l83 666.999h152l-32 -261h95c70.667 0 125 -18.333 163 -55c32.667 -31.333 49 -74.666 49 -129.999c0 -68.667 -20.333 -122 -61 -160c-43.333 -40.667 -115.333 -61 -216 -61h-233zM258 282.999l-19.998 -160h64c41.333 0 69.666 5 84.999 15
c24.667 14.667 37 38.667 37 72c0 26 -9.66699 45.333 -29 58c-14.667 10 -40.334 15 -77.001 15h-60z" />
    <glyph glyph-name="afii10047" unicode="&#x42d;" horiz-adv-x="623" 
d="M45 32l18.998 162.001c54 -46 116.667 -69 188 -69c50 0 91.667 12.333 125 37c36.667 27.333 59.334 65 68.001 113h-268l16 124h263c-6.66699 45.333 -26 81 -58 107c-29.333 24 -68.666 36 -117.999 36c-40.667 0 -77 -7.66699 -109 -23
c-18 -8.66699 -42.333 -24 -73 -46l20 165c62.667 29.333 126 44 190 44c97.333 0 174.333 -29 231 -87c54 -55.333 81 -132 81 -230c0 -120.667 -34.667 -216.334 -104 -287.001c-38 -38 -77.5 -63 -118.5 -75s-87.5 -18 -139.5 -18c-77.333 0 -148.333 15.667 -213 47z
" />
    <glyph glyph-name="afii10048" unicode="&#x42e;" horiz-adv-x="1058" 
d="M275 417h83.999c14.667 63.333 44 118 88 164c63.333 67.333 147.333 101 252 101c110 0 197 -30.667 261 -92c63.333 -60.667 95 -139.667 95 -237c0 -108.667 -34.333 -197.667 -103 -267c-37.333 -37.333 -77.5 -63.5 -120.5 -78.5s-92.167 -22.5 -147.5 -22.5
c-106.667 0 -189.667 31.667 -249 95c-53.333 56.667 -82.666 125.667 -87.999 207h-88l-35 -287h-154l82 667h154zM705.999 540c-58.667 0 -107.999 -19.334 -147.999 -58.001c-42 -42 -63 -94.667 -63 -158c0 -56.667 18 -103.667 54 -141
c37.333 -37.333 84.666 -56 141.999 -56c58 0 106 19 144 57c41.333 42 62 96.667 62 164c0 56.667 -18.333 103.334 -55 140.001c-34.667 34.667 -80 52 -136 52z" />
    <glyph glyph-name="afii10049" unicode="&#x42f;" horiz-adv-x="602" 
d="M608 667l-81.999 -666.999h-154l30 243h-16l-189 -243h-185l227 263c-37.333 8.66699 -67 25.667 -89 51c-25.333 29.333 -38 66.666 -38 111.999c0 73.333 23 132 69 176c45.333 43.333 111.666 65 198.999 65h228zM440.001 541.001h-45c-44 0 -75.667 -9 -95 -27
c-20 -18 -30 -41.667 -30 -71c0 -28.667 9.66699 -49.667 29 -63c17.333 -12.667 44.333 -19 81 -19h36z" />
    <glyph glyph-name="afii10065" unicode="&#x430;" horiz-adv-x="598" 
d="M444 392l3.99902 53.999h144l-55 -446h-144l11 51c-19.333 -22.667 -40.333 -39.334 -63 -50.001c-23.333 -10.667 -51 -16 -83 -16c-57.333 0 -103.333 18.333 -138 55c-40 42.667 -60 97.334 -60 164.001c0 78.667 24 142.667 72 192
c42.667 43.333 97.334 65 164.001 65c34.667 0 63.667 -5.66699 87 -17c24 -11.333 44.333 -28.666 61 -51.999zM326.999 336.999c-34.667 0 -62.998 -11 -84.998 -33c-22.667 -22.667 -34 -52.334 -34 -89.001c0 -30 9.66699 -55.333 29 -76
c19.333 -20 44.666 -30 75.999 -30c33.333 0 60.666 10 81.999 30c25.333 24.667 38 56.667 38 96c0 32.667 -10.333 58.334 -31 77.001c-18 16.667 -43 25 -75 25z" />
    <glyph glyph-name="afii10066" unicode="&#x431;" horiz-adv-x="601" 
d="M501 730l128.999 -0.000976562c-7.33301 -47.333 -27 -85.666 -59 -114.999c-25.333 -22.667 -65 -41.667 -119 -57l-71 -20c-54 -15.333 -94 -34.666 -120 -57.999c-24 -20.667 -40.333 -49.667 -49 -87h4c33.333 44.667 83.666 67 150.999 67
c74.667 0 132.667 -21.667 174 -65c34.667 -37.333 52 -87 52 -149c0 -77.333 -23.333 -140 -70 -188c-48 -48.667 -115.333 -73 -202 -73c-79.333 0 -141 23.333 -185 70c-42.667 45.333 -64 105 -64 179c0 58 9.66699 121 29 189s49.333 121 90 159
c38.667 36.667 93.334 62 164.001 76c51.333 10 86 18.667 104 26c12.667 5.33301 22.334 11.166 29.001 17.499s11 15.833 13 28.5zM321.999 108.999c36 0 65.001 11 87.001 33c24 24 36 54.333 36 91c0 32 -10 58 -30 78c-18 18 -42.667 27 -74 27
c-34.667 0 -62.334 -9.66699 -83.001 -29c-24.667 -22 -37 -53.667 -37 -95c0 -30.667 9 -55.667 27 -75c18 -20 42.667 -30 74 -30z" />
    <glyph glyph-name="afii10067" unicode="&#x432;" horiz-adv-x="502" 
d="M111 446l224.001 -0.00195312c45.333 0 79.666 -8.33301 102.999 -25c28.667 -20.667 43 -51 43 -91c0 -31.333 -8.66699 -55.666 -26 -72.999c-14 -14 -30.333 -22.667 -49 -26c24 -4.66699 43.333 -14 58 -28c17.333 -17.333 26 -40.666 26 -69.999
c0 -39.333 -12 -70.333 -36 -93c-27.333 -26.667 -70.333 -40 -129 -40h-269zM235.001 267.998h49c24 0 40.333 4 49 12c8 6.66699 12 17 12 31s-5.33301 24.667 -16 32c-8 4.66699 -21 7 -39 7h-45zM214.001 95.998h62c18.667 0 33.667 3.66699 45 11
c12.667 9.33301 19 22 19 38c0 14.667 -5.66699 25.667 -17 33c-8 5.33301 -22.667 8 -44 8h-55z" />
    <glyph glyph-name="afii10068" unicode="&#x433;" horiz-adv-x="366" 
d="M56 0l55 446h300l-14 -118h-156l-41 -328h-144z" />
    <glyph glyph-name="afii10069" unicode="&#x434;" horiz-adv-x="573" 
d="M158 446l398 0.000976562l-42 -336h65l-28 -236h-128l15 126h-306l-16 -126h-128l29 236c30.667 4.66699 55 16.667 73 36c22.667 23.333 38 65.666 46 126.999zM370 110.001l28.001 225.999h-120l-9 -84c-4 -36 -11.667 -66 -23 -90
c-10.667 -21.333 -24.334 -38.666 -41.001 -51.999h165z" />
    <glyph glyph-name="afii10070" unicode="&#x435;" horiz-adv-x="542" 
d="M218 283h181.002c-2.66699 24.667 -12.334 44 -29.001 58c-14.667 12 -34.334 18 -59.001 18c-27.333 0 -50 -9 -68 -27c-12.667 -14 -21 -30.333 -25 -49zM537.002 195l-332.999 0.000976562c-1.33301 -26 4.66699 -48.333 18 -67c15.333 -20.667 38.333 -31 69 -31
c24.667 0 43.667 4.33301 57 13c13.333 9.33301 23.666 22.666 30.999 39.999l145 -12c-19.333 -48 -46.333 -85 -81 -111c-37.333 -28 -88.333 -42 -153 -42c-76 0 -134 20 -174 60c-37.333 37.333 -56 89.333 -56 156c0 83.333 25.667 149.333 77 198
c44 41.333 103 62 177 62c72 0 127.667 -19 167 -57c26.667 -26 43.667 -58.5 51 -97.5s9 -76.167 5 -111.5z" />
    <glyph glyph-name="afii10072" unicode="&#x436;" horiz-adv-x="762" 
d="M366 446h140l-22 -179l149 179h169l-188 -213l141 -233h-171l-109 193l-24 -193h-140l24 193l-157 -193h-181l211 239l-128 207h159l105 -179z" />
    <glyph glyph-name="afii10073" unicode="&#x437;" horiz-adv-x="463" 
d="M129 311l-47.0029 96c25.333 16.667 51.333 29.334 78 38.001c32.667 10.667 69.334 16 110.001 16c51.333 0 93 -9.33301 125 -28c36 -23.333 54 -56.333 54 -99c0 -30 -10 -55 -30 -75c-11.333 -11.333 -26.666 -20.333 -45.999 -27c18.667 -4.66699 35.667 -14 51 -28
c18 -17.333 27 -40.333 27 -69c0 -50.667 -18.667 -89 -56 -115c-33.333 -23.333 -83 -35 -149 -35c-54 0 -98.333 7 -133 21c-29.333 11.333 -58.333 29 -87 53l67 93c19.333 -16.667 38.666 -29.334 57.999 -38.001c24.667 -11.333 50.334 -17 77.001 -17
c22.667 0 39.334 3 50.001 9c14 7.33301 21 18.333 21 33c0 16.667 -8 28 -24 34c-12.667 4.66699 -30 7 -52 7h-48l12 98h46c26.667 0 44 2 52 6c16 6 24 16.667 24 32c0 12 -6 21.333 -18 28c-10.667 6 -26 9 -46 9c-23.333 0 -45 -4.33301 -65 -13
c-22.667 -11.333 -39.667 -21 -51 -29z" />
    <glyph glyph-name="afii10074" unicode="&#x438;" horiz-adv-x="580" 
d="M111 446h144l-31 -253l219 253h134l-55 -446h-144l32 257l-220 -257h-134z" />
    <glyph glyph-name="afii10075" unicode="&#x439;" horiz-adv-x="580" 
d="M111 446h144l-31 -253l219 253h134l-55 -446h-144l32 257l-220 -257h-134zM444 662l101 -35.999c-13.333 -38 -36.666 -66.667 -69.999 -86c-30 -18 -69.667 -27 -119 -27c-48 0 -86.333 9.66699 -115 29c-30 20.667 -50.333 48.667 -61 84l101 36
c4.66699 -17.333 14 -32 28 -44c14 -11.333 31.667 -17 53 -17s38.666 5 51.999 15c14.667 11.333 24.667 26.666 30 45.999z" />
    <glyph glyph-name="afii10076" unicode="&#x43a;" horiz-adv-x="540" 
d="M56 0l55 446h144l-22 -177l168 177h179l-213 -213l171 -233h-186l-128 198l-24 -198h-144z" />
    <glyph glyph-name="afii10077" unicode="&#x43b;" horiz-adv-x="548" 
d="M545 446l-54.999 -446h-144l41 330h-116l-17 -133c-9.33301 -72.667 -28 -123.667 -56 -153c-30.667 -33.333 -75 -50 -133 -50c-20.667 0 -41.334 2.33301 -62.001 7l16 122c9.33301 -3.33301 19.666 -5 30.999 -5c18.667 0 33.334 5.33301 44.001 16
c11.333 11.333 19.333 34 24 68l30 244h397z" />
    <glyph glyph-name="afii10078" unicode="&#x43c;" horiz-adv-x="664" 
d="M24 0l133 446h110l85 -248l147 248h118l23 -446h-138l-7 237l-140 -237h-48l-80 237l-65 -237h-138z" />
    <glyph glyph-name="afii10079" unicode="&#x43d;" horiz-adv-x="561" 
d="M56 0l54 446h144l-19 -154h160l19 154h144l-54 -446h-144l22 176h-161l-21 -176h-144z" />
    <glyph glyph-name="afii10080" unicode="&#x43e;" horiz-adv-x="592" 
d="M337 461c78.667 0 141 -23 187 -69c40 -40 60 -90.333 60 -151c0 -72.667 -24 -133.667 -72 -183c-48 -48.667 -116.333 -73 -205 -73c-80.667 0 -142.667 22.333 -186 67c-40.667 42 -61 94.333 -61 157c0 71.333 24 130 72 176c52 50.667 120.333 76 205 76zM315 107
c33.333 0 61.334 10.666 84.001 31.999c24.667 24 37 55.667 37 95c0 32.667 -10 58.334 -30 77.001s-46 28 -78 28c-30.667 0 -57.334 -10.333 -80.001 -31c-26.667 -24 -40 -55.667 -40 -95c0 -30 9.66699 -55.333 29 -76c18.667 -20 44.667 -30 78 -30z" />
    <glyph glyph-name="afii10081" unicode="&#x43f;" horiz-adv-x="555" 
d="M56 0l54 446h442l-54 -446h-144l41 330h-155l-40 -330h-144z" />
    <glyph glyph-name="afii10082" unicode="&#x440;" horiz-adv-x="598" 
d="M210 55l-36 -283.999h-144l83 675h144l-8 -52c16 19.333 34.667 34.666 56 45.999c27.333 14 58 21 92 21c56 0 101 -16.333 135 -49c39.333 -39.333 59 -95 59 -167c0 -83.333 -25 -150 -75 -200c-40 -40 -90.333 -60 -151 -60c-40 0 -72.333 6.33301 -97 19
c-22.667 12 -42 29 -58 51zM341 337.001c-33.333 0 -61.332 -11.333 -83.999 -34c-24 -24 -36 -54 -36 -90c0 -30 9 -54.333 27 -73c19.333 -20.667 44.333 -31 75 -31c31.333 0 58 10.333 80 31c12 10.667 21.667 25.167 29 43.5s11 35.833 11 52.5
c0 31.333 -10.333 56.333 -31 75c-18.667 17.333 -42.334 26 -71.001 26z" />
    <glyph glyph-name="afii10083" unicode="&#x441;" horiz-adv-x="431" 
d="M445 432l-17 -131c-27.333 25.333 -60.666 38 -99.999 38c-35.333 0 -64.333 -11.333 -87 -34c-22 -24 -33 -53.667 -33 -89c0 -32.667 10.667 -59 32 -79c20.667 -20 46.667 -30 78 -30c34 0 64.333 12 91 36l-16 -132c-35.333 -17.333 -74.666 -26 -117.999 -26
c-64.667 0 -116.334 20.667 -155.001 62c-40 43.333 -60 97 -60 161c0 73.333 23.333 134 70 182c46 47.333 107.667 71 185 71c47.333 0 90.666 -9.66699 129.999 -29z" />
    <glyph glyph-name="afii10084" unicode="&#x442;" horiz-adv-x="400" 
d="M432 330h-120l-41 -330h-144l41 330h-120l14 116h384z" />
    <glyph glyph-name="afii10085" unicode="&#x443;" horiz-adv-x="583" 
d="M40 -229l184 286l-173 389h164l99 -244l150 244h169l-431 -675h-162z" />
    <glyph glyph-name="afii10086" unicode="&#x444;" horiz-adv-x="718" 
d="M400 -229h-143.998l29 222c-70.667 -0.666992 -127.334 21.666 -170.001 66.999c-36.667 38.667 -55 88 -55 148c0 58.667 17 110 51 154c28.667 36.667 64 62 106 76s83.333 20 124 18l27 211h144l-27 -211c69.333 -4 125 -26.333 167 -67
c38.667 -37.333 58 -87.666 58 -150.999c0 -71.333 -21.333 -129 -64 -173c-46.667 -48 -115.334 -72 -206.001 -72h-11zM333.002 337c-36.667 0 -67.333 -10.667 -92 -32c-26 -23.333 -39 -54.666 -39 -93.999c0 -30.667 10.667 -55.334 32 -74.001
c18 -16 42 -25.333 72 -28zM463.003 337l-27.001 -228c38.667 0 70.667 11 96 33c24 24 36 54.333 36 91c0 30.667 -9.66699 55.667 -29 75c-19.333 18 -44.666 27.667 -75.999 29z" />
    <glyph glyph-name="afii10087" unicode="&#x445;" horiz-adv-x="620" 
d="M632 446l-206 -205l184 -241h-182l-102 144l-131 -144h-192l234 241l-158 205h182l77 -115l102 115h192z" />
    <glyph glyph-name="afii10088" unicode="&#x446;" horiz-adv-x="575" 
d="M56 0l55 446h144l-41 -330h152l41 330h144l-41 -330h73l-29 -242h-128l15 126h-385z" />
    <glyph glyph-name="afii10089" unicode="&#x447;" horiz-adv-x="518" 
d="M316 0l19 156.002c-28 -8.66699 -58 -13 -90 -13c-62 0 -107.333 14 -136 42c-22 22 -33 51.667 -33 89c0 11.333 1.66699 29.666 5 54.999l14 117h140l-14 -107c-4 -32.667 1 -54.334 15 -65.001c12 -10 29.667 -15 53 -15c22 0 42 3.33301 60 10l22 177h144l-55 -446
h-144z" />
    <glyph glyph-name="afii10090" unicode="&#x448;" horiz-adv-x="804" 
d="M56 0l55 446h144l-41 -330h129l41 330h144l-41 -330h129l41 330h144l-55 -446h-690z" />
    <glyph glyph-name="afii10091" unicode="&#x449;" horiz-adv-x="827" 
d="M693 0h-637l55 446h144l-41 -330h130l41 330h144l-41 -330h130l41 330h144l-41 -330h73l-29 -242h-128z" />
    <glyph glyph-name="afii10092" unicode="&#x44a;" horiz-adv-x="552" 
d="M68 446h251.999l-19 -153h84c58 0 100.667 -14 128 -42c23.333 -23.333 35 -55 35 -95c0 -49.333 -14 -87.333 -42 -114c-31.333 -28 -81.666 -42 -150.999 -42h-233l41 329h-109zM277.999 102l57 0.000976562c22 0 37.667 3 47 9c13.333 8.66699 20 21.667 20 39
c0 13.333 -4.66699 23.666 -14 30.999c-9.33301 6.66699 -26 10 -50 10h-49z" />
    <glyph glyph-name="afii10093" unicode="&#x44b;" horiz-adv-x="703" 
d="M111 446h143.999l-19 -153h74c58 0 100.667 -14 128 -42c23.333 -23.333 35 -55 35 -95c0 -49.333 -14 -87.333 -42 -114c-31.333 -28 -81.666 -42 -150.999 -42h-224zM212.999 102l53 0.000976562c22 0 37.667 3 47 9c13.333 8.66699 20 21.667 20 39
c0 13.333 -4.66699 23.666 -14 30.999c-9.33301 6.66699 -26 10 -50 10h-45zM555.999 446.001h144l-55 -446h-144z" />
    <glyph glyph-name="afii10094" unicode="&#x44c;" horiz-adv-x="487" 
d="M111 446h143.999l-19 -153h84c58 0 100.667 -14 128 -42c23.333 -23.333 35 -55 35 -95c0 -49.333 -14 -87.333 -42 -114c-31.333 -28 -81.666 -42 -150.999 -42h-234zM212.999 102l57 0.000976562c22 0 37.667 3 47 9c13.333 8.66699 20 21.667 20 39
c0 13.333 -4.66699 23.666 -14 30.999c-9.33301 6.66699 -26 10 -50 10h-49z" />
    <glyph glyph-name="afii10095" unicode="&#x44d;" horiz-adv-x="460" 
d="M40 19l15.9971 128.001c39.333 -30.667 82.666 -46 129.999 -46c30 0 55 6.33301 75 19c21.333 13.333 35.333 32.333 42 57h-166l13 97h162c-7.33301 22 -20.666 39.333 -39.999 52s-43.666 19 -72.999 19c-43.333 0 -84.666 -14.333 -123.999 -43l16 132
c45.333 18 90.333 27 135 27c74.667 0 132.667 -21 174 -63c37.333 -38 56 -89.667 56 -155c0 -82.667 -24 -147.334 -72 -194.001c-43.333 -42.667 -106.666 -64 -189.999 -64c-58 0 -109.333 11.333 -154 34z" />
    <glyph glyph-name="afii10096" unicode="&#x44e;" horiz-adv-x="789" 
d="M233 292l54.001 -0.00195312c12.667 46.667 38 85.334 76 116.001c45.333 35.333 103 53 173 53c78 0 139.667 -23 185 -69c40 -40 60 -91.333 60 -154c0 -76 -24 -137.333 -72 -184c-46.667 -46 -111.334 -69 -194.001 -69c-76 0 -134 18 -174 54
c-38.667 34.667 -60.667 80.334 -66 137.001h-56l-21 -176h-142l54 446h142zM516.001 106.998c32.667 0 59.335 10 80.002 30c24.667 24 37 56.333 37 97c0 32.667 -9.33301 58.334 -28 77.001s-43.334 28 -74.001 28c-36 0 -63.667 -11 -83 -33
c-22.667 -24.667 -34 -55.667 -34 -93c0 -30.667 9.66699 -56.334 29 -77.001c19.333 -19.333 43.666 -29 72.999 -29z" />
    <glyph glyph-name="afii10097" unicode="&#x44f;" horiz-adv-x="492" 
d="M12 0l147.999 162.999c-25.333 7.33301 -45.666 18.333 -60.999 33c-20.667 20.667 -31 49.334 -31 86.001c0 41.333 11.667 76.333 35 105c34 39.333 92.667 59 176 59h210l-55 -446h-144l18 149h-10l-121 -149h-165zM318.999 242.999l12 101h-47
c-27.333 0 -46.333 -5.33301 -57 -16c-10 -10 -15 -23 -15 -39c0 -15.333 6.66699 -27.333 20 -36c8.66699 -6.66699 25.667 -10 51 -10h36z" />
    <glyph glyph-name="afii10071" unicode="&#x451;" horiz-adv-x="542" 
d="M218 283h181.002c-2.66699 24.667 -12.334 44 -29.001 58c-14.667 12 -34.334 18 -59.001 18c-27.333 0 -50 -9 -68 -27c-12.667 -14 -21 -30.333 -25 -49zM537.002 195l-332.999 0.000976562c-1.33301 -26 4.66699 -48.333 18 -67c15.333 -20.667 38.333 -31 69 -31
c24.667 0 43.667 4.33301 57 13c13.333 9.33301 23.666 22.666 30.999 39.999l145 -12c-19.333 -48 -46.333 -85 -81 -111c-37.333 -28 -88.333 -42 -153 -42c-76 0 -134 20 -174 60c-37.333 37.333 -56 89.333 -56 156c0 83.333 25.667 149.333 77 198
c44 41.333 103 62 177 62c72 0 127.667 -19 167 -57c38.667 -38 58 -94 58 -168c0 -11.333 -0.666992 -25 -2 -41zM352.003 600.001c0 22 7.5 40.5 22.5 55.5s33.5 22.5 55.5 22.5s40.5 -7.5 55.5 -22.5s22.5 -33.5 22.5 -55.5s-7.5 -40.5 -22.5 -55.5
s-33.5 -22.5 -55.5 -22.5s-40.5 7.5 -55.5 22.5s-22.5 33.5 -22.5 55.5zM138.003 600.001c0 22 7.5 40.5 22.5 55.5s33.5 22.5 55.5 22.5s40.5 -7.5 55.5 -22.5s22.5 -33.5 22.5 -55.5s-7.5 -40.5 -22.5 -55.5s-33.5 -22.5 -55.5 -22.5s-40.5 7.5 -55.5 22.5
s-22.5 33.5 -22.5 55.5z" />
    </font>
</defs>
</svg>
