<?xml version="1.0" standalone="no"?>
<!DOCTYPE svg PUBLIC "-//W3C//DTD SVG 1.1//EN" "http://www.w3.org/Graphics/SVG/1.1/DTD/svg11.dtd" >
<svg>
<metadata>
Created by FontForge 20090914 at Tue Aug  4 21:48:27 2020
 By www-data
Copyright &#194;&#169; 1995 ParaGraph Intl., &#194;&#169; 1998 ParaType Inc., ParaType Ltd. All rights reserved.
</metadata>
<defs>
<font id="FuturaPTCond-ExtraBoldObl" horiz-adv-x="500" >
  <font-face 
    font-family="Futura PT Cond Extra Bold Ital"
    font-weight="400"
    font-style="italic"
    font-stretch="condensed"
    units-per-em="1000"
    panose-1="2 11 10 6 2 2 4 9 2 3"
    ascent="763"
    descent="-237"
    x-height="467"
    cap-height="667"
    bbox="-272 -250.001 1024 930"
    underline-thickness="50"
    underline-position="-150"
    slope="-7"
    unicode-range="U+0020-U+FB02"
  />
<missing-glyph horiz-adv-x="233" 
 />
    <glyph glyph-name="afii10017.var.accented" unicode="&#x410;`" horiz-adv-x="524" 
d="M491 0h-183l-3 85h-119l-25 -85h-184l240 667h217zM300 305v86.999c0 0.666992 1 39 3 115c-2 -7.33301 -5.5 -21.833 -10.5 -43.5s-9.16699 -38.5 -12.5 -50.5l-24 -86c-12 -43.333 -21.667 -76.666 -29 -99.999h75c-1.33301 34.667 -2 60.667 -2 78zM459 867.999
l-105 -148h-98l65 148h138z" />
    <glyph glyph-name="afii10022.var.accented" unicode="&#x415;`" horiz-adv-x="405" 
d="M430 667l-20 -157h-152l-12 -97h137l-19 -151h-136l-13 -102h152l-19 -160h-330l82 667h330zM409 868l-105 -148h-98l65 148h138z" />
    <glyph glyph-name="afii10026.var.accented" unicode="&#x418;`" horiz-adv-x="557" 
d="M18 0l82 667h170l-23 -185c-9.33301 -78.667 -25 -153.667 -47 -225c30 70 60.667 135 92 195l115 215h158l-82 -667h-170l22 178c8 68 20.333 139.333 37 214c-18 -52.667 -47 -116 -87 -190l-109 -202h-158zM465 868l-105 -148h-98l65 148h138z" />
    <glyph glyph-name="afii10032.var.accented" unicode="&#x41e;`" horiz-adv-x="558" 
d="M337 679c57.333 0 104 -19 140 -57c46 -48 69 -117.333 69 -208c0 -64 -10.167 -129 -30.5 -195s-51.833 -119.667 -94.5 -161c-47.333 -46.667 -103 -70 -167 -70c-58 0 -106.667 20.667 -146 62c-46.667 48 -70 119 -70 213c0 77.333 11.5 145 34.5 203
s52.5 104.333 88.5 139c50 49.333 108.667 74 176 74zM315 511c-11.333 0 -23 -6.33398 -35 -19.001c-16.667 -18 -30.334 -48.333 -41.001 -91c-11.333 -44.667 -17 -91 -17 -139s7.33301 -79.333 22 -94c7.33301 -7.33301 16 -11 26 -11c12.667 0 23.667 5.33301 33 16
c18.667 20.667 33.334 53.667 44.001 99c10 40.667 15 85.334 15 134.001c0 51.333 -7.33301 83.333 -22 96c-6.66699 6 -15 9 -25 9zM486 867.999l-105 -148h-98l65 148h138z" />
    <glyph glyph-name="afii10037.var.accented" unicode="&#x423;`" 
d="M54 667h184l23 -109c10 -46.667 15.667 -93.667 17 -141c14.667 52 31 100.667 49 146l41 104h186l-318 -667h-177l108 230zM437 868l-105 -148h-98l65 148h138z" />
    <glyph glyph-name="afii10045.var.accented" unicode="&#x42b;`" horiz-adv-x="751" 
d="M674 0h-177l79 667h183zM220 0h-202l82 667h177l-30 -245h8c78.667 0 136.667 -18.333 174 -55c34.667 -33.333 52 -77 52 -131c0 -70 -21.667 -126.667 -65 -170c-44.667 -44 -110 -66 -196 -66zM229 278l-15.999 -133c29.333 -4 53.666 4 72.999 24c12 12 18 29 18 51
c0 20 -6.66699 35.333 -20 46c-14.667 11.333 -33 15.333 -55 12zM562.001 868l-105 -148h-98l65 148h138z" />
    <glyph glyph-name="afii10047.var.accented" unicode="&#x42d;`" horiz-adv-x="496" 
d="M40 29l10.9961 193.001c10.667 -16.667 25 -31.334 43 -44.001c19.333 -13.333 41.333 -20 66 -20c30 0 55.667 9.33301 77 28c20.667 18.667 34 43.667 40 75h-151l19 151h150c-4.66699 32 -16.667 56.667 -36 74s-44.666 26 -75.999 26
c-21.333 0 -41.666 -5.33301 -60.999 -16c-16 -9.33301 -30.667 -21 -44 -35l24 188c36.667 20 75.667 30 117 30c76.667 0 138 -23 184 -69c24.667 -24.667 44.334 -57.167 59.001 -97.5s22 -84.5 22 -132.5c0 -58 -10.167 -116.667 -30.5 -176
s-51.166 -108.333 -92.499 -147c-48.667 -46 -109.667 -69 -183 -69c-26.667 0 -49.667 3.16699 -69 9.5s-42.333 16.833 -69 31.5zM387.996 868.001l-105 -148h-98l65 148h138z" />
    <glyph glyph-name="afii10048.var.accented" unicode="&#x42e;`" horiz-adv-x="810" 
d="M247 425l69 -0.000976562c16 72.667 48.333 133.334 97 182.001c48.667 48 106.667 72 174 72c58.667 0 106 -19 142 -57c46 -48 69 -117.333 69 -208c0 -64.667 -10.167 -129.834 -30.5 -195.501s-51.833 -119.5 -94.5 -161.5c-46 -46 -103.333 -69 -172 -69
c-56 0 -101.667 17.667 -137 53c-46.667 46.667 -70 122.334 -70 227.001h-66l-33 -268h-177l82 667h177zM567 510.999c-11.333 0 -23 -6.33398 -35 -19.001c-16.667 -18 -30.334 -48.333 -41.001 -91c-11.333 -44.667 -17 -91 -17 -139s7.33301 -79.333 22 -94
c7.33301 -7.33301 16 -11 26 -11c12.667 0 23.667 5.33301 33 16c18.667 20.667 33.334 53.667 44.001 99c10 40.667 15 85.334 15 134.001c0 51.333 -7.33301 83.333 -22 96c-6.66699 6 -15 9 -25 9zM602 867.998l-105 -148h-98l65 148h138z" />
    <glyph glyph-name="afii10049.var.accented" unicode="&#x42f;`" horiz-adv-x="541" 
d="M0 0l155 269.001c-27.333 12 -48.333 28.667 -63 50c-18.667 26.667 -28 60.667 -28 102c0 71.333 21 128.666 63 171.999c48.667 49.333 132 74 250 74h172l-82 -667h-177l19 147c8 60.667 14 100.667 18 120l-128 -267h-199zM334 358.001l19 159.001
c-28.667 3.33301 -52 -3.33398 -70 -20.001c-18.667 -16 -28 -39.333 -28 -70c0 -20 6.33301 -36.333 19 -49c14.667 -13.333 32.667 -20 54 -20h6zM497 868.002l-105 -148h-98l65 148h138z" />
    <glyph glyph-name="afii10023.var.accented" unicode="&#x401;`" horiz-adv-x="405" 
d="M430 667l-20 -157h-152l-12 -97h137l-19 -151h-136l-13 -102h152l-19 -160h-330l82 667h330zM357 847l-85 -124l-73 12l59 133zM206 799c0 -1.33301 -1.33301 -7.33398 -4 -18.001c-5.33301 -13.333 -14.333 -24.5 -27 -33.5s-26.334 -13.5 -41.001 -13.5
c-16.667 0 -30.5 5.5 -41.5 16.5s-16.5 24.833 -16.5 41.5c0 18.667 7.33301 35.334 22 50.001s31.667 22 51 22c18.667 0 32.834 -6 42.501 -18s14.5 -27.667 14.5 -47zM483 805.999c0 -18.667 -7.33105 -35.332 -21.998 -49.999s-31.667 -22 -51 -22
c-16.667 0 -30.334 5.5 -41.001 16.5s-16 24.833 -16 41.5c0 19.333 7.16699 36.166 21.5 50.499s31.166 21.5 50.499 21.5c16.667 0 30.5 -5.5 41.5 -16.5s16.5 -24.833 16.5 -41.5z" />
    <glyph glyph-name="afii10065.var.accented" unicode="&#x430;`" horiz-adv-x="489" 
d="M479 467l-57 -467.005h-171c2 8.66699 4.66699 21.834 8 39.501s5.66602 30.834 6.99902 39.501c-35.333 -59.333 -78.666 -89 -129.999 -89c-22 0 -40.833 5.66699 -56.5 17s-27.334 26.333 -35.001 45s-13.167 37.334 -16.5 56.001s-5 38.334 -5 59.001
c0 46 4.66699 88.667 14 128c5.33301 22 12.333 43 21 63s19.5 39.333 32.5 58s29.167 33.5 48.5 44.5s40.333 16.5 63 16.5c26.667 0 47.334 -7.16699 62.001 -21.5s27 -35.166 37 -62.499c0 8 0.5 20.167 1.5 36.5s1.83301 28.833 2.5 37.5h174zM282 287.995
c0 30.667 -9.33301 46 -28 46c-20.667 0 -35.667 -17 -45 -51s-14 -65.667 -14 -95c0 -36.667 10.333 -55 31 -55c20 0 34.333 18.167 43 54.5s13 69.833 13 100.5zM431 677.995l-105 -148h-98l65 148h138z" />
    <glyph glyph-name="afii10070.var.accented" unicode="&#x435;`" horiz-adv-x="474" 
d="M266 157h166c-17.333 -53.333 -45.333 -94.5 -84 -123.5s-85.667 -43.5 -141 -43.5c-59.333 0 -104.833 17 -136.5 51s-47.5 80.667 -47.5 140c0 77.333 22.667 145.833 68 205.5s105.333 89.5 180 89.5c58 0 102.5 -18.5 133.5 -55.5s46.5 -85.167 46.5 -144.5
c0 -18 -2.66699 -44.333 -8 -79h-250c-0.666992 -4 -1 -10.333 -1 -19c0 -35.333 10.667 -53 32 -53c20.667 0 34.667 10.667 42 32zM207 290h79c0 1.33301 0.166992 3.33301 0.5 6s0.5 4.66699 0.5 6c0 31.333 -11.333 47 -34 47c-13.333 0 -23.833 -6 -31.5 -18
s-12.5 -25.667 -14.5 -41zM423 678l-105 -148h-98l65 148h138z" />
    <glyph glyph-name="afii10074.var.accented" unicode="&#x438;`" horiz-adv-x="504" 
d="M68 467h165.999l-16 -131c-4.66699 -39.333 -12 -80.333 -22 -123c16 35.333 31.333 65.333 46 90l94 164h158l-57 -467h-166l15 125c2.66699 23.333 10 66.333 22 129c-15.333 -36.667 -30.666 -68 -45.999 -94l-93 -160h-158zM438.999 678l-105 -148h-98l65 148h138z
" />
    <glyph glyph-name="afii10080.var.accented" unicode="&#x43e;`" horiz-adv-x="480" 
d="M270 477c54.667 0 98.334 -15.667 131.001 -47c36.667 -35.333 55 -86 55 -152c0 -44 -7.33301 -86.167 -22 -126.5s-35.334 -73.5 -62.001 -99.5c-42.667 -41.333 -97.334 -62 -164.001 -62c-52.667 0 -95 14.667 -127 44c-38 34.667 -57 86.667 -57 156
c0 91.333 28.333 165.333 85 222c44.667 43.333 98.334 65 161.001 65zM254 346c-8.66699 0 -16.6689 -3.66699 -24.002 -11c-12 -12 -21.667 -32.167 -29 -60.5s-11 -54.833 -11 -79.5s3.66699 -43.667 11 -57c6.66699 -11.333 15.334 -17 26.001 -17c10 0 18.333 4 25 12
c12.667 12.667 22.334 33 29.001 61s10 54.333 10 79c0 23.333 -3.66699 42 -11 56c-5.33301 11.333 -14 17 -26 17zM426.998 678l-105 -148h-98l65 148h138z" />
    <glyph glyph-name="afii10085.var.accented" unicode="&#x443;`" horiz-adv-x="458" 
d="M487 467l-301 -682.001h-176l110 234l-82 448h172c1.33301 -12 3.66602 -31 6.99902 -57s5.83301 -46.5 7.5 -61.5s3.33398 -33.5 5.00098 -55.5s2.5 -42.333 2.5 -61c0 -3.33301 -0.166992 -8.33301 -0.5 -15s-0.5 -11.667 -0.5 -15c24 88.667 40 143.334 48 164.001
l38 101h170zM411 677.999l-105 -148h-98l65 148h138z" />
    <glyph glyph-name="afii10093.var.accented" unicode="&#x44b;`" horiz-adv-x="694" 
d="M626 0h-172l57 467h172zM219 301h49c58 0 101.667 -12 131 -36c28.667 -24 43 -57.333 43 -100c0 -50 -15 -89.667 -45 -119c-32 -30.667 -78.333 -46 -139 -46h-248l57 467h172zM196 110h5c24 0 40.667 2.33301 50 7c14 7.33301 21 20 21 38c0 9.33301 -3 17.333 -9 24
c-8.66699 9.33301 -25.667 14 -51 14h-6zM524 678l-105 -148h-98l65 148h138z" />
    <glyph glyph-name="afii10095.var.accented" unicode="&#x44d;`" horiz-adv-x="389" 
d="M20 22l17.001 133.001c19.333 -22 44.333 -33 75 -33c22 0 39.667 5 53 15c14.667 12 23.667 27 27 45h-107l13 104h103c-3.33301 20 -12 35 -26 45c-12 9.33301 -29 14 -51 14c-24.667 0 -47.334 -7.66699 -68.001 -23l17 135c30.667 13.333 62.334 20 95.001 20
c60 0 107.333 -18 142 -54c36.667 -38 55 -92 55 -162c0 -34 -5.83301 -70.333 -17.5 -109s-31.5 -72.334 -59.5 -101.001c-38.667 -40.667 -89.334 -61 -152.001 -61c-45.333 0 -84 10.667 -116 32zM331.001 678.001l-105 -148h-98l65 148h138z" />
    <glyph glyph-name="afii10096.var.accented" unicode="&#x44e;`" horiz-adv-x="706" 
d="M217 306l55.001 -0.000976562c11.333 49.333 36.666 90 75.999 122c40 32.667 88 49 144 49c56.667 0 101.667 -16 135 -48c36.667 -36 55 -87 55 -153c0 -45.333 -7.33301 -88 -22 -128s-35.334 -73 -62.001 -99c-41.333 -39.333 -96 -59 -164 -59
c-56 0 -99.333 16.333 -130 49c-31.333 32.667 -47.666 76.334 -48.999 131.001h-56l-20 -170h-168l57 467h168zM480.001 345.999c-8.66699 0 -16.6689 -3.66699 -24.002 -11c-12 -12 -21.667 -32.167 -29 -60.5s-11 -54.833 -11 -79.5s3.66699 -43.667 11 -57
c6.66699 -11.333 15.334 -17 26.001 -17c10 0 18.333 4 25 12c12.667 12.667 22.334 33 29.001 61s10 54.333 10 79c0 23.333 -3.66699 42 -11 56c-5.33301 11.333 -14 17 -26 17zM539.999 677.999l-105 -148h-98l65 148h138z" />
    <glyph glyph-name="afii10097.var.accented" unicode="&#x44f;`" horiz-adv-x="478" 
d="M0 0l104.003 162c-20 7.33301 -36 19 -48 35c-14.667 20.667 -22 46 -22 76c0 56.667 16.667 102.334 50 137.001c22.667 23.333 49.167 38.666 79.5 45.999s70.833 11 121.5 11h183l-57 -467h-172l12 102c3.33301 28.667 6.66602 53 9.99902 73
c-4.66699 -12 -9.83398 -24.167 -15.501 -36.5s-8.83398 -18.833 -9.50098 -19.5l-55 -119h-181zM270.003 250l11 95h-9c-24 0 -40.667 -4 -50 -12c-10 -8.66699 -15 -21 -15 -37c0 -14.667 5 -26 15 -34s24 -12 42 -12h6zM436.003 678l-105 -148h-98l65 148h138z" />
    <glyph glyph-name="afii10071.var.accented" unicode="&#x451;`" horiz-adv-x="474" 
d="M266 157h166c-17.333 -53.333 -45.333 -94.5 -84 -123.5s-85.667 -43.5 -141 -43.5c-59.333 0 -104.833 17 -136.5 51s-47.5 80.667 -47.5 140c0 77.333 22.667 145.833 68 205.5s105.333 89.5 180 89.5c58 0 102.5 -18.5 133.5 -55.5s46.5 -85.167 46.5 -144.5
c0 -18 -2.66699 -44.333 -8 -79h-250c-0.666992 -4 -1 -10.333 -1 -19c0 -35.333 10.667 -53 32 -53c20.667 0 34.667 10.667 42 32zM207 290h79c0 1.33301 0.166992 3.33301 0.5 6s0.5 4.66699 0.5 6c0 31.333 -11.333 47 -34 47c-13.333 0 -23.833 -6 -31.5 -18
s-12.5 -25.667 -14.5 -41zM340 662l-91 -128l-63 16l64 131zM190 609c0 -5.33301 -1.66895 -11.332 -5.00195 -17.999c-5.33301 -13.333 -14.166 -24.5 -26.499 -33.5s-25.833 -13.5 -40.5 -13.5c-16.667 0 -30.5 5.5 -41.5 16.5s-16.5 24.833 -16.5 41.5
c0 19.333 7.33301 36.166 22 50.499s31.667 21.5 51 21.5c18.667 0 32.834 -6 42.501 -18s14.5 -27.667 14.5 -47zM465.998 616.001c0 -18.667 -7.33398 -35.334 -22.001 -50.001s-31.667 -22 -51 -22c-16 0 -29.5 5.5 -40.5 16.5s-16.5 24.833 -16.5 41.5
c0 18.667 7.33301 35.334 22 50.001s31.334 22 50.001 22c16.667 0 30.5 -5.5 41.5 -16.5s16.5 -24.833 16.5 -41.5z" />
    <glyph glyph-name="fi" unicode="fi" horiz-adv-x="539" 
d="M352 728l-19.999 -161c-11.333 11.333 -22.333 17 -33 17c-18 0 -28.667 -16 -32 -48l-8 -69h61l-17 -140h-61l-40 -327h-171l40 327h-49l17 140h50c0.666992 6 2.16699 21 4.5 45s4.16602 41.167 5.49902 51.5s4.16602 24 8.49902 41s9.83301 31.5 16.5 43.5
c14.667 28.667 35.334 51.167 62.001 67.5s56 24.5 88 24.5c23.333 0 49.333 -4 78 -12zM563.001 624c0 -29.333 -11.5 -55.5 -34.5 -78.5s-49.167 -34.5 -78.5 -34.5c-24.667 0 -45.5 8.5 -62.5 25.5s-25.5 38.167 -25.5 63.5c0 30 11.333 56.333 34 79s49 34 79 34
c25.333 0 46.333 -8.5 63 -25.5s25 -38.167 25 -63.5zM529.001 467l-57 -467h-171l58 467h170z" />
    <glyph glyph-name="fl" unicode="fl" horiz-adv-x="539" 
d="M352 728l-19.999 -161c-11.333 11.333 -22.333 17 -33 17c-18 0 -28.667 -16 -32 -48l-8 -69h61l-17 -140h-61l-40 -327h-171l40 327h-49l17 140h50c0.666992 6 2.16699 21 4.5 45s4.16602 41.167 5.49902 51.5s4.16602 24 8.49902 41s9.83301 31.5 16.5 43.5
c14.667 28.667 35.334 51.167 62.001 67.5s56 24.5 88 24.5c23.333 0 49.333 -4 78 -12zM562.001 729l-90 -729h-171l90 729h171z" />
    <glyph glyph-name=".notdef" horiz-adv-x="233" 
 />
    <glyph glyph-name="space" unicode=" " horiz-adv-x="233" 
 />
    <glyph glyph-name="exclam" unicode="!" horiz-adv-x="314" 
d="M303 690l-54 -450h-173l54 450h173zM242 103c0 -29.333 -11.501 -55.5 -34.501 -78.5s-49.167 -34.5 -78.5 -34.5c-25.333 0 -46.166 8.5 -62.499 25.5s-24.5 38.167 -24.5 63.5c0 30 11.167 56.5 33.5 79.5s48.5 34.5 78.5 34.5c26 0 47.167 -8.5 63.5 -25.5
s24.5 -38.5 24.5 -64.5z" />
    <glyph glyph-name="quotedbl" unicode="&#x22;" horiz-adv-x="413" 
d="M422 667l-25 -268h-95l-24 268h144zM234 667l-24 -268h-96l-24 268h144z" />
    <glyph glyph-name="numbersign" unicode="#" horiz-adv-x="600" 
d="M639 498l-32 -116h-100l-23 -83h101l-32 -117h-102l-51 -182h-134l52 182h-84l-52 -182h-132l52 182h-102l33 117h101l23 83h-100l32 116h101l48 169h131l-47 -169h84l48 169h133l-48 -169h100zM374 382h-85l-23 -83h84z" />
    <glyph glyph-name="dollar" unicode="$" horiz-adv-x="532" 
d="M472 642l-24.001 -202.001c-30 47.333 -63 71 -99 71c-13.333 0 -24.833 -4.16699 -34.5 -12.5s-14.5 -18.833 -14.5 -31.5c0 -10 4.66699 -20.167 14 -30.5s20.833 -21 34.5 -32s27.334 -23.167 41.001 -36.5s25.167 -31 34.5 -53s14 -46 14 -72
c0 -62.667 -20.667 -119 -62 -169c-22 -25.333 -52 -47.666 -90 -66.999l-12 -101h-84l10 85c-28.667 1.33301 -51.5 3.83301 -68.5 7.5s-37.833 11.167 -62.5 22.5l26 208c10.667 -22 25.167 -40 43.5 -54s38.5 -21 60.5 -21c15.333 0 28.833 4.33301 40.5 13
s17.5 20.667 17.5 36c0 12 -7.16699 25.833 -21.5 41.5s-29.833 30.667 -46.5 45s-32.167 34 -46.5 59s-21.5 51.833 -21.5 80.5c0 70 24 130 72 180c30 31.333 62.667 53 98 65l11 93h84l-10 -88c31.333 -6.66699 63.333 -19 96 -37z" />
    <glyph glyph-name="percent" unicode="%" horiz-adv-x="713" 
d="M335 531c0 -52 -14.833 -97.333 -44.5 -136s-68.167 -58 -115.5 -58c-40.667 0 -72.167 12.667 -94.5 38s-33.5 60.333 -33.5 105c0 56.667 14.667 104 44 142s70 57 122 57c40.667 0 71.167 -13.333 91.5 -40s30.5 -62.667 30.5 -108zM219 533
c0 32 -6.66797 48 -20.001 48s-22.666 -10.667 -27.999 -32s-8 -43.333 -8 -66c0 -32.667 7 -49 21 -49c12.667 0 21.667 11 27 33s8 44 8 66zM598.999 667l-370 -667h-92l372 667h90zM691.999 189c0 -52 -14.833 -97.333 -44.5 -136s-68.167 -58 -115.5 -58
c-40.667 0 -72.167 12.667 -94.5 38s-33.5 60.333 -33.5 105c0 56.667 14.667 104 44 142s70 57 122 57c40.667 0 71.167 -13.333 91.5 -40s30.5 -62.667 30.5 -108zM575.999 191c0 32 -6.66797 48 -20.001 48s-22.666 -10.667 -27.999 -32s-8 -43.333 -8 -66
c0 -32.667 7 -49 21 -49c12.667 0 21.667 11 27 33s8 44 8 66z" />
    <glyph glyph-name="ampersand" unicode="&#x26;" horiz-adv-x="620" 
d="M508 316l76 -122c-33.333 -32 -59 -55.333 -77 -70l76 -124h-192l-22 36c-50.667 -32 -101.667 -48 -153 -48s-94.5 17.5 -129.5 52.5s-52.5 77.833 -52.5 128.5c0 86 45.333 153.333 136 202c-24 34.667 -36 71.667 -36 111c0 53.333 20.833 99.5 62.5 138.5
s89.5 58.5 143.5 58.5c48.667 0 90.5 -15 125.5 -45s52.5 -69 52.5 -117c0 -74.667 -44.667 -138.667 -134 -192l54 -86c26 26 49.333 51.667 70 77zM369 511c0 9.33301 -3 16.8311 -9 22.498s-13.667 8.5 -23 8.5c-11.333 0 -21 -4 -29 -12s-12 -17.667 -12 -29
s7.66699 -31.666 23 -60.999c33.333 26.667 50 50.334 50 71.001zM295 159.998l-53.999 87c-25.333 -14 -38 -33 -38 -57c0 -13.333 4.16699 -24.5 12.5 -33.5s19.166 -13.5 32.499 -13.5c15.333 0 31 5.66699 47 17z" />
    <glyph glyph-name="quotesingle" unicode="'" horiz-adv-x="225" 
d="M234 667l-24 -268h-96l-24 268h144z" />
    <glyph glyph-name="parenleft" unicode="(" horiz-adv-x="330" 
d="M231 737l119 -69.001c-102 -168 -153 -335 -153 -501c0 -113.333 18 -218.333 54 -315l-136 -69c-48.667 114.667 -73 233.334 -73 356.001c0 210.667 63 410 189 598z" />
    <glyph glyph-name="parenright" unicode=")" horiz-adv-x="330" 
d="M86 668l136 68.999c48.667 -111.333 73 -230.666 73 -357.999c0 -210 -63 -408.667 -189 -596l-119 69c47.333 74 84.833 154.5 112.5 241.5s41.5 173.167 41.5 258.5c0 112.667 -18.333 218 -55 316z" />
    <glyph glyph-name="asterisk" unicode="*" horiz-adv-x="525" 
d="M486 530l-108 -15l59 -93l-98 -55l-47 99l-69 -85l-82 77l79 76l-101 40l48 103l95 -52l7 110l111 -14l-20 -108l105 28z" />
    <glyph glyph-name="plus" unicode="+" 
d="M480 280h-151v-153h-130v153h-152v120h152v153h130v-153h151v-120z" />
    <glyph glyph-name="comma" unicode="," horiz-adv-x="289" 
d="M250 159l-154 -320h-140l120 320h174z" />
    <glyph glyph-name="hyphen" unicode="-" horiz-adv-x="317" 
d="M262 186h-217l16 134h217z" />
    <glyph glyph-name="period" unicode="." horiz-adv-x="289" 
d="M228 102c0 -29.333 -11.333 -55.333 -34 -78s-48.667 -34 -78 -34c-25.333 0 -46.5 8.66699 -63.5 26s-25.5 38.666 -25.5 63.999c0 29.333 11.333 55.333 34 78s48.667 34 78 34c25.333 0 46.5 -8.66699 63.5 -26s25.5 -38.666 25.5 -63.999z" />
    <glyph glyph-name="slash" unicode="/" horiz-adv-x="526" 
d="M565 729l-489 -945h-120l489 945h120z" />
    <glyph glyph-name="zero" unicode="0" horiz-adv-x="532" 
d="M516 426c0 -63.333 -6.66602 -122.666 -19.999 -177.999c-8 -33.333 -18.833 -64.5 -32.5 -93.5s-30.667 -56.5 -51 -82.5s-45 -46.5 -74 -61.5s-60.833 -22.5 -95.5 -22.5c-36.667 0 -68.5 7.5 -95.5 22.5s-47.833 35.667 -62.5 62s-25.334 54.5 -32.001 84.5
s-10 62.333 -10 97c0 62 7 119 21 171c18 70.667 49.167 130.667 93.5 180s99.5 74 165.5 74c35.333 0 65.833 -7.16699 91.5 -21.5s45.667 -33.833 60 -58.5s24.833 -51.334 31.5 -80.001s10 -59.667 10 -93zM343.001 436c0 58 -14.3311 87.001 -42.998 87.001
c-17.333 0 -32 -12.333 -44 -37s-20.5 -55.667 -25.5 -93s-8.5 -69.333 -10.5 -96s-3 -50.334 -3 -71.001c0 -54.667 12.667 -82 38 -82c23.333 0 42.166 22 56.499 66s23.166 85.167 26.499 123.5s5 72.5 5 102.5z" />
    <glyph glyph-name="one" unicode="1" horiz-adv-x="532" 
d="M438 667l-82 -667h-177l62 510h-71l19 157h249z" />
    <glyph glyph-name="two" unicode="2" horiz-adv-x="532" 
d="M260 425h-172c6 73.333 31.167 134 75.5 182s102.5 72 174.5 72c56 0 100.833 -17.167 134.5 -51.5s50.5 -79.5 50.5 -135.5c0 -34 -6 -67.5 -18 -100.5s-29.167 -64.167 -51.5 -93.5s-44.5 -55.333 -66.5 -78s-47.667 -46.667 -77 -72c24.667 2 79.667 3.66699 165 5
l-19 -153h-452l209 243c19.333 22 34.5 39.833 45.5 53.5s24.833 32.5 41.5 56.5s29.167 47 37.5 69s12.5 43 12.5 63c0 12 -3 22.667 -9 32s-14.667 14 -26 14c-32.667 0 -51 -35.333 -55 -106z" />
    <glyph glyph-name="three" unicode="3" horiz-adv-x="532" 
d="M257 477l-170.997 -0.000976562c12 61.333 39.167 110.333 81.5 147s94.166 55 155.499 55c52 0 95.5 -15.833 130.5 -47.5s52.5 -73.167 52.5 -124.5c0 -44 -14 -83 -42 -117c-12.667 -16 -31.667 -31 -57 -45c47.333 -29.333 71 -73 71 -131
c0 -66 -24.833 -120.167 -74.5 -162.5s-107.834 -63.5 -174.501 -63.5c-54.667 0 -100.667 15 -138 45s-56 71.667 -56 125c0 4.66699 0.666992 11.334 2 20.001s2 14.667 2 18h173c-0.666992 -4 -1 -10 -1 -18c0 -28 12.333 -42 37 -42c17.333 0 31.166 7.5 41.499 22.5
s15.5 31.5 15.5 49.5c0 40 -21 60 -63 60c-4 0 -9.33301 -0.333008 -16 -1s-12 -1 -16 -1l18 142c4.66699 -0.666992 11.667 -1 21 -1c54 0 81 26.667 81 80c0 28.667 -10.333 43 -31 43s-34.667 -17.667 -42 -53z" />
    <glyph glyph-name="four" unicode="4" horiz-adv-x="532" 
d="M508 279l-17 -144h-56l-17 -135h-177l16 135h-238l17 141l247 391h217l-48 -388h56zM183 279h98c16.667 110 27 176.667 31 200c-52 -89.333 -95 -156 -129 -200z" />
    <glyph glyph-name="five" unicode="5" horiz-adv-x="532" 
d="M514 667l-19 -156.999h-187l-24 -75c6.66699 0.666992 16.667 1 30 1c50.667 0 91.5 -16.833 122.5 -50.5s46.5 -75.834 46.5 -126.501c0 -75.333 -28 -139.333 -84 -192s-121.667 -79 -197 -79c-61.333 0 -119.333 17.333 -174 52l40 158
c48.667 -30.667 93.667 -46 135 -46c26.667 0 50.167 7.33301 70.5 22s30.5 35 30.5 61c0 44 -32 66 -96 66c-37.333 0 -77 -7.66699 -119 -23l98 389h327z" />
    <glyph glyph-name="six" unicode="6" horiz-adv-x="532" 
d="M456 667l-128.001 -190.001c-10.667 -16 -23.667 -33.333 -39 -52c22.667 12 44 18 64 18c44.667 0 78.834 -18.167 102.501 -54.5s35.5 -77.833 35.5 -124.5c0 -76 -24.5 -141 -73.5 -195s-111.167 -81 -186.5 -81c-60 0 -106.333 18.667 -139 56
s-49 86.666 -49 147.999c0 24 4.16699 51 12.5 81s17 56.333 26 79s23.667 52.334 44 89.001s35.333 62.834 45 78.501l52 81.5l42.5 66h191zM319.999 253.999c0 15.333 -3.5 29.001 -10.5 41.001s-17.5 18 -31.5 18c-12 0 -22.333 -4.33301 -31 -13
s-15 -19.834 -19 -33.501s-6.83301 -26.5 -8.5 -38.5s-2.5 -23.667 -2.5 -35c0 -40.667 13 -61 39 -61c22.667 0 39 13.333 49 40s15 54 15 82z" />
    <glyph glyph-name="seven" unicode="7" horiz-adv-x="532" 
d="M583 667l-377.001 -667h-191l201 355c30.667 53.333 65.334 105 104.001 155h-222l19 157h466z" />
    <glyph glyph-name="eight" unicode="8" horiz-adv-x="532" 
d="M512 513c0 -44.667 -13.332 -83.333 -39.999 -116c-16 -19.333 -39 -36 -69 -50c56 -24.667 84 -68 84 -130c0 -66.667 -24.833 -121.5 -74.5 -164.5s-108.167 -64.5 -175.5 -64.5c-54.667 0 -101.834 16.333 -141.501 49s-59.5 75.667 -59.5 129
c0 60 22.333 108.667 67 146c14.667 12 36.667 23.667 66 35c-28.667 10 -49.667 24.333 -63 43s-20 43.667 -20 75c0 61.333 23.333 112.333 70 153s101 61 163 61c52.667 0 98 -14.833 136 -44.5s57 -70.167 57 -121.5zM335.001 492.001c0 11.333 -2.5 21.333 -7.5 30
s-12.833 13 -23.5 13c-15.333 0 -26.5 -7.5 -33.5 -22.5s-10.5 -31.167 -10.5 -48.5c0 -30 11 -45 33 -45c14 0 24.5 8.16699 31.5 24.5s10.5 32.5 10.5 48.5zM308.001 225.001c0 34.667 -12 52 -36 52c-16 0 -28.667 -9.16699 -38 -27.5s-14 -36.5 -14 -54.5
c0 -35.333 12 -53 36 -53c17.333 0 30.333 9 39 27s13 36.667 13 56z" />
    <glyph glyph-name="nine" unicode="9" horiz-adv-x="532" 
d="M102 0l128 188.999c13.333 20 26.333 37.667 39 53c-22 -12.667 -43.667 -19 -65 -19c-44 0 -77.833 18.167 -101.5 54.5s-35.5 77.833 -35.5 124.5c0 76 24.667 141.167 74 195.5s111.666 81.5 186.999 81.5c60 0 106.167 -18.667 138.5 -56s48.5 -86.666 48.5 -147.999
c0 -24 -4.16699 -51.167 -12.5 -81.5s-16.833 -56.5 -25.5 -78.5s-23.667 -52 -45 -90s-36.166 -63.667 -44.499 -77l-53 -82c-27 -41.333 -41.167 -63.333 -42.5 -66h-190zM342 474.999c0 40 -13 60 -39 60c-16 0 -29.333 -7.83301 -40 -23.5s-17.5 -32 -20.5 -49
s-4.5 -33.833 -4.5 -50.5c0 -15.333 3.5 -29 10.5 -41s17.5 -18 31.5 -18c16 0 29 8 39 24s16.333 32.167 19 48.5s4 32.833 4 49.5z" />
    <glyph glyph-name="colon" unicode=":" horiz-adv-x="289" 
d="M263 387c0 -29.333 -11.333 -55.333 -34 -78s-48.667 -34 -78 -34c-25.333 0 -46.5 8.66699 -63.5 26s-25.5 38.666 -25.5 63.999c0 29.333 11.333 55.333 34 78s48.667 34 78 34c25.333 0 46.5 -8.66699 63.5 -26s25.5 -38.666 25.5 -63.999zM228 102
c0 -29.333 -11.333 -55.333 -34 -78s-48.667 -34 -78 -34c-25.333 0 -46.5 8.66699 -63.5 26s-25.5 38.666 -25.5 63.999c0 29.333 11.333 55.333 34 78s48.667 34 78 34c25.333 0 46.5 -8.66699 63.5 -26s25.5 -38.666 25.5 -63.999z" />
    <glyph glyph-name="semicolon" unicode=";" horiz-adv-x="289" 
d="M296 387c0 -29.333 -11.333 -55.334 -34 -78.001s-48.667 -34 -78 -34c-25.333 0 -46.5 8.5 -63.5 25.5s-25.5 38.167 -25.5 63.5c0 30 11.167 56.333 33.5 79s48.5 34 78.5 34c25.333 0 46.5 -8.66699 63.5 -26s25.5 -38.666 25.5 -63.999zM250 158.999l-154 -320h-140
l120 320h174z" />
    <glyph glyph-name="less" unicode="&#x3c;" 
d="M466 58l-433 222v109l433 220v-128l-296 -147l295 -148z" />
    <glyph glyph-name="equal" unicode="=" 
d="M480 370h-433v113h433v-113zM480 197h-433v113h433v-113z" />
    <glyph glyph-name="greater" unicode="&#x3e;" 
d="M493 279l-433 -221v129l296 147l-295 147l-1 128l433 -221v-109z" />
    <glyph glyph-name="question" unicode="?" horiz-adv-x="501" 
d="M242 478l-171.001 -0.000976562c6.66699 52.667 21.667 95.667 45 129c20.667 30 48.334 53.333 83.001 70s71 25 109 25c57.333 0 103 -17.333 137 -52s51 -80.667 51 -138c0 -48 -13.333 -91.167 -40 -129.5s-63.667 -64.166 -111 -77.499l-7 -65h-169l19 160
c12 -1.33301 21 -2 27 -2c69.333 0 104 34 104 102c0 36 -10.333 54 -31 54c-24.667 0 -40 -25.333 -46 -76zM336.999 102.999c0 -29.333 -11.501 -55.5 -34.501 -78.5s-49.167 -34.5 -78.5 -34.5c-25.333 0 -46.166 8.5 -62.499 25.5s-24.5 38.167 -24.5 63.5
c0 30 11.167 56.5 33.5 79.5s48.5 34.5 78.5 34.5c26 0 47.167 -8.5 63.5 -25.5s24.5 -38.5 24.5 -64.5z" />
    <glyph glyph-name="at" unicode="@" horiz-adv-x="733" 
d="M554 98l10.002 -80.0029c-62.667 -20 -131.334 -30 -206.001 -30c-94 0 -170 26.333 -228 79s-87 125.667 -87 219c0 105.333 39.667 197 119 275s172 117 278 117c80.667 0 147.834 -23 201.501 -69s80.5 -108.667 80.5 -188c0 -57.333 -15.667 -111.666 -47 -162.999
c-18 -28.667 -40 -53.167 -66 -73.5s-53.667 -30.5 -83 -30.5c-16.667 0 -31.834 5 -45.501 15s-21.834 23 -24.501 39c-34.667 -42 -79 -63 -133 -63c-36.667 0 -66.167 13 -88.5 39s-33.5 57.667 -33.5 95c0 53.333 20.167 103.833 60.5 151.5s86.833 71.5 139.5 71.5
c45.333 0 76 -16 92 -48l12 38l88 -1l-60 -189c-8 -27.333 -12 -45 -12 -53c0 -14.667 6.66699 -22 20 -22c14 0 30 10.667 48 32c36 42.667 54 93.334 54 152.001c0 59.333 -19.5 105.333 -58.5 138s-88.833 49 -149.5 49c-82.667 0 -154.167 -30.167 -214.5 -90.5
s-90.5 -132.166 -90.5 -215.499c0 -60.667 17.667 -112 53 -154c40 -46.667 102 -70 186 -70c63.333 0 125 10 185 30zM457.002 348.997c0 18 -4.66895 32.5 -14.002 43.5s-22.666 16.5 -39.999 16.5c-26.667 0 -50 -12.333 -70 -37s-30 -50.667 -30 -78
c0 -17.333 5.33301 -31.333 16 -42s24.334 -16 41.001 -16c26 0 48.667 12 68 36s29 49.667 29 77z" />
    <glyph glyph-name="A" unicode="A" horiz-adv-x="524" 
d="M491 0h-183l-3 85h-119l-25 -85h-184l240 667h217zM300 305v86.999c0 0.666992 1 39 3 115c-2 -7.33301 -5.5 -21.833 -10.5 -43.5s-9.16699 -38.5 -12.5 -50.5l-24 -86c-12 -43.333 -21.667 -76.666 -29 -99.999h75c-1.33301 34.667 -2 60.667 -2 78z" />
    <glyph glyph-name="B" unicode="B" horiz-adv-x="522" 
d="M100 667h206c137.333 0 206 -55 206 -165c0 -45.333 -12.167 -82.333 -36.5 -111s-58.833 -45 -103.5 -49c40 -5.33301 69.5 -17.833 88.5 -37.5s28.5 -49.5 28.5 -89.5c0 -62.667 -21.5 -114.167 -64.5 -154.5s-95.833 -60.5 -158.5 -60.5h-248zM259 522l-14 -114.001
c2.66699 -0.666992 6.66699 -1 12 -1c22 0 40.333 5.83301 55 17.5s22 27.834 22 48.501c0 33.333 -18.667 50 -56 50c-8.66699 0 -15 -0.333008 -19 -1zM229 271.999l-16 -127c3.33301 -0.666992 8.33301 -1 15 -1c22.667 0 42 6.66699 58 20s24 31.333 24 54
c0 18.667 -6.33301 32.5 -19 41.5s-28.667 13.5 -48 13.5c-2 0 -4.33301 -0.166992 -7 -0.5s-5 -0.5 -7 -0.5z" />
    <glyph glyph-name="C" unicode="C" horiz-adv-x="438" 
d="M461 662l-23.001 -190.001c-23.333 26.667 -49 40 -77 40c-33.333 0 -61.166 -13.167 -83.499 -39.5s-37.333 -55.333 -45 -87s-11.5 -63.834 -11.5 -96.501c0 -36.667 7.33301 -67 22 -91s39 -36 73 -36c31.333 0 63.666 14.333 96.999 43l-34 -193
c-39.333 -16 -75.666 -24 -108.999 -24c-75.333 0 -132.833 25.833 -172.5 77.5s-59.5 116.5 -59.5 194.5c0 51.333 7 101.333 21 150s34.333 93.334 61 134.001s62 73.334 106 98.001s93 37 147 37c32 0 61.333 -5.66699 88 -17z" />
    <glyph glyph-name="D" unicode="D" horiz-adv-x="529" 
d="M100 667h153c84 0 149 -23.833 195 -71.5s69 -113.5 69 -197.5c0 -105.333 -25 -195.333 -75 -270c-31.333 -46 -67.5 -78.833 -108.5 -98.5s-90.833 -29.5 -149.5 -29.5h-166zM257 500l-42.001 -339c22.667 1.33301 42.334 9.5 59.001 24.5s29 34.167 37 57.5
s13.833 46 17.5 68s5.5 43.667 5.5 65c0 82.667 -25.667 124 -77 124z" />
    <glyph glyph-name="E" unicode="E" horiz-adv-x="405" 
d="M430 667l-20 -157h-152l-12 -97h137l-19 -151h-136l-13 -102h152l-19 -160h-330l82 667h330z" />
    <glyph glyph-name="F" unicode="F" horiz-adv-x="382" 
d="M413 667l-19 -157h-136l-12 -97h127l-19 -151h-126l-33 -262h-177l82 667h313z" />
    <glyph glyph-name="G" unicode="G" horiz-adv-x="552" 
d="M543 514l-180.002 -63.999c0 45.333 -14.667 68 -44 68c-16.667 0 -31.167 -7.66699 -43.5 -23s-20.5 -29.5 -24.5 -42.5s-8.66699 -29.833 -14 -50.5c-14 -62 -21 -115.667 -21 -161c0 -62 17.667 -93 53 -93c21.333 0 38 10 50 30s19.667 42.333 23 67h-65l17 140h247
c-5.33301 -56.667 -13.333 -106 -24 -148c-17.333 -74 -47.833 -134 -91.5 -180s-101.167 -69 -172.5 -69c-74 0 -128.5 24.833 -163.5 74.5s-52.5 113.167 -52.5 190.5c0 63.333 8 122.333 24 177c20.667 71.333 54.834 130.666 102.501 177.999s105.834 71 174.501 71
c104 0 172.333 -55 205 -165z" />
    <glyph glyph-name="H" unicode="H" horiz-adv-x="531" 
d="M539 667l-82 -667h-177l33 268h-85l-33 -268h-177l82 667h177l-29 -236h85l29 236h177z" />
    <glyph glyph-name="I" unicode="I" horiz-adv-x="269" 
d="M277 667l-82 -667h-177l82 667h177z" />
    <glyph glyph-name="J" unicode="J" horiz-adv-x="349" 
d="M357 667l-57.002 -462.999c-7.33301 -56.667 -19.666 -98.334 -36.999 -125.001c-38 -60.667 -97 -91 -177 -91c-35.333 0 -73 7.33301 -113 22l23 186c16.667 -26 38.667 -39 66 -39c36.667 0 58.334 27.333 65.001 82l52 428h178z" />
    <glyph glyph-name="K" unicode="K" horiz-adv-x="533" 
d="M564 667l-181 -322l117 -345h-191l-79 319l-35 -319h-177l82 667h177l-40 -298l140 298h187z" />
    <glyph glyph-name="L" unicode="L" horiz-adv-x="363" 
d="M348 160l-19 -160h-311l82 667h177l-62 -507h133z" />
    <glyph glyph-name="M" unicode="M" horiz-adv-x="755" 
d="M712 667l-18 -666.998h-185c6.66699 86.667 18.334 228.334 35.001 425.001c-18.667 -73.333 -60.667 -215 -126 -425h-145l-11 321c0 3.33301 -0.166992 9 -0.5 17s-0.5 13.667 -0.5 17c0 16 0.666992 39.333 2 70c-8.66699 -66.667 -32.334 -208.334 -71.001 -425.001
h-190l158 667h221l9 -225c1.33301 -22.667 2 -39.334 2 -50.001c0 -8 -0.166992 -16.5 -0.5 -25.5s-0.833008 -18.833 -1.5 -29.5s-1 -19 -1 -25c6.66699 28.667 14.667 60 24 94s17 61 23 81s16 51.667 30 95s23 71.666 27 84.999h219z" />
    <glyph glyph-name="N" unicode="N" horiz-adv-x="554" 
d="M562 667l-82.001 -667h-169l-59 245c-12.667 54 -22 100.333 -28 139l-3 -53l-3 -53c-1.33301 -23.333 -11.666 -116 -30.999 -278h-169l82 667h169l60 -234c5.33301 -21.333 12 -52.5 20 -93.5s13 -65.833 15 -74.5c0 117.333 3.33301 201.333 10 252l19 150h169z" />
    <glyph glyph-name="O" unicode="O" horiz-adv-x="558" 
d="M546 422c0 -67.333 -8.66699 -130.999 -26 -190.999c-20.667 -68.667 -53.834 -126.334 -99.501 -173.001s-101.167 -70 -166.5 -70c-33.333 0 -65 8 -95 24s-54.667 37.667 -74 65c-31.333 46 -47 108 -47 186c0 66.667 9.66699 129 29 187
c22.667 65.333 57.334 119.833 104.001 163.5s102 65.5 166 65.5c68 0 119.833 -25.167 155.5 -75.5s53.5 -110.833 53.5 -181.5zM362 408.001c0 68.667 -15.666 102.999 -46.999 102.999c-12.667 0 -24.334 -6 -35.001 -18s-19.334 -27.167 -26.001 -45.5
s-12 -35.166 -16 -50.499s-7 -29.333 -9 -42c-4.66699 -27.333 -7 -57 -7 -89c0 -72.667 16 -109 48 -109c12.667 0 24.5 6.16699 35.5 18.5s19.833 28 26.5 47s11.834 36.167 15.501 51.5s6.5 30 8.5 44c4 30 6 60 6 90z" />
    <glyph glyph-name="P" unicode="P" horiz-adv-x="498" 
d="M100 667h172.001c158.667 0 238 -64.333 238 -193c0 -76.667 -24.333 -140 -73 -190c-50.667 -51.333 -122.334 -73 -215.001 -65l-27 -219h-177zM241.001 368l9.00098 0.000976562c24 0 43.167 8.5 57.5 25.5s21.5 37.5 21.5 61.5
c0 19.333 -4.83301 35.166 -14.5 47.499s-23.834 18.5 -42.501 18.5h-13z" />
    <glyph glyph-name="Q" unicode="Q" horiz-adv-x="566" 
d="M354 -93l-50 88.999c-16 -5.33301 -34 -8 -54 -8c-47.333 0 -87.666 13.5 -120.999 40.5s-57 60 -71 99s-21 81.833 -21 128.5c0 63.333 8 121.333 24 174c21.333 70.667 55.5 129.834 102.5 177.501s104.167 71.5 171.5 71.5c48 0 88.5 -13.5 121.5 -40.5
s56.5 -60.167 70.5 -99.5s21 -82.333 21 -129c0 -60 -9.33301 -120.5 -28 -181.5s-46.334 -111.167 -83.001 -150.5l69 -92zM362 402.999c0 72 -16.6699 107.999 -50.0029 107.999c-21.333 0 -39.166 -18.167 -53.499 -54.5s-24.166 -71.166 -29.499 -104.499
c-4.66699 -27.333 -7 -57 -7 -89c0 -70.667 16.333 -106 49 -106c16.667 0 31.5 10.5 44.5 31.5s22.333 41.833 28 62.5s9.83398 40.667 12.501 60c4 30 6 60.667 6 92z" />
    <glyph glyph-name="R" unicode="R" horiz-adv-x="525" 
d="M100 667h181c153.333 0 230 -63.667 230 -191c0 -98 -41.333 -164.333 -124 -199l98 -277h-192l-23.5 93c-11.667 46 -20.167 81.667 -25.5 107l-8.5 38.5l-8.5 38.5c-5.33301 -62 -16 -154.333 -32 -277h-177zM239 358h12c23.333 0 43 9.83301 59 29.5s24 41.5 24 65.5
c0 42.667 -25 64 -75 64z" />
    <glyph glyph-name="S" unicode="S" horiz-adv-x="398" 
d="M408 645l-24.9971 -203.999c-24.667 48.667 -56.334 73 -95.001 73c-12.667 0 -24.667 -4.16699 -36 -12.5s-17 -18.833 -17 -31.5s7.33301 -26.334 22 -41.001s30.667 -28.5 48 -41.5s33.333 -32.167 48 -57.5s22 -53.333 22 -84c0 -70 -23 -130.5 -69 -181.5
s-103.667 -76.5 -173 -76.5c-42 0 -84.333 9.66699 -127 29l26 209c29.333 -48.667 64 -73 104 -73c15.333 0 28.833 4.5 40.5 13.5s17.5 21.167 17.5 36.5c0 10.667 -4.66699 21.5 -14 32.5s-20.833 22.167 -34.5 33.5s-27.334 24 -41.001 38s-25.167 32 -34.5 54
s-14 46.333 -14 73c0 63.333 22.5 120 67.5 170s98.5 75 160.5 75c41.333 0 82.666 -11.333 123.999 -34z" />
    <glyph glyph-name="T" unicode="T" horiz-adv-x="377" 
d="M427 667l-20 -160h-98l-62 -507h-177l62 507h-98l20 160h373z" />
    <glyph glyph-name="U" unicode="U" horiz-adv-x="537" 
d="M545 667l-58 -472c-7.33301 -65.333 -35.666 -117 -84.999 -155c-44 -34.667 -95.667 -52 -155 -52c-61.333 0 -110.833 15.667 -148.5 47s-56.5 77 -56.5 137c0 16 1 32 3 48l55 447h177l-53 -431c-1.33301 -14.667 -2 -25.667 -2 -33c0 -30.667 13 -46 39 -46
c10.667 0 19.5 2.33301 26.5 7s12.333 11.5 16 20.5s6.16699 17 7.5 24s2.66602 16.167 3.99902 27.5l53 431h177z" />
    <glyph glyph-name="V" unicode="V" horiz-adv-x="510" 
d="M564 667l-261 -666.999h-181l-68 667h186c8 -166.667 12 -270.667 12 -312c0 -27.333 -1.33301 -68.333 -4 -123c6 28 12.333 56 19 84s15.167 60 25.5 96s18 62 23 78l30 95c15 47.333 23.5 74.666 25.5 81.999h193z" />
    <glyph glyph-name="W" unicode="W" horiz-adv-x="742" 
d="M796 667l-214.999 -666.999h-171c-11.333 220 -16.666 359 -15.999 417c-5.33301 -20 -12 -50.667 -20 -92c-2.66699 -14 -9.33398 -41.667 -20.001 -83l-63 -242h-173l-64 667h175c2 -52 4.33301 -132.333 7 -241c1.33301 -25.333 2 -44.333 2 -57
c0 -26 -0.666992 -65.667 -2 -119c18 86 55.667 225 113 417h152c9.33301 -144.667 14.333 -240.334 15 -287.001v-138c17.333 89.333 33.666 162 48.999 218l58 207h173z" />
    <glyph glyph-name="X" unicode="X" horiz-adv-x="509" 
d="M552 667l-190 -320.998l119 -346h-197c-6 24.667 -14.667 66 -26 124c-5.33301 23.333 -8.66602 41.666 -9.99902 54.999c-16.667 -40.667 -44.334 -100.334 -83.001 -179.001h-193l202 346l-111 321h197c2 -12 5.5 -30.333 10.5 -55s8.83301 -43 11.5 -55
c0.666992 -3.33301 1.5 -8.33301 2.5 -15s2 -12.667 3 -18s2.16699 -10.333 3.5 -15c9.33301 30 30 82.667 62 158h199z" />
    <glyph glyph-name="Y" unicode="Y" horiz-adv-x="493" 
d="M547 667l-200 -385l-35 -282h-177l35 282l-116 385h185c20 -97.333 32.333 -166 37 -206c14 37.333 43 106 87 206h184z" />
    <glyph glyph-name="Z" unicode="Z" horiz-adv-x="507" 
d="M544 667l-2 -19l-206 -363l-41 -70l-38 -63c23.333 2 91 4.66699 203 8l-19 -160h-453l2 14l181 326c35.333 63.333 72 120 110 170h-191l19 157h435z" />
    <glyph glyph-name="bracketleft" unicode="[" horiz-adv-x="344" 
d="M372 729l-14 -119h-102l-85 -699h101l-15 -120h-251l115 938h251z" />
    <glyph glyph-name="backslash" unicode="\" horiz-adv-x="562" 
d="M53 729h120l372 -945h-120z" />
    <glyph glyph-name="bracketright" unicode="]" horiz-adv-x="344" 
d="M346 729l-115 -938h-252l15 120h101l86 699h-101l14 119h252z" />
    <glyph glyph-name="asciicircum" unicode="^" 
d="M509 330h-136l-110 233l-110 -233h-135l160 337h170z" />
    <glyph glyph-name="underscore" unicode="_" 
d="M472 -166h-500v120h500v-120z" />
    <glyph glyph-name="grave" unicode="`" 
d="M340 530h-98l-68 148h138z" />
    <glyph glyph-name="a" unicode="a" horiz-adv-x="489" 
d="M479 467l-57 -467.005h-171c2 8.66699 4.66699 21.834 8 39.501s5.66602 30.834 6.99902 39.501c-35.333 -59.333 -78.666 -89 -129.999 -89c-22 0 -40.833 5.66699 -56.5 17s-27.334 26.333 -35.001 45s-13.167 37.334 -16.5 56.001s-5 38.334 -5 59.001
c0 46 4.66699 88.667 14 128c5.33301 22 12.333 43 21 63s19.5 39.333 32.5 58s29.167 33.5 48.5 44.5s40.333 16.5 63 16.5c26.667 0 47.334 -7.16699 62.001 -21.5s27 -35.166 37 -62.499c0 8 0.5 20.167 1.5 36.5s1.83301 28.833 2.5 37.5h174zM282 287.995
c0 30.667 -9.33301 46 -28 46c-20.667 0 -35.667 -17 -45 -51s-14 -65.667 -14 -95c0 -36.667 10.333 -55 31 -55c20 0 34.333 18.167 43 54.5s13 69.833 13 100.5z" />
    <glyph glyph-name="b" unicode="b" horiz-adv-x="489" 
d="M101 729h171.001c-2 -14 -7 -54.833 -15 -122.5s-14.667 -119.5 -20 -155.5c-4 -21.333 -6.66699 -38.666 -8 -51.999c16.667 25.333 33.834 44.666 51.501 57.999s39.834 20 66.501 20c23.333 0 43.333 -5.33301 60 -16s29.167 -25.167 37.5 -43.5
s14.166 -37.166 17.499 -56.499s5 -40 5 -62c0 -46.667 -4.66699 -89.667 -14 -129c-12 -48.667 -32 -90.834 -60 -126.501s-63.667 -53.5 -107 -53.5c-24.667 0 -43.667 5.83301 -57 17.5s-26.333 30.167 -39 55.5c-0.666992 -7.33301 -1.33398 -18 -2.00098 -32
s-1.33398 -24.333 -2.00098 -31h-175zM290.001 273c0 40 -11.333 60.001 -34 60.001c-13.333 0 -24.333 -9.83301 -33 -29.5s-14.167 -38.834 -16.5 -57.501s-3.5 -35.667 -3.5 -51c0 -37.333 10.333 -56 31 -56c20 0 34.333 15.5 43 46.5s13 60.167 13 87.5z" />
    <glyph glyph-name="c" unicode="c" horiz-adv-x="298" 
d="M309 475l-19.001 -152c-27.333 -2 -48.666 -12 -63.999 -30s-23 -40.667 -23 -68c0 -18.667 4.83301 -35.5 14.5 -50.5s23.167 -22.5 40.5 -22.5h11l-19 -159c-14.667 -2 -30 -3 -46 -3c-58.667 0 -103.167 20 -133.5 60s-45.5 90 -45.5 150
c0 72.667 23.833 137 71.5 193s107.167 84 178.5 84c8 0 19.333 -0.666992 34 -2z" />
    <glyph glyph-name="d" unicode="d" horiz-adv-x="489" 
d="M511 729l-89.001 -729.001h-174c0.666992 8 2.5 19.333 5.5 34s4.83301 24.334 5.5 29.001c-18 -24 -35.5 -42.167 -52.5 -54.5s-37.5 -18.5 -61.5 -18.5c-44 0 -75.5 17 -94.5 51s-28.5 75 -28.5 123c0 46.667 4.66699 89.667 14 129c12 49.333 32 92.333 60 129
s63.667 55 107 55c26 0 46.333 -6.5 61 -19.5s27.667 -32.5 39 -58.5c2.66699 41.333 15.334 151.333 38.001 330h170zM287.999 273.999c0 39.333 -9.66602 59.001 -28.999 59.001c-20.667 0 -35.5 -15.5 -44.5 -46.5s-13.5 -60.833 -13.5 -89.5c0 -38.667 11 -58 33 -58
c19.333 0 33.166 15.667 41.499 47s12.5 60.666 12.5 87.999z" />
    <glyph glyph-name="e" unicode="e" horiz-adv-x="474" 
d="M266 157h166c-17.333 -53.333 -45.333 -94.5 -84 -123.5s-85.667 -43.5 -141 -43.5c-59.333 0 -104.833 17 -136.5 51s-47.5 80.667 -47.5 140c0 77.333 22.667 145.833 68 205.5s105.333 89.5 180 89.5c58 0 102.5 -18.5 133.5 -55.5s46.5 -85.167 46.5 -144.5
c0 -18 -2.66699 -44.333 -8 -79h-250c-0.666992 -4 -1 -10.333 -1 -19c0 -35.333 10.667 -53 32 -53c20.667 0 34.667 10.667 42 32zM207 290h79c0 1.33301 0.166992 3.33301 0.5 6s0.5 4.66699 0.5 6c0 31.333 -11.333 47 -34 47c-13.333 0 -23.833 -6 -31.5 -18
s-12.5 -25.667 -14.5 -41z" />
    <glyph glyph-name="f" unicode="f" horiz-adv-x="296" 
d="M352 728l-19.999 -161c-11.333 11.333 -22.333 17 -33 17c-18 0 -28.667 -16 -32 -48l-8 -69h61l-17 -140h-61l-40 -327h-171l40 327h-49l17 140h50c0.666992 6 2.16699 21 4.5 45s4.16602 41.167 5.49902 51.5s4.16602 24 8.49902 41s9.83301 31.5 16.5 43.5
c14.667 28.667 35.334 51.167 62.001 67.5s56 24.5 88 24.5c23.333 0 49.333 -4 78 -12z" />
    <glyph glyph-name="g" unicode="g" horiz-adv-x="485" 
d="M475 467l-59.001 -479.002c-6.66699 -55.333 -23 -98 -49 -128c-43.333 -50 -104.333 -75 -183 -75c-60.667 0 -106.5 13.333 -137.5 40s-46.833 69.667 -47.5 129h174c0 -25.333 10.333 -38 31 -38c12 0 21.5 3.83301 28.5 11.5s11.5 15.334 13.5 23.001
s4 18.167 6 31.5c2.66699 22.667 5.66699 46.667 9 72c-33.333 -40.667 -71.333 -61 -114 -61c-29.333 0 -53.833 10.167 -73.5 30.5s-33 43.333 -40 69s-10.5 52.834 -10.5 81.501c0 41.333 5 82 15 122c12.667 47.333 33.334 89.333 62.001 126s64 55 106 55
c34.667 0 65.667 -23.667 93 -71l4 61h172zM283.999 278.998c0 38 -9 57 -27 57c-14 0 -25.5 -9.66699 -34.5 -29s-14.667 -38.333 -17 -57s-3.5 -35.667 -3.5 -51c0 -42 10 -63 30 -63c18.667 0 32 16.667 40 50s12 64.333 12 93z" />
    <glyph glyph-name="h" unicode="h" horiz-adv-x="483" 
d="M272 729l-32 -261c-4.66699 -33.333 -10 -63.333 -16 -90c35.333 66 80 99 134 99c31.333 0 55.833 -11.167 73.5 -33.5s26.5 -49.833 26.5 -82.5c0 -14.667 -1 -29 -3 -43l-39 -318h-171l31 247c1.33301 12 2 20.667 2 26c0 20.667 -7.66699 31 -23 31
c-24 0 -38.667 -23 -44 -69l-29 -235h-171l90 729h171z" />
    <glyph glyph-name="i" unicode="i" horiz-adv-x="249" 
d="M273 624c0 -29.333 -11.5 -55.5 -34.5 -78.5s-49.167 -34.5 -78.5 -34.5c-24.667 0 -45.5 8.5 -62.5 25.5s-25.5 38.167 -25.5 63.5c0 30 11.333 56.333 34 79s49 34 79 34c25.333 0 46.333 -8.5 63 -25.5s25 -38.167 25 -63.5zM239 467l-57 -467h-171l58 467h170z" />
    <glyph glyph-name="j" unicode="j" horiz-adv-x="252" 
d="M274 624v-9.99902c0 -6.66699 -2.66699 -16.334 -8 -29.001c-8 -21.333 -21.833 -39 -41.5 -53s-40.5 -21 -62.5 -21c-25.333 0 -46.333 8.5 -63 25.5s-25 38.167 -25 63.5c0 30 11.167 56.333 33.5 79s48.5 34 78.5 34c26 0 47.167 -8.33301 63.5 -25s24.5 -38 24.5 -64
zM242 467.001l-85 -682h-170l83 682h172z" />
    <glyph glyph-name="k" unicode="k" horiz-adv-x="487" 
d="M505 467l-139 -215.001l93 -252h-190l-41 146c-9.33301 32 -15.333 59 -18 81l-28 -227h-171l90 729h171l-57 -462c6 12.667 17 33.334 33 62.001l75 138h182z" />
    <glyph glyph-name="l" unicode="l" horiz-adv-x="250" 
d="M272 729l-90 -729h-171l90 729h171z" />
    <glyph glyph-name="m" unicode="m" horiz-adv-x="722" 
d="M69 467l169.999 -0.00292969c-3.33301 -26 -7.33301 -52 -12 -78c36.667 58.667 80 88 130 88c30.667 0 54.334 -8.33301 71.001 -25s29.667 -40.667 39 -72c14.667 31.333 31.5 55.333 50.5 72s43.833 25 74.5 25c31.333 0 56.833 -10.167 76.5 -30.5
s29.5 -46.166 29.5 -77.499c0 -11.333 -1.33301 -27.666 -4 -48.999l-39 -320h-171l30 245c0 2 0.666992 7.16699 2 15.5s2 14.5 2 18.5c0 20 -7.33301 30 -22 30c-26 0 -41.667 -24.333 -47 -73l-29 -236h-171l29 235c2.66699 18.667 4 32.334 4 41.001
c0 19.333 -8 29 -24 29c-9.33301 0 -17 -2 -23 -6s-10.667 -10.667 -14 -20s-5.5 -16.5 -6.5 -21.5s-2.16699 -13.5 -3.5 -25.5l-29 -232h-171z" />
    <glyph glyph-name="n" unicode="n" horiz-adv-x="483" 
d="M69 467h170c-9.33301 -56 -14.333 -85.667 -15 -89c35.333 66 80 99 134 99c31.333 0 55.833 -11.167 73.5 -33.5s26.5 -49.833 26.5 -82.5c0 -14.667 -1 -29 -3 -43l-39 -318h-171l31 247c1.33301 12 2 20.667 2 26c0 20.667 -7.66699 31 -23 31
c-24 0 -38.667 -23 -44 -69l-29 -235h-171z" />
    <glyph glyph-name="o" unicode="o" horiz-adv-x="480" 
d="M456 280c0 -82 -21.498 -150.833 -64.498 -206.5s-104.167 -83.5 -183.5 -83.5c-60 0 -105.667 18 -137 54s-47 84.667 -47 146c0 77.333 22.167 144.5 66.5 201.5s104.166 85.5 179.499 85.5c59.333 0 105.166 -17.833 137.499 -53.5s48.5 -83.5 48.5 -143.5z
M291.002 269c0 51.333 -12.333 77 -37 77c-21.333 0 -37.333 -17.5 -48 -52.5s-16 -66.833 -16 -95.5c0 -51.333 12.333 -77 37 -77c21.333 0 37.333 17.5 48 52.5s16 66.833 16 95.5z" />
    <glyph glyph-name="p" unicode="p" horiz-adv-x="489" 
d="M241 467l-11.999 -65.998c32.667 50.667 71 76 115 76c30.667 0 55.667 -10.667 75 -32s32.166 -45.166 38.499 -71.499s9.5 -54.5 9.5 -84.5c0 -44.667 -5 -85.334 -15 -122.001c-12 -46.667 -32 -87.834 -60 -123.501s-63 -53.5 -105 -53.5s-75 24.333 -99 73
c0 -16.667 -2 -42.334 -6 -77.001l-25 -201h-171l85 682h170zM290.001 272.002c0 41.333 -10.3311 61.999 -30.998 61.999c-10 0 -18.833 -5.33301 -26.5 -16s-13.334 -24.167 -17.001 -40.5s-6.33398 -31.166 -8.00098 -44.499s-2.5 -25 -2.5 -35
c0 -41.333 9.66699 -62 29 -62c18.667 0 32.667 16.167 42 48.5s14 61.5 14 87.5z" />
    <glyph glyph-name="q" unicode="q" horiz-adv-x="487" 
d="M477 467l-84.001 -682h-171l25 201c1.33301 10.667 2.66602 19.334 3.99902 26.001c1.33301 5.33301 3 13.666 5 24.999s3.66699 20 5 26c-35.333 -48.667 -74.666 -73 -117.999 -73c-23.333 0 -43.333 5.66699 -60 17s-29.167 26.5 -37.5 45.5
s-14.166 38.333 -17.499 58s-5 40.5 -5 62.5c0 42 5 83 15 123c12 47.333 32.5 89.333 61.5 126s64.5 55 106.5 55c45.333 0 77.333 -25.333 96 -76l4 66h171zM285.999 272c0 41.333 -10.001 61.999 -30.001 61.999c-19.333 0 -33.166 -15.667 -41.499 -47
s-12.5 -60.666 -12.5 -87.999c0 -42 10.333 -63 31 -63c18 0 31.333 16.333 40 49s13 61.667 13 87z" />
    <glyph glyph-name="r" unicode="r" horiz-adv-x="339" 
d="M360 478l-24 -194c-16.667 10 -32 15 -46 15c-22 0 -41 -9 -57 -27c-14 -15.333 -22.667 -39.333 -26 -72l-25 -200h-171l58 467h170l-20 -91c34 66 81 100 141 102z" />
    <glyph glyph-name="s" unicode="s" horiz-adv-x="389" 
d="M390 439l-74.001 -127.002c-23.333 27.333 -45 41 -65 41c-7.33301 0 -14.166 -2.33301 -20.499 -7s-9.5 -10.667 -9.5 -18c0 -11.333 7.33301 -21.166 22 -29.499s31 -15.666 49 -21.999s34.333 -18.5 49 -36.5s22 -41 22 -69c0 -52.667 -20.5 -96 -61.5 -130
s-88.5 -51 -142.5 -51c-30 0 -56.5 3.83301 -79.5 11.5s-49.5 20.167 -79.5 37.5l78 129c25.333 -32.667 51.666 -49 78.999 -49c9.33301 0 17.666 2.33301 24.999 7s11 11.334 11 20.001c0 6.66699 -2.66699 12.5 -8 17.5s-9.66602 8.16699 -12.999 9.5
s-9.66602 3.66602 -18.999 6.99902c-32.667 12.667 -58.167 28 -76.5 46s-27.5 42.333 -27.5 73c0 52.667 21.333 95.5 64 128.5s91 49.5 145 49.5c44 0 88 -12.667 132 -38z" />
    <glyph glyph-name="t" unicode="t" horiz-adv-x="297" 
d="M319 467l-17 -140h-56l-41 -327h-170l40 327h-49l17 140h49l17 137h171l-17 -137h56z" />
    <glyph glyph-name="u" unicode="u" horiz-adv-x="492" 
d="M482 467l-35 -287c-8 -66 -36.333 -115 -85 -147c-44 -28.667 -92.333 -43 -145 -43c-52 0 -96 13.167 -132 39.5s-54 64.5 -54 114.5l3 36l35 287h170l-32 -263c0 -0.666992 -0.5 -5.5 -1.5 -14.5s-1.5 -15.833 -1.5 -20.5c0 -22.667 10.333 -34 31 -34
c8.66699 0 16 2 22 6s10.5 10.333 13.5 19s4.83301 15.5 5.5 20.5l3 23.5l32 263h171z" />
    <glyph glyph-name="v" unicode="v" horiz-adv-x="439" 
d="M468 467l-190.999 -467.001h-178l-70 467h173c8 -107.333 12 -174.666 12 -201.999c0 -20.667 -0.666992 -51.667 -2 -93c11.333 46.667 40.666 145 87.999 295h168z" />
    <glyph glyph-name="w" unicode="w" horiz-adv-x="672" 
d="M701 467l-191.001 -467h-169v280l-87 -280h-168l-57 467h168l8 -150c0.666992 -14.667 1 -58.667 1 -132c4 22.667 9.83301 47.5 17.5 74.5s14.334 48.833 20.001 65.5l26 75l23.5 67h145c6 -134 8 -228 6 -282c14.667 58 43.667 152 87 282h170z" />
    <glyph glyph-name="x" unicode="x" horiz-adv-x="475" 
d="M491 467l-163.002 -223l119 -244h-198c-11.333 41.333 -19.666 78 -24.999 110c-13.333 -30 -33.666 -66.667 -60.999 -110h-191l169 240l-104 227h195c12 -58.667 18.667 -92.334 20 -101.001c5.33301 13.333 14 31.333 26 54s20 38.334 24 47.001h189z" />
    <glyph glyph-name="y" unicode="y" horiz-adv-x="458" 
d="M487 467l-301 -682.001h-176l110 234l-82 448h172c1.33301 -12 3.66602 -31 6.99902 -57s5.83301 -46.5 7.5 -61.5s3.33398 -33.5 5.00098 -55.5s2.5 -42.333 2.5 -61c0 -3.33301 -0.166992 -8.33301 -0.5 -15s-0.5 -11.667 -0.5 -15c24 88.667 40 143.334 48 164.001
l38 101h170z" />
    <glyph glyph-name="z" unicode="z" horiz-adv-x="428" 
d="M441 467l-138.001 -238c-17.333 -30.667 -35.666 -60 -54.999 -88h126l-17 -141h-369l141 242c20 34.667 38.333 63 55 85h-130l17 140h370z" />
    <glyph glyph-name="braceleft" unicode="{" horiz-adv-x="504" 
d="M462 726l-14 -113.998c-4.66699 0 -12.334 0.166992 -23.001 0.5s-18 0.333008 -22 0s-9.66699 -0.833008 -17 -1.5s-12.666 -2.33398 -15.999 -5.00098s-7.16602 -6 -11.499 -10s-7.66602 -9.5 -9.99902 -16.5s-4.5 -15.167 -6.5 -24.5
c-2.66699 -19.333 -6 -48.833 -10 -88.5s-8.16699 -71.5 -12.5 -95.5s-10.5 -44 -18.5 -60s-26 -33 -54 -51c18 -12.667 30.167 -25.667 36.5 -39s9.5 -31 9.5 -53c0 -7.33301 -0.666992 -19 -2 -35l-20 -157c0 -0.666992 -0.5 -4.33398 -1.5 -11.001s-1.5 -11.667 -1.5 -15
c0 -18 4.83301 -29.667 14.5 -35s24.834 -8 45.501 -8c15.333 0 26.666 0.333008 33.999 1l-14 -115c-34.667 -1.33301 -60.667 -2 -78 -2c-44.667 0 -78.5 7.66699 -101.5 23s-34.5 44.333 -34.5 87c0 8 0.666992 19.333 2 34l24 189c1.33301 12 2 21.333 2 28
c0 32 -15.333 51.333 -46 58l13 110c21.333 4 36.666 12 45.999 24s15.333 29.333 18 52l22 188c6.66699 53.333 23.167 90.833 49.5 112.5s66.5 32.5 120.5 32.5c8 0 16.167 -0.166992 24.5 -0.5s17.666 -0.833008 27.999 -1.5s18.5 -1 24.5 -1z" />
    <glyph glyph-name="bar" unicode="|" 
d="M318 -250h-130v1000h130v-1000z" />
    <glyph glyph-name="braceright" unicode="}" horiz-adv-x="504" 
d="M415 310l-12.998 -110c-30 -6.66699 -49 -22 -57 -46c-4.66699 -16.667 -7.33398 -26.667 -8.00098 -30l-23 -189c-6.66699 -56 -23.834 -94 -51.501 -114s-70.834 -30 -129.501 -30c-14 0 -35.667 0.666992 -65 2l14 115c4.66699 -0.666992 11.667 -1 21 -1
c16.667 0 28.334 0.333008 35.001 1s14.167 2.66699 22.5 6s14.333 9 18 17s6.83398 19 9.50098 33c2 12.667 5 37.5 9 74.5s8.5 70.667 13.5 101s11.5 53.5 19.5 69.5c7.33301 15.333 25.333 32.333 54 51c-18 12.667 -30.167 25.5 -36.5 38.5s-9.5 30.5 -9.5 52.5
c0 7.33301 0.666992 19 2 35l19 157c0 2.66699 0.333008 6.16699 1 10.5s1.16699 8.33301 1.5 12s0.5 7.16699 0.5 10.5c0 7.33301 -1.83301 13.5 -5.5 18.5s-7.66699 8.66699 -12 11s-10.5 4.16602 -18.5 5.49902s-14.5 2 -19.5 2s-12.167 -0.166992 -21.5 -0.5
s-15 -0.5 -17 -0.5l14 114c6 0 14.167 0.333008 24.5 1s19.666 1.16699 27.999 1.5s16.5 0.5 24.5 0.5c44.667 0 78.667 -7.66699 102 -23s35 -44.333 35 -87c0 -7.33301 -0.666992 -19 -2 -35l-23 -188c-1.33301 -12 -2 -21.333 -2 -28
c0 -33.333 15.333 -52.666 46 -57.999z" />
    <glyph glyph-name="asciitilde" unicode="~" horiz-adv-x="667" 
d="M556 748l73.0039 -42.999c-19.333 -42 -41 -74.833 -65 -98.5s-55.333 -35.5 -94 -35.5c-20.667 0 -51.334 8.33301 -92.001 25s-71 25 -91 25c-18.667 0 -32.834 -4.83301 -42.501 -14.5s-19.834 -25.167 -30.501 -46.5l-71 47c8 20 14.333 35 19 45
c29.333 62.667 73.333 94 132 94c22.667 0 54.667 -8.16699 96 -24.5s72.666 -24.5 93.999 -24.5c17.333 0 31.333 4.16699 42 12.5s20.667 21.166 30 38.499z" />
    <glyph glyph-name="uni00A0" unicode="&#xa0;" horiz-adv-x="233" 
 />
    <glyph glyph-name="exclamdown" unicode="&#xa1;" horiz-adv-x="315" 
d="M279 388c0 -30 -11.333 -56.5 -34 -79.5s-49 -34.5 -79 -34.5c-26 0 -47.167 8.5 -63.5 25.5s-24.5 38.5 -24.5 64.5c0 29.333 11.5 55.5 34.5 78.5s49.167 34.5 78.5 34.5c24.667 0 45.5 -8.5 62.5 -25.5s25.5 -38.167 25.5 -63.5zM245 227l-56 -450h-173l55 450h174z
" />
    <glyph glyph-name="cent" unicode="&#xa2;" horiz-adv-x="532" 
d="M417 590l-17.9961 -148c-26.667 -1.33301 -47.834 -11.333 -63.501 -30s-23.5 -41.667 -23.5 -69c0 -18.667 4.66699 -35 14 -49s23 -21 41 -21h11l-19 -161c-6 -1.33301 -14.333 -2 -25 -2s-18.334 -0.333008 -23.001 -1l-10 -86h-84l13 105
c-64.667 41.333 -97 103.666 -97 186.999c0 72.667 23 137.334 69 194.001c20.667 25.333 48 46 82 62l12 108h84l-10 -86c3.33301 0.666992 8.66602 1 15.999 1s17.666 -1.33301 30.999 -4z" />
    <glyph glyph-name="sterling" unicode="&#xa3;" horiz-adv-x="532" 
d="M503 584l-107.003 -95.998c-8 16 -16.333 28.333 -25 37s-20 13 -34 13c-15.333 0 -28.166 -6.16699 -38.499 -18.5s-15.5 -26.5 -15.5 -42.5c0 -10.667 2 -26.667 6 -48s6 -37.333 6 -48h159l-12 -93h-148c-4.66699 -46.667 -24 -89.667 -58 -129
c24 -1.33301 47.667 -8.33301 71 -21c12.667 -7.33301 24.334 -11 35.001 -11c20.667 0 39.334 10.667 56.001 32l82 -48c-41.333 -82 -98.333 -123 -171 -123c-27.333 0 -54.333 5.66699 -81 17l-18 8c-7.33301 3.33301 -12.833 5.66602 -16.5 6.99902
s-8.83398 2.66602 -15.501 3.99902s-13.667 2 -21 2c-26 0 -55.333 -10 -88 -30l-39 82c32.667 22 60.334 38 83.001 48c18.667 27.333 28 60 28 98c0 14.667 -2.66699 36 -8 64h-60l11 93h33c-8 44.667 -12 73 -12 85c0 60.667 21 111 63 151s93.333 60 154 60
c70.667 0 131 -31 181 -93z" />
    <glyph glyph-name="currency" unicode="&#xa4;" horiz-adv-x="667" 
d="M666 138l-70.001 -70.999l-103 103c-44.667 -30 -92 -45 -142 -45c-45.333 0 -92 14.667 -140 44l-102 -102l-70 70l103 103c-29.333 42.667 -44 88.667 -44 138c0 48 14.667 93.667 44 137l-104 104l71 71l104 -104c44.667 29.333 91.334 44 140.001 44
c47.333 0 93 -14.333 137 -43l103 102l70 -70l-102 -102c30 -46.667 45 -93 45 -139c0 -48.667 -14.333 -94.334 -43 -137.001zM487.999 377.001c0 37.333 -13.333 69.5 -40 96.5s-58.667 40.5 -96 40.5s-69.333 -13.5 -96 -40.5s-40 -59.167 -40 -96.5
s13.333 -69.333 40 -96s58.667 -40 96 -40s69.333 13.333 96 40s40 58.667 40 96z" />
    <glyph glyph-name="yen" unicode="&#xa5;" horiz-adv-x="532" 
d="M567 667l-111 -212h78l-11 -94h-115l-34 -66h141l-12 -93h-146l-25 -202h-177l25 202h-157l11 93h152l-20 66h-124l12 94h84l-64 212h184c21.333 -104.667 34 -173.334 38 -206.001c20 54.667 49 123.334 87 206.001h184z" />
    <glyph glyph-name="brokenbar" unicode="&#xa6;" 
d="M318 335h-130v415h130v-415zM318 -250h-130v415h130v-415z" />
    <glyph glyph-name="section" unicode="&#xa7;" horiz-adv-x="525" 
d="M19 7l147.006 -0.00292969c0 -2 -0.333008 -5.16699 -1 -9.5s-1.16699 -8.16602 -1.5 -11.499s-0.5 -6.33301 -0.5 -9c0 -42 20.333 -63 61 -63c18.667 0 34.5 6.16699 47.5 18.5s19.5 27.833 19.5 46.5c0 6 -1.33301 12 -4 18s-5.33398 11 -8.00098 15
s-7.33398 8.5 -14.001 13.5s-11.5 8.5 -14.5 10.5s-8.66699 5.5 -17 10.5s-13.166 7.83301 -14.499 8.5c-5.33301 3.33301 -13 7.66602 -23 12.999l-27 15c-8 4.66699 -15.333 9.33398 -22 14.001c-32 20.667 -55.667 42.167 -71 64.5s-23 50.833 -23 85.5
c0 66 29.667 120 89 162c-14 20.667 -24.167 39.334 -30.5 56.001s-9.5 37.334 -9.5 62.001c0 62.667 23.333 113.834 70 153.501s102 59.5 166 59.5c51.333 0 92.166 -13.833 122.499 -41.5s45.5 -66.834 45.5 -117.501c0 -6.66699 -0.333008 -13.5 -1 -20.5
s-1.5 -15 -2.5 -24s-1.83301 -15.833 -2.5 -20.5h-140c2 14 3 28 3 42c0 40.667 -18 61 -54 61c-17.333 0 -31.833 -5.33301 -43.5 -16s-17.5 -24.667 -17.5 -42c0 -16.667 8.16699 -32.167 24.5 -46.5s36.166 -27.833 59.499 -40.5s46.666 -26.167 69.999 -40.5
s43.166 -33.166 59.499 -56.499s24.5 -50 24.5 -80c0 -63.333 -27.333 -115.333 -82 -156c36.667 -31.333 55 -72 55 -122c0 -66.667 -25 -122.334 -75 -167.001s-109 -67 -177 -67c-54.667 0 -100.334 14.833 -137.001 44.5s-55 71.167 -55 124.5
c0 6.66699 0.666992 16.167 2 28.5s2 20.5 2 24.5zM335.006 278.997c0 18 -5.33301 32 -16 42s-25 15 -43 15c-20 0 -37 -7 -51 -21s-21 -31 -21 -51c0 -18 5.16699 -32.333 15.5 -43s24.5 -16 42.5 -16c20.667 0 38 7.16699 52 21.5s21 31.833 21 52.5z" />
    <glyph glyph-name="dieresis" unicode="&#xa8;" 
d="M463 610c0 -20.667 -8.16797 -39.167 -24.501 -55.5s-35.166 -24.5 -56.499 -24.5c-18 0 -33 6.16699 -45 18.5s-18 27.5 -18 45.5c0 21.333 8 40 24 56s34.667 24 56 24c18.667 0 34 -6 46 -18s18 -27.333 18 -46zM272.999 602c0 -5.33301 -1.66699 -12.001 -5 -20.001
c-6 -15.333 -16 -27.833 -30 -37.5s-29 -14.5 -45 -14.5c-18.667 0 -34 6 -46 18s-18 27.333 -18 46c0 21.333 8.16699 40 24.5 56s35.166 24 56.499 24c20.667 0 36.334 -6.66699 47.001 -20s16 -30.666 16 -51.999z" />
    <glyph glyph-name="copyright" unicode="&#xa9;" horiz-adv-x="760" 
d="M740 333c0 -96 -33.666 -178 -100.999 -246s-149 -102 -245 -102s-178 34.167 -246 102.5s-102 150.5 -102 246.5s34.167 178 102.5 246s150.5 102 246.5 102c95.333 0 176.666 -34.333 243.999 -103s101 -150.667 101 -246zM660.001 333
c0 75.333 -25.667 140.168 -77 194.501s-114.333 81.5 -189 81.5s-138 -27 -190 -81s-78 -118.667 -78 -194c0 -74.667 26 -139.5 78 -194.5s115.333 -82.5 190 -82.5s137.667 27.167 189 81.5s77 119.166 77 194.499zM497.001 270.002l-8 -128
c-26 -10.667 -50.667 -16 -74 -16c-56.667 0 -100.667 19.667 -132 59s-47 88.333 -47 147c0 61.333 17 111.333 51 150s81.333 58 142 58c24 0 44.667 -3.66699 62 -11v-127c-2.66699 2 -7 5.83301 -13 11.5s-10.333 9.5 -13 11.5s-7 4.16699 -13 6.5s-12.667 3.5 -20 3.5
c-24 0 -41.167 -10.167 -51.5 -30.5s-15.5 -43.833 -15.5 -70.5c0 -26 5 -48.833 15 -68.5s26.667 -29.5 50 -29.5c4 0 7.83301 0.333008 11.5 1s7.33398 1.66699 11.001 3s6.66699 2.5 9 3.5s5.5 3 9.5 6s6.83301 5 8.5 6s4.66699 3.5 9 7.5s7.16602 6.33301 8.49902 7z
" />
    <glyph glyph-name="ordfeminine" unicode="&#xaa;" horiz-adv-x="284" 
d="M279 372h-98.9971l8 45c-8 -16 -18.333 -28.333 -31 -37c-12.667 -9.33301 -25.667 -14 -39 -14c-20.667 0 -37.334 8.33301 -50.001 25c-13.333 17.333 -20 43 -20 77c0 32.667 4.16699 66.667 12.5 102s22.166 62.333 41.499 81c14.667 14.667 32 22 52 22
c14.667 0 26.667 -4.33301 36 -13s16.666 -20.667 21.999 -36l2 43h101zM269.003 297h-242l6 48h242zM147.003 475c0 -9.33301 1.66602 -16.002 4.99902 -20.002c2.66699 -4 6.66699 -6 12 -6c6.66699 0 13 5 19 15c4.66699 8.66699 9.33398 25.334 14.001 50.001
c3.33301 18.667 5 33.667 5 45c0 10.667 -1.33301 18.667 -4 24c-3.33301 5.33301 -7.66602 8 -12.999 8c-4.66699 0 -9.33398 -2.33301 -14.001 -7c-7.33301 -7.33301 -13.333 -23.666 -18 -48.999c-4 -22.667 -6 -42.667 -6 -60z" />
    <glyph glyph-name="guillemotleft" unicode="&#xab;" horiz-adv-x="485" 
d="M237 63l-85 -50l-124 226l179 226l71 -66l-134 -168zM437 63l-85 -50l-124 226l179 226l71 -66l-134 -168z" />
    <glyph glyph-name="logicalnot" unicode="&#xac;" 
d="M455 0h-130v150h-303v117h433v-267z" />
    <glyph glyph-name="uni00AD" unicode="&#xad;" horiz-adv-x="317" 
d="M262 186h-217l16 134h217z" />
    <glyph glyph-name="registered" unicode="&#xae;" horiz-adv-x="760" 
d="M543 154h-117l-54 143v-143h-109v375h109c45.333 0 82.333 -10.167 111 -30.5s43 -52.5 43 -96.5c0 -45.333 -20.333 -76.333 -61 -93zM372 357h5c12 0 21.667 4.33301 29 13s11 19 11 31c0 26.667 -15 40 -45 40v-84zM660 333c0 75.333 -25.667 140.168 -77 194.501
s-114.333 81.5 -189 81.5s-138 -27 -190 -81s-78 -118.667 -78 -194c0 -74.667 26 -139.5 78 -194.5s115.333 -82.5 190 -82.5s137.667 27.167 189 81.5s77 119.166 77 194.499zM740 333.002c0 -96 -33.666 -178 -100.999 -246s-149 -102 -245 -102s-178 34.167 -246 102.5
s-102 150.5 -102 246.5s34.167 178 102.5 246s150.5 102 246.5 102c95.333 0 176.666 -34.333 243.999 -103s101 -150.667 101 -246z" />
    <glyph glyph-name="macron" unicode="&#xaf;" 
d="M469 647l-12 -94h-335l12 94h335z" />
    <glyph glyph-name="degree" unicode="&#xb0;" 
d="M439 509c0 -42.667 -15.167 -78.833 -45.5 -108.5s-66.833 -44.5 -109.5 -44.5c-42 0 -78.167 15 -108.5 45s-45.5 66 -45.5 108s15.167 77.667 45.5 107s66.5 44 108.5 44c42.667 0 79.167 -14.667 109.5 -44s45.5 -65 45.5 -107zM361 509.001
c0 20.667 -7.5 38.334 -22.5 53.001s-33.167 22 -54.5 22c-20.667 0 -38.5 -7.33301 -53.5 -22s-22.5 -32.334 -22.5 -53.001s7.33301 -38.5 22 -53.5s32.667 -22.5 54 -22.5s39.5 7.33301 54.5 22s22.5 32.667 22.5 54z" />
    <glyph glyph-name="plusminus" unicode="&#xb1;" 
d="M471 357h-152v-154h-130v154h-151v120h151v153h130v-153h152v-120zM471 50h-433v120h433v-120z" />
    <glyph glyph-name="twosuperior" unicode="&#xb2;" horiz-adv-x="347" 
d="M193 519h-110c3.33301 44.667 18.833 81.667 46.5 111s63.167 44 106.5 44c35.333 0 63.666 -10 84.999 -30s32 -47.667 32 -83c0 -38 -11.333 -72.833 -34 -104.5s-53 -64.167 -91 -97.5c32 2 64 3 96 3l-11 -95h-282l130 147c16 18 28.333 32.333 37 43
s18.334 26 29.001 46s16 38 16 54c0 16.667 -6.33301 25 -19 25c-18.667 0 -29 -21 -31 -63z" />
    <glyph glyph-name="threesuperior" unicode="&#xb3;" horiz-adv-x="347" 
d="M193 550l-108.001 0.000976562c7.33301 37.333 23.833 67.333 49.5 90s57.167 34 94.5 34c32.667 0 60.167 -9.33301 82.5 -28s33.5 -44 33.5 -76c0 -42.667 -19 -75 -57 -97c27.333 -16.667 41 -42.334 41 -77.001c0 -39.333 -15.167 -71.833 -45.5 -97.5
s-65.5 -38.5 -105.5 -38.5c-33.333 0 -62.166 8.66699 -86.499 26s-36.5 42 -36.5 74c0 6 0.666992 15 2 27h110c-0.666992 -2.66699 -1 -7 -1 -13c0 -14.667 7 -22 21 -22c10 0 17.833 4.16699 23.5 12.5s8.5 17.833 8.5 28.5c0 22 -12 33 -36 33
c-5.33301 0 -12.666 -0.666992 -21.999 -2l11 89c1.33301 0 3.66602 -0.166992 6.99902 -0.5s6 -0.5 8 -0.5c31.333 0 47 15.333 47 46c0 16 -5.66699 24 -17 24c-12 0 -20 -10.667 -24 -32z" />
    <glyph glyph-name="acute" unicode="&#xb4;" 
d="M437 678l-105 -148h-98l65 148h138z" />
    <glyph glyph-name="mu" unicode="&#xb5;" horiz-adv-x="582" 
d="M515 0h-156.003l8 64c-9.33301 -22 -21.666 -39.667 -36.999 -53c-16.667 -14 -37 -21 -61 -21c-26 0 -46.667 7.66699 -62 23c-14 14 -24.333 31.667 -31 53l-34 -281h-156l83 682h172l-27 -219c-2 -24 -3 -38 -3 -42c0 -26.667 6.33301 -48 19 -64
c13.333 -16 31 -24 53 -24c18.667 0 35.334 6.66699 50.001 20c20.667 19.333 34.334 57.333 41.001 114l26 215h172z" />
    <glyph glyph-name="mu" unicode="&#x3bc;" horiz-adv-x="582" 
d="M515 0h-156.003l8 64c-9.33301 -22 -21.666 -39.667 -36.999 -53c-16.667 -14 -37 -21 -61 -21c-26 0 -46.667 7.66699 -62 23c-14 14 -24.333 31.667 -31 53l-34 -281h-156l83 682h172l-27 -219c-2 -24 -3 -38 -3 -42c0 -26.667 6.33301 -48 19 -64
c13.333 -16 31 -24 53 -24c18.667 0 35.334 6.66699 50.001 20c20.667 19.333 34.334 57.333 41.001 114l26 215h172z" />
    <glyph glyph-name="paragraph" unicode="&#xb6;" horiz-adv-x="667" 
d="M647 667l-12 -100h-73l-81 -667h-110l81 667h-83l-82 -667h-110l52 421h-13c-46.667 0 -84.667 12.833 -114 38.5s-44 61.5 -44 107.5c0 58.667 20.333 106.667 61 144s105 56 193 56h335z" />
    <glyph glyph-name="periodcentered" unicode="&#xb7;" horiz-adv-x="322" 
d="M291 353c0 -34.667 -13.167 -65 -39.5 -91s-56.833 -39 -91.5 -39c-29.333 0 -53.833 9.83301 -73.5 29.5s-29.5 44.167 -29.5 73.5c0 34.667 13 65.167 39 91.5s56.333 39.5 91 39.5c30 0 54.833 -9.83301 74.5 -29.5s29.5 -44.5 29.5 -74.5z" />
    <glyph glyph-name="cedilla" unicode="&#xb8;" 
d="M307 -106l-126 -117l-71 54l102 122z" />
    <glyph glyph-name="onesuperior" unicode="&#xb9;" horiz-adv-x="347" 
d="M300 667l-49 -400h-112l37 303h-43l12 97h155z" />
    <glyph glyph-name="ordmasculine" unicode="&#xba;" horiz-adv-x="284" 
d="M54 505c0 54 16.333 97.335 49 130.002c24.667 25.333 56 38 94 38c32 0 58 -10.333 78 -31c21.333 -22.667 32 -54 32 -94c0 -58.667 -16.333 -104.334 -49 -137.001c-24.667 -24.667 -56 -37 -94 -37c-32 0 -57.333 10.333 -76 31
c-22.667 23.333 -34 56.666 -34 99.999zM273 297.002h-246l6 48h246zM189 598.002c-5.33301 0 -10.333 -2.33203 -15 -6.99902c-8 -8 -14.333 -24.333 -19 -49c-3.33301 -20 -5 -37.667 -5 -53c0 -16 2.33301 -26.667 7 -32c4 -4.66699 8.66699 -7 14 -7
s10.333 2.33301 15 7c7.33301 6.66699 13.333 20.667 18 42c4.66699 22 7 41 7 57c0 13.333 -2 23.666 -6 30.999s-9.33301 11 -16 11z" />
    <glyph glyph-name="guillemotright" unicode="&#xbb;" horiz-adv-x="485" 
d="M11 79l133 168l-92 168l85 50l123 -226l-178 -226zM211 79l133 168l-92 168l85 50l123 -226l-178 -226z" />
    <glyph glyph-name="onequarter" unicode="&#xbc;" horiz-adv-x="831" 
d="M796 169l-11 -89h-34l-10 -80h-112l10 80h-145l10 86l151 234h135l-28 -231h34zM300 667l-49 -400h-112l37 303h-43l12 97h155zM600 169h53.999c8 58.667 13.333 94.334 16 107.001c-27.333 -46.667 -50.666 -82.334 -69.999 -107.001zM649.999 667l-370 -667h-92
l372 667h90z" />
    <glyph glyph-name="onehalf" unicode="&#xbd;" horiz-adv-x="831" 
d="M643 252h-108.999c3.33301 44.667 18.833 81.667 46.5 111s63.167 44 106.5 44c35.333 0 63.666 -10 84.999 -30s32 -47.667 32 -83c0 -38 -11.333 -72.833 -34 -104.5s-53 -64.167 -91 -97.5c32 2 64 3 96 3l-11 -95h-282l130 147c54.667 62 82 109.667 82 143
c0 16.667 -6.66699 25 -20 25c-18.667 0 -29 -21 -31 -63zM300.001 667l-49 -400h-112l37 303h-43l12 97h155zM650.001 667l-370 -667h-92l372 667h90z" />
    <glyph glyph-name="threequarters" unicode="&#xbe;" horiz-adv-x="831" 
d="M796 169l-11 -89h-34l-10 -80h-112l10 80h-145l10 86l150 234h136l-28 -231h34zM193 550l-108.001 0.000976562c7.33301 37.333 23.833 67.333 49.5 90s57.167 34 94.5 34c32.667 0 60.167 -9.33301 82.5 -28s33.5 -44 33.5 -76c0 -42.667 -19 -75 -57 -97
c27.333 -16.667 41 -42.334 41 -77.001c0 -39.333 -15.167 -71.833 -45.5 -97.5s-65.5 -38.5 -105.5 -38.5c-33.333 0 -62.166 8.66699 -86.499 26s-36.5 42 -36.5 74c0 6 0.666992 15 2 27h110c-0.666992 -2.66699 -1 -7 -1 -13c0 -14.667 7 -22 21 -22
c10 0 17.833 4.16699 23.5 12.5s8.5 17.833 8.5 28.5c0 22 -12 33 -36 33c-5.33301 0 -12.666 -0.666992 -21.999 -2l11 89c1.33301 0 3.66602 -0.166992 6.99902 -0.5s6 -0.5 8 -0.5c31.333 0 47 15.333 47 46c0 16 -5.66699 24 -17 24c-12 0 -20 -10.667 -24 -32z
M598.999 169.001l55.001 0.000976562c9.33301 66 14.666 101.667 15.999 107c-28 -46.667 -51.667 -82.334 -71 -107.001zM678 667.002l-370 -667h-92l372 667h90z" />
    <glyph glyph-name="questiondown" unicode="&#xbf;" horiz-adv-x="501" 
d="M370 387c0 -30 -11.166 -56.334 -33.499 -79.001s-48.5 -34 -78.5 -34c-26 0 -47.167 8.5 -63.5 25.5s-24.5 38.5 -24.5 64.5c0 29.333 11.5 55.5 34.5 78.5s49.167 34.5 78.5 34.5c25.333 0 46.166 -8.66699 62.499 -26s24.5 -38.666 24.5 -63.999zM263.001 -11.001
l171.002 0.000976562c-3.33301 -28.667 -7.83301 -52 -13.5 -70s-15.834 -37.667 -30.501 -59c-21.333 -30 -49.166 -53.333 -83.499 -70s-70.5 -25 -108.5 -25c-57.333 0 -103 17.333 -137 52s-51 80.667 -51 138c0 48 13.167 91.167 39.5 129.5
s63.166 64.166 110.499 77.499l9 65h169l-21 -160c-10.667 1.33301 -19.334 2 -26.001 2c-69.333 0 -104 -34 -104 -102c0 -36 10 -54 30 -54c24.667 0 40 25.333 46 76z" />
    <glyph glyph-name="Agrave" unicode="&#xc0;" horiz-adv-x="524" 
d="M491 0h-183l-3 85h-119l-25 -85h-184l240 667h217zM300 305v86.999c0 0.666992 1 39 3 115c-2 -7.33301 -5.5 -21.833 -10.5 -43.5s-9.16699 -38.5 -12.5 -50.5l-24 -86c-12 -43.333 -21.667 -76.666 -29 -99.999h75c-1.33301 34.667 -2 60.667 -2 78zM380 719.999h-98
l-68 148h138z" />
    <glyph glyph-name="Aacute" unicode="&#xc1;" horiz-adv-x="524" 
d="M491 0h-183l-3 85h-119l-25 -85h-184l240 667h217zM300 305v86.999c0 0.666992 1 39 3 115c-2 -7.33301 -5.5 -21.833 -10.5 -43.5s-9.16699 -38.5 -12.5 -50.5l-24 -86c-12 -43.333 -21.667 -76.666 -29 -99.999h75c-1.33301 34.667 -2 60.667 -2 78zM467 867.999
l-105 -148h-98l65 148h138z" />
    <glyph glyph-name="Acircumflex" unicode="&#xc2;" horiz-adv-x="524" 
d="M491 0h-183l-3 85h-119l-25 -85h-184l240 667h217zM300 305v86.999c0 0.666992 1 39 3 115c-2 -7.33301 -5.5 -21.833 -10.5 -43.5s-9.16699 -38.5 -12.5 -50.5l-24 -86c-12 -43.333 -21.667 -76.666 -29 -99.999h75c-1.33301 34.667 -2 60.667 -2 78zM356 869.999
l124 -98l-65 -70l-71 55l-94 -57l-53 70z" />
    <glyph glyph-name="Atilde" unicode="&#xc3;" horiz-adv-x="524" 
d="M491 0h-183l-3 85h-119l-25 -85h-184l240 667h217zM300 305v86.999c0 0.666992 1 39 3 115c-2 -7.33301 -5.5 -21.833 -10.5 -43.5s-9.16699 -38.5 -12.5 -50.5l-24 -86c-12 -43.333 -21.667 -76.666 -29 -99.999h75c-1.33301 34.667 -2 60.667 -2 78zM413 854.999
l87.9971 -0.000976562c-3.33301 -37.333 -15.166 -68.833 -35.499 -94.5s-48.5 -38.5 -84.5 -38.5c-16.667 0 -37 5.5 -61 16.5s-40.667 16.5 -50 16.5c-16.667 0 -27 -11.667 -31 -35h-89c2.66699 22.667 6.66699 41.334 12 56.001c8.66699 22 22.334 40.167 41.001 54.5
s39.334 21.5 62.001 21.5c18 0 39.167 -5.5 63.5 -16.5s41.833 -16.5 52.5 -16.5c17.333 0 28 12 32 36z" />
    <glyph glyph-name="Adieresis" unicode="&#xc4;" horiz-adv-x="524" 
d="M491 0h-183l-3 85h-119l-25 -85h-184l240 667h217zM300 305v86.999c0 0.666992 1 39 3 115c-2 -7.33301 -5.5 -21.833 -10.5 -43.5s-9.16699 -38.5 -12.5 -50.5l-24 -86c-12 -43.333 -21.667 -76.666 -29 -99.999h75c-1.33301 34.667 -2 60.667 -2 78zM503 799.999
c0 -20.667 -8.16797 -39.167 -24.501 -55.5s-35.166 -24.5 -56.499 -24.5c-18 0 -33 6.16699 -45 18.5s-18 27.5 -18 45.5c0 21.333 8 40 24 56s34.667 24 56 24c18.667 0 34 -6 46 -18s18 -27.333 18 -46zM312.999 791.999c0 -5.33301 -1.66699 -12.001 -5 -20.001
c-6 -15.333 -16 -27.833 -30 -37.5s-29 -14.5 -45 -14.5c-18.667 0 -34 6 -46 18s-18 27.333 -18 46c0 21.333 8.16699 40 24.5 56s35.166 24 56.499 24c20.667 0 36.334 -6.66699 47.001 -20s16 -30.666 16 -51.999z" />
    <glyph glyph-name="Aring" unicode="&#xc5;" horiz-adv-x="524" 
d="M491 0h-183l-3 85h-119l-25 -85h-184l240 667h217zM300 305v86.999c0 0.666992 1 39 3 115c-2 -7.33301 -5.5 -21.833 -10.5 -43.5s-9.16699 -38.5 -12.5 -50.5l-24 -86c-12 -43.333 -21.667 -76.666 -29 -99.999h75c-1.33301 34.667 -2 60.667 -2 78zM238 809.999
c0 26.667 9.33105 49.335 27.998 68.002s41.334 28 68.001 28s49.334 -9.33301 68.001 -28s28 -41.334 28 -68.001s-9.33301 -49.334 -28 -68.001s-41 -28 -67 -28c-26.667 0 -49.5 9.5 -68.5 28.5s-28.5 41.5 -28.5 67.5zM296.998 810c0 -10.667 3.5 -19.5 10.5 -26.5
s15.833 -10.5 26.5 -10.5s19.5 3.5 26.5 10.5s10.5 15.833 10.5 26.5s-3.5 19.5 -10.5 26.5s-15.833 10.5 -26.5 10.5s-19.5 -3.5 -26.5 -10.5s-10.5 -15.833 -10.5 -26.5z" />
    <glyph glyph-name="AE" unicode="&#xc6;" horiz-adv-x="606" 
d="M630 667l-19 -157h-177l3 -97h148l-18 -151h-122l4 -102h119l-20 -160h-252l-2 85h-114l-24 -85h-184l234 667h424zM219 223h74c-1.33301 81.333 -2 142.666 -2 183.999c0 22 0.666992 55 2 99c-11.333 -51.333 -36 -145.666 -74 -282.999z" />
    <glyph glyph-name="Ccedilla" unicode="&#xc7;" horiz-adv-x="438" 
d="M461 662l-23.001 -190.001c-23.333 26.667 -49 40 -77 40c-33.333 0 -61.166 -13.167 -83.499 -39.5s-37.333 -55.333 -45 -87s-11.5 -63.834 -11.5 -96.501c0 -36.667 7.33301 -67 22 -91s39 -36 73 -36c31.333 0 63.666 14.333 96.999 43l-34 -193
c-39.333 -16 -75.666 -24 -108.999 -24c-75.333 0 -132.833 25.833 -172.5 77.5s-59.5 116.5 -59.5 194.5c0 51.333 7 101.333 21 150s34.333 93.334 61 134.001s62 73.334 106 98.001s93 37 147 37c32 0 61.333 -5.66699 88 -17zM330.999 -113.001l-126 -124l-77 53
l107 137z" />
    <glyph glyph-name="Egrave" unicode="&#xc8;" horiz-adv-x="405" 
d="M430 667l-20 -157h-152l-12 -97h137l-19 -151h-136l-13 -102h152l-19 -160h-330l82 667h330zM340 720h-98l-68 148h138z" />
    <glyph glyph-name="Eacute" unicode="&#xc9;" horiz-adv-x="405" 
d="M430 667l-20 -157h-152l-12 -97h137l-19 -151h-136l-13 -102h152l-19 -160h-330l82 667h330zM417 868l-105 -148h-98l65 148h138z" />
    <glyph glyph-name="Ecircumflex" unicode="&#xca;" horiz-adv-x="405" 
d="M430 667l-20 -157h-152l-12 -97h137l-19 -151h-136l-13 -102h152l-19 -160h-330l82 667h330zM301 870l124 -98l-65 -70l-71 55l-94 -57l-53 70z" />
    <glyph glyph-name="Edieresis" unicode="&#xcb;" horiz-adv-x="405" 
d="M430 667l-20 -157h-152l-12 -97h137l-19 -151h-136l-13 -102h152l-19 -160h-330l82 667h330zM443 800c0 -20.667 -8.16797 -39.167 -24.501 -55.5s-35.166 -24.5 -56.499 -24.5c-18 0 -33 6.16699 -45 18.5s-18 27.5 -18 45.5c0 21.333 8 40 24 56s34.667 24 56 24
c18.667 0 34 -6 46 -18s18 -27.333 18 -46zM252.999 792c0 -5.33301 -1.66699 -12.001 -5 -20.001c-6 -15.333 -16 -27.833 -30 -37.5s-29 -14.5 -45 -14.5c-18.667 0 -34 6 -46 18s-18 27.333 -18 46c0 21.333 8.16699 40 24.5 56s35.166 24 56.499 24
c20.667 0 36.334 -6.66699 47.001 -20s16 -30.666 16 -51.999z" />
    <glyph glyph-name="Igrave" unicode="&#xcc;" horiz-adv-x="269" 
d="M277 667l-82 -667h-177l82 667h177zM255 720h-98l-68 148h138z" />
    <glyph glyph-name="Iacute" unicode="&#xcd;" horiz-adv-x="269" 
d="M277 667l-82 -667h-177l82 667h177zM322 868l-105 -148h-98l65 148h138z" />
    <glyph glyph-name="Icircumflex" unicode="&#xce;" horiz-adv-x="269" 
d="M277 667l-82 -667h-177l82 667h177zM221 870l124 -98l-65 -70l-71 55l-94 -57l-53 70z" />
    <glyph glyph-name="Idieresis" unicode="&#xcf;" horiz-adv-x="269" 
d="M277 667l-82 -667h-177l82 667h177zM368 800c0 -20.667 -8.16797 -39.167 -24.501 -55.5s-35.166 -24.5 -56.499 -24.5c-18 0 -33 6.16699 -45 18.5s-18 27.5 -18 45.5c0 21.333 8 40 24 56s34.667 24 56 24c18.667 0 34 -6 46 -18s18 -27.333 18 -46zM177.999 792
c0 -5.33301 -1.66699 -12.001 -5 -20.001c-6 -15.333 -16 -27.833 -30 -37.5s-29 -14.5 -45 -14.5c-18.667 0 -34 6 -46 18s-18 27.333 -18 46c0 21.333 8.16699 40 24.5 56s35.166 24 56.499 24c20.667 0 36.334 -6.66699 47.001 -20s16 -30.666 16 -51.999z" />
    <glyph glyph-name="Eth" unicode="&#xd0;" horiz-adv-x="533" 
d="M103 667l153.002 0.000976562c68.667 0 123.667 -14.667 165 -44c33.333 -23.333 58.166 -55.333 74.499 -96s24.5 -83.334 24.5 -128.001c0 -106.667 -25 -197 -75 -271c-30.667 -46 -66.834 -78.833 -108.501 -98.5s-91.5 -29.5 -149.5 -29.5h-166l35 287h-39l14 110
h39zM234.002 287.001l-16 -126c34 2 61 19.333 81 52c25.333 42 38 96.667 38 164c0 82.667 -25.667 124 -77 124l-13 -104h50l-14 -110h-49z" />
    <glyph glyph-name="Ntilde" unicode="&#xd1;" horiz-adv-x="554" 
d="M562 667l-82.001 -667h-169l-59 245c-12.667 54 -22 100.333 -28 139l-3 -53l-3 -53c-1.33301 -23.333 -11.666 -116 -30.999 -278h-169l82 667h169l60 -234c5.33301 -21.333 12 -52.5 20 -93.5s13 -65.833 15 -74.5c0 117.333 3.33301 201.333 10 252l19 150h169z
M437.999 855l87.9971 -0.000976562c-3.33301 -37.333 -15.166 -68.833 -35.499 -94.5s-48.5 -38.5 -84.5 -38.5c-17.333 0 -38 5.5 -62 16.5s-40.333 16.5 -49 16.5c-16.667 0 -27 -11.667 -31 -35h-89c2.66699 22.667 6.66699 41.334 12 56.001
c8.66699 22 22.334 40.167 41.001 54.5s39.334 21.5 62.001 21.5c18 0 39.167 -5.5 63.5 -16.5s41.833 -16.5 52.5 -16.5c17.333 0 28 12 32 36z" />
    <glyph glyph-name="Ograve" unicode="&#xd2;" horiz-adv-x="558" 
d="M546 422c0 -67.333 -8.66699 -130.999 -26 -190.999c-20.667 -68.667 -53.834 -126.334 -99.501 -173.001s-101.167 -70 -166.5 -70c-33.333 0 -65 8 -95 24s-54.667 37.667 -74 65c-31.333 46 -47 108 -47 186c0 66.667 9.66699 129 29 187
c22.667 65.333 57.334 119.833 104.001 163.5s102 65.5 166 65.5c68 0 119.833 -25.167 155.5 -75.5s53.5 -110.833 53.5 -181.5zM362 408.001c0 68.667 -15.666 102.999 -46.999 102.999c-12.667 0 -24.334 -6 -35.001 -18s-19.334 -27.167 -26.001 -45.5
s-12 -35.166 -16 -50.499s-7 -29.333 -9 -42c-4.66699 -27.333 -7 -57 -7 -89c0 -72.667 16 -109 48 -109c12.667 0 24.5 6.16699 35.5 18.5s19.833 28 26.5 47s11.834 36.167 15.501 51.5s6.5 30 8.5 44c4 30 6 60 6 90zM395.001 720h-98l-68 148h138z" />
    <glyph glyph-name="Oacute" unicode="&#xd3;" horiz-adv-x="558" 
d="M546 422c0 -67.333 -8.66699 -130.999 -26 -190.999c-20.667 -68.667 -53.834 -126.334 -99.501 -173.001s-101.167 -70 -166.5 -70c-33.333 0 -65 8 -95 24s-54.667 37.667 -74 65c-31.333 46 -47 108 -47 186c0 66.667 9.66699 129 29 187
c22.667 65.333 57.334 119.833 104.001 163.5s102 65.5 166 65.5c68 0 119.833 -25.167 155.5 -75.5s53.5 -110.833 53.5 -181.5zM362 408.001c0 68.667 -15.666 102.999 -46.999 102.999c-12.667 0 -24.334 -6 -35.001 -18s-19.334 -27.167 -26.001 -45.5
s-12 -35.166 -16 -50.499s-7 -29.333 -9 -42c-4.66699 -27.333 -7 -57 -7 -89c0 -72.667 16 -109 48 -109c12.667 0 24.5 6.16699 35.5 18.5s19.833 28 26.5 47s11.834 36.167 15.501 51.5s6.5 30 8.5 44c4 30 6 60 6 90zM492.001 868l-105 -148h-98l65 148h138z" />
    <glyph glyph-name="Ocircumflex" unicode="&#xd4;" horiz-adv-x="558" 
d="M546 422c0 -67.333 -8.66699 -130.999 -26 -190.999c-20.667 -68.667 -53.834 -126.334 -99.501 -173.001s-101.167 -70 -166.5 -70c-33.333 0 -65 8 -95 24s-54.667 37.667 -74 65c-31.333 46 -47 108 -47 186c0 66.667 9.66699 129 29 187
c22.667 65.333 57.334 119.833 104.001 163.5s102 65.5 166 65.5c68 0 119.833 -25.167 155.5 -75.5s53.5 -110.833 53.5 -181.5zM362 408.001c0 68.667 -15.666 102.999 -46.999 102.999c-12.667 0 -24.334 -6 -35.001 -18s-19.334 -27.167 -26.001 -45.5
s-12 -35.166 -16 -50.499s-7 -29.333 -9 -42c-4.66699 -27.333 -7 -57 -7 -89c0 -72.667 16 -109 48 -109c12.667 0 24.5 6.16699 35.5 18.5s19.833 28 26.5 47s11.834 36.167 15.501 51.5s6.5 30 8.5 44c4 30 6 60 6 90zM371.001 870l124 -98l-65 -70l-71 55l-94 -57
l-53 70z" />
    <glyph glyph-name="Otilde" unicode="&#xd5;" horiz-adv-x="558" 
d="M546 422c0 -67.333 -8.66699 -130.999 -26 -190.999c-20.667 -68.667 -53.834 -126.334 -99.501 -173.001s-101.167 -70 -166.5 -70c-33.333 0 -65 8 -95 24s-54.667 37.667 -74 65c-31.333 46 -47 108 -47 186c0 66.667 9.66699 129 29 187
c22.667 65.333 57.334 119.833 104.001 163.5s102 65.5 166 65.5c68 0 119.833 -25.167 155.5 -75.5s53.5 -110.833 53.5 -181.5zM362 408.001c0 68.667 -15.666 102.999 -46.999 102.999c-12.667 0 -24.334 -6 -35.001 -18s-19.334 -27.167 -26.001 -45.5
s-12 -35.166 -16 -50.499s-7 -29.333 -9 -42c-4.66699 -27.333 -7 -57 -7 -89c0 -72.667 16 -109 48 -109c12.667 0 24.5 6.16699 35.5 18.5s19.833 28 26.5 47s11.834 36.167 15.501 51.5s6.5 30 8.5 44c4 30 6 60 6 90zM438.001 855l87.9971 -0.000976562
c-3.33301 -37.333 -15.166 -68.833 -35.499 -94.5s-48.5 -38.5 -84.5 -38.5c-17.333 0 -38 5.5 -62 16.5s-40.333 16.5 -49 16.5c-16.667 0 -27 -11.667 -31 -35h-89c2.66699 22.667 6.66699 41.334 12 56.001c8.66699 22 22.334 40.167 41.001 54.5
s39.334 21.5 62.001 21.5c18 0 39.167 -5.5 63.5 -16.5s41.833 -16.5 52.5 -16.5c17.333 0 28 12 32 36z" />
    <glyph glyph-name="Odieresis" unicode="&#xd6;" horiz-adv-x="558" 
d="M546 422c0 -67.333 -8.66699 -130.999 -26 -190.999c-20.667 -68.667 -53.834 -126.334 -99.501 -173.001s-101.167 -70 -166.5 -70c-33.333 0 -65 8 -95 24s-54.667 37.667 -74 65c-31.333 46 -47 108 -47 186c0 66.667 9.66699 129 29 187
c22.667 65.333 57.334 119.833 104.001 163.5s102 65.5 166 65.5c68 0 119.833 -25.167 155.5 -75.5s53.5 -110.833 53.5 -181.5zM362 408.001c0 68.667 -15.666 102.999 -46.999 102.999c-12.667 0 -24.334 -6 -35.001 -18s-19.334 -27.167 -26.001 -45.5
s-12 -35.166 -16 -50.499s-7 -29.333 -9 -42c-4.66699 -27.333 -7 -57 -7 -89c0 -72.667 16 -109 48 -109c12.667 0 24.5 6.16699 35.5 18.5s19.833 28 26.5 47s11.834 36.167 15.501 51.5s6.5 30 8.5 44c4 30 6 60 6 90zM518.001 800
c0 -20.667 -8.16797 -39.167 -24.501 -55.5s-35.166 -24.5 -56.499 -24.5c-18 0 -33 6.16699 -45 18.5s-18 27.5 -18 45.5c0 21.333 8 40 24 56s34.667 24 56 24c18.667 0 34 -6 46 -18s18 -27.333 18 -46zM328 792c0 -5.33301 -1.66699 -12.001 -5 -20.001
c-6 -15.333 -16 -27.833 -30 -37.5s-29 -14.5 -45 -14.5c-18.667 0 -34 6 -46 18s-18 27.333 -18 46c0 21.333 8.16699 40 24.5 56s35.166 24 56.499 24c20.667 0 36.334 -6.66699 47.001 -20s16 -30.666 16 -51.999z" />
    <glyph glyph-name="multiply" unicode="&#xd7;" 
d="M374 144l-111 111l-111 -111l-85 85l111 111l-111 111l85 85l111 -111l111 111l85 -85l-111 -111l111 -111z" />
    <glyph glyph-name="Oslash" unicode="&#xd8;" horiz-adv-x="586" 
d="M606 631l-68.001 -85c14.667 -44.667 22 -89.667 22 -135c0 -58.667 -8 -116 -24 -172c-22 -70 -56.833 -129.333 -104.5 -178s-105.167 -73 -172.5 -73c-53.333 0 -101 20 -143 60l-54 -68l-57 44l71 92c-18 46 -27 91.333 -27 136c0 64 8 122.667 24 176
c20.667 70.667 54.5 130.167 101.5 178.5s104.5 72.5 172.5 72.5c56.667 0 106.334 -22 149.001 -66l51 64zM228.999 301l138.001 174c-6.66699 27.333 -20.667 41 -42 41c-44.667 0 -76.334 -69.667 -95.001 -209c-0.666992 -2.66699 -1 -4.66699 -1 -6zM380 364
l-138.002 -174c4.66699 -26 18.334 -39 41.001 -39c16.667 0 31.334 8.16699 44.001 24.5s22.5 37.5 29.5 63.5s12.167 48.667 15.5 68s6 38.333 8 57z" />
    <glyph glyph-name="Ugrave" unicode="&#xd9;" horiz-adv-x="537" 
d="M545 667l-58 -472c-7.33301 -65.333 -35.666 -117 -84.999 -155c-44 -34.667 -95.667 -52 -155 -52c-61.333 0 -110.833 15.667 -148.5 47s-56.5 77 -56.5 137c0 16 1 32 3 48l55 447h177l-53 -431c-1.33301 -14.667 -2 -25.667 -2 -33c0 -30.667 13 -46 39 -46
c10.667 0 19.5 2.33301 26.5 7s12.333 11.5 16 20.5s6.16699 17 7.5 24s2.66602 16.167 3.99902 27.5l53 431h177zM394 720h-98l-68 148h138z" />
    <glyph glyph-name="Uacute" unicode="&#xda;" horiz-adv-x="537" 
d="M545 667l-58 -472c-7.33301 -65.333 -35.666 -117 -84.999 -155c-44 -34.667 -95.667 -52 -155 -52c-61.333 0 -110.833 15.667 -148.5 47s-56.5 77 -56.5 137c0 16 1 32 3 48l55 447h177l-53 -431c-1.33301 -14.667 -2 -25.667 -2 -33c0 -30.667 13 -46 39 -46
c10.667 0 19.5 2.33301 26.5 7s12.333 11.5 16 20.5s6.16699 17 7.5 24s2.66602 16.167 3.99902 27.5l53 431h177zM461 868l-105 -148h-98l65 148h138z" />
    <glyph glyph-name="Ucircumflex" unicode="&#xdb;" horiz-adv-x="537" 
d="M545 667l-58 -472c-7.33301 -65.333 -35.666 -117 -84.999 -155c-44 -34.667 -95.667 -52 -155 -52c-61.333 0 -110.833 15.667 -148.5 47s-56.5 77 -56.5 137c0 16 1 32 3 48l55 447h177l-53 -431c-1.33301 -14.667 -2 -25.667 -2 -33c0 -30.667 13 -46 39 -46
c10.667 0 19.5 2.33301 26.5 7s12.333 11.5 16 20.5s6.16699 17 7.5 24s2.66602 16.167 3.99902 27.5l53 431h177zM356 870l124 -98l-65 -70l-71 55l-94 -57l-53 70z" />
    <glyph glyph-name="Udieresis" unicode="&#xdc;" horiz-adv-x="537" 
d="M545 667l-58 -472c-7.33301 -65.333 -35.666 -117 -84.999 -155c-44 -34.667 -95.667 -52 -155 -52c-61.333 0 -110.833 15.667 -148.5 47s-56.5 77 -56.5 137c0 16 1 32 3 48l55 447h177l-53 -431c-1.33301 -14.667 -2 -25.667 -2 -33c0 -30.667 13 -46 39 -46
c10.667 0 19.5 2.33301 26.5 7s12.333 11.5 16 20.5s6.16699 17 7.5 24s2.66602 16.167 3.99902 27.5l53 431h177zM503 800c0 -20.667 -8.16797 -39.167 -24.501 -55.5s-35.166 -24.5 -56.499 -24.5c-18 0 -33 6.16699 -45 18.5s-18 27.5 -18 45.5c0 21.333 8 40 24 56
s34.667 24 56 24c18.667 0 34 -6 46 -18s18 -27.333 18 -46zM312.999 792c0 -5.33301 -1.66699 -12.001 -5 -20.001c-6 -15.333 -16 -27.833 -30 -37.5s-29 -14.5 -45 -14.5c-18.667 0 -34 6 -46 18s-18 27.333 -18 46c0 21.333 8.16699 40 24.5 56s35.166 24 56.499 24
c20.667 0 36.334 -6.66699 47.001 -20s16 -30.666 16 -51.999z" />
    <glyph glyph-name="Yacute" unicode="&#xdd;" horiz-adv-x="493" 
d="M547 667l-200 -385l-35 -282h-177l35 282l-116 385h185c20 -97.333 32.333 -166 37 -206c14 37.333 43 106 87 206h184zM452 868l-105 -148h-98l65 148h138z" />
    <glyph glyph-name="Thorn" unicode="&#xde;" horiz-adv-x="498" 
d="M277 667l-11.001 -93c58.667 -1.33301 104.334 -10 137.001 -26c63.333 -30.667 95 -86.334 95 -167.001c0 -77.333 -24.333 -140.666 -73 -189.999c-43.333 -44 -105.333 -66 -186 -66h-28l-16 -125h-177l82 667h177zM228.999 275l9 0.000976562
c24 0 43.333 8.5 58 25.5s22 37.5 22 61.5c0 19.333 -5 35.166 -15 47.499s-24.333 18.5 -43 18.5c-5.33301 0 -9.33301 -0.333008 -12 -1z" />
    <glyph glyph-name="germandbls" unicode="&#xdf;" horiz-adv-x="518" 
d="M40 467h47.001c6.66699 58.667 15.667 101.667 27 129c17.333 42.667 46 77.5 86 104.5s82.667 40.5 128 40.5c49.333 0 91.5 -15.833 126.5 -47.5s52.5 -72.167 52.5 -121.5c0 -37.333 -9.5 -71.666 -28.5 -102.999s-45.5 -51.333 -79.5 -60
c24 -3.33301 42.333 -11.333 55 -24c27.333 -27.333 41 -67 41 -119c0 -30.667 -6.16699 -62.834 -18.5 -96.501s-28.166 -62.167 -47.499 -85.5c-44.667 -54 -106.334 -82 -185.001 -84l17 143c38 10 57 50.667 57 122c0 39.333 -11.333 60 -34 62l17 140
c15.333 1.33301 26.166 9.83301 32.499 25.5s9.5 32.5 9.5 50.5c0 28.667 -11 43 -33 43c-25.333 0 -40.333 -21 -45 -63l-64 -523h-171l40 327h-47z" />
    <glyph glyph-name="agrave" unicode="&#xe0;" horiz-adv-x="489" 
d="M479 467l-57 -467.005h-171c2 8.66699 4.66699 21.834 8 39.501s5.66602 30.834 6.99902 39.501c-35.333 -59.333 -78.666 -89 -129.999 -89c-22 0 -40.833 5.66699 -56.5 17s-27.334 26.333 -35.001 45s-13.167 37.334 -16.5 56.001s-5 38.334 -5 59.001
c0 46 4.66699 88.667 14 128c5.33301 22 12.333 43 21 63s19.5 39.333 32.5 58s29.167 33.5 48.5 44.5s40.333 16.5 63 16.5c26.667 0 47.334 -7.16699 62.001 -21.5s27 -35.166 37 -62.499c0 8 0.5 20.167 1.5 36.5s1.83301 28.833 2.5 37.5h174zM282 287.995
c0 30.667 -9.33301 46 -28 46c-20.667 0 -35.667 -17 -45 -51s-14 -65.667 -14 -95c0 -36.667 10.333 -55 31 -55c20 0 34.333 18.167 43 54.5s13 69.833 13 100.5zM345 529.995h-98l-68 148h138z" />
    <glyph glyph-name="aacute" unicode="&#xe1;" horiz-adv-x="489" 
d="M479 467l-57 -467.005h-171c2 8.66699 4.66699 21.834 8 39.501s5.66602 30.834 6.99902 39.501c-35.333 -59.333 -78.666 -89 -129.999 -89c-22 0 -40.833 5.66699 -56.5 17s-27.334 26.333 -35.001 45s-13.167 37.334 -16.5 56.001s-5 38.334 -5 59.001
c0 46 4.66699 88.667 14 128c5.33301 22 12.333 43 21 63s19.5 39.333 32.5 58s29.167 33.5 48.5 44.5s40.333 16.5 63 16.5c26.667 0 47.334 -7.16699 62.001 -21.5s27 -35.166 37 -62.499c0 8 0.5 20.167 1.5 36.5s1.83301 28.833 2.5 37.5h174zM282 287.995
c0 30.667 -9.33301 46 -28 46c-20.667 0 -35.667 -17 -45 -51s-14 -65.667 -14 -95c0 -36.667 10.333 -55 31 -55c20 0 34.333 18.167 43 54.5s13 69.833 13 100.5zM412 677.995l-105 -148h-98l65 148h138z" />
    <glyph glyph-name="acircumflex" unicode="&#xe2;" horiz-adv-x="489" 
d="M479 467l-57 -467.005h-171c2 8.66699 4.66699 21.834 8 39.501s5.66602 30.834 6.99902 39.501c-35.333 -59.333 -78.666 -89 -129.999 -89c-22 0 -40.833 5.66699 -56.5 17s-27.334 26.333 -35.001 45s-13.167 37.334 -16.5 56.001s-5 38.334 -5 59.001
c0 46 4.66699 88.667 14 128c5.33301 22 12.333 43 21 63s19.5 39.333 32.5 58s29.167 33.5 48.5 44.5s40.333 16.5 63 16.5c26.667 0 47.334 -7.16699 62.001 -21.5s27 -35.166 37 -62.499c0 8 0.5 20.167 1.5 36.5s1.83301 28.833 2.5 37.5h174zM282 287.995
c0 30.667 -9.33301 46 -28 46c-20.667 0 -35.667 -17 -45 -51s-14 -65.667 -14 -95c0 -36.667 10.333 -55 31 -55c20 0 34.333 18.167 43 54.5s13 69.833 13 100.5zM326 689.995l116 -117l-64 -63l-65 66l-90 -70l-53 67z" />
    <glyph glyph-name="atilde" unicode="&#xe3;" horiz-adv-x="489" 
d="M479 467l-57 -467.005h-171c2 8.66699 4.66699 21.834 8 39.501s5.66602 30.834 6.99902 39.501c-35.333 -59.333 -78.666 -89 -129.999 -89c-22 0 -40.833 5.66699 -56.5 17s-27.334 26.333 -35.001 45s-13.167 37.334 -16.5 56.001s-5 38.334 -5 59.001
c0 46 4.66699 88.667 14 128c5.33301 22 12.333 43 21 63s19.5 39.333 32.5 58s29.167 33.5 48.5 44.5s40.333 16.5 63 16.5c26.667 0 47.334 -7.16699 62.001 -21.5s27 -35.166 37 -62.499c0 8 0.5 20.167 1.5 36.5s1.83301 28.833 2.5 37.5h174zM282 287.995
c0 30.667 -9.33301 46 -28 46c-20.667 0 -35.667 -17 -45 -51s-14 -65.667 -14 -95c0 -36.667 10.333 -55 31 -55c20 0 34.333 18.167 43 54.5s13 69.833 13 100.5zM398 664.995l87.9971 -0.000976562c-3.33301 -37.333 -15.166 -68.833 -35.499 -94.5
s-48.5 -38.5 -84.5 -38.5c-17.333 0 -38 5.5 -62 16.5s-40.333 16.5 -49 16.5c-16.667 0 -27 -11.667 -31 -35h-89c2.66699 22.667 6.66699 41.334 12 56.001c8.66699 22 22.334 40.167 41.001 54.5s39.334 21.5 62.001 21.5c18 0 39.167 -5.5 63.5 -16.5
s41.833 -16.5 52.5 -16.5c17.333 0 28 12 32 36z" />
    <glyph glyph-name="adieresis" unicode="&#xe4;" horiz-adv-x="489" 
d="M479 467l-57 -467.005h-171c2 8.66699 4.66699 21.834 8 39.501s5.66602 30.834 6.99902 39.501c-35.333 -59.333 -78.666 -89 -129.999 -89c-22 0 -40.833 5.66699 -56.5 17s-27.334 26.333 -35.001 45s-13.167 37.334 -16.5 56.001s-5 38.334 -5 59.001
c0 46 4.66699 88.667 14 128c5.33301 22 12.333 43 21 63s19.5 39.333 32.5 58s29.167 33.5 48.5 44.5s40.333 16.5 63 16.5c26.667 0 47.334 -7.16699 62.001 -21.5s27 -35.166 37 -62.499c0 8 0.5 20.167 1.5 36.5s1.83301 28.833 2.5 37.5h174zM282 287.995
c0 30.667 -9.33301 46 -28 46c-20.667 0 -35.667 -17 -45 -51s-14 -65.667 -14 -95c0 -36.667 10.333 -55 31 -55c20 0 34.333 18.167 43 54.5s13 69.833 13 100.5zM478 609.995c0 -20.667 -8.16797 -39.167 -24.501 -55.5s-35.166 -24.5 -56.499 -24.5
c-18 0 -33 6.16699 -45 18.5s-18 27.5 -18 45.5c0 21.333 8 40 24 56s34.667 24 56 24c18.667 0 34 -6 46 -18s18 -27.333 18 -46zM287.999 601.995c0 -5.33301 -1.66699 -12.001 -5 -20.001c-6 -15.333 -16 -27.833 -30 -37.5s-29 -14.5 -45 -14.5c-18.667 0 -34 6 -46 18
s-18 27.333 -18 46c0 21.333 8.16699 40 24.5 56s35.166 24 56.499 24c20.667 0 36.334 -6.66699 47.001 -20s16 -30.666 16 -51.999z" />
    <glyph glyph-name="aring" unicode="&#xe5;" horiz-adv-x="489" 
d="M479 467l-57 -467.005h-171c2 8.66699 4.66699 21.834 8 39.501s5.66602 30.834 6.99902 39.501c-35.333 -59.333 -78.666 -89 -129.999 -89c-22 0 -40.833 5.66699 -56.5 17s-27.334 26.333 -35.001 45s-13.167 37.334 -16.5 56.001s-5 38.334 -5 59.001
c0 46 4.66699 88.667 14 128c5.33301 22 12.333 43 21 63s19.5 39.333 32.5 58s29.167 33.5 48.5 44.5s40.333 16.5 63 16.5c26.667 0 47.334 -7.16699 62.001 -21.5s27 -35.166 37 -62.499c0 8 0.5 20.167 1.5 36.5s1.83301 28.833 2.5 37.5h174zM282 287.995
c0 30.667 -9.33301 46 -28 46c-20.667 0 -35.667 -17 -45 -51s-14 -65.667 -14 -95c0 -36.667 10.333 -55 31 -55c20 0 34.333 18.167 43 54.5s13 69.833 13 100.5zM188 618.995c0 26.667 9.33301 49.334 28 68.001s41.334 28 68.001 28s49.334 -9.33301 68.001 -28
s28 -41.334 28 -68.001s-9.33301 -49.334 -28 -68.001s-41.334 -28 -68.001 -28s-49.334 9.33301 -68.001 28s-28 41.334 -28 68.001zM247 618.995c0 -10.667 3.5 -19.5 10.5 -26.5s15.833 -10.5 26.5 -10.5s19.5 3.5 26.5 10.5s10.5 15.833 10.5 26.5s-3.5 19.5 -10.5 26.5
s-15.833 10.5 -26.5 10.5s-19.5 -3.5 -26.5 -10.5s-10.5 -15.833 -10.5 -26.5z" />
    <glyph glyph-name="ae" unicode="&#xe6;" horiz-adv-x="724" 
d="M88 321l16.999 134.999c53.333 14 100 21 140 21c58 0 103 -15.333 135 -46c45.333 30.667 91.333 46 138 46c58.667 0 103.834 -18.667 135.501 -56s47.5 -85.666 47.5 -144.999c0 -17.333 -2.66699 -43.333 -8 -78h-252c0 -2 -0.166992 -5 -0.5 -9s-0.5 -7 -0.5 -9
c0 -41.333 12.333 -62 37 -62c18 0 32.333 11.667 43 35l161 -3c-11.333 -29.333 -23.5 -53.666 -36.5 -72.999s-30.833 -36.333 -53.5 -51c-37.333 -24 -82.333 -36 -135 -36c-51.333 0 -94.666 16 -129.999 48c-49.333 -32 -100.666 -48 -153.999 -48
c-44 0 -81 12.667 -111 38s-45 59.666 -45 102.999c0 52.667 17.667 94.167 53 124.5s79.666 45.5 132.999 45.5c26 0 54.667 -3.33301 86 -10c-0.666992 38 -28.334 57 -83.001 57c-40 0 -79 -9 -117 -27zM452.999 290.999h86c0 43.333 -12 65 -36 65
s-40.667 -21.667 -50 -65zM272.999 155.999c0 11.333 -3.83301 20 -11.5 26s-17.5 9 -29.5 9c-13.333 0 -25 -4.5 -35 -13.5s-15 -20.167 -15 -33.5c0 -23.333 13.667 -35 41 -35c14.667 0 26.667 4.33301 36 13s14 20 14 34z" />
    <glyph glyph-name="ccedilla" unicode="&#xe7;" horiz-adv-x="298" 
d="M309 475l-19.001 -152c-27.333 -2 -48.666 -12 -63.999 -30s-23 -40.667 -23 -68c0 -18.667 4.83301 -35.5 14.5 -50.5s23.167 -22.5 40.5 -22.5h11l-19 -159c-14.667 -2 -30 -3 -46 -3c-58.667 0 -103.167 20 -133.5 60s-45.5 90 -45.5 150
c0 72.667 23.833 137 71.5 193s107.167 84 178.5 84c8 0 19.333 -0.666992 34 -2zM247.999 -106l-126 -117l-71 54l102 122z" />
    <glyph glyph-name="egrave" unicode="&#xe8;" horiz-adv-x="474" 
d="M266 157h166c-17.333 -53.333 -45.333 -94.5 -84 -123.5s-85.667 -43.5 -141 -43.5c-59.333 0 -104.833 17 -136.5 51s-47.5 80.667 -47.5 140c0 77.333 22.667 145.833 68 205.5s105.333 89.5 180 89.5c58 0 102.5 -18.5 133.5 -55.5s46.5 -85.167 46.5 -144.5
c0 -18 -2.66699 -44.333 -8 -79h-250c-0.666992 -4 -1 -10.333 -1 -19c0 -35.333 10.667 -53 32 -53c20.667 0 34.667 10.667 42 32zM207 290h79c0 1.33301 0.166992 3.33301 0.5 6s0.5 4.66699 0.5 6c0 31.333 -11.333 47 -34 47c-13.333 0 -23.833 -6 -31.5 -18
s-12.5 -25.667 -14.5 -41zM347 530h-98l-68 148h138z" />
    <glyph glyph-name="eacute" unicode="&#xe9;" horiz-adv-x="474" 
d="M266 157h166c-17.333 -53.333 -45.333 -94.5 -84 -123.5s-85.667 -43.5 -141 -43.5c-59.333 0 -104.833 17 -136.5 51s-47.5 80.667 -47.5 140c0 77.333 22.667 145.833 68 205.5s105.333 89.5 180 89.5c58 0 102.5 -18.5 133.5 -55.5s46.5 -85.167 46.5 -144.5
c0 -18 -2.66699 -44.333 -8 -79h-250c-0.666992 -4 -1 -10.333 -1 -19c0 -35.333 10.667 -53 32 -53c20.667 0 34.667 10.667 42 32zM207 290h79c0 1.33301 0.166992 3.33301 0.5 6s0.5 4.66699 0.5 6c0 31.333 -11.333 47 -34 47c-13.333 0 -23.833 -6 -31.5 -18
s-12.5 -25.667 -14.5 -41zM424 678l-105 -148h-98l65 148h138z" />
    <glyph glyph-name="ecircumflex" unicode="&#xea;" horiz-adv-x="474" 
d="M266 157h166c-17.333 -53.333 -45.333 -94.5 -84 -123.5s-85.667 -43.5 -141 -43.5c-59.333 0 -104.833 17 -136.5 51s-47.5 80.667 -47.5 140c0 77.333 22.667 145.833 68 205.5s105.333 89.5 180 89.5c58 0 102.5 -18.5 133.5 -55.5s46.5 -85.167 46.5 -144.5
c0 -18 -2.66699 -44.333 -8 -79h-250c-0.666992 -4 -1 -10.333 -1 -19c0 -35.333 10.667 -53 32 -53c20.667 0 34.667 10.667 42 32zM207 290h79c0 1.33301 0.166992 3.33301 0.5 6s0.5 4.66699 0.5 6c0 31.333 -11.333 47 -34 47c-13.333 0 -23.833 -6 -31.5 -18
s-12.5 -25.667 -14.5 -41zM311 690l116 -117l-64 -63l-65 66l-90 -70l-53 67z" />
    <glyph glyph-name="edieresis" unicode="&#xeb;" horiz-adv-x="474" 
d="M266 157h166c-17.333 -53.333 -45.333 -94.5 -84 -123.5s-85.667 -43.5 -141 -43.5c-59.333 0 -104.833 17 -136.5 51s-47.5 80.667 -47.5 140c0 77.333 22.667 145.833 68 205.5s105.333 89.5 180 89.5c58 0 102.5 -18.5 133.5 -55.5s46.5 -85.167 46.5 -144.5
c0 -18 -2.66699 -44.333 -8 -79h-250c-0.666992 -4 -1 -10.333 -1 -19c0 -35.333 10.667 -53 32 -53c20.667 0 34.667 10.667 42 32zM207 290h79c0 1.33301 0.166992 3.33301 0.5 6s0.5 4.66699 0.5 6c0 31.333 -11.333 47 -34 47c-13.333 0 -23.833 -6 -31.5 -18
s-12.5 -25.667 -14.5 -41zM450 610c0 -20.667 -8.16797 -39.167 -24.501 -55.5s-35.166 -24.5 -56.499 -24.5c-18 0 -33 6.16699 -45 18.5s-18 27.5 -18 45.5c0 21.333 8 40 24 56s34.667 24 56 24c18.667 0 34 -6 46 -18s18 -27.333 18 -46zM259.999 602
c0 -5.33301 -1.66699 -12.001 -5 -20.001c-6 -15.333 -16 -27.833 -30 -37.5s-29 -14.5 -45 -14.5c-18.667 0 -34 6 -46 18s-18 27.333 -18 46c0 21.333 8.16699 40 24.5 56s35.166 24 56.499 24c20.667 0 36.334 -6.66699 47.001 -20s16 -30.666 16 -51.999z" />
    <glyph glyph-name="igrave" unicode="&#xec;" horiz-adv-x="249" 
d="M239 467l-57 -467h-171l58 467h170zM225 530h-98l-68 148h138z" />
    <glyph glyph-name="iacute" unicode="&#xed;" horiz-adv-x="249" 
d="M239 467l-57 -467h-171l58 467h170zM292 678l-105 -148h-98l65 148h138z" />
    <glyph glyph-name="icircumflex" unicode="&#xee;" horiz-adv-x="249" 
d="M239 467l-57 -467h-171l58 467h170zM186 690l116 -117l-64 -63l-65 66l-90 -70l-53 67z" />
    <glyph glyph-name="idieresis" unicode="&#xef;" horiz-adv-x="249" 
d="M239 467l-57 -467h-171l58 467h170zM328 610c0 -20.667 -8.16797 -39.167 -24.501 -55.5s-35.166 -24.5 -56.499 -24.5c-18 0 -33 6.16699 -45 18.5s-18 27.5 -18 45.5c0 21.333 8 40 24 56s34.667 24 56 24c18.667 0 34 -6 46 -18s18 -27.333 18 -46zM137.999 602
c0 -5.33301 -1.66699 -12.001 -5 -20.001c-6 -15.333 -16 -27.833 -30 -37.5s-29 -14.5 -45 -14.5c-18.667 0 -34 6 -46 18s-18 27.333 -18 46c0 21.333 8.16699 40 24.5 56s35.166 24 56.499 24c20.667 0 36.334 -6.66699 47.001 -20s16 -30.666 16 -51.999z" />
    <glyph glyph-name="eth" unicode="&#xf0;" horiz-adv-x="481" 
d="M416 663l-70.001 -37c38 -37.333 66.667 -83 86 -137s29 -110 29 -168c0 -104 -21 -183.333 -63 -238c-47.333 -62 -109 -93 -185 -93c-62 0 -109 17.667 -141 53s-48 84.333 -48 147c0 75.333 21.333 141.5 64 198.5s100.667 86.167 174 87.5
c-7.33301 34 -18.666 63.333 -33.999 88l-96 -54l-33 70l78 43c-27.333 20.667 -53 36.667 -77 48l52 69c48 -14 90.667 -34.667 128 -62l98 53zM290.999 268c0 51.333 -12.6641 77 -37.9971 77c-21.333 0 -37.333 -17.667 -48 -53s-16 -67 -16 -95
c0 -51.333 12.333 -77 37 -77c11.333 0 21.666 6 30.999 18s16.166 26.5 20.499 43.5s7.66602 33 9.99902 48s3.5 27.833 3.5 38.5z" />
    <glyph glyph-name="ntilde" unicode="&#xf1;" horiz-adv-x="483" 
d="M69 467h170c-9.33301 -56 -14.333 -85.667 -15 -89c35.333 66 80 99 134 99c31.333 0 55.833 -11.167 73.5 -33.5s26.5 -49.833 26.5 -82.5c0 -14.667 -1 -29 -3 -43l-39 -318h-171l31 247c1.33301 12 2 20.667 2 26c0 20.667 -7.66699 31 -23 31
c-24 0 -38.667 -23 -44 -69l-29 -235h-171zM375 665l87.9971 -0.000976562c-3.33301 -37.333 -15.166 -68.833 -35.499 -94.5s-48.5 -38.5 -84.5 -38.5c-17.333 0 -38 5.5 -62 16.5s-40.333 16.5 -49 16.5c-16.667 0 -27 -11.667 -31 -35h-89
c2.66699 22.667 6.66699 41.334 12 56.001c8.66699 22 22.334 40.167 41.001 54.5s39.334 21.5 62.001 21.5c18 0 39.167 -5.5 63.5 -16.5s41.833 -16.5 52.5 -16.5c17.333 0 28 12 32 36z" />
    <glyph glyph-name="ograve" unicode="&#xf2;" horiz-adv-x="480" 
d="M456 280c0 -82 -21.498 -150.833 -64.498 -206.5s-104.167 -83.5 -183.5 -83.5c-60 0 -105.667 18 -137 54s-47 84.667 -47 146c0 77.333 22.167 144.5 66.5 201.5s104.166 85.5 179.499 85.5c59.333 0 105.166 -17.833 137.499 -53.5s48.5 -83.5 48.5 -143.5z
M291.002 269c0 51.333 -12.333 77 -37 77c-21.333 0 -37.333 -17.5 -48 -52.5s-16 -66.833 -16 -95.5c0 -51.333 12.333 -77 37 -77c21.333 0 37.333 17.5 48 52.5s16 66.833 16 95.5zM330.002 530h-98l-68 148h138z" />
    <glyph glyph-name="oacute" unicode="&#xf3;" horiz-adv-x="480" 
d="M456 280c0 -82 -21.498 -150.833 -64.498 -206.5s-104.167 -83.5 -183.5 -83.5c-60 0 -105.667 18 -137 54s-47 84.667 -47 146c0 77.333 22.167 144.5 66.5 201.5s104.166 85.5 179.499 85.5c59.333 0 105.166 -17.833 137.499 -53.5s48.5 -83.5 48.5 -143.5z
M291.002 269c0 51.333 -12.333 77 -37 77c-21.333 0 -37.333 -17.5 -48 -52.5s-16 -66.833 -16 -95.5c0 -51.333 12.333 -77 37 -77c21.333 0 37.333 17.5 48 52.5s16 66.833 16 95.5zM437.002 678l-105 -148h-98l65 148h138z" />
    <glyph glyph-name="ocircumflex" unicode="&#xf4;" horiz-adv-x="480" 
d="M456 280c0 -82 -21.498 -150.833 -64.498 -206.5s-104.167 -83.5 -183.5 -83.5c-60 0 -105.667 18 -137 54s-47 84.667 -47 146c0 77.333 22.167 144.5 66.5 201.5s104.166 85.5 179.499 85.5c59.333 0 105.166 -17.833 137.499 -53.5s48.5 -83.5 48.5 -143.5z
M291.002 269c0 51.333 -12.333 77 -37 77c-21.333 0 -37.333 -17.5 -48 -52.5s-16 -66.833 -16 -95.5c0 -51.333 12.333 -77 37 -77c21.333 0 37.333 17.5 48 52.5s16 66.833 16 95.5zM311.002 690l116 -117l-64 -63l-65 66l-90 -70l-53 67z" />
    <glyph glyph-name="otilde" unicode="&#xf5;" horiz-adv-x="480" 
d="M456 280c0 -82 -21.498 -150.833 -64.498 -206.5s-104.167 -83.5 -183.5 -83.5c-60 0 -105.667 18 -137 54s-47 84.667 -47 146c0 77.333 22.167 144.5 66.5 201.5s104.166 85.5 179.499 85.5c59.333 0 105.166 -17.833 137.499 -53.5s48.5 -83.5 48.5 -143.5z
M291.002 269c0 51.333 -12.333 77 -37 77c-21.333 0 -37.333 -17.5 -48 -52.5s-16 -66.833 -16 -95.5c0 -51.333 12.333 -77 37 -77c21.333 0 37.333 17.5 48 52.5s16 66.833 16 95.5zM373.002 665l87.9971 -0.000976562c-3.33301 -37.333 -15.166 -68.833 -35.499 -94.5
s-48.5 -38.5 -84.5 -38.5c-16.667 0 -37 5.5 -61 16.5s-40.667 16.5 -50 16.5c-16.667 0 -27 -11.667 -31 -35h-89c2.66699 22.667 6.66699 41.334 12 56.001c8.66699 22 22.334 40.167 41.001 54.5s39.334 21.5 62.001 21.5c18 0 39.167 -5.5 63.5 -16.5
s41.833 -16.5 52.5 -16.5c17.333 0 28 12 32 36z" />
    <glyph glyph-name="odieresis" unicode="&#xf6;" horiz-adv-x="480" 
d="M456 280c0 -82 -21.498 -150.833 -64.498 -206.5s-104.167 -83.5 -183.5 -83.5c-60 0 -105.667 18 -137 54s-47 84.667 -47 146c0 77.333 22.167 144.5 66.5 201.5s104.166 85.5 179.499 85.5c59.333 0 105.166 -17.833 137.499 -53.5s48.5 -83.5 48.5 -143.5z
M291.002 269c0 51.333 -12.333 77 -37 77c-21.333 0 -37.333 -17.5 -48 -52.5s-16 -66.833 -16 -95.5c0 -51.333 12.333 -77 37 -77c21.333 0 37.333 17.5 48 52.5s16 66.833 16 95.5zM453.002 610c0 -20.667 -8.16797 -39.167 -24.501 -55.5s-35.166 -24.5 -56.499 -24.5
c-18 0 -33 6.16699 -45 18.5s-18 27.5 -18 45.5c0 21.333 8 40 24 56s34.667 24 56 24c18.667 0 34 -6 46 -18s18 -27.333 18 -46zM263.001 602c0 -5.33301 -1.66699 -12.001 -5 -20.001c-6 -15.333 -16 -27.833 -30 -37.5s-29 -14.5 -45 -14.5c-18.667 0 -34 6 -46 18
s-18 27.333 -18 46c0 21.333 8.16699 40 24.5 56s35.166 24 56.499 24c20.667 0 36.334 -6.66699 47.001 -20s16 -30.666 16 -51.999z" />
    <glyph glyph-name="divide" unicode="&#xf7;" 
d="M338 510c0 -20 -7.33301 -37.333 -22 -52s-32 -22 -52 -22c-20.667 0 -38.334 7.16699 -53.001 21.5s-22 31.833 -22 52.5s7.16699 38.167 21.5 52.5s31.833 21.5 52.5 21.5s38.334 -7.16699 53.001 -21.5s22 -31.833 22 -52.5zM480 280h-433v120h433v-120zM338 170
c0 -20 -7.33301 -37.333 -22 -52s-32 -22 -52 -22c-20.667 0 -38.334 7.16699 -53.001 21.5s-22 31.833 -22 52.5s7.16699 38.167 21.5 52.5s31.833 21.5 52.5 21.5s38.334 -7.16699 53.001 -21.5s22 -31.833 22 -52.5z" />
    <glyph glyph-name="oslash" unicode="&#xf8;" horiz-adv-x="480" 
d="M484 472l-58.001 -72c20.667 -33.333 31 -75.333 31 -126c0 -79.333 -22.167 -146.5 -66.5 -201.5s-105.166 -82.5 -182.499 -82.5c-36 0 -68 7 -96 21l-54 -67l-60 48l58 73c-21.333 35.333 -32 77 -32 125c0 76.667 22.333 143.667 67 201s104 86 178 86
c36.667 0 70 -8 100 -24l54 66zM290.999 269c0 51.333 -12.333 77 -37 77c-21.333 0 -37.333 -17.5 -48 -52.5s-16 -66.833 -16 -95.5c0 -51.333 12.333 -77 37 -77c21.333 0 37.333 17.5 48 52.5s16 66.833 16 95.5z" />
    <glyph glyph-name="ugrave" unicode="&#xf9;" horiz-adv-x="492" 
d="M482 467l-35 -287c-8 -66 -36.333 -115 -85 -147c-44 -28.667 -92.333 -43 -145 -43c-52 0 -96 13.167 -132 39.5s-54 64.5 -54 114.5l3 36l35 287h170l-32 -263c0 -0.666992 -0.5 -5.5 -1.5 -14.5s-1.5 -15.833 -1.5 -20.5c0 -22.667 10.333 -34 31 -34
c8.66699 0 16 2 22 6s10.5 10.333 13.5 19s4.83301 15.5 5.5 20.5l3 23.5l32 263h171zM325 530h-98l-68 148h138z" />
    <glyph glyph-name="uacute" unicode="&#xfa;" horiz-adv-x="492" 
d="M482 467l-35 -287c-8 -66 -36.333 -115 -85 -147c-44 -28.667 -92.333 -43 -145 -43c-52 0 -96 13.167 -132 39.5s-54 64.5 -54 114.5l3 36l35 287h170l-32 -263c0 -0.666992 -0.5 -5.5 -1.5 -14.5s-1.5 -15.833 -1.5 -20.5c0 -22.667 10.333 -34 31 -34
c8.66699 0 16 2 22 6s10.5 10.333 13.5 19s4.83301 15.5 5.5 20.5l3 23.5l32 263h171zM422 678l-105 -148h-98l65 148h138z" />
    <glyph glyph-name="ucircumflex" unicode="&#xfb;" horiz-adv-x="492" 
d="M482 467l-35 -287c-8 -66 -36.333 -115 -85 -147c-44 -28.667 -92.333 -43 -145 -43c-52 0 -96 13.167 -132 39.5s-54 64.5 -54 114.5l3 36l35 287h170l-32 -263c0 -0.666992 -0.5 -5.5 -1.5 -14.5s-1.5 -15.833 -1.5 -20.5c0 -22.667 10.333 -34 31 -34
c8.66699 0 16 2 22 6s10.5 10.333 13.5 19s4.83301 15.5 5.5 20.5l3 23.5l32 263h171zM307 690l116 -117l-64 -63l-65 66l-90 -70l-53 67z" />
    <glyph glyph-name="udieresis" unicode="&#xfc;" horiz-adv-x="492" 
d="M482 467l-35 -287c-8 -66 -36.333 -115 -85 -147c-44 -28.667 -92.333 -43 -145 -43c-52 0 -96 13.167 -132 39.5s-54 64.5 -54 114.5l3 36l35 287h170l-32 -263c0 -0.666992 -0.5 -5.5 -1.5 -14.5s-1.5 -15.833 -1.5 -20.5c0 -22.667 10.333 -34 31 -34
c8.66699 0 16 2 22 6s10.5 10.333 13.5 19s4.83301 15.5 5.5 20.5l3 23.5l32 263h171zM459 610c0 -20.667 -8.16797 -39.167 -24.501 -55.5s-35.166 -24.5 -56.499 -24.5c-18 0 -33 6.16699 -45 18.5s-18 27.5 -18 45.5c0 21.333 8 40 24 56s34.667 24 56 24
c18.667 0 34 -6 46 -18s18 -27.333 18 -46zM268.999 602c0 -5.33301 -1.66699 -12.001 -5 -20.001c-6 -15.333 -16 -27.833 -30 -37.5s-29 -14.5 -45 -14.5c-18.667 0 -34 6 -46 18s-18 27.333 -18 46c0 21.333 8.16699 40 24.5 56s35.166 24 56.499 24
c20.667 0 36.334 -6.66699 47.001 -20s16 -30.666 16 -51.999z" />
    <glyph glyph-name="yacute" unicode="&#xfd;" horiz-adv-x="458" 
d="M487 467l-301 -682.001h-176l110 234l-82 448h172c1.33301 -12 3.66602 -31 6.99902 -57s5.83301 -46.5 7.5 -61.5s3.33398 -33.5 5.00098 -55.5s2.5 -42.333 2.5 -61c0 -3.33301 -0.166992 -8.33301 -0.5 -15s-0.5 -11.667 -0.5 -15c24 88.667 40 143.334 48 164.001
l38 101h170zM412 677.999l-105 -148h-98l65 148h138z" />
    <glyph glyph-name="thorn" unicode="&#xfe;" horiz-adv-x="490" 
d="M275 729l-32 -262c-2 -14.667 -6.33301 -36.667 -13 -66c32 50.667 70.333 76 115 76c30.667 0 55.667 -10.667 75 -32s32.166 -45 38.499 -71s9.5 -54 9.5 -84c0 -28.667 -3.16699 -59.167 -9.5 -91.5s-16 -64.666 -29 -96.999s-31.667 -59 -56 -80
s-52.166 -31.5 -83.499 -31.5c-24.667 0 -44.5 6 -59.5 18s-28.833 30.333 -41.5 55c-3.33301 -60.667 -14 -153.334 -32 -278.001h-171l118 944h171zM291 270c0 42.667 -9.99902 64.001 -29.999 64.001c-18.667 0 -32.334 -16 -41.001 -48s-13 -61 -13 -87
c0 -42 9.33301 -63 28 -63c10 0 19 5.5 27 16.5s13.833 24.333 17.5 40s6.5 30.167 8.5 43.5s3 24.666 3 33.999z" />
    <glyph glyph-name="ydieresis" unicode="&#xff;" horiz-adv-x="458" 
d="M487 467l-301 -682.001h-176l110 234l-82 448h172c1.33301 -12 3.66602 -31 6.99902 -57s5.83301 -46.5 7.5 -61.5s3.33398 -33.5 5.00098 -55.5s2.5 -42.333 2.5 -61c0 -3.33301 -0.166992 -8.33301 -0.5 -15s-0.5 -11.667 -0.5 -15c24 88.667 40 143.334 48 164.001
l38 101h170zM438 609.999c0 -20.667 -8.16797 -39.167 -24.501 -55.5s-35.166 -24.5 -56.499 -24.5c-18 0 -33 6.16699 -45 18.5s-18 27.5 -18 45.5c0 21.333 8 40 24 56s34.667 24 56 24c18.667 0 34 -6 46 -18s18 -27.333 18 -46zM247.999 601.999
c0 -5.33301 -1.66699 -12.001 -5 -20.001c-6 -15.333 -16 -27.833 -30 -37.5s-29 -14.5 -45 -14.5c-18.667 0 -34 6 -46 18s-18 27.333 -18 46c0 21.333 8.16699 40 24.5 56s35.166 24 56.499 24c20.667 0 36.334 -6.66699 47.001 -20s16 -30.666 16 -51.999z" />
    <glyph glyph-name="Amacron" unicode="&#x100;" horiz-adv-x="524" 
d="M491 0h-183l-3 85h-119l-25 -85h-184l240 667h217zM300 305v86.999c0 0.666992 1 39 3 115c-2 -7.33301 -5.5 -21.833 -10.5 -43.5s-9.16699 -38.5 -12.5 -50.5l-24 -86c-12 -43.333 -21.667 -76.666 -29 -99.999h75c-1.33301 34.667 -2 60.667 -2 78zM504 836.999
l-12 -94h-335l12 94h335z" />
    <glyph glyph-name="amacron" unicode="&#x101;" horiz-adv-x="489" 
d="M479 467l-57 -467.005h-171c2 8.66699 4.66699 21.834 8 39.501s5.66602 30.834 6.99902 39.501c-35.333 -59.333 -78.666 -89 -129.999 -89c-22 0 -40.833 5.66699 -56.5 17s-27.334 26.333 -35.001 45s-13.167 37.334 -16.5 56.001s-5 38.334 -5 59.001
c0 46 4.66699 88.667 14 128c5.33301 22 12.333 43 21 63s19.5 39.333 32.5 58s29.167 33.5 48.5 44.5s40.333 16.5 63 16.5c26.667 0 47.334 -7.16699 62.001 -21.5s27 -35.166 37 -62.499c0 8 0.5 20.167 1.5 36.5s1.83301 28.833 2.5 37.5h174zM282 287.995
c0 30.667 -9.33301 46 -28 46c-20.667 0 -35.667 -17 -45 -51s-14 -65.667 -14 -95c0 -36.667 10.333 -55 31 -55c20 0 34.333 18.167 43 54.5s13 69.833 13 100.5zM469 646.995l-12 -94h-335l12 94h335z" />
    <glyph glyph-name="Abreve" unicode="&#x102;" horiz-adv-x="524" 
d="M491 0h-183l-3 85h-119l-25 -85h-184l240 667h217zM300 305v86.999c0 0.666992 1 39 3 115c-2 -7.33301 -5.5 -21.833 -10.5 -43.5s-9.16699 -38.5 -12.5 -50.5l-24 -86c-12 -43.333 -21.667 -76.666 -29 -99.999h75c-1.33301 34.667 -2 60.667 -2 78zM438 865.999h69
c-9.33301 -45.333 -29.5 -81.333 -60.5 -108s-69.5 -40 -115.5 -40c-40.667 0 -74.167 11.833 -100.5 35.5s-39.5 55.5 -39.5 95.5v17h69c5.33301 -21.333 14.5 -35.5 27.5 -42.5s31.167 -10.5 54.5 -10.5c24.667 0 44.167 3.66699 58.5 11s26.833 21.333 37.5 42z" />
    <glyph glyph-name="abreve" unicode="&#x103;" horiz-adv-x="489" 
d="M479 467l-57 -467.005h-171c2 8.66699 4.66699 21.834 8 39.501s5.66602 30.834 6.99902 39.501c-35.333 -59.333 -78.666 -89 -129.999 -89c-22 0 -40.833 5.66699 -56.5 17s-27.334 26.333 -35.001 45s-13.167 37.334 -16.5 56.001s-5 38.334 -5 59.001
c0 46 4.66699 88.667 14 128c5.33301 22 12.333 43 21 63s19.5 39.333 32.5 58s29.167 33.5 48.5 44.5s40.333 16.5 63 16.5c26.667 0 47.334 -7.16699 62.001 -21.5s27 -35.166 37 -62.499c0 8 0.5 20.167 1.5 36.5s1.83301 28.833 2.5 37.5h174zM282 287.995
c0 30.667 -9.33301 46 -28 46c-20.667 0 -35.667 -17 -45 -51s-14 -65.667 -14 -95c0 -36.667 10.333 -55 31 -55c20 0 34.333 18.167 43 54.5s13 69.833 13 100.5zM398 668.995h69c-9.33301 -45.333 -29.5 -81.333 -60.5 -108s-69.5 -40 -115.5 -40
c-40.667 0 -74.167 11.833 -100.5 35.5s-39.5 55.5 -39.5 95.5v17h69c5.33301 -21.333 14.5 -35.5 27.5 -42.5s31.167 -10.5 54.5 -10.5c24.667 0 44.167 3.66699 58.5 11s26.833 21.333 37.5 42z" />
    <glyph glyph-name="Aogonek" unicode="&#x104;" horiz-adv-x="524" 
d="M217 667l217 0.00195312l57 -667h-60c-8.66699 -10 -16.667 -22 -24 -36c-6 -12 -9 -23.667 -9 -35c0 -8.66699 2.66699 -16 8 -22c6 -6.66699 15 -10 27 -10c10.667 0 22.667 3 36 9l-17 -77c-19.333 -8 -39.333 -12 -60 -12c-28 0 -50.333 7 -67 21
c-15.333 13.333 -23 31.666 -23 54.999s7.33301 44.666 22 63.999c10 12.667 24.333 27 43 43h-59l-3 85h-119l-25 -85h-184zM300 305.002v87c0 8.66699 1 47 3 115c-12 -55.333 -24 -102 -36 -140c-2 -7.33301 -4.5 -15.833 -7.5 -25.5s-7.33301 -25 -13 -46
s-12.167 -43.833 -19.5 -68.5h75z" />
    <glyph glyph-name="aogonek" unicode="&#x105;" horiz-adv-x="489" 
d="M479 467l-56.9951 -467.002h-52c-10.667 -13.333 -18.334 -24.666 -23.001 -33.999c-6.66699 -13.333 -10 -24.666 -10 -33.999s3.33301 -17 10 -23c5.33301 -5.33301 13.333 -8 24 -8c11.333 0 23 3 35 9l-17 -73c-18.667 -8 -39 -12 -61 -12
c-28.667 0 -50.667 8 -66 24c-12.667 14 -19 31.333 -19 52c0 20 6.66699 39.333 20 58c9.33301 13.333 23.666 27 42.999 41h-55l15 79c-8.66699 -16 -20.334 -31.667 -35.001 -47c-26.667 -28 -57.334 -42 -92.001 -42c-30.667 0 -55 10 -73 30
c-28.667 30.667 -43 81.667 -43 153c0 50 7.16699 99.333 21.5 148s35.166 86.667 62.499 114c28 28 59.667 42 95 42c26 0 47.333 -8 64 -24c16 -15.333 27.667 -35.333 35 -60l4 74h174zM254.005 333.998c-8.66699 0 -16.665 -3.66797 -23.998 -11.001
c-11.333 -11.333 -20 -30.666 -26 -57.999c-6 -24 -9 -50.667 -9 -80c0 -21.333 4 -36 12 -44c5.33301 -5.33301 11.666 -8 18.999 -8s14.666 3.66699 21.999 11c11.333 11.333 20.333 34.333 27 69c4.66699 24.667 7 49 7 73c0 22 -3.66699 36 -11 42
c-4 4 -9.66699 6 -17 6z" />
    <glyph glyph-name="Cacute" unicode="&#x106;" horiz-adv-x="438" 
d="M461 662l-23.001 -190.001c-23.333 26.667 -49 40 -77 40c-33.333 0 -61.166 -13.167 -83.499 -39.5s-37.333 -55.333 -45 -87s-11.5 -63.834 -11.5 -96.501c0 -36.667 7.33301 -67 22 -91s39 -36 73 -36c31.333 0 63.666 14.333 96.999 43l-34 -193
c-39.333 -16 -75.666 -24 -108.999 -24c-75.333 0 -132.833 25.833 -172.5 77.5s-59.5 116.5 -59.5 194.5c0 51.333 7 101.333 21 150s34.333 93.334 61 134.001s62 73.334 106 98.001s93 37 147 37c32 0 61.333 -5.66699 88 -17zM516.999 867.999l-105 -148h-98l65 148h138
z" />
    <glyph glyph-name="cacute" unicode="&#x107;" horiz-adv-x="298" 
d="M309 475l-19.001 -152c-27.333 -2 -48.666 -12 -63.999 -30s-23 -40.667 -23 -68c0 -18.667 4.83301 -35.5 14.5 -50.5s23.167 -22.5 40.5 -22.5h11l-19 -159c-14.667 -2 -30 -3 -46 -3c-58.667 0 -103.167 20 -133.5 60s-45.5 90 -45.5 150
c0 72.667 23.833 137 71.5 193s107.167 84 178.5 84c8 0 19.333 -0.666992 34 -2zM406.999 678l-105 -148h-98l65 148h138z" />
    <glyph glyph-name="Ccircumflex" unicode="&#x108;" horiz-adv-x="438" 
d="M461 662l-23.001 -190.001c-23.333 26.667 -49 40 -77 40c-33.333 0 -61.166 -13.167 -83.499 -39.5s-37.333 -55.333 -45 -87s-11.5 -63.834 -11.5 -96.501c0 -36.667 7.33301 -67 22 -91s39 -36 73 -36c31.333 0 63.666 14.333 96.999 43l-34 -193
c-39.333 -16 -75.666 -24 -108.999 -24c-75.333 0 -132.833 25.833 -172.5 77.5s-59.5 116.5 -59.5 194.5c0 51.333 7 101.333 21 150s34.333 93.334 61 134.001s62 73.334 106 98.001s93 37 147 37c32 0 61.333 -5.66699 88 -17zM395.999 869.999l124 -98l-65 -70l-71 55
l-94 -57l-53 70z" />
    <glyph glyph-name="ccircumflex" unicode="&#x109;" horiz-adv-x="298" 
d="M309 475l-19.001 -152c-27.333 -2 -48.666 -12 -63.999 -30s-23 -40.667 -23 -68c0 -18.667 4.83301 -35.5 14.5 -50.5s23.167 -22.5 40.5 -22.5h11l-19 -159c-14.667 -2 -30 -3 -46 -3c-58.667 0 -103.167 20 -133.5 60s-45.5 90 -45.5 150
c0 72.667 23.833 137 71.5 193s107.167 84 178.5 84c8 0 19.333 -0.666992 34 -2zM260.999 690l116 -117l-64 -63l-65 66l-90 -70l-53 67z" />
    <glyph glyph-name="Cdotaccent" unicode="&#x10a;" horiz-adv-x="438" 
d="M461 662l-23.001 -190.001c-23.333 26.667 -49 40 -77 40c-33.333 0 -61.166 -13.167 -83.499 -39.5s-37.333 -55.333 -45 -87s-11.5 -63.834 -11.5 -96.501c0 -36.667 7.33301 -67 22 -91s39 -36 73 -36c31.333 0 63.666 14.333 96.999 43l-34 -193
c-39.333 -16 -75.666 -24 -108.999 -24c-75.333 0 -132.833 25.833 -172.5 77.5s-59.5 116.5 -59.5 194.5c0 51.333 7 101.333 21 150s34.333 93.334 61 134.001s62 73.334 106 98.001s93 37 147 37c32 0 61.333 -5.66699 88 -17zM462.999 795.999
c0 -7.33301 -2 -14.333 -6 -21c-6 -16 -16.333 -29.167 -31 -39.5s-30.334 -15.5 -47.001 -15.5c-19.333 0 -35.333 6.33301 -48 19s-19 28.667 -19 48c0 22.667 8.33301 42.334 25 59.001s36.334 25 59.001 25c22 0 38.667 -6.83301 50 -20.5s17 -31.834 17 -54.501z" />
    <glyph glyph-name="cdotaccent" unicode="&#x10b;" horiz-adv-x="298" 
d="M309 475l-19.001 -152c-27.333 -2 -48.666 -12 -63.999 -30s-23 -40.667 -23 -68c0 -18.667 4.83301 -35.5 14.5 -50.5s23.167 -22.5 40.5 -22.5h11l-19 -159c-14.667 -2 -30 -3 -46 -3c-58.667 0 -103.167 20 -133.5 60s-45.5 90 -45.5 150
c0 72.667 23.833 137 71.5 193s107.167 84 178.5 84c8 0 19.333 -0.666992 34 -2zM354.999 606c0 -7.33301 -2 -14.333 -6 -21c-6 -16 -16.333 -29.167 -31 -39.5s-30.334 -15.5 -47.001 -15.5c-19.333 0 -35.333 6.33301 -48 19s-19 28.667 -19 48
c0 22.667 8.33301 42.334 25 59.001s36.334 25 59.001 25c22 0 38.667 -6.83301 50 -20.5s17 -31.834 17 -54.501z" />
    <glyph glyph-name="Ccaron" unicode="&#x10c;" horiz-adv-x="438" 
d="M461 662l-23.001 -190.001c-23.333 26.667 -49 40 -77 40c-33.333 0 -61.166 -13.167 -83.499 -39.5s-37.333 -55.333 -45 -87s-11.5 -63.834 -11.5 -96.501c0 -36.667 7.33301 -67 22 -91s39 -36 73 -36c31.333 0 63.666 14.333 96.999 43l-34 -193
c-39.333 -16 -75.666 -24 -108.999 -24c-75.333 0 -132.833 25.833 -172.5 77.5s-59.5 116.5 -59.5 194.5c0 51.333 7 101.333 21 150s34.333 93.334 61 134.001s62 73.334 106 98.001s93 37 147 37c32 0 61.333 -5.66699 88 -17zM535.999 801.999l-166 -98l-121 103l71 63
l70 -58l92 56z" />
    <glyph glyph-name="ccaron" unicode="&#x10d;" horiz-adv-x="298" 
d="M309 475l-19.001 -152c-27.333 -2 -48.666 -12 -63.999 -30s-23 -40.667 -23 -68c0 -18.667 4.83301 -35.5 14.5 -50.5s23.167 -22.5 40.5 -22.5h11l-19 -159c-14.667 -2 -30 -3 -46 -3c-58.667 0 -103.167 20 -133.5 60s-45.5 90 -45.5 150
c0 72.667 23.833 137 71.5 193s107.167 84 178.5 84c8 0 19.333 -0.666992 34 -2zM409.999 623l-159 -112l-118 118l71 61l64 -65l87 65z" />
    <glyph glyph-name="Dcaron" unicode="&#x10e;" horiz-adv-x="529" 
d="M100 667h153c84 0 149 -23.833 195 -71.5s69 -113.5 69 -197.5c0 -105.333 -25 -195.333 -75 -270c-31.333 -46 -67.5 -78.833 -108.5 -98.5s-90.833 -29.5 -149.5 -29.5h-166zM257 500l-42.001 -339c22.667 1.33301 42.334 9.5 59.001 24.5s29 34.167 37 57.5
s13.833 46 17.5 68s5.5 43.667 5.5 65c0 82.667 -25.667 124 -77 124zM455.999 802l-166 -98l-121 103l71 63l70 -58l92 56z" />
    <glyph glyph-name="dcaron" unicode="&#x10f;" horiz-adv-x="717" 
d="M511 729l-89.001 -729.001h-174c0.666992 8 2.5 19.333 5.5 34s4.83301 24.334 5.5 29.001c-18 -24 -35.5 -42.167 -52.5 -54.5s-37.5 -18.5 -61.5 -18.5c-44 0 -75.5 17 -94.5 51s-28.5 75 -28.5 123c0 46.667 4.66699 89.667 14 129c12 49.333 32 92.333 60 129
s63.667 55 107 55c26 0 46.333 -6.5 61 -19.5s27.667 -32.5 39 -58.5c2.66699 41.333 15.334 151.333 38.001 330h170zM287.999 273.999c0 39.333 -9.66602 59.001 -28.999 59.001c-20.667 0 -35.5 -15.5 -44.5 -46.5s-13.5 -60.833 -13.5 -89.5c0 -38.667 11 -58 33 -58
c19.333 0 33.166 15.667 41.499 47s12.5 60.666 12.5 87.999zM727 667l-100 -221h-104l58 221h146z" />
    <glyph glyph-name="Dcroat" unicode="&#x110;" horiz-adv-x="533" 
d="M103 667l153.002 0.000976562c68.667 0 123.667 -14.667 165 -44c33.333 -23.333 58.166 -55.333 74.499 -96s24.5 -83.334 24.5 -128.001c0 -106.667 -25 -197 -75 -271c-30.667 -46 -66.834 -78.833 -108.501 -98.5s-91.5 -29.5 -149.5 -29.5h-166l35 287h-39l14 110
h39zM234.002 287.001l-16 -126c34 2 61 19.333 81 52c25.333 42 38 96.667 38 164c0 82.667 -25.667 124 -77 124l-13 -104h50l-14 -110h-49z" />
    <glyph glyph-name="dcroat" unicode="&#x111;" horiz-adv-x="518" 
d="M511 729l-14.999 -124.998h55l-14 -105h-54l-61 -499h-174l11 63c-14 -20.667 -29.333 -37.334 -46 -50.001c-20.667 -15.333 -43.334 -23 -68.001 -23c-35.333 0 -63.666 14.333 -84.999 43c-25.333 33.333 -38 82 -38 146c0 38.667 7.33301 78.667 22 120
s34 73.666 58 96.999c27.333 26 59 39 95 39c24 0 45 -6.33301 63 -19c17.333 -12 30.666 -27.667 39.999 -47c0 9.33301 2.33301 35.333 7 78l6 52h-120l14 105h118l16 125h170zM257.001 307.002c-8 0 -15.333 -2.99902 -22 -8.99902c-10.667 -9.33301 -19 -25.333 -25 -48
s-9 -44.334 -9 -65.001c0 -23.333 4.33301 -39.333 13 -48c6.66699 -5.33301 12.667 -8 18 -8c8 0 15 3 21 9c11.333 10.667 19.833 27.667 25.5 51s8.5 44 8.5 62c0 22.667 -4 38.667 -12 48c-5.33301 5.33301 -11.333 8 -18 8z" />
    <glyph glyph-name="Emacron" unicode="&#x112;" horiz-adv-x="405" 
d="M430 667l-20 -157h-152l-12 -97h137l-19 -151h-136l-13 -102h152l-19 -160h-330l82 667h330zM449 837l-12 -94h-335l12 94h335z" />
    <glyph glyph-name="emacron" unicode="&#x113;" horiz-adv-x="474" 
d="M266 157h166c-17.333 -53.333 -45.333 -94.5 -84 -123.5s-85.667 -43.5 -141 -43.5c-59.333 0 -104.833 17 -136.5 51s-47.5 80.667 -47.5 140c0 77.333 22.667 145.833 68 205.5s105.333 89.5 180 89.5c58 0 102.5 -18.5 133.5 -55.5s46.5 -85.167 46.5 -144.5
c0 -18 -2.66699 -44.333 -8 -79h-250c-0.666992 -4 -1 -10.333 -1 -19c0 -35.333 10.667 -53 32 -53c20.667 0 34.667 10.667 42 32zM207 290h79c0 1.33301 0.166992 3.33301 0.5 6s0.5 4.66699 0.5 6c0 31.333 -11.333 47 -34 47c-13.333 0 -23.833 -6 -31.5 -18
s-12.5 -25.667 -14.5 -41zM456 647l-12 -94h-335l12 94h335z" />
    <glyph glyph-name="Edotaccent" unicode="&#x116;" horiz-adv-x="405" 
d="M430 667l-20 -157h-152l-12 -97h137l-19 -151h-136l-13 -102h152l-19 -160h-330l82 667h330zM352 796c0 -7.33301 -2 -14.333 -6 -21c-6 -16 -16.333 -29.167 -31 -39.5s-30.334 -15.5 -47.001 -15.5c-18.667 0 -34.5 6.33301 -47.5 19s-19.5 28.667 -19.5 48
c0 22.667 8.33301 42.334 25 59.001s36.334 25 59.001 25c22 0 38.667 -6.83301 50 -20.5s17 -31.834 17 -54.501z" />
    <glyph glyph-name="edotaccent" unicode="&#x117;" horiz-adv-x="474" 
d="M266 157h166c-17.333 -53.333 -45.333 -94.5 -84 -123.5s-85.667 -43.5 -141 -43.5c-59.333 0 -104.833 17 -136.5 51s-47.5 80.667 -47.5 140c0 77.333 22.667 145.833 68 205.5s105.333 89.5 180 89.5c58 0 102.5 -18.5 133.5 -55.5s46.5 -85.167 46.5 -144.5
c0 -18 -2.66699 -44.333 -8 -79h-250c-0.666992 -4 -1 -10.333 -1 -19c0 -35.333 10.667 -53 32 -53c20.667 0 34.667 10.667 42 32zM207 290h79c0 1.33301 0.166992 3.33301 0.5 6s0.5 4.66699 0.5 6c0 31.333 -11.333 47 -34 47c-13.333 0 -23.833 -6 -31.5 -18
s-12.5 -25.667 -14.5 -41zM359 606c0 -7.33301 -2 -14.333 -6 -21c-6 -16 -16.333 -29.167 -31 -39.5s-30.334 -15.5 -47.001 -15.5c-19.333 0 -35.333 6.33301 -48 19s-19 28.667 -19 48c0 22.667 8.33301 42.334 25 59.001s36.334 25 59.001 25
c22 0 38.667 -6.83301 50 -20.5s17 -31.834 17 -54.501z" />
    <glyph glyph-name="Eogonek" unicode="&#x118;" horiz-adv-x="405" 
d="M430 667l-20 -156.998h-152l-12 -97h137l-19 -151h-136l-13 -102h152l-19 -160h-52c-8.66699 -10 -16.667 -22 -24 -36c-6 -12 -9 -23.667 -9 -35c0 -8.66699 2.66699 -16 8 -22c6 -6.66699 15 -10 27 -10c10.667 0 22.667 3 36 9l-17 -77
c-19.333 -8 -39.333 -12 -60 -12c-28 0 -50.333 7 -67 21c-15.333 13.333 -23 31.666 -23 54.999s7.33301 44.666 22 63.999c10 12.667 24.333 27 43 43h-214l82 667h330z" />
    <glyph glyph-name="eogonek" unicode="&#x119;" horiz-adv-x="474" 
d="M266 157l165.999 0.00195312c-10.667 -33.333 -27.667 -63 -51 -89c-14 -16 -35.667 -35.667 -65 -59c-24 -20 -39 -34.333 -45 -43c-7.33301 -10.667 -11 -22 -11 -34c0 -9.33301 3.33301 -17 10 -23c5.33301 -5.33301 13.333 -8 24 -8c11.333 0 23 3 35 9l-17 -73
c-18.667 -8 -39 -12 -61 -12c-28.667 0 -50.667 8 -66 24c-12.667 14 -19 31.333 -19 52c0 19.333 6.66699 38.666 20 57.999c8.66699 12 20 22.667 34 32c-5.33301 -0.666992 -13.333 -1 -24 -1c-48.667 0 -89 16 -121 48c-34.667 34.667 -52 82.334 -52 143.001
c0 45.333 8.16699 88.166 24.5 128.499s38.166 74.166 65.499 101.499c44.667 43.333 97.334 65 158.001 65c50.667 0 91.667 -15 123 -45c38 -36.667 57 -88.334 57 -155.001c0 -22.667 -2.66699 -49 -8 -79h-250c-0.666992 -3.33301 -1 -9.66602 -1 -18.999
c0 -22.667 4 -38 12 -46c6 -4.66699 12.667 -7 20 -7c8.66699 0 17 3 25 9c6.66699 5.33301 12.334 13 17.001 23zM206.999 290.002h79c0.666992 2.66699 1 7 1 13c0 16 -3.33301 27.667 -10 35c-6 7.33301 -14 11 -24 11s-18.667 -3.66699 -26 -11
c-12 -12 -18.667 -28 -20 -48z" />
    <glyph glyph-name="Ecaron" unicode="&#x11a;" horiz-adv-x="405" 
d="M430 667l-20 -157h-152l-12 -97h137l-19 -151h-136l-13 -102h152l-19 -160h-330l82 667h330zM431 802l-166 -98l-121 103l71 63l70 -58l92 56z" />
    <glyph glyph-name="ecaron" unicode="&#x11b;" horiz-adv-x="474" 
d="M266 157h166c-17.333 -53.333 -45.333 -94.5 -84 -123.5s-85.667 -43.5 -141 -43.5c-59.333 0 -104.833 17 -136.5 51s-47.5 80.667 -47.5 140c0 77.333 22.667 145.833 68 205.5s105.333 89.5 180 89.5c58 0 102.5 -18.5 133.5 -55.5s46.5 -85.167 46.5 -144.5
c0 -18 -2.66699 -44.333 -8 -79h-250c-0.666992 -4 -1 -10.333 -1 -19c0 -35.333 10.667 -53 32 -53c20.667 0 34.667 10.667 42 32zM207 290h79c0 1.33301 0.166992 3.33301 0.5 6s0.5 4.66699 0.5 6c0 31.333 -11.333 47 -34 47c-13.333 0 -23.833 -6 -31.5 -18
s-12.5 -25.667 -14.5 -41zM427 623l-159 -112l-118 118l71 61l64 -65l87 65z" />
    <glyph glyph-name="Gcircumflex" unicode="&#x11c;" horiz-adv-x="552" 
d="M543 514l-180.002 -63.999c0 45.333 -14.667 68 -44 68c-16.667 0 -31.167 -7.66699 -43.5 -23s-20.5 -29.5 -24.5 -42.5s-8.66699 -29.833 -14 -50.5c-14 -62 -21 -115.667 -21 -161c0 -62 17.667 -93 53 -93c21.333 0 38 10 50 30s19.667 42.333 23 67h-65l17 140h247
c-5.33301 -56.667 -13.333 -106 -24 -148c-17.333 -74 -47.833 -134 -91.5 -180s-101.167 -69 -172.5 -69c-74 0 -128.5 24.833 -163.5 74.5s-52.5 113.167 -52.5 190.5c0 63.333 8 122.333 24 177c20.667 71.333 54.834 130.666 102.501 177.999s105.834 71 174.501 71
c104 0 172.333 -55 205 -165zM385.998 870.001l124 -98l-65 -70l-71 55l-94 -57l-53 70z" />
    <glyph glyph-name="gcircumflex" unicode="&#x11d;" horiz-adv-x="485" 
d="M475 467l-59.001 -479.002c-6.66699 -55.333 -23 -98 -49 -128c-43.333 -50 -104.333 -75 -183 -75c-60.667 0 -106.5 13.333 -137.5 40s-46.833 69.667 -47.5 129h174c0 -25.333 10.333 -38 31 -38c12 0 21.5 3.83301 28.5 11.5s11.5 15.334 13.5 23.001
s4 18.167 6 31.5c2.66699 22.667 5.66699 46.667 9 72c-33.333 -40.667 -71.333 -61 -114 -61c-29.333 0 -53.833 10.167 -73.5 30.5s-33 43.333 -40 69s-10.5 52.834 -10.5 81.501c0 41.333 5 82 15 122c12.667 47.333 33.334 89.333 62.001 126s64 55 106 55
c34.667 0 65.667 -23.667 93 -71l4 61h172zM283.999 278.998c0 38 -9 57 -27 57c-14 0 -25.5 -9.66699 -34.5 -29s-14.667 -38.333 -17 -57s-3.5 -35.667 -3.5 -51c0 -42 10 -63 30 -63c18.667 0 32 16.667 40 50s12 64.333 12 93zM320.999 689.998l116 -117l-64 -63l-65 66
l-90 -70l-53 67z" />
    <glyph glyph-name="Gbreve" unicode="&#x11e;" horiz-adv-x="552" 
d="M543 514l-180.002 -63.999c0 45.333 -14.667 68 -44 68c-16.667 0 -31.167 -7.66699 -43.5 -23s-20.5 -29.5 -24.5 -42.5s-8.66699 -29.833 -14 -50.5c-14 -62 -21 -115.667 -21 -161c0 -62 17.667 -93 53 -93c21.333 0 38 10 50 30s19.667 42.333 23 67h-65l17 140h247
c-5.33301 -56.667 -13.333 -106 -24 -148c-17.333 -74 -47.833 -134 -91.5 -180s-101.167 -69 -172.5 -69c-74 0 -128.5 24.833 -163.5 74.5s-52.5 113.167 -52.5 190.5c0 63.333 8 122.333 24 177c20.667 71.333 54.834 130.666 102.501 177.999s105.834 71 174.501 71
c104 0 172.333 -55 205 -165zM452.998 866.001h69c-9.33301 -45.333 -29.5 -81.333 -60.5 -108s-69.5 -40 -115.5 -40c-40.667 0 -74.167 11.833 -100.5 35.5s-39.5 55.5 -39.5 95.5v17h69c5.33301 -21.333 14.5 -35.5 27.5 -42.5s31.167 -10.5 54.5 -10.5
c24.667 0 44.167 3.66699 58.5 11s26.833 21.333 37.5 42z" />
    <glyph glyph-name="gbreve" unicode="&#x11f;" horiz-adv-x="485" 
d="M475 467l-59.001 -479.002c-6.66699 -55.333 -23 -98 -49 -128c-43.333 -50 -104.333 -75 -183 -75c-60.667 0 -106.5 13.333 -137.5 40s-46.833 69.667 -47.5 129h174c0 -25.333 10.333 -38 31 -38c12 0 21.5 3.83301 28.5 11.5s11.5 15.334 13.5 23.001
s4 18.167 6 31.5c2.66699 22.667 5.66699 46.667 9 72c-33.333 -40.667 -71.333 -61 -114 -61c-29.333 0 -53.833 10.167 -73.5 30.5s-33 43.333 -40 69s-10.5 52.834 -10.5 81.501c0 41.333 5 82 15 122c12.667 47.333 33.334 89.333 62.001 126s64 55 106 55
c34.667 0 65.667 -23.667 93 -71l4 61h172zM283.999 278.998c0 38 -9 57 -27 57c-14 0 -25.5 -9.66699 -34.5 -29s-14.667 -38.333 -17 -57s-3.5 -35.667 -3.5 -51c0 -42 10 -63 30 -63c18.667 0 32 16.667 40 50s12 64.333 12 93zM382.999 668.998h69
c-9.33301 -45.333 -29.5 -81.333 -60.5 -108s-69.5 -40 -115.5 -40c-40.667 0 -74.167 11.833 -100.5 35.5s-39.5 55.5 -39.5 95.5v17h69c5.33301 -21.333 14.5 -35.5 27.5 -42.5s31.167 -10.5 54.5 -10.5c24.667 0 44.167 3.66699 58.5 11s26.833 21.333 37.5 42z" />
    <glyph glyph-name="Gdotaccent" unicode="&#x120;" horiz-adv-x="552" 
d="M543 514l-180.002 -63.999c0 45.333 -14.667 68 -44 68c-16.667 0 -31.167 -7.66699 -43.5 -23s-20.5 -29.5 -24.5 -42.5s-8.66699 -29.833 -14 -50.5c-14 -62 -21 -115.667 -21 -161c0 -62 17.667 -93 53 -93c21.333 0 38 10 50 30s19.667 42.333 23 67h-65l17 140h247
c-5.33301 -56.667 -13.333 -106 -24 -148c-17.333 -74 -47.833 -134 -91.5 -180s-101.167 -69 -172.5 -69c-74 0 -128.5 24.833 -163.5 74.5s-52.5 113.167 -52.5 190.5c0 63.333 8 122.333 24 177c20.667 71.333 54.834 130.666 102.501 177.999s105.834 71 174.501 71
c104 0 172.333 -55 205 -165zM429.998 796.001c0 -7.33301 -2 -14.333 -6 -21c-6 -16 -16.333 -29.167 -31 -39.5s-30.334 -15.5 -47.001 -15.5c-18.667 0 -34.5 6.33301 -47.5 19s-19.5 28.667 -19.5 48c0 22.667 8.33301 42.334 25 59.001s36.334 25 59.001 25
c22 0 38.667 -6.83301 50 -20.5s17 -31.834 17 -54.501z" />
    <glyph glyph-name="gdotaccent" unicode="&#x121;" horiz-adv-x="485" 
d="M475 467l-59.001 -479.002c-6.66699 -55.333 -23 -98 -49 -128c-43.333 -50 -104.333 -75 -183 -75c-60.667 0 -106.5 13.333 -137.5 40s-46.833 69.667 -47.5 129h174c0 -25.333 10.333 -38 31 -38c12 0 21.5 3.83301 28.5 11.5s11.5 15.334 13.5 23.001
s4 18.167 6 31.5c2.66699 22.667 5.66699 46.667 9 72c-33.333 -40.667 -71.333 -61 -114 -61c-29.333 0 -53.833 10.167 -73.5 30.5s-33 43.333 -40 69s-10.5 52.834 -10.5 81.501c0 41.333 5 82 15 122c12.667 47.333 33.334 89.333 62.001 126s64 55 106 55
c34.667 0 65.667 -23.667 93 -71l4 61h172zM283.999 278.998c0 38 -9 57 -27 57c-14 0 -25.5 -9.66699 -34.5 -29s-14.667 -38.333 -17 -57s-3.5 -35.667 -3.5 -51c0 -42 10 -63 30 -63c18.667 0 32 16.667 40 50s12 64.333 12 93zM361.999 605.998
c0 -7.33301 -2 -14.333 -6 -21c-6 -16 -16.333 -29.167 -31 -39.5s-30.334 -15.5 -47.001 -15.5c-18.667 0 -34.5 6.33301 -47.5 19s-19.5 28.667 -19.5 48c0 22.667 8.33301 42.334 25 59.001s36.334 25 59.001 25c22 0 38.667 -6.83301 50 -20.5s17 -31.834 17 -54.501z
" />
    <glyph glyph-name="Gcommaaccent" unicode="&#x122;" horiz-adv-x="552" 
d="M543 514l-180.002 -63.999c0 45.333 -14.667 68 -44 68c-16.667 0 -31.167 -7.66699 -43.5 -23s-20.5 -29.5 -24.5 -42.5s-8.66699 -29.833 -14 -50.5c-14 -62 -21 -115.667 -21 -161c0 -62 17.667 -93 53 -93c21.333 0 38 10 50 30s19.667 42.333 23 67h-65l17 140h247
c-5.33301 -56.667 -13.333 -106 -24 -148c-17.333 -74 -47.833 -134 -91.5 -180s-101.167 -69 -172.5 -69c-74 0 -128.5 24.833 -163.5 74.5s-52.5 113.167 -52.5 190.5c0 63.333 8 122.333 24 177c20.667 71.333 54.834 130.666 102.501 177.999s105.834 71 174.501 71
c104 0 172.333 -55 205 -165zM326.998 -44.999l-94 -188h-102l50 188h146z" />
    <glyph glyph-name="gcommaaccent" unicode="&#x123;" horiz-adv-x="485" 
d="M475 467l-59.001 -479.002c-6.66699 -55.333 -23 -98 -49 -128c-43.333 -50 -104.333 -75 -183 -75c-60.667 0 -106.5 13.333 -137.5 40s-46.833 69.667 -47.5 129h174c0 -25.333 10.333 -38 31 -38c12 0 21.5 3.83301 28.5 11.5s11.5 15.334 13.5 23.001
s4 18.167 6 31.5c2.66699 22.667 5.66699 46.667 9 72c-33.333 -40.667 -71.333 -61 -114 -61c-29.333 0 -53.833 10.167 -73.5 30.5s-33 43.333 -40 69s-10.5 52.834 -10.5 81.501c0 41.333 5 82 15 122c12.667 47.333 33.334 89.333 62.001 126s64 55 106 55
c34.667 0 65.667 -23.667 93 -71l4 61h172zM283.999 278.998c0 38 -9 57 -27 57c-14 0 -25.5 -9.66699 -34.5 -29s-14.667 -38.333 -17 -57s-3.5 -35.667 -3.5 -51c0 -42 10 -63 30 -63c18.667 0 32 16.667 40 50s12 64.333 12 93zM178.999 516.998l94 188h102l-50 -188
h-146z" />
    <glyph glyph-name="Hcircumflex" unicode="&#x124;" horiz-adv-x="531" 
d="M539 667l-82 -667h-177l33 268h-85l-33 -268h-177l82 667h177l-29 -236h85l29 236h177zM361 870l124 -98l-65 -70l-71 55l-94 -57l-53 70z" />
    <glyph glyph-name="hcircumflex" unicode="&#x125;" horiz-adv-x="483" 
d="M272 729l-32 -261c-4.66699 -33.333 -10 -63.333 -16 -90c35.333 66 80 99 134 99c31.333 0 55.833 -11.167 73.5 -33.5s26.5 -49.833 26.5 -82.5c0 -14.667 -1 -29 -3 -43l-39 -318h-171l31 247c1.33301 12 2 20.667 2 26c0 20.667 -7.66699 31 -23 31
c-24 0 -38.667 -23 -44 -69l-29 -235h-171l90 729h171zM211 930l116 -117l-64 -63l-65 66l-90 -70l-53 67z" />
    <glyph glyph-name="Hbar" unicode="&#x126;" horiz-adv-x="531" 
d="M18 0l62 505h-50l15 121h50l5 41h177l-5 -41h86l5 41h177l-5 -41h50l-15 -121h-50l-62 -505h-177l33 268h-86l-33 -268h-177zM343 505h-86l-10 -84h86z" />
    <glyph glyph-name="hbar" unicode="&#x127;" horiz-adv-x="489" 
d="M20 0l61 499h-54l14 105h53l15 125h173l-15 -125h118l-14 -105h-118l-8 -73c-4.66699 -33.333 -10 -63.333 -16 -90c35.333 66 80 99 134 99c31.333 0 55.833 -11.167 73.5 -33.5s26.5 -49.833 26.5 -82.5c0 -14.667 -1 -29 -3 -43l-35 -276h-171l27 205
c1.33301 12 2 20.667 2 26c0 20.667 -7.66699 31 -23 31c-24 0 -38.667 -23 -44 -69l-25 -193h-171z" />
    <glyph glyph-name="Imacron" unicode="&#x12a;" horiz-adv-x="269" 
d="M277 667l-82 -667h-177l82 667h177zM364 837l-12 -94h-335l12 94h335z" />
    <glyph glyph-name="imacron" unicode="&#x12b;" horiz-adv-x="250" 
d="M239 467l-57 -467h-171l58 467h170zM339 647l-12 -94h-335l12 94h335z" />
    <glyph glyph-name="Iogonek" unicode="&#x12e;" horiz-adv-x="269" 
d="M277 667l-82 -666.998c-8.66699 -10 -16.667 -22 -24 -36c-6 -12 -9 -23.667 -9 -35c0 -8.66699 2.66699 -16 8 -22c6 -6.66699 15 -10 27 -10c10.667 0 22.667 3 36 9l-17 -77c-19.333 -8 -39.333 -12 -60 -12c-28 0 -50.333 7 -67 21
c-15.333 13.333 -23 31.666 -23 54.999s7.33301 44.666 22 63.999c10 12.667 24.333 27 43 43h-113l82 667h177z" />
    <glyph glyph-name="iogonek" unicode="&#x12f;" horiz-adv-x="250" 
d="M186 713c24.667 0 45.333 -8.33301 62 -25c17.333 -16.667 26 -38 26 -64c0 -28.667 -11.333 -54.667 -34 -78s-49 -35 -79 -35c-24 0 -44.667 8.66699 -62 26c-17.333 18 -26 39 -26 63c0 29.333 11 55.333 33 78c23.333 23.333 50 35 80 35zM239.999 467
l-56.998 -467.002c-10.667 -13.333 -18.334 -24.666 -23.001 -33.999c-6.66699 -13.333 -10 -24.666 -10 -33.999s3.33301 -17 10 -23c5.33301 -5.33301 13.333 -8 24 -8c11.333 0 23 3 35 9l-17 -73c-18.667 -8 -39 -12 -61 -12c-28.667 0 -50.667 8 -66 24
c-12.667 14 -19 31.333 -19 52c0 20 6.66699 39.333 20 58c9.33301 13.333 23.666 27 42.999 41h-107l58 467h170z" />
    <glyph glyph-name="Idotaccent" unicode="&#x130;" horiz-adv-x="269" 
d="M277 667l-82 -667h-177l82 667h177zM277 796c0 -7.33301 -2 -14.333 -6 -21c-6 -16 -16.333 -29.167 -31 -39.5s-30.334 -15.5 -47.001 -15.5c-19.333 0 -35.333 6.33301 -48 19s-19 28.667 -19 48c0 22.667 8.33301 42.334 25 59.001s36.334 25 59.001 25
c22 0 38.667 -6.83301 50 -20.5s17 -31.834 17 -54.501z" />
    <glyph glyph-name="dotlessi" unicode="&#x131;" horiz-adv-x="249" 
d="M239 467l-57 -467h-171l58 467h170z" />
    <glyph glyph-name="Jcircumflex" unicode="&#x134;" horiz-adv-x="349" 
d="M357 667l-57.002 -462.999c-7.33301 -56.667 -19.666 -98.334 -36.999 -125.001c-38 -60.667 -97 -91 -177 -91c-35.333 0 -73 7.33301 -113 22l23 186c16.667 -26 38.667 -39 66 -39c36.667 0 58.334 27.333 65.001 82l52 428h178zM290.998 870.001l124 -98l-65 -70
l-71 55l-94 -57l-53 70z" />
    <glyph glyph-name="jcircumflex" unicode="&#x135;" horiz-adv-x="251" 
d="M241 467l-84 -682h-170l82 682h172zM176 690l116 -117l-64 -63l-65 66l-90 -70l-53 67z" />
    <glyph glyph-name="Kcommaaccent" unicode="&#x136;" horiz-adv-x="533" 
d="M564 667l-181 -322l117 -345h-191l-79 319l-35 -319h-177l82 667h177l-40 -298l140 298h187zM322 -45l-94 -188h-102l50 188h146z" />
    <glyph glyph-name="kcommaaccent" unicode="&#x137;" horiz-adv-x="487" 
d="M505 467l-139 -215.001l93 -252h-190l-41 146c-9.33301 32 -15.333 59 -18 81l-28 -227h-171l90 729h171l-57 -462c6 12.667 17 33.334 33 62.001l75 138h182zM297 -46.001l-94 -188h-102l50 188h146z" />
    <glyph glyph-name="Lacute" unicode="&#x139;" horiz-adv-x="363" 
d="M348 160l-19 -160h-311l82 667h177l-62 -507h133zM327 868l-105 -148h-98l65 148h138z" />
    <glyph glyph-name="lacute" unicode="&#x13a;" horiz-adv-x="250" 
d="M272 729l-90 -729h-171l90 729h171zM317 918l-105 -148h-98l65 148h138z" />
    <glyph glyph-name="Lcommaaccent" unicode="&#x13b;" horiz-adv-x="363" 
d="M348 160l-19 -160h-311l82 667h177l-62 -507h133zM247 -45l-94 -188h-102l50 188h146z" />
    <glyph glyph-name="lcommaaccent" unicode="&#x13c;" horiz-adv-x="250" 
d="M272 729l-90 -729h-171l90 729h171zM167 -46l-94 -188h-102l50 188h146z" />
    <glyph glyph-name="Lcaron" unicode="&#x13d;" horiz-adv-x="507" 
d="M348 160l-19 -160h-311l82 667h177l-62 -507h133zM507 667l-104 -209h-102l60 209h146z" />
    <glyph glyph-name="lcaron" unicode="&#x13e;" horiz-adv-x="487" 
d="M272 729l-90 -729h-171l90 729h171zM487 667l-100 -221h-104l58 221h146z" />
    <glyph glyph-name="Ldot" unicode="&#x13f;" horiz-adv-x="395" 
d="M348 160l-19 -160h-311l82 667h177l-62 -507h133zM421 334c0 -7.33301 -2 -14.333 -6 -21c-6 -16 -16.333 -29.167 -31 -39.5s-30.334 -15.5 -47.001 -15.5c-19.333 0 -35.333 6.33301 -48 19s-19 28.667 -19 48c0 22.667 8.33301 42.334 25 59.001s36.334 25 59.001 25
c22 0 38.667 -6.83301 50 -20.5s17 -31.834 17 -54.501z" />
    <glyph glyph-name="ldot" unicode="&#x140;" horiz-adv-x="396" 
d="M272 729l-90 -729h-171l90 729h171zM416 365c0 -7.33301 -2 -14.333 -6 -21c-6 -16 -16.333 -29.167 -31 -39.5s-30.334 -15.5 -47.001 -15.5c-18.667 0 -34.5 6.5 -47.5 19.5s-19.5 28.833 -19.5 47.5c0 22.667 8.33301 42.334 25 59.001s36.334 25 59.001 25
c22 0 38.667 -6.83301 50 -20.5s17 -31.834 17 -54.501z" />
    <glyph glyph-name="Lslash" unicode="&#x141;" horiz-adv-x="367" 
d="M351 160l-19 -160h-311l27 217l-52 -40l16 131l52 40l39 319h177l-27 -224l96 71l-16 -131l-96 -71l-19 -152h133z" />
    <glyph glyph-name="lslash" unicode="&#x142;" horiz-adv-x="296" 
d="M319 515l-15 -118l-54 -39l-44 -358h-171l34 275l-55 -38l14 118l55 38l42 336h170l-31 -253z" />
    <glyph glyph-name="Nacute" unicode="&#x143;" horiz-adv-x="554" 
d="M562 667l-82.001 -667h-169l-59 245c-12.667 54 -22 100.333 -28 139l-3 -53l-3 -53c-1.33301 -23.333 -11.666 -116 -30.999 -278h-169l82 667h169l60 -234c5.33301 -21.333 12 -52.5 20 -93.5s13 -65.833 15 -74.5c0 117.333 3.33301 201.333 10 252l19 150h169z
M471.999 868l-105 -148h-98l65 148h138z" />
    <glyph glyph-name="nacute" unicode="&#x144;" horiz-adv-x="483" 
d="M69 467h170c-9.33301 -56 -14.333 -85.667 -15 -89c35.333 66 80 99 134 99c31.333 0 55.833 -11.167 73.5 -33.5s26.5 -49.833 26.5 -82.5c0 -14.667 -1 -29 -3 -43l-39 -318h-171l31 247c1.33301 12 2 20.667 2 26c0 20.667 -7.66699 31 -23 31
c-24 0 -38.667 -23 -44 -69l-29 -235h-171zM417 678l-105 -148h-98l65 148h138z" />
    <glyph glyph-name="Ncommaaccent" unicode="&#x145;" horiz-adv-x="554" 
d="M562 667l-82.001 -667h-169l-59 245c-12.667 54 -22 100.333 -28 139l-3 -53l-3 -53c-1.33301 -23.333 -11.666 -116 -30.999 -278h-169l82 667h169l60 -234c5.33301 -21.333 12 -52.5 20 -93.5s13 -65.833 15 -74.5c0 117.333 3.33301 201.333 10 252l19 150h169z
M321.999 -45l-94 -188h-102l50 188h146z" />
    <glyph glyph-name="ncommaaccent" unicode="&#x146;" horiz-adv-x="483" 
d="M69 467h170c-9.33301 -56 -14.333 -85.667 -15 -89c35.333 66 80 99 134 99c31.333 0 55.833 -11.167 73.5 -33.5s26.5 -49.833 26.5 -82.5c0 -14.667 -1 -29 -3 -43l-39 -318h-171l31 247c1.33301 12 2 20.667 2 26c0 20.667 -7.66699 31 -23 31
c-24 0 -38.667 -23 -44 -69l-29 -235h-171zM287 -46l-94 -188h-102l50 188h146z" />
    <glyph glyph-name="Ncaron" unicode="&#x147;" horiz-adv-x="554" 
d="M562 667l-82.001 -667h-169l-59 245c-12.667 54 -22 100.333 -28 139l-3 -53l-3 -53c-1.33301 -23.333 -11.666 -116 -30.999 -278h-169l82 667h169l60 -234c5.33301 -21.333 12 -52.5 20 -93.5s13 -65.833 15 -74.5c0 117.333 3.33301 201.333 10 252l19 150h169z
M505.999 802l-166 -98l-121 103l71 63l70 -58l92 56z" />
    <glyph glyph-name="ncaron" unicode="&#x148;" horiz-adv-x="483" 
d="M69 467h170c-9.33301 -56 -14.333 -85.667 -15 -89c35.333 66 80 99 134 99c31.333 0 55.833 -11.167 73.5 -33.5s26.5 -49.833 26.5 -82.5c0 -14.667 -1 -29 -3 -43l-39 -318h-171l31 247c1.33301 12 2 20.667 2 26c0 20.667 -7.66699 31 -23 31
c-24 0 -38.667 -23 -44 -69l-29 -235h-171zM445 623l-159 -112l-118 118l71 61l64 -65l87 65z" />
    <glyph glyph-name="Omacron" unicode="&#x14c;" horiz-adv-x="558" 
d="M546 422c0 -67.333 -8.66699 -130.999 -26 -190.999c-20.667 -68.667 -53.834 -126.334 -99.501 -173.001s-101.167 -70 -166.5 -70c-33.333 0 -65 8 -95 24s-54.667 37.667 -74 65c-31.333 46 -47 108 -47 186c0 66.667 9.66699 129 29 187
c22.667 65.333 57.334 119.833 104.001 163.5s102 65.5 166 65.5c68 0 119.833 -25.167 155.5 -75.5s53.5 -110.833 53.5 -181.5zM362 408.001c0 68.667 -15.666 102.999 -46.999 102.999c-12.667 0 -24.334 -6 -35.001 -18s-19.334 -27.167 -26.001 -45.5
s-12 -35.166 -16 -50.499s-7 -29.333 -9 -42c-4.66699 -27.333 -7 -57 -7 -89c0 -72.667 16 -109 48 -109c12.667 0 24.5 6.16699 35.5 18.5s19.833 28 26.5 47s11.834 36.167 15.501 51.5s6.5 30 8.5 44c4 30 6 60 6 90zM524.001 837l-12 -94h-335l12 94h335z" />
    <glyph glyph-name="omacron" unicode="&#x14d;" horiz-adv-x="480" 
d="M456 280c0 -82 -21.498 -150.833 -64.498 -206.5s-104.167 -83.5 -183.5 -83.5c-60 0 -105.667 18 -137 54s-47 84.667 -47 146c0 77.333 22.167 144.5 66.5 201.5s104.166 85.5 179.499 85.5c59.333 0 105.166 -17.833 137.499 -53.5s48.5 -83.5 48.5 -143.5z
M291.002 269c0 51.333 -12.333 77 -37 77c-21.333 0 -37.333 -17.5 -48 -52.5s-16 -66.833 -16 -95.5c0 -51.333 12.333 -77 37 -77c21.333 0 37.333 17.5 48 52.5s16 66.833 16 95.5zM469.002 647l-12 -94h-335l12 94h335z" />
    <glyph glyph-name="Obreve" unicode="&#x14e;" horiz-adv-x="558" 
d="M546 422c0 -67.333 -8.66699 -130.999 -26 -190.999c-20.667 -68.667 -53.834 -126.334 -99.501 -173.001s-101.167 -70 -166.5 -70c-33.333 0 -65 8 -95 24s-54.667 37.667 -74 65c-31.333 46 -47 108 -47 186c0 66.667 9.66699 129 29 187
c22.667 65.333 57.334 119.833 104.001 163.5s102 65.5 166 65.5c68 0 119.833 -25.167 155.5 -75.5s53.5 -110.833 53.5 -181.5zM362 408.001c0 68.667 -15.666 102.999 -46.999 102.999c-12.667 0 -24.334 -6 -35.001 -18s-19.334 -27.167 -26.001 -45.5
s-12 -35.166 -16 -50.499s-7 -29.333 -9 -42c-4.66699 -27.333 -7 -57 -7 -89c0 -72.667 16 -109 48 -109c12.667 0 24.5 6.16699 35.5 18.5s19.833 28 26.5 47s11.834 36.167 15.501 51.5s6.5 30 8.5 44c4 30 6 60 6 90zM448.001 866h69
c-9.33301 -45.333 -29.5 -81.333 -60.5 -108s-69.5 -40 -115.5 -40c-40.667 0 -74.167 11.833 -100.5 35.5s-39.5 55.5 -39.5 95.5v17h69c5.33301 -21.333 14.5 -35.5 27.5 -42.5s31.167 -10.5 54.5 -10.5c24.667 0 44.167 3.66699 58.5 11s26.833 21.333 37.5 42z" />
    <glyph glyph-name="obreve" unicode="&#x14f;" horiz-adv-x="480" 
d="M456 280c0 -82 -21.498 -150.833 -64.498 -206.5s-104.167 -83.5 -183.5 -83.5c-60 0 -105.667 18 -137 54s-47 84.667 -47 146c0 77.333 22.167 144.5 66.5 201.5s104.166 85.5 179.499 85.5c59.333 0 105.166 -17.833 137.499 -53.5s48.5 -83.5 48.5 -143.5z
M291.002 269c0 51.333 -12.333 77 -37 77c-21.333 0 -37.333 -17.5 -48 -52.5s-16 -66.833 -16 -95.5c0 -51.333 12.333 -77 37 -77c21.333 0 37.333 17.5 48 52.5s16 66.833 16 95.5zM383.002 669h69c-9.33301 -45.333 -29.5 -81.333 -60.5 -108s-69.5 -40 -115.5 -40
c-40.667 0 -74.167 11.833 -100.5 35.5s-39.5 55.5 -39.5 95.5v17h69c5.33301 -21.333 14.5 -35.5 27.5 -42.5s31.167 -10.5 54.5 -10.5c24.667 0 44.167 3.66699 58.5 11s26.833 21.333 37.5 42z" />
    <glyph glyph-name="Ohungarumlaut" unicode="&#x150;" horiz-adv-x="558" 
d="M546 422c0 -67.333 -8.66699 -130.999 -26 -190.999c-20.667 -68.667 -53.834 -126.334 -99.501 -173.001s-101.167 -70 -166.5 -70c-33.333 0 -65 8 -95 24s-54.667 37.667 -74 65c-31.333 46 -47 108 -47 186c0 66.667 9.66699 129 29 187
c22.667 65.333 57.334 119.833 104.001 163.5s102 65.5 166 65.5c68 0 119.833 -25.167 155.5 -75.5s53.5 -110.833 53.5 -181.5zM362 408.001c0 68.667 -15.666 102.999 -46.999 102.999c-12.667 0 -24.334 -6 -35.001 -18s-19.334 -27.167 -26.001 -45.5
s-12 -35.166 -16 -50.499s-7 -29.333 -9 -42c-4.66699 -27.333 -7 -57 -7 -89c0 -72.667 16 -109 48 -109c12.667 0 24.5 6.16699 35.5 18.5s19.833 28 26.5 47s11.834 36.167 15.501 51.5s6.5 30 8.5 44c4 30 6 60 6 90zM571.001 868l-105 -148h-88l65 148h128z
M406.001 868l-104 -148h-88l65 148h127z" />
    <glyph glyph-name="ohungarumlaut" unicode="&#x151;" horiz-adv-x="480" 
d="M456 280c0 -82 -21.498 -150.833 -64.498 -206.5s-104.167 -83.5 -183.5 -83.5c-60 0 -105.667 18 -137 54s-47 84.667 -47 146c0 77.333 22.167 144.5 66.5 201.5s104.166 85.5 179.499 85.5c59.333 0 105.166 -17.833 137.499 -53.5s48.5 -83.5 48.5 -143.5z
M291.002 269c0 51.333 -12.333 77 -37 77c-21.333 0 -37.333 -17.5 -48 -52.5s-16 -66.833 -16 -95.5c0 -51.333 12.333 -77 37 -77c21.333 0 37.333 17.5 48 52.5s16 66.833 16 95.5zM506.002 678l-105 -148h-88l65 148h128zM341.002 678l-104 -148h-88l65 148h127z" />
    <glyph glyph-name="OE" unicode="&#x152;" horiz-adv-x="697" 
d="M675 413l-19 -150.999h-134l-12 -102h149l-19 -160h-328l6 49c-29.333 -38 -63.333 -57 -102 -57c-55.333 0 -99 24.667 -131 74c-31.333 49.333 -47 112.666 -47 189.999c0 70 10.5 137.167 31.5 201.5s50.833 115.833 89.5 154.5c40.667 40.667 86 61 136 61
c44 0 75 -17.333 93 -52l6 46h326l-19 -157h-148l-12 -97h134zM220 262.001c0 -49.333 8.33203 -81.333 24.999 -96c6.66699 -6.66699 15.334 -10 26.001 -10c11.333 0 22.333 5.33301 33 16c19.333 19.333 34.666 59 45.999 119c8 40 12 79.667 12 119
c0 46.667 -7 77 -21 91c-6.66699 6.66699 -14.667 10 -24 10c-13.333 0 -25 -5.33301 -35 -16c-17.333 -18 -31.666 -48.667 -42.999 -92c-12.667 -48 -19 -95 -19 -141z" />
    <glyph glyph-name="oe" unicode="&#x153;" horiz-adv-x="726" 
d="M521 157l162.001 0.00195312c-18 -52.667 -46.833 -93.667 -86.5 -123s-85.834 -44 -138.501 -44c-48.667 0 -89 14.333 -121 43c-30.667 -28.667 -69.667 -43 -117 -43c-62 0 -110.167 17.667 -144.5 53s-51.5 84.333 -51.5 147c0 80 22.167 147.5 66.5 202.5
s105.833 82.833 184.5 83.5c48.667 0 87.667 -14 117 -42c38.667 28 81.667 42 129 42c58 -0.666992 103 -19.334 135 -56.001s48 -84.334 48 -143.001c0 -20 -3 -46.667 -9 -80h-253v-17c0 -40.667 12 -61 36 -61c20 0 34.333 12.667 43 38zM454.001 290.002h86
c0 39.333 -12 59 -36 59s-40.667 -19.667 -50 -59zM293.001 271.002c0 50.667 -12.666 76 -37.999 76c-21.333 0 -37.333 -17.667 -48 -53s-16 -67.333 -16 -96c0 -51.333 12.333 -77 37 -77c15.333 0 28.166 10.333 38.499 31s17.333 41.667 21 63s5.5 40 5.5 56z" />
    <glyph glyph-name="Racute" unicode="&#x154;" horiz-adv-x="525" 
d="M100 667h181c153.333 0 230 -63.667 230 -191c0 -98 -41.333 -164.333 -124 -199l98 -277h-192l-23.5 93c-11.667 46 -20.167 81.667 -25.5 107l-8.5 38.5l-8.5 38.5c-5.33301 -62 -16 -154.333 -32 -277h-177zM239 358h12c23.333 0 43 9.83301 59 29.5s24 41.5 24 65.5
c0 42.667 -25 64 -75 64zM449 868l-105 -148h-98l65 148h138z" />
    <glyph glyph-name="racute" unicode="&#x155;" horiz-adv-x="339" 
d="M360 478l-24 -194c-16.667 10 -32 15 -46 15c-22 0 -41 -9 -57 -27c-14 -15.333 -22.667 -39.333 -26 -72l-25 -200h-171l58 467h170l-20 -91c34 66 81 100 141 102zM377 678l-105 -148h-98l65 148h138z" />
    <glyph glyph-name="Rcommaaccent" unicode="&#x156;" horiz-adv-x="525" 
d="M100 667h181c153.333 0 230 -63.667 230 -191c0 -98 -41.333 -164.333 -124 -199l98 -277h-192l-23.5 93c-11.667 46 -20.167 81.667 -25.5 107l-8.5 38.5l-8.5 38.5c-5.33301 -62 -16 -154.333 -32 -277h-177zM239 358h12c23.333 0 43 9.83301 59 29.5s24 41.5 24 65.5
c0 42.667 -25 64 -75 64zM317 -45l-94 -188h-102l50 188h146z" />
    <glyph glyph-name="rcommaaccent" unicode="&#x157;" horiz-adv-x="339" 
d="M360 478l-24 -194c-16.667 10 -32 15 -46 15c-22 0 -41 -9 -57 -27c-14 -15.333 -22.667 -39.333 -26 -72l-25 -200h-171l58 467h170l-20 -91c34 66 81 100 141 102zM277 -46l-94 -188h-102l50 188h146z" />
    <glyph glyph-name="Rcaron" unicode="&#x158;" horiz-adv-x="525" 
d="M100 667h181c153.333 0 230 -63.667 230 -191c0 -98 -41.333 -164.333 -124 -199l98 -277h-192l-23.5 93c-11.667 46 -20.167 81.667 -25.5 107l-8.5 38.5l-8.5 38.5c-5.33301 -62 -16 -154.333 -32 -277h-177zM239 358h12c23.333 0 43 9.83301 59 29.5s24 41.5 24 65.5
c0 42.667 -25 64 -75 64zM463 802l-166 -98l-121 103l71 63l70 -58l92 56z" />
    <glyph glyph-name="rcaron" unicode="&#x159;" horiz-adv-x="339" 
d="M360 478l-24 -194c-16.667 10 -32 15 -46 15c-22 0 -41 -9 -57 -27c-14 -15.333 -22.667 -39.333 -26 -72l-25 -200h-171l58 467h170l-20 -91c34 66 81 100 141 102zM400 623l-159 -112l-118 118l71 61l64 -65l87 65z" />
    <glyph glyph-name="Sacute" unicode="&#x15a;" horiz-adv-x="398" 
d="M408 645l-24.9971 -203.999c-24.667 48.667 -56.334 73 -95.001 73c-12.667 0 -24.667 -4.16699 -36 -12.5s-17 -18.833 -17 -31.5s7.33301 -26.334 22 -41.001s30.667 -28.5 48 -41.5s33.333 -32.167 48 -57.5s22 -53.333 22 -84c0 -70 -23 -130.5 -69 -181.5
s-103.667 -76.5 -173 -76.5c-42 0 -84.333 9.66699 -127 29l26 209c29.333 -48.667 64 -73 104 -73c15.333 0 28.833 4.5 40.5 13.5s17.5 21.167 17.5 36.5c0 10.667 -4.66699 21.5 -14 32.5s-20.833 22.167 -34.5 33.5s-27.334 24 -41.001 38s-25.167 32 -34.5 54
s-14 46.333 -14 73c0 63.333 22.5 120 67.5 170s98.5 75 160.5 75c41.333 0 82.666 -11.333 123.999 -34zM437.003 868.001l-105 -148h-98l65 148h138z" />
    <glyph glyph-name="sacute" unicode="&#x15b;" horiz-adv-x="389" 
d="M390 439l-74.001 -127.002c-23.333 27.333 -45 41 -65 41c-7.33301 0 -14.166 -2.33301 -20.499 -7s-9.5 -10.667 -9.5 -18c0 -11.333 7.33301 -21.166 22 -29.499s31 -15.666 49 -21.999s34.333 -18.5 49 -36.5s22 -41 22 -69c0 -52.667 -20.5 -96 -61.5 -130
s-88.5 -51 -142.5 -51c-30 0 -56.5 3.83301 -79.5 11.5s-49.5 20.167 -79.5 37.5l78 129c25.333 -32.667 51.666 -49 78.999 -49c9.33301 0 17.666 2.33301 24.999 7s11 11.334 11 20.001c0 6.66699 -2.66699 12.5 -8 17.5s-9.66602 8.16699 -12.999 9.5
s-9.66602 3.66602 -18.999 6.99902c-32.667 12.667 -58.167 28 -76.5 46s-27.5 42.333 -27.5 73c0 52.667 21.333 95.5 64 128.5s91 49.5 145 49.5c44 0 88 -12.667 132 -38zM411.999 677.998l-105 -148h-98l65 148h138z" />
    <glyph glyph-name="Scircumflex" unicode="&#x15c;" horiz-adv-x="398" 
d="M408 645l-24.9971 -203.999c-24.667 48.667 -56.334 73 -95.001 73c-12.667 0 -24.667 -4.16699 -36 -12.5s-17 -18.833 -17 -31.5s7.33301 -26.334 22 -41.001s30.667 -28.5 48 -41.5s33.333 -32.167 48 -57.5s22 -53.333 22 -84c0 -70 -23 -130.5 -69 -181.5
s-103.667 -76.5 -173 -76.5c-42 0 -84.333 9.66699 -127 29l26 209c29.333 -48.667 64 -73 104 -73c15.333 0 28.833 4.5 40.5 13.5s17.5 21.167 17.5 36.5c0 10.667 -4.66699 21.5 -14 32.5s-20.833 22.167 -34.5 33.5s-27.334 24 -41.001 38s-25.167 32 -34.5 54
s-14 46.333 -14 73c0 63.333 22.5 120 67.5 170s98.5 75 160.5 75c41.333 0 82.666 -11.333 123.999 -34zM316.003 870.001l124 -98l-65 -70l-71 55l-94 -57l-53 70z" />
    <glyph glyph-name="scircumflex" unicode="&#x15d;" horiz-adv-x="389" 
d="M390 439l-74.001 -127.002c-23.333 27.333 -45 41 -65 41c-7.33301 0 -14.166 -2.33301 -20.499 -7s-9.5 -10.667 -9.5 -18c0 -11.333 7.33301 -21.166 22 -29.499s31 -15.666 49 -21.999s34.333 -18.5 49 -36.5s22 -41 22 -69c0 -52.667 -20.5 -96 -61.5 -130
s-88.5 -51 -142.5 -51c-30 0 -56.5 3.83301 -79.5 11.5s-49.5 20.167 -79.5 37.5l78 129c25.333 -32.667 51.666 -49 78.999 -49c9.33301 0 17.666 2.33301 24.999 7s11 11.334 11 20.001c0 6.66699 -2.66699 12.5 -8 17.5s-9.66602 8.16699 -12.999 9.5
s-9.66602 3.66602 -18.999 6.99902c-32.667 12.667 -58.167 28 -76.5 46s-27.5 42.333 -27.5 73c0 52.667 21.333 95.5 64 128.5s91 49.5 145 49.5c44 0 88 -12.667 132 -38zM290.999 689.998l116 -117l-64 -63l-65 66l-90 -70l-53 67z" />
    <glyph glyph-name="Scedilla" unicode="&#x15e;" horiz-adv-x="398" 
d="M408 645l-24.9971 -203.999c-24.667 48.667 -56.334 73 -95.001 73c-12.667 0 -24.667 -4.16699 -36 -12.5s-17 -18.833 -17 -31.5s7.33301 -26.334 22 -41.001s30.667 -28.5 48 -41.5s33.333 -32.167 48 -57.5s22 -53.333 22 -84c0 -70 -23 -130.5 -69 -181.5
s-103.667 -76.5 -173 -76.5c-42 0 -84.333 9.66699 -127 29l26 209c29.333 -48.667 64 -73 104 -73c15.333 0 28.833 4.5 40.5 13.5s17.5 21.167 17.5 36.5c0 10.667 -4.66699 21.5 -14 32.5s-20.833 22.167 -34.5 33.5s-27.334 24 -41.001 38s-25.167 32 -34.5 54
s-14 46.333 -14 73c0 63.333 22.5 120 67.5 170s98.5 75 160.5 75c41.333 0 82.666 -11.333 123.999 -34zM220.003 -112.999l-126 -124l-77 53l107 137z" />
    <glyph glyph-name="scedilla" unicode="&#x15f;" horiz-adv-x="389" 
d="M390 439l-74.001 -127.002c-23.333 27.333 -45 41 -65 41c-7.33301 0 -14.166 -2.33301 -20.499 -7s-9.5 -10.667 -9.5 -18c0 -11.333 7.33301 -21.166 22 -29.499s31 -15.666 49 -21.999s34.333 -18.5 49 -36.5s22 -41 22 -69c0 -52.667 -20.5 -96 -61.5 -130
s-88.5 -51 -142.5 -51c-30 0 -56.5 3.83301 -79.5 11.5s-49.5 20.167 -79.5 37.5l78 129c25.333 -32.667 51.666 -49 78.999 -49c9.33301 0 17.666 2.33301 24.999 7s11 11.334 11 20.001c0 6.66699 -2.66699 12.5 -8 17.5s-9.66602 8.16699 -12.999 9.5
s-9.66602 3.66602 -18.999 6.99902c-32.667 12.667 -58.167 28 -76.5 46s-27.5 42.333 -27.5 73c0 52.667 21.333 95.5 64 128.5s91 49.5 145 49.5c44 0 88 -12.667 132 -38zM237.999 -106.002l-126 -117l-71 54l102 122z" />
    <glyph glyph-name="Scaron" unicode="&#x160;" horiz-adv-x="398" 
d="M408 645l-24.9971 -203.999c-24.667 48.667 -56.334 73 -95.001 73c-12.667 0 -24.667 -4.16699 -36 -12.5s-17 -18.833 -17 -31.5s7.33301 -26.334 22 -41.001s30.667 -28.5 48 -41.5s33.333 -32.167 48 -57.5s22 -53.333 22 -84c0 -70 -23 -130.5 -69 -181.5
s-103.667 -76.5 -173 -76.5c-42 0 -84.333 9.66699 -127 29l26 209c29.333 -48.667 64 -73 104 -73c15.333 0 28.833 4.5 40.5 13.5s17.5 21.167 17.5 36.5c0 10.667 -4.66699 21.5 -14 32.5s-20.833 22.167 -34.5 33.5s-27.334 24 -41.001 38s-25.167 32 -34.5 54
s-14 46.333 -14 73c0 63.333 22.5 120 67.5 170s98.5 75 160.5 75c41.333 0 82.666 -11.333 123.999 -34zM451.003 802.001l-166 -98l-121 103l71 63l70 -58l92 56z" />
    <glyph glyph-name="scaron" unicode="&#x161;" horiz-adv-x="389" 
d="M390 439l-74.001 -127.002c-23.333 27.333 -45 41 -65 41c-7.33301 0 -14.166 -2.33301 -20.499 -7s-9.5 -10.667 -9.5 -18c0 -11.333 7.33301 -21.166 22 -29.499s31 -15.666 49 -21.999s34.333 -18.5 49 -36.5s22 -41 22 -69c0 -52.667 -20.5 -96 -61.5 -130
s-88.5 -51 -142.5 -51c-30 0 -56.5 3.83301 -79.5 11.5s-49.5 20.167 -79.5 37.5l78 129c25.333 -32.667 51.666 -49 78.999 -49c9.33301 0 17.666 2.33301 24.999 7s11 11.334 11 20.001c0 6.66699 -2.66699 12.5 -8 17.5s-9.66602 8.16699 -12.999 9.5
s-9.66602 3.66602 -18.999 6.99902c-32.667 12.667 -58.167 28 -76.5 46s-27.5 42.333 -27.5 73c0 52.667 21.333 95.5 64 128.5s91 49.5 145 49.5c44 0 88 -12.667 132 -38zM414.999 622.998l-159 -112l-118 118l71 61l64 -65l87 65z" />
    <glyph glyph-name="Tcedilla" unicode="&#x162;" horiz-adv-x="377" 
d="M427 667l-20 -160h-98l-62 -507h-177l62 507h-98l20 160h373zM237 -113l-126 -124l-77 53l107 137z" />
    <glyph glyph-name="tcedilla" unicode="&#x163;" horiz-adv-x="297" 
d="M319 467l-17 -140h-56l-41 -327h-170l40 327h-49l17 140h49l17 137h171l-17 -137h56zM197 -106l-126 -117l-71 54l102 122z" />
    <glyph glyph-name="Tcaron" unicode="&#x164;" horiz-adv-x="377" 
d="M407 507l20 160h-373l-20 -160h98l-62 -507h177l62 507h98zM411 802l-166 -98l-121 103l71 63l70 -58l92 56z" />
    <glyph glyph-name="tcaron" unicode="&#x165;" horiz-adv-x="507" 
d="M319 467l-17 -140h-56l-41 -327h-170l40 327h-49l17 140h49l17 137h171l-17 -137h56zM517 727l-100 -221h-104l58 221h146z" />
    <glyph glyph-name="Utilde" unicode="&#x168;" horiz-adv-x="537" 
d="M545 667l-58 -472c-7.33301 -65.333 -35.666 -117 -84.999 -155c-44 -34.667 -95.667 -52 -155 -52c-61.333 0 -110.833 15.667 -148.5 47s-56.5 77 -56.5 137c0 16 1 32 3 48l55 447h177l-53 -431c-1.33301 -14.667 -2 -25.667 -2 -33c0 -30.667 13 -46 39 -46
c10.667 0 19.5 2.33301 26.5 7s12.333 11.5 16 20.5s6.16699 17 7.5 24s2.66602 16.167 3.99902 27.5l53 431h177zM423 855l87.9971 -0.000976562c-3.33301 -37.333 -15.166 -68.833 -35.499 -94.5s-48.5 -38.5 -84.5 -38.5c-16.667 0 -37.167 5.5 -61.5 16.5
s-40.833 16.5 -49.5 16.5c-16.667 0 -27 -11.667 -31 -35h-89c2.66699 22.667 6.66699 41.334 12 56.001c8.66699 22 22.334 40.167 41.001 54.5s39.334 21.5 62.001 21.5c18 0 39.167 -5.5 63.5 -16.5s41.833 -16.5 52.5 -16.5c17.333 0 28 12 32 36z" />
    <glyph glyph-name="utilde" unicode="&#x169;" horiz-adv-x="492" 
d="M482 467l-35 -287c-8 -66 -36.333 -115 -85 -147c-44 -28.667 -92.333 -43 -145 -43c-52 0 -96 13.167 -132 39.5s-54 64.5 -54 114.5l3 36l35 287h170l-32 -263c0 -0.666992 -0.5 -5.5 -1.5 -14.5s-1.5 -15.833 -1.5 -20.5c0 -22.667 10.333 -34 31 -34
c8.66699 0 16 2 22 6s10.5 10.333 13.5 19s4.83301 15.5 5.5 20.5l3 23.5l32 263h171zM379 665l87.9971 -0.000976562c-3.33301 -37.333 -15.166 -68.833 -35.499 -94.5s-48.5 -38.5 -84.5 -38.5c-16.667 0 -37 5.5 -61 16.5s-40.667 16.5 -50 16.5
c-16.667 0 -27 -11.667 -31 -35h-89c2.66699 22.667 6.66699 41.334 12 56.001c8.66699 22 22.334 40.167 41.001 54.5s39.334 21.5 62.001 21.5c18 0 39.167 -5.5 63.5 -16.5s41.833 -16.5 52.5 -16.5c17.333 0 28 12 32 36z" />
    <glyph glyph-name="Umacron" unicode="&#x16a;" horiz-adv-x="537" 
d="M545 667l-58 -472c-7.33301 -65.333 -35.666 -117 -84.999 -155c-44 -34.667 -95.667 -52 -155 -52c-61.333 0 -110.833 15.667 -148.5 47s-56.5 77 -56.5 137c0 16 1 32 3 48l55 447h177l-53 -431c-1.33301 -14.667 -2 -25.667 -2 -33c0 -30.667 13 -46 39 -46
c10.667 0 19.5 2.33301 26.5 7s12.333 11.5 16 20.5s6.16699 17 7.5 24s2.66602 16.167 3.99902 27.5l53 431h177zM509 837l-12 -94h-335l12 94h335z" />
    <glyph glyph-name="umacron" unicode="&#x16b;" horiz-adv-x="492" 
d="M482 467l-35 -287c-8 -66 -36.333 -115 -85 -147c-44 -28.667 -92.333 -43 -145 -43c-52 0 -96 13.167 -132 39.5s-54 64.5 -54 114.5l3 36l35 287h170l-32 -263c0 -0.666992 -0.5 -5.5 -1.5 -14.5s-1.5 -15.833 -1.5 -20.5c0 -22.667 10.333 -34 31 -34
c8.66699 0 16 2 22 6s10.5 10.333 13.5 19s4.83301 15.5 5.5 20.5l3 23.5l32 263h171zM459 647l-12 -94h-335l12 94h335z" />
    <glyph glyph-name="Ubreve" unicode="&#x16c;" horiz-adv-x="537" 
d="M545 667l-58 -472c-7.33301 -65.333 -35.666 -117 -84.999 -155c-44 -34.667 -95.667 -52 -155 -52c-61.333 0 -110.833 15.667 -148.5 47s-56.5 77 -56.5 137c0 16 1 32 3 48l55 447h177l-53 -431c-1.33301 -14.667 -2 -25.667 -2 -33c0 -30.667 13 -46 39 -46
c10.667 0 19.5 2.33301 26.5 7s12.333 11.5 16 20.5s6.16699 17 7.5 24s2.66602 16.167 3.99902 27.5l53 431h177zM433 866h69c-9.33301 -45.333 -29.5 -81.333 -60.5 -108s-69.5 -40 -115.5 -40c-40.667 0 -74.167 11.833 -100.5 35.5s-39.5 55.5 -39.5 95.5v17h69
c5.33301 -21.333 14.5 -35.5 27.5 -42.5s31.167 -10.5 54.5 -10.5c24.667 0 44.167 3.66699 58.5 11s26.833 21.333 37.5 42z" />
    <glyph glyph-name="ubreve" unicode="&#x16d;" horiz-adv-x="492" 
d="M482 467l-35 -287c-8 -66 -36.333 -115 -85 -147c-44 -28.667 -92.333 -43 -145 -43c-52 0 -96 13.167 -132 39.5s-54 64.5 -54 114.5l3 36l35 287h170l-32 -263c0 -0.666992 -0.5 -5.5 -1.5 -14.5s-1.5 -15.833 -1.5 -20.5c0 -22.667 10.333 -34 31 -34
c8.66699 0 16 2 22 6s10.5 10.333 13.5 19s4.83301 15.5 5.5 20.5l3 23.5l32 263h171zM383 669h69c-9.33301 -45.333 -29.5 -81.333 -60.5 -108s-69.5 -40 -115.5 -40c-40.667 0 -74.167 11.833 -100.5 35.5s-39.5 55.5 -39.5 95.5v17h69
c5.33301 -21.333 14.5 -35.5 27.5 -42.5s31.167 -10.5 54.5 -10.5c24.667 0 44.167 3.66699 58.5 11s26.833 21.333 37.5 42z" />
    <glyph glyph-name="Uring" unicode="&#x16e;" horiz-adv-x="537" 
d="M545 667l-58 -472c-7.33301 -65.333 -35.666 -117 -84.999 -155c-44 -34.667 -95.667 -52 -155 -52c-61.333 0 -110.833 15.667 -148.5 47s-56.5 77 -56.5 137c0 16 1 32 3 48l55 447h177l-53 -431c-1.33301 -14.667 -2 -25.667 -2 -33c0 -30.667 13 -46 39 -46
c10.667 0 19.5 2.33301 26.5 7s12.333 11.5 16 20.5s6.16699 17 7.5 24s2.66602 16.167 3.99902 27.5l53 431h177zM243 810c0 26.667 9.33105 49.335 27.998 68.002s41.334 28 68.001 28s49.334 -9.33301 68.001 -28s28 -41.334 28 -68.001s-9.5 -49.334 -28.5 -68.001
s-41.167 -28 -66.5 -28c-26.667 0 -49.5 9.5 -68.5 28.5s-28.5 41.5 -28.5 67.5zM301.998 810.001c0 -10.667 3.5 -19.5 10.5 -26.5s15.833 -10.5 26.5 -10.5s19.5 3.5 26.5 10.5s10.5 15.833 10.5 26.5s-3.5 19.5 -10.5 26.5s-15.833 10.5 -26.5 10.5
s-19.5 -3.5 -26.5 -10.5s-10.5 -15.833 -10.5 -26.5z" />
    <glyph glyph-name="uring" unicode="&#x16f;" horiz-adv-x="492" 
d="M482 467l-35 -287c-8 -66 -36.333 -115 -85 -147c-44 -28.667 -92.333 -43 -145 -43c-52 0 -96 13.167 -132 39.5s-54 64.5 -54 114.5l3 36l35 287h170l-32 -263c0 -0.666992 -0.5 -5.5 -1.5 -14.5s-1.5 -15.833 -1.5 -20.5c0 -22.667 10.333 -34 31 -34
c8.66699 0 16 2 22 6s10.5 10.333 13.5 19s4.83301 15.5 5.5 20.5l3 23.5l32 263h171zM188 619c0 26.667 9.33301 49.334 28 68.001s41.334 28 68.001 28s49.334 -9.33301 68.001 -28s28 -41.334 28 -68.001s-9.33301 -49.334 -28 -68.001s-41.334 -28 -68.001 -28
s-49.334 9.33301 -68.001 28s-28 41.334 -28 68.001zM247 619c0 -10.667 3.5 -19.5 10.5 -26.5s15.833 -10.5 26.5 -10.5s19.5 3.5 26.5 10.5s10.5 15.833 10.5 26.5s-3.5 19.5 -10.5 26.5s-15.833 10.5 -26.5 10.5s-19.5 -3.5 -26.5 -10.5s-10.5 -15.833 -10.5 -26.5z" />
    <glyph glyph-name="Uhungarumlaut" unicode="&#x170;" horiz-adv-x="537" 
d="M545 667l-58 -472c-7.33301 -65.333 -35.666 -117 -84.999 -155c-44 -34.667 -95.667 -52 -155 -52c-61.333 0 -110.833 15.667 -148.5 47s-56.5 77 -56.5 137c0 16 1 32 3 48l55 447h177l-53 -431c-1.33301 -14.667 -2 -25.667 -2 -33c0 -30.667 13 -46 39 -46
c10.667 0 19.5 2.33301 26.5 7s12.333 11.5 16 20.5s6.16699 17 7.5 24s2.66602 16.167 3.99902 27.5l53 431h177zM521 868l-105 -148h-88l65 148h128zM356 868l-104 -148h-88l65 148h127z" />
    <glyph glyph-name="uhungarumlaut" unicode="&#x171;" horiz-adv-x="492" 
d="M482 467l-35 -287c-8 -66 -36.333 -115 -85 -147c-44 -28.667 -92.333 -43 -145 -43c-52 0 -96 13.167 -132 39.5s-54 64.5 -54 114.5l3 36l35 287h170l-32 -263c0 -0.666992 -0.5 -5.5 -1.5 -14.5s-1.5 -15.833 -1.5 -20.5c0 -22.667 10.333 -34 31 -34
c8.66699 0 16 2 22 6s10.5 10.333 13.5 19s4.83301 15.5 5.5 20.5l3 23.5l32 263h171zM491 678l-105 -148h-88l65 148h128zM326 678l-104 -148h-88l65 148h127z" />
    <glyph glyph-name="Uogonek" unicode="&#x172;" horiz-adv-x="537" 
d="M545 667l-58 -471.998c-4.66699 -38.667 -13.667 -70.334 -27 -95.001c-15.333 -28.667 -38 -54.334 -68 -77.001c-2.66699 -2 -13.5 -9.5 -32.5 -22.5s-32.167 -23.167 -39.5 -30.5c-12.667 -14 -19 -27.333 -19 -40c0 -8.66699 2.66699 -16.334 8 -23.001
c6 -6.66699 15 -10 27 -10c10.667 0 22.667 3 36 9l-17 -77c-19.333 -8 -39.333 -12 -60 -12c-29.333 0 -51.666 7 -66.999 21s-23 33 -23 57c0 18.667 6 37.334 18 56.001c9.33301 13.333 20.666 26 33.999 38h-10c-60 0 -106.667 13 -140 39
c-43.333 32.667 -65 81.667 -65 147c0 16.667 1 31.667 3 45l55 447h177l-53 -431c-1.33301 -13.333 -2 -23 -2 -29c0 -16.667 3.66699 -29.667 11 -39c6.66699 -7.33301 15.667 -11 27 -11c12.667 0 23 3.66699 31 11c12 11.333 20 34 24 68l53 431h177z" />
    <glyph glyph-name="uogonek" unicode="&#x173;" horiz-adv-x="492" 
d="M482 467l-35.001 -286.999c-5.33301 -46.667 -16 -81.334 -32 -104.001c-14 -19.333 -40 -41 -78 -65c-33.333 -20.667 -53.333 -34.667 -60 -42c-9.33301 -10.667 -14 -22.667 -14 -36c0 -10 3.33301 -18 10 -24c5.33301 -5.33301 13.333 -8 24 -8c11.333 0 23 3 35 9
l-17 -73c-18.667 -8 -39 -12 -61 -12c-28.667 0 -50.667 8 -66 24c-12.667 14 -19 31.333 -19 52c0 17.333 5 33.666 15 48.999c8.66699 14 21.667 27.667 39 41c-4 -0.666992 -10.333 -1 -19 -1c-52 0 -95.667 16.667 -131 50c-28 27.333 -42 62 -42 104
c0 15.333 1.33301 31 4 47l34 276h170l-33 -275c-1.33301 -6.66699 -2 -14.667 -2 -24c0 -11.333 2.66699 -19.666 8 -24.999s13 -8 23 -8c10.667 0 19.334 3.33301 26.001 10c8 8 13.333 21.667 16 41l34 281h171z" />
    <glyph glyph-name="Ydieresis" unicode="&#x178;" horiz-adv-x="493" 
d="M547 667l-200 -385l-35 -282h-177l35 282l-116 385h185c20 -97.333 32.333 -166 37 -206c14 37.333 43 106 87 206h184zM478 800c0 -20.667 -8.16797 -39.167 -24.501 -55.5s-35.166 -24.5 -56.499 -24.5c-18 0 -33 6.16699 -45 18.5s-18 27.5 -18 45.5
c0 21.333 8 40 24 56s34.667 24 56 24c18.667 0 34 -6 46 -18s18 -27.333 18 -46zM287.999 792c0 -5.33301 -1.66699 -12.001 -5 -20.001c-6 -15.333 -16 -27.833 -30 -37.5s-29 -14.5 -45 -14.5c-18.667 0 -34 6 -46 18s-18 27.333 -18 46c0 21.333 8.16699 40 24.5 56
s35.166 24 56.499 24c20.667 0 36.334 -6.66699 47.001 -20s16 -30.666 16 -51.999z" />
    <glyph glyph-name="Zacute" unicode="&#x179;" horiz-adv-x="507" 
d="M544 667l-2 -19l-206 -363l-41 -70l-38 -63c23.333 2 91 4.66699 203 8l-19 -160h-453l2 14l181 326c35.333 63.333 72 120 110 170h-191l19 157h435zM462 868l-105 -148h-98l65 148h138z" />
    <glyph glyph-name="zacute" unicode="&#x17a;" horiz-adv-x="428" 
d="M441 467l-138.001 -238c-17.333 -30.667 -35.666 -60 -54.999 -88h126l-17 -141h-369l141 242c20 34.667 38.333 63 55 85h-130l17 140h370zM400.999 678l-105 -148h-98l65 148h138z" />
    <glyph glyph-name="Zdotaccent" unicode="&#x17b;" horiz-adv-x="507" 
d="M544 667l-2 -19l-206 -363l-41 -70l-38 -63c23.333 2 91 4.66699 203 8l-19 -160h-453l2 14l181 326c35.333 63.333 72 120 110 170h-191l19 157h435zM409 796c0 -7.33301 -2 -14.333 -6 -21c-6 -16 -16.333 -29.167 -31 -39.5s-30.334 -15.5 -47.001 -15.5
c-19.333 0 -35.333 6.33301 -48 19s-19 28.667 -19 48c0 22.667 8.33301 42.334 25 59.001s36.334 25 59.001 25c22 0 38.667 -6.83301 50 -20.5s17 -31.834 17 -54.501z" />
    <glyph glyph-name="zdotaccent" unicode="&#x17c;" horiz-adv-x="428" 
d="M441 467l-138.001 -238c-17.333 -30.667 -35.666 -60 -54.999 -88h126l-17 -141h-369l141 242c20 34.667 38.333 63 55 85h-130l17 140h370zM342.999 606c0 -7.33301 -2 -14.333 -6 -21c-6 -16 -16.333 -29.167 -31 -39.5s-30.334 -15.5 -47.001 -15.5
c-19.333 0 -35.333 6.33301 -48 19s-19 28.667 -19 48c0 22.667 8.33301 42.334 25 59.001s36.334 25 59.001 25c22 0 38.667 -6.83301 50 -20.5s17 -31.834 17 -54.501z" />
    <glyph glyph-name="Zcaron" unicode="&#x17d;" horiz-adv-x="507" 
d="M544 667l-2 -19l-206 -363l-41 -70l-38 -63c23.333 2 91 4.66699 203 8l-19 -160h-453l2 14l181 326c35.333 63.333 72 120 110 170h-191l19 157h435zM486 802l-166 -98l-121 103l71 63l70 -58l92 56z" />
    <glyph glyph-name="zcaron" unicode="&#x17e;" horiz-adv-x="428" 
d="M441 467l-138.001 -238c-17.333 -30.667 -35.666 -60 -54.999 -88h126l-17 -141h-369l141 242c20 34.667 38.333 63 55 85h-130l17 140h370zM409.999 623l-159 -112l-118 118l71 61l64 -65l87 65z" />
    <glyph glyph-name="uni018F" unicode="&#x18f;" horiz-adv-x="554" 
d="M47 385l309.999 -0.00195312c1.33301 58.667 -4.66699 97 -18 115c-9.33301 12 -22 18 -38 18s-28.667 -4.66699 -38 -14c-12.667 -11.333 -22.667 -29.333 -30 -54l-168 55c24.667 53.333 57.667 95.333 99 126c44 32 94.333 48 151 48
c64.667 0 117.334 -20.333 158.001 -61c46 -47.333 69 -116.666 69 -207.999c0 -64.667 -10.167 -129.667 -30.5 -195s-51.833 -119 -94.5 -161c-25.333 -25.333 -50.833 -42.666 -76.5 -51.999s-56.5 -14 -92.5 -14c-60 0 -106.667 17.333 -140 52
c-46.667 48 -70 123.333 -70 226c0 28 2 58.667 6 92zM340.999 252.998h-128.999c-4 -46 1.33301 -76.333 16 -91c7.33301 -8.66699 18.666 -13 33.999 -13c14 0 26.667 5 38 15c19.333 17.333 33 47 41 89z" />
    <glyph glyph-name="florin" unicode="&#x192;" horiz-adv-x="532" 
d="M479 729l-22.001 -138c-3.33301 0 -8.66602 0.5 -15.999 1.5s-12.666 1.5 -15.999 1.5c-21.333 0 -34 -11.333 -38 -34l-18 -93h70l-18 -94h-71l-64 -332c-10.667 -56 -30.167 -99 -58.5 -129s-69.5 -45 -123.5 -45c-20 0 -45.333 4.33301 -76 13l26 143
c13.333 -1.33301 23.666 -2 30.999 -2c14.667 0 25.667 2.5 33 7.5s12.333 14.5 15 28.5l61 316h-68l17 94h69l21 106c11.333 55.333 29 97 53 125s62 42 114 42c20.667 0 47 -3.66699 79 -11z" />
    <glyph glyph-name="uni01CF" unicode="&#x1cf;" horiz-adv-x="269" 
d="M277 667l-82 -667h-177l82 667h177zM366 802l-166 -98l-121 103l71 63l70 -58l92 56z" />
    <glyph glyph-name="uni01D0" unicode="&#x1d0;" horiz-adv-x="250" 
d="M239 467l-57 -467h-171l58 467h170zM315 623l-159 -112l-118 118l71 61l64 -65l87 65z" />
    <glyph glyph-name="uni01DD" unicode="&#x1dd;" horiz-adv-x="482" 
d="M201 308l-153.999 38c18 37.333 44 67.666 78 90.999c38.667 26.667 84.667 40 138 40c58.667 0 104.667 -16 138 -48c38 -36 57 -87.667 57 -155c0 -44 -7.33301 -86.167 -22 -126.5s-35.334 -73.5 -62.001 -99.5c-40 -38.667 -93.667 -58 -161 -58
c-58 0 -102.667 17 -134 51c-36.667 38.667 -55 93.334 -55 164.001c0 14.667 2.33301 36 7 64h254c4 28.667 0.333008 49 -11 61c-6.66699 7.33301 -16 11 -28 11c-10 0 -19 -2.66699 -27 -8c-8.66699 -6 -14.667 -14.333 -18 -25zM272.001 176h-81.001
c-1.33301 -24 2.33398 -40.667 11.001 -50c6 -6 14 -9 24 -9c9.33301 0 17.333 3.33301 24 10c10.667 10.667 18 27 22 49z" />
    <glyph glyph-name="Gcaron" unicode="&#x1e6;" horiz-adv-x="552" 
d="M543 514l-180.002 -63.999c0 45.333 -14.667 68 -44 68c-16.667 0 -31.167 -7.66699 -43.5 -23s-20.5 -29.5 -24.5 -42.5s-8.66699 -29.833 -14 -50.5c-14 -62 -21 -115.667 -21 -161c0 -62 17.667 -93 53 -93c21.333 0 38 10 50 30s19.667 42.333 23 67h-65l17 140h247
c-5.33301 -56.667 -13.333 -106 -24 -148c-17.333 -74 -47.833 -134 -91.5 -180s-101.167 -69 -172.5 -69c-74 0 -128.5 24.833 -163.5 74.5s-52.5 113.167 -52.5 190.5c0 63.333 8 122.333 24 177c20.667 71.333 54.834 130.666 102.501 177.999s105.834 71 174.501 71
c104 0 172.333 -55 205 -165zM510.998 802.001l-166 -98l-121 103l71 63l70 -58l92 56z" />
    <glyph glyph-name="gcaron" unicode="&#x1e7;" horiz-adv-x="485" 
d="M475 467l-59.001 -479.002c-6.66699 -55.333 -23 -98 -49 -128c-43.333 -50 -104.333 -75 -183 -75c-60.667 0 -106.5 13.333 -137.5 40s-46.833 69.667 -47.5 129h174c0 -25.333 10.333 -38 31 -38c12 0 21.5 3.83301 28.5 11.5s11.5 15.334 13.5 23.001
s4 18.167 6 31.5c2.66699 22.667 5.66699 46.667 9 72c-33.333 -40.667 -71.333 -61 -114 -61c-29.333 0 -53.833 10.167 -73.5 30.5s-33 43.333 -40 69s-10.5 52.834 -10.5 81.501c0 41.333 5 82 15 122c12.667 47.333 33.334 89.333 62.001 126s64 55 106 55
c34.667 0 65.667 -23.667 93 -71l4 61h172zM283.999 278.998c0 38 -9 57 -27 57c-14 0 -25.5 -9.66699 -34.5 -29s-14.667 -38.333 -17 -57s-3.5 -35.667 -3.5 -51c0 -42 10 -63 30 -63c18.667 0 32 16.667 40 50s12 64.333 12 93zM424.999 622.998l-159 -112l-118 118
l71 61l64 -65l87 65z" />
    <glyph glyph-name="AEacute" unicode="&#x1fc;" horiz-adv-x="606" 
d="M630 667l-19 -157h-177l3 -97h148l-18 -151h-122l4 -102h119l-20 -160h-252l-2 85h-114l-24 -85h-184l234 667h424zM219 223h74c-1.33301 81.333 -2 142.666 -2 183.999c0 22 0.666992 55 2 99c-11.333 -51.333 -36 -145.666 -74 -282.999zM490 868l-105 -148h-98l65 148
h138z" />
    <glyph glyph-name="aeacute" unicode="&#x1fd;" horiz-adv-x="724" 
d="M88 321l16.999 134.999c53.333 14 100 21 140 21c58 0 103 -15.333 135 -46c45.333 30.667 91.333 46 138 46c58.667 0 103.834 -18.667 135.501 -56s47.5 -85.666 47.5 -144.999c0 -17.333 -2.66699 -43.333 -8 -78h-252c0 -2 -0.166992 -5 -0.5 -9s-0.5 -7 -0.5 -9
c0 -41.333 12.333 -62 37 -62c18 0 32.333 11.667 43 35l161 -3c-11.333 -29.333 -23.5 -53.666 -36.5 -72.999s-30.833 -36.333 -53.5 -51c-37.333 -24 -82.333 -36 -135 -36c-51.333 0 -94.666 16 -129.999 48c-49.333 -32 -100.666 -48 -153.999 -48
c-44 0 -81 12.667 -111 38s-45 59.666 -45 102.999c0 52.667 17.667 94.167 53 124.5s79.666 45.5 132.999 45.5c26 0 54.667 -3.33301 86 -10c-0.666992 38 -28.334 57 -83.001 57c-40 0 -79 -9 -117 -27zM452.999 290.999h86c0 43.333 -12 65 -36 65
s-40.667 -21.667 -50 -65zM272.999 155.999c0 11.333 -3.83301 20 -11.5 26s-17.5 9 -29.5 9c-13.333 0 -25 -4.5 -35 -13.5s-15 -20.167 -15 -33.5c0 -23.333 13.667 -35 41 -35c14.667 0 26.667 4.33301 36 13s14 20 14 34zM548.999 677.999l-105 -148h-98l65 148h138z
" />
    <glyph glyph-name="Scommaaccent" unicode="&#x218;" horiz-adv-x="398" 
d="M408 645l-24.9971 -203.999c-24.667 48.667 -56.334 73 -95.001 73c-12.667 0 -24.667 -4.16699 -36 -12.5s-17 -18.833 -17 -31.5s7.33301 -26.334 22 -41.001s30.667 -28.5 48 -41.5s33.333 -32.167 48 -57.5s22 -53.333 22 -84c0 -70 -23 -130.5 -69 -181.5
s-103.667 -76.5 -173 -76.5c-42 0 -84.333 9.66699 -127 29l26 209c29.333 -48.667 64 -73 104 -73c15.333 0 28.833 4.5 40.5 13.5s17.5 21.167 17.5 36.5c0 10.667 -4.66699 21.5 -14 32.5s-20.833 22.167 -34.5 33.5s-27.334 24 -41.001 38s-25.167 32 -34.5 54
s-14 46.333 -14 73c0 63.333 22.5 120 67.5 170s98.5 75 160.5 75c41.333 0 82.666 -11.333 123.999 -34zM227.003 -44.999l-94 -188h-102l50 188h146z" />
    <glyph glyph-name="scommaaccent" unicode="&#x219;" horiz-adv-x="389" 
d="M390 439l-74.001 -127.002c-23.333 27.333 -45 41 -65 41c-7.33301 0 -14.166 -2.33301 -20.499 -7s-9.5 -10.667 -9.5 -18c0 -11.333 7.33301 -21.166 22 -29.499s31 -15.666 49 -21.999s34.333 -18.5 49 -36.5s22 -41 22 -69c0 -52.667 -20.5 -96 -61.5 -130
s-88.5 -51 -142.5 -51c-30 0 -56.5 3.83301 -79.5 11.5s-49.5 20.167 -79.5 37.5l78 129c25.333 -32.667 51.666 -49 78.999 -49c9.33301 0 17.666 2.33301 24.999 7s11 11.334 11 20.001c0 6.66699 -2.66699 12.5 -8 17.5s-9.66602 8.16699 -12.999 9.5
s-9.66602 3.66602 -18.999 6.99902c-32.667 12.667 -58.167 28 -76.5 46s-27.5 42.333 -27.5 73c0 52.667 21.333 95.5 64 128.5s91 49.5 145 49.5c44 0 88 -12.667 132 -38zM241.999 -46.002l-94 -188h-102l50 188h146z" />
    <glyph glyph-name="Tcommaaccent" unicode="&#x21a;" horiz-adv-x="377" 
d="M427 667l-20 -160h-98l-62 -507h-177l62 507h-98l20 160h373zM227 -45l-94 -188h-102l50 188h146z" />
    <glyph glyph-name="tcommaaccent" unicode="&#x21b;" horiz-adv-x="297" 
d="M319 467l-17 -140h-56l-41 -327h-170l40 327h-49l17 140h49l17 137h171l-17 -137h56zM192 -46l-94 -188h-102l50 188h146z" />
    <glyph glyph-name="uni0228" unicode="&#x228;" horiz-adv-x="405" 
d="M430 667l-20 -157h-152l-12 -97h137l-19 -151h-136l-13 -102h152l-19 -160h-330l82 667h330zM270 -113l-126 -124l-77 53l107 137z" />
    <glyph glyph-name="uni0229" unicode="&#x229;" horiz-adv-x="474" 
d="M266 157h166c-17.333 -53.333 -45.333 -94.5 -84 -123.5s-85.667 -43.5 -141 -43.5c-59.333 0 -104.833 17 -136.5 51s-47.5 80.667 -47.5 140c0 77.333 22.667 145.833 68 205.5s105.333 89.5 180 89.5c58 0 102.5 -18.5 133.5 -55.5s46.5 -85.167 46.5 -144.5
c0 -18 -2.66699 -44.333 -8 -79h-250c-0.666992 -4 -1 -10.333 -1 -19c0 -35.333 10.667 -53 32 -53c20.667 0 34.667 10.667 42 32zM207 290h79c0 1.33301 0.166992 3.33301 0.5 6s0.5 4.66699 0.5 6c0 31.333 -11.333 47 -34 47c-13.333 0 -23.833 -6 -31.5 -18
s-12.5 -25.667 -14.5 -41zM285 -106l-126 -117l-71 54l102 122z" />
    <glyph glyph-name="uni0237" unicode="&#x237;" horiz-adv-x="251" 
d="M241 467l-84 -682h-170l82 682h172z" />
    <glyph glyph-name="uni0259" unicode="&#x259;" horiz-adv-x="482" 
d="M201 308l-153.999 38c18 37.333 44 67.666 78 90.999c38.667 26.667 84.667 40 138 40c58.667 0 104.667 -16 138 -48c38 -36 57 -87.667 57 -155c0 -44 -7.33301 -86.167 -22 -126.5s-35.334 -73.5 -62.001 -99.5c-40 -38.667 -93.667 -58 -161 -58
c-58 0 -102.667 17 -134 51c-36.667 38.667 -55 93.334 -55 164.001c0 14.667 2.33301 36 7 64h254c4 28.667 0.333008 49 -11 61c-6.66699 7.33301 -16 11 -28 11c-10 0 -19 -2.66699 -27 -8c-8.66699 -6 -14.667 -14.333 -18 -25zM272.001 176h-81.001
c-1.33301 -24 2.33398 -40.667 11.001 -50c6 -6 14 -9 24 -9c9.33301 0 17.333 3.33301 24 10c10.667 10.667 18 27 22 49z" />
    <glyph glyph-name="afii57929" unicode="&#x2bc;" horiz-adv-x="246" 
d="M267 667l-100 -221h-104l58 221h146z" />
    <glyph glyph-name="circumflex" unicode="&#x2c6;" 
d="M311 690l116 -117l-64 -63l-65 66l-90 -70l-53 67z" />
    <glyph glyph-name="caron" unicode="&#x2c7;" 
d="M440 623l-159 -112l-118 118l71 61l64 -65l87 65z" />
    <glyph glyph-name="uni02C9" unicode="&#x2c9;" 
d="M469 647l-12 -94h-335l12 94h335z" />
    <glyph glyph-name="breve" unicode="&#x2d8;" 
d="M393 669h69c-9.33301 -45.333 -29.5 -81.333 -60.5 -108s-69.5 -40 -115.5 -40c-40.667 0 -74.167 11.833 -100.5 35.5s-39.5 55.5 -39.5 95.5v17h69c5.33301 -21.333 14.5 -35.5 27.5 -42.5s31.167 -10.5 54.5 -10.5c24.667 0 44.167 3.66699 58.5 11
s26.833 21.333 37.5 42z" />
    <glyph glyph-name="dotaccent" unicode="&#x2d9;" 
d="M372 606c0 -7.33301 -2 -14.333 -6 -21c-6 -16 -16.333 -29.167 -31 -39.5s-30.334 -15.5 -47.001 -15.5c-18.667 0 -34.5 6.33301 -47.5 19s-19.5 28.667 -19.5 48c0 22.667 8.33301 42.334 25 59.001s36.334 25 59.001 25c22 0 38.667 -6.83301 50 -20.5
s17 -31.834 17 -54.501z" />
    <glyph glyph-name="ring" unicode="&#x2da;" horiz-adv-x="503" 
d="M203 619c0 26.667 9.33301 49.334 28 68.001s41.334 28 68.001 28s49.334 -9.33301 68.001 -28s28 -41.334 28 -68.001s-9.33301 -49.334 -28 -68.001s-41.334 -28 -68.001 -28s-49.334 9.33301 -68.001 28s-28 41.334 -28 68.001zM262 619
c0 -10.667 3.5 -19.5 10.5 -26.5s15.833 -10.5 26.5 -10.5s19.5 3.5 26.5 10.5s10.5 15.833 10.5 26.5s-3.5 19.5 -10.5 26.5s-15.833 10.5 -26.5 10.5s-19.5 -3.5 -26.5 -10.5s-10.5 -15.833 -10.5 -26.5z" />
    <glyph glyph-name="ogonek" unicode="&#x2db;" 
d="M378 -92l-15.9971 -70.0039c-13.333 -6 -28 -9 -44 -9c-30 0 -54 8 -72 24c-13.333 12 -20 28.333 -20 49c0 17.333 6.33301 35.333 19 54c12 16.667 24.333 31.334 37 44.001h60c-0.666992 -1.33301 -2.33398 -3.66602 -5.00098 -6.99902
s-5.33398 -7.16602 -8.00098 -11.499l-8 -12.5c-8.66699 -13.333 -13 -25.666 -13 -36.999c0 -9.33301 3 -16.333 9 -21c7.33301 -6 16.666 -9 27.999 -9s22.333 2 33 6z" />
    <glyph glyph-name="tilde" unicode="&#x2dc;" 
d="M383 665l87.9971 -0.000976562c-3.33301 -37.333 -15.166 -68.833 -35.499 -94.5s-48.5 -38.5 -84.5 -38.5c-16.667 0 -37 5.5 -61 16.5s-40.667 16.5 -50 16.5c-16.667 0 -27 -11.667 -31 -35h-89c2.66699 22.667 6.66699 41.334 12 56.001
c8.66699 22 22.334 40.167 41.001 54.5s39.334 21.5 62.001 21.5c18 0 39.167 -5.5 63.5 -16.5s41.833 -16.5 52.5 -16.5c17.333 0 28 12 32 36z" />
    <glyph glyph-name="hungarumlaut" unicode="&#x2dd;" 
d="M516 678l-105 -148h-88l65 148h128zM351 678l-104 -148h-88l65 148h127z" />
    <glyph glyph-name="acutecomb" unicode="&#x301;" horiz-adv-x="2" 
d="M-69 678l-105 -148h-98l65 148h138z" />
    <glyph glyph-name="uni0394" unicode="&#x394;" horiz-adv-x="667" 
d="M622 0h-634l245 667h141zM434 118l-130 390l-130 -390h260z" />
    <glyph glyph-name="uni0394" unicode="&#x2206;" horiz-adv-x="667" 
d="M622 0h-634l245 667h141zM434 118l-130 390l-130 -390h260z" />
    <glyph glyph-name="uni03A9" unicode="&#x3a9;" horiz-adv-x="667" 
d="M633 0l-270 0.000976562v104c89.333 48 134 130.667 134 248c0 56 -14.833 105.667 -44.5 149s-71.167 65 -124.5 65s-94.833 -21.667 -124.5 -65s-44.5 -93 -44.5 -149c0 -118 45 -200.667 135 -248v-104h-271v117h136c-48 30 -82.667 64.667 -104 104
s-32 87.666 -32 144.999c0 90 28.5 165.333 85.5 226s130.167 91 219.5 91s162.5 -30.333 219.5 -91s85.5 -136 85.5 -226c0 -80.667 -22.667 -146 -68 -196c-16 -18 -38.667 -35.667 -68 -53h136v-117z" />
    <glyph glyph-name="uni03A9" unicode="&#x2126;" horiz-adv-x="667" 
d="M633 0l-270 0.000976562v104c89.333 48 134 130.667 134 248c0 56 -14.833 105.667 -44.5 149s-71.167 65 -124.5 65s-94.833 -21.667 -124.5 -65s-44.5 -93 -44.5 -149c0 -118 45 -200.667 135 -248v-104h-271v117h136c-48 30 -82.667 64.667 -104 104
s-32 87.666 -32 144.999c0 90 28.5 165.333 85.5 226s130.167 91 219.5 91s162.5 -30.333 219.5 -91s85.5 -136 85.5 -226c0 -80.667 -22.667 -146 -68 -196c-16 -18 -38.667 -35.667 -68 -53h136v-117z" />
    <glyph glyph-name="pi" unicode="&#x3c0;" horiz-adv-x="708" 
d="M672 327h-76v-327h-172v327h-135v-327h-172v327h-77v140h632v-140z" />
    <glyph glyph-name="afii10023" unicode="&#x401;" horiz-adv-x="410" 
d="M430 667l-20 -157h-152l-12 -97h137l-19 -151h-136l-13 -102h152l-19 -160h-330l82 667h330zM439 793c0 -20.667 -8.16797 -39.167 -24.501 -55.5s-35.166 -24.5 -56.499 -24.5c-18 0 -33 6.16699 -45 18.5s-18 27.5 -18 45.5c0 21.333 8 40 24 56s34.667 24 56 24
c18.667 0 34 -6 46 -18s18 -27.333 18 -46zM253.999 785c0 -4.66699 -1.66699 -11.334 -5 -20.001c-6 -15.333 -16 -27.833 -30 -37.5s-29 -14.5 -45 -14.5c-18.667 0 -34 6 -46 18s-18 27.333 -18 46c0 21.333 8.16699 40 24.5 56s35.166 24 56.499 24
c20.667 0 36.334 -6.66699 47.001 -20s16 -30.666 16 -51.999z" />
    <glyph glyph-name="afii10051" unicode="&#x402;" horiz-adv-x="581" 
d="M76 0l63 507h-99l20 160h429l-20 -160h-154l-8 -65c-2.66699 -25.333 -7 -46.666 -13 -63.999c36.667 22 73 33 109 33c47.333 0 85 -17.667 113 -53c26.667 -33.333 40 -77.666 40 -132.999c0 -40.667 -6.5 -78.834 -19.5 -114.501s-30.167 -63.5 -51.5 -83.5
c-30 -28.667 -71 -43 -123 -43c-26 0 -50.667 4.66699 -74 14l31 142c6.66699 -6 14.667 -9 24 -9c8.66699 0 16.667 4.66699 24 14c8.66699 11.333 13 29.333 13 54c0 19.333 -4 33.666 -12 42.999c-8 10 -18 15 -30 15c-13.333 0 -32 -5.66699 -56 -17l-29 -240h-177z" />
    <glyph glyph-name="afii10052" unicode="&#x403;" horiz-adv-x="382" 
d="M413 667l-19 -157h-136l-63 -510h-177l82 667h313zM407 868l-105 -148h-98l65 148h138z" />
    <glyph glyph-name="afii10053" unicode="&#x404;" horiz-adv-x="485" 
d="M446 210l-32.001 -188.998c-40 -22 -83.333 -33 -130 -33c-72 0 -129 21.667 -171 65c-50 51.333 -75 124 -75 218c0 60.667 10.5 121 31.5 181s51.5 109.333 91.5 148c54.667 52.667 123.667 79 207 79c48.667 0 92.667 -10.667 132 -32l-23 -189
c-12 15.333 -25 27.666 -39 36.999c-18 11.333 -39 17 -63 17c-34.667 0 -63.334 -10.667 -86.001 -32c-19.333 -18 -33.333 -40.333 -42 -67h164l-20 -149h-165c0.666992 -30.667 11.334 -56.334 32.001 -77.001c18.667 -18 43.334 -27 74.001 -27
c23.333 0 44.666 4.33301 63.999 13c18.667 8 35.334 20.333 50.001 37z" />
    <glyph glyph-name="afii10054" unicode="&#x405;" horiz-adv-x="398" 
d="M408 645l-24.9971 -203.999c-24.667 48.667 -56.334 73 -95.001 73c-12.667 0 -24.667 -4.16699 -36 -12.5s-17 -18.833 -17 -31.5s7.33301 -26.334 22 -41.001s30.667 -28.5 48 -41.5s33.333 -32.167 48 -57.5s22 -53.333 22 -84c0 -70 -23 -130.5 -69 -181.5
s-103.667 -76.5 -173 -76.5c-42 0 -84.333 9.66699 -127 29l26 209c29.333 -48.667 64 -73 104 -73c15.333 0 28.833 4.5 40.5 13.5s17.5 21.167 17.5 36.5c0 10.667 -4.66699 21.5 -14 32.5s-20.833 22.167 -34.5 33.5s-27.334 24 -41.001 38s-25.167 32 -34.5 54
s-14 46.333 -14 73c0 63.333 22.5 120 67.5 170s98.5 75 160.5 75c41.333 0 82.666 -11.333 123.999 -34z" />
    <glyph glyph-name="afii10055" unicode="&#x406;" horiz-adv-x="269" 
d="M277 667l-82 -667h-177l82 667h177z" />
    <glyph glyph-name="afii10056" unicode="&#x407;" horiz-adv-x="269" 
d="M277 667l-82 -667h-177l82 667h177zM317 800c0 -21.333 -5.83105 -40 -17.498 -56s-24.834 -24 -39.501 -24c-12.667 0 -23.167 6.16699 -31.5 18.5s-12.5 27.5 -12.5 45.5c0 21.333 5.5 40 16.5 56s24.167 24 39.5 24c13.333 0 24.166 -6 32.499 -18
s12.5 -27.333 12.5 -46zM184.002 792c0 -6.66699 -1.33301 -13.334 -4 -20.001c-4 -15.333 -11 -27.833 -21 -37.5s-20.333 -14.5 -31 -14.5c-13.333 0 -24.166 6 -32.499 18s-12.5 27.333 -12.5 46c0 21.333 5.66699 40 17 56s24.666 24 39.999 24
c14.667 0 25.667 -6.66699 33 -20s11 -30.666 11 -51.999z" />
    <glyph glyph-name="afii10057" unicode="&#x408;" horiz-adv-x="349" 
d="M357 667l-57.002 -462.999c-7.33301 -56.667 -19.666 -98.334 -36.999 -125.001c-38 -60.667 -97 -91 -177 -91c-35.333 0 -73 7.33301 -113 22l23 186c16.667 -26 38.667 -39 66 -39c36.667 0 58.334 27.333 65.001 82l52 428h178z" />
    <glyph glyph-name="afii10058" unicode="&#x409;" horiz-adv-x="803" 
d="M527 0h-201l62 503h-80l-27 -221c-14.667 -119.333 -42 -199.333 -82 -240c-34.667 -35.333 -83.667 -53 -147 -53c-26.667 0 -50.667 2.66699 -72 8l22 178c10.667 -10.667 23 -16 37 -16c16.667 0 30.667 5 42 15c15.333 14.667 26 47 32 97l49 396h421l-30 -245h9
c78.667 0 136.667 -18.333 174 -55c34.667 -34.667 52 -79 52 -133c0 -68.667 -21.667 -124.667 -65 -168c-44.667 -44 -110 -66 -196 -66zM535 278l-15.999 -133c29.333 -4 53.666 4 72.999 24c12 12 18 29 18 51c0 20 -6.66699 35.333 -20 46
c-14.667 11.333 -33 15.333 -55 12z" />
    <glyph glyph-name="afii10059" unicode="&#x40a;" horiz-adv-x="758" 
d="M482 0h-201l33 278h-86l-33 -278h-177l82 667h177l-30 -245h86l30 245h175l-30 -245h9c78.667 0 136.667 -18.333 174 -55c34.667 -34.667 52 -79 52 -133c0 -68.667 -21.667 -124.667 -65 -168c-44.667 -44 -110 -66 -196 -66zM490 278l-15.999 -133
c29.333 -4 53.666 4 72.999 24c12 12 18 29 18 51c0 20 -6.66699 35.333 -20 46c-14.667 11.333 -33 15.333 -55 12z" />
    <glyph glyph-name="afii10060" unicode="&#x40b;" horiz-adv-x="569" 
d="M75 0l63.999 506.999h-99l20 160h429l-20 -160h-154l-15 -107c27.333 10 57.333 15 90 15c48.667 0 86.667 -13.333 114 -40c26.667 -26 40 -61.333 40 -106c0 -7.33301 -2.33301 -32.666 -7 -75.999l-23 -193h-176l20 158c3.33301 30 5 46.667 5 50
c0 16 -3.33301 27.667 -10 35c-6.66699 8 -17 12 -31 12c-13.333 0 -26.666 -3.66699 -39.999 -11l-30 -244h-177z" />
    <glyph glyph-name="afii10061" unicode="&#x40c;" horiz-adv-x="533" 
d="M564 667l-181 -322l117 -345h-191l-79 319l-35 -319h-177l82 667h177l-40 -298l140 298h187zM472 868l-105 -148h-98l65 148h138z" />
    <glyph glyph-name="afii10062" unicode="&#x40e;" 
d="M54 667h184l23 -109c10 -46.667 15.667 -93.667 17 -141c14.667 52 31 100.667 49 146l41 104h186l-318 -667h-177l108 230zM377 874l124.998 -37c-11.333 -44.667 -35.333 -77.667 -72 -99c-30 -18 -70.333 -27 -121 -27c-50 0 -89.333 8.66699 -118 26
c-37.333 22.667 -61.666 55.667 -72.999 99l127 38c2.66699 -17.333 9.33398 -31 20.001 -41c11.333 -10 27 -15 47 -15s35.667 5.66699 47 17c9.33301 10.667 15.333 23.667 18 39z" />
    <glyph glyph-name="afii10145" unicode="&#x40f;" horiz-adv-x="530" 
d="M277 667l-62 -504h84l62 504h177l-82 -667h-139l-16 -130h-160l16 130h-139l82 667h177z" />
    <glyph glyph-name="afii10017" unicode="&#x410;" horiz-adv-x="524" 
d="M491 0h-183l-3 85h-119l-25 -85h-184l240 667h217zM300 305v86.999c0 0.666992 1 39 3 115c-2 -7.33301 -5.5 -21.833 -10.5 -43.5s-9.16699 -38.5 -12.5 -50.5l-24 -86c-12 -43.333 -21.667 -76.666 -29 -99.999h75c-1.33301 34.667 -2 60.667 -2 78z" />
    <glyph glyph-name="afii10018" unicode="&#x411;" horiz-adv-x="491" 
d="M222 0l-204 0.000976562l82 667h367l-19 -157h-190l-13 -104h10c80.667 0 139 -18 175 -54c30.667 -30.667 46 -71.334 46 -122.001c0 -69.333 -21.333 -124.333 -64 -165c-44.667 -43.333 -108 -65 -190 -65zM228 272.001l-15.001 -126.999
c26.667 -4.66699 48.334 1.66602 65.001 18.999c13.333 13.333 20 32 20 56c0 18 -5.33301 31.333 -16 40c-11.333 10.667 -29.333 14.667 -54 12z" />
    <glyph glyph-name="afii10019" unicode="&#x412;" horiz-adv-x="522" 
d="M100 667h206c137.333 0 206 -55 206 -165c0 -45.333 -12.167 -82.333 -36.5 -111s-58.833 -45 -103.5 -49c40 -5.33301 69.5 -17.833 88.5 -37.5s28.5 -49.5 28.5 -89.5c0 -62.667 -21.5 -114.167 -64.5 -154.5s-95.833 -60.5 -158.5 -60.5h-248zM259 522l-14 -114.001
c2.66699 -0.666992 6.66699 -1 12 -1c22 0 40.333 5.83301 55 17.5s22 27.834 22 48.501c0 33.333 -18.667 50 -56 50c-8.66699 0 -15 -0.333008 -19 -1zM229 271.999l-16 -127c3.33301 -0.666992 8.33301 -1 15 -1c22.667 0 42 6.66699 58 20s24 31.333 24 54
c0 18.667 -6.33301 32.5 -19 41.5s-28.667 13.5 -48 13.5c-2 0 -4.33301 -0.166992 -7 -0.5s-5 -0.5 -7 -0.5z" />
    <glyph glyph-name="afii10020" unicode="&#x413;" horiz-adv-x="382" 
d="M413 667l-19 -157h-136l-63 -510h-177l82 667h313z" />
    <glyph glyph-name="afii10021" unicode="&#x414;" horiz-adv-x="583" 
d="M152 667h410.999l-63 -509h56l-35 -288h-152l16 130h-247l-16 -130h-152l36 288c22.667 5.33301 41.334 15.333 56.001 30c24 24 40.333 71.333 49 142zM296.999 509l-21 -168.999c-7.33301 -62.667 -17 -106.334 -29 -131.001c-10 -20 -24.333 -37 -43 -51h123l43 351
h-73z" />
    <glyph glyph-name="afii10022" unicode="&#x415;" horiz-adv-x="405" 
d="M430 667l-20 -157h-152l-12 -97h137l-19 -151h-136l-13 -102h152l-19 -160h-330l82 667h330z" />
    <glyph glyph-name="afii10024" unicode="&#x416;" horiz-adv-x="777" 
d="M709 0h-182l-61 321l-34 -321h-170l45 321l-140 -321h-182l177 349l-98 318h180l69 -300l31 300h170l-42 -300l142 300h178l-176 -324z" />
    <glyph glyph-name="afii10025" unicode="&#x417;" horiz-adv-x="452" 
d="M70 453l23.999 190c41.333 24 87.666 36 138.999 36c71.333 0 125.666 -19.333 162.999 -58c30.667 -31.333 46 -72.333 46 -123c0 -48.667 -13.333 -86.667 -40 -114c-24.667 -24.667 -56.667 -39.667 -96 -45c34.667 0 63.334 -11.333 86.001 -34
s34 -53.334 34 -92.001c0 -29.333 -6.16699 -58.833 -18.5 -88.5s-29.166 -54.5 -50.499 -74.5c-44 -41.333 -104 -62 -180 -62c-50 0 -102.333 14.333 -157 43l25 201c14 -24 30.333 -43 49 -57c20 -15.333 43 -23 69 -23c23.333 0 41 5.66699 53 17c11.333 10 17 24 17 42
s-8 32.333 -24 43c-12.667 8 -32 12 -58 12h-26l17 148h24c29.333 0 51 3.66699 65 11c17.333 9.33301 26 23.333 26 42c0 14 -6 25.667 -18 35c-12.667 10 -31 15 -55 15c-21.333 0 -41.666 -6 -60.999 -18c-15.333 -9.33301 -33 -24.666 -53 -45.999z" />
    <glyph glyph-name="afii10026" unicode="&#x418;" horiz-adv-x="557" 
d="M18 0l82 667h170l-23 -185c-9.33301 -78.667 -25 -153.667 -47 -225c30 70 60.667 135 92 195l115 215h158l-82 -667h-170l22 178c8 68 20.333 139.333 37 214c-18 -52.667 -47 -116 -87 -190l-109 -202h-158z" />
    <glyph glyph-name="afii10027" unicode="&#x419;" horiz-adv-x="557" 
d="M18 0l82 667h170l-23 -185c-9.33301 -78.667 -25 -153.667 -47 -225c30 70 60.667 135 92 195l115 215h158l-82 -667h-170l22 178c8 68 20.333 139.333 37 214c-18 -52.667 -47 -116 -87 -190l-109 -202h-158zM417 874l124.998 -37
c-11.333 -44.667 -35.333 -77.667 -72 -99c-30 -18 -70.333 -27 -121 -27c-50 0 -89.333 8.66699 -118 26c-37.333 22.667 -61.666 55.667 -72.999 99l127 38c2.66699 -17.333 9.33398 -31 20.001 -41c11.333 -10 27 -15 47 -15s35.667 5.66699 47 17
c9.33301 10.667 15.333 23.667 18 39z" />
    <glyph glyph-name="afii10028" unicode="&#x41a;" horiz-adv-x="533" 
d="M564 667l-181 -322l117 -345h-191l-79 319l-35 -319h-177l82 667h177l-40 -298l140 298h187z" />
    <glyph glyph-name="afii10029" unicode="&#x41b;" horiz-adv-x="580" 
d="M162 667h426l-82 -667h-180l62 503h-80l-27 -221c-14.667 -119.333 -42 -199.333 -82 -240c-34.667 -35.333 -83.667 -53 -147 -53c-26.667 0 -50.667 2.66699 -72 8l22 178c10.667 -10.667 23 -16 37 -16c16.667 0 30.667 5 42 15c15.333 14.667 26 47 32 97z" />
    <glyph glyph-name="afii10030" unicode="&#x41c;" horiz-adv-x="755" 
d="M712 667l-18 -666.998h-185c6.66699 86.667 18.334 228.334 35.001 425.001c-18.667 -73.333 -60.667 -215 -126 -425h-145l-11 321c0 3.33301 -0.166992 9 -0.5 17s-0.5 13.667 -0.5 17c0 16 0.666992 39.333 2 70c-8.66699 -66.667 -32.334 -208.334 -71.001 -425.001
h-190l158 667h221l9 -225c1.33301 -22.667 2 -39.334 2 -50.001c0 -8 -0.166992 -16.5 -0.5 -25.5s-0.833008 -18.833 -1.5 -29.5s-1 -19 -1 -25c6.66699 28.667 14.667 60 24 94s17 61 23 81s16 51.667 30 95s23 71.666 27 84.999h219z" />
    <glyph glyph-name="afii10031" unicode="&#x41d;" horiz-adv-x="531" 
d="M539 667l-82 -667h-177l33 268h-85l-33 -268h-177l82 667h177l-29 -236h85l29 236h177z" />
    <glyph glyph-name="afii10032" unicode="&#x41e;" horiz-adv-x="558" 
d="M337 679c57.333 0 104 -19 140 -57c46 -48 69 -117.333 69 -208c0 -64 -10.167 -129 -30.5 -195s-51.833 -119.667 -94.5 -161c-47.333 -46.667 -103 -70 -167 -70c-58 0 -106.667 20.667 -146 62c-46.667 48 -70 119 -70 213c0 77.333 11.5 145 34.5 203
s52.5 104.333 88.5 139c50 49.333 108.667 74 176 74zM315 511c-11.333 0 -23 -6.33398 -35 -19.001c-16.667 -18 -30.334 -48.333 -41.001 -91c-11.333 -44.667 -17 -91 -17 -139s7.33301 -79.333 22 -94c7.33301 -7.33301 16 -11 26 -11c12.667 0 23.667 5.33301 33 16
c18.667 20.667 33.334 53.667 44.001 99c10 40.667 15 85.334 15 134.001c0 51.333 -7.33301 83.333 -22 96c-6.66699 6 -15 9 -25 9z" />
    <glyph glyph-name="afii10033" unicode="&#x41f;" horiz-adv-x="531" 
d="M539 667l-82 -667h-177l62 504h-85l-62 -504h-177l82 667h439z" />
    <glyph glyph-name="afii10034" unicode="&#x420;" horiz-adv-x="498" 
d="M100 667h172.001c158.667 0 238 -64.333 238 -193c0 -76.667 -24.333 -140 -73 -190c-50.667 -51.333 -122.334 -73 -215.001 -65l-27 -219h-177zM241.001 368l9.00098 0.000976562c24 0 43.167 8.5 57.5 25.5s21.5 37.5 21.5 61.5
c0 19.333 -4.83301 35.166 -14.5 47.499s-23.834 18.5 -42.501 18.5h-13z" />
    <glyph glyph-name="afii10035" unicode="&#x421;" horiz-adv-x="438" 
d="M461 662l-23.001 -190.001c-23.333 26.667 -49 40 -77 40c-33.333 0 -61.166 -13.167 -83.499 -39.5s-37.333 -55.333 -45 -87s-11.5 -63.834 -11.5 -96.501c0 -36.667 7.33301 -67 22 -91s39 -36 73 -36c31.333 0 63.666 14.333 96.999 43l-34 -193
c-39.333 -16 -75.666 -24 -108.999 -24c-75.333 0 -132.833 25.833 -172.5 77.5s-59.5 116.5 -59.5 194.5c0 51.333 7 101.333 21 150s34.333 93.334 61 134.001s62 73.334 106 98.001s93 37 147 37c32 0 61.333 -5.66699 88 -17z" />
    <glyph glyph-name="afii10036" unicode="&#x422;" horiz-adv-x="377" 
d="M427 667l-20 -160h-98l-62 -507h-177l62 507h-98l20 160h373z" />
    <glyph glyph-name="afii10037" unicode="&#x423;" 
d="M54 667h184l23 -109c10 -46.667 15.667 -93.667 17 -141c14.667 52 31 100.667 49 146l41 104h186l-318 -667h-177l108 230z" />
    <glyph glyph-name="afii10038" unicode="&#x424;" horiz-adv-x="703" 
d="M232 0l11.002 90.002c-54.667 6 -101.334 27 -140.001 63c-43.333 42 -65 98.333 -65 169c0 87.333 25 157.666 75 210.999c49.333 52 114.333 80.333 195 85l10 86h176l-10 -86c58.667 -6.66699 106 -28.334 142 -65.001c43.333 -43.333 65 -101.333 65 -174
c0 -88 -26 -157.333 -78 -208c-48.667 -47.333 -113.334 -74.333 -194.001 -81l-11 -90h-176zM451.002 463.002l-26 -217c28 0.666992 51 10.667 69 30c20.667 22.667 31 54.667 31 96c0 30 -7.66699 52.667 -23 68c-13.333 13.333 -30.333 21 -51 23zM276.002 245.002
l27 218c-24.667 -0.666992 -45.667 -9 -63 -25c-24 -22.667 -36 -55.334 -36 -98.001c0 -30 8 -53.333 24 -70c13.333 -13.333 29.333 -21.666 48 -24.999z" />
    <glyph glyph-name="afii10039" unicode="&#x425;" horiz-adv-x="509" 
d="M552 667l-190 -320.998l119 -346h-197c-6 24.667 -14.667 66 -26 124c-5.33301 23.333 -8.66602 41.666 -9.99902 54.999c-16.667 -40.667 -44.334 -100.334 -83.001 -179.001h-193l202 346l-111 321h197c2 -12 5.5 -30.333 10.5 -55s8.83301 -43 11.5 -55
c0.666992 -3.33301 1.5 -8.33301 2.5 -15s2 -12.667 3 -18s2.16699 -10.333 3.5 -15c9.33301 30 30 82.667 62 158h199z" />
    <glyph glyph-name="afii10040" unicode="&#x426;" horiz-adv-x="558" 
d="M277 667l-62 -504h82l62 504h177l-62 -504h70l-37 -293h-160l17 130h-346l82 667h177z" />
    <glyph glyph-name="afii10041" unicode="&#x427;" horiz-adv-x="521" 
d="M270 0l33 269c-26 -7.33301 -52.333 -11 -79 -11c-47.333 0 -85 11 -113 33c-34 26.667 -51 64 -51 112c0 19.333 2 44 6 74l24 190h176l-22 -178c-2 -18 -3 -28 -3 -30c0 -14 4.33301 -24.667 13 -32c8 -7.33301 19.667 -11 35 -11c12 0 23 2.33301 33 7l30 244h177
l-82 -667h-177z" />
    <glyph glyph-name="afii10042" unicode="&#x428;" horiz-adv-x="780" 
d="M276 667l-62 -504h80l62 504h176l-62 -504h80l62 504h176l-82 -667h-688l82 667h176z" />
    <glyph glyph-name="afii10043" unicode="&#x429;" horiz-adv-x="820" 
d="M278 667l-62 -504h80l62 504h176l-62 -504h80l62 504h176l-62 -504h78l-37 -293h-160l17 130h-606l82 667h176z" />
    <glyph glyph-name="afii10044" unicode="&#x42a;" horiz-adv-x="555" 
d="M279 0h-203l62 507h-83l20 160h260l-30 -245h9c78.667 0 136.667 -18.333 174 -55c34.667 -34.667 52 -79 52 -133c0 -68.667 -21.667 -124.667 -65 -168c-44.667 -44 -110 -66 -196 -66zM287 278l-15.999 -133c29.333 -4 53.666 4 72.999 24c12 12 18 29 18 51
c0 20 -6.66699 35.333 -20 46c-14.667 11.333 -33 15.333 -55 12z" />
    <glyph glyph-name="afii10045" unicode="&#x42b;" horiz-adv-x="751" 
d="M674 0h-177l79 667h183zM220 0h-202l82 667h177l-30 -245h8c78.667 0 136.667 -18.333 174 -55c34.667 -33.333 52 -77 52 -131c0 -70 -21.667 -126.667 -65 -170c-44.667 -44 -110 -66 -196 -66zM229 278l-15.999 -133c29.333 -4 53.666 4 72.999 24c12 12 18 29 18 51
c0 20 -6.66699 35.333 -20 46c-14.667 11.333 -33 15.333 -55 12z" />
    <glyph glyph-name="afii10046" unicode="&#x42c;" horiz-adv-x="497" 
d="M221 0h-203l82 667h177l-30 -245h9c78.667 0 136.667 -18.333 174 -55c34.667 -34.667 52 -79 52 -133c0 -68.667 -21.667 -124.667 -65 -168c-44.667 -44 -110 -66 -196 -66zM229 278l-15.999 -133c29.333 -4 53.666 4 72.999 24c12 12 18 29 18 51
c0 20 -6.66699 35.333 -20 46c-14.667 11.333 -33 15.333 -55 12z" />
    <glyph glyph-name="afii10047" unicode="&#x42d;" horiz-adv-x="496" 
d="M40 29l10.9961 193.001c10.667 -16.667 25 -31.334 43 -44.001c19.333 -13.333 41.333 -20 66 -20c30 0 55.667 9.33301 77 28c20.667 18.667 34 43.667 40 75h-151l19 151h150c-4.66699 32 -16.667 56.667 -36 74s-44.666 26 -75.999 26
c-21.333 0 -41.666 -5.33301 -60.999 -16c-16 -9.33301 -30.667 -21 -44 -35l24 188c36.667 20 75.667 30 117 30c76.667 0 138 -23 184 -69c24.667 -24.667 44.334 -57.167 59.001 -97.5s22 -84.5 22 -132.5c0 -58 -10.167 -116.667 -30.5 -176
s-51.166 -108.333 -92.499 -147c-48.667 -46 -109.667 -69 -183 -69c-26.667 0 -49.667 3.16699 -69 9.5s-42.333 16.833 -69 31.5z" />
    <glyph glyph-name="afii10048" unicode="&#x42e;" horiz-adv-x="810" 
d="M247 425l69 -0.000976562c16 72.667 48.333 133.334 97 182.001c48.667 48 106.667 72 174 72c58.667 0 106 -19 142 -57c46 -48 69 -117.333 69 -208c0 -64.667 -10.167 -129.834 -30.5 -195.501s-51.833 -119.5 -94.5 -161.5c-46 -46 -103.333 -69 -172 -69
c-56 0 -101.667 17.667 -137 53c-46.667 46.667 -70 122.334 -70 227.001h-66l-33 -268h-177l82 667h177zM567 510.999c-11.333 0 -23 -6.33398 -35 -19.001c-16.667 -18 -30.334 -48.333 -41.001 -91c-11.333 -44.667 -17 -91 -17 -139s7.33301 -79.333 22 -94
c7.33301 -7.33301 16 -11 26 -11c12.667 0 23.667 5.33301 33 16c18.667 20.667 33.334 53.667 44.001 99c10 40.667 15 85.334 15 134.001c0 51.333 -7.33301 83.333 -22 96c-6.66699 6 -15 9 -25 9z" />
    <glyph glyph-name="afii10049" unicode="&#x42f;" horiz-adv-x="541" 
d="M0 0l155 269.001c-27.333 12 -48.333 28.667 -63 50c-18.667 26.667 -28 60.667 -28 102c0 71.333 21 128.666 63 171.999c48.667 49.333 132 74 250 74h172l-82 -667h-177l19 147c8 60.667 14 100.667 18 120l-128 -267h-199zM334 358.001l19 159.001
c-28.667 3.33301 -52 -3.33398 -70 -20.001c-18.667 -16 -28 -39.333 -28 -70c0 -20 6.33301 -36.333 19 -49c14.667 -13.333 32.667 -20 54 -20h6z" />
    <glyph glyph-name="afii10065" unicode="&#x430;" horiz-adv-x="489" 
d="M479 467l-57 -467.005h-171c2 8.66699 4.66699 21.834 8 39.501s5.66602 30.834 6.99902 39.501c-35.333 -59.333 -78.666 -89 -129.999 -89c-22 0 -40.833 5.66699 -56.5 17s-27.334 26.333 -35.001 45s-13.167 37.334 -16.5 56.001s-5 38.334 -5 59.001
c0 46 4.66699 88.667 14 128c5.33301 22 12.333 43 21 63s19.5 39.333 32.5 58s29.167 33.5 48.5 44.5s40.333 16.5 63 16.5c26.667 0 47.334 -7.16699 62.001 -21.5s27 -35.166 37 -62.499c0 8 0.5 20.167 1.5 36.5s1.83301 28.833 2.5 37.5h174zM282 287.995
c0 30.667 -9.33301 46 -28 46c-20.667 0 -35.667 -17 -45 -51s-14 -65.667 -14 -95c0 -36.667 10.333 -55 31 -55c20 0 34.333 18.167 43 54.5s13 69.833 13 100.5z" />
    <glyph glyph-name="afii10066" unicode="&#x431;" horiz-adv-x="503" 
d="M376 557l-38 -10.998c-49.333 -14.667 -83.333 -31 -102 -49c-28 -26.667 -44.333 -61 -49 -103c12.667 26 28.334 45.667 47.001 59c22 16 49 24 81 24c42.667 0 78 -14 106 -42c34 -35.333 51 -86 51 -152c0 -40 -6.5 -82.333 -19.5 -127s-34.5 -81.334 -64.5 -110.001
c-39.333 -37.333 -92.333 -56 -159 -56c-56 0 -99.667 16 -131 48c-38.667 39.333 -58 101.333 -58 186c0 64 10 134.333 30 211c20.667 77.333 50.667 135.333 90 174c22 21.333 45.5 37.666 70.5 48.999s55.5 21.666 91.5 30.999c34 8.66699 56.333 19.334 67 32.001
c7.33301 8 11.666 17.667 12.999 29h131c-3.33301 -51.333 -20 -95 -50 -131c-23.333 -28 -59 -48.667 -107 -62zM270 346.002c-8.66699 0 -16.6689 -3.66699 -24.002 -11c-12 -12 -21.667 -32.167 -29 -60.5s-11 -54.833 -11 -79.5s3.66699 -43.667 11 -57
c6.66699 -11.333 15.334 -17 26.001 -17c10 0 18.333 4 25 12c12.667 12.667 22.334 33 29.001 61s10 54.333 10 79c0 23.333 -3.66699 42 -11 56c-5.33301 11.333 -14 17 -26 17z" />
    <glyph glyph-name="afii10067" unicode="&#x432;" horiz-adv-x="476" 
d="M68 467l200.001 -0.000976562c75.333 0 126.333 -13.333 153 -40c20.667 -22 31 -49.667 31 -83c0 -31.333 -8.66699 -55.666 -26 -72.999c-20.667 -20.667 -48.334 -31 -83.001 -31v-2c33.333 1.33301 59 -7.66699 77 -27c14.667 -16 22 -37.333 22 -64
c0 -38.667 -11.667 -70.667 -35 -96c-32 -34 -80.333 -51 -145 -51h-251zM216.001 279.999l7 -0.000976562c24 0 40.667 4 50 12c10 8.66699 15 20 15 34c0 10.667 -4.66699 19.334 -14 26.001c-7.33301 4.66699 -21 7 -41 7h-7zM195.001 107.998h6c23.333 0 39.333 3 48 9
c12.667 8.66699 19 21 19 37c0 13.333 -5.66699 23.333 -17 30c-10 4 -22.667 6 -38 6h-8z" />
    <glyph glyph-name="afii10068" unicode="&#x433;" horiz-adv-x="364" 
d="M351 327h-128l-40 -327h-172l57 467h300z" />
    <glyph glyph-name="afii10069" unicode="&#x434;" horiz-adv-x="533" 
d="M122 467h378.001l-40 -331h53l-32 -251h-138l15 115h-236l-14 -115h-138l31 251c23.333 4.66699 41.666 13.667 54.999 27c22 20.667 37 64.667 45 132zM294.001 136l24.001 195h-61l-10 -79c-4 -30 -9.66699 -53.333 -17 -70c-8.66699 -18.667 -21.334 -34 -38.001 -46
h102z" />
    <glyph glyph-name="afii10070" unicode="&#x435;" horiz-adv-x="474" 
d="M266 157h166c-17.333 -53.333 -45.333 -94.5 -84 -123.5s-85.667 -43.5 -141 -43.5c-59.333 0 -104.833 17 -136.5 51s-47.5 80.667 -47.5 140c0 77.333 22.667 145.833 68 205.5s105.333 89.5 180 89.5c58 0 102.5 -18.5 133.5 -55.5s46.5 -85.167 46.5 -144.5
c0 -18 -2.66699 -44.333 -8 -79h-250c-0.666992 -4 -1 -10.333 -1 -19c0 -35.333 10.667 -53 32 -53c20.667 0 34.667 10.667 42 32zM207 290h79c0 1.33301 0.166992 3.33301 0.5 6s0.5 4.66699 0.5 6c0 31.333 -11.333 47 -34 47c-13.333 0 -23.833 -6 -31.5 -18
s-12.5 -25.667 -14.5 -41z" />
    <glyph glyph-name="afii10072" unicode="&#x436;" horiz-adv-x="723" 
d="M686 0l-187.001 0.000976562l-26 96c-12 44.667 -20.333 84.667 -25 120l-27 -216h-168l27 216c-19.333 -46.667 -37.666 -86.667 -54.999 -120l-50 -96h-192l145 239l-79 228h178l30 -104c11.333 -40 20 -79.333 26 -118l27 222h168l-27 -222
c12 29.333 30.667 68.666 56 117.999l54 104h180l-137 -228z" />
    <glyph glyph-name="afii10073" unicode="&#x437;" horiz-adv-x="435" 
d="M108 303l-55 126.999c27.333 14 52 24.667 74 32c32 10 65.667 15 101 15c66 0 115 -16 147 -48c22.667 -22.667 34 -51 34 -85c0 -32 -9.66699 -57 -29 -75c-18.667 -18 -43.334 -28 -74.001 -30c28 -2 50.667 -11.333 68 -28c16.667 -15.333 25 -37 25 -65
c0 -36.667 -13.667 -69.667 -41 -99c-36.667 -38 -89 -57 -157 -57c-41.333 0 -78 6 -110 18c-26.667 10 -53.667 25 -81 45l82 121c8 -15.333 20.333 -28 37 -38c14.667 -9.33301 31 -14 49 -14c10.667 0 21.334 2.66699 32.001 8c8 5.33301 12 13 12 23
c0 12.667 -6.66699 21.334 -20 26.001c-10 3.33301 -26.333 5 -49 5h-20l13 109h30c17.333 0 31 1.33301 41 4c14.667 4.66699 22 13 22 25c0 8 -4.33301 14.667 -13 20c-7.33301 4.66699 -18.333 7 -33 7c-16.667 0 -32 -4 -46 -12c-8 -4.66699 -21 -16 -39 -34z" />
    <glyph glyph-name="afii10074" unicode="&#x438;" horiz-adv-x="504" 
d="M68 467h165.999l-16 -131c-4.66699 -39.333 -12 -80.333 -22 -123c16 35.333 31.333 65.333 46 90l94 164h158l-57 -467h-166l15 125c2.66699 23.333 10 66.333 22 129c-15.333 -36.667 -30.666 -68 -45.999 -94l-93 -160h-158z" />
    <glyph glyph-name="afii10075" unicode="&#x439;" horiz-adv-x="504" 
d="M68 467h165.999l-16 -131c-4.66699 -39.333 -12 -80.333 -22 -123c16 35.333 31.333 65.333 46 90l94 164h158l-57 -467h-166l15 125c2.66699 23.333 10 66.333 22 129c-15.333 -36.667 -30.666 -68 -45.999 -94l-93 -160h-158zM350.999 677l110.998 -26
c-12.667 -44.667 -36.667 -78.667 -72 -102c-26 -16.667 -59.333 -25 -100 -25c-43.333 0 -77.666 9 -102.999 27c-33.333 22.667 -53.333 56 -60 100l118 26c-1.33301 -18 2.66699 -32 12 -42c8 -8.66699 19.333 -13 34 -13c16.667 0 29.334 4.33301 38.001 13
c10.667 9.33301 18 23.333 22 42z" />
    <glyph glyph-name="afii10076" unicode="&#x43a;" horiz-adv-x="487" 
d="M456 0h-190l-24 80c-16 54 -27.333 95 -34 123l-25 -203h-172l57 467h172l-27 -221c20.667 51.333 44 100.333 70 147l40 74h182l-139 -234z" />
    <glyph glyph-name="afii10077" unicode="&#x43b;" horiz-adv-x="506" 
d="M496 467l-57.002 -467h-172l40 327h-60l-13 -104c-12 -96.667 -36 -162 -72 -196c-27.333 -25.333 -65.666 -38 -114.999 -38c-23.333 0 -45.666 3.33301 -66.999 10l17 139c6.66699 -4.66699 14.667 -7 24 -7c13.333 0 24 3.33301 32 10c14.667 11.333 25 41.333 31 90
l29 236h383z" />
    <glyph glyph-name="afii10078" unicode="&#x43c;" horiz-adv-x="636" 
d="M347 0h-117.999l-17 169c-4 36.667 -5.66699 72.334 -5 107.001c-2.66699 -29.333 -8.33398 -65.333 -17.001 -108l-33 -168h-167l118 467h182l16 -156c4.66699 -42 6.66699 -81 6 -117c8 38 18.667 75.333 32 112l56 161h182l4 -467h-167l9 155
c2 43.333 5 83.666 9 120.999c-8 -36.667 -19.333 -76 -34 -118z" />
    <glyph glyph-name="afii10079" unicode="&#x43d;" horiz-adv-x="486" 
d="M240 467l-19 -159h64l19 159h172l-57 -467h-172l21 168h-64l-21 -168h-172l57 467h172z" />
    <glyph glyph-name="afii10080" unicode="&#x43e;" horiz-adv-x="480" 
d="M270 477c54.667 0 98.334 -15.667 131.001 -47c36.667 -35.333 55 -86 55 -152c0 -44 -7.33301 -86.167 -22 -126.5s-35.334 -73.5 -62.001 -99.5c-42.667 -41.333 -97.334 -62 -164.001 -62c-52.667 0 -95 14.667 -127 44c-38 34.667 -57 86.667 -57 156
c0 91.333 28.333 165.333 85 222c44.667 43.333 98.334 65 161.001 65zM254 346c-8.66699 0 -16.6689 -3.66699 -24.002 -11c-12 -12 -21.667 -32.167 -29 -60.5s-11 -54.833 -11 -79.5s3.66699 -43.667 11 -57c6.66699 -11.333 15.334 -17 26.001 -17c10 0 18.333 4 25 12
c12.667 12.667 22.334 33 29.001 61s10 54.333 10 79c0 23.333 -3.66699 42 -11 56c-5.33301 11.333 -14 17 -26 17z" />
    <glyph glyph-name="afii10081" unicode="&#x43f;" horiz-adv-x="484" 
d="M417 0h-172l40 327h-62l-40 -327h-172l57 467h406z" />
    <glyph glyph-name="afii10082" unicode="&#x440;" horiz-adv-x="489" 
d="M241 467l-11.999 -65.998c32.667 50.667 71 76 115 76c30.667 0 55.667 -10.667 75 -32s32.166 -45.166 38.499 -71.499s9.5 -54.5 9.5 -84.5c0 -44.667 -5 -85.334 -15 -122.001c-12 -46.667 -32 -87.834 -60 -123.501s-63 -53.5 -105 -53.5s-75 24.333 -99 73
c0 -16.667 -2 -42.334 -6 -77.001l-25 -201h-171l85 682h170zM290.001 272.002c0 41.333 -10.3311 61.999 -30.998 61.999c-10 0 -18.833 -5.33301 -26.5 -16s-13.334 -24.167 -17.001 -40.5s-6.33398 -31.166 -8.00098 -44.499s-2.5 -25 -2.5 -35
c0 -41.333 9.66699 -62 29 -62c18.667 0 32.667 16.167 42 48.5s14 61.5 14 87.5z" />
    <glyph glyph-name="afii10083" unicode="&#x441;" horiz-adv-x="298" 
d="M309 475l-19.001 -152c-27.333 -2 -48.666 -12 -63.999 -30s-23 -40.667 -23 -68c0 -18.667 4.83301 -35.5 14.5 -50.5s23.167 -22.5 40.5 -22.5h11l-19 -159c-14.667 -2 -30 -3 -46 -3c-58.667 0 -103.167 20 -133.5 60s-45.5 90 -45.5 150
c0 72.667 23.833 137 71.5 193s107.167 84 178.5 84c8 0 19.333 -0.666992 34 -2z" />
    <glyph glyph-name="afii10084" unicode="&#x442;" horiz-adv-x="376" 
d="M398 467l-17 -140h-94l-41 -327h-170l40 327h-90l17 140h355z" />
    <glyph glyph-name="afii10085" unicode="&#x443;" horiz-adv-x="458" 
d="M487 467l-301 -682.001h-176l110 234l-82 448h172c1.33301 -12 3.66602 -31 6.99902 -57s5.83301 -46.5 7.5 -61.5s3.33398 -33.5 5.00098 -55.5s2.5 -42.333 2.5 -61c0 -3.33301 -0.166992 -8.33301 -0.5 -15s-0.5 -11.667 -0.5 -15c24 88.667 40 143.334 48 164.001
l38 101h170z" />
    <glyph glyph-name="afii10086" unicode="&#x444;" horiz-adv-x="641" 
d="M179 -215l27 208.001c-48 2 -89.667 20.667 -125 56c-38 39.333 -57 93.333 -57 162c0 80.667 24.667 145 74 193c43.333 42 99 65.333 167 70l25 193h170l-25 -193c49.333 -8.66699 91 -30.334 125 -65.001c38 -40.667 57 -92 57 -154
c0 -84.667 -24.333 -150.667 -73 -198c-44 -42.667 -100 -64 -168 -64l-27 -208h-170zM403 334.001l-25 -200.998c23.333 0.666992 42 8 56 22c22 21.333 33 52.666 33 93.999c0 25.333 -5.66699 45.333 -17 60c-10 13.333 -25.667 21.666 -47 24.999zM238 133.003l25 201
c-21.333 -1.33301 -39.333 -8.66602 -54 -21.999c-22.667 -20.667 -34 -52.667 -34 -96c0 -26.667 6 -47.334 18 -62.001c10.667 -14 25.667 -21 45 -21z" />
    <glyph glyph-name="afii10087" unicode="&#x445;" horiz-adv-x="475" 
d="M491 467l-163.002 -223l119 -244h-198c-11.333 41.333 -19.666 78 -24.999 110c-13.333 -30 -33.666 -66.667 -60.999 -110h-191l169 240l-104 227h195c12 -58.667 18.667 -92.334 20 -101.001c5.33301 13.333 14 31.333 26 54s20 38.334 24 47.001h189z" />
    <glyph glyph-name="afii10088" unicode="&#x446;" horiz-adv-x="507" 
d="M304 467h172l-40 -327h61l-31 -255h-142l14 115h-327l57 467h172l-40 -327h64z" />
    <glyph glyph-name="afii10089" unicode="&#x447;" horiz-adv-x="476" 
d="M237 0l20.001 161.001c-22.667 -6.66699 -46.334 -10 -71.001 -10c-48.667 0 -86 12.333 -112 37c-22.667 22.667 -34 53 -34 91c0 18 1.66699 39.667 5 65l15 123h170l-15 -122c-1.33301 -9.33301 -2 -18 -2 -26c0 -10.667 3 -18.334 9 -23.001
c5.33301 -4.66699 13.333 -7 24 -7c10 0 19 2.66699 27 8l21 170h172l-57 -467h-172z" />
    <glyph glyph-name="afii10090" unicode="&#x448;" horiz-adv-x="714" 
d="M302 467h168l-40 -327h66l40 327h168l-57 -467h-636l57 467h168l-40 -327h66z" />
    <glyph glyph-name="afii10091" unicode="&#x449;" horiz-adv-x="741" 
d="M302 467h168l-40 -327h66l40 327h168l-40 -327h67l-31 -255h-142l14 115h-561l57 467h168l-40 -327h66z" />
    <glyph glyph-name="afii10092" unicode="&#x44a;" horiz-adv-x="526" 
d="M279 301h53c58 0 101.667 -12 131 -36c28.667 -24 43 -57.333 43 -100c0 -50 -15 -89.667 -45 -119c-32 -30.667 -78.333 -46 -139 -46h-252l40 327h-80l17 140h252zM256 110h5c24 0 40.667 2.33301 50 7c14 7.33301 21 20 21 38c0 9.33301 -3 17.333 -9 24
c-8.66699 9.33301 -25.667 14 -51 14h-6z" />
    <glyph glyph-name="afii10093" unicode="&#x44b;" horiz-adv-x="694" 
d="M626 0h-172l57 467h172zM219 301h49c58 0 101.667 -12 131 -36c28.667 -24 43 -57.333 43 -100c0 -50 -15 -89.667 -45 -119c-32 -30.667 -78.333 -46 -139 -46h-248l57 467h172zM196 110h5c24 0 40.667 2.33301 50 7c14 7.33301 21 20 21 38c0 9.33301 -3 17.333 -9 24
c-8.66699 9.33301 -25.667 14 -51 14h-6z" />
    <glyph glyph-name="afii10094" unicode="&#x44c;" horiz-adv-x="466" 
d="M219 301h53c58 0 101.667 -12 131 -36c28.667 -24 43 -57.333 43 -100c0 -50 -15 -89.667 -45 -119c-32 -30.667 -78.333 -46 -139 -46h-252l57 467h172zM196 110h5c24 0 40.667 2.33301 50 7c14 7.33301 21 20 21 38c0 9.33301 -3 17.333 -9 24
c-8.66699 9.33301 -25.667 14 -51 14h-6z" />
    <glyph glyph-name="afii10095" unicode="&#x44d;" horiz-adv-x="389" 
d="M20 22l17.001 133.001c19.333 -22 44.333 -33 75 -33c22 0 39.667 5 53 15c14.667 12 23.667 27 27 45h-107l13 104h103c-3.33301 20 -12 35 -26 45c-12 9.33301 -29 14 -51 14c-24.667 0 -47.334 -7.66699 -68.001 -23l17 135c30.667 13.333 62.334 20 95.001 20
c60 0 107.333 -18 142 -54c36.667 -38 55 -92 55 -162c0 -34 -5.83301 -70.333 -17.5 -109s-31.5 -72.334 -59.5 -101.001c-38.667 -40.667 -89.334 -61 -152.001 -61c-45.333 0 -84 10.667 -116 32z" />
    </font>
</defs>
</svg>
