<?xml version="1.0" standalone="no"?>
<!DOCTYPE svg PUBLIC "-//W3C//DTD SVG 1.1//EN" "http://www.w3.org/Graphics/SVG/1.1/DTD/svg11.dtd" >
<svg>
<metadata>
Created by FontForge 20090914 at Tue Aug  4 21:48:51 2020
 By www-data
Copyright &#194;&#169; 1995 ParaGraph Intl., &#194;&#169; 1998 ParaType Inc., ParaType Ltd. All rights reserved.
</metadata>
<defs>
<font id="FuturaPTCond-Medium" horiz-adv-x="500" >
  <font-face 
    font-family="Futura PT Cond Medium"
    font-weight="450"
    font-stretch="condensed"
    units-per-em="1000"
    panose-1="2 11 6 6 2 2 4 2 2 3"
    ascent="763"
    descent="-237"
    x-height="447"
    cap-height="667"
    bbox="-221 -250 750 920"
    underline-thickness="50"
    underline-position="-150"
    unicode-range="U+0020-U+FB02"
  />
<missing-glyph horiz-adv-x="233" 
 />
    <glyph glyph-name="afii10017.var.accented" unicode="&#x410;`" horiz-adv-x="360" 
d="M359 0h-89l-25 130h-132l-25 -130h-87l145 667h71zM126 199h106c-26.667 148.667 -44 261.334 -52 338.001c-6.66699 -68.667 -24.667 -181.334 -54 -338.001zM136 755l86 129l68 -42l-107 -115z" />
    <glyph glyph-name="afii10022.var.accented" unicode="&#x415;`" horiz-adv-x="321" 
d="M290 0h-239v667h239v-76h-149v-212h132v-76h-132v-227h149v-76zM116 755l86 129l68 -42l-107 -115z" />
    <glyph glyph-name="afii10026.var.accented" unicode="&#x418;`" horiz-adv-x="410" 
d="M51 0l0.00195312 666.998h88v-273c0 -77.333 -6.33301 -155.666 -19 -234.999c7.33301 24 16.666 56.5 27.999 97.5s21.666 75.5 30.999 103.5l100 307h80v-667h-88v297c0 42.667 6 115 18 217c-32.667 -117.333 -49.667 -177.666 -51 -180.999l-107 -333h-80z
M161.002 754.998l86 129l68 -42l-107 -115z" />
    <glyph glyph-name="afii10032.var.accented" unicode="&#x41e;`" horiz-adv-x="423" 
d="M385 333c0 -44 -1.00098 -81.1719 -3.00098 -111.505s-8.16699 -64.666 -18.5 -102.999s-25.166 -67.166 -44.499 -86.499c-27.333 -27.333 -63 -41 -107 -41c-44.667 0 -80.667 13.667 -108 41c-44 44.667 -66 144.334 -66 299.001c0 32.667 0.5 60.5 1.5 83.5
s3.5 49.833 7.5 80.5s10.833 57.834 20.5 81.501s21.834 42.834 36.501 57.501c27.333 27.333 63.333 41 108 41c44 0 79.667 -13.667 107 -41s45.166 -67 53.499 -119s12.5 -112.667 12.5 -182zM131.999 316.995c0 -126.667 12.333 -202.334 37 -227.001
c10.667 -10.667 25 -16 43 -16c17.333 0 31.333 5.33301 42 16c24.667 24.667 37 100.334 37 227.001v50c0 117.333 -12.333 187.666 -37 210.999c-10.667 10.667 -24.667 16 -42 16c-18 0 -32.333 -5.33301 -43 -16c-24.667 -23.333 -37 -93.666 -37 -210.999v-50z
M166.999 754.995l86 129l68 -42l-107 -115z" />
    <glyph glyph-name="afii10037.var.accented" unicode="&#x423;`" horiz-adv-x="359" 
d="M8 667h94l41 -157c19.333 -76.667 32.666 -135 39.999 -175c12.667 68 25.334 127 38.001 177l40 155h90l-183 -667h-88l61 213zM135 755l86 129l68 -42l-107 -115z" />
    <glyph glyph-name="afii10045.var.accented" unicode="&#x42b;`" horiz-adv-x="514" 
d="M462 0h-90v667h90v-667zM51 667h90v-285h10c60.667 0 105.667 -14.667 135 -44c30.667 -31.333 46 -81.333 46 -150c0 -70 -14.667 -119.667 -44 -149c-26 -26 -63.667 -39 -113 -39h-124v667zM141 306v-230h4c34 0 57.667 6.33301 71 19c16.667 16 25 46.667 25 92
c0 48.667 -9.33301 81.667 -28 99c-14.667 13.333 -37.667 20 -69 20h-3zM213 755l86 129l68 -42l-107 -115z" />
    <glyph glyph-name="afii10047.var.accented" unicode="&#x42d;`" horiz-adv-x="369" 
d="M38 22l-0.000976562 93.001c18 -24.667 44.333 -37 79 -37c26.667 0 48.334 8.33301 65.001 25c18.667 18.667 32.167 48.667 40.5 90s12.5 80.333 12.5 117h-155v76h154c-0.666992 88 -17 148 -49 180c-18 18 -39.667 27 -65 27c-30 0 -57.333 -13.667 -82 -41v93
c27.333 20.667 60.333 31 99 31c48.667 0 88 -14.667 118 -44c50.667 -49.333 76 -137 76 -263c0 -168.667 -28 -280.334 -84 -335.001c-30 -29.333 -67.667 -44 -113 -44c-38 0 -70 10.667 -96 32zM109.999 755.001l86 129l68 -42l-107 -115z" />
    <glyph glyph-name="afii10048.var.accented" unicode="&#x42e;`" horiz-adv-x="597" 
d="M559 333c0 -44 -1 -81.1689 -3 -111.502s-8.16699 -64.666 -18.5 -102.999s-25.166 -67.166 -44.499 -86.499c-27.333 -27.333 -63 -41 -107 -41c-44.667 0 -80.667 13.667 -108 41c-25.333 25.333 -42.333 61.5 -51 108.5s-13 106.167 -13 177.5v7h-73v-325h-90v667h90
v-266h74c0 113.333 21 191 63 233c27.333 27.333 63.333 41 108 41c44 0 79.667 -13.667 107 -41s45.166 -67 53.499 -119s12.5 -112.667 12.5 -182zM306 316.998c0 -126.667 12.333 -202.334 37 -227.001c10.667 -10.667 25 -16 43 -16c17.333 0 31.333 5.33301 42 16
c24.667 24.667 37 100.334 37 227.001v50c0 117.333 -12.333 187.666 -37 210.999c-10.667 10.667 -24.667 16 -42 16c-18 0 -32.333 -5.33301 -43 -16c-24.667 -23.333 -37 -93.666 -37 -210.999v-50zM254 754.998l86 129l68 -42l-107 -115z" />
    <glyph glyph-name="afii10049.var.accented" unicode="&#x42f;`" horiz-adv-x="356" 
d="M20 0l108.999 309c-26 4 -48 15 -66 33c-28 27.333 -42 72.333 -42 135c0 74 17.333 126.667 52 158c10.667 10 23.334 17.5 38.001 22.5s26.667 7.83301 36 8.5s22.333 1 39 1h119v-667h-90v304l-103 -304h-92zM214.999 593h-24c-23.333 0 -41.333 -5.33301 -54 -16
c-19.333 -17.333 -29 -50 -29 -98s10.333 -79.333 31 -94c13.333 -10.667 34 -16 62 -16h14v224zM133.999 755l86 129l68 -42l-107 -115z" />
    <glyph glyph-name="afii10023.var.accented" unicode="&#x401;`" horiz-adv-x="321" 
d="M290 0h-239v667h239v-76h-149v-212h132v-76h-132v-227h149v-76zM116 755l79 129l50 -33l-100 -115zM106 778c0 -12 -4.16699 -22.167 -12.5 -30.5s-18.166 -12.5 -29.499 -12.5c-12.667 0 -23 4.16699 -31 12.5s-12 18.5 -12 30.5s4 22.167 12 30.5s18.333 12.5 31 12.5
c11.333 0 21.166 -4.16699 29.499 -12.5s12.5 -18.5 12.5 -30.5zM306 778c0 -12 -4 -22.167 -12 -30.5s-18.333 -12.5 -31 -12.5c-11.333 0 -21.166 4.16699 -29.499 12.5s-12.5 18.5 -12.5 30.5s4.16699 22.167 12.5 30.5s18.166 12.5 29.499 12.5
c12.667 0 23 -4.16699 31 -12.5s12 -18.5 12 -30.5z" />
    <glyph glyph-name="afii10065.var.accented" unicode="&#x430;`" horiz-adv-x="349" 
d="M302 0l-83.001 -0.000976562v57c-9.33301 -21.333 -20 -37.333 -32 -48s-28.667 -16 -50 -16c-16.667 0 -31.5 3.83301 -44.5 11.5s-23.167 19 -30.5 34s-13.333 29.667 -18 44s-8 32 -10 53s-3.16699 37.5 -3.5 49.5s-0.5 26.667 -0.5 44s0.333008 31.833 1 43.5
s1.83398 27.5 3.50098 47.5s5 36.833 10 50.5s11.167 27.334 18.5 41.001s17.5 24.167 30.5 31.5s27.833 11 44.5 11c34 0 61 -19.333 81 -58v51h83v-447zM221.999 198.999v48c0 88 -17.667 132 -53 132c-36 0 -54 -41.667 -54 -125v-61c0 -84 18 -126 54 -126
c35.333 0 53 44 53 132zM129.999 540.999l86 129l68 -42l-107 -115z" />
    <glyph glyph-name="afii10070.var.accented" unicode="&#x435;`" horiz-adv-x="326" 
d="M299 207h-188.001c0 -95.333 19 -143 57 -143c34 0 51 29 51 87h77c-1.33301 -39.333 -7 -69.333 -17 -90c-21.333 -45.333 -58.666 -68 -111.999 -68c-24 0 -44.833 5 -62.5 15s-31.167 22.333 -40.5 37s-16.666 33.167 -21.999 55.5s-8.66602 42.333 -9.99902 60
s-2 38.167 -2 61.5c0 28.667 1.33301 54.167 4 76.5s8.16699 46.5 16.5 72.5s22.166 46.333 41.499 61s43.666 22 72.999 22c24 0 44.667 -5.83301 62 -17.5s30.5 -25.667 39.5 -42s16.167 -36.833 21.5 -61.5s8.5 -46 9.5 -64s1.5 -38.667 1.5 -62zM110.999 267h104
c-2.66699 49.333 -8.66699 81.333 -18 96c-8 14 -19.333 21 -34 21c-30.667 0 -48 -36.667 -52 -110v-4v-3zM118.999 541l86 129l68 -42l-107 -115z" />
    <glyph glyph-name="afii10074.var.accented" unicode="&#x438;`" horiz-adv-x="370" 
d="M47 447h82v-223c0 -16 -1 -43 -3 -81c4 16.667 12.333 41.667 25 75l92 229h80v-447h-82v222c0 26.667 1 53 3 79c-6 -24.667 -15 -52 -27 -82l-90 -219h-80v447zM141 541l86 129l68 -42l-107 -115z" />
    <glyph glyph-name="afii10080.var.accented" unicode="&#x43e;`" horiz-adv-x="341" 
d="M225 192v59c0 60.667 -8.33301 99.334 -25 116.001c-8 8 -17.333 12 -28 12s-20 -4 -28 -12c-16.667 -16.667 -25 -55.334 -25 -116.001v-59c0 -56.667 8.33301 -93.334 25 -110.001c8 -8 17.333 -12 28 -12s20 4 28 12c16.667 16.667 25 53.334 25 110.001zM311 223
c0 -97.333 -18.333 -163.333 -55 -198c-22 -21.333 -50.333 -32 -85 -32c-35.333 0 -64 10.667 -86 32c-36.667 34.667 -55 100.667 -55 198c0 98 18.333 164.333 55 199c22 21.333 50.667 32 86 32c34.667 0 63 -10.667 85 -32c36.667 -34.667 55 -101 55 -199zM126 541
l86 129l68 -42l-107 -115z" />
    <glyph glyph-name="afii10085.var.accented" unicode="&#x443;`" horiz-adv-x="326" 
d="M323 447l-185 -635h-87l71 224l-119 411h94l65 -312l77 312h84zM119 541l86 129l68 -42l-107 -115z" />
    <glyph glyph-name="afii10093.var.accented" unicode="&#x44b;`" horiz-adv-x="460" 
d="M413 0h-82v447h82v-447zM129 447v-171h14c54.667 0 95 -13.333 121 -40c23.333 -23.333 35 -57.333 35 -102c0 -45.333 -12 -79.333 -36 -102c-22.667 -21.333 -57.667 -32 -105 -32h-111v447h82zM129 70l20 -0.000976562c23.333 0 40 4.66699 50 14
c10.667 10.667 16 27.334 16 50.001c0 24 -6 42 -18 54s-31.333 18 -58 18h-10v-136zM186 540.999l86 129l68 -42l-107 -115z" />
    <glyph glyph-name="afii10095.var.accented" unicode="&#x44d;`" horiz-adv-x="297" 
d="M36 15l-0.00390625 87.001c7.33301 -8.66699 15.333 -15.667 24 -21c10.667 -6.66699 24 -10 40 -10c18.667 0 33.667 5.33301 45 16c21.333 20 32 55 32 105h-109v74h108c-1.33301 41.333 -11.666 71.666 -30.999 90.999c-12 12 -27.333 18 -46 18
c-14 0 -27.667 -4.33301 -41 -13c-7.33301 -5.33301 -14.666 -12.333 -21.999 -21v89c20.667 16 47.334 24 80.001 24c40 0 72 -12.333 96 -37c36.667 -38 55 -100 55 -186c0 -98 -19.333 -166 -58 -204c-23.333 -22.667 -54.666 -34 -93.999 -34
c-32.667 0 -59 7.33301 -79 22zM73.9961 541.001l86 129l68 -42l-107 -115z" />
    <glyph glyph-name="afii10096.var.accented" unicode="&#x44e;`" horiz-adv-x="492" 
d="M376 192v58.999c0 60.667 -8.33301 99.334 -25 116.001c-8 8 -17.333 12 -28 12s-20 -4 -28 -12c-16.667 -16.667 -25 -55.334 -25 -116.001v-59c0 -56 8.33301 -92.667 25 -110c6.66699 -8 16 -12 28 -12c10.667 0 20 4 28 12c16.667 16.667 25 53.334 25 110.001z
M462 222.999c0 -96.667 -18.333 -162.668 -55 -198.001c-22.667 -21.333 -52 -32 -88 -32c-34.667 0 -62.667 10.667 -84 32c-34 34 -51 91 -51 171h-55v-196h-82v447h82v-177h57c0 68.667 17 119.334 51 152.001c22 21.333 50 32 84 32c35.333 0 64 -10.667 86 -32
c36.667 -34.667 55 -101 55 -199zM202 540.998l86 129l68 -42l-107 -115z" />
    <glyph glyph-name="afii10097.var.accented" unicode="&#x44f;`" horiz-adv-x="323" 
d="M20 0l87.999 179c-24 4.66699 -43.667 16 -59 34c-16.667 20 -25 48.333 -25 85c0 48 12.333 85 37 111c24.667 25.333 64.334 38 119.001 38h96v-447h-82v183l-83 -183h-91zM193.999 236l-0.000976562 139h-18c-22 0 -38.333 -5.33301 -49 -16
c-12.667 -11.333 -19 -30 -19 -56c0 -24 6.33301 -41.333 19 -52c12.667 -10 29.334 -15 50.001 -15h17zM116.998 541l86 129l68 -42l-107 -115z" />
    <glyph glyph-name="afii10071.var.accented" unicode="&#x451;`" horiz-adv-x="326" 
d="M299 207h-188.001c0 -95.333 19 -143 57 -143c34 0 51 29 51 87h77c-1.33301 -39.333 -7 -69.333 -17 -90c-21.333 -45.333 -58.666 -68 -111.999 -68c-24 0 -44.833 5 -62.5 15s-31.167 22.333 -40.5 37s-16.666 33.167 -21.999 55.5s-8.66602 42.333 -9.99902 60
s-2 38.167 -2 61.5c0 28.667 1.33301 54.167 4 76.5s8.16699 46.5 16.5 72.5s22.166 46.333 41.499 61s43.666 22 72.999 22c24 0 44.667 -5.83301 62 -17.5s30.5 -25.667 39.5 -42s16.167 -36.833 21.5 -61.5s8.5 -46 9.5 -64s1.5 -38.667 1.5 -62zM110.999 267h104
c-2.66699 49.333 -8.66699 81.333 -18 96c-8 14 -19.333 21 -34 21c-30.667 0 -48 -36.667 -52 -110v-4v-3zM111.999 541l80 129l50 -34l-101 -115zM109.999 573c0 -11.333 -3.83301 -20.833 -11.5 -28.5s-17.167 -11.5 -28.5 -11.5c-10.667 0 -20 3.83301 -28 11.5
s-12 17.167 -12 28.5s4 20.833 12 28.5s17.333 11.5 28 11.5c11.333 0 20.833 -3.83301 28.5 -11.5s11.5 -17.167 11.5 -28.5zM298.999 573c0 -11.333 -3.83301 -20.833 -11.5 -28.5s-17.167 -11.5 -28.5 -11.5s-20.833 3.83301 -28.5 11.5s-11.5 17.167 -11.5 28.5
s3.83301 20.833 11.5 28.5s17.167 11.5 28.5 11.5s20.833 -3.83301 28.5 -11.5s11.5 -17.167 11.5 -28.5z" />
    <glyph glyph-name="fi" unicode="fi" horiz-adv-x="373" 
d="M213 728v-86.999c-13.333 7.33301 -25 11 -35 11c-10.667 0 -19 -3 -25 -9s-9.5 -12.167 -10.5 -18.5s-1.83301 -15.5 -2.5 -27.5c0 -3.33301 -0.166992 -8.66602 -0.5 -15.999s-0.5 -13 -0.5 -17v-117h70v-66h-70v-381h-82v381h-42v66h42v154
c0 21.333 1 39.166 3 53.499s6.33301 28.666 13 42.999s17 25 31 32s31.667 10.5 53 10.5c17.333 0 36 -4 56 -12zM337 581.001c0 -15.333 -5.5 -28.5 -16.5 -39.5s-23.833 -16.5 -38.5 -16.5c-15.333 0 -28.5 5.5 -39.5 16.5s-16.5 24.167 -16.5 39.5s5.5 28.5 16.5 39.5
s24.167 16.5 39.5 16.5c14.667 0 27.5 -5.5 38.5 -16.5s16.5 -24.167 16.5 -39.5zM326 0.000976562h-82v447h82v-447z" />
    <glyph glyph-name="fl" unicode="fl" horiz-adv-x="373" 
d="M213 728v-86.999c-13.333 7.33301 -25 11 -35 11c-10.667 0 -19 -3 -25 -9s-9.5 -12.167 -10.5 -18.5s-1.83301 -15.5 -2.5 -27.5c0 -3.33301 -0.166992 -8.66602 -0.5 -15.999s-0.5 -13 -0.5 -17v-117h70v-66h-70v-381h-82v381h-42v66h42v154
c0 21.333 1 39.166 3 53.499s6.33301 28.666 13 42.999s17 25 31 32s31.667 10.5 53 10.5c17.333 0 36 -4 56 -12zM326 0.000976562h-82v729h82v-729z" />
    <glyph glyph-name=".notdef" horiz-adv-x="233" 
 />
    <glyph glyph-name="space" unicode=" " horiz-adv-x="233" 
 />
    <glyph glyph-name="exclam" unicode="!" horiz-adv-x="246" 
d="M167 180h-87v487h87v-487zM176 47c0 -15.333 -5.16699 -28.168 -15.5 -38.501s-22.833 -15.5 -37.5 -15.5s-27.167 5.33301 -37.5 16s-15.5 23.334 -15.5 38.001s5.16699 27.167 15.5 37.5s22.833 15.5 37.5 15.5s27.167 -5.16699 37.5 -15.5s15.5 -22.833 15.5 -37.5z
" />
    <glyph glyph-name="quotedbl" unicode="&#x22;" horiz-adv-x="342" 
d="M290 667l-14 -268h-61l-14 268h89zM141 667l-15 -268h-60l-15 268h90z" />
    <glyph glyph-name="numbersign" unicode="#" horiz-adv-x="600" 
d="M581 477l-11 -74h-107l-19 -126h108l-11 -74h-109l-31 -203h-84l31 203h-127l-31 -203h-83l31 203h-110l12 74h110l19 126h-110l12 74h109l30 190h83l-30 -190h127l30 190h84l-30 -190h107zM379 403h-127l-19 -126h127z" />
    <glyph glyph-name="dollar" unicode="$" horiz-adv-x="380" 
d="M339 575l-68.999 -32.998c-10.667 41.333 -36.334 62 -77.001 62c-25.333 0 -44 -8.66699 -56 -26s-18 -39.333 -18 -66c0 -27.333 6.33301 -50 19 -68c11.333 -16 29.5 -32 54.5 -48l75 -49.5c25 -17 43.167 -35.167 54.5 -54.5c16 -26.667 24 -62.334 24 -107.001
c0 -56 -11 -101 -33 -135c-16.667 -27.333 -47.667 -46.333 -93 -57v-84h-60v84c-32 4.66699 -57 14.5 -75 29.5s-33 39.833 -45 74.5l73 35c7.33301 -21.333 16.5 -36.5 27.5 -45.5s27.5 -13.5 49.5 -13.5c47.333 0 71 33.333 71 100c0 31.333 -7 56.333 -21 75
c-9.33301 12 -30.666 28.333 -63.999 49c-34.667 22 -60.834 40.5 -78.501 55.5s-32.5 35.167 -44.5 60.5s-18 55.666 -18 90.999c0 46 10.833 85.167 32.5 117.5s52.5 50.166 92.5 53.499v76h60v-76c62 -7.33301 101.667 -40.666 119 -99.999z" />
    <glyph glyph-name="percent" unicode="%" horiz-adv-x="515" 
d="M223 497c0 -22.667 -1 -42.501 -3 -59.501s-6.16699 -34.5 -12.5 -52.5s-16.333 -31.833 -30 -41.5s-30.834 -14.5 -51.501 -14.5s-37.667 4.83301 -51 14.5s-22.833 23.667 -28.5 42s-9.5 35.833 -11.5 52.5s-3 36.334 -3 59.001c0 19.333 0.5 36 1.5 50
s3.33301 29.333 7 46s8.66699 30.334 15 41.001s15.5 19.5 27.5 26.5s26.333 10.5 43 10.5c20.667 0 37.834 -4.83301 51.501 -14.5s23.667 -23.667 30 -42s10.5 -36.333 12.5 -54s3 -38.834 3 -63.501zM164 475.999v49c0 61.333 -12 92 -36 92s-36 -27.333 -36 -82v-65
c0 -58 12 -87 36 -87s36 31 36 93zM427 666.999l-291 -667h-55l291 667h55zM483 162.999c0 -22.667 -1 -42.501 -3 -59.501s-6.16699 -34.5 -12.5 -52.5s-16.333 -31.833 -30 -41.5s-30.834 -14.5 -51.501 -14.5s-37.667 4.83301 -51 14.5s-22.833 23.667 -28.5 42
s-9.5 35.833 -11.5 52.5s-3 36.334 -3 59.001c0 19.333 0.5 36 1.5 50s3.33301 29.333 7 46s8.66699 30.334 15 41.001s15.5 19.5 27.5 26.5s26.333 10.5 43 10.5c20.667 0 37.834 -4.83301 51.501 -14.5s23.667 -23.667 30 -42s10.5 -36.333 12.5 -54s3 -38.834 3 -63.501z
M424 141.998v49c0 61.333 -12 92 -36 92s-36 -27.333 -36 -82v-65c0 -58 12 -87 36 -87s36 31 36 93z" />
    <glyph glyph-name="ampersand" unicode="&#x26;" horiz-adv-x="446" 
d="M426 0l-88.998 0.00292969l-31 52c-14 -15.333 -29.333 -28 -46 -38c-19.333 -12 -42 -18 -68 -18c-41.333 0 -75.333 13.667 -102 41c-33.333 34.667 -50 80 -50 136c0 37.333 11 73.666 33 108.999c16.667 27.333 39.334 53.333 68.001 78
c-14.667 21.333 -28 47.666 -40 78.999c-10.667 32 -16 63.333 -16 94c0 43.333 12.333 78 37 104c23.333 25.333 53.333 38 90 38c35.333 0 64.666 -11.667 87.999 -35c23.333 -25.333 35 -58 35 -98c0 -38 -9.66699 -74.333 -29 -109
c-18.667 -33.333 -43.334 -62 -74.001 -86l92 -169c20.667 24.667 39 50.667 55 78l44 -60c-18.667 -30.667 -39.334 -58.334 -62.001 -83.001zM199.002 408.003c22 20.667 38.666 44.332 49.999 70.999c9.33301 22 14 43.667 14 65c0 22.667 -5 39.334 -15 50.001
c-7.33301 8.66699 -18 13 -32 13c-13.333 0 -24.666 -5 -33.999 -15c-12.667 -14 -19 -34 -19 -60c0 -18.667 3.33301 -38.667 10 -60c6 -22 14.667 -43.333 26 -64zM269.001 113.001l-93 179c-34.667 -32.667 -52 -72.334 -52 -119.001
c0 -27.333 6.33301 -50.666 19 -69.999c14.667 -21.333 33.667 -32 57 -32c24.667 0 47.667 14 69 42z" />
    <glyph glyph-name="quotesingle" unicode="'" horiz-adv-x="192" 
d="M141 667l-15 -268h-60l-15 268h90z" />
    <glyph glyph-name="parenleft" unicode="(" horiz-adv-x="266" 
d="M226 -171l-87 -23.001c-58.667 168 -88 321.667 -88 461c0 153.333 29.333 311 88 473l87 -21c-54.667 -175.333 -82 -321.666 -82 -438.999c0 -124.667 27.333 -275 82 -451z" />
    <glyph glyph-name="parenright" unicode=")" horiz-adv-x="265" 
d="M127 -194l-87 23.001c54.667 176 82 326.333 82 451c0 117.333 -27.333 263.666 -82 438.999l87 21c58.667 -162 88 -319.667 88 -473c0 -139.333 -29.333 -293 -88 -461z" />
    <glyph glyph-name="asterisk" unicode="*" horiz-adv-x="387" 
d="M339 603l-107 -26l72 -89l-47 -32l-60 93l-64 -95l-45 31l70 90l-110 28l18 54l105 -38l-4 110h56l-3 -111l101 40z" />
    <glyph glyph-name="plus" unicode="+" 
d="M467 296h-176v-168h-82v168h-176v76h176v168h82v-168h176v-76z" />
    <glyph glyph-name="comma" unicode="," horiz-adv-x="180" 
d="M137 72l-78 -215l-46 13l52 223z" />
    <glyph glyph-name="hyphen" unicode="-" horiz-adv-x="255" 
d="M205 295v-78h-155v78h155z" />
    <glyph glyph-name="period" unicode="." horiz-adv-x="187" 
d="M147 47c0 -15.333 -5.16895 -28.168 -15.502 -38.501s-23.166 -15.5 -38.499 -15.5c-14.667 0 -27.167 5.33301 -37.5 16s-15.5 23.334 -15.5 38.001s5.16699 27.167 15.5 37.5s22.833 15.5 37.5 15.5s27.334 -5.16699 38.001 -15.5s16 -22.833 16 -37.5z" />
    <glyph glyph-name="slash" unicode="/" horiz-adv-x="397" 
d="M410 729l-396 -912h-71l397 912h70z" />
    <glyph glyph-name="zero" unicode="0" horiz-adv-x="380" 
d="M341 363c0 -46.667 -0.169922 -80.501 -0.50293 -101.501s-3 -51.5 -8 -91.5s-12.833 -72 -23.5 -96c-23.333 -54.667 -63 -82 -119 -82c-20.667 0 -39.167 4.33301 -55.5 13s-29.666 19.167 -39.999 31.5s-19.166 28.5 -26.499 48.5s-12.833 38.5 -16.5 55.5
s-6.5 37.667 -8.5 62s-3.16699 43.333 -3.5 57s-0.5 30.834 -0.5 51.501v20v57.5c0 14.333 1 35 3 62s4.66699 49.167 8 66.5s8.66602 37 15.999 59s16.333 39.5 27 52.5s24.167 24 40.5 33s35.166 13.5 56.499 13.5c23.333 0 44 -5 62 -15s32.333 -24.5 43 -43.5
s19.334 -38 26.001 -57s11.334 -42.333 14.001 -70s4.33398 -49.667 5.00098 -66s1 -36.5 1 -60.5zM248.997 331.999c0 43.333 -0.666992 76 -2 98c-2.66699 110 -22 165 -58 165s-55.333 -55 -58 -165c-1.33301 -22 -2 -54.667 -2 -98c0 -46 0.666992 -80.333 2 -103
c2.66699 -106 22 -159 58 -159s55.333 53 58 159c1.33301 22.667 2 57 2 103z" />
    <glyph glyph-name="one" unicode="1" horiz-adv-x="380" 
d="M238 0h-86v590h-66v77h152v-667z" />
    <glyph glyph-name="two" unicode="2" horiz-adv-x="380" 
d="M49 450l0.00195312 26.001c0 31.333 1.5 57.333 4.5 78s9.33301 41 19 61s24.667 35 45 45s46.166 15 77.499 15c96.667 0 145 -54.333 145 -163c0 -76 -36.667 -182 -110 -318c-36.667 -67.333 -57.334 -106.333 -62.001 -117h165v-77h-293c8.66699 19.333 40 85 94 197
c53.333 109.333 86.666 185.333 99.999 228c10.667 34.667 16 64.667 16 90c0 22 -4.5 41.167 -13.5 57.5s-23.833 24.5 -44.5 24.5c-9.33301 0 -17.5 -1.83301 -24.5 -5.5s-12.5 -9.33398 -16.5 -17.001s-7.16699 -14.667 -9.5 -21s-3.83301 -15.666 -4.5 -27.999
s-1.16699 -21.333 -1.5 -27s-0.166016 -14.834 0.500977 -27.501s1 -19.667 1 -21h-88z" />
    <glyph glyph-name="three" unicode="3" horiz-adv-x="380" 
d="M56 488l0.00292969 15.999c0 54.667 9.16699 96.834 27.5 126.501s53.166 44.5 104.499 44.5c52.667 0 89.334 -15.167 110.001 -45.5s31 -73.166 31 -128.499c0 -56.667 -8 -97 -24 -121c-10 -14.667 -26.667 -26.667 -50 -36c28.667 -9.33301 49 -24 61 -44
c14 -24 21 -61.667 21 -113c0 -62 -11.667 -110 -35 -144s-64.333 -51 -123 -51c-90.667 0 -136 52.667 -136 158c0 7.33301 0.333008 13 1 17h84c0 -2 -0.166992 -5.33301 -0.5 -10s-0.5 -8.33398 -0.5 -11.001c0 -20 4.66699 -37.5 14 -52.5s23.333 -22.5 42 -22.5
c14.667 0 26.667 4 36 12s15.833 19.667 19.5 35s5.83398 28 6.50098 38s1 23.333 1 40c0 35.333 -5.33301 63.166 -16 83.499s-32 30.5 -64 30.5c-4.66699 0 -12.334 -0.666992 -23.001 -2v78c43.333 0 71.166 7.33301 83.499 22s18.5 44.334 18.5 89.001
c0 66.667 -17.667 100 -53 100c-12 0 -21.833 -3.16699 -29.5 -9.5s-12.834 -15.833 -15.501 -28.5s-4.33398 -23.167 -5.00098 -31.5s-1 -19.5 -1 -33.5v-6h-85z" />
    <glyph glyph-name="four" unicode="4" horiz-adv-x="380" 
d="M341 169h-42v-169h-84v169h-182v76l182 422h84v-430h42v-68zM215 237v276l-117 -276h117z" />
    <glyph glyph-name="five" unicode="5" horiz-adv-x="380" 
d="M183 589l-22 -167c116 0 174 -63.667 174 -191c0 -66.667 -14.833 -123.167 -44.5 -169.5s-76.167 -69.5 -139.5 -69.5c-30 0 -65.333 9.33301 -106 28l22 79c30 -16 56 -24 78 -24c33.333 0 57.5 15.333 72.5 46s22.5 64.667 22.5 102c0 85.333 -36.667 128 -110 128
c-16.667 0 -34.667 -2.66699 -54 -8l38 324h212v-78h-143z" />
    <glyph glyph-name="six" unicode="6" horiz-adv-x="380" 
d="M182 667l95.0029 -0.000976562c-8.66699 -20 -29.334 -63 -62.001 -129c-20.667 -42.667 -43.334 -95.334 -68.001 -158.001c24 20 48 30 72 30c41.333 0 72 -20 92 -60c14.667 -29.333 22 -80.333 22 -153c0 -23.333 -0.833008 -43.666 -2.5 -60.999
s-5.33398 -35.5 -11.001 -54.5s-13.5 -34.667 -23.5 -47s-23.833 -22.5 -41.5 -30.5s-38.5 -12 -62.5 -12c-26 0 -48.167 4.83301 -66.5 14.5s-32.5 21.334 -42.5 35.001s-17.833 31.5 -23.5 53.5s-9.16699 42.167 -10.5 60.5s-2 39.833 -2 64.5
c0 54.667 6.66699 109.167 20 163.5s28 99.5 44 135.5s39.667 85.333 71 148zM247.003 198.999c0 46 -4 79 -12 99c-8.66699 20 -23.334 30 -44.001 30c-21.333 0 -35.666 -10 -42.999 -30c-8.66699 -22.667 -13 -55 -13 -97c0 -87.333 18.667 -131 56 -131s56 43 56 129z
" />
    <glyph glyph-name="seven" unicode="7" horiz-adv-x="380" 
d="M348 667l-202 -667h-96l185 591h-185v76h298z" />
    <glyph glyph-name="eight" unicode="8" horiz-adv-x="380" 
d="M334 187c0 -130 -48.001 -194.998 -144.001 -194.998c-30 0 -55 5.66699 -75 17s-34.667 27.5 -44 48.5s-15.833 42.5 -19.5 64.5s-5.5 47.333 -5.5 76c0 60 9.33301 103.333 28 130c11.333 15.333 28.333 26.666 51 33.999c-24.667 10 -42 24.333 -52 43
c-14 25.333 -21 60.666 -21 105.999c0 58 12.667 101.333 38 130c20.667 22.667 55.667 34 105 34s83.833 -14.5 103.5 -43.5s29.5 -69.5 29.5 -121.5c0 -44.667 -7 -79.667 -21 -105c-10 -18.667 -27 -33 -51 -43c22.667 -8 39.334 -19.333 50.001 -34
c18.667 -25.333 28 -72.333 28 -141zM238.999 504.002c0 62 -16.333 93 -49 93s-49 -31 -49 -93c0 -68.667 16.333 -103 49 -103s49 34.333 49 103zM244.999 196.002c0 78 -18.335 117.001 -55.002 117.001c-13.333 0 -24.166 -4.33301 -32.499 -13
s-13.833 -21.5 -16.5 -38.5s-4.33398 -29.833 -5.00098 -38.5s-1 -21.334 -1 -38.001c0 -76 18.333 -114 55 -114c6.66699 0 12.834 1.16699 18.501 3.5s10.334 6 14.001 11l10 14c3 4.33301 5.16699 10.833 6.5 19.5s2.5 15.167 3.5 19.5s1.66699 11.5 2 21.5
s0.5 16.167 0.5 18.5v17.5z" />
    <glyph glyph-name="nine" unicode="9" horiz-adv-x="380" 
d="M195 0l-95.9971 -0.00292969l42.5 87l50.5 103.5c14.667 31 27.667 60.833 39 89.5c-22 -18 -44.667 -27 -68 -27c-37.333 0 -66.666 16.333 -87.999 49c-18.667 29.333 -28 79 -28 149c0 24.667 0.666992 45.834 2 63.501s4.66602 37.334 9.99902 59.001
s13 39.334 23 53.001s24.167 25.167 42.5 34.5s40.166 14 65.499 14s47.166 -4.83301 65.499 -14.5s32.5 -21.5 42.5 -35.5s17.667 -32 23 -54s8.66602 -42 9.99902 -60s2 -39.333 2 -64c0 -64 -7.66699 -122.833 -23 -176.5s-39.333 -114.167 -72 -181.5
c-18.667 -40 -33 -69.667 -43 -89zM245.003 464.997c0 85.333 -18.667 127.999 -56 127.999c-7.33301 0 -13.833 -1.33301 -19.5 -4s-10.334 -6.83398 -14.001 -12.501s-6.83398 -11 -9.50098 -16s-4.83398 -12.167 -6.50098 -21.5s-3 -16.5 -4 -21.5s-1.66699 -13 -2 -24
s-0.5 -17.667 -0.5 -20v-17.5c0 -82 18.667 -123 56 -123c7.33301 0 13.833 1.16699 19.5 3.5s10.334 6.33301 14.001 12s6.83398 10.834 9.50098 15.501s4.83398 11.5 6.50098 20.5s3 15.833 4 20.5s1.66699 12.334 2 23.001s0.5 17.167 0.5 19.5v17.5z" />
    <glyph glyph-name="colon" unicode=":" horiz-adv-x="187" 
d="M147 400c0 -14.667 -5.33301 -27.167 -16 -37.5s-23.334 -15.5 -38.001 -15.5s-27.167 5.16699 -37.5 15.5s-15.5 22.833 -15.5 37.5s5.16699 27.167 15.5 37.5s22.833 15.5 37.5 15.5s27.334 -5.16699 38.001 -15.5s16 -22.833 16 -37.5zM147 47
c0 -15.333 -5.16895 -28.168 -15.502 -38.501s-23.166 -15.5 -38.499 -15.5c-14.667 0 -27.167 5.33301 -37.5 16s-15.5 23.334 -15.5 38.001s5.16699 27.167 15.5 37.5s22.833 15.5 37.5 15.5s27.334 -5.16699 38.001 -15.5s16 -22.833 16 -37.5z" />
    <glyph glyph-name="semicolon" unicode=";" horiz-adv-x="180" 
d="M142 400c0 -14.667 -5.16699 -27.167 -15.5 -37.5s-23.166 -15.5 -38.499 -15.5c-14.667 0 -27.167 5.16699 -37.5 15.5s-15.5 22.833 -15.5 37.5s5.16699 27.167 15.5 37.5s22.833 15.5 37.5 15.5c15.333 0 28.166 -5.16699 38.499 -15.5s15.5 -22.833 15.5 -37.5z
M137 72l-78 -215l-46 13l52 223z" />
    <glyph glyph-name="less" unicode="&#x3c;" 
d="M467 90l-434 206v70l434 206v-82l-347 -159l346 -160z" />
    <glyph glyph-name="equal" unicode="=" 
d="M467 383h-434v72h434v-72zM467 228h-434v72h434v-72z" />
    <glyph glyph-name="greater" unicode="&#x3e;" 
d="M467 295l-434 -205v81l347 160l-346 160l-1 81l434 -206v-71z" />
    <glyph glyph-name="question" unicode="?" horiz-adv-x="329" 
d="M40 502v25.0029c0 50 8.66699 87.167 26 111.5s50 36.5 98 36.5c28 0 51 -5.5 69 -16.5s30.833 -27.333 38.5 -49s12.5 -41.834 14.5 -60.501s3 -42.334 3 -71.001c0 -37.333 -2 -68 -6 -92c-4 -28.667 -12.333 -50.334 -25 -65.001s-33 -22.667 -61 -24v-117h-78v176
c2 0 5.16699 -0.166992 9.5 -0.5s7.5 -0.5 9.5 -0.5c28 0 46.5 8.5 55.5 25.5s13.5 40.5 13.5 70.5c0 4.66699 -0.166992 11.667 -0.5 21s-0.5 16 -0.5 20c0 73.333 -16 110 -48 110c-26 0 -39 -23.667 -39 -71c0 -4 0.166992 -9.16699 0.5 -15.5s0.5 -10.833 0.5 -13.5h-80
zM211 47.0029c0 -15.333 -5.16895 -28.168 -15.502 -38.501s-23.166 -15.5 -38.499 -15.5c-14.667 0 -27.167 5.33301 -37.5 16s-15.5 23.334 -15.5 38.001s5.16699 27.167 15.5 37.5s22.833 15.5 37.5 15.5s27.334 -5.16699 38.001 -15.5s16 -22.833 16 -37.5z" />
    <glyph glyph-name="at" unicode="@" horiz-adv-x="733" 
d="M594 84l16.002 -52.002c-66.667 -30 -140.334 -45 -221.001 -45c-102.667 0 -187.667 31.667 -255 95s-101 146 -101 248c0 98 33.5 180.167 100.5 246.5s149.5 99.5 247.5 99.5c88 0 162.667 -27.5 224 -82.5s92 -125.833 92 -212.5c0 -32.667 -5 -64 -15 -94
c-12 -37.333 -31.167 -70.166 -57.5 -98.499s-56.833 -42.5 -91.5 -42.5c-19.333 0 -35.833 5.83301 -49.5 17.5s-21.834 27.167 -24.501 46.5c-30.667 -46 -72 -69 -124 -69c-42.667 0 -76.667 15.833 -102 47.5s-38 69.167 -38 112.5c0 52 16.333 98.667 49 140
s74.334 62 125.001 62c52 0 88.333 -23.667 109 -71l11 59h59l-41 -207c-4 -20 -6 -35 -6 -45c0 -12 2.83301 -22.333 8.5 -31s14.5 -13 26.5 -13c22 0 41.667 11.333 59 34s29.666 47 36.999 73c8 24.667 12 50.667 12 78c0 72.667 -25 131.334 -75 176.001
s-112 67 -186 67c-82.667 0 -152.167 -28.333 -208.5 -85s-84.5 -126.334 -84.5 -209.001c0 -81.333 26.667 -149.666 80 -204.999s126 -83 218 -83c75.333 0 144 14.333 206 43zM458.002 349.998c0 26.667 -7.16699 48.834 -21.5 66.501s-34.5 26.5 -60.5 26.5
c-34 0 -61.833 -14.5 -83.5 -43.5s-32.5 -61.167 -32.5 -96.5c0 -28.667 7.83301 -53 23.5 -73s37.167 -30 64.5 -30c34.667 0 61.667 15.667 81 47s29 65.666 29 102.999z" />
    <glyph glyph-name="A" unicode="A" horiz-adv-x="360" 
d="M359 0h-89l-25 130h-132l-25 -130h-87l145 667h71zM126 199h106c-26.667 148.667 -44 261.334 -52 338.001c-6.66699 -68.667 -24.667 -181.334 -54 -338.001z" />
    <glyph glyph-name="B" unicode="B" horiz-adv-x="364" 
d="M51 667l122 -0.000976562c95.333 0 143 -59.333 143 -178c0 -47.333 -8.33301 -83.666 -25 -108.999c-11.333 -18 -31 -31.667 -59 -41c27.333 -10 47 -21.667 59 -35c23.333 -24.667 35 -65 35 -121c0 -122 -52.333 -183 -157 -183h-118v667zM136 372.999h6.00098
c35.333 0 58.666 9.83301 69.999 29.5s17 48.5 17 86.5c0 70 -26 105 -78 105h-15v-221zM136.001 301.999v-225.001c26 0 44.667 2.66699 56 8c27.333 12.667 41 46.334 41 101.001c0 40 -6.5 69.333 -19.5 88s-38.833 28 -77.5 28z" />
    <glyph glyph-name="C" unicode="C" horiz-adv-x="337" 
d="M313 92l-0.00195312 -81.999c-21.333 -12.667 -45.666 -19 -72.999 -19c-134.667 0 -202 110.333 -202 331c0 236 66.667 354 200 354c26 0 51 -6.66699 75 -20v-81c-20.667 11.333 -40 17 -58 17c-19.333 0 -36.333 -4.33301 -51 -13s-26.167 -21.334 -34.5 -38.001
s-15.166 -33 -20.499 -49s-9 -35.833 -11 -59.5s-3.33301 -42.167 -4 -55.5s-1 -30 -1 -50c0 -165.333 42.333 -248 127 -248c18 0 35.667 4.33301 53 13z" />
    <glyph glyph-name="D" unicode="D" horiz-adv-x="411" 
d="M51 667l111.001 -0.000976562c35.333 0 64.333 -4 87 -12s44 -24.333 64 -49c18 -22 31.667 -51.333 41 -88s14.833 -68.334 16.5 -95.001s2.5 -59.667 2.5 -99c0 -135.333 -21.333 -225.666 -64 -270.999c-14.667 -15.333 -33.334 -27.166 -56.001 -35.499
s-43 -13.333 -61 -15s-40.667 -2.5 -68 -2.5h-73v667zM141.001 77.999h3.99805c40.667 0 70.334 9.33301 89.001 28s31.334 49 38.001 91c4.66699 32 7 73.333 7 124c0 52 -2 95.333 -6 130c-6 45.333 -17.333 80 -34 104s-45.667 36 -87 36h-11v-513z" />
    <glyph glyph-name="E" unicode="E" horiz-adv-x="321" 
d="M290 0h-239v667h239v-76h-149v-212h132v-76h-132v-227h149v-76z" />
    <glyph glyph-name="F" unicode="F" horiz-adv-x="309" 
d="M291 591h-150v-211h136v-76h-136v-304h-90v667h240v-76z" />
    <glyph glyph-name="G" unicode="G" horiz-adv-x="412" 
d="M374 351v-26c0 -106 -6.33301 -181.333 -19 -226c-20 -72 -67 -108 -141 -108c-52.667 0 -91.167 15.667 -115.5 47s-41.166 75.333 -50.499 132c-6.66699 44 -10 97.333 -10 160c0 103.333 8 182 24 236c22 72.667 71.333 109 148 109c45.333 0 80 -11.167 104 -33.5
s42.667 -56.5 56 -102.5l-84 -35c-4 19.333 -7.83301 34.5 -11.5 45.5s-11.167 21.5 -22.5 31.5s-25.666 15 -42.999 15c-23.333 0 -41.333 -11.667 -54 -35c-16 -30 -24 -106 -24 -228c0 -78.667 4 -139.667 12 -183c4.66699 -24 11.834 -42.5 21.501 -55.5
s25.5 -19.5 47.5 -19.5c17.333 0 31.666 4.83301 42.999 14.5s19.166 23.667 23.499 42s7.16602 34 8.49902 47s2 28.833 2 47.5v49h-78v76h163z" />
    <glyph glyph-name="H" unicode="H" horiz-adv-x="414" 
d="M363 0h-90v330h-132v-330h-90v667h90v-261h132v261h90v-667z" />
    <glyph glyph-name="I" unicode="I" horiz-adv-x="193" 
d="M141 0h-90v667h90v-667z" />
    <glyph glyph-name="J" unicode="J" horiz-adv-x="259" 
d="M207 667l0.000976562 -518c0 -34 -3.33301 -60.667 -10 -80c-18 -52 -58.667 -78 -122 -78c-29.333 0 -55 6 -77 18v90c26.667 -15.333 46.667 -23 60 -23c10 0 18.5 1.33301 25.5 4s12.667 7.16699 17 13.5s7.66602 12 9.99902 17s4 12.833 5 23.5s1.5 18 1.5 22v24v487
h90z" />
    <glyph glyph-name="K" unicode="K" horiz-adv-x="372" 
d="M367 0h-101l-125 327v-327h-90v667h90v-306l125 306h91l-135 -323z" />
    <glyph glyph-name="L" unicode="L" horiz-adv-x="293" 
d="M288 0h-237v667h90v-591h147v-76z" />
    <glyph glyph-name="M" unicode="M" horiz-adv-x="504" 
d="M482 0l-86.9951 0.00488281c-10 152 -15.667 244.333 -17 277c0 10 -0.666992 24.833 -2 44.5s-2 34.5 -2 44.5c-0.666992 11.333 -0.833984 21.666 -0.500977 30.999s0.333008 19.666 0 30.999s-1.16602 21.666 -2.49902 30.999c-6 -39.333 -34.333 -192.333 -85 -459
h-60c-4 20 -11.833 56.833 -23.5 110.5l-26 122c-5.66699 27.667 -12.334 63.334 -20.001 107.001s-13.834 83.5 -18.501 119.5l-26 -459h-84l55 667h77l58 -272c0.666992 -5.33301 2.5 -13.333 5.5 -24s4.83301 -18.667 5.5 -24c8.66699 -48 17 -102 25 -162
c0 1.33301 5 32.666 15 93.999c1.33301 8 3.16602 20.167 5.49902 36.5s4.16602 28.5 5.49902 36.5c1.33301 5.33301 3.16602 13.166 5.49902 23.499s3.83301 18.166 4.5 23.499l52 268h78z" />
    <glyph glyph-name="N" unicode="N" horiz-adv-x="413" 
d="M362 0l-84.002 -0.000976562l-110 331c-12 36 -20.333 63.333 -25 82c-2 8.66699 -5.33301 24.5 -10 47.5s-8.66699 40.5 -12 52.5c2 -14.667 4.66699 -48.334 8 -101.001c4.66699 -76 8.33398 -213.333 11.001 -412h-89v667h84l33 -96c18.667 -54 31 -90.667 37 -110
l29.5 -91.5c13.667 -41.667 24.834 -78.667 33.501 -111s17 -65.166 25 -98.499c-14 106.667 -21 191.334 -21 254.001v253h90v-667z" />
    <glyph glyph-name="O" unicode="O" horiz-adv-x="423" 
d="M385 321c0 -61.333 -3.33301 -113.667 -10 -157c-9.33301 -55.333 -25.833 -98 -49.5 -128s-61.167 -45 -112.5 -45c-62 0 -106.667 25 -134 75c-27.333 49.333 -41 143.666 -41 282.999c0 113.333 12 195 36 245c26 54 71.667 81 137 81c59.333 0 103 -23.667 131 -71
c28.667 -49.333 43 -143.666 43 -282.999zM291 345.999c0 83.333 -4.66699 144.999 -14 184.999c-9.33301 42 -31.333 63 -66 63c-22 0 -39.333 -9.33301 -52 -28c-18 -25.333 -27 -90 -27 -194c0 -103.333 3 -173.666 9 -210.999c10 -58 33.667 -87 71 -87
c29.333 0 50 16 62 48c11.333 32 17 106.667 17 224z" />
    <glyph glyph-name="P" unicode="P" horiz-adv-x="351" 
d="M51 667h118c42 0 74.667 -7 98 -21c44 -26.667 66 -81.667 66 -165c0 -73.333 -19.333 -125 -58 -155c-26 -20 -70.667 -30 -134 -30v-296h-90v667zM141 373h7.99902c34.667 0 58.334 8.66699 71.001 26s19 44 19 80c0 74.667 -28.667 112 -86 112h-12v-218z" />
    <glyph glyph-name="Q" unicode="Q" horiz-adv-x="423" 
d="M404 -10l-57.002 -40.999l-46 66c-26 -16 -54.667 -24 -86 -24c-62 0 -107 25.333 -135 76s-42 148.667 -42 294c0 24.667 0.166992 43.834 0.5 57.501s1.5 33.167 3.5 58.5s5 45.666 9 60.999s10.333 32.666 19 51.999s18.834 34.5 30.501 45.5s26.834 20.333 45.501 28
s39.667 11.5 63 11.5c61.333 0 105 -23 131 -69c30 -51.333 45 -147.333 45 -288c0 -120 -12.667 -203.333 -38 -250zM244.998 212.001l37.002 -53c6 38.667 9 91 9 157c0 103.333 -5 175.333 -15 216s-32.333 61 -67 61c-18 0 -32.833 -6.33301 -44.5 -19
s-19.5 -31 -23.5 -55s-6.5 -43.333 -7.5 -58s-1.5 -33.667 -1.5 -57v-11c0 -6.66699 -0.166992 -25 -0.5 -55s-0.333008 -51.333 0 -64s1.16602 -30.167 2.49902 -52.5s3.66602 -42.5 6.99902 -60.5c4.66699 -26 12 -46.833 22 -62.5s26.333 -23.5 49 -23.5
c13.333 0 25.333 4 36 12l-57 82z" />
    <glyph glyph-name="R" unicode="R" horiz-adv-x="373" 
d="M355 0l-92 0.000976562l-122 311v-311h-90v667h119c42.667 0 75 -8.33301 97 -25c38 -28.667 57 -78.334 57 -149.001c0 -24.667 -2.33301 -47.667 -7 -69s-14.667 -42 -30 -62s-35 -32.667 -59 -38zM141 593.001l-0.000976562 -222c30.667 0 52.334 5.33301 65.001 16
c20.667 17.333 31 47.333 31 90c0 38 -6 67.333 -18 88c-11.333 18.667 -32.333 28 -63 28h-15z" />
    <glyph glyph-name="S" unicode="S" horiz-adv-x="330" 
d="M274 653l-1 -88.001c-26 20 -50.333 30 -73 30c-24.667 0 -44.334 -8.66699 -59.001 -26s-22 -38.333 -22 -63c0 -22.667 6.33301 -44 19 -64s28.167 -38.667 46.5 -56l55 -54.5c18.333 -19 33.833 -42.5 46.5 -70.5s19 -59 19 -93
c0 -49.333 -13.833 -91.166 -41.5 -125.499s-65.5 -51.5 -113.5 -51.5c-37.333 0 -70 10.667 -98 32v89c31.333 -23.333 60.333 -35 87 -35c25.333 0 44.833 8.66699 58.5 26s20.5 39 20.5 65c0 25.333 -6.5 48.666 -19.5 69.999s-28.5 40.5 -46.5 57.5l-54.5 53
c-18.333 18.333 -34 40.833 -47 67.5s-19.5 56.334 -19.5 89.001c0 50 13 90.833 39 122.5s63.333 47.5 112 47.5c32.667 0 63.334 -7.33301 92.001 -22z" />
    <glyph glyph-name="T" unicode="T" horiz-adv-x="288" 
d="M290 588h-102v-588h-88v588h-102v79h292v-79z" />
    <glyph glyph-name="U" unicode="U" horiz-adv-x="409" 
d="M358 667l-0.00195312 -490.001c0 -63.333 -10.667 -110.166 -32 -140.499s-62.333 -45.5 -123 -45.5c-57.333 0 -97 15.667 -119 47s-33 76.666 -33 135.999v493h88v-490c0 -15.333 0.666992 -27.833 2 -37.5s4 -20 8 -31s10.833 -19.167 20.5 -24.5s21.834 -8 36.501 -8
c12.667 0 23.334 2.16699 32.001 6.5s15 9 19 14s7 13.167 9 24.5s3.16699 19.833 3.5 25.5s0.5 15.834 0.5 30.501v490h88z" />
    <glyph glyph-name="V" unicode="V" horiz-adv-x="327" 
d="M329 667l-131 -666.999h-71l-129 667h89c28 -172 48.333 -301.333 61 -388c8 -50.667 13.333 -88.667 16 -114c1.33301 18 6.33301 54 15 108c2 11.333 5.5 34.166 10.5 68.499s9.16699 60.833 12.5 79.5l43 246h84z" />
    <glyph glyph-name="W" unicode="W" horiz-adv-x="524" 
d="M523 667l-117.998 -667h-70c-1.33301 9.33301 -9 56.833 -23 142.5s-24.333 150.834 -31 195.501c-1.33301 7.33301 -3.16602 18.5 -5.49902 33.5s-3.83301 26.167 -4.5 33.5l-9 90c-2.66699 -41.333 -5.33398 -72.333 -8.00098 -93
c-9.33301 -71.333 -31 -205.333 -65 -402h-72l-116 667h87c32.667 -214.667 50.334 -333.334 53.001 -356.001c2 -18.667 4.5 -45 7.5 -79s5.16699 -56.333 6.5 -67c3.33301 39.333 8.16602 82.5 14.499 129.5s12.166 86.5 17.499 118.5l22 132.5l20 121.5h69
c40.667 -249.333 65 -415 73 -497c1.33301 22.667 4.66602 55 9.99902 97c4 32.667 22.667 166 56 400h86z" />
    <glyph glyph-name="X" unicode="X" horiz-adv-x="332" 
d="M334 0h-89.9971l-21.5 60l-23 64.5c-5.66699 16.333 -11.667 36.166 -18 59.499s-11.5 45 -15.5 65c-2 -20 -11 -54.333 -27 -103l-46 -146h-95l127 339l-119 328h87l20.5 -54.5l25 -67.5c6.33301 -17.333 13 -37.666 20 -60.999s11.5 -42.666 13.5 -57.999
c5.33301 24.667 11.666 49.5 18.999 74.5s17.166 56.167 29.499 93.5s20.166 61.666 23.499 72.999h90l-123 -328z" />
    <glyph glyph-name="Y" unicode="Y" horiz-adv-x="341" 
d="M343 667l-116 -380v-287h-90v287l-139 380h95l54 -179c15.333 -50.667 26.333 -94 33 -130c8 49.333 16.667 93.333 26 132l44 177h93z" />
    <glyph glyph-name="Z" unicode="Z" horiz-adv-x="334" 
d="M329 667l-201 -588h190v-79h-307l202 591h-178v76h294z" />
    <glyph glyph-name="bracketleft" unicode="[" horiz-adv-x="312" 
d="M279 -183h-212v912h212v-76h-122v-760h122v-76z" />
    <glyph glyph-name="backslash" unicode="\" horiz-adv-x="397" 
d="M-13 729h70l397 -912h-71z" />
    <glyph glyph-name="bracketright" unicode="]" horiz-adv-x="312" 
d="M33 -183v76h122v760h-122v76h212v-912h-212z" />
    <glyph glyph-name="asciicircum" unicode="^" 
d="M478 358h-88l-141 244l-139 -244h-88l174 309h108z" />
    <glyph glyph-name="underscore" unicode="_" 
d="M500 -134h-500v70h500v-70z" />
    <glyph glyph-name="grave" unicode="`" 
d="M294 541l-47 -28l-107 115l68 42z" />
    <glyph glyph-name="a" unicode="a" horiz-adv-x="349" 
d="M302 0l-83.001 -0.000976562v57c-9.33301 -21.333 -20 -37.333 -32 -48s-28.667 -16 -50 -16c-16.667 0 -31.5 3.83301 -44.5 11.5s-23.167 19 -30.5 34s-13.333 29.667 -18 44s-8 32 -10 53s-3.16699 37.5 -3.5 49.5s-0.5 26.667 -0.5 44s0.333008 31.833 1 43.5
s1.83398 27.5 3.50098 47.5s5 36.833 10 50.5s11.167 27.334 18.5 41.001s17.5 24.167 30.5 31.5s27.833 11 44.5 11c34 0 61 -19.333 81 -58v51h83v-447zM221.999 198.999v48c0 88 -17.667 132 -53 132c-36 0 -54 -41.667 -54 -125v-61c0 -84 18 -126 54 -126
c35.333 0 53 44 53 132z" />
    <glyph glyph-name="b" unicode="b" horiz-adv-x="349" 
d="M129 729l-0.000976562 -333.001c10.667 20 21.834 34.667 33.501 44s27.5 14 47.5 14c24.667 0 45 -7.5 61 -22.5s27.167 -36.167 33.5 -63.5s10.333 -50.666 12 -69.999s2.5 -42.333 2.5 -69c0 -17.333 -0.166992 -32 -0.5 -44s-1.5 -28.5 -3.5 -49.5
s-5.33301 -38.667 -10 -53s-10.667 -29 -18 -44s-17.5 -26.333 -30.5 -34s-27.833 -11.5 -44.5 -11.5c-21.333 0 -38 5.16699 -50 15.5s-23 26.5 -33 48.5v-57h-82v729h82zM232.999 192.999v61c0 83.333 -18 125 -54 125c-34.667 0 -52 -42 -52 -126v-60
c0 -84 17.333 -126 52 -126c36 0 54 42 54 126z" />
    <glyph glyph-name="c" unicode="c" horiz-adv-x="253" 
d="M229 88l0.00292969 -77.001c-20.667 -12 -42.667 -18 -66 -18c-88.667 0 -133 76 -133 228c0 28.667 1.33301 54.334 4 77.001s8.16699 47 16.5 73s22.166 46.333 41.499 61s43.666 22 72.999 22c22 0 43.333 -5.33301 64 -16v-84c-10.667 14 -24.334 21 -41.001 21
c-45.333 0 -68 -49.333 -68 -148c0 -104 22.333 -156 67 -156c14.667 0 28.667 5.66699 42 17z" />
    <glyph glyph-name="d" unicode="d" horiz-adv-x="349" 
d="M302 0h-83.001v57c-9.33301 -21.333 -20 -37.333 -32 -48s-28.667 -16 -50 -16c-16.667 0 -31.5 3.83301 -44.5 11.5s-23.167 19 -30.5 34s-13.333 29.667 -18 44s-8 32 -10 53s-3.16699 37.5 -3.5 49.5s-0.5 26.667 -0.5 44c0 14.667 0.166992 27 0.5 37
s1.16602 23.5 2.49902 40.5s3.33301 31.5 6 43.5s6.66699 25 12 39s11.833 25.333 19.5 34s17.334 16 29.001 22s24.834 9 39.501 9c20 0 35.833 -4.66699 47.5 -14s22.5 -24 32.5 -44v333h83v-729zM221.999 199v48c0 88 -17.667 132 -53 132c-36 0 -54 -41.667 -54 -125
v-61c0 -84 18 -126 54 -126c35.333 0 53 44 53 132z" />
    <glyph glyph-name="e" unicode="e" horiz-adv-x="326" 
d="M299 207h-188.001c0 -95.333 19 -143 57 -143c34 0 51 29 51 87h77c-1.33301 -39.333 -7 -69.333 -17 -90c-21.333 -45.333 -58.666 -68 -111.999 -68c-24 0 -44.833 5 -62.5 15s-31.167 22.333 -40.5 37s-16.666 33.167 -21.999 55.5s-8.66602 42.333 -9.99902 60
s-2 38.167 -2 61.5c0 28.667 1.33301 54.167 4 76.5s8.16699 46.5 16.5 72.5s22.166 46.333 41.499 61s43.666 22 72.999 22c24 0 44.667 -5.83301 62 -17.5s30.5 -25.667 39.5 -42s16.167 -36.833 21.5 -61.5s8.5 -46 9.5 -64s1.5 -38.667 1.5 -62zM110.999 267h104
c-2.66699 49.333 -8.66699 81.333 -18 96c-8 14 -19.333 21 -34 21c-30.667 0 -48 -36.667 -52 -110v-4v-3z" />
    <glyph glyph-name="f" unicode="f" horiz-adv-x="217" 
d="M213 728v-86.999c-13.333 7.33301 -25 11 -35 11c-10.667 0 -19 -3 -25 -9s-9.5 -12.167 -10.5 -18.5s-1.83301 -15.5 -2.5 -27.5c0 -3.33301 -0.166992 -8.66602 -0.5 -15.999s-0.5 -13 -0.5 -17v-117h70v-66h-70v-381h-82v381h-42v66h42v154
c0 21.333 1 39.166 3 53.499s6.33301 28.666 13 42.999s17 25 31 32s31.667 10.5 53 10.5c17.333 0 36 -4 56 -12z" />
    <glyph glyph-name="g" unicode="g" horiz-adv-x="349" 
d="M303 447v-477.001c0 -53.333 -10.333 -93 -31 -119s-57 -39 -109 -39c-38 0 -68.667 11.5 -92 34.5s-35 53.5 -35 91.5c0 1.33301 0.166992 3.66602 0.5 6.99902s0.5 6 0.5 8h80c0 -48 17.667 -72 53 -72c21.333 0 35 6.83301 41 20.5s9 32.834 9 57.501v96
c-18 -41.333 -45 -62 -81 -62c-14.667 0 -27.834 3 -39.501 9s-21.334 13.5 -29.001 22.5s-14.167 20.833 -19.5 35.5s-9.33301 28 -12 40s-4.66699 26.667 -6 44s-2.16602 31 -2.49902 41s-0.5 22.333 -0.5 37c0 22 0.333008 40.333 1 55s2.83398 34.334 6.50098 59.001
s9 44.5 16 59.5s17.833 28.5 32.5 40.5s32.334 18 53.001 18c20 0 35.667 -5 47 -15s22.666 -25.333 33.999 -46v54h83zM221 228.999c0 100 -18.334 150.001 -55.001 150.001c-6 0 -11.5 -1.33301 -16.5 -4s-9.33301 -7 -13 -13s-6.66699 -12 -9 -18
s-4.33301 -13.833 -6 -23.5s-3 -17.834 -4 -24.501s-1.66699 -15.5 -2 -26.5s-0.5 -18.833 -0.5 -23.5v-22v-16c0 -94 18.667 -141 56 -141c10.667 0 19.334 2.83301 26.001 8.5s11.5 14.667 14.5 27s5 21.833 6 28.5s1.83301 16.667 2.5 30c0.666992 15.333 1 38 1 68z" />
    <glyph glyph-name="h" unicode="h" horiz-adv-x="358" 
d="M311 0l-81.999 -0.00195312v298c-0.666992 12.667 -1.33398 22.334 -2.00098 29.001s-2.33398 15 -5.00098 25s-7.5 17.5 -14.5 22.5s-15.833 7.5 -26.5 7.5c-12 0 -21.833 -2.66699 -29.5 -8s-13 -13.666 -16 -24.999s-4.83301 -20.833 -5.5 -28.5s-1 -18.167 -1 -31.5
v-289h-82v729h82v-334c12.667 20 25.834 34.833 39.501 44.5s31.167 14.5 52.5 14.5c18.667 0 34.167 -3.33301 46.5 -10s21.5 -16.334 27.5 -29.001s10.167 -25.667 12.5 -39s3.5 -28.666 3.5 -45.999v-330z" />
    <glyph glyph-name="i" unicode="i" horiz-adv-x="176" 
d="M140 581c0 -15.333 -5.5 -28.5 -16.5 -39.5s-23.833 -16.5 -38.5 -16.5c-15.333 0 -28.5 5.5 -39.5 16.5s-16.5 24.167 -16.5 39.5s5.5 28.5 16.5 39.5s24.167 16.5 39.5 16.5c14.667 0 27.5 -5.5 38.5 -16.5s16.5 -24.167 16.5 -39.5zM129 0h-82v447h82v-447z" />
    <glyph glyph-name="j" unicode="j" horiz-adv-x="176" 
d="M140 581c0 -15.333 -5.5 -28.5 -16.5 -39.5s-23.833 -16.5 -38.5 -16.5c-15.333 0 -28.5 5.5 -39.5 16.5s-16.5 24.167 -16.5 39.5s5.5 28.5 16.5 39.5s24.167 16.5 39.5 16.5c14.667 0 27.5 -5.5 38.5 -16.5s16.5 -24.167 16.5 -39.5zM129 -188h-82v635h82v-635z" />
    <glyph glyph-name="k" unicode="k" horiz-adv-x="346" 
d="M342 0h-96l-117 218v-218h-82v729h82v-475l105 193h93l-119 -204z" />
    <glyph glyph-name="l" unicode="l" horiz-adv-x="176" 
d="M129 0h-82v729h82v-729z" />
    <glyph glyph-name="m" unicode="m" horiz-adv-x="540" 
d="M485 0l-82.001 -0.000976562v294c0 36.667 -4 60 -12 70c-7.33301 10 -18.666 15 -33.999 15c-10 0 -18.333 -2 -25 -6s-11.667 -8 -15 -12s-5.83301 -11 -7.5 -21s-2.5 -17.167 -2.5 -21.5v-24.5v-294h-82v294c0 14 -0.166992 24 -0.5 30s-1.83301 14.333 -4.5 25
s-7.5 18.334 -14.5 23.001s-16.167 7 -27.5 7c-10 0 -18.333 -2 -25 -6s-11.5 -8 -14.5 -12s-5.33301 -11 -7 -21s-2.5 -17.167 -2.5 -21.5v-24.5v-294h-82v447h82v-55c12 20.667 24.333 36.167 37 46.5s29.334 15.5 50.001 15.5c22 0 38.833 -4.83301 50.5 -14.5
s21.5 -25.5 29.5 -47.5c11.333 21.333 24 37 38 47s32.333 15 55 15c31.333 0 55.166 -8.5 71.499 -25.5s24.5 -41.167 24.5 -72.5v-356z" />
    <glyph glyph-name="n" unicode="n" horiz-adv-x="358" 
d="M311 0l-81.999 -0.00292969v290c-0.666992 14.667 -1.33398 25.834 -2.00098 33.501s-2.33398 16.834 -5.00098 27.501s-7.5 18.5 -14.5 23.5s-15.833 7.5 -26.5 7.5c-12 0 -21.833 -2.66699 -29.5 -8s-13 -13.666 -16 -24.999s-4.83301 -20.833 -5.5 -28.5
s-1 -18.167 -1 -31.5v-289h-82v447h82v-52c12.667 20 25.834 34.833 39.501 44.5s31.167 14.5 52.5 14.5c18.667 0 34.167 -3.33301 46.5 -10s21.5 -16.334 27.5 -29.001s10.167 -25.667 12.5 -39s3.5 -28.666 3.5 -45.999v-330z" />
    <glyph glyph-name="o" unicode="o" horiz-adv-x="341" 
d="M311 223c0 -29.333 -1.49805 -55.332 -4.49805 -77.999s-9 -46.667 -18 -72s-23.5 -45 -43.5 -59s-45 -21 -75 -21c-24 0 -44.833 5 -62.5 15s-31.334 22.5 -41.001 37.5s-17.334 33.5 -23.001 55.5s-9.33398 42.167 -11.001 60.5s-2.5 38.833 -2.5 61.5
s0.666992 43.167 2 61.5s4.83301 38.666 10.5 60.999s13.334 40.833 23.001 55.5s23.5 27.167 41.5 37.5s39 15.5 63 15.5c30 0 55 -7 75 -21s34.5 -33.667 43.5 -59s15 -49.5 18 -72.5s4.5 -49.167 4.5 -78.5zM225.002 197.001v54c0 85.333 -17.667 128 -53 128
s-53 -42.333 -53 -127v-54c0 -85.333 17.667 -128 53 -128s53 42.333 53 127z" />
    <glyph glyph-name="p" unicode="p" horiz-adv-x="349" 
d="M129 447l0.00292969 -57.9971c9.33301 21.333 20.166 37.5 32.499 48.5s29.166 16.5 50.499 16.5c16.667 0 31.5 -3.83301 44.5 -11.5s23.167 -19 30.5 -34s13.333 -29.667 18 -44s8 -32 10 -53s3.16699 -37.5 3.5 -49.5s0.5 -26.667 0.5 -44
c0 -21.333 -0.333008 -39.333 -1 -54s-3 -33.834 -7 -57.501s-9.5 -42.834 -16.5 -57.501s-17.833 -27.667 -32.5 -39s-32.334 -17 -53.001 -17c-20 0 -35.833 4.66699 -47.5 14s-22.5 23.666 -32.5 42.999v-238h-82v635h82zM233.003 193.003v61c0 83.333 -18 125 -54 125
c-34.667 0 -52 -44.333 -52 -133v-46c0 -88.667 17.333 -133 52 -133c36 0 54 42 54 126z" />
    <glyph glyph-name="q" unicode="q" horiz-adv-x="349" 
d="M302 -188l-82.999 -0.000976562v238c-10 -19.333 -20.833 -33.666 -32.5 -42.999s-27.5 -14 -47.5 -14c-14.667 0 -27.834 3 -39.501 9s-21.334 13.333 -29.001 22s-14.167 20 -19.5 34s-9.33301 27 -12 39s-4.66699 26.5 -6 43.5s-2.16602 30.5 -2.49902 40.5
s-0.5 22.333 -0.5 37c0 17.333 0.166992 32 0.5 44s1.5 28.5 3.5 49.5s5.33301 38.667 10 53s10.667 29 18 44s17.5 26.333 30.5 34s27.833 11.5 44.5 11.5c21.333 0 37.833 -5.33301 49.5 -16s22.5 -27 32.5 -49v58h83v-635zM222.001 198.999v48c0 88 -17.667 132 -53 132
c-36 0 -54 -41.667 -54 -125v-61c0 -84 18 -126 54 -126c35.333 0 53 44 53 132z" />
    <glyph glyph-name="r" unicode="r" horiz-adv-x="236" 
d="M226 457v-86c-3.33301 0.666992 -8.33301 1 -15 1c-32 0 -53.667 -8.5 -65 -25.5s-17 -42.167 -17 -75.5v-271h-82v447h82v-56c13.333 22.667 26.833 39 40.5 49s32.5 15.667 56.5 17z" />
    <glyph glyph-name="s" unicode="s" horiz-adv-x="260" 
d="M219 438l0.000976562 -77.0049c-18.667 14.667 -39.667 22 -63 22c-14 0 -26.333 -4.83301 -37 -14.5s-16 -21.5 -16 -35.5c0 -13.333 4.66699 -25.666 14 -36.999s20.833 -21.833 34.5 -31.5s27.334 -20.167 41.001 -31.5s25.167 -26.333 34.5 -45s14 -39.667 14 -63
c0 -39.333 -11.5 -71.166 -34.5 -95.499s-54.167 -36.5 -93.5 -36.5c-25.333 0 -49.666 7 -72.999 21v80c23.333 -18 46 -27 68 -27c18 0 32 4.83301 42 14.5s15 23.5 15 41.5c0 14.667 -4.83301 28.334 -14.5 41.001s-21.334 24 -35.001 34s-27.334 20.833 -41.001 32.5
s-25.334 26.334 -35.001 44.001s-14.5 37.834 -14.5 60.501c0 36 11 65.333 33 88s51 34 87 34c26 0 50.667 -6.33301 74 -19z" />
    <glyph glyph-name="t" unicode="t" horiz-adv-x="196" 
d="M184 383h-45v-383h-82v383h-46v64h46v127h82v-127h45v-64z" />
    <glyph glyph-name="u" unicode="u" horiz-adv-x="359" 
d="M313 447l-0.000976562 -301.996c0 -52 -10 -90.5 -30 -115.5s-55.667 -37.5 -107 -37.5c-46.667 0 -81.334 15 -104.001 45c-16.667 22 -25 58 -25 108v302h82v-268c0 -3.33301 0.166992 -8.5 0.5 -15.5s0.5 -12.167 0.5 -15.5c0.666992 -16.667 1.5 -29.334 2.5 -38.001
s5.5 -17.334 13.5 -26.001s19.333 -13 34 -13c10 0 18.333 1.83301 25 5.5s11.834 7.83398 15.501 12.501s6.33398 11.667 8.00098 21s2.5 16.666 2.5 21.999s-0.166992 13.666 -0.5 24.999s-0.5 18.666 -0.5 21.999v268h83z" />
    <glyph glyph-name="v" unicode="v" horiz-adv-x="300" 
d="M297 447l-116.999 -446.999h-56l-121 447h89c35.333 -158 55.333 -270.667 60 -338c1.33301 5.33301 5.66602 32.666 12.999 81.999c4 26 8.66699 52.333 14 79s12.333 59.667 21 99l17 78h80z" />
    <glyph glyph-name="w" unicode="w" horiz-adv-x="449" 
d="M442 447l-105 -447.001h-57l-34 170c-8 40 -13 70.333 -15 91c-0.666992 7.33301 -1.5 18.5 -2.5 33.5s-1.83301 26.167 -2.5 33.5c-1.33301 -26 -4.33301 -55 -9 -87s-8.5 -56.5 -11.5 -73.5s-8.83301 -47.167 -17.5 -90.5s-13.667 -69 -15 -77h-58l-108 447h87
l11 -60.5l12.5 -70.5c3.66699 -21.333 6.83398 -41.333 9.50098 -60c3.33301 -25.333 8.66602 -68.666 15.999 -129.999c2 28.667 7.66699 69.334 17 122.001l18.5 99.5l18.5 99.5h60c1.33301 -8.66699 14.333 -81 39 -217c0 -1.33301 4 -36 12 -104
c2 25.333 5.16699 53.166 9.5 83.499s8.33301 55.333 12 75l16.5 85.5l15 77h81z" />
    <glyph glyph-name="x" unicode="x" horiz-adv-x="332" 
d="M329 0l-99.001 0.00292969c-0.666992 2 -6.66699 14.833 -18 38.5s-19.666 41.667 -24.999 54s-11.333 27.666 -18 45.999s-10.667 32.5 -12 42.5c-1.33301 -12 -5 -26.833 -11 -44.5s-11.667 -32.834 -17 -45.501l-21.5 -50c-9 -20.667 -14.833 -34.334 -17.5 -41.001
h-87l112 236l-112 211h98c34 -74 55 -125 63 -153c5.33301 25.333 24.333 76.333 57 153h87l-101 -211z" />
    <glyph glyph-name="y" unicode="y" horiz-adv-x="326" 
d="M323 447l-185 -635h-87l71 224l-119 411h94l65 -312l77 312h84z" />
    <glyph glyph-name="z" unicode="z" horiz-adv-x="298" 
d="M285 447l-150 -372h142v-75h-264l155 374h-143v73h260z" />
    <glyph glyph-name="braceleft" unicode="{" 
d="M376 -183h-37.999c-51.333 0 -87.5 11.667 -108.5 35s-31.5 60.666 -31.5 111.999v186c0 26 -3.83301 46.5 -11.5 61.5s-22.834 25.167 -45.501 30.5v67c38 9.33301 57 38 57 86v196c0 48.667 11.333 83.834 34 105.501s58.667 32.5 108 32.5c16 0 28 -0.333008 36 -1
v-70c-37.333 -0.666992 -62.833 -5.83398 -76.5 -15.501s-20.5 -32.5 -20.5 -68.5v-184c0 -30.667 -4 -54.5 -12 -71.5s-24.333 -32.167 -49 -45.5c24 -13.333 40.167 -29.166 48.5 -47.499s12.5 -42.5 12.5 -72.5v-178c0 -40.667 8.66699 -66 26 -76
c13.333 -7.33301 37 -11 71 -11v-71z" />
    <glyph glyph-name="bar" unicode="|" 
d="M291 -250h-82v1000h82v-1000z" />
    <glyph glyph-name="braceright" unicode="}" 
d="M137 -183l0.000976562 71c34 0 57.667 3.66699 71 11c17.333 10 26 35.333 26 76v178c0 30 4.16699 54.167 12.5 72.5s24.5 34.166 48.5 47.499c-24.667 13.333 -41 28.5 -49 45.5s-12 40.833 -12 71.5v184c0 36 -6.83301 58.833 -20.5 68.5s-39.167 14.834 -76.5 15.501
v70c8 0.666992 20 1 36 1c49.333 0 85.333 -10.833 108 -32.5s34 -56.834 34 -105.501v-196c0 -48 19 -76.667 57 -86v-67c-22.667 -5.33301 -37.834 -15.5 -45.501 -30.5s-11.5 -35.5 -11.5 -61.5v-186c0 -51.333 -10.5 -88.666 -31.5 -111.999s-57.167 -35 -108.5 -35h-38
z" />
    <glyph glyph-name="asciitilde" unicode="~" horiz-adv-x="667" 
d="M525 730l48.9971 -28c-13.333 -28 -25.333 -48.333 -36 -61c-30 -36.667 -67 -55 -111 -55c-23.333 0 -57.666 10.5 -102.999 31.5s-78 31.5 -98 31.5c-33.333 0 -62 -23.333 -86 -70l-47 31c18 38 37 67.167 57 87.5s47.333 30.5 82 30.5
c25.333 0 60.833 -10.5 106.5 -31.5s78.834 -31.5 99.501 -31.5c20 0 36.333 5.5 49 16.5s25.334 27.167 38.001 48.5z" />
    <glyph glyph-name="uni00A0" unicode="&#xa0;" horiz-adv-x="233" 
 />
    <glyph glyph-name="exclamdown" unicode="&#xa1;" horiz-adv-x="246" 
d="M176 401c0 -15.333 -5.16699 -28.168 -15.5 -38.501s-22.833 -15.5 -37.5 -15.5s-27.167 5.33301 -37.5 16s-15.5 23.334 -15.5 38.001s5.16699 27.167 15.5 37.5s22.833 15.5 37.5 15.5s27.167 -5.16699 37.5 -15.5s15.5 -22.833 15.5 -37.5zM167 -220.002h-87v487h87
v-487z" />
    <glyph glyph-name="cent" unicode="&#xa2;" horiz-adv-x="380" 
d="M287 187v-73c-10.667 -6.66699 -22 -11 -34 -13v-78h-60v78c-24 6 -44 22 -60 48c-24 34.667 -36 95 -36 181c0 84 12 145 36 183c12.667 20.667 32.667 36.667 60 48v92h60v-92c8.66699 -2 20 -5.66699 34 -11v-79c-10 8 -21 12 -33 12c-16 0 -29.167 -5 -39.5 -15
s-17.333 -24.333 -21 -43s-6 -34 -7 -46s-1.5 -27 -1.5 -45c0 -104 22.333 -156 67 -156c10 0 21.667 3 35 9z" />
    <glyph glyph-name="sterling" unicode="&#xa3;" horiz-adv-x="380" 
d="M281 96l73 -22.999c-7.33301 -23.333 -18 -42 -32 -56c-17.333 -17.333 -38.666 -26 -63.999 -26c-16 0 -34.667 5 -56 15l-24 11c-24.667 11.333 -42.334 17 -53.001 17c-8.66699 0 -15.667 -3 -21 -9c-4.66699 -6 -8 -12.667 -10 -20l-68 27c6 23.333 15.333 42 28 56
c14 15.333 31.333 23 52 23c4 0 9.33301 -0.666992 16 -2c11.333 20.667 17 44 17 70c0 36 -11.333 73.667 -34 113h-76v61h53c-24.667 56 -37 106 -37 150c0 54 15.667 96.667 47 128c30.667 29.333 70 44 118 44c41.333 0 74 -11.333 98 -34
c25.333 -24.667 38.666 -57.334 39.999 -98.001l-70 -33c0 35.333 -7 60.333 -21 75c-10.667 12 -27 18 -49 18c-23.333 0 -42.666 -7.66699 -57.999 -23c-16 -16.667 -24 -40 -24 -70c0 -23.333 4.33301 -49.333 13 -78c4 -14 14 -40.333 30 -79h99v-61h-81
c16 -40.667 24 -75 24 -103c0 -38 -7.66699 -70.667 -23 -98l14 -7c24 -12 39.667 -18 47 -18c8.66699 0 16 3.66699 22 11c4 4 7.33301 10.333 10 19z" />
    <glyph glyph-name="currency" unicode="&#xa4;" horiz-adv-x="667" 
d="M619 125l-45 -45l-97 96c-44 -33.333 -91.333 -50 -142 -50c-48.667 0 -96.667 16.333 -144 49l-96 -95l-45 45l95 96c-33.333 44 -50 91.333 -50 142c0 48 16.333 94.667 49 140l-96 97l46 45l96 -96c45.333 33.333 93.333 50 144 50c50 0 97.333 -16.333 142 -49l96 95
l45 -45l-95 -96c33.333 -46.667 50 -94 50 -142c0 -47.333 -16.667 -94 -50 -140zM497 362c0 45.333 -15.833 84 -47.5 116s-70.167 48 -115.5 48s-84 -16 -116 -48s-48 -70.667 -48 -116c0 -44.667 16 -83 48 -115s70.333 -48 115 -48c45.333 0 84 15.833 116 47.5
s48 70.167 48 115.5z" />
    <glyph glyph-name="yen" unicode="&#xa5;" horiz-adv-x="380" 
d="M364 256l-123 -0.000976562v-256h-90v256h-135v61h124l-19 52h-105v62h82l-86 236h96l43 -146c26 -87.333 40.667 -141.666 44 -162.999c7.33301 49.333 30.333 152.333 69 309h93l-72 -236h79v-62h-97l-16 -52h113v-61z" />
    <glyph glyph-name="brokenbar" unicode="&#xa6;" 
d="M290 345h-81v405h81v-405zM290 -250h-81v405h81v-405z" />
    <glyph glyph-name="section" unicode="&#xa7;" horiz-adv-x="380" 
d="M327 593l-75 -0.00195312c-1.33301 22 -7.33301 41.667 -18 59c-10.667 16.667 -25 25 -43 25c-19.333 0 -34.333 -9 -45 -27c-9.33301 -14 -14 -32 -14 -54c0 -28.667 11 -54.667 33 -78c8.66699 -9.33301 28.667 -23.666 60 -42.999c29.333 -17.333 50 -32 62 -44
c35.333 -35.333 53 -86.333 53 -153c0 -49.333 -8 -89.666 -24 -120.999c-14 -26.667 -34.667 -46 -62 -58c24 -16.667 41.667 -36.667 53 -60c10.667 -21.333 16 -46.333 16 -75c0 -47.333 -14.333 -85.333 -43 -114c-24 -24 -55.333 -36 -94 -36
c-34.667 0 -64.334 12.667 -89.001 38c-28 30 -42 70.667 -42 122h74c2 -34.667 7.33301 -58.334 16 -71.001c9.33301 -16 24 -24 44 -24c14.667 0 27.667 5 39 15c14.667 14 22 37.333 22 70c0 30 -9.66699 54.667 -29 74c-10 10 -33.333 25.333 -70 46
c-29.333 17.333 -50 32.333 -62 45c-32.667 34.667 -49 82.667 -49 144c0 45.333 9.33301 85 28 119c16 28.667 37.333 49.667 64 63c-20 16.667 -36.667 35.334 -50 56.001c-15.333 25.333 -23 52.666 -23 81.999c0 44.667 13.333 81.334 40 110.001
c24.667 26 55.334 39 92.001 39c38 0 68.667 -11.667 92 -35c26 -25.333 40.667 -63.333 44 -114zM114 276.998c0 -56.667 10.001 -95 30.001 -115c12.667 -12.667 28 -19 46 -19s33.333 5.66699 46 17c20 18.667 30 54 30 106c0 60.667 -9.66699 101.667 -29 123
c-12.667 14 -28.334 21 -47.001 21c-17.333 0 -32.333 -6.33301 -45 -19c-20.667 -20 -31 -58 -31 -114z" />
    <glyph glyph-name="dieresis" unicode="&#xa8;" horiz-adv-x="490" 
d="M369 563c0 -14 -4.83301 -25.833 -14.5 -35.5s-21.5 -14.5 -35.5 -14.5s-25.833 4.83301 -35.5 14.5s-14.5 21.5 -14.5 35.5s4.83301 25.833 14.5 35.5s21.5 14.5 35.5 14.5s25.833 -4.83301 35.5 -14.5s14.5 -21.5 14.5 -35.5zM221 563
c0 -14 -4.83301 -25.833 -14.5 -35.5s-21.5 -14.5 -35.5 -14.5s-25.833 4.83301 -35.5 14.5s-14.5 21.5 -14.5 35.5s4.83301 25.833 14.5 35.5s21.5 14.5 35.5 14.5s25.833 -4.83301 35.5 -14.5s14.5 -21.5 14.5 -35.5z" />
    <glyph glyph-name="copyright" unicode="&#xa9;" horiz-adv-x="757" 
d="M724 333c0 -95.333 -33.6689 -176.833 -101.002 -244.5s-148.666 -101.5 -243.999 -101.5s-176.833 33.833 -244.5 101.5s-101.5 149.167 -101.5 244.5s33.833 176.833 101.5 244.5s149.167 101.5 244.5 101.5c94.667 0 175.834 -33.833 243.501 -101.5
s101.5 -149.167 101.5 -244.5zM669.998 333c0 81.333 -28.1689 151.168 -84.502 209.501s-125.166 87.5 -206.499 87.5s-150.333 -29 -207 -87s-85 -127.667 -85 -209s28.5 -151.333 85.5 -210s125.833 -88 206.5 -88s149.334 29.167 206.001 87.5s85 128.166 85 209.499z
M449.996 204.002l-0.000976562 -62c-12 -9.33301 -29 -14 -51 -14c-88.667 0 -133 66.333 -133 199c0 140.667 43.667 211 131 211c18.667 0 36.334 -4.33301 53.001 -13v-62c-14.667 9.33301 -28.667 14 -42 14c-46 0 -69 -49 -69 -147c0 -92 24 -138 72 -138
c10 0 23 4 39 12z" />
    <glyph glyph-name="ordfeminine" unicode="&#xaa;" horiz-adv-x="267" 
d="M214 372l-61 0.000976562v17c-10 -14 -23.667 -21 -41 -21c-16.667 0 -30.334 6 -41.001 18c-22 23.333 -33 68.666 -33 135.999c0 60.667 9.33301 103 28 127c10.667 14.667 26.334 22 47.001 22c16.667 0 30 -7 40 -21v17h61v-295zM214 297.001h-173v40h173v-40z
M100 531.001v-12.9971c0 -41.333 3.33301 -69 10 -83c4 -8.66699 10 -13 18 -13c4.66699 0 9.33398 2.33301 14.001 7c9.33301 11.333 14 36.666 14 75.999v26c0 41.333 -4.33301 67.666 -13 78.999c-3.33301 4.66699 -8 7 -14 7c-6.66699 0 -12.334 -3 -17.001 -9
c-8 -10.667 -12 -36.334 -12 -77.001z" />
    <glyph glyph-name="guillemotleft" unicode="&#xab;" horiz-adv-x="326" 
d="M293 405l-102 -171l92 -177l-38 -21l-106 198l114 196zM185 405l-102 -171l95 -177l-42 -21l-103 198l112 196z" />
    <glyph glyph-name="logicalnot" unicode="&#xac;" 
d="M467 0h-82v193h-352v74h434v-267z" />
    <glyph glyph-name="uni00AD" unicode="&#xad;" horiz-adv-x="255" 
d="M205 295v-78h-155v78h155z" />
    <glyph glyph-name="registered" unicode="&#xae;" horiz-adv-x="757" 
d="M509 132l-73 -0.000976562l-82 176v-176h-70v403h92c42 0 71.833 -8.16699 89.5 -24.5s26.5 -45.166 26.5 -86.499c0 -28 -6 -51.667 -18 -71s-31 -30 -57 -32zM354 367.999l18 0.000976562c20.667 0 34.5 4.66699 41.5 14s10.5 24.666 10.5 45.999
s-3.83301 36.333 -11.5 45s-22.167 13 -43.5 13h-15v-118zM670 333c0 81.333 -28.1689 151.168 -84.502 209.501s-125.166 87.5 -206.499 87.5s-150.333 -29 -207 -87s-85 -127.667 -85 -209s28.5 -151.333 85.5 -210s125.833 -88 206.5 -88s149.334 29.167 206.001 87.5
s85 128.166 85 209.499zM723.998 333.002c0 -95.333 -33.6689 -176.833 -101.002 -244.5s-148.666 -101.5 -243.999 -101.5s-176.833 33.833 -244.5 101.5s-101.5 149.167 -101.5 244.5s33.833 176.833 101.5 244.5s149.167 101.5 244.5 101.5
c94.667 0 175.834 -33.833 243.501 -101.5s101.5 -149.167 101.5 -244.5z" />
    <glyph glyph-name="macron" unicode="&#xaf;" 
d="M362 531h-224v62h224v-62z" />
    <glyph glyph-name="degree" unicode="&#xb0;" 
d="M394 528c0 -39.333 -14.1709 -72.666 -42.5039 -99.999s-62.166 -41 -101.499 -41s-73.166 13.667 -101.499 41s-42.5 60.666 -42.5 99.999c0 38.667 14.333 71.667 43 99s62.334 41 101.001 41s72.334 -13.667 101.001 -41s43 -60.333 43 -99zM341.996 527
c0 24.667 -9 45.832 -27 63.499s-39.667 26.5 -65 26.5c-24.667 0 -46.167 -8.66699 -64.5 -26s-27.5 -38.333 -27.5 -63c0 -25.333 9 -46.666 27 -63.999s39.667 -26 65 -26c24.667 0 46.167 8.66699 64.5 26s27.5 38.333 27.5 63z" />
    <glyph glyph-name="plusminus" unicode="&#xb1;" 
d="M467 347h-176v-168h-82v168h-176v76h176v168h82v-168h176v-76zM467 64h-434v76h434v-76z" />
    <glyph glyph-name="twosuperior" unicode="&#xb2;" horiz-adv-x="253" 
d="M97 532h-62c-0.666992 4.66699 -1 11.334 -1 20.001c0 39.333 6.5 69.166 19.5 89.499s37.833 30.5 74.5 30.5c64 0 96 -33.333 96 -100c0 -20.667 -5.33301 -45.667 -16 -75s-19.667 -50.666 -27 -63.999l-38 -69c-12.667 -24 -21 -39 -25 -45h102v-52h-193
c13.333 27.333 34 67.666 62 120.999c48 90 72 152 72 186c0 30 -11.333 45 -34 45c-24.667 0 -34.667 -29 -30 -87z" />
    <glyph glyph-name="threesuperior" unicode="&#xb3;" horiz-adv-x="253" 
d="M39 555l-0.000976562 12.999c0 34.667 6.5 60.667 19.5 78s36.167 26 69.5 26c60 0 90 -35 90 -105c0 -15.333 -0.666992 -27.833 -2 -37.5s-5 -20.167 -11 -31.5s-15 -19.666 -27 -24.999c18.667 -7.33301 30.834 -18.5 36.501 -33.5s8.5 -34.5 8.5 -58.5
c0 -79.333 -33.333 -119 -100 -119c-61.333 0 -92 32.333 -92 97c0 6 0.333008 10.333 1 13h60c-1.33301 -8 -2 -14 -2 -18c0 -10 2.83301 -19 8.5 -27s13.5 -12 23.5 -12c11.333 0 20 4.5 26 13.5s9.33301 17.333 10 25s1 18.167 1 31.5c0 20 -3 35.833 -9 47.5
s-18 17.5 -36 17.5c-4 0 -10.667 -0.666992 -20 -2v53c26 0 43.167 3.5 51.5 10.5s12.5 23.5 12.5 49.5c0 38.667 -9.66699 58 -29 58c-14 0 -22.833 -6.83301 -26.5 -20.5s-4.5 -28.167 -2.5 -43.5h-61z" />
    <glyph glyph-name="acute" unicode="&#xb4;" 
d="M206 541l86 129l68 -42l-107 -115z" />
    <glyph glyph-name="mu" unicode="&#xb5;" 
d="M455 0h-80v81c-30 -62 -73.333 -93 -130 -93c-50.667 0 -90.667 23.667 -120 71v-247h-82v635h82v-236c0 -45.333 6 -79 18 -101c10 -18 24.5 -32 43.5 -42s39.167 -15 60.5 -15c44 0 78.333 19.667 103 59c16 25.333 24 61 24 107v228h81v-447z" />
    <glyph glyph-name="mu" unicode="&#x3bc;" 
d="M455 0h-80v81c-30 -62 -73.333 -93 -130 -93c-50.667 0 -90.667 23.667 -120 71v-247h-82v635h82v-236c0 -45.333 6 -79 18 -101c10 -18 24.5 -32 43.5 -42s39.167 -15 60.5 -15c44 0 78.333 19.667 103 59c16 25.333 24 61 24 107v228h81v-447z" />
    <glyph glyph-name="paragraph" unicode="&#xb6;" horiz-adv-x="594" 
d="M523 603l-62 -0.000976562v-703h-70v703h-102v-703h-70v416c-2 0 -4.33301 -0.166992 -7 -0.5s-5 -0.5 -7 -0.5c-53.333 0 -97.166 15.833 -131.499 47.5s-51.5 73.834 -51.5 126.501c0 50.667 16.667 92.667 50 126c35.333 34.667 92.666 52 171.999 52h279v-64z" />
    <glyph glyph-name="periodcentered" unicode="&#xb7;" horiz-adv-x="208" 
d="M168 334c0 -17.333 -6.33301 -32.333 -19 -45s-27.667 -19 -45 -19s-32.333 6.33301 -45 19s-19 27.667 -19 45s6.33301 32.333 19 45s27.667 19 45 19s32.333 -6.33301 45 -19s19 -27.667 19 -45z" />
    <glyph glyph-name="cedilla" unicode="&#xb8;" 
d="M327 -74l-76 -117l-38 20l55 126z" />
    <glyph glyph-name="onesuperior" unicode="&#xb9;" horiz-adv-x="252" 
d="M170 267h-61v348h-41v52h102v-400z" />
    <glyph glyph-name="ordmasculine" unicode="&#xba;" horiz-adv-x="267" 
d="M228 523c0 -103.333 -30.6641 -155 -91.9971 -155c-64 0 -96 52.333 -96 157c0 15.333 1.16699 30.333 3.5 45s6.66602 30.167 12.999 46.5s16.166 29.5 29.499 39.5s29.666 15 48.999 15c62 0 93 -49.333 93 -148zM225.003 297h-182v40h182v-40zM165.003 525
c0 4.66699 -0.332031 10.5 -0.999023 17.5s-1.66699 16.5 -3 28.5s-4.33301 21.833 -9 29.5s-10.334 11.5 -17.001 11.5c-22 0 -33 -29.333 -33 -88c0 -64.667 10.667 -97 32 -97c20.667 0 31 32.667 31 98z" />
    <glyph glyph-name="guillemotright" unicode="&#xbb;" horiz-adv-x="326" 
d="M293 234l-103 -198l-42 21l95 177l-102 171l40 25zM187 234l-105 -198l-39 21l92 177l-102 171l40 25z" />
    <glyph glyph-name="onequarter" unicode="&#xbc;" horiz-adv-x="630" 
d="M603 98h-27v-98h-59v98h-115v49l116 253h58v-255h27v-47zM508 667l-331 -667h-55l331 667h55zM170 267h-61v348h-41v52h102v-400zM517 145v155l-64 -155h64z" />
    <glyph glyph-name="onehalf" unicode="&#xbd;" horiz-adv-x="631" 
d="M475 265l-62 0.000976562c-0.666992 4.66699 -1 11.334 -1 20.001c0 39.333 6.5 69 19.5 89s37.833 30 74.5 30c64 0 96 -33.333 96 -100c0 -20.667 -5.16699 -45.334 -15.5 -74.001s-19.5 -50.5 -27.5 -65.5s-20.667 -37.5 -38 -67.5c-12.667 -24 -21 -39 -25 -45h102
v-52h-193c13.333 27.333 34 67.666 62 120.999c48 90 72 151.667 72 185c0 30 -11.333 45 -34 45c-24.667 0 -34.667 -28.667 -30 -86zM508 667.001l-331 -667h-55l331 667h55zM170 267.001h-61v348h-41v52h102v-400z" />
    <glyph glyph-name="threequarters" unicode="&#xbe;" horiz-adv-x="631" 
d="M509 667l-331 -667h-55l331 667h55zM39 555l-0.000976562 12.999c0 34.667 6.5 60.667 19.5 78s36.167 26 69.5 26c60 0 90 -35 90 -105c0 -15.333 -0.666992 -27.833 -2 -37.5s-5 -20.167 -11 -31.5s-15 -19.666 -27 -24.999c18.667 -7.33301 30.834 -18.5 36.501 -33.5
s8.5 -34.5 8.5 -58.5c0 -79.333 -33.333 -119 -100 -119c-61.333 0 -92 32.333 -92 97c0 6 0.333008 10.333 1 13h60c-1.33301 -8 -2 -14 -2 -18c0 -10 2.83301 -19 8.5 -27s13.5 -12 23.5 -12c11.333 0 20 4.5 26 13.5s9.33301 17.333 10 25s1 18.167 1 31.5
c0 20 -3 35.833 -9 47.5s-18 17.5 -36 17.5c-4 0 -10.667 -0.666992 -20 -2v53c26 0 43.167 3.5 51.5 10.5s12.5 23.5 12.5 49.5c0 38.667 -9.66699 58 -29 58c-20 0 -30 -15.667 -30 -47c0 -8 0.333008 -13.667 1 -17h-61zM517.999 144.999v155l-64 -155h64z
M603.999 97.999h-27v-98h-59v98h-115v49l116 253h58v-255h27v-47z" />
    <glyph glyph-name="questiondown" unicode="&#xbf;" horiz-adv-x="329" 
d="M225 401c0 -14.667 -5.16699 -27.332 -15.5 -37.999s-22.833 -16 -37.5 -16s-27.334 5.16699 -38.001 15.5s-16 23.166 -16 38.499c0 14.667 5.33301 27.167 16 37.5s23.334 15.5 38.001 15.5s27.167 -5.16699 37.5 -15.5s15.5 -22.833 15.5 -37.5zM289 -52.998v-25.0039
c0 -50 -8.66699 -87.167 -26 -111.5s-50 -36.5 -98 -36.5c-28 0 -51 5.5 -69 16.5s-30.833 27.333 -38.5 49s-12.5 41.834 -14.5 60.501s-3 42.334 -3 71.001c0 34.667 1.66699 64.667 5 90c4 28.667 12.5 50.334 25.5 65.001s33.5 23 61.5 25v116h79v-176
c-4.66699 0.666992 -11.334 1 -20.001 1c-28 0 -46.5 -8.16699 -55.5 -24.5s-13.5 -39.166 -13.5 -68.499c0 -4.66699 0.166992 -11.834 0.5 -21.501s0.5 -16.5 0.5 -20.5c0 -73.333 16 -110 48 -110c8.66699 0 15.834 2.33301 21.501 7s9.5 11.334 11.5 20.001
s3.5 16.667 4.5 24s1.5 16.5 1.5 27.5v21.5h79z" />
    <glyph glyph-name="Agrave" unicode="&#xc0;" horiz-adv-x="360" 
d="M359 0h-89l-25 130h-132l-25 -130h-87l145 667h71zM126 199h106c-26.667 148.667 -44 261.334 -52 338.001c-6.66699 -68.667 -24.667 -181.334 -54 -338.001zM224 755l-47 -28l-107 115l68 42z" />
    <glyph glyph-name="Aacute" unicode="&#xc1;" horiz-adv-x="360" 
d="M359 0h-89l-25 130h-132l-25 -130h-87l145 667h71zM126 199h106c-26.667 148.667 -44 261.334 -52 338.001c-6.66699 -68.667 -24.667 -181.334 -54 -338.001zM136 755l86 129l68 -42l-107 -115z" />
    <glyph glyph-name="Acircumflex" unicode="&#xc2;" horiz-adv-x="360" 
d="M359 0h-89l-25 130h-132l-25 -130h-87l145 667h71zM126 199h106c-26.667 148.667 -44 261.334 -52 338.001c-6.66699 -68.667 -24.667 -181.334 -54 -338.001zM285 761l-41 -34l-69 74l-64 -74l-46 34l111 124z" />
    <glyph glyph-name="Atilde" unicode="&#xc3;" horiz-adv-x="360" 
d="M359 0h-89l-25 130h-132l-25 -130h-87l145 667h71zM126 199h106c-26.667 148.667 -44 261.334 -52 338.001c-6.66699 -68.667 -24.667 -181.334 -54 -338.001zM242 815l48.999 0.000976562c0 -58.667 -22 -88 -66 -88c-11.333 0 -25.666 4.66699 -42.999 14
s-30.333 14 -39 14c-13.333 0 -20 -8 -20 -24h-54c2.66699 58.667 25 88 67 88c13.333 0 29.333 -5 48 -15s32 -15 40 -15c2.66699 0 4.83398 0.333008 6.50098 1s3 1.66699 4 3s2 3 3 5s1.66699 3.83301 2 5.5s0.666016 3.66699 0.999023 6s0.833008 4.16602 1.5 5.49902z
" />
    <glyph glyph-name="Adieresis" unicode="&#xc4;" horiz-adv-x="360" 
d="M359 0h-89l-25 130h-132l-25 -130h-87l145 667h71zM126 199h106c-26.667 148.667 -44 261.334 -52 338.001c-6.66699 -68.667 -24.667 -181.334 -54 -338.001zM299 771c0 -14 -4.83301 -25.833 -14.5 -35.5s-21.5 -14.5 -35.5 -14.5s-25.833 4.83301 -35.5 14.5
s-14.5 21.5 -14.5 35.5s4.83301 25.833 14.5 35.5s21.5 14.5 35.5 14.5s25.833 -4.83301 35.5 -14.5s14.5 -21.5 14.5 -35.5zM151 771c0 -14 -4.83301 -25.833 -14.5 -35.5s-21.5 -14.5 -35.5 -14.5s-25.833 4.83301 -35.5 14.5s-14.5 21.5 -14.5 35.5
s4.83301 25.833 14.5 35.5s21.5 14.5 35.5 14.5s25.833 -4.83301 35.5 -14.5s14.5 -21.5 14.5 -35.5z" />
    <glyph glyph-name="Aring" unicode="&#xc5;" horiz-adv-x="360" 
d="M359 0h-89l-25 130h-132l-25 -130h-87l145 667h71zM126 199h106c-26.667 148.667 -44 261.334 -52 338.001c-6.66699 -68.667 -24.667 -181.334 -54 -338.001zM95 799c0 24 8.16699 44.167 24.5 60.5s36.5 24.5 60.5 24.5s44.167 -8.16699 60.5 -24.5
s24.5 -36.5 24.5 -60.5s-8.16699 -44.167 -24.5 -60.5s-36.5 -24.5 -60.5 -24.5s-44.167 8.16699 -60.5 24.5s-24.5 36.5 -24.5 60.5zM140 799c0 -11.333 3.83301 -20.833 11.5 -28.5s17.167 -11.5 28.5 -11.5s20.833 3.83301 28.5 11.5s11.5 17.167 11.5 28.5
s-3.83301 20.833 -11.5 28.5s-17.167 11.5 -28.5 11.5s-20.833 -3.83301 -28.5 -11.5s-11.5 -17.167 -11.5 -28.5z" />
    <glyph glyph-name="AE" unicode="&#xc6;" horiz-adv-x="511" 
d="M510 0h-232l-27 131h-138l-24 -131h-88l142 667h221l17 -76h-145l45 -212h132l18 -76h-132l51 -227h142zM239 199l-32 151c-8.66699 42.667 -17.667 106 -27 190c-1.33301 -25.333 -7.33301 -73 -18 -143c-10 -66 -22 -132 -36 -198h113z" />
    <glyph glyph-name="Ccedilla" unicode="&#xc7;" horiz-adv-x="337" 
d="M313 92l-0.00195312 -81.999c-21.333 -12.667 -45.666 -19 -72.999 -19c-134.667 0 -202 110.333 -202 331c0 236 66.667 354 200 354c26 0 51 -6.66699 75 -20v-81c-20.667 11.333 -40 17 -58 17c-19.333 0 -36.333 -4.33301 -51 -13s-26.167 -21.334 -34.5 -38.001
s-15.166 -33 -20.499 -49s-9 -35.833 -11 -59.5s-3.33301 -42.167 -4 -55.5s-1 -30 -1 -50c0 -165.333 42.333 -248 127 -248c18 0 35.667 4.33301 53 13zM269.998 -71.999l-73 -118l-49 23l54 125z" />
    <glyph glyph-name="Egrave" unicode="&#xc8;" horiz-adv-x="321" 
d="M290 0h-239v667h239v-76h-149v-212h132v-76h-132v-227h149v-76zM224 755l-47 -28l-107 115l68 42z" />
    <glyph glyph-name="Eacute" unicode="&#xc9;" horiz-adv-x="321" 
d="M290 0h-239v667h239v-76h-149v-212h132v-76h-132v-227h149v-76zM117 755l86 129l68 -42l-107 -115z" />
    <glyph glyph-name="Ecircumflex" unicode="&#xca;" horiz-adv-x="321" 
d="M290 0h-239v667h239v-76h-149v-212h132v-76h-132v-227h149v-76zM285 761l-41 -34l-69 74l-64 -74l-46 34l111 124z" />
    <glyph glyph-name="Edieresis" unicode="&#xcb;" horiz-adv-x="321" 
d="M290 0h-239v667h239v-76h-149v-212h132v-76h-132v-227h149v-76zM285 771c0 -14 -4.83301 -25.833 -14.5 -35.5s-21.5 -14.5 -35.5 -14.5s-25.833 4.83301 -35.5 14.5s-14.5 21.5 -14.5 35.5s4.83301 25.833 14.5 35.5s21.5 14.5 35.5 14.5s25.833 -4.83301 35.5 -14.5
s14.5 -21.5 14.5 -35.5zM137 771c0 -14 -4.83301 -25.833 -14.5 -35.5s-21.5 -14.5 -35.5 -14.5s-25.833 4.83301 -35.5 14.5s-14.5 21.5 -14.5 35.5s4.83301 25.833 14.5 35.5s21.5 14.5 35.5 14.5s25.833 -4.83301 35.5 -14.5s14.5 -21.5 14.5 -35.5z" />
    <glyph glyph-name="Igrave" unicode="&#xcc;" horiz-adv-x="193" 
d="M141 0h-90v667h90v-667zM149 755l-47 -28l-107 115l68 42z" />
    <glyph glyph-name="Iacute" unicode="&#xcd;" horiz-adv-x="193" 
d="M141 0h-90v667h90v-667zM46 755l86 129l68 -42l-107 -115z" />
    <glyph glyph-name="Icircumflex" unicode="&#xce;" horiz-adv-x="193" 
d="M141 0h-90v667h90v-667zM207 761l-41 -34l-69 74l-64 -74l-46 34l111 124z" />
    <glyph glyph-name="Idieresis" unicode="&#xcf;" horiz-adv-x="193" 
d="M141 0h-90v667h90v-667zM216 771c0 -14 -4.83301 -25.833 -14.5 -35.5s-21.5 -14.5 -35.5 -14.5s-25.833 4.83301 -35.5 14.5s-14.5 21.5 -14.5 35.5s4.83301 25.833 14.5 35.5s21.5 14.5 35.5 14.5s25.833 -4.83301 35.5 -14.5s14.5 -21.5 14.5 -35.5zM68 771
c0 -14 -4.83301 -25.833 -14.5 -35.5s-21.5 -14.5 -35.5 -14.5s-25.833 4.83301 -35.5 14.5s-14.5 21.5 -14.5 35.5s4.83301 25.833 14.5 35.5s21.5 14.5 35.5 14.5s25.833 -4.83301 35.5 -14.5s14.5 -21.5 14.5 -35.5z" />
    <glyph glyph-name="Eth" unicode="&#xd0;" horiz-adv-x="411" 
d="M51 667l111.001 -0.00195312c36 0 65.333 -4 88 -12s43.667 -24.333 63 -49c40 -52 60 -145 60 -279c0 -137.333 -21.333 -228.666 -64 -273.999c-14.667 -15.333 -33.334 -27.166 -56.001 -35.499s-43 -13.333 -61 -15s-40.667 -2.5 -68 -2.5h-73v330h-50v69h50v268z
M141.001 329.998v-252c42 -0.666992 72.667 8.33301 92 27s32.333 49 39 91c4.66699 32 7 73.667 7 125s-2 94.333 -6 129c-6 46 -17.333 81 -34 105s-46 36 -88 36h-10v-192h87v-69h-87z" />
    <glyph glyph-name="Ntilde" unicode="&#xd1;" horiz-adv-x="413" 
d="M362 0l-84.002 -0.000976562l-110 331c-12 36 -20.333 63.333 -25 82c-2 8.66699 -5.33301 24.5 -10 47.5s-8.66699 40.5 -12 52.5c2 -14.667 4.66699 -48.334 8 -101.001c4.66699 -76 8.33398 -213.333 11.001 -412h-89v667h84l33 -96c18.667 -54 31 -90.667 37 -110
l29.5 -91.5c13.667 -41.667 24.834 -78.667 33.501 -111s17 -65.166 25 -98.499c-14 106.667 -21 191.334 -21 254.001v253h90v-667zM268.998 814.999l48.999 0.000976562c0 -58.667 -22 -88 -66 -88c-10.667 0 -24.667 4.66699 -42 14s-30.666 14 -39.999 14
c-13.333 0 -20 -8 -20 -24h-54c2.66699 58.667 25 88 67 88c14 0 30.333 -5 49 -15s31.667 -15 39 -15c2.66699 0 4.83398 0.333008 6.50098 1s3 1.66699 4 3s2 3 3 5s1.66699 3.83301 2 5.5s0.666016 3.66699 0.999023 6s0.833008 4.16602 1.5 5.49902z" />
    <glyph glyph-name="Ograve" unicode="&#xd2;" horiz-adv-x="423" 
d="M385 321c0 -61.333 -3.33301 -113.667 -10 -157c-9.33301 -55.333 -25.833 -98 -49.5 -128s-61.167 -45 -112.5 -45c-62 0 -106.667 25 -134 75c-27.333 49.333 -41 143.666 -41 282.999c0 113.333 12 195 36 245c26 54 71.667 81 137 81c59.333 0 103 -23.667 131 -71
c28.667 -49.333 43 -143.666 43 -282.999zM291 345.999c0 83.333 -4.66699 144.999 -14 184.999c-9.33301 42 -31.333 63 -66 63c-22 0 -39.333 -9.33301 -52 -28c-18 -25.333 -27 -90 -27 -194c0 -103.333 3 -173.666 9 -210.999c10 -58 33.667 -87 71 -87
c29.333 0 50 16 62 48c11.333 32 17 106.667 17 224zM260 754.998l-47 -28l-107 115l68 42z" />
    <glyph glyph-name="Oacute" unicode="&#xd3;" horiz-adv-x="423" 
d="M385 321c0 -61.333 -3.33301 -113.667 -10 -157c-9.33301 -55.333 -25.833 -98 -49.5 -128s-61.167 -45 -112.5 -45c-62 0 -106.667 25 -134 75c-27.333 49.333 -41 143.666 -41 282.999c0 113.333 12 195 36 245c26 54 71.667 81 137 81c59.333 0 103 -23.667 131 -71
c28.667 -49.333 43 -143.666 43 -282.999zM291 345.999c0 83.333 -4.66699 144.999 -14 184.999c-9.33301 42 -31.333 63 -66 63c-22 0 -39.333 -9.33301 -52 -28c-18 -25.333 -27 -90 -27 -194c0 -103.333 3 -173.666 9 -210.999c10 -58 33.667 -87 71 -87
c29.333 0 50 16 62 48c11.333 32 17 106.667 17 224zM162 754.998l86 129l68 -42l-107 -115z" />
    <glyph glyph-name="Ocircumflex" unicode="&#xd4;" horiz-adv-x="423" 
d="M385 321c0 -61.333 -3.33301 -113.667 -10 -157c-9.33301 -55.333 -25.833 -98 -49.5 -128s-61.167 -45 -112.5 -45c-62 0 -106.667 25 -134 75c-27.333 49.333 -41 143.666 -41 282.999c0 113.333 12 195 36 245c26 54 71.667 81 137 81c59.333 0 103 -23.667 131 -71
c28.667 -49.333 43 -143.666 43 -282.999zM291 345.999c0 83.333 -4.66699 144.999 -14 184.999c-9.33301 42 -31.333 63 -66 63c-22 0 -39.333 -9.33301 -52 -28c-18 -25.333 -27 -90 -27 -194c0 -103.333 3 -173.666 9 -210.999c10 -58 33.667 -87 71 -87
c29.333 0 50 16 62 48c11.333 32 17 106.667 17 224zM322 760.998l-41 -34l-69 74l-64 -74l-46 34l111 124z" />
    <glyph glyph-name="Otilde" unicode="&#xd5;" horiz-adv-x="423" 
d="M385 321c0 -61.333 -3.33301 -113.667 -10 -157c-9.33301 -55.333 -25.833 -98 -49.5 -128s-61.167 -45 -112.5 -45c-62 0 -106.667 25 -134 75c-27.333 49.333 -41 143.666 -41 282.999c0 113.333 12 195 36 245c26 54 71.667 81 137 81c59.333 0 103 -23.667 131 -71
c28.667 -49.333 43 -143.666 43 -282.999zM291 345.999c0 83.333 -4.66699 144.999 -14 184.999c-9.33301 42 -31.333 63 -66 63c-22 0 -39.333 -9.33301 -52 -28c-18 -25.333 -27 -90 -27 -194c0 -103.333 3 -173.666 9 -210.999c10 -58 33.667 -87 71 -87
c29.333 0 50 16 62 48c11.333 32 17 106.667 17 224zM274 814.998l48.999 0.000976562c0 -58.667 -22 -88 -66 -88c-11.333 0 -25.666 4.66699 -42.999 14s-30.333 14 -39 14c-13.333 0 -20 -8 -20 -24h-54c2.66699 58.667 25 88 67 88c13.333 0 29.333 -5 48 -15
s32 -15 40 -15c2.66699 0 4.83398 0.333008 6.50098 1s3 1.66699 4 3s2 3 3 5s1.66699 3.83301 2 5.5s0.666016 3.66699 0.999023 6s0.833008 4.16602 1.5 5.49902z" />
    <glyph glyph-name="Odieresis" unicode="&#xd6;" horiz-adv-x="423" 
d="M385 321c0 -61.333 -3.33301 -113.667 -10 -157c-9.33301 -55.333 -25.833 -98 -49.5 -128s-61.167 -45 -112.5 -45c-62 0 -106.667 25 -134 75c-27.333 49.333 -41 143.666 -41 282.999c0 113.333 12 195 36 245c26 54 71.667 81 137 81c59.333 0 103 -23.667 131 -71
c28.667 -49.333 43 -143.666 43 -282.999zM291 345.999c0 83.333 -4.66699 144.999 -14 184.999c-9.33301 42 -31.333 63 -66 63c-22 0 -39.333 -9.33301 -52 -28c-18 -25.333 -27 -90 -27 -194c0 -103.333 3 -173.666 9 -210.999c10 -58 33.667 -87 71 -87
c29.333 0 50 16 62 48c11.333 32 17 106.667 17 224zM331 770.998c0 -14 -4.83301 -25.833 -14.5 -35.5s-21.5 -14.5 -35.5 -14.5s-25.833 4.83301 -35.5 14.5s-14.5 21.5 -14.5 35.5s4.83301 25.833 14.5 35.5s21.5 14.5 35.5 14.5s25.833 -4.83301 35.5 -14.5
s14.5 -21.5 14.5 -35.5zM183 770.998c0 -14 -4.83301 -25.833 -14.5 -35.5s-21.5 -14.5 -35.5 -14.5s-25.833 4.83301 -35.5 14.5s-14.5 21.5 -14.5 35.5s4.83301 25.833 14.5 35.5s21.5 14.5 35.5 14.5s25.833 -4.83301 35.5 -14.5s14.5 -21.5 14.5 -35.5z" />
    <glyph glyph-name="multiply" unicode="&#xd7;" 
d="M377 154l-127 126l-127 -126l-53 53l126 127l-126 127l53 53l127 -126l127 126l53 -53l-126 -127l126 -127z" />
    <glyph glyph-name="Oslash" unicode="&#xd8;" horiz-adv-x="454" 
d="M416 659l-43 -88.001c20 -46.667 30 -131 30 -253c0 -24 -0.166992 -42.833 -0.5 -56.5s-1.5 -33.667 -3.5 -60s-5 -47.5 -9 -63.5s-10.167 -34.333 -18.5 -55s-18.166 -37 -29.499 -49s-26 -22.167 -44 -30.5s-38.667 -12.5 -62 -12.5c-56 0 -95.667 16.667 -119 50
l-35 -71l-44 31l48 96c-20 50.667 -30 137.334 -30 260.001c0 24 0.166992 43.167 0.5 57.5s1.66602 34.166 3.99902 59.499s5.5 45.833 9.5 61.5s10.167 33.334 18.5 53.001s18.333 35 30 46s26.667 20.5 45 28.5s39.166 12 62.499 12c52.667 0 91.334 -16.333 116.001 -49
l31 61zM152 228.999l142.999 302c-7.33301 42 -29.666 63 -66.999 63c-22.667 0 -40 -9 -52 -27c-17.333 -24 -26 -86 -26 -186c0 -70 0.666992 -120.667 2 -152zM304.999 440.999l-142 -300.999c4 -13.333 8 -24 12 -32s11 -15.5 21 -22.5s22 -10.5 36 -10.5
c30 0 50.333 15.667 61 47c10 29.333 15 90.666 15 183.999c0 62.667 -1 107.667 -3 135z" />
    <glyph glyph-name="Ugrave" unicode="&#xd9;" horiz-adv-x="409" 
d="M358 667l-0.00195312 -490.001c0 -63.333 -10.667 -110.166 -32 -140.499s-62.333 -45.5 -123 -45.5c-57.333 0 -97 15.667 -119 47s-33 76.666 -33 135.999v493h88v-490c0 -15.333 0.666992 -27.833 2 -37.5s4 -20 8 -31s10.833 -19.167 20.5 -24.5s21.834 -8 36.501 -8
c12.667 0 23.334 2.16699 32.001 6.5s15 9 19 14s7 13.167 9 24.5s3.16699 19.833 3.5 25.5s0.5 15.834 0.5 30.501v490h88zM253.998 754.999l-47 -28l-107 115l68 42z" />
    <glyph glyph-name="Uacute" unicode="&#xda;" horiz-adv-x="409" 
d="M358 667l-0.00195312 -490.001c0 -63.333 -10.667 -110.166 -32 -140.499s-62.333 -45.5 -123 -45.5c-57.333 0 -97 15.667 -119 47s-33 76.666 -33 135.999v493h88v-490c0 -15.333 0.666992 -27.833 2 -37.5s4 -20 8 -31s10.833 -19.167 20.5 -24.5s21.834 -8 36.501 -8
c12.667 0 23.334 2.16699 32.001 6.5s15 9 19 14s7 13.167 9 24.5s3.16699 19.833 3.5 25.5s0.5 15.834 0.5 30.501v490h88zM160.998 754.999l86 129l68 -42l-107 -115z" />
    <glyph glyph-name="Ucircumflex" unicode="&#xdb;" horiz-adv-x="409" 
d="M358 667l-0.00195312 -490.001c0 -63.333 -10.667 -110.166 -32 -140.499s-62.333 -45.5 -123 -45.5c-57.333 0 -97 15.667 -119 47s-33 76.666 -33 135.999v493h88v-490c0 -15.333 0.666992 -27.833 2 -37.5s4 -20 8 -31s10.833 -19.167 20.5 -24.5s21.834 -8 36.501 -8
c12.667 0 23.334 2.16699 32.001 6.5s15 9 19 14s7 13.167 9 24.5s3.16699 19.833 3.5 25.5s0.5 15.834 0.5 30.501v490h88zM314.998 760.999l-41 -34l-69 74l-64 -74l-46 34l111 124z" />
    <glyph glyph-name="Udieresis" unicode="&#xdc;" horiz-adv-x="409" 
d="M358 667l-0.00195312 -490.001c0 -63.333 -10.667 -110.166 -32 -140.499s-62.333 -45.5 -123 -45.5c-57.333 0 -97 15.667 -119 47s-33 76.666 -33 135.999v493h88v-490c0 -15.333 0.666992 -27.833 2 -37.5s4 -20 8 -31s10.833 -19.167 20.5 -24.5s21.834 -8 36.501 -8
c12.667 0 23.334 2.16699 32.001 6.5s15 9 19 14s7 13.167 9 24.5s3.16699 19.833 3.5 25.5s0.5 15.834 0.5 30.501v490h88zM323.998 770.999c0 -14 -4.83301 -25.833 -14.5 -35.5s-21.5 -14.5 -35.5 -14.5s-25.833 4.83301 -35.5 14.5s-14.5 21.5 -14.5 35.5
s4.83301 25.833 14.5 35.5s21.5 14.5 35.5 14.5s25.833 -4.83301 35.5 -14.5s14.5 -21.5 14.5 -35.5zM175.998 770.999c0 -14 -4.83301 -25.833 -14.5 -35.5s-21.5 -14.5 -35.5 -14.5s-25.833 4.83301 -35.5 14.5s-14.5 21.5 -14.5 35.5s4.83301 25.833 14.5 35.5
s21.5 14.5 35.5 14.5s25.833 -4.83301 35.5 -14.5s14.5 -21.5 14.5 -35.5z" />
    <glyph glyph-name="Yacute" unicode="&#xdd;" horiz-adv-x="341" 
d="M343 667l-116 -380v-287h-90v287l-139 380h95l54 -179c15.333 -50.667 26.333 -94 33 -130c8 49.333 16.667 93.333 26 132l44 177h93zM122 755l86 129l68 -42l-107 -115z" />
    <glyph glyph-name="Thorn" unicode="&#xde;" horiz-adv-x="351" 
d="M141 573h28.001c42 0 74.333 -7 97 -21c44 -27.333 66 -80 66 -158c0 -97.333 -31 -157.333 -93 -180c-22.667 -8 -55.334 -12 -98.001 -12v-202h-90v667h90v-94zM141.001 279h8.00098c33.333 0 56.666 8.5 69.999 25.5s20 42.833 20 77.5c0 76.667 -27.667 115 -83 115
h-15v-218z" />
    <glyph glyph-name="germandbls" unicode="&#xdf;" horiz-adv-x="378" 
d="M60 0l0.00292969 372h-50v75h50v135c0 54.667 10 94.667 30 120s56.333 38 109 38c50.667 0 85.667 -15.333 105 -46s29 -80 29 -148c0 -75.333 -21 -120.666 -63 -135.999c20.667 -6 36.667 -15 48 -27c20 -22.667 30 -83.334 30 -182.001
c0 -74.667 -10.667 -128.334 -32 -161.001c-18 -27.333 -52 -41 -102 -41c-14 0 -24.667 0.333008 -32 1v76c23.333 0 39.666 4 48.999 12c17.333 15.333 26 57 26 125c0 46.667 -2 79.334 -6 98.001c-4.66699 22 -12.834 37.5 -24.501 46.5s-28.167 13.833 -49.5 14.5v75
c-0.666992 -0.666992 1.33301 -1 6 -1c26.667 0 44.167 8 52.5 24s12.5 38.667 12.5 68c0 28.667 -0.833008 50.5 -2.5 65.5s-6.5 28 -14.5 39s-20 16.5 -36 16.5c-10 0 -18.5 -2.16699 -25.5 -6.5s-12.333 -9.33301 -16 -15s-6.33398 -13.5 -8.00098 -23.5
s-2.66699 -18 -3 -24s-0.5 -14.667 -0.5 -26v-564h-82z" />
    <glyph glyph-name="agrave" unicode="&#xe0;" horiz-adv-x="349" 
d="M302 0l-83.001 -0.000976562v57c-9.33301 -21.333 -20 -37.333 -32 -48s-28.667 -16 -50 -16c-16.667 0 -31.5 3.83301 -44.5 11.5s-23.167 19 -30.5 34s-13.333 29.667 -18 44s-8 32 -10 53s-3.16699 37.5 -3.5 49.5s-0.5 26.667 -0.5 44s0.333008 31.833 1 43.5
s1.83398 27.5 3.50098 47.5s5 36.833 10 50.5s11.167 27.334 18.5 41.001s17.5 24.167 30.5 31.5s27.833 11 44.5 11c34 0 61 -19.333 81 -58v51h83v-447zM221.999 198.999v48c0 88 -17.667 132 -53 132c-36 0 -54 -41.667 -54 -125v-61c0 -84 18 -126 54 -126
c35.333 0 53 44 53 132zM233.999 540.999l-47 -28l-107 115l68 42z" />
    <glyph glyph-name="aacute" unicode="&#xe1;" horiz-adv-x="349" 
d="M302 0l-83.001 -0.000976562v57c-9.33301 -21.333 -20 -37.333 -32 -48s-28.667 -16 -50 -16c-16.667 0 -31.5 3.83301 -44.5 11.5s-23.167 19 -30.5 34s-13.333 29.667 -18 44s-8 32 -10 53s-3.16699 37.5 -3.5 49.5s-0.5 26.667 -0.5 44s0.333008 31.833 1 43.5
s1.83398 27.5 3.50098 47.5s5 36.833 10 50.5s11.167 27.334 18.5 41.001s17.5 24.167 30.5 31.5s27.833 11 44.5 11c34 0 61 -19.333 81 -58v51h83v-447zM221.999 198.999v48c0 88 -17.667 132 -53 132c-36 0 -54 -41.667 -54 -125v-61c0 -84 18 -126 54 -126
c35.333 0 53 44 53 132zM110.999 540.999l86 129l68 -42l-107 -115z" />
    <glyph glyph-name="acircumflex" unicode="&#xe2;" horiz-adv-x="349" 
d="M302 0l-83.001 -0.000976562v57c-9.33301 -21.333 -20 -37.333 -32 -48s-28.667 -16 -50 -16c-16.667 0 -31.5 3.83301 -44.5 11.5s-23.167 19 -30.5 34s-13.333 29.667 -18 44s-8 32 -10 53s-3.16699 37.5 -3.5 49.5s-0.5 26.667 -0.5 44s0.333008 31.833 1 43.5
s1.83398 27.5 3.50098 47.5s5 36.833 10 50.5s11.167 27.334 18.5 41.001s17.5 24.167 30.5 31.5s27.833 11 44.5 11c34 0 61 -19.333 81 -58v51h83v-447zM221.999 198.999v48c0 88 -17.667 132 -53 132c-36 0 -54 -41.667 -54 -125v-61c0 -84 18 -126 54 -126
c35.333 0 53 44 53 132zM279.999 546.999l-41 -34l-69 74l-64 -74l-46 34l111 124z" />
    <glyph glyph-name="atilde" unicode="&#xe3;" horiz-adv-x="349" 
d="M302 0l-83.001 -0.000976562v57c-9.33301 -21.333 -20 -37.333 -32 -48s-28.667 -16 -50 -16c-16.667 0 -31.5 3.83301 -44.5 11.5s-23.167 19 -30.5 34s-13.333 29.667 -18 44s-8 32 -10 53s-3.16699 37.5 -3.5 49.5s-0.5 26.667 -0.5 44s0.333008 31.833 1 43.5
s1.83398 27.5 3.50098 47.5s5 36.833 10 50.5s11.167 27.334 18.5 41.001s17.5 24.167 30.5 31.5s27.833 11 44.5 11c34 0 61 -19.333 81 -58v51h83v-447zM221.999 198.999v48c0 88 -17.667 132 -53 132c-36 0 -54 -41.667 -54 -125v-61c0 -84 18 -126 54 -126
c35.333 0 53 44 53 132zM236.999 600.999l48.999 0.000976562c0 -58.667 -22 -88 -66 -88c-10.667 0 -24.667 4.66699 -42 14s-30.666 14 -39.999 14c-13.333 0 -20 -8 -20 -24h-54c2.66699 58.667 25 88 67 88c14 0 30.333 -5 49 -15s31.667 -15 39 -15
c2.66699 0 4.83398 0.333008 6.50098 1s3 1.66699 4 3s2 3 3 5s1.66699 3.83301 2 5.5s0.666016 3.66699 0.999023 6s0.833008 4.16602 1.5 5.49902z" />
    <glyph glyph-name="adieresis" unicode="&#xe4;" horiz-adv-x="349" 
d="M302 0l-83.001 -0.000976562v57c-9.33301 -21.333 -20 -37.333 -32 -48s-28.667 -16 -50 -16c-16.667 0 -31.5 3.83301 -44.5 11.5s-23.167 19 -30.5 34s-13.333 29.667 -18 44s-8 32 -10 53s-3.16699 37.5 -3.5 49.5s-0.5 26.667 -0.5 44s0.333008 31.833 1 43.5
s1.83398 27.5 3.50098 47.5s5 36.833 10 50.5s11.167 27.334 18.5 41.001s17.5 24.167 30.5 31.5s27.833 11 44.5 11c34 0 61 -19.333 81 -58v51h83v-447zM221.999 198.999v48c0 88 -17.667 132 -53 132c-36 0 -54 -41.667 -54 -125v-61c0 -84 18 -126 54 -126
c35.333 0 53 44 53 132zM293.999 562.999c0 -14 -4.83301 -25.833 -14.5 -35.5s-21.5 -14.5 -35.5 -14.5s-25.833 4.83301 -35.5 14.5s-14.5 21.5 -14.5 35.5s4.83301 25.833 14.5 35.5s21.5 14.5 35.5 14.5s25.833 -4.83301 35.5 -14.5s14.5 -21.5 14.5 -35.5z
M145.999 562.999c0 -14 -4.83301 -25.833 -14.5 -35.5s-21.5 -14.5 -35.5 -14.5s-25.833 4.83301 -35.5 14.5s-14.5 21.5 -14.5 35.5s4.83301 25.833 14.5 35.5s21.5 14.5 35.5 14.5s25.833 -4.83301 35.5 -14.5s14.5 -21.5 14.5 -35.5z" />
    <glyph glyph-name="aring" unicode="&#xe5;" horiz-adv-x="349" 
d="M302 0l-83.001 -0.000976562v57c-9.33301 -21.333 -20 -37.333 -32 -48s-28.667 -16 -50 -16c-16.667 0 -31.5 3.83301 -44.5 11.5s-23.167 19 -30.5 34s-13.333 29.667 -18 44s-8 32 -10 53s-3.16699 37.5 -3.5 49.5s-0.5 26.667 -0.5 44s0.333008 31.833 1 43.5
s1.83398 27.5 3.50098 47.5s5 36.833 10 50.5s11.167 27.334 18.5 41.001s17.5 24.167 30.5 31.5s27.833 11 44.5 11c34 0 61 -19.333 81 -58v51h83v-447zM221.999 198.999v48c0 88 -17.667 132 -53 132c-36 0 -54 -41.667 -54 -125v-61c0 -84 18 -126 54 -126
c35.333 0 53 44 53 132zM79.999 599.999c0 24 8.16699 44.167 24.5 60.5s36.5 24.5 60.5 24.5s44.167 -8.16699 60.5 -24.5s24.5 -36.5 24.5 -60.5s-8.16699 -44.167 -24.5 -60.5s-36.5 -24.5 -60.5 -24.5s-44.167 8.16699 -60.5 24.5s-24.5 36.5 -24.5 60.5z
M124.999 599.999c0 -11.333 3.83301 -20.833 11.5 -28.5s17.167 -11.5 28.5 -11.5s20.833 3.83301 28.5 11.5s11.5 17.167 11.5 28.5s-3.83301 20.833 -11.5 28.5s-17.167 11.5 -28.5 11.5s-20.833 -3.83301 -28.5 -11.5s-11.5 -17.167 -11.5 -28.5z" />
    <glyph glyph-name="ae" unicode="&#xe6;" horiz-adv-x="505" 
d="M396 153l78.999 -0.000976562c-2.66699 -50 -13.334 -89.167 -32.001 -117.5s-51 -42.5 -97 -42.5c-51.333 0 -86.666 23.333 -105.999 70c-10.667 -24.667 -23.667 -42.5 -39 -53.5s-36 -16.5 -62 -16.5c-72.667 0 -109 48 -109 144c0 42 8.5 77.667 25.5 107
s45.167 44 84.5 44c30 0 53.333 -9.66699 70 -29c0 3.33301 -0.166992 10.5 -0.5 21.5s-0.666016 18.333 -0.999023 22s-1.16602 9.83398 -2.49902 18.501s-3 14.667 -5 18l-8 13.5c-3.33301 5.66699 -7.5 9.66699 -12.5 12s-11.333 4.5 -19 6.5s-16.167 3 -25.5 3
c-28.667 0 -56.667 -8.66699 -84 -26v84c32 14.667 62 22 90 22c49.333 0 84.666 -19 105.999 -57c22.667 38 54.667 57 96 57c20 0 37.833 -3.83301 53.5 -11.5s28 -18.667 37 -33s16.5 -29 22.5 -44s10.167 -33.333 12.5 -55s3.83301 -39.5 4.5 -53.5s1 -31 1 -51h-184
v-18c0 -84.667 19 -127 57 -127c32 0 48 30.667 48 92zM391.999 265.999v20c0 66.667 -16.667 100 -50 100s-50 -33 -50 -99v-21h100zM215.999 141.999c0 54 -17.333 81 -52 81c-34 0 -51 -25.667 -51 -77c0 -58 17 -87 51 -87c34.667 0 52 27.667 52 83z" />
    <glyph glyph-name="ccedilla" unicode="&#xe7;" horiz-adv-x="253" 
d="M229 88l0.00292969 -77.001c-20.667 -12 -42.667 -18 -66 -18c-88.667 0 -133 76 -133 228c0 28.667 1.33301 54.334 4 77.001s8.16699 47 16.5 73s22.166 46.333 41.499 61s43.666 22 72.999 22c22 0 43.333 -5.33301 64 -16v-84c-10.667 14 -24.334 21 -41.001 21
c-45.333 0 -68 -49.333 -68 -148c0 -104 22.333 -156 67 -156c14.667 0 28.667 5.66699 42 17zM204.003 -74.001l-76 -117l-38 20l55 126z" />
    <glyph glyph-name="egrave" unicode="&#xe8;" horiz-adv-x="326" 
d="M299 207h-188.001c0 -95.333 19 -143 57 -143c34 0 51 29 51 87h77c-1.33301 -39.333 -7 -69.333 -17 -90c-21.333 -45.333 -58.666 -68 -111.999 -68c-24 0 -44.833 5 -62.5 15s-31.167 22.333 -40.5 37s-16.666 33.167 -21.999 55.5s-8.66602 42.333 -9.99902 60
s-2 38.167 -2 61.5c0 28.667 1.33301 54.167 4 76.5s8.16699 46.5 16.5 72.5s22.166 46.333 41.499 61s43.666 22 72.999 22c24 0 44.667 -5.83301 62 -17.5s30.5 -25.667 39.5 -42s16.167 -36.833 21.5 -61.5s8.5 -46 9.5 -64s1.5 -38.667 1.5 -62zM110.999 267h104
c-2.66699 49.333 -8.66699 81.333 -18 96c-8 14 -19.333 21 -34 21c-30.667 0 -48 -36.667 -52 -110v-4v-3zM228.999 541l-47 -28l-107 115l68 42z" />
    <glyph glyph-name="eacute" unicode="&#xe9;" horiz-adv-x="326" 
d="M299 207h-188.001c0 -95.333 19 -143 57 -143c34 0 51 29 51 87h77c-1.33301 -39.333 -7 -69.333 -17 -90c-21.333 -45.333 -58.666 -68 -111.999 -68c-24 0 -44.833 5 -62.5 15s-31.167 22.333 -40.5 37s-16.666 33.167 -21.999 55.5s-8.66602 42.333 -9.99902 60
s-2 38.167 -2 61.5c0 28.667 1.33301 54.167 4 76.5s8.16699 46.5 16.5 72.5s22.166 46.333 41.499 61s43.666 22 72.999 22c24 0 44.667 -5.83301 62 -17.5s30.5 -25.667 39.5 -42s16.167 -36.833 21.5 -61.5s8.5 -46 9.5 -64s1.5 -38.667 1.5 -62zM110.999 267h104
c-2.66699 49.333 -8.66699 81.333 -18 96c-8 14 -19.333 21 -34 21c-30.667 0 -48 -36.667 -52 -110v-4v-3zM112.999 541l86 129l68 -42l-107 -115z" />
    <glyph glyph-name="ecircumflex" unicode="&#xea;" horiz-adv-x="326" 
d="M299 207h-188.001c0 -95.333 19 -143 57 -143c34 0 51 29 51 87h77c-1.33301 -39.333 -7 -69.333 -17 -90c-21.333 -45.333 -58.666 -68 -111.999 -68c-24 0 -44.833 5 -62.5 15s-31.167 22.333 -40.5 37s-16.666 33.167 -21.999 55.5s-8.66602 42.333 -9.99902 60
s-2 38.167 -2 61.5c0 28.667 1.33301 54.167 4 76.5s8.16699 46.5 16.5 72.5s22.166 46.333 41.499 61s43.666 22 72.999 22c24 0 44.667 -5.83301 62 -17.5s30.5 -25.667 39.5 -42s16.167 -36.833 21.5 -61.5s8.5 -46 9.5 -64s1.5 -38.667 1.5 -62zM110.999 267h104
c-2.66699 49.333 -8.66699 81.333 -18 96c-8 14 -19.333 21 -34 21c-30.667 0 -48 -36.667 -52 -110v-4v-3zM272.999 547l-41 -34l-69 74l-64 -74l-46 34l111 124z" />
    <glyph glyph-name="edieresis" unicode="&#xeb;" horiz-adv-x="326" 
d="M299 207h-188.001c0 -95.333 19 -143 57 -143c34 0 51 29 51 87h77c-1.33301 -39.333 -7 -69.333 -17 -90c-21.333 -45.333 -58.666 -68 -111.999 -68c-24 0 -44.833 5 -62.5 15s-31.167 22.333 -40.5 37s-16.666 33.167 -21.999 55.5s-8.66602 42.333 -9.99902 60
s-2 38.167 -2 61.5c0 28.667 1.33301 54.167 4 76.5s8.16699 46.5 16.5 72.5s22.166 46.333 41.499 61s43.666 22 72.999 22c24 0 44.667 -5.83301 62 -17.5s30.5 -25.667 39.5 -42s16.167 -36.833 21.5 -61.5s8.5 -46 9.5 -64s1.5 -38.667 1.5 -62zM110.999 267h104
c-2.66699 49.333 -8.66699 81.333 -18 96c-8 14 -19.333 21 -34 21c-30.667 0 -48 -36.667 -52 -110v-4v-3zM281.999 563c0 -14 -4.83301 -25.833 -14.5 -35.5s-21.5 -14.5 -35.5 -14.5s-25.833 4.83301 -35.5 14.5s-14.5 21.5 -14.5 35.5s4.83301 25.833 14.5 35.5
s21.5 14.5 35.5 14.5s25.833 -4.83301 35.5 -14.5s14.5 -21.5 14.5 -35.5zM133.999 563c0 -14 -4.83301 -25.833 -14.5 -35.5s-21.5 -14.5 -35.5 -14.5s-25.833 4.83301 -35.5 14.5s-14.5 21.5 -14.5 35.5s4.83301 25.833 14.5 35.5s21.5 14.5 35.5 14.5
s25.833 -4.83301 35.5 -14.5s14.5 -21.5 14.5 -35.5z" />
    <glyph glyph-name="igrave" unicode="&#xec;" horiz-adv-x="176" 
d="M129 0h-82v447h82v-447zM139 541l-47 -28l-107 115l68 42z" />
    <glyph glyph-name="iacute" unicode="&#xed;" horiz-adv-x="176" 
d="M129 0h-82v447h82v-447zM36 541l86 129l68 -42l-107 -115z" />
    <glyph glyph-name="icircumflex" unicode="&#xee;" horiz-adv-x="176" 
d="M129 0h-82v447h82v-447zM198 547l-41 -34l-69 74l-64 -74l-46 34l111 124z" />
    <glyph glyph-name="idieresis" unicode="&#xef;" horiz-adv-x="176" 
d="M129 0h-82v447h82v-447zM207 563c0 -14 -4.83301 -25.833 -14.5 -35.5s-21.5 -14.5 -35.5 -14.5s-25.833 4.83301 -35.5 14.5s-14.5 21.5 -14.5 35.5s4.83301 25.833 14.5 35.5s21.5 14.5 35.5 14.5s25.833 -4.83301 35.5 -14.5s14.5 -21.5 14.5 -35.5zM59 563
c0 -14 -4.83301 -25.833 -14.5 -35.5s-21.5 -14.5 -35.5 -14.5s-25.833 4.83301 -35.5 14.5s-14.5 21.5 -14.5 35.5s4.83301 25.833 14.5 35.5s21.5 14.5 35.5 14.5s25.833 -4.83301 35.5 -14.5s14.5 -21.5 14.5 -35.5z" />
    <glyph glyph-name="eth" unicode="&#xf0;" horiz-adv-x="341" 
d="M273 675l-71.001 -49c72.667 -90.667 109 -222.334 109 -395.001c0 -24 -0.666992 -45.333 -2 -64s-4.83301 -39.5 -10.5 -62.5s-13.167 -42 -22.5 -57s-23.166 -27.833 -41.499 -38.5s-39.833 -16 -64.5 -16c-93.333 0 -140 76 -140 228c0 30 1.5 56.5 4.5 79.5
s8.83301 47.333 17.5 73s23 45.5 43 59.5s45 21 75 21c9.33301 0 19 -1 29 -3c-10 47.333 -29.333 92 -58 134l-77 -53l-31 46l75 51c-27.333 24.667 -51 44.334 -71 59.001l46 52c36.667 -26.667 64 -49.667 82 -69l75 54zM225.999 196v50c0 88.667 -17.667 133 -53 133
c-22 0 -36.5 -13.167 -43.5 -39.5s-10.5 -60.833 -10.5 -103.5v-40c0 -85.333 18 -128 54 -128c35.333 0 53 42.667 53 128z" />
    <glyph glyph-name="ntilde" unicode="&#xf1;" horiz-adv-x="358" 
d="M311 0l-81.999 -0.00292969v290c-0.666992 14.667 -1.33398 25.834 -2.00098 33.501s-2.33398 16.834 -5.00098 27.501s-7.5 18.5 -14.5 23.5s-15.833 7.5 -26.5 7.5c-12 0 -21.833 -2.66699 -29.5 -8s-13 -13.666 -16 -24.999s-4.83301 -20.833 -5.5 -28.5
s-1 -18.167 -1 -31.5v-289h-82v447h82v-52c12.667 20 25.834 34.833 39.501 44.5s31.167 14.5 52.5 14.5c18.667 0 34.167 -3.33301 46.5 -10s21.5 -16.334 27.5 -29.001s10.167 -25.667 12.5 -39s3.5 -28.666 3.5 -45.999v-330zM241.001 600.997l48.999 0.000976562
c0 -58.667 -22 -88 -66 -88c-10.667 0 -24.667 4.66699 -42 14s-30.666 14 -39.999 14c-13.333 0 -20 -8 -20 -24h-54c2.66699 58.667 25 88 67 88c14 0 30.333 -5 49 -15s31.667 -15 39 -15c2.66699 0 4.83398 0.333008 6.50098 1s3 1.66699 4 3s2 3 3 5
s1.66699 3.83301 2 5.5s0.666016 3.66699 0.999023 6s0.833008 4.16602 1.5 5.49902z" />
    <glyph glyph-name="ograve" unicode="&#xf2;" horiz-adv-x="341" 
d="M311 223c0 -29.333 -1.49805 -55.332 -4.49805 -77.999s-9 -46.667 -18 -72s-23.5 -45 -43.5 -59s-45 -21 -75 -21c-24 0 -44.833 5 -62.5 15s-31.334 22.5 -41.001 37.5s-17.334 33.5 -23.001 55.5s-9.33398 42.167 -11.001 60.5s-2.5 38.833 -2.5 61.5
s0.666992 43.167 2 61.5s4.83301 38.666 10.5 60.999s13.334 40.833 23.001 55.5s23.5 27.167 41.5 37.5s39 15.5 63 15.5c30 0 55 -7 75 -21s34.5 -33.667 43.5 -59s15 -49.5 18 -72.5s4.5 -49.167 4.5 -78.5zM225.002 197.001v54c0 85.333 -17.667 128 -53 128
s-53 -42.333 -53 -127v-54c0 -85.333 17.667 -128 53 -128s53 42.333 53 127zM224.002 541.001l-47 -28l-107 115l68 42z" />
    <glyph glyph-name="oacute" unicode="&#xf3;" horiz-adv-x="341" 
d="M311 223c0 -29.333 -1.49805 -55.332 -4.49805 -77.999s-9 -46.667 -18 -72s-23.5 -45 -43.5 -59s-45 -21 -75 -21c-24 0 -44.833 5 -62.5 15s-31.334 22.5 -41.001 37.5s-17.334 33.5 -23.001 55.5s-9.33398 42.167 -11.001 60.5s-2.5 38.833 -2.5 61.5
s0.666992 43.167 2 61.5s4.83301 38.666 10.5 60.999s13.334 40.833 23.001 55.5s23.5 27.167 41.5 37.5s39 15.5 63 15.5c30 0 55 -7 75 -21s34.5 -33.667 43.5 -59s15 -49.5 18 -72.5s4.5 -49.167 4.5 -78.5zM225.002 197.001v54c0 85.333 -17.667 128 -53 128
s-53 -42.333 -53 -127v-54c0 -85.333 17.667 -128 53 -128s53 42.333 53 127zM121.002 541.001l86 129l68 -42l-107 -115z" />
    <glyph glyph-name="ocircumflex" unicode="&#xf4;" horiz-adv-x="341" 
d="M311 223c0 -29.333 -1.49805 -55.332 -4.49805 -77.999s-9 -46.667 -18 -72s-23.5 -45 -43.5 -59s-45 -21 -75 -21c-24 0 -44.833 5 -62.5 15s-31.334 22.5 -41.001 37.5s-17.334 33.5 -23.001 55.5s-9.33398 42.167 -11.001 60.5s-2.5 38.833 -2.5 61.5
s0.666992 43.167 2 61.5s4.83301 38.666 10.5 60.999s13.334 40.833 23.001 55.5s23.5 27.167 41.5 37.5s39 15.5 63 15.5c30 0 55 -7 75 -21s34.5 -33.667 43.5 -59s15 -49.5 18 -72.5s4.5 -49.167 4.5 -78.5zM225.002 197.001v54c0 85.333 -17.667 128 -53 128
s-53 -42.333 -53 -127v-54c0 -85.333 17.667 -128 53 -128s53 42.333 53 127zM281.002 547.001l-41 -34l-69 74l-64 -74l-46 34l111 124z" />
    <glyph glyph-name="otilde" unicode="&#xf5;" horiz-adv-x="341" 
d="M311 223c0 -29.333 -1.49805 -55.332 -4.49805 -77.999s-9 -46.667 -18 -72s-23.5 -45 -43.5 -59s-45 -21 -75 -21c-24 0 -44.833 5 -62.5 15s-31.334 22.5 -41.001 37.5s-17.334 33.5 -23.001 55.5s-9.33398 42.167 -11.001 60.5s-2.5 38.833 -2.5 61.5
s0.666992 43.167 2 61.5s4.83301 38.666 10.5 60.999s13.334 40.833 23.001 55.5s23.5 27.167 41.5 37.5s39 15.5 63 15.5c30 0 55 -7 75 -21s34.5 -33.667 43.5 -59s15 -49.5 18 -72.5s4.5 -49.167 4.5 -78.5zM225.002 197.001v54c0 85.333 -17.667 128 -53 128
s-53 -42.333 -53 -127v-54c0 -85.333 17.667 -128 53 -128s53 42.333 53 127zM238.002 601.001l48.999 0.000976562c0 -58.667 -22 -88 -66 -88c-11.333 0 -25.666 4.66699 -42.999 14s-30.333 14 -39 14c-13.333 0 -20 -8 -20 -24h-54c2.66699 58.667 25 88 67 88
c13.333 0 29.333 -5 48 -15s32 -15 40 -15c2.66699 0 4.83398 0.333008 6.50098 1s3 1.66699 4 3s2 3 3 5s1.66699 3.83301 2 5.5s0.666016 3.66699 0.999023 6s0.833008 4.16602 1.5 5.49902z" />
    <glyph glyph-name="odieresis" unicode="&#xf6;" horiz-adv-x="341" 
d="M311 223c0 -29.333 -1.49805 -55.332 -4.49805 -77.999s-9 -46.667 -18 -72s-23.5 -45 -43.5 -59s-45 -21 -75 -21c-24 0 -44.833 5 -62.5 15s-31.334 22.5 -41.001 37.5s-17.334 33.5 -23.001 55.5s-9.33398 42.167 -11.001 60.5s-2.5 38.833 -2.5 61.5
s0.666992 43.167 2 61.5s4.83301 38.666 10.5 60.999s13.334 40.833 23.001 55.5s23.5 27.167 41.5 37.5s39 15.5 63 15.5c30 0 55 -7 75 -21s34.5 -33.667 43.5 -59s15 -49.5 18 -72.5s4.5 -49.167 4.5 -78.5zM225.002 197.001v54c0 85.333 -17.667 128 -53 128
s-53 -42.333 -53 -127v-54c0 -85.333 17.667 -128 53 -128s53 42.333 53 127zM290.002 563.001c0 -14 -4.83301 -25.833 -14.5 -35.5s-21.5 -14.5 -35.5 -14.5s-25.833 4.83301 -35.5 14.5s-14.5 21.5 -14.5 35.5s4.83301 25.833 14.5 35.5s21.5 14.5 35.5 14.5
s25.833 -4.83301 35.5 -14.5s14.5 -21.5 14.5 -35.5zM142.002 563.001c0 -14 -4.83301 -25.833 -14.5 -35.5s-21.5 -14.5 -35.5 -14.5s-25.833 4.83301 -35.5 14.5s-14.5 21.5 -14.5 35.5s4.83301 25.833 14.5 35.5s21.5 14.5 35.5 14.5s25.833 -4.83301 35.5 -14.5
s14.5 -21.5 14.5 -35.5z" />
    <glyph glyph-name="divide" unicode="&#xf7;" 
d="M303 514c0 -14.667 -5.16699 -27.167 -15.5 -37.5s-22.833 -15.5 -37.5 -15.5s-27.167 5.16699 -37.5 15.5s-15.5 22.833 -15.5 37.5s5.16699 27.167 15.5 37.5s22.833 15.5 37.5 15.5s27.167 -5.16699 37.5 -15.5s15.5 -22.833 15.5 -37.5zM467 296h-434v76h434v-76z
M303 154c0 -14.667 -5.16699 -27.167 -15.5 -37.5s-22.833 -15.5 -37.5 -15.5s-27.167 5.16699 -37.5 15.5s-15.5 22.833 -15.5 37.5s5.16699 27.167 15.5 37.5s22.833 15.5 37.5 15.5s27.167 -5.16699 37.5 -15.5s15.5 -22.833 15.5 -37.5z" />
    <glyph glyph-name="oslash" unicode="&#xf8;" horiz-adv-x="365" 
d="M335 441l-38.999 -64c16 -39.333 24 -94 24 -164c0 -146.667 -47 -220 -141 -220c-36.667 0 -67.334 12.333 -92.001 37l-23 -38l-34 22l34 55c-16.667 38.667 -25 93 -25 163c0 148 46.667 222 140 222c36 0 66.667 -12.333 92 -37l28 45zM129.001 174l93 167
c-4.66699 12.667 -10 22.167 -16 28.5s-15 9.5 -27 9.5c-34.667 0 -52 -41 -52 -123c0 -18.667 0.666992 -46 2 -82zM232.001 273l-94 -168.001c7.33301 -27.333 22 -41 44 -41c6 0 11.667 1.16699 17 3.5s9.66602 6 12.999 11s6.33301 9.83301 9 14.5
s4.83398 11.167 6.50098 19.5l4 20.5c1 5.33301 1.66699 12.833 2 22.5s0.5 16.334 0.5 20.001v19.5v15c0 14 -0.666992 35 -2 63z" />
    <glyph glyph-name="ugrave" unicode="&#xf9;" horiz-adv-x="359" 
d="M313 447l-0.000976562 -301.996c0 -52 -10 -90.5 -30 -115.5s-55.667 -37.5 -107 -37.5c-46.667 0 -81.334 15 -104.001 45c-16.667 22 -25 58 -25 108v302h82v-268c0 -3.33301 0.166992 -8.5 0.5 -15.5s0.5 -12.167 0.5 -15.5c0.666992 -16.667 1.5 -29.334 2.5 -38.001
s5.5 -17.334 13.5 -26.001s19.333 -13 34 -13c10 0 18.333 1.83301 25 5.5s11.834 7.83398 15.501 12.501s6.33398 11.667 8.00098 21s2.5 16.666 2.5 21.999s-0.166992 13.666 -0.5 24.999s-0.5 18.666 -0.5 21.999v268h83zM233.999 541.004l-47 -28l-107 115l68 42z" />
    <glyph glyph-name="uacute" unicode="&#xfa;" horiz-adv-x="359" 
d="M313 447l-0.000976562 -301.996c0 -52 -10 -90.5 -30 -115.5s-55.667 -37.5 -107 -37.5c-46.667 0 -81.334 15 -104.001 45c-16.667 22 -25 58 -25 108v302h82v-268c0 -3.33301 0.166992 -8.5 0.5 -15.5s0.5 -12.167 0.5 -15.5c0.666992 -16.667 1.5 -29.334 2.5 -38.001
s5.5 -17.334 13.5 -26.001s19.333 -13 34 -13c10 0 18.333 1.83301 25 5.5s11.834 7.83398 15.501 12.501s6.33398 11.667 8.00098 21s2.5 16.666 2.5 21.999s-0.166992 13.666 -0.5 24.999s-0.5 18.666 -0.5 21.999v268h83zM125.999 541.004l86 129l68 -42l-107 -115z" />
    <glyph glyph-name="ucircumflex" unicode="&#xfb;" horiz-adv-x="359" 
d="M313 447l-0.000976562 -301.996c0 -52 -10 -90.5 -30 -115.5s-55.667 -37.5 -107 -37.5c-46.667 0 -81.334 15 -104.001 45c-16.667 22 -25 58 -25 108v302h82v-268c0 -3.33301 0.166992 -8.5 0.5 -15.5s0.5 -12.167 0.5 -15.5c0.666992 -16.667 1.5 -29.334 2.5 -38.001
s5.5 -17.334 13.5 -26.001s19.333 -13 34 -13c10 0 18.333 1.83301 25 5.5s11.834 7.83398 15.501 12.501s6.33398 11.667 8.00098 21s2.5 16.666 2.5 21.999s-0.166992 13.666 -0.5 24.999s-0.5 18.666 -0.5 21.999v268h83zM289.999 547.004l-41 -34l-69 74l-64 -74l-46 34
l111 124z" />
    <glyph glyph-name="udieresis" unicode="&#xfc;" horiz-adv-x="359" 
d="M313 447l-0.000976562 -301.996c0 -52 -10 -90.5 -30 -115.5s-55.667 -37.5 -107 -37.5c-46.667 0 -81.334 15 -104.001 45c-16.667 22 -25 58 -25 108v302h82v-268c0 -3.33301 0.166992 -8.5 0.5 -15.5s0.5 -12.167 0.5 -15.5c0.666992 -16.667 1.5 -29.334 2.5 -38.001
s5.5 -17.334 13.5 -26.001s19.333 -13 34 -13c10 0 18.333 1.83301 25 5.5s11.834 7.83398 15.501 12.501s6.33398 11.667 8.00098 21s2.5 16.666 2.5 21.999s-0.166992 13.666 -0.5 24.999s-0.5 18.666 -0.5 21.999v268h83zM298.999 563.004
c0 -14 -4.83301 -25.833 -14.5 -35.5s-21.5 -14.5 -35.5 -14.5s-25.833 4.83301 -35.5 14.5s-14.5 21.5 -14.5 35.5s4.83301 25.833 14.5 35.5s21.5 14.5 35.5 14.5s25.833 -4.83301 35.5 -14.5s14.5 -21.5 14.5 -35.5zM150.999 563.004c0 -14 -4.83301 -25.833 -14.5 -35.5
s-21.5 -14.5 -35.5 -14.5s-25.833 4.83301 -35.5 14.5s-14.5 21.5 -14.5 35.5s4.83301 25.833 14.5 35.5s21.5 14.5 35.5 14.5s25.833 -4.83301 35.5 -14.5s14.5 -21.5 14.5 -35.5z" />
    <glyph glyph-name="yacute" unicode="&#xfd;" horiz-adv-x="326" 
d="M323 447l-185 -635h-87l71 224l-119 411h94l65 -312l77 312h84zM119 541l86 129l68 -42l-107 -115z" />
    <glyph glyph-name="thorn" unicode="&#xfe;" horiz-adv-x="349" 
d="M130 729v-340.001c10 22 20.833 38.333 32.5 49s28.5 16 50.5 16c20 0 37.167 -6.33301 51.5 -19s24.833 -26.834 31.5 -42.501s11.834 -36.167 15.501 -61.5s5.83398 -45.166 6.50098 -59.499s1 -32.166 1 -53.499c0 -16.667 -0.333008 -31 -1 -43
s-1.83398 -27.833 -3.50098 -47.5s-5 -36.5 -10 -50.5s-11.167 -27.833 -18.5 -41.5s-17.5 -24.167 -30.5 -31.5s-27.833 -11 -44.5 -11c-20 0 -35.833 4.5 -47.5 13.5s-22.834 23.5 -33.501 43.5v-238h-83v917h83zM234 223.999v14.999v20c0 4 -0.166992 11.167 -0.5 21.5
s-1 18.333 -2 24l-4 22c-1.66699 9 -4 16 -7 21l-9.5 16c-3.33301 5.66699 -7.66602 9.66699 -12.999 12s-11.333 3.5 -18 3.5c-36 0 -53.667 -49.333 -53 -148v-7c0 -74 8 -121 24 -141c8 -10 17.667 -15 29 -15c6.66699 0 12.667 1.16699 18 3.5
s9.66602 6.33301 12.999 12l9.5 16c3 5 5.33301 12 7 21l4 22c1 5.66699 1.66699 13.834 2 24.501s0.5 18 0.5 22v20v15z" />
    <glyph glyph-name="ydieresis" unicode="&#xff;" horiz-adv-x="326" 
d="M323 447l-185 -635h-87l71 224l-119 411h94l65 -312l77 312h84zM282 563c0 -14 -4.83301 -25.833 -14.5 -35.5s-21.5 -14.5 -35.5 -14.5s-25.833 4.83301 -35.5 14.5s-14.5 21.5 -14.5 35.5s4.83301 25.833 14.5 35.5s21.5 14.5 35.5 14.5s25.833 -4.83301 35.5 -14.5
s14.5 -21.5 14.5 -35.5zM134 563c0 -14 -4.83301 -25.833 -14.5 -35.5s-21.5 -14.5 -35.5 -14.5s-25.833 4.83301 -35.5 14.5s-14.5 21.5 -14.5 35.5s4.83301 25.833 14.5 35.5s21.5 14.5 35.5 14.5s25.833 -4.83301 35.5 -14.5s14.5 -21.5 14.5 -35.5z" />
    <glyph glyph-name="Amacron" unicode="&#x100;" horiz-adv-x="360" 
d="M359 0h-89l-25 130h-132l-25 -130h-87l145 667h71zM126 199h106c-26.667 148.667 -44 261.334 -52 338.001c-6.66699 -68.667 -24.667 -181.334 -54 -338.001zM292 732h-224v62h224v-62z" />
    <glyph glyph-name="amacron" unicode="&#x101;" horiz-adv-x="349" 
d="M302 0l-83.001 -0.000976562v57c-9.33301 -21.333 -20 -37.333 -32 -48s-28.667 -16 -50 -16c-16.667 0 -31.5 3.83301 -44.5 11.5s-23.167 19 -30.5 34s-13.333 29.667 -18 44s-8 32 -10 53s-3.16699 37.5 -3.5 49.5s-0.5 26.667 -0.5 44s0.333008 31.833 1 43.5
s1.83398 27.5 3.50098 47.5s5 36.833 10 50.5s11.167 27.334 18.5 41.001s17.5 24.167 30.5 31.5s27.833 11 44.5 11c34 0 61 -19.333 81 -58v51h83v-447zM221.999 198.999v48c0 88 -17.667 132 -53 132c-36 0 -54 -41.667 -54 -125v-61c0 -84 18 -126 54 -126
c35.333 0 53 44 53 132zM286.999 530.999h-224v62h224v-62z" />
    <glyph glyph-name="Abreve" unicode="&#x102;" horiz-adv-x="360" 
d="M359 0h-89l-25 130h-132l-25 -130h-87l145 667h71zM126 199h106c-26.667 148.667 -44 261.334 -52 338.001c-6.66699 -68.667 -24.667 -181.334 -54 -338.001zM248 811h54.998c-3.33301 -30.667 -16.5 -53.834 -39.5 -69.501s-50.833 -23.5 -83.5 -23.5
s-60.5 7.83301 -83.5 23.5s-36.167 38.834 -39.5 69.501h55c10.667 -23.333 33.334 -35 68.001 -35s57.334 11.667 68.001 35z" />
    <glyph glyph-name="abreve" unicode="&#x103;" horiz-adv-x="349" 
d="M302 0l-83.001 -0.000976562v57c-9.33301 -21.333 -20 -37.333 -32 -48s-28.667 -16 -50 -16c-16.667 0 -31.5 3.83301 -44.5 11.5s-23.167 19 -30.5 34s-13.333 29.667 -18 44s-8 32 -10 53s-3.16699 37.5 -3.5 49.5s-0.5 26.667 -0.5 44s0.333008 31.833 1 43.5
s1.83398 27.5 3.50098 47.5s5 36.833 10 50.5s11.167 27.334 18.5 41.001s17.5 24.167 30.5 31.5s27.833 11 44.5 11c34 0 61 -19.333 81 -58v51h83v-447zM221.999 198.999v48c0 88 -17.667 132 -53 132c-36 0 -54 -41.667 -54 -125v-61c0 -84 18 -126 54 -126
c35.333 0 53 44 53 132zM237.999 605.999h54.998c-3.33301 -30.667 -16.5 -53.834 -39.5 -69.501s-50.833 -23.5 -83.5 -23.5s-60.5 7.83301 -83.5 23.5s-36.167 38.834 -39.5 69.501h55c10.667 -23.333 33.334 -35 68.001 -35s57.334 11.667 68.001 35z" />
    <glyph glyph-name="Aogonek" unicode="&#x104;" horiz-adv-x="357" 
d="M146 667l71.001 -0.00195312l142 -667h-44c-7.33301 -7.33301 -16.333 -19.333 -27 -36c-8.66699 -14.667 -13 -27 -13 -37c0 -8.66699 2.66699 -15.667 8 -21c4.66699 -6 12.667 -9 24 -9c13.333 0 24.666 3.66699 33.999 11v-51c-13.333 -8 -28.333 -12 -45 -12
c-20.667 0 -37.667 5.33301 -51 16c-15.333 12.667 -23 29.334 -23 50.001c0 15.333 5 31.333 15 48c9.33301 14.667 20.333 28.334 33 41.001l-25 130h-132l-25 -130h-87zM126.001 198.998h106.001l-6 33c-1.33301 6.66699 -9 52 -23 136c-8 46 -15.667 102.333 -23 169
c-2.66699 -32.667 -9.66699 -85 -21 -157c-2.66699 -19.333 -5.83398 -38.5 -9.50098 -57.5l-11 -56.5c-3.66699 -18.667 -6.16699 -32 -7.5 -40z" />
    <glyph glyph-name="aogonek" unicode="&#x105;" horiz-adv-x="349" 
d="M219 447l82.999 0.000976562v-447h-37c-8.66699 -10.667 -16.334 -22.667 -23.001 -36c-7.33301 -13.333 -11 -26 -11 -38c0 -10 2.66699 -17 8 -21c6.66699 -5.33301 14.667 -8 24 -8c14 0 26.333 3.66699 37 11v-51c-16 -8 -31.667 -12 -47 -12
c-20.667 0 -37.667 5.33301 -51 16c-16 12.667 -24 29.667 -24 51c0 14.667 4.66699 30.667 14 48c7.33301 13.333 16.333 26.666 27 39.999v57c-8 -19.333 -17 -34 -27 -44c-13.333 -13.333 -31.666 -20 -54.999 -20c-22.667 0 -41.667 7.33301 -57 22
c-33.333 32 -50 103.333 -50 214v23c0 86.667 15.333 145.667 46 177c16.667 16.667 37.334 25 62.001 25c20 0 37.333 -6 52 -18c10 -8 19.667 -21.333 29 -40v51zM221.999 199.001v48.001c0 62.667 -8.66699 102.667 -26 120c-8 8 -17 12 -27 12
c-12 0 -22 -4.66699 -30 -14c-16 -19.333 -24 -56.333 -24 -111v-61c0 -58.667 8.66699 -96.667 26 -114c8 -8 17.333 -12 28 -12c11.333 0 20 3.66699 26 11c18 19.333 27 59.666 27 120.999z" />
    <glyph glyph-name="Cacute" unicode="&#x106;" horiz-adv-x="337" 
d="M313 92l-0.00195312 -81.999c-21.333 -12.667 -45.666 -19 -72.999 -19c-134.667 0 -202 110.333 -202 331c0 236 66.667 354 200 354c26 0 51 -6.66699 75 -20v-81c-20.667 11.333 -40 17 -58 17c-19.333 0 -36.333 -4.33301 -51 -13s-26.167 -21.334 -34.5 -38.001
s-15.166 -33 -20.499 -49s-9 -35.833 -11 -59.5s-3.33301 -42.167 -4 -55.5s-1 -30 -1 -50c0 -165.333 42.333 -248 127 -248c18 0 35.667 4.33301 53 13zM190.998 755.001l86 129l68 -42l-107 -115z" />
    <glyph glyph-name="cacute" unicode="&#x107;" horiz-adv-x="253" 
d="M229 88l0.00292969 -77.001c-20.667 -12 -42.667 -18 -66 -18c-88.667 0 -133 76 -133 228c0 28.667 1.33301 54.334 4 77.001s8.16699 47 16.5 73s22.166 46.333 41.499 61s43.666 22 72.999 22c22 0 43.333 -5.33301 64 -16v-84c-10.667 14 -24.334 21 -41.001 21
c-45.333 0 -68 -49.333 -68 -148c0 -104 22.333 -156 67 -156c14.667 0 28.667 5.66699 42 17zM116.003 540.999l86 129l68 -42l-107 -115z" />
    <glyph glyph-name="Ccircumflex" unicode="&#x108;" horiz-adv-x="337" 
d="M313 92l-0.00195312 -81.999c-21.333 -12.667 -45.666 -19 -72.999 -19c-134.667 0 -202 110.333 -202 331c0 236 66.667 354 200 354c26 0 51 -6.66699 75 -20v-81c-20.667 11.333 -40 17 -58 17c-19.333 0 -36.333 -4.33301 -51 -13s-26.167 -21.334 -34.5 -38.001
s-15.166 -33 -20.499 -49s-9 -35.833 -11 -59.5s-3.33301 -42.167 -4 -55.5s-1 -30 -1 -50c0 -165.333 42.333 -248 127 -248c18 0 35.667 4.33301 53 13zM349.998 761.001l-41 -34l-69 74l-64 -74l-46 34l111 124z" />
    <glyph glyph-name="ccircumflex" unicode="&#x109;" horiz-adv-x="253" 
d="M229 88l0.00292969 -77.001c-20.667 -12 -42.667 -18 -66 -18c-88.667 0 -133 76 -133 228c0 28.667 1.33301 54.334 4 77.001s8.16699 47 16.5 73s22.166 46.333 41.499 61s43.666 22 72.999 22c22 0 43.333 -5.33301 64 -16v-84c-10.667 14 -24.334 21 -41.001 21
c-45.333 0 -68 -49.333 -68 -148c0 -104 22.333 -156 67 -156c14.667 0 28.667 5.66699 42 17zM270.003 546.999l-41 -34l-69 74l-64 -74l-46 34l111 124z" />
    <glyph glyph-name="Cdotaccent" unicode="&#x10a;" horiz-adv-x="337" 
d="M313 92l-0.00195312 -81.999c-21.333 -12.667 -45.666 -19 -72.999 -19c-134.667 0 -202 110.333 -202 331c0 236 66.667 354 200 354c26 0 51 -6.66699 75 -20v-81c-20.667 11.333 -40 17 -58 17c-19.333 0 -36.333 -4.33301 -51 -13s-26.167 -21.334 -34.5 -38.001
s-15.166 -33 -20.499 -49s-9 -35.833 -11 -59.5s-3.33301 -42.167 -4 -55.5s-1 -30 -1 -50c0 -165.333 42.333 -248 127 -248c18 0 35.667 4.33301 53 13zM286.998 773.001c0 -14.667 -5.16699 -27 -15.5 -37s-22.833 -15 -37.5 -15s-27.167 5 -37.5 15
s-15.5 22.333 -15.5 37s5.16699 27.167 15.5 37.5s22.833 15.5 37.5 15.5s27.167 -5.16699 37.5 -15.5s15.5 -22.833 15.5 -37.5z" />
    <glyph glyph-name="cdotaccent" unicode="&#x10b;" horiz-adv-x="253" 
d="M229 88l0.00292969 -77.001c-20.667 -12 -42.667 -18 -66 -18c-88.667 0 -133 76 -133 228c0 28.667 1.33301 54.334 4 77.001s8.16699 47 16.5 73s22.166 46.333 41.499 61s43.666 22 72.999 22c22 0 43.333 -5.33301 64 -16v-84c-10.667 14 -24.334 21 -41.001 21
c-45.333 0 -68 -49.333 -68 -148c0 -104 22.333 -156 67 -156c14.667 0 28.667 5.66699 42 17zM218.003 564.999c0 -14.667 -5.16699 -27 -15.5 -37s-22.833 -15 -37.5 -15s-27.167 5 -37.5 15s-15.5 22.333 -15.5 37s5.16699 27.167 15.5 37.5s22.833 15.5 37.5 15.5
s27.167 -5.16699 37.5 -15.5s15.5 -22.833 15.5 -37.5z" />
    <glyph glyph-name="Ccaron" unicode="&#x10c;" horiz-adv-x="337" 
d="M313 92l-0.00195312 -81.999c-21.333 -12.667 -45.666 -19 -72.999 -19c-134.667 0 -202 110.333 -202 331c0 236 66.667 354 200 354c26 0 51 -6.66699 75 -20v-81c-20.667 11.333 -40 17 -58 17c-19.333 0 -36.333 -4.33301 -51 -13s-26.167 -21.334 -34.5 -38.001
s-15.166 -33 -20.499 -49s-9 -35.833 -11 -59.5s-3.33301 -42.167 -4 -55.5s-1 -30 -1 -50c0 -165.333 42.333 -248 127 -248c18 0 35.667 4.33301 53 13zM349.998 851.001l-109 -124l-111 124l46 34l64 -74l69 74z" />
    <glyph glyph-name="ccaron" unicode="&#x10d;" horiz-adv-x="253" 
d="M229 88l0.00292969 -77.001c-20.667 -12 -42.667 -18 -66 -18c-88.667 0 -133 76 -133 228c0 28.667 1.33301 54.334 4 77.001s8.16699 47 16.5 73s22.166 46.333 41.499 61s43.666 22 72.999 22c22 0 43.333 -5.33301 64 -16v-84c-10.667 14 -24.334 21 -41.001 21
c-45.333 0 -68 -49.333 -68 -148c0 -104 22.333 -156 67 -156c14.667 0 28.667 5.66699 42 17zM275.003 636.999l-109 -124l-111 124l46 34l64 -74l69 74z" />
    <glyph glyph-name="Dcaron" unicode="&#x10e;" horiz-adv-x="411" 
d="M51 667l111.001 -0.000976562c35.333 0 64.333 -4 87 -12s44 -24.333 64 -49c18 -22 31.667 -51.333 41 -88s14.833 -68.334 16.5 -95.001s2.5 -59.667 2.5 -99c0 -135.333 -21.333 -225.666 -64 -270.999c-14.667 -15.333 -33.334 -27.166 -56.001 -35.499
s-43 -13.333 -61 -15s-40.667 -2.5 -68 -2.5h-73v667zM141.001 77.999h3.99805c40.667 0 70.334 9.33301 89.001 28s31.334 49 38.001 91c4.66699 32 7 73.333 7 124c0 52 -2 95.333 -6 130c-6 45.333 -17.333 80 -34 104s-45.667 36 -87 36h-11v-513zM299.999 850.999
l-109 -124l-111 124l46 34l64 -74l69 74z" />
    <glyph glyph-name="dcaron" unicode="&#x10f;" horiz-adv-x="443" 
d="M302 0h-83.001v57c-9.33301 -21.333 -20 -37.333 -32 -48s-28.667 -16 -50 -16c-16.667 0 -31.5 3.83301 -44.5 11.5s-23.167 19 -30.5 34s-13.333 29.667 -18 44s-8 32 -10 53s-3.16699 37.5 -3.5 49.5s-0.5 26.667 -0.5 44c0 14.667 0.166992 27 0.5 37
s1.16602 23.5 2.49902 40.5s3.33301 31.5 6 43.5s6.66699 25 12 39s11.833 25.333 19.5 34s17.334 16 29.001 22s24.834 9 39.501 9c20 0 35.833 -4.66699 47.5 -14s22.5 -24 32.5 -44v333h83v-729zM221.999 199v48c0 88 -17.667 132 -53 132c-36 0 -54 -41.667 -54 -125
v-61c0 -84 18 -126 54 -126c35.333 0 53 44 53 132zM452.999 667l-71 -189l-45 13l44 197z" />
    <glyph glyph-name="Dcroat" unicode="&#x110;" horiz-adv-x="411" 
d="M51 667l111.001 -0.00195312c36 0 65.333 -4 88 -12s43.667 -24.333 63 -49c40 -52 60 -145 60 -279c0 -137.333 -21.333 -228.666 -64 -273.999c-14.667 -15.333 -33.334 -27.166 -56.001 -35.499s-43 -13.333 -61 -15s-40.667 -2.5 -68 -2.5h-73v330h-50v69h50v268z
M141.001 329.998v-252c42 -0.666992 72.667 8.33301 92 27s32.333 49 39 91c4.66699 32 7 73.667 7 125s-2 94.333 -6 129c-6 46 -17.333 81 -34 105s-46 36 -88 36h-10v-192h87v-69h-87z" />
    <glyph glyph-name="dcroat" unicode="&#x111;" horiz-adv-x="357" 
d="M302 521v-521h-83v57c-9.33301 -21.333 -20 -37.333 -32 -48s-28.667 -16 -50 -16c-71.333 0 -107 75.333 -107 226c0 140.667 36.333 211 109 211c20 0 35.833 -4.66699 47.5 -14s22.5 -24 32.5 -44v149h-106v64h106v144h83v-144h50v-64h-50zM222 199v24
c0 88 -17.667 132 -53 132c-36 0 -54 -41.667 -54 -125v-37c0 -84 18 -126 54 -126c35.333 0 53 44 53 132z" />
    <glyph glyph-name="Emacron" unicode="&#x112;" horiz-adv-x="321" 
d="M290 0h-239v667h239v-76h-149v-212h132v-76h-132v-227h149v-76zM282 732h-224v62h224v-62z" />
    <glyph glyph-name="emacron" unicode="&#x113;" horiz-adv-x="326" 
d="M299 207h-188.001c0 -95.333 19 -143 57 -143c34 0 51 29 51 87h77c-1.33301 -39.333 -7 -69.333 -17 -90c-21.333 -45.333 -58.666 -68 -111.999 -68c-24 0 -44.833 5 -62.5 15s-31.167 22.333 -40.5 37s-16.666 33.167 -21.999 55.5s-8.66602 42.333 -9.99902 60
s-2 38.167 -2 61.5c0 28.667 1.33301 54.167 4 76.5s8.16699 46.5 16.5 72.5s22.166 46.333 41.499 61s43.666 22 72.999 22c24 0 44.667 -5.83301 62 -17.5s30.5 -25.667 39.5 -42s16.167 -36.833 21.5 -61.5s8.5 -46 9.5 -64s1.5 -38.667 1.5 -62zM110.999 267h104
c-2.66699 49.333 -8.66699 81.333 -18 96c-8 14 -19.333 21 -34 21c-30.667 0 -48 -36.667 -52 -110v-4v-3zM274.999 531h-224v62h224v-62z" />
    <glyph glyph-name="Edotaccent" unicode="&#x116;" horiz-adv-x="321" 
d="M290 0h-239v667h239v-76h-149v-212h132v-76h-132v-227h149v-76zM223 773c0 -14.667 -5.16699 -27 -15.5 -37s-22.833 -15 -37.5 -15s-27.167 5 -37.5 15s-15.5 22.333 -15.5 37s5.16699 27.167 15.5 37.5s22.833 15.5 37.5 15.5s27.167 -5.16699 37.5 -15.5
s15.5 -22.833 15.5 -37.5z" />
    <glyph glyph-name="edotaccent" unicode="&#x117;" horiz-adv-x="326" 
d="M299 207h-188.001c0 -95.333 19 -143 57 -143c34 0 51 29 51 87h77c-1.33301 -39.333 -7 -69.333 -17 -90c-21.333 -45.333 -58.666 -68 -111.999 -68c-24 0 -44.833 5 -62.5 15s-31.167 22.333 -40.5 37s-16.666 33.167 -21.999 55.5s-8.66602 42.333 -9.99902 60
s-2 38.167 -2 61.5c0 28.667 1.33301 54.167 4 76.5s8.16699 46.5 16.5 72.5s22.166 46.333 41.499 61s43.666 22 72.999 22c24 0 44.667 -5.83301 62 -17.5s30.5 -25.667 39.5 -42s16.167 -36.833 21.5 -61.5s8.5 -46 9.5 -64s1.5 -38.667 1.5 -62zM110.999 267h104
c-2.66699 49.333 -8.66699 81.333 -18 96c-8 14 -19.333 21 -34 21c-30.667 0 -48 -36.667 -52 -110v-4v-3zM215.999 565c0 -14.667 -5.16699 -27 -15.5 -37s-22.833 -15 -37.5 -15s-27.167 5 -37.5 15s-15.5 22.333 -15.5 37s5.16699 27.167 15.5 37.5
s22.833 15.5 37.5 15.5s27.167 -5.16699 37.5 -15.5s15.5 -22.833 15.5 -37.5z" />
    <glyph glyph-name="Eogonek" unicode="&#x118;" horiz-adv-x="321" 
d="M51 667l239.001 -0.00195312v-76h-149v-212h132v-76h-132v-227h149v-76h-26c-7.33301 -7.33301 -16.333 -19.333 -27 -36c-8.66699 -14.667 -13 -27 -13 -37c0 -8.66699 2.66699 -15.667 8 -21c5.33301 -6 13.333 -9 24 -9c13.333 0 24.666 3.66699 33.999 11v-51
c-13.333 -8 -28.333 -12 -45 -12c-20.667 0 -37.667 5.33301 -51 16c-15.333 12.667 -23 29.334 -23 50.001c0 15.333 5 31.333 15 48c9.33301 14.667 20.333 28.334 33 41.001h-168v667z" />
    <glyph glyph-name="eogonek" unicode="&#x119;" horiz-adv-x="326" 
d="M299 207l-188.001 0.00195312v-4c0 -66.667 9.66699 -109.334 29 -128.001c8 -7.33301 17.333 -11 28 -11c12 0 21.667 3.66699 29 11c14.667 13.333 22 38.666 22 75.999h77c0 -27.333 -3.66699 -53 -11 -77c-6 -20 -18.333 -40.333 -37 -61
c-30.667 -34.667 -46.667 -53 -48 -55c-8 -12 -12 -22.667 -12 -32c0 -7.33301 2.33301 -14 7 -20s12.334 -9 23.001 -9c12 0 25 3.66699 39 11v-51c-13.333 -8 -28.333 -12 -45 -12c-22 0 -39.667 5.33301 -53 16c-16 12.667 -24 29.667 -24 51
c0 14.667 5.66699 30.667 17 48c6.66699 10 16.334 21.333 29.001 34c-4.66699 -0.666992 -11 -1 -19 -1c-32.667 0 -59.667 10.667 -81 32c-34 34 -51 99.667 -51 197c0 98 17 164.333 51 199c21.333 22 49.666 33 84.999 33c31.333 0 57.333 -10 78 -30
c36.667 -35.333 55 -100 55 -194v-23zM110.999 267.002h104c-3.33301 57.333 -12 93 -26 107c-6.66699 6.66699 -15 10 -25 10c-12 0 -21.333 -4 -28 -12c-14.667 -15.333 -23 -50.333 -25 -105z" />
    <glyph glyph-name="Ecaron" unicode="&#x11a;" horiz-adv-x="321" 
d="M290 0h-239v667h239v-76h-149v-212h132v-76h-132v-227h149v-76zM280 851l-109 -124l-111 124l46 34l64 -74l69 74z" />
    <glyph glyph-name="ecaron" unicode="&#x11b;" horiz-adv-x="326" 
d="M299 207h-188.001c0 -95.333 19 -143 57 -143c34 0 51 29 51 87h77c-1.33301 -39.333 -7 -69.333 -17 -90c-21.333 -45.333 -58.666 -68 -111.999 -68c-24 0 -44.833 5 -62.5 15s-31.167 22.333 -40.5 37s-16.666 33.167 -21.999 55.5s-8.66602 42.333 -9.99902 60
s-2 38.167 -2 61.5c0 28.667 1.33301 54.167 4 76.5s8.16699 46.5 16.5 72.5s22.166 46.333 41.499 61s43.666 22 72.999 22c24 0 44.667 -5.83301 62 -17.5s30.5 -25.667 39.5 -42s16.167 -36.833 21.5 -61.5s8.5 -46 9.5 -64s1.5 -38.667 1.5 -62zM110.999 267h104
c-2.66699 49.333 -8.66699 81.333 -18 96c-8 14 -19.333 21 -34 21c-30.667 0 -48 -36.667 -52 -110v-4v-3zM272.999 637l-109 -124l-111 124l46 34l64 -74l69 74z" />
    <glyph glyph-name="Gcircumflex" unicode="&#x11c;" horiz-adv-x="412" 
d="M374 351v-26c0 -106 -6.33301 -181.333 -19 -226c-20 -72 -67 -108 -141 -108c-52.667 0 -91.167 15.667 -115.5 47s-41.166 75.333 -50.499 132c-6.66699 44 -10 97.333 -10 160c0 103.333 8 182 24 236c22 72.667 71.333 109 148 109c45.333 0 80 -11.167 104 -33.5
s42.667 -56.5 56 -102.5l-84 -35c-4 19.333 -7.83301 34.5 -11.5 45.5s-11.167 21.5 -22.5 31.5s-25.666 15 -42.999 15c-23.333 0 -41.333 -11.667 -54 -35c-16 -30 -24 -106 -24 -228c0 -78.667 4 -139.667 12 -183c4.66699 -24 11.834 -42.5 21.501 -55.5
s25.5 -19.5 47.5 -19.5c17.333 0 31.666 4.83301 42.999 14.5s19.166 23.667 23.499 42s7.16602 34 8.49902 47s2 28.833 2 47.5v49h-78v76h163zM316 761l-41 -34l-69 74l-64 -74l-46 34l111 124z" />
    <glyph glyph-name="gcircumflex" unicode="&#x11d;" horiz-adv-x="349" 
d="M303 447v-477.001c0 -53.333 -10.333 -93 -31 -119s-57 -39 -109 -39c-38 0 -68.667 11.5 -92 34.5s-35 53.5 -35 91.5c0 1.33301 0.166992 3.66602 0.5 6.99902s0.5 6 0.5 8h80c0 -48 17.667 -72 53 -72c21.333 0 35 6.83301 41 20.5s9 32.834 9 57.501v96
c-18 -41.333 -45 -62 -81 -62c-14.667 0 -27.834 3 -39.501 9s-21.334 13.5 -29.001 22.5s-14.167 20.833 -19.5 35.5s-9.33301 28 -12 40s-4.66699 26.667 -6 44s-2.16602 31 -2.49902 41s-0.5 22.333 -0.5 37c0 22 0.333008 40.333 1 55s2.83398 34.334 6.50098 59.001
s9 44.5 16 59.5s17.833 28.5 32.5 40.5s32.334 18 53.001 18c20 0 35.667 -5 47 -15s22.666 -25.333 33.999 -46v54h83zM221 228.999c0 100 -18.334 150.001 -55.001 150.001c-6 0 -11.5 -1.33301 -16.5 -4s-9.33301 -7 -13 -13s-6.66699 -12 -9 -18
s-4.33301 -13.833 -6 -23.5s-3 -17.834 -4 -24.501s-1.66699 -15.5 -2 -26.5s-0.5 -18.833 -0.5 -23.5v-22v-16c0 -94 18.667 -141 56 -141c10.667 0 19.334 2.83301 26.001 8.5s11.5 14.667 14.5 27s5 21.833 6 28.5s1.83301 16.667 2.5 30c0.666992 15.333 1 38 1 68z
M284.999 547l-41 -34l-69 74l-64 -74l-46 34l111 124z" />
    <glyph glyph-name="Gbreve" unicode="&#x11e;" horiz-adv-x="412" 
d="M374 351v-26c0 -106 -6.33301 -181.333 -19 -226c-20 -72 -67 -108 -141 -108c-52.667 0 -91.167 15.667 -115.5 47s-41.166 75.333 -50.499 132c-6.66699 44 -10 97.333 -10 160c0 103.333 8 182 24 236c22 72.667 71.333 109 148 109c45.333 0 80 -11.167 104 -33.5
s42.667 -56.5 56 -102.5l-84 -35c-4 19.333 -7.83301 34.5 -11.5 45.5s-11.167 21.5 -22.5 31.5s-25.666 15 -42.999 15c-23.333 0 -41.333 -11.667 -54 -35c-16 -30 -24 -106 -24 -228c0 -78.667 4 -139.667 12 -183c4.66699 -24 11.834 -42.5 21.501 -55.5
s25.5 -19.5 47.5 -19.5c17.333 0 31.666 4.83301 42.999 14.5s19.166 23.667 23.499 42s7.16602 34 8.49902 47s2 28.833 2 47.5v49h-78v76h163zM274 811h54.998c-3.33301 -30.667 -16.5 -53.834 -39.5 -69.501s-50.833 -23.5 -83.5 -23.5s-60.5 7.83301 -83.5 23.5
s-36.167 38.834 -39.5 69.501h55c10.667 -23.333 33.334 -35 68.001 -35s57.334 11.667 68.001 35z" />
    <glyph glyph-name="gbreve" unicode="&#x11f;" horiz-adv-x="349" 
d="M303 447v-477.001c0 -53.333 -10.333 -93 -31 -119s-57 -39 -109 -39c-38 0 -68.667 11.5 -92 34.5s-35 53.5 -35 91.5c0 1.33301 0.166992 3.66602 0.5 6.99902s0.5 6 0.5 8h80c0 -48 17.667 -72 53 -72c21.333 0 35 6.83301 41 20.5s9 32.834 9 57.501v96
c-18 -41.333 -45 -62 -81 -62c-14.667 0 -27.834 3 -39.501 9s-21.334 13.5 -29.001 22.5s-14.167 20.833 -19.5 35.5s-9.33301 28 -12 40s-4.66699 26.667 -6 44s-2.16602 31 -2.49902 41s-0.5 22.333 -0.5 37c0 22 0.333008 40.333 1 55s2.83398 34.334 6.50098 59.001
s9 44.5 16 59.5s17.833 28.5 32.5 40.5s32.334 18 53.001 18c20 0 35.667 -5 47 -15s22.666 -25.333 33.999 -46v54h83zM221 228.999c0 100 -18.334 150.001 -55.001 150.001c-6 0 -11.5 -1.33301 -16.5 -4s-9.33301 -7 -13 -13s-6.66699 -12 -9 -18
s-4.33301 -13.833 -6 -23.5s-3 -17.834 -4 -24.501s-1.66699 -15.5 -2 -26.5s-0.5 -18.833 -0.5 -23.5v-22v-16c0 -94 18.667 -141 56 -141c10.667 0 19.334 2.83301 26.001 8.5s11.5 14.667 14.5 27s5 21.833 6 28.5s1.83301 16.667 2.5 30c0.666992 15.333 1 38 1 68z
M237.999 606h54.998c-3.33301 -30.667 -16.5 -53.834 -39.5 -69.501s-50.833 -23.5 -83.5 -23.5s-60.5 7.83301 -83.5 23.5s-36.167 38.834 -39.5 69.501h55c10.667 -23.333 33.334 -35 68.001 -35s57.334 11.667 68.001 35z" />
    <glyph glyph-name="Gdotaccent" unicode="&#x120;" horiz-adv-x="412" 
d="M374 351v-26c0 -106 -6.33301 -181.333 -19 -226c-20 -72 -67 -108 -141 -108c-52.667 0 -91.167 15.667 -115.5 47s-41.166 75.333 -50.499 132c-6.66699 44 -10 97.333 -10 160c0 103.333 8 182 24 236c22 72.667 71.333 109 148 109c45.333 0 80 -11.167 104 -33.5
s42.667 -56.5 56 -102.5l-84 -35c-4 19.333 -7.83301 34.5 -11.5 45.5s-11.167 21.5 -22.5 31.5s-25.666 15 -42.999 15c-23.333 0 -41.333 -11.667 -54 -35c-16 -30 -24 -106 -24 -228c0 -78.667 4 -139.667 12 -183c4.66699 -24 11.834 -42.5 21.501 -55.5
s25.5 -19.5 47.5 -19.5c17.333 0 31.666 4.83301 42.999 14.5s19.166 23.667 23.499 42s7.16602 34 8.49902 47s2 28.833 2 47.5v49h-78v76h163zM259 773c0 -14.667 -5.16699 -27 -15.5 -37s-22.833 -15 -37.5 -15s-27.167 5 -37.5 15s-15.5 22.333 -15.5 37
s5.16699 27.167 15.5 37.5s22.833 15.5 37.5 15.5s27.167 -5.16699 37.5 -15.5s15.5 -22.833 15.5 -37.5z" />
    <glyph glyph-name="gdotaccent" unicode="&#x121;" horiz-adv-x="349" 
d="M303 447v-477.001c0 -53.333 -10.333 -93 -31 -119s-57 -39 -109 -39c-38 0 -68.667 11.5 -92 34.5s-35 53.5 -35 91.5c0 1.33301 0.166992 3.66602 0.5 6.99902s0.5 6 0.5 8h80c0 -48 17.667 -72 53 -72c21.333 0 35 6.83301 41 20.5s9 32.834 9 57.501v96
c-18 -41.333 -45 -62 -81 -62c-14.667 0 -27.834 3 -39.501 9s-21.334 13.5 -29.001 22.5s-14.167 20.833 -19.5 35.5s-9.33301 28 -12 40s-4.66699 26.667 -6 44s-2.16602 31 -2.49902 41s-0.5 22.333 -0.5 37c0 22 0.333008 40.333 1 55s2.83398 34.334 6.50098 59.001
s9 44.5 16 59.5s17.833 28.5 32.5 40.5s32.334 18 53.001 18c20 0 35.667 -5 47 -15s22.666 -25.333 33.999 -46v54h83zM221 228.999c0 100 -18.334 150.001 -55.001 150.001c-6 0 -11.5 -1.33301 -16.5 -4s-9.33301 -7 -13 -13s-6.66699 -12 -9 -18
s-4.33301 -13.833 -6 -23.5s-3 -17.834 -4 -24.501s-1.66699 -15.5 -2 -26.5s-0.5 -18.833 -0.5 -23.5v-22v-16c0 -94 18.667 -141 56 -141c10.667 0 19.334 2.83301 26.001 8.5s11.5 14.667 14.5 27s5 21.833 6 28.5s1.83301 16.667 2.5 30c0.666992 15.333 1 38 1 68z
M207.999 565c0 -14.667 -5.16699 -27 -15.5 -37s-22.833 -15 -37.5 -15s-27.167 5 -37.5 15s-15.5 22.333 -15.5 37s5.16699 27.167 15.5 37.5s22.833 15.5 37.5 15.5s27.167 -5.16699 37.5 -15.5s15.5 -22.833 15.5 -37.5z" />
    <glyph glyph-name="Gcommaaccent" unicode="&#x122;" horiz-adv-x="412" 
d="M374 351v-26c0 -106 -6.33301 -181.333 -19 -226c-20 -72 -67 -108 -141 -108c-52.667 0 -91.167 15.667 -115.5 47s-41.166 75.333 -50.499 132c-6.66699 44 -10 97.333 -10 160c0 103.333 8 182 24 236c22 72.667 71.333 109 148 109c45.333 0 80 -11.167 104 -33.5
s42.667 -56.5 56 -102.5l-84 -35c-4 19.333 -7.83301 34.5 -11.5 45.5s-11.167 21.5 -22.5 31.5s-25.666 15 -42.999 15c-23.333 0 -41.333 -11.667 -54 -35c-16 -30 -24 -106 -24 -228c0 -78.667 4 -139.667 12 -183c4.66699 -24 11.834 -42.5 21.501 -55.5
s25.5 -19.5 47.5 -19.5c17.333 0 31.666 4.83301 42.999 14.5s19.166 23.667 23.499 42s7.16602 34 8.49902 47s2 28.833 2 47.5v49h-78v76h163zM256 -69l-64 -167l-45 13l37 175z" />
    <glyph glyph-name="gcommaaccent" unicode="&#x123;" horiz-adv-x="349" 
d="M303 447v-477.001c0 -53.333 -10.333 -93 -31 -119s-57 -39 -109 -39c-38 0 -68.667 11.5 -92 34.5s-35 53.5 -35 91.5c0 1.33301 0.166992 3.66602 0.5 6.99902s0.5 6 0.5 8h80c0 -48 17.667 -72 53 -72c21.333 0 35 6.83301 41 20.5s9 32.834 9 57.501v96
c-18 -41.333 -45 -62 -81 -62c-14.667 0 -27.834 3 -39.501 9s-21.334 13.5 -29.001 22.5s-14.167 20.833 -19.5 35.5s-9.33301 28 -12 40s-4.66699 26.667 -6 44s-2.16602 31 -2.49902 41s-0.5 22.333 -0.5 37c0 22 0.333008 40.333 1 55s2.83398 34.334 6.50098 59.001
s9 44.5 16 59.5s17.833 28.5 32.5 40.5s32.334 18 53.001 18c20 0 35.667 -5 47 -15s22.666 -25.333 33.999 -46v54h83zM221 228.999c0 100 -18.334 150.001 -55.001 150.001c-6 0 -11.5 -1.33301 -16.5 -4s-9.33301 -7 -13 -13s-6.66699 -12 -9 -18
s-4.33301 -13.833 -6 -23.5s-3 -17.834 -4 -24.501s-1.66699 -15.5 -2 -26.5s-0.5 -18.833 -0.5 -23.5v-22v-16c0 -94 18.667 -141 56 -141c10.667 0 19.334 2.83301 26.001 8.5s11.5 14.667 14.5 27s5 21.833 6 28.5s1.83301 16.667 2.5 30c0.666992 15.333 1 38 1 68z
M116.999 507l63 165l45 -13l-36 -173z" />
    <glyph glyph-name="Hcircumflex" unicode="&#x124;" horiz-adv-x="414" 
d="M363 0h-90v330h-132v-330h-90v667h90v-261h132v261h90v-667zM317 761l-41 -34l-69 74l-64 -74l-46 34l111 124z" />
    <glyph glyph-name="hcircumflex" unicode="&#x125;" horiz-adv-x="358" 
d="M311 0l-81.999 -0.00195312v298c-0.666992 12.667 -1.33398 22.334 -2.00098 29.001s-2.33398 15 -5.00098 25s-7.5 17.5 -14.5 22.5s-15.833 7.5 -26.5 7.5c-12 0 -21.833 -2.66699 -29.5 -8s-13 -13.666 -16 -24.999s-4.83301 -20.833 -5.5 -28.5s-1 -18.167 -1 -31.5
v-289h-82v729h82v-334c12.667 20 25.834 34.833 39.501 44.5s31.167 14.5 52.5 14.5c18.667 0 34.167 -3.33301 46.5 -10s21.5 -16.334 27.5 -29.001s10.167 -25.667 12.5 -39s3.5 -28.666 3.5 -45.999v-330zM195.001 786.998l-41 -34l-69 74l-64 -74l-46 34l111 124z" />
    <glyph glyph-name="Hbar" unicode="&#x126;" horiz-adv-x="414" 
d="M363 0h-90v330h-132v-330h-90v550h-48v64h48v53h90v-53h132v53h90v-53h48v-64h-48v-550zM273 550h-132v-144h132v144z" />
    <glyph glyph-name="hbar" unicode="&#x127;" horiz-adv-x="371" 
d="M324 0h-81.999v275c0 11.333 -0.333008 20.666 -1 27.999s-2.33398 15.833 -5.00098 25.5s-7.5 17 -14.5 22s-15.833 7.5 -26.5 7.5c-12.667 0 -22.834 -2.66699 -30.501 -8s-13 -13.666 -16 -24.999s-4.83301 -20.833 -5.5 -28.5s-1 -18.167 -1 -31.5v-265h-82v521h-50
v64h50v144h82v-144h106v-64h-106v-150c12.667 20 25.834 34.833 39.501 44.5s31.167 14.5 52.5 14.5c18.667 0 34.167 -3.33301 46.5 -10s21.5 -16.334 27.5 -29.001s10.167 -25.667 12.5 -39s3.5 -28.666 3.5 -45.999v-306z" />
    <glyph glyph-name="Imacron" unicode="&#x12a;" horiz-adv-x="193" 
d="M141 0h-90v667h90v-667zM205 732h-224v62h224v-62z" />
    <glyph glyph-name="imacron" unicode="&#x12b;" horiz-adv-x="176" 
d="M129 0h-82v447h82v-447zM200 531h-224v62h224v-62z" />
    <glyph glyph-name="Iogonek" unicode="&#x12e;" horiz-adv-x="193" 
d="M53 667l90.001 0.00195312v-667c-14 -10.667 -25 -21.334 -33 -32.001c-11.333 -14.667 -17 -28.334 -17 -41.001c0 -7.33301 2.66699 -14.333 8 -21c4.66699 -6 12.667 -9 24 -9c12 0 23.333 3.66699 34 11v-51c-13.333 -8 -28.333 -12 -45 -12
c-20.667 0 -37.667 5.66699 -51 17c-15.333 12 -23 28 -23 48c0 18 6 35 18 51c11.333 14.667 24.666 27.667 39.999 39h-45v667z" />
    <glyph glyph-name="iogonek" unicode="&#x12f;" horiz-adv-x="176" 
d="M47 447h82v-447c-17.333 -21.333 -26.333 -32.666 -27 -33.999c-11.333 -16 -17 -29.333 -17 -40c0 -7.33301 2.33301 -14 7 -20c5.33301 -6 13 -9 23 -9c12 0 25 3.66699 39 11v-51c-13.333 -8 -28.333 -12 -45 -12c-22 0 -39.667 5.33301 -53 16
c-16 12.667 -24 29.667 -24 51c0 16 5.66699 32 17 48c10 13.333 21.667 26.666 35 39.999h-37v447zM29 581c0 15.333 5.5 28.5 16.5 39.5s24.167 16.5 39.5 16.5s28.5 -5.5 39.5 -16.5s16.5 -24.167 16.5 -39.5s-5.5 -28.5 -16.5 -39.5s-24.167 -16.5 -39.5 -16.5
s-28.5 5.5 -39.5 16.5s-16.5 24.167 -16.5 39.5z" />
    <glyph glyph-name="Idotaccent" unicode="&#x130;" horiz-adv-x="193" 
d="M141 0h-90v667h90v-667zM150 773c0 -14.667 -5.16699 -27 -15.5 -37s-22.833 -15 -37.5 -15s-27.167 5 -37.5 15s-15.5 22.333 -15.5 37s5.16699 27.167 15.5 37.5s22.833 15.5 37.5 15.5s27.167 -5.16699 37.5 -15.5s15.5 -22.833 15.5 -37.5z" />
    <glyph glyph-name="dotlessi" unicode="&#x131;" horiz-adv-x="176" 
d="M129 0h-82v447h82v-447z" />
    <glyph glyph-name="Jcircumflex" unicode="&#x134;" horiz-adv-x="259" 
d="M207 667l0.000976562 -518c0 -34 -3.33301 -60.667 -10 -80c-18 -52 -58.667 -78 -122 -78c-29.333 0 -55 6 -77 18v90c26.667 -15.333 46.667 -23 60 -23c10 0 18.5 1.33301 25.5 4s12.667 7.16699 17 13.5s7.66602 12 9.99902 17s4 12.833 5 23.5s1.5 18 1.5 22v24v487
h90zM265.001 761l-41 -34l-69 74l-64 -74l-46 34l111 124z" />
    <glyph glyph-name="jcircumflex" unicode="&#x135;" horiz-adv-x="176" 
d="M129 -188h-82v635h82v-635zM195 547l-41 -34l-69 74l-64 -74l-46 34l111 124z" />
    <glyph glyph-name="Kcommaaccent" unicode="&#x136;" horiz-adv-x="372" 
d="M367 0h-101l-125 327v-327h-90v667h90v-306l125 306h91l-135 -323zM250 -69l-64 -167l-45 13l37 175z" />
    <glyph glyph-name="kcommaaccent" unicode="&#x137;" horiz-adv-x="346" 
d="M342 0h-96l-117 218v-218h-82v729h82v-475l105 193h93l-119 -204zM226 -69l-63 -165l-45 13l36 173z" />
    <glyph glyph-name="Lacute" unicode="&#x139;" horiz-adv-x="293" 
d="M288 0h-237v667h90v-591h147v-76zM56 755l86 129l68 -42l-107 -115z" />
    <glyph glyph-name="lacute" unicode="&#x13a;" horiz-adv-x="176" 
d="M129 0h-82v729h82v-729zM44 791l86 129l68 -42l-107 -115z" />
    <glyph glyph-name="Lcommaaccent" unicode="&#x13b;" horiz-adv-x="293" 
d="M288 0h-237v667h90v-591h147v-76zM210 -69l-64 -167l-45 13l37 175z" />
    <glyph glyph-name="lcommaaccent" unicode="&#x13c;" horiz-adv-x="176" 
d="M129 0h-82v729h82v-729zM131 -69l-63 -165l-45 13l36 173z" />
    <glyph glyph-name="Lcaron" unicode="&#x13d;" horiz-adv-x="293" 
d="M288 0h-237v667h90v-591h147v-76zM313 667l-69 -189l-45 13l42 197z" />
    <glyph glyph-name="lcaron" unicode="&#x13e;" horiz-adv-x="273" 
d="M129 0h-82v729h82v-729zM283 667l-71 -189l-45 13l44 197z" />
    <glyph glyph-name="Ldot" unicode="&#x13f;" horiz-adv-x="293" 
d="M288 0h-237v667h90v-591h147v-76zM301 334c0 -14.667 -5.16699 -27 -15.5 -37s-22.833 -15 -37.5 -15s-27.167 5 -37.5 15s-15.5 22.333 -15.5 37s5.16699 27.167 15.5 37.5s22.833 15.5 37.5 15.5s27.167 -5.16699 37.5 -15.5s15.5 -22.833 15.5 -37.5z" />
    <glyph glyph-name="ldot" unicode="&#x140;" horiz-adv-x="264" 
d="M129 0h-82v729h82v-729zM273 365c0 -14.667 -5.16699 -27 -15.5 -37s-22.833 -15 -37.5 -15s-27.167 5 -37.5 15s-15.5 22.333 -15.5 37s5.16699 27.167 15.5 37.5s22.833 15.5 37.5 15.5s27.167 -5.16699 37.5 -15.5s15.5 -22.833 15.5 -37.5z" />
    <glyph glyph-name="Lslash" unicode="&#x141;" horiz-adv-x="293" 
d="M288 0h-237v230l-51 -56v88l51 56v349h90v-265l111 121v-88l-111 -121v-238h147v-76z" />
    <glyph glyph-name="lslash" unicode="&#x142;" horiz-adv-x="192" 
d="M138 729v-280l54 58v-79l-54 -58v-370h-83v292l-55 -59v79l55 59v358h83z" />
    <glyph glyph-name="Nacute" unicode="&#x143;" horiz-adv-x="413" 
d="M362 0l-84.002 -0.000976562l-110 331c-12 36 -20.333 63.333 -25 82c-2 8.66699 -5.33301 24.5 -10 47.5s-8.66699 40.5 -12 52.5c2 -14.667 4.66699 -48.334 8 -101.001c4.66699 -76 8.33398 -213.333 11.001 -412h-89v667h84l33 -96c18.667 -54 31 -90.667 37 -110
l29.5 -91.5c13.667 -41.667 24.834 -78.667 33.501 -111s17 -65.166 25 -98.499c-14 106.667 -21 191.334 -21 254.001v253h90v-667zM162.998 754.999l86 129l68 -42l-107 -115z" />
    <glyph glyph-name="nacute" unicode="&#x144;" horiz-adv-x="358" 
d="M311 0l-81.999 -0.00292969v290c-0.666992 14.667 -1.33398 25.834 -2.00098 33.501s-2.33398 16.834 -5.00098 27.501s-7.5 18.5 -14.5 23.5s-15.833 7.5 -26.5 7.5c-12 0 -21.833 -2.66699 -29.5 -8s-13 -13.666 -16 -24.999s-4.83301 -20.833 -5.5 -28.5
s-1 -18.167 -1 -31.5v-289h-82v447h82v-52c12.667 20 25.834 34.833 39.501 44.5s31.167 14.5 52.5 14.5c18.667 0 34.167 -3.33301 46.5 -10s21.5 -16.334 27.5 -29.001s10.167 -25.667 12.5 -39s3.5 -28.666 3.5 -45.999v-330zM146.001 540.997l86 129l68 -42l-107 -115z
" />
    <glyph glyph-name="Ncommaaccent" unicode="&#x145;" horiz-adv-x="413" 
d="M362 0l-84.002 -0.000976562l-110 331c-12 36 -20.333 63.333 -25 82c-2 8.66699 -5.33301 24.5 -10 47.5s-8.66699 40.5 -12 52.5c2 -14.667 4.66699 -48.334 8 -101.001c4.66699 -76 8.33398 -213.333 11.001 -412h-89v667h84l33 -96c18.667 -54 31 -90.667 37 -110
l29.5 -91.5c13.667 -41.667 24.834 -78.667 33.501 -111s17 -65.166 25 -98.499c-14 106.667 -21 191.334 -21 254.001v253h90v-667zM255.998 -69.001l-64 -167l-45 13l37 175z" />
    <glyph glyph-name="ncommaaccent" unicode="&#x146;" horiz-adv-x="358" 
d="M311 0l-81.999 -0.00292969v290c-0.666992 14.667 -1.33398 25.834 -2.00098 33.501s-2.33398 16.834 -5.00098 27.501s-7.5 18.5 -14.5 23.5s-15.833 7.5 -26.5 7.5c-12 0 -21.833 -2.66699 -29.5 -8s-13 -13.666 -16 -24.999s-4.83301 -20.833 -5.5 -28.5
s-1 -18.167 -1 -31.5v-289h-82v447h82v-52c12.667 20 25.834 34.833 39.501 44.5s31.167 14.5 52.5 14.5c18.667 0 34.167 -3.33301 46.5 -10s21.5 -16.334 27.5 -29.001s10.167 -25.667 12.5 -39s3.5 -28.666 3.5 -45.999v-330zM231.001 -69.0029l-63 -165l-45 13l36 173z
" />
    <glyph glyph-name="Ncaron" unicode="&#x147;" horiz-adv-x="413" 
d="M362 0l-84.002 -0.000976562l-110 331c-12 36 -20.333 63.333 -25 82c-2 8.66699 -5.33301 24.5 -10 47.5s-8.66699 40.5 -12 52.5c2 -14.667 4.66699 -48.334 8 -101.001c4.66699 -76 8.33398 -213.333 11.001 -412h-89v667h84l33 -96c18.667 -54 31 -90.667 37 -110
l29.5 -91.5c13.667 -41.667 24.834 -78.667 33.501 -111s17 -65.166 25 -98.499c-14 106.667 -21 191.334 -21 254.001v253h90v-667zM316.998 850.999l-109 -124l-111 124l46 34l64 -74l69 74z" />
    <glyph glyph-name="ncaron" unicode="&#x148;" horiz-adv-x="358" 
d="M311 0l-81.999 -0.00292969v290c-0.666992 14.667 -1.33398 25.834 -2.00098 33.501s-2.33398 16.834 -5.00098 27.501s-7.5 18.5 -14.5 23.5s-15.833 7.5 -26.5 7.5c-12 0 -21.833 -2.66699 -29.5 -8s-13 -13.666 -16 -24.999s-4.83301 -20.833 -5.5 -28.5
s-1 -18.167 -1 -31.5v-289h-82v447h82v-52c12.667 20 25.834 34.833 39.501 44.5s31.167 14.5 52.5 14.5c18.667 0 34.167 -3.33301 46.5 -10s21.5 -16.334 27.5 -29.001s10.167 -25.667 12.5 -39s3.5 -28.666 3.5 -45.999v-330zM300.001 636.997l-109 -124l-111 124l46 34
l64 -74l69 74z" />
    <glyph glyph-name="Omacron" unicode="&#x14c;" horiz-adv-x="423" 
d="M385 321c0 -61.333 -3.33301 -113.667 -10 -157c-9.33301 -55.333 -25.833 -98 -49.5 -128s-61.167 -45 -112.5 -45c-62 0 -106.667 25 -134 75c-27.333 49.333 -41 143.666 -41 282.999c0 113.333 12 195 36 245c26 54 71.667 81 137 81c59.333 0 103 -23.667 131 -71
c28.667 -49.333 43 -143.666 43 -282.999zM291 345.999c0 83.333 -4.66699 144.999 -14 184.999c-9.33301 42 -31.333 63 -66 63c-22 0 -39.333 -9.33301 -52 -28c-18 -25.333 -27 -90 -27 -194c0 -103.333 3 -173.666 9 -210.999c10 -58 33.667 -87 71 -87
c29.333 0 50 16 62 48c11.333 32 17 106.667 17 224zM324 731.998h-224v62h224v-62z" />
    <glyph glyph-name="omacron" unicode="&#x14d;" horiz-adv-x="341" 
d="M311 223c0 -29.333 -1.49805 -55.332 -4.49805 -77.999s-9 -46.667 -18 -72s-23.5 -45 -43.5 -59s-45 -21 -75 -21c-24 0 -44.833 5 -62.5 15s-31.334 22.5 -41.001 37.5s-17.334 33.5 -23.001 55.5s-9.33398 42.167 -11.001 60.5s-2.5 38.833 -2.5 61.5
s0.666992 43.167 2 61.5s4.83301 38.666 10.5 60.999s13.334 40.833 23.001 55.5s23.5 27.167 41.5 37.5s39 15.5 63 15.5c30 0 55 -7 75 -21s34.5 -33.667 43.5 -59s15 -49.5 18 -72.5s4.5 -49.167 4.5 -78.5zM225.002 197.001v54c0 85.333 -17.667 128 -53 128
s-53 -42.333 -53 -127v-54c0 -85.333 17.667 -128 53 -128s53 42.333 53 127zM283.002 531.001h-224v62h224v-62z" />
    <glyph glyph-name="Obreve" unicode="&#x14e;" horiz-adv-x="423" 
d="M385 321c0 -61.333 -3.33301 -113.667 -10 -157c-9.33301 -55.333 -25.833 -98 -49.5 -128s-61.167 -45 -112.5 -45c-62 0 -106.667 25 -134 75c-27.333 49.333 -41 143.666 -41 282.999c0 113.333 12 195 36 245c26 54 71.667 81 137 81c59.333 0 103 -23.667 131 -71
c28.667 -49.333 43 -143.666 43 -282.999zM291 345.999c0 83.333 -4.66699 144.999 -14 184.999c-9.33301 42 -31.333 63 -66 63c-22 0 -39.333 -9.33301 -52 -28c-18 -25.333 -27 -90 -27 -194c0 -103.333 3 -173.666 9 -210.999c10 -58 33.667 -87 71 -87
c29.333 0 50 16 62 48c11.333 32 17 106.667 17 224zM280 810.998h54.998c-3.33301 -30.667 -16.5 -53.834 -39.5 -69.501s-50.833 -23.5 -83.5 -23.5s-60.5 7.83301 -83.5 23.5s-36.167 38.834 -39.5 69.501h55c10.667 -23.333 33.334 -35 68.001 -35
s57.334 11.667 68.001 35z" />
    <glyph glyph-name="obreve" unicode="&#x14f;" horiz-adv-x="341" 
d="M311 223c0 -29.333 -1.49805 -55.332 -4.49805 -77.999s-9 -46.667 -18 -72s-23.5 -45 -43.5 -59s-45 -21 -75 -21c-24 0 -44.833 5 -62.5 15s-31.334 22.5 -41.001 37.5s-17.334 33.5 -23.001 55.5s-9.33398 42.167 -11.001 60.5s-2.5 38.833 -2.5 61.5
s0.666992 43.167 2 61.5s4.83301 38.666 10.5 60.999s13.334 40.833 23.001 55.5s23.5 27.167 41.5 37.5s39 15.5 63 15.5c30 0 55 -7 75 -21s34.5 -33.667 43.5 -59s15 -49.5 18 -72.5s4.5 -49.167 4.5 -78.5zM225.002 197.001v54c0 85.333 -17.667 128 -53 128
s-53 -42.333 -53 -127v-54c0 -85.333 17.667 -128 53 -128s53 42.333 53 127zM239.002 606.001h54.998c-3.33301 -30.667 -16.5 -53.834 -39.5 -69.501s-50.833 -23.5 -83.5 -23.5s-60.5 7.83301 -83.5 23.5s-36.167 38.834 -39.5 69.501h55
c10.667 -23.333 33.334 -35 68.001 -35s57.334 11.667 68.001 35z" />
    <glyph glyph-name="Ohungarumlaut" unicode="&#x150;" horiz-adv-x="423" 
d="M385 321c0 -61.333 -3.33301 -113.667 -10 -157c-9.33301 -55.333 -25.833 -98 -49.5 -128s-61.167 -45 -112.5 -45c-62 0 -106.667 25 -134 75c-27.333 49.333 -41 143.666 -41 282.999c0 113.333 12 195 36 245c26 54 71.667 81 137 81c59.333 0 103 -23.667 131 -71
c28.667 -49.333 43 -143.666 43 -282.999zM291 345.999c0 83.333 -4.66699 144.999 -14 184.999c-9.33301 42 -31.333 63 -66 63c-22 0 -39.333 -9.33301 -52 -28c-18 -25.333 -27 -90 -27 -194c0 -103.333 3 -173.666 9 -210.999c10 -58 33.667 -87 71 -87
c29.333 0 50 16 62 48c11.333 32 17 106.667 17 224zM350 851.998l-77 -126l-39 21l61 138zM237 851.998l-77 -126l-40 21l61 138z" />
    <glyph glyph-name="ohungarumlaut" unicode="&#x151;" horiz-adv-x="341" 
d="M311 223c0 -29.333 -1.49805 -55.332 -4.49805 -77.999s-9 -46.667 -18 -72s-23.5 -45 -43.5 -59s-45 -21 -75 -21c-24 0 -44.833 5 -62.5 15s-31.334 22.5 -41.001 37.5s-17.334 33.5 -23.001 55.5s-9.33398 42.167 -11.001 60.5s-2.5 38.833 -2.5 61.5
s0.666992 43.167 2 61.5s4.83301 38.666 10.5 60.999s13.334 40.833 23.001 55.5s23.5 27.167 41.5 37.5s39 15.5 63 15.5c30 0 55 -7 75 -21s34.5 -33.667 43.5 -59s15 -49.5 18 -72.5s4.5 -49.167 4.5 -78.5zM225.002 197.001v54c0 85.333 -17.667 128 -53 128
s-53 -42.333 -53 -127v-54c0 -85.333 17.667 -128 53 -128s53 42.333 53 127zM304.002 638.001l-77 -126l-39 21l61 138zM191.002 638.001l-77 -126l-40 21l61 138z" />
    <glyph glyph-name="OE" unicode="&#x152;" horiz-adv-x="564" 
d="M526 0h-231.999v52c-22.667 -40.667 -56 -61 -100 -61c-21.333 0 -40.666 4.66699 -57.999 14s-31.333 20.333 -42 33s-19.834 30.167 -27.501 52.5s-13.334 41.833 -17.001 58.5s-6.33398 38.5 -8.00098 65.5s-2.66699 47 -3 60s-0.5 31.167 -0.5 54.5
c0 107.333 8.33301 188 25 242c10 32 26 57.333 48 76s49 28 81 28c44.667 0 77.334 -20 98.001 -60v52h231v-76h-147v-212h135v-76h-135v-227h152v-76zM290.001 264l0.000976562 139.999c0 15.333 -0.166992 26.666 -0.5 33.999s-1 20.333 -2 39s-3.16699 33.5 -6.5 44.5
s-7.66602 23 -12.999 36s-12.833 22.667 -22.5 29s-20.834 9.5 -33.501 9.5c-13.333 0 -24.833 -4.16699 -34.5 -12.5s-17 -17.166 -22 -26.499s-9.33301 -23 -13 -41s-5.83398 -30.833 -6.50098 -38.5s-1.66699 -19.834 -3 -36.501c-2 -34.667 -3 -70.334 -3 -107.001
c0 -35.333 1 -71 3 -107c1.33301 -16.667 2.33301 -28.667 3 -36s2.83398 -20 6.50098 -38s8 -31.667 13 -41s12.333 -18.166 22 -26.499s21.167 -12.5 34.5 -12.5c12.667 0 23.667 3.16699 33 9.5s16.666 15.833 21.999 28.5s9.83301 24.834 13.5 36.501s6 26.334 7 44.001
s1.66699 30.667 2 39s0.5 19.5 0.5 33.5z" />
    <glyph glyph-name="oe" unicode="&#x153;" horiz-adv-x="524" 
d="M494 207l-189.001 -0.000976562c3.33301 -61.333 11 -101.666 23 -120.999c9.33301 -14.667 21.333 -22 36 -22c34 0 51 29 51 87h77c-2 -46 -13.5 -83.833 -34.5 -113.5s-53.167 -44.5 -96.5 -44.5c-23.333 0 -42.333 4.83301 -57 14.5s-28 25.167 -40 46.5
c-10.667 -22 -23.334 -37.667 -38.001 -47s-34.334 -14 -59.001 -14c-24 0 -44.833 5.33301 -62.5 16s-31.167 23.667 -40.5 39s-16.666 34.5 -21.999 57.5s-8.66602 43.667 -9.99902 62s-2 38.833 -2 61.5c0 81.333 12.333 139.333 37 174c24.667 34 59 51 103 51
c46 0 77.667 -20 95 -60c19.333 40 51.333 60 96 60c24 0 44.833 -5.83301 62.5 -17.5s30.834 -25.5 39.501 -41.5s15.5 -36.5 20.5 -61.5s8 -46.333 9 -64s1.5 -38.5 1.5 -62.5zM306.999 263.999h102c-1.33301 54.667 -8.33301 90 -21 106c-8 10 -18.333 15 -31 15
c-33.333 0 -50 -31.667 -50 -95v-26zM224.999 222.999c0 104 -18 156 -54 156c-37.333 0 -56 -52 -56 -156s18 -156 54 -156c37.333 0 56 52 56 156z" />
    <glyph glyph-name="Racute" unicode="&#x154;" horiz-adv-x="373" 
d="M355 0l-92 0.000976562l-122 311v-311h-90v667h119c42.667 0 75 -8.33301 97 -25c38 -28.667 57 -78.334 57 -149.001c0 -24.667 -2.33301 -47.667 -7 -69s-14.667 -42 -30 -62s-35 -32.667 -59 -38zM141 593.001l-0.000976562 -222c30.667 0 52.334 5.33301 65.001 16
c20.667 17.333 31 47.333 31 90c0 38 -6 67.333 -18 88c-11.333 18.667 -32.333 28 -63 28h-15zM125.999 755.001l86 129l68 -42l-107 -115z" />
    <glyph glyph-name="racute" unicode="&#x155;" horiz-adv-x="236" 
d="M226 457v-86c-3.33301 0.666992 -8.33301 1 -15 1c-32 0 -53.667 -8.5 -65 -25.5s-17 -42.167 -17 -75.5v-271h-82v447h82v-56c13.333 22.667 26.833 39 40.5 49s32.5 15.667 56.5 17zM81 541l86 129l68 -42l-107 -115z" />
    <glyph glyph-name="Rcommaaccent" unicode="&#x156;" horiz-adv-x="373" 
d="M355 0l-92 0.000976562l-122 311v-311h-90v667h119c42.667 0 75 -8.33301 97 -25c38 -28.667 57 -78.334 57 -149.001c0 -24.667 -2.33301 -47.667 -7 -69s-14.667 -42 -30 -62s-35 -32.667 -59 -38zM141 593.001l-0.000976562 -222c30.667 0 52.334 5.33301 65.001 16
c20.667 17.333 31 47.333 31 90c0 38 -6 67.333 -18 88c-11.333 18.667 -32.333 28 -63 28h-15zM243.999 -68.999l-64 -167l-45 13l37 175z" />
    <glyph glyph-name="rcommaaccent" unicode="&#x157;" horiz-adv-x="236" 
d="M226 457v-86c-3.33301 0.666992 -8.33301 1 -15 1c-32 0 -53.667 -8.5 -65 -25.5s-17 -42.167 -17 -75.5v-271h-82v447h82v-56c13.333 22.667 26.833 39 40.5 49s32.5 15.667 56.5 17zM176 -69l-63 -165l-45 13l36 173z" />
    <glyph glyph-name="Rcaron" unicode="&#x158;" horiz-adv-x="373" 
d="M355 0l-92 0.000976562l-122 311v-311h-90v667h119c42.667 0 75 -8.33301 97 -25c38 -28.667 57 -78.334 57 -149.001c0 -24.667 -2.33301 -47.667 -7 -69s-14.667 -42 -30 -62s-35 -32.667 -59 -38zM141 593.001l-0.000976562 -222c30.667 0 52.334 5.33301 65.001 16
c20.667 17.333 31 47.333 31 90c0 38 -6 67.333 -18 88c-11.333 18.667 -32.333 28 -63 28h-15zM279.999 851.001l-109 -124l-111 124l46 34l64 -74l69 74z" />
    <glyph glyph-name="rcaron" unicode="&#x159;" horiz-adv-x="236" 
d="M226 457v-86c-3.33301 0.666992 -8.33301 1 -15 1c-32 0 -53.667 -8.5 -65 -25.5s-17 -42.167 -17 -75.5v-271h-82v447h82v-56c13.333 22.667 26.833 39 40.5 49s32.5 15.667 56.5 17zM240 637l-109 -124l-111 124l46 34l64 -74l69 74z" />
    <glyph glyph-name="Sacute" unicode="&#x15a;" horiz-adv-x="330" 
d="M274 653l-1 -88.001c-26 20 -50.333 30 -73 30c-24.667 0 -44.334 -8.66699 -59.001 -26s-22 -38.333 -22 -63c0 -22.667 6.33301 -44 19 -64s28.167 -38.667 46.5 -56l55 -54.5c18.333 -19 33.833 -42.5 46.5 -70.5s19 -59 19 -93
c0 -49.333 -13.833 -91.166 -41.5 -125.499s-65.5 -51.5 -113.5 -51.5c-37.333 0 -70 10.667 -98 32v89c31.333 -23.333 60.333 -35 87 -35c25.333 0 44.833 8.66699 58.5 26s20.5 39 20.5 65c0 25.333 -6.5 48.666 -19.5 69.999s-28.5 40.5 -46.5 57.5l-54.5 53
c-18.333 18.333 -34 40.833 -47 67.5s-19.5 56.334 -19.5 89.001c0 50 13 90.833 39 122.5s63.333 47.5 112 47.5c32.667 0 63.334 -7.33301 92.001 -22zM141 754.999l86 129l68 -42l-107 -115z" />
    <glyph glyph-name="sacute" unicode="&#x15b;" horiz-adv-x="260" 
d="M219 438l0.000976562 -77.0049c-18.667 14.667 -39.667 22 -63 22c-14 0 -26.333 -4.83301 -37 -14.5s-16 -21.5 -16 -35.5c0 -13.333 4.66699 -25.666 14 -36.999s20.833 -21.833 34.5 -31.5s27.334 -20.167 41.001 -31.5s25.167 -26.333 34.5 -45s14 -39.667 14 -63
c0 -39.333 -11.5 -71.166 -34.5 -95.499s-54.167 -36.5 -93.5 -36.5c-25.333 0 -49.666 7 -72.999 21v80c23.333 -18 46 -27 68 -27c18 0 32 4.83301 42 14.5s15 23.5 15 41.5c0 14.667 -4.83301 28.334 -14.5 41.001s-21.334 24 -35.001 34s-27.334 20.833 -41.001 32.5
s-25.334 26.334 -35.001 44.001s-14.5 37.834 -14.5 60.501c0 36 11 65.333 33 88s51 34 87 34c26 0 50.667 -6.33301 74 -19zM96.001 540.995l86 129l68 -42l-107 -115z" />
    <glyph glyph-name="Scircumflex" unicode="&#x15c;" horiz-adv-x="330" 
d="M274 653l-1 -88.001c-26 20 -50.333 30 -73 30c-24.667 0 -44.334 -8.66699 -59.001 -26s-22 -38.333 -22 -63c0 -22.667 6.33301 -44 19 -64s28.167 -38.667 46.5 -56l55 -54.5c18.333 -19 33.833 -42.5 46.5 -70.5s19 -59 19 -93
c0 -49.333 -13.833 -91.166 -41.5 -125.499s-65.5 -51.5 -113.5 -51.5c-37.333 0 -70 10.667 -98 32v89c31.333 -23.333 60.333 -35 87 -35c25.333 0 44.833 8.66699 58.5 26s20.5 39 20.5 65c0 25.333 -6.5 48.666 -19.5 69.999s-28.5 40.5 -46.5 57.5l-54.5 53
c-18.333 18.333 -34 40.833 -47 67.5s-19.5 56.334 -19.5 89.001c0 50 13 90.833 39 122.5s63.333 47.5 112 47.5c32.667 0 63.334 -7.33301 92.001 -22zM295 760.999l-41 -34l-69 74l-64 -74l-46 34l111 124z" />
    <glyph glyph-name="scircumflex" unicode="&#x15d;" horiz-adv-x="260" 
d="M219 438l0.000976562 -77.0049c-18.667 14.667 -39.667 22 -63 22c-14 0 -26.333 -4.83301 -37 -14.5s-16 -21.5 -16 -35.5c0 -13.333 4.66699 -25.666 14 -36.999s20.833 -21.833 34.5 -31.5s27.334 -20.167 41.001 -31.5s25.167 -26.333 34.5 -45s14 -39.667 14 -63
c0 -39.333 -11.5 -71.166 -34.5 -95.499s-54.167 -36.5 -93.5 -36.5c-25.333 0 -49.666 7 -72.999 21v80c23.333 -18 46 -27 68 -27c18 0 32 4.83301 42 14.5s15 23.5 15 41.5c0 14.667 -4.83301 28.334 -14.5 41.001s-21.334 24 -35.001 34s-27.334 20.833 -41.001 32.5
s-25.334 26.334 -35.001 44.001s-14.5 37.834 -14.5 60.501c0 36 11 65.333 33 88s51 34 87 34c26 0 50.667 -6.33301 74 -19zM250.001 546.995l-41 -34l-69 74l-64 -74l-46 34l111 124z" />
    <glyph glyph-name="Scedilla" unicode="&#x15e;" horiz-adv-x="330" 
d="M274 653l-1 -88.001c-26 20 -50.333 30 -73 30c-24.667 0 -44.334 -8.66699 -59.001 -26s-22 -38.333 -22 -63c0 -22.667 6.33301 -44 19 -64s28.167 -38.667 46.5 -56l55 -54.5c18.333 -19 33.833 -42.5 46.5 -70.5s19 -59 19 -93
c0 -49.333 -13.833 -91.166 -41.5 -125.499s-65.5 -51.5 -113.5 -51.5c-37.333 0 -70 10.667 -98 32v89c31.333 -23.333 60.333 -35 87 -35c25.333 0 44.833 8.66699 58.5 26s20.5 39 20.5 65c0 25.333 -6.5 48.666 -19.5 69.999s-28.5 40.5 -46.5 57.5l-54.5 53
c-18.333 18.333 -34 40.833 -47 67.5s-19.5 56.334 -19.5 89.001c0 50 13 90.833 39 122.5s63.333 47.5 112 47.5c32.667 0 63.334 -7.33301 92.001 -22zM214 -72.001l-73 -118l-49 23l54 125z" />
    <glyph glyph-name="scedilla" unicode="&#x15f;" horiz-adv-x="260" 
d="M219 438l0.000976562 -77.0049c-18.667 14.667 -39.667 22 -63 22c-14 0 -26.333 -4.83301 -37 -14.5s-16 -21.5 -16 -35.5c0 -13.333 4.66699 -25.666 14 -36.999s20.833 -21.833 34.5 -31.5s27.334 -20.167 41.001 -31.5s25.167 -26.333 34.5 -45s14 -39.667 14 -63
c0 -39.333 -11.5 -71.166 -34.5 -95.499s-54.167 -36.5 -93.5 -36.5c-25.333 0 -49.666 7 -72.999 21v80c23.333 -18 46 -27 68 -27c18 0 32 4.83301 42 14.5s15 23.5 15 41.5c0 14.667 -4.83301 28.334 -14.5 41.001s-21.334 24 -35.001 34s-27.334 20.833 -41.001 32.5
s-25.334 26.334 -35.001 44.001s-14.5 37.834 -14.5 60.501c0 36 11 65.333 33 88s51 34 87 34c26 0 50.667 -6.33301 74 -19zM176.001 -74.0049l-76 -117l-38 20l55 126z" />
    <glyph glyph-name="Scaron" unicode="&#x160;" horiz-adv-x="330" 
d="M274 653l-1 -88.001c-26 20 -50.333 30 -73 30c-24.667 0 -44.334 -8.66699 -59.001 -26s-22 -38.333 -22 -63c0 -22.667 6.33301 -44 19 -64s28.167 -38.667 46.5 -56l55 -54.5c18.333 -19 33.833 -42.5 46.5 -70.5s19 -59 19 -93
c0 -49.333 -13.833 -91.166 -41.5 -125.499s-65.5 -51.5 -113.5 -51.5c-37.333 0 -70 10.667 -98 32v89c31.333 -23.333 60.333 -35 87 -35c25.333 0 44.833 8.66699 58.5 26s20.5 39 20.5 65c0 25.333 -6.5 48.666 -19.5 69.999s-28.5 40.5 -46.5 57.5l-54.5 53
c-18.333 18.333 -34 40.833 -47 67.5s-19.5 56.334 -19.5 89.001c0 50 13 90.833 39 122.5s63.333 47.5 112 47.5c32.667 0 63.334 -7.33301 92.001 -22zM295 850.999l-109 -124l-111 124l46 34l64 -74l69 74z" />
    <glyph glyph-name="scaron" unicode="&#x161;" horiz-adv-x="260" 
d="M219 438l0.000976562 -77.0049c-18.667 14.667 -39.667 22 -63 22c-14 0 -26.333 -4.83301 -37 -14.5s-16 -21.5 -16 -35.5c0 -13.333 4.66699 -25.666 14 -36.999s20.833 -21.833 34.5 -31.5s27.334 -20.167 41.001 -31.5s25.167 -26.333 34.5 -45s14 -39.667 14 -63
c0 -39.333 -11.5 -71.166 -34.5 -95.499s-54.167 -36.5 -93.5 -36.5c-25.333 0 -49.666 7 -72.999 21v80c23.333 -18 46 -27 68 -27c18 0 32 4.83301 42 14.5s15 23.5 15 41.5c0 14.667 -4.83301 28.334 -14.5 41.001s-21.334 24 -35.001 34s-27.334 20.833 -41.001 32.5
s-25.334 26.334 -35.001 44.001s-14.5 37.834 -14.5 60.501c0 36 11 65.333 33 88s51 34 87 34c26 0 50.667 -6.33301 74 -19zM255.001 636.995l-109 -124l-111 124l46 34l64 -74l69 74z" />
    <glyph glyph-name="Tcedilla" unicode="&#x162;" horiz-adv-x="288" 
d="M290 588h-102v-588h-88v588h-102v79h292v-79zM210 -72l-73 -118l-49 23l54 125z" />
    <glyph glyph-name="tcedilla" unicode="&#x163;" horiz-adv-x="196" 
d="M184 383h-45v-383h-82v383h-46v64h46v127h82v-127h45v-64zM155 -74l-76 -117l-38 20l55 126z" />
    <glyph glyph-name="Tcaron" unicode="&#x164;" horiz-adv-x="288" 
d="M188 588h102v79h-292v-79h102v-588h88v588zM255 851l-109 -124l-111 124l46 34l64 -74l69 74z" />
    <glyph glyph-name="tcaron" unicode="&#x165;" horiz-adv-x="278" 
d="M184 383h-45v-383h-82v383h-46v64h46v127h82v-127h45v-64zM288 667l-71 -189l-45 13l44 197z" />
    <glyph glyph-name="Utilde" unicode="&#x168;" horiz-adv-x="409" 
d="M358 667l-0.00195312 -490.001c0 -63.333 -10.667 -110.166 -32 -140.499s-62.333 -45.5 -123 -45.5c-57.333 0 -97 15.667 -119 47s-33 76.666 -33 135.999v493h88v-490c0 -15.333 0.666992 -27.833 2 -37.5s4 -20 8 -31s10.833 -19.167 20.5 -24.5s21.834 -8 36.501 -8
c12.667 0 23.334 2.16699 32.001 6.5s15 9 19 14s7 13.167 9 24.5s3.16699 19.833 3.5 25.5s0.5 15.834 0.5 30.501v490h88zM265.998 814.999l48.999 0.000976562c0 -58.667 -22 -88 -66 -88c-11.333 0 -25.666 4.66699 -42.999 14s-30.333 14 -39 14
c-13.333 0 -20 -8 -20 -24h-54c2.66699 58.667 25 88 67 88c13.333 0 29.333 -5 48 -15s32 -15 40 -15c2.66699 0 4.83398 0.333008 6.50098 1s3 1.66699 4 3s2 3 3 5s1.66699 3.83301 2 5.5s0.666016 3.66699 0.999023 6s0.833008 4.16602 1.5 5.49902z" />
    <glyph glyph-name="utilde" unicode="&#x169;" horiz-adv-x="359" 
d="M313 447l-0.000976562 -301.996c0 -52 -10 -90.5 -30 -115.5s-55.667 -37.5 -107 -37.5c-46.667 0 -81.334 15 -104.001 45c-16.667 22 -25 58 -25 108v302h82v-268c0 -3.33301 0.166992 -8.5 0.5 -15.5s0.5 -12.167 0.5 -15.5c0.666992 -16.667 1.5 -29.334 2.5 -38.001
s5.5 -17.334 13.5 -26.001s19.333 -13 34 -13c10 0 18.333 1.83301 25 5.5s11.834 7.83398 15.501 12.501s6.33398 11.667 8.00098 21s2.5 16.666 2.5 21.999s-0.166992 13.666 -0.5 24.999s-0.5 18.666 -0.5 21.999v268h83zM240.999 601.004l48.999 0.000976562
c0 -58.667 -22 -88 -66 -88c-10.667 0 -24.667 4.66699 -42 14s-30.666 14 -39.999 14c-13.333 0 -20 -8 -20 -24h-54c2.66699 58.667 25 88 67 88c14 0 30.333 -5 49 -15s31.667 -15 39 -15c2.66699 0 4.83398 0.333008 6.50098 1s3 1.66699 4 3s2 3 3 5
s1.66699 3.83301 2 5.5s0.666016 3.66699 0.999023 6s0.833008 4.16602 1.5 5.49902z" />
    <glyph glyph-name="Umacron" unicode="&#x16a;" horiz-adv-x="409" 
d="M358 667l-0.00195312 -490.001c0 -63.333 -10.667 -110.166 -32 -140.499s-62.333 -45.5 -123 -45.5c-57.333 0 -97 15.667 -119 47s-33 76.666 -33 135.999v493h88v-490c0 -15.333 0.666992 -27.833 2 -37.5s4 -20 8 -31s10.833 -19.167 20.5 -24.5s21.834 -8 36.501 -8
c12.667 0 23.334 2.16699 32.001 6.5s15 9 19 14s7 13.167 9 24.5s3.16699 19.833 3.5 25.5s0.5 15.834 0.5 30.501v490h88zM316.998 731.999h-224v62h224v-62z" />
    <glyph glyph-name="umacron" unicode="&#x16b;" horiz-adv-x="359" 
d="M313 447l-0.000976562 -301.996c0 -52 -10 -90.5 -30 -115.5s-55.667 -37.5 -107 -37.5c-46.667 0 -81.334 15 -104.001 45c-16.667 22 -25 58 -25 108v302h82v-268c0 -3.33301 0.166992 -8.5 0.5 -15.5s0.5 -12.167 0.5 -15.5c0.666992 -16.667 1.5 -29.334 2.5 -38.001
s5.5 -17.334 13.5 -26.001s19.333 -13 34 -13c10 0 18.333 1.83301 25 5.5s11.834 7.83398 15.501 12.501s6.33398 11.667 8.00098 21s2.5 16.666 2.5 21.999s-0.166992 13.666 -0.5 24.999s-0.5 18.666 -0.5 21.999v268h83zM286.999 531.004h-224v62h224v-62z" />
    <glyph glyph-name="Ubreve" unicode="&#x16c;" horiz-adv-x="409" 
d="M358 667l-0.00195312 -490.001c0 -63.333 -10.667 -110.166 -32 -140.499s-62.333 -45.5 -123 -45.5c-57.333 0 -97 15.667 -119 47s-33 76.666 -33 135.999v493h88v-490c0 -15.333 0.666992 -27.833 2 -37.5s4 -20 8 -31s10.833 -19.167 20.5 -24.5s21.834 -8 36.501 -8
c12.667 0 23.334 2.16699 32.001 6.5s15 9 19 14s7 13.167 9 24.5s3.16699 19.833 3.5 25.5s0.5 15.834 0.5 30.501v490h88zM272.998 810.999h54.998c-3.33301 -30.667 -16.5 -53.834 -39.5 -69.501s-50.833 -23.5 -83.5 -23.5s-60.5 7.83301 -83.5 23.5
s-36.167 38.834 -39.5 69.501h55c10.667 -23.333 33.334 -35 68.001 -35s57.334 11.667 68.001 35z" />
    <glyph glyph-name="ubreve" unicode="&#x16d;" horiz-adv-x="359" 
d="M313 447l-0.000976562 -301.996c0 -52 -10 -90.5 -30 -115.5s-55.667 -37.5 -107 -37.5c-46.667 0 -81.334 15 -104.001 45c-16.667 22 -25 58 -25 108v302h82v-268c0 -3.33301 0.166992 -8.5 0.5 -15.5s0.5 -12.167 0.5 -15.5c0.666992 -16.667 1.5 -29.334 2.5 -38.001
s5.5 -17.334 13.5 -26.001s19.333 -13 34 -13c10 0 18.333 1.83301 25 5.5s11.834 7.83398 15.501 12.501s6.33398 11.667 8.00098 21s2.5 16.666 2.5 21.999s-0.166992 13.666 -0.5 24.999s-0.5 18.666 -0.5 21.999v268h83zM247.999 606.004h54.998
c-3.33301 -30.667 -16.5 -53.834 -39.5 -69.501s-50.833 -23.5 -83.5 -23.5s-60.5 7.83301 -83.5 23.5s-36.167 38.834 -39.5 69.501h55c10.667 -23.333 33.334 -35 68.001 -35s57.334 11.667 68.001 35z" />
    <glyph glyph-name="Uring" unicode="&#x16e;" horiz-adv-x="409" 
d="M358 667l-0.00195312 -490.001c0 -63.333 -10.667 -110.166 -32 -140.499s-62.333 -45.5 -123 -45.5c-57.333 0 -97 15.667 -119 47s-33 76.666 -33 135.999v493h88v-490c0 -15.333 0.666992 -27.833 2 -37.5s4 -20 8 -31s10.833 -19.167 20.5 -24.5s21.834 -8 36.501 -8
c12.667 0 23.334 2.16699 32.001 6.5s15 9 19 14s7 13.167 9 24.5s3.16699 19.833 3.5 25.5s0.5 15.834 0.5 30.501v490h88zM119.998 798.999c0 24 8.16699 44.167 24.5 60.5s36.5 24.5 60.5 24.5s44.167 -8.16699 60.5 -24.5s24.5 -36.5 24.5 -60.5
s-8.16699 -44.167 -24.5 -60.5s-36.5 -24.5 -60.5 -24.5s-44.167 8.16699 -60.5 24.5s-24.5 36.5 -24.5 60.5zM164.998 798.999c0 -11.333 3.83301 -20.833 11.5 -28.5s17.167 -11.5 28.5 -11.5s20.833 3.83301 28.5 11.5s11.5 17.167 11.5 28.5s-3.83301 20.833 -11.5 28.5
s-17.167 11.5 -28.5 11.5s-20.833 -3.83301 -28.5 -11.5s-11.5 -17.167 -11.5 -28.5z" />
    <glyph glyph-name="uring" unicode="&#x16f;" horiz-adv-x="359" 
d="M313 447l-0.000976562 -301.996c0 -52 -10 -90.5 -30 -115.5s-55.667 -37.5 -107 -37.5c-46.667 0 -81.334 15 -104.001 45c-16.667 22 -25 58 -25 108v302h82v-268c0 -3.33301 0.166992 -8.5 0.5 -15.5s0.5 -12.167 0.5 -15.5c0.666992 -16.667 1.5 -29.334 2.5 -38.001
s5.5 -17.334 13.5 -26.001s19.333 -13 34 -13c10 0 18.333 1.83301 25 5.5s11.834 7.83398 15.501 12.501s6.33398 11.667 8.00098 21s2.5 16.666 2.5 21.999s-0.166992 13.666 -0.5 24.999s-0.5 18.666 -0.5 21.999v268h83zM94.999 600.004c0 24 8.16699 44.167 24.5 60.5
s36.5 24.5 60.5 24.5s44.167 -8.16699 60.5 -24.5s24.5 -36.5 24.5 -60.5s-8.16699 -44.167 -24.5 -60.5s-36.5 -24.5 -60.5 -24.5s-44.167 8.16699 -60.5 24.5s-24.5 36.5 -24.5 60.5zM139.999 600.004c0 -11.333 3.83301 -20.833 11.5 -28.5s17.167 -11.5 28.5 -11.5
s20.833 3.83301 28.5 11.5s11.5 17.167 11.5 28.5s-3.83301 20.833 -11.5 28.5s-17.167 11.5 -28.5 11.5s-20.833 -3.83301 -28.5 -11.5s-11.5 -17.167 -11.5 -28.5z" />
    <glyph glyph-name="Uhungarumlaut" unicode="&#x170;" horiz-adv-x="409" 
d="M358 667l-0.00195312 -490.001c0 -63.333 -10.667 -110.166 -32 -140.499s-62.333 -45.5 -123 -45.5c-57.333 0 -97 15.667 -119 47s-33 76.666 -33 135.999v493h88v-490c0 -15.333 0.666992 -27.833 2 -37.5s4 -20 8 -31s10.833 -19.167 20.5 -24.5s21.834 -8 36.501 -8
c12.667 0 23.334 2.16699 32.001 6.5s15 9 19 14s7 13.167 9 24.5s3.16699 19.833 3.5 25.5s0.5 15.834 0.5 30.501v490h88zM327.998 851.999l-77 -126l-39 21l61 138zM214.998 851.999l-77 -126l-40 21l61 138z" />
    <glyph glyph-name="uhungarumlaut" unicode="&#x171;" horiz-adv-x="359" 
d="M313 447l-0.000976562 -301.996c0 -52 -10 -90.5 -30 -115.5s-55.667 -37.5 -107 -37.5c-46.667 0 -81.334 15 -104.001 45c-16.667 22 -25 58 -25 108v302h82v-268c0 -3.33301 0.166992 -8.5 0.5 -15.5s0.5 -12.167 0.5 -15.5c0.666992 -16.667 1.5 -29.334 2.5 -38.001
s5.5 -17.334 13.5 -26.001s19.333 -13 34 -13c10 0 18.333 1.83301 25 5.5s11.834 7.83398 15.501 12.501s6.33398 11.667 8.00098 21s2.5 16.666 2.5 21.999s-0.166992 13.666 -0.5 24.999s-0.5 18.666 -0.5 21.999v268h83zM307.999 638.004l-77 -126l-39 21l61 138z
M194.999 638.004l-77 -126l-40 21l61 138z" />
    <glyph glyph-name="Uogonek" unicode="&#x172;" horiz-adv-x="409" 
d="M358 667v-490.002c0 -41.333 -4.66699 -73 -14 -95c-9.33301 -22.667 -26.333 -45.667 -51 -69c-26 -24 -41.333 -39 -46 -45c-10.667 -13.333 -16 -26.666 -16 -39.999c0 -9.33301 2.66699 -16.666 8 -21.999c5.33301 -6 13.666 -9 24.999 -9s22.333 3.66699 33 11v-51
c-15.333 -8 -30.666 -12 -45.999 -12c-21.333 0 -38 5 -50 15c-15.333 13.333 -23 30.333 -23 51c0 13.333 4.66699 28 14 44c6.66699 12 15.667 24 27 36h-9c-55.333 0 -95.333 12.333 -120 37c-26 26 -39 75.667 -39 149v490h88v-494c0 -41.333 5.66699 -68.333 17 -81
c10 -10.667 26.333 -16 49 -16c22 0 38 5.33301 48 16c11.333 12.667 17 39.667 17 81v494h88z" />
    <glyph glyph-name="uogonek" unicode="&#x173;" horiz-adv-x="359" 
d="M313 447l-0.00195312 -305.999c0 -45.333 -8.66699 -80.333 -26 -105c-9.33301 -13.333 -23.666 -27.333 -42.999 -42c-16 -12.667 -27.667 -24.334 -35 -35.001c-8 -11.333 -12 -22.333 -12 -33c0 -7.33301 2.33301 -14 7 -20c5.33301 -6 13 -9 23 -9
c12 0 25 3.66699 39 11v-51c-13.333 -8 -28.333 -12 -45 -12c-22 0 -39.667 5.33301 -53 16c-16 12.667 -24 29.667 -24 51c0 14.667 5.66699 30.667 17 48c6.66699 10 16.334 21.333 29.001 34c-4 -0.666992 -11 -1 -21 -1c-38.667 0 -68 10.667 -88 32
c-22.667 23.333 -34 62 -34 116v306h83v-310c0 -26 5 -44 15 -54c8 -8 19.667 -12 35 -12s27 4 35 12c10 10 15 28 15 54v310h83z" />
    <glyph glyph-name="Ydieresis" unicode="&#x178;" horiz-adv-x="341" 
d="M343 667l-116 -380v-287h-90v287l-139 380h95l54 -179c15.333 -50.667 26.333 -94 33 -130c8 49.333 16.667 93.333 26 132l44 177h93zM290 771c0 -14 -4.83301 -25.833 -14.5 -35.5s-21.5 -14.5 -35.5 -14.5s-25.833 4.83301 -35.5 14.5s-14.5 21.5 -14.5 35.5
s4.83301 25.833 14.5 35.5s21.5 14.5 35.5 14.5s25.833 -4.83301 35.5 -14.5s14.5 -21.5 14.5 -35.5zM142 771c0 -14 -4.83301 -25.833 -14.5 -35.5s-21.5 -14.5 -35.5 -14.5s-25.833 4.83301 -35.5 14.5s-14.5 21.5 -14.5 35.5s4.83301 25.833 14.5 35.5
s21.5 14.5 35.5 14.5s25.833 -4.83301 35.5 -14.5s14.5 -21.5 14.5 -35.5z" />
    <glyph glyph-name="Zacute" unicode="&#x179;" horiz-adv-x="334" 
d="M329 667l-201 -588h190v-79h-307l202 591h-178v76h294zM126 755l86 129l68 -42l-107 -115z" />
    <glyph glyph-name="zacute" unicode="&#x17a;" horiz-adv-x="298" 
d="M285 447l-150 -372h142v-75h-264l155 374h-143v73h260zM101 541l86 129l68 -42l-107 -115z" />
    <glyph glyph-name="Zdotaccent" unicode="&#x17b;" horiz-adv-x="334" 
d="M329 667l-201 -588h190v-79h-307l202 591h-178v76h294zM237 773c0 -14.667 -5.16699 -27 -15.5 -37s-22.833 -15 -37.5 -15s-27.167 5 -37.5 15s-15.5 22.333 -15.5 37s5.16699 27.167 15.5 37.5s22.833 15.5 37.5 15.5s27.167 -5.16699 37.5 -15.5
s15.5 -22.833 15.5 -37.5z" />
    <glyph glyph-name="zdotaccent" unicode="&#x17c;" horiz-adv-x="298" 
d="M285 447l-150 -372h142v-75h-264l155 374h-143v73h260zM209 565c0 -14.667 -5.16699 -27 -15.5 -37s-22.833 -15 -37.5 -15s-27.167 5 -37.5 15s-15.5 22.333 -15.5 37s5.16699 27.167 15.5 37.5s22.833 15.5 37.5 15.5s27.167 -5.16699 37.5 -15.5
s15.5 -22.833 15.5 -37.5z" />
    <glyph glyph-name="Zcaron" unicode="&#x17d;" horiz-adv-x="334" 
d="M329 667l-201 -588h190v-79h-307l202 591h-178v76h294zM285 851l-109 -124l-111 124l46 34l64 -74l69 74z" />
    <glyph glyph-name="zcaron" unicode="&#x17e;" horiz-adv-x="298" 
d="M285 447l-150 -372h142v-75h-264l155 374h-143v73h260zM265 637l-109 -124l-111 124l46 34l64 -74l69 74z" />
    <glyph glyph-name="uni018F" unicode="&#x18f;" horiz-adv-x="411" 
d="M38 351l243.001 0.000976562c-1.33301 54 -3.66602 99 -6.99902 135c-4 46.667 -14.667 78 -32 94c-11.333 10.667 -26 16 -44 16c-18.667 0 -33.334 -5 -44.001 -15c-15.333 -14 -26 -39.667 -32 -77l-84 35c11.333 42 28.333 74.333 51 97c26 26 62 39 108 39
s82.667 -13.333 110 -40c28 -26.667 46.167 -64 54.5 -112s12.5 -107 12.5 -177c0 -166.667 -23 -272.334 -69 -317.001c-26 -25.333 -61.667 -38 -107 -38c-42.667 0 -76.334 12.333 -101.001 37c-24 24.667 -39.833 59 -47.5 103s-11.5 100.667 -11.5 170v50z
M280.001 275.001h-157v-49c0 -67.333 10.333 -111.666 31 -132.999c12 -12 27.333 -18 46 -18c18 0 32.333 5 43 15c13.333 12.667 23 39 29 79c4 27.333 6.66699 62.666 8 105.999z" />
    <glyph glyph-name="florin" unicode="&#x192;" horiz-adv-x="380" 
d="M386 728l-16.998 -84.001c-11.333 7.33301 -23 11 -35 11c-6 0 -11.333 -1 -16 -3s-8.66699 -5.16699 -12 -9.5s-6.16602 -8.33301 -8.49902 -12s-4.5 -9 -6.5 -16s-3.33301 -12.333 -4 -16l-3 -16.5c-1.33301 -7.33301 -2.33301 -12 -3 -14l-24 -121h69l-12 -61h-69
l-59 -310l-6 -31.5c-0.666992 -3.66699 -2.83398 -13.834 -6.50098 -30.501s-6.5 -27.667 -8.5 -33l-11 -28.5c-5.33301 -13.667 -10.166 -23.167 -14.499 -28.5l-18 -22c-7.66699 -9.33301 -15.5 -15.833 -23.5 -19.5s-17.333 -7.16699 -28 -10.5s-22.334 -5 -35.001 -5
c-18 0 -36.667 3.66699 -56 11l15 76c14 -4.66699 26.333 -7 37 -7c11.333 0 20.833 2.83301 28.5 8.5s14 14.5 19 26.5s8.33301 21.5 10 28.5s3.83398 17.5 6.50098 31.5l66 344h-60l12 61h60l24 121c3.33301 18 5.66602 30.167 6.99902 36.5s4.16602 17.5 8.49902 33.5
s8.16602 27.333 11.499 34s8.5 15.334 15.5 26.001s14.5 18.334 22.5 23.001s18 9 30 13s25.333 6 40 6c18 0 36 -4 54 -12z" />
    <glyph glyph-name="uni01CF" unicode="&#x1cf;" horiz-adv-x="193" 
d="M141 0h-90v667h90v-667zM202 851l-109 -124l-111 124l46 34l64 -74l69 74z" />
    <glyph glyph-name="uni01D0" unicode="&#x1d0;" horiz-adv-x="176" 
d="M129 0h-82v447h82v-447zM198 637l-109 -124l-111 124l46 34l64 -74l69 74z" />
    <glyph glyph-name="uni01DD" unicode="&#x1dd;" horiz-adv-x="326" 
d="M30 248h187.998v4c0 62.667 -9.66699 102.667 -29 120c-8 7.33301 -17.333 11 -28 11c-12 0 -21.667 -3.66699 -29 -11c-15.333 -14 -23.666 -39.333 -24.999 -76l-77 16c8 50 22.333 85.667 43 107c22 23.333 51.667 35 89 35c36 0 64.667 -10.667 86 -32
c34 -33.333 51 -99 51 -197s-17 -164.333 -51 -199c-21.333 -22 -49.666 -33 -84.999 -33c-31.333 0 -57.333 10 -78 30c-36.667 35.333 -55 100 -55 194v31zM217.998 188l-103.999 -0.000976562c1.33301 -60.667 10 -99 26 -115c6.66699 -6.66699 15 -10 25 -10
c11.333 0 20.666 4 27.999 12c16 16.667 24.333 54.334 25 113.001z" />
    <glyph glyph-name="Gcaron" unicode="&#x1e6;" horiz-adv-x="412" 
d="M374 351v-26c0 -106 -6.33301 -181.333 -19 -226c-20 -72 -67 -108 -141 -108c-52.667 0 -91.167 15.667 -115.5 47s-41.166 75.333 -50.499 132c-6.66699 44 -10 97.333 -10 160c0 103.333 8 182 24 236c22 72.667 71.333 109 148 109c45.333 0 80 -11.167 104 -33.5
s42.667 -56.5 56 -102.5l-84 -35c-4 19.333 -7.83301 34.5 -11.5 45.5s-11.167 21.5 -22.5 31.5s-25.666 15 -42.999 15c-23.333 0 -41.333 -11.667 -54 -35c-16 -30 -24 -106 -24 -228c0 -78.667 4 -139.667 12 -183c4.66699 -24 11.834 -42.5 21.501 -55.5
s25.5 -19.5 47.5 -19.5c17.333 0 31.666 4.83301 42.999 14.5s19.166 23.667 23.499 42s7.16602 34 8.49902 47s2 28.833 2 47.5v49h-78v76h163zM316 851l-109 -124l-111 124l46 34l64 -74l69 74z" />
    <glyph glyph-name="gcaron" unicode="&#x1e7;" horiz-adv-x="349" 
d="M303 447v-477.001c0 -53.333 -10.333 -93 -31 -119s-57 -39 -109 -39c-38 0 -68.667 11.5 -92 34.5s-35 53.5 -35 91.5c0 1.33301 0.166992 3.66602 0.5 6.99902s0.5 6 0.5 8h80c0 -48 17.667 -72 53 -72c21.333 0 35 6.83301 41 20.5s9 32.834 9 57.501v96
c-18 -41.333 -45 -62 -81 -62c-14.667 0 -27.834 3 -39.501 9s-21.334 13.5 -29.001 22.5s-14.167 20.833 -19.5 35.5s-9.33301 28 -12 40s-4.66699 26.667 -6 44s-2.16602 31 -2.49902 41s-0.5 22.333 -0.5 37c0 22 0.333008 40.333 1 55s2.83398 34.334 6.50098 59.001
s9 44.5 16 59.5s17.833 28.5 32.5 40.5s32.334 18 53.001 18c20 0 35.667 -5 47 -15s22.666 -25.333 33.999 -46v54h83zM221 228.999c0 100 -18.334 150.001 -55.001 150.001c-6 0 -11.5 -1.33301 -16.5 -4s-9.33301 -7 -13 -13s-6.66699 -12 -9 -18
s-4.33301 -13.833 -6 -23.5s-3 -17.834 -4 -24.501s-1.66699 -15.5 -2 -26.5s-0.5 -18.833 -0.5 -23.5v-22v-16c0 -94 18.667 -141 56 -141c10.667 0 19.334 2.83301 26.001 8.5s11.5 14.667 14.5 27s5 21.833 6 28.5s1.83301 16.667 2.5 30c0.666992 15.333 1 38 1 68z
M274.999 637l-109 -124l-111 124l46 34l64 -74l69 74z" />
    <glyph glyph-name="AEacute" unicode="&#x1fc;" horiz-adv-x="511" 
d="M510 0h-232l-27 131h-138l-24 -131h-88l142 667h221l17 -76h-145l45 -212h132l18 -76h-132l51 -227h142zM239 199l-32 151c-8.66699 42.667 -17.667 106 -27 190c-1.33301 -25.333 -7.33301 -73 -18 -143c-10 -66 -22 -132 -36 -198h113zM211 755l86 129l68 -42
l-107 -115z" />
    <glyph glyph-name="aeacute" unicode="&#x1fd;" horiz-adv-x="505" 
d="M396 153l78.999 -0.000976562c-2.66699 -50 -13.334 -89.167 -32.001 -117.5s-51 -42.5 -97 -42.5c-51.333 0 -86.666 23.333 -105.999 70c-10.667 -24.667 -23.667 -42.5 -39 -53.5s-36 -16.5 -62 -16.5c-72.667 0 -109 48 -109 144c0 42 8.5 77.667 25.5 107
s45.167 44 84.5 44c30 0 53.333 -9.66699 70 -29c0 3.33301 -0.166992 10.5 -0.5 21.5s-0.666016 18.333 -0.999023 22s-1.16602 9.83398 -2.49902 18.501s-3 14.667 -5 18l-8 13.5c-3.33301 5.66699 -7.5 9.66699 -12.5 12s-11.333 4.5 -19 6.5s-16.167 3 -25.5 3
c-28.667 0 -56.667 -8.66699 -84 -26v84c32 14.667 62 22 90 22c49.333 0 84.666 -19 105.999 -57c22.667 38 54.667 57 96 57c20 0 37.833 -3.83301 53.5 -11.5s28 -18.667 37 -33s16.5 -29 22.5 -44s10.167 -33.333 12.5 -55s3.83301 -39.5 4.5 -53.5s1 -31 1 -51h-184
v-18c0 -84.667 19 -127 57 -127c32 0 48 30.667 48 92zM391.999 265.999v20c0 66.667 -16.667 100 -50 100s-50 -33 -50 -99v-21h100zM215.999 141.999c0 54 -17.333 81 -52 81c-34 0 -51 -25.667 -51 -77c0 -58 17 -87 51 -87c34.667 0 52 27.667 52 83zM207.999 540.999
l86 129l68 -42l-107 -115z" />
    <glyph glyph-name="Scommaaccent" unicode="&#x218;" horiz-adv-x="330" 
d="M274 653l-1 -88.001c-26 20 -50.333 30 -73 30c-24.667 0 -44.334 -8.66699 -59.001 -26s-22 -38.333 -22 -63c0 -22.667 6.33301 -44 19 -64s28.167 -38.667 46.5 -56l55 -54.5c18.333 -19 33.833 -42.5 46.5 -70.5s19 -59 19 -93
c0 -49.333 -13.833 -91.166 -41.5 -125.499s-65.5 -51.5 -113.5 -51.5c-37.333 0 -70 10.667 -98 32v89c31.333 -23.333 60.333 -35 87 -35c25.333 0 44.833 8.66699 58.5 26s20.5 39 20.5 65c0 25.333 -6.5 48.666 -19.5 69.999s-28.5 40.5 -46.5 57.5l-54.5 53
c-18.333 18.333 -34 40.833 -47 67.5s-19.5 56.334 -19.5 89.001c0 50 13 90.833 39 122.5s63.333 47.5 112 47.5c32.667 0 63.334 -7.33301 92.001 -22zM206 -69.001l-64 -167l-45 13l37 175z" />
    <glyph glyph-name="scommaaccent" unicode="&#x219;" horiz-adv-x="260" 
d="M219 438l0.000976562 -77.0049c-18.667 14.667 -39.667 22 -63 22c-14 0 -26.333 -4.83301 -37 -14.5s-16 -21.5 -16 -35.5c0 -13.333 4.66699 -25.666 14 -36.999s20.833 -21.833 34.5 -31.5s27.334 -20.167 41.001 -31.5s25.167 -26.333 34.5 -45s14 -39.667 14 -63
c0 -39.333 -11.5 -71.166 -34.5 -95.499s-54.167 -36.5 -93.5 -36.5c-25.333 0 -49.666 7 -72.999 21v80c23.333 -18 46 -27 68 -27c18 0 32 4.83301 42 14.5s15 23.5 15 41.5c0 14.667 -4.83301 28.334 -14.5 41.001s-21.334 24 -35.001 34s-27.334 20.833 -41.001 32.5
s-25.334 26.334 -35.001 44.001s-14.5 37.834 -14.5 60.501c0 36 11 65.333 33 88s51 34 87 34c26 0 50.667 -6.33301 74 -19zM181.001 -69.0049l-63 -165l-45 13l36 173z" />
    <glyph glyph-name="Tcommaaccent" unicode="&#x21a;" horiz-adv-x="288" 
d="M290 588h-102v-588h-88v588h-102v79h292v-79zM180 -69l-64 -167l-45 13l37 175z" />
    <glyph glyph-name="tcommaaccent" unicode="&#x21b;" horiz-adv-x="196" 
d="M184 383h-45v-383h-82v383h-46v64h46v127h82v-127h45v-64zM136 -69l-63 -165l-45 13l36 173z" />
    <glyph glyph-name="uni0228" unicode="&#x228;" horiz-adv-x="321" 
d="M290 0h-239v667h239v-76h-149v-212h132v-76h-132v-227h149v-76zM237 -72l-73 -118l-49 23l54 125z" />
    <glyph glyph-name="uni0229" unicode="&#x229;" horiz-adv-x="326" 
d="M299 207h-188.001c0 -95.333 19 -143 57 -143c34 0 51 29 51 87h77c-1.33301 -39.333 -7 -69.333 -17 -90c-21.333 -45.333 -58.666 -68 -111.999 -68c-24 0 -44.833 5 -62.5 15s-31.167 22.333 -40.5 37s-16.666 33.167 -21.999 55.5s-8.66602 42.333 -9.99902 60
s-2 38.167 -2 61.5c0 28.667 1.33301 54.167 4 76.5s8.16699 46.5 16.5 72.5s22.166 46.333 41.499 61s43.666 22 72.999 22c24 0 44.667 -5.83301 62 -17.5s30.5 -25.667 39.5 -42s16.167 -36.833 21.5 -61.5s8.5 -46 9.5 -64s1.5 -38.667 1.5 -62zM110.999 267h104
c-2.66699 49.333 -8.66699 81.333 -18 96c-8 14 -19.333 21 -34 21c-30.667 0 -48 -36.667 -52 -110v-4v-3zM219.999 -74l-76 -117l-38 20l55 126z" />
    <glyph glyph-name="uni0237" unicode="&#x237;" horiz-adv-x="176" 
d="M129 -188h-82v635h82v-635z" />
    <glyph glyph-name="uni0259" unicode="&#x259;" horiz-adv-x="326" 
d="M30 248h187.998v4c0 62.667 -9.66699 102.667 -29 120c-8 7.33301 -17.333 11 -28 11c-12 0 -21.667 -3.66699 -29 -11c-15.333 -14 -23.666 -39.333 -24.999 -76l-77 16c8 50 22.333 85.667 43 107c22 23.333 51.667 35 89 35c36 0 64.667 -10.667 86 -32
c34 -33.333 51 -99 51 -197s-17 -164.333 -51 -199c-21.333 -22 -49.666 -33 -84.999 -33c-31.333 0 -57.333 10 -78 30c-36.667 35.333 -55 100 -55 194v31zM217.998 188l-103.999 -0.000976562c1.33301 -60.667 10 -99 26 -115c6.66699 -6.66699 15 -10 25 -10
c11.333 0 20.666 4 27.999 12c16 16.667 24.333 54.334 25 113.001z" />
    <glyph glyph-name="afii57929" unicode="&#x2bc;" horiz-adv-x="196" 
d="M163 667l-71 -189l-45 13l44 197z" />
    <glyph glyph-name="circumflex" unicode="&#x2c6;" 
d="M360 547l-41 -34l-69 74l-64 -74l-46 34l111 124z" />
    <glyph glyph-name="caron" unicode="&#x2c7;" 
d="M360 637l-109 -124l-111 124l46 34l64 -74l69 74z" />
    <glyph glyph-name="uni02C9" unicode="&#x2c9;" 
d="M362 531h-224v62h224v-62z" />
    <glyph glyph-name="breve" unicode="&#x2d8;" 
d="M318 606h54.998c-3.33301 -30.667 -16.5 -53.834 -39.5 -69.501s-50.833 -23.5 -83.5 -23.5s-60.5 7.83301 -83.5 23.5s-36.167 38.834 -39.5 69.501h55c10.667 -23.333 33.334 -35 68.001 -35s57.334 11.667 68.001 35z" />
    <glyph glyph-name="dotaccent" unicode="&#x2d9;" 
d="M303 565c0 -14.667 -5.16699 -27 -15.5 -37s-22.833 -15 -37.5 -15s-27.167 5 -37.5 15s-15.5 22.333 -15.5 37s5.16699 27.167 15.5 37.5s22.833 15.5 37.5 15.5s27.167 -5.16699 37.5 -15.5s15.5 -22.833 15.5 -37.5z" />
    <glyph glyph-name="ring" unicode="&#x2da;" 
d="M165 600c0 24 8.16699 44.167 24.5 60.5s36.5 24.5 60.5 24.5s44.167 -8.16699 60.5 -24.5s24.5 -36.5 24.5 -60.5s-8.16699 -44.167 -24.5 -60.5s-36.5 -24.5 -60.5 -24.5s-44.167 8.16699 -60.5 24.5s-24.5 36.5 -24.5 60.5zM210 600
c0 -11.333 3.83301 -20.833 11.5 -28.5s17.167 -11.5 28.5 -11.5s20.833 3.83301 28.5 11.5s11.5 17.167 11.5 28.5s-3.83301 20.833 -11.5 28.5s-17.167 11.5 -28.5 11.5s-20.833 -3.83301 -28.5 -11.5s-11.5 -17.167 -11.5 -28.5z" />
    <glyph glyph-name="ogonek" unicode="&#x2db;" 
d="M405 -92v-51c-11.333 -8 -26.333 -12 -45 -12c-28 0 -49.667 7 -65 21c-13.333 12 -20 28 -20 48c0 14.667 4 30 12 46c8 14.667 16.667 28 26 40h45c-8 -12 -14.333 -22.667 -19 -32c-7.33301 -14.667 -11 -27.667 -11 -39c0 -10 2.66699 -17.667 8 -23
c6 -6 15.333 -9 28 -9c12 0 25.667 3.66699 41 11z" />
    <glyph glyph-name="tilde" unicode="&#x2dc;" 
d="M312 601l48.999 0.000976562c0 -58.667 -22 -88 -66 -88c-11.333 0 -25.666 4.66699 -42.999 14s-30.333 14 -39 14c-13.333 0 -20 -8 -20 -24h-54c2.66699 58.667 25 88 67 88c14 0 30.167 -5 48.5 -15s31.5 -15 39.5 -15c2.66699 0 4.83398 0.333008 6.50098 1
s3 1.66699 4 3s2 3 3 5s1.66699 3.83301 2 5.5s0.666016 3.66699 0.999023 6s0.833008 4.16602 1.5 5.49902z" />
    <glyph glyph-name="hungarumlaut" unicode="&#x2dd;" 
d="M388 638l-77 -126l-39 21l61 138zM275 638l-77 -126l-40 21l61 138z" />
    <glyph glyph-name="acutecomb" unicode="&#x301;" horiz-adv-x="2" 
d="M-211 541l86 129l68 -42l-107 -115z" />
    <glyph glyph-name="uni0394" unicode="&#x394;" horiz-adv-x="667" 
d="M641 0h-615l262 667h88zM522 75l-190 492l-189 -493z" />
    <glyph glyph-name="uni0394" unicode="&#x2206;" horiz-adv-x="667" 
d="M641 0h-615l262 667h88zM522 75l-190 492l-189 -493z" />
    <glyph glyph-name="uni03A9" unicode="&#x3a9;" horiz-adv-x="666" 
d="M638 0l-261.999 -0.000976562v66c118 66 177 162 177 288c0 66.667 -20.333 125.834 -61 177.501s-93.334 77.5 -158.001 77.5c-66.667 0 -120.167 -25.333 -160.5 -76s-60.5 -110.334 -60.5 -179.001c0 -126 59.333 -222 178 -288v-66h-263v74h173
c-115.333 68.667 -173 165.334 -173 290.001c0 88 29 163.167 87 225.5s130.667 93.5 218 93.5c88 0 160.833 -31 218.5 -93s86.5 -137.333 86.5 -226c0 -126 -57.333 -222.667 -172 -290h172v-74z" />
    <glyph glyph-name="uni03A9" unicode="&#x2126;" horiz-adv-x="666" 
d="M638 0l-261.999 -0.000976562v66c118 66 177 162 177 288c0 66.667 -20.333 125.834 -61 177.501s-93.334 77.5 -158.001 77.5c-66.667 0 -120.167 -25.333 -160.5 -76s-60.5 -110.334 -60.5 -179.001c0 -126 59.333 -222 178 -288v-66h-263v74h173
c-115.333 68.667 -173 165.334 -173 290.001c0 88 29 163.167 87 225.5s130.667 93.5 218 93.5c88 0 160.833 -31 218.5 -93s86.5 -137.333 86.5 -226c0 -126 -57.333 -222.667 -172 -290h172v-74z" />
    <glyph glyph-name="pi" unicode="&#x3c0;" horiz-adv-x="594" 
d="M565 374h-74v-374h-82v374h-223v-374h-82v374h-75v73h536v-73z" />
    <glyph glyph-name="afii10023" unicode="&#x401;" horiz-adv-x="323" 
d="M290 0h-239v667h239v-76h-149v-212h132v-76h-132v-227h149v-76zM154 760c0 -14 -4.83301 -25.833 -14.5 -35.5s-21.5 -14.5 -35.5 -14.5s-25.833 4.83301 -35.5 14.5s-14.5 21.5 -14.5 35.5s4.83301 25.833 14.5 35.5s21.5 14.5 35.5 14.5s25.833 -4.83301 35.5 -14.5
s14.5 -21.5 14.5 -35.5zM292 760c0 -14 -4.83301 -25.833 -14.5 -35.5s-21.5 -14.5 -35.5 -14.5s-25.833 4.83301 -35.5 14.5s-14.5 21.5 -14.5 35.5s4.83301 25.833 14.5 35.5s21.5 14.5 35.5 14.5s25.833 -4.83301 35.5 -14.5s14.5 -21.5 14.5 -35.5z" />
    <glyph glyph-name="afii10051" unicode="&#x402;" horiz-adv-x="443" 
d="M98 0l-0.000976562 588h-88v79h299v-79h-121v-199c22.667 11.333 46.334 17 71.001 17c44 0 80.333 -13.667 109 -41c36.667 -36 55 -91.333 55 -166c0 -84.667 -19 -144.667 -57 -180c-20 -18.667 -46.333 -28 -79 -28c-24 0 -47.333 4.66699 -70 14l20 87
c12 -12 25.333 -18 40 -18c15.333 0 27 6.66699 35 20c11.333 18 17 49.333 17 94c0 54.667 -11.333 93 -34 115c-13.333 13.333 -30 20 -50 20c-20.667 0 -39.667 -6.33301 -57 -19v-304h-90z" />
    <glyph glyph-name="afii10052" unicode="&#x403;" horiz-adv-x="309" 
d="M291 591h-150v-591h-90v667h240v-76zM121 755l86 129l68 -42l-107 -115z" />
    <glyph glyph-name="afii10053" unicode="&#x404;" horiz-adv-x="369" 
d="M331 115v-92.999c-24.667 -21.333 -56.667 -32 -96 -32c-44.667 0 -82.334 14 -113.001 42c-56 52 -84 159.667 -84 323c0 136 25.333 228.333 76 277c30 29.333 69.667 44 119 44c38.667 0 71.334 -10.333 98.001 -31v-93c-24.667 27.333 -52 41 -82 41
c-26 0 -47.667 -9 -65 -27c-32.667 -33.333 -49 -93.333 -49 -180h154v-76h-155c0 -36.667 4.16699 -75.834 12.5 -117.501s21.833 -71.5 40.5 -89.5c17.333 -16.667 39 -25 65 -25c34.667 0 61 12.333 79 37z" />
    <glyph glyph-name="afii10054" unicode="&#x405;" horiz-adv-x="330" 
d="M274 653l-1 -88.001c-26 20 -50.333 30 -73 30c-24.667 0 -44.334 -8.66699 -59.001 -26s-22 -38.333 -22 -63c0 -22.667 6.33301 -44 19 -64s28.167 -38.667 46.5 -56l55 -54.5c18.333 -19 33.833 -42.5 46.5 -70.5s19 -59 19 -93
c0 -49.333 -13.833 -91.166 -41.5 -125.499s-65.5 -51.5 -113.5 -51.5c-37.333 0 -70 10.667 -98 32v89c31.333 -23.333 60.333 -35 87 -35c25.333 0 44.833 8.66699 58.5 26s20.5 39 20.5 65c0 25.333 -6.5 48.666 -19.5 69.999s-28.5 40.5 -46.5 57.5l-54.5 53
c-18.333 18.333 -34 40.833 -47 67.5s-19.5 56.334 -19.5 89.001c0 50 13 90.833 39 122.5s63.333 47.5 112 47.5c32.667 0 63.334 -7.33301 92.001 -22z" />
    <glyph glyph-name="afii10055" unicode="&#x406;" horiz-adv-x="193" 
d="M141 0h-90v667h90v-667z" />
    <glyph glyph-name="afii10056" unicode="&#x407;" horiz-adv-x="193" 
d="M141 0h-90v667h90v-667zM180 771c0 -14 -3.5 -25.833 -10.5 -35.5s-15.167 -14.5 -24.5 -14.5c-10 0 -18.333 4.83301 -25 14.5s-10 21.5 -10 35.5s3.33301 25.833 10 35.5s15 14.5 25 14.5c9.33301 0 17.5 -4.83301 24.5 -14.5s10.5 -21.5 10.5 -35.5zM84 771
c0 -14 -3.33301 -25.833 -10 -35.5s-15 -14.5 -25 -14.5s-18.5 4.83301 -25.5 14.5s-10.5 21.5 -10.5 35.5s3.5 25.833 10.5 35.5s15.5 14.5 25.5 14.5s18.333 -4.83301 25 -14.5s10 -21.5 10 -35.5z" />
    <glyph glyph-name="afii10057" unicode="&#x408;" horiz-adv-x="259" 
d="M207 667l0.000976562 -518c0 -34 -3.33301 -60.667 -10 -80c-18 -52 -58.667 -78 -122 -78c-29.333 0 -55 6 -77 18v90c26.667 -15.333 46.667 -23 60 -23c10 0 18.5 1.33301 25.5 4s12.667 7.16699 17 13.5s7.66602 12 9.99902 17s4 12.833 5 23.5s1.5 18 1.5 22v24v487
h90z" />
    <glyph glyph-name="afii10058" unicode="&#x409;" horiz-adv-x="614" 
d="M388 382l13.001 -0.000976562c61.333 0 106.333 -14.667 135 -44c30.667 -31.333 46 -81.666 46 -150.999s-14.667 -118.666 -44 -147.999c-26 -26 -63.667 -39 -113 -39h-127v591h-113v-340c0 -61.333 -2 -103.333 -6 -126c-8 -46 -21.667 -79 -41 -99
c-21.333 -22 -49 -33 -83 -33c-20 0 -37 3 -51 9v91c9.33301 -10 21.666 -15 36.999 -15c13.333 0 24.333 4.33301 33 13c11.333 11.333 18.5 28.666 21.5 51.999s4.5 56.333 4.5 99v425h288v-285zM388.001 305.999v-230h4c34 0 57.667 6.33301 71 19c16.667 16 25 47 25 93
c0 48 -9.33301 80.667 -28 98c-14.667 13.333 -37.667 20 -69 20h-3z" />
    <glyph glyph-name="afii10059" unicode="&#x40a;" horiz-adv-x="589" 
d="M363 388h13c58 0 102 -15 132 -45c32.667 -32.667 49 -85 49 -157c0 -68.667 -14.667 -117.667 -44 -147c-26 -26 -63.667 -39 -113 -39h-127v312h-132v-312h-90v667h90v-279h132v279h90v-279zM363 312v-236h4c34 0 57.667 6.33301 71 19c16.667 15.333 25 47 25 95
c0 50 -9 83.667 -27 101c-14.667 14 -38 21 -70 21h-3z" />
    <glyph glyph-name="afii10060" unicode="&#x40b;" horiz-adv-x="451" 
d="M98 0v588h-88v79h299v-79h-121v-192c22 6.66699 45.667 10 71 10c40 0 73 -8.33301 99 -25c21.333 -14 35.5 -31.5 42.5 -52.5s10.5 -48.5 10.5 -82.5v-246h-91v240c0 32 -6 54 -18 66s-31 18 -57 18c-16.667 0 -35.667 -3 -57 -9v-315h-90z" />
    <glyph glyph-name="afii10061" unicode="&#x40c;" horiz-adv-x="372" 
d="M367 0h-101l-125 327v-327h-90v667h90v-306l125 306h91l-135 -323zM151 755l86 129l68 -42l-107 -115z" />
    <glyph glyph-name="afii10062" unicode="&#x40e;" horiz-adv-x="359" 
d="M8 667h94l41 -157c19.333 -76.667 32.666 -135 39.999 -175c12.667 68 25.334 127 38.001 177l40 155h90l-183 -667h-88l61 213zM248 827l75 -29.999c-10 -30 -26.667 -52.667 -50 -68c-22 -15.333 -51.667 -23 -89 -23s-67 7.66699 -89 23c-23.333 15.333 -40 38 -50 68
l75 30c4 -16.667 11 -29.334 21 -38.001c10 -9.33301 24.333 -14 43 -14s33 4.66699 43 14c10.667 9.33301 17.667 22 21 38z" />
    <glyph glyph-name="afii10145" unicode="&#x40f;" horiz-adv-x="410" 
d="M51 667h90v-591h128v591h90v-667h-111v-130h-86v130h-111v667z" />
    <glyph glyph-name="afii10017" unicode="&#x410;" horiz-adv-x="360" 
d="M359 0h-89l-25 130h-132l-25 -130h-87l145 667h71zM126 199h106c-26.667 148.667 -44 261.334 -52 338.001c-6.66699 -68.667 -24.667 -181.334 -54 -338.001z" />
    <glyph glyph-name="afii10018" unicode="&#x411;" horiz-adv-x="364" 
d="M51 667h244.999v-76h-155v-210h15c58.667 0 102.334 -14.667 131.001 -44c30 -30.667 45 -81 45 -151c0 -68.667 -14.667 -117.667 -44 -147c-26 -26 -63.667 -39 -113 -39h-124v667zM140.999 305v-229.001h6c32 0 54.667 6.33301 68 19c16 15.333 24 46 24 92
c0 48.667 -9 81.334 -27 98.001c-15.333 13.333 -37.333 20 -66 20h-5z" />
    <glyph glyph-name="afii10019" unicode="&#x412;" horiz-adv-x="364" 
d="M51 667l122 -0.000976562c95.333 0 143 -59.333 143 -178c0 -47.333 -8.33301 -83.666 -25 -108.999c-11.333 -18 -31 -31.667 -59 -41c27.333 -10 47 -21.667 59 -35c23.333 -24.667 35 -65 35 -121c0 -122 -52.333 -183 -157 -183h-118v667zM136 372.999h6.00098
c35.333 0 58.666 9.83301 69.999 29.5s17 48.5 17 86.5c0 70 -26 105 -78 105h-15v-221zM136.001 301.999v-225.001c26 0 44.667 2.66699 56 8c27.333 12.667 41 46.334 41 101.001c0 40 -6.5 69.333 -19.5 88s-38.833 28 -77.5 28z" />
    <glyph glyph-name="afii10020" unicode="&#x413;" horiz-adv-x="309" 
d="M291 591h-150v-591h-90v667h240v-76z" />
    <glyph glyph-name="afii10021" unicode="&#x414;" horiz-adv-x="443" 
d="M94 667l286 0.000976562v-591h53v-206h-82v130h-265v-130h-82v206c24.667 12.667 44 30 58 52c21.333 33.333 32 94.666 32 183.999v355zM178 591.001v-249.001c0 -87.333 -5.33301 -148.666 -16 -183.999c-10 -32.667 -27.667 -60 -53 -82h181v515h-112z" />
    <glyph glyph-name="afii10022" unicode="&#x415;" horiz-adv-x="321" 
d="M290 0h-239v667h239v-76h-149v-212h132v-76h-132v-227h149v-76z" />
    <glyph glyph-name="afii10024" unicode="&#x416;" horiz-adv-x="516" 
d="M511 0h-93l-116 329v-329h-88v329l-116 -329h-93l132 344l-126 323h87l116 -308v308h88v-308l116 308h87l-126 -323z" />
    <glyph glyph-name="afii10025" unicode="&#x417;" horiz-adv-x="355" 
d="M96 383l10.001 -0.000976562c34 0 59.667 7.66699 77 23c18.667 16 28 42 28 78c0 37.333 -8.33301 65.333 -25 84c-14.667 16 -34.334 24 -59.001 24c-32.667 0 -61 -15 -85 -45v93c29.333 23.333 63.666 35 102.999 35c45.333 0 81 -12.333 107 -37
c32.667 -31.333 49 -78.666 49 -141.999c0 -51.333 -12 -89.666 -36 -114.999c-14 -14.667 -29.667 -24 -47 -28c21.333 -3.33301 41 -13 59 -29c29.333 -28 44 -70.667 44 -128c0 -70 -19.333 -123.667 -58 -161c-30 -29.333 -70 -44 -120 -44
c-42.667 0 -77.667 11.667 -105 35v94c28 -28.667 59.333 -43 94 -43c26.667 0 48.334 7.66699 65.001 23c20.667 19.333 31 50.666 31 93.999c0 42 -10 72 -30 90c-16.667 15.333 -43.667 23 -81 23h-21v76z" />
    <glyph glyph-name="afii10026" unicode="&#x418;" horiz-adv-x="410" 
d="M51 0l0.00195312 666.998h88v-273c0 -77.333 -6.33301 -155.666 -19 -234.999c7.33301 24 16.666 56.5 27.999 97.5s21.666 75.5 30.999 103.5l100 307h80v-667h-88v297c0 42.667 6 115 18 217c-32.667 -117.333 -49.667 -177.666 -51 -180.999l-107 -333h-80z" />
    <glyph glyph-name="afii10027" unicode="&#x419;" horiz-adv-x="410" 
d="M51 0l0.00195312 666.998h88v-273c0 -77.333 -6.33301 -155.666 -19 -234.999c7.33301 24 16.666 56.5 27.999 97.5s21.666 75.5 30.999 103.5l100 307h80v-667h-88v297c0 42.667 6 115 18 217c-32.667 -117.333 -49.667 -177.666 -51 -180.999l-107 -333h-80z
M269.002 826.998l75 -29.999c-10 -30 -26.667 -52.667 -50 -68c-22 -15.333 -51.667 -23 -89 -23s-67 7.66699 -89 23c-23.333 15.333 -40 38 -50 68l75 30c4 -16.667 11 -29.334 21 -38.001c10 -9.33301 24.333 -14 43 -14s33 4.66699 43 14
c10.667 9.33301 17.667 22 21 38z" />
    <glyph glyph-name="afii10028" unicode="&#x41a;" horiz-adv-x="372" 
d="M367 0h-101l-125 327v-327h-90v667h90v-306l125 306h91l-135 -323z" />
    <glyph glyph-name="afii10029" unicode="&#x41b;" horiz-adv-x="439" 
d="M100 667l288.001 0.000976562v-667h-90v591h-113v-340c0 -61.333 -2 -103.333 -6 -126c-8 -46 -21.667 -79 -41 -99c-21.333 -22 -49 -33 -83 -33c-20 0 -37 3 -51 9v91c9.33301 -10 21.666 -15 36.999 -15c13.333 0 24.333 4.33301 33 13
c11.333 11.333 18.5 28.666 21.5 51.999s4.5 56.333 4.5 99v425z" />
    <glyph glyph-name="afii10030" unicode="&#x41c;" horiz-adv-x="504" 
d="M482 0l-86.9951 0.00488281c-10 152 -15.667 244.333 -17 277c0 10 -0.666992 24.833 -2 44.5s-2 34.5 -2 44.5c-0.666992 11.333 -0.833984 21.666 -0.500977 30.999s0.333008 19.666 0 30.999s-1.16602 21.666 -2.49902 30.999c-6 -39.333 -34.333 -192.333 -85 -459
h-60c-4 20 -11.833 56.833 -23.5 110.5l-26 122c-5.66699 27.667 -12.334 63.334 -20.001 107.001s-13.834 83.5 -18.501 119.5l-26 -459h-84l55 667h77l58 -272c0.666992 -5.33301 2.5 -13.333 5.5 -24s4.83301 -18.667 5.5 -24c8.66699 -48 17 -102 25 -162
c0 1.33301 5 32.666 15 93.999c1.33301 8 3.16602 20.167 5.49902 36.5s4.16602 28.5 5.49902 36.5c1.33301 5.33301 3.16602 13.166 5.49902 23.499s3.83301 18.166 4.5 23.499l52 268h78z" />
    <glyph glyph-name="afii10031" unicode="&#x41d;" horiz-adv-x="414" 
d="M363 0h-90v330h-132v-330h-90v667h90v-261h132v261h90v-667z" />
    <glyph glyph-name="afii10032" unicode="&#x41e;" horiz-adv-x="423" 
d="M385 333c0 -44 -1.00098 -81.1719 -3.00098 -111.505s-8.16699 -64.666 -18.5 -102.999s-25.166 -67.166 -44.499 -86.499c-27.333 -27.333 -63 -41 -107 -41c-44.667 0 -80.667 13.667 -108 41c-44 44.667 -66 144.334 -66 299.001c0 32.667 0.5 60.5 1.5 83.5
s3.5 49.833 7.5 80.5s10.833 57.834 20.5 81.501s21.834 42.834 36.501 57.501c27.333 27.333 63.333 41 108 41c44 0 79.667 -13.667 107 -41s45.166 -67 53.499 -119s12.5 -112.667 12.5 -182zM131.999 316.995c0 -126.667 12.333 -202.334 37 -227.001
c10.667 -10.667 25 -16 43 -16c17.333 0 31.333 5.33301 42 16c24.667 24.667 37 100.334 37 227.001v50c0 117.333 -12.333 187.666 -37 210.999c-10.667 10.667 -24.667 16 -42 16c-18 0 -32.333 -5.33301 -43 -16c-24.667 -23.333 -37 -93.666 -37 -210.999v-50z" />
    <glyph glyph-name="afii10033" unicode="&#x41f;" horiz-adv-x="404" 
d="M353 0h-90v591h-122v-591h-90v667h302v-667z" />
    <glyph glyph-name="afii10034" unicode="&#x420;" horiz-adv-x="351" 
d="M51 667h118c42 0 74.667 -7 98 -21c44 -26.667 66 -81.667 66 -165c0 -73.333 -19.333 -125 -58 -155c-26 -20 -70.667 -30 -134 -30v-296h-90v667zM141 373h7.99902c34.667 0 58.334 8.66699 71.001 26s19 44 19 80c0 74.667 -28.667 112 -86 112h-12v-218z" />
    <glyph glyph-name="afii10035" unicode="&#x421;" horiz-adv-x="337" 
d="M313 92l-0.00195312 -81.999c-21.333 -12.667 -45.666 -19 -72.999 -19c-134.667 0 -202 110.333 -202 331c0 236 66.667 354 200 354c26 0 51 -6.66699 75 -20v-81c-20.667 11.333 -40 17 -58 17c-19.333 0 -36.333 -4.33301 -51 -13s-26.167 -21.334 -34.5 -38.001
s-15.166 -33 -20.499 -49s-9 -35.833 -11 -59.5s-3.33301 -42.167 -4 -55.5s-1 -30 -1 -50c0 -165.333 42.333 -248 127 -248c18 0 35.667 4.33301 53 13z" />
    <glyph glyph-name="afii10036" unicode="&#x422;" horiz-adv-x="288" 
d="M290 588h-102v-588h-88v588h-102v79h292v-79z" />
    <glyph glyph-name="afii10037" unicode="&#x423;" horiz-adv-x="359" 
d="M8 667h94l41 -157c19.333 -76.667 32.666 -135 39.999 -175c12.667 68 25.334 127 38.001 177l40 155h90l-183 -667h-88l61 213z" />
    <glyph glyph-name="afii10038" unicode="&#x424;" horiz-adv-x="526" 
d="M218 0v82c-48.667 5.33301 -89 24 -121 56c-44.667 44 -67 115.333 -67 214c0 99.333 22.667 171 68 215c32.667 31.333 72.667 48.333 120 51v76h90v-76c47.333 -2.66699 87.333 -19.667 120 -51c45.333 -43.333 68 -113.333 68 -210
c0 -101.333 -22.333 -174.333 -67 -219c-32.667 -32 -73 -50.667 -121 -56v-82h-90zM302 542v-383.998c24 3.33301 44 12.666 60 27.999c29.333 28 44 84 44 168c0 79.333 -13.333 132.666 -40 159.999c-16 18 -37.333 27.333 -64 28zM224 158.002v383.998
c-26.667 -0.666992 -48 -10 -64 -28c-26.667 -27.333 -40 -80.666 -40 -159.999c0 -84 14.667 -140 44 -168c16 -15.333 36 -24.666 60 -27.999z" />
    <glyph glyph-name="afii10039" unicode="&#x425;" horiz-adv-x="332" 
d="M334 0h-89.9971l-21.5 60l-23 64.5c-5.66699 16.333 -11.667 36.166 -18 59.499s-11.5 45 -15.5 65c-2 -20 -11 -54.333 -27 -103l-46 -146h-95l127 339l-119 328h87l20.5 -54.5l25 -67.5c6.33301 -17.333 13 -37.666 20 -60.999s11.5 -42.666 13.5 -57.999
c5.33301 24.667 11.666 49.5 18.999 74.5s17.166 56.167 29.499 93.5s20.166 61.666 23.499 72.999h90l-123 -328z" />
    <glyph glyph-name="afii10040" unicode="&#x426;" horiz-adv-x="432" 
d="M51 667h90v-591h128v591h90v-591h59v-206h-86v130h-281v667z" />
    <glyph glyph-name="afii10041" unicode="&#x427;" horiz-adv-x="405" 
d="M354 667l-0.000976562 -667h-90v319c-22 -5.33301 -46 -8 -72 -8c-42.667 0 -75 8 -97 24c-20 14 -33.333 32.667 -40 56s-10 53 -10 89v187h91v-190c0 -34 6.66699 -57 20 -69c10.667 -10 29 -15 55 -15c16.667 0 34.334 2.33301 53.001 7v267h90z" />
    <glyph glyph-name="afii10042" unicode="&#x428;" horiz-adv-x="610" 
d="M51 667h88v-591h122v591h88v-591h122v591h88v-667h-508v667z" />
    <glyph glyph-name="afii10043" unicode="&#x429;" horiz-adv-x="640" 
d="M51 667h88v-591h122v591h88v-591h122v591h88v-591h67v-206h-86v130h-489v667z" />
    <glyph glyph-name="afii10044" unicode="&#x42a;" horiz-adv-x="412" 
d="M186 381l13 0.000976562c61.333 0 106.333 -14.667 135 -44c30.667 -31.333 46 -82 46 -152c0 -68.667 -14.667 -117.334 -44 -146.001c-26 -26 -63.667 -39 -113 -39h-127v588h-86v79h176v-286zM186 306.001v-230h4c34 0 57.667 6.33301 71 19c16.667 16 25 47 25 93
c0 48 -9.33301 80.667 -28 98c-14.667 13.333 -37.667 20 -69 20h-3z" />
    <glyph glyph-name="afii10045" unicode="&#x42b;" horiz-adv-x="514" 
d="M462 0h-90v667h90v-667zM51 667h90v-285h10c60.667 0 105.667 -14.667 135 -44c30.667 -31.333 46 -81.333 46 -150c0 -70 -14.667 -119.667 -44 -149c-26 -26 -63.667 -39 -113 -39h-124v667zM141 306v-230h4c34 0 57.667 6.33301 71 19c16.667 16 25 46.667 25 92
c0 48.667 -9.33301 81.667 -28 99c-14.667 13.333 -37.667 20 -69 20h-3z" />
    <glyph glyph-name="afii10046" unicode="&#x42c;" horiz-adv-x="367" 
d="M51 667l90 -0.00195312v-285h13c61.333 0 106.333 -14.667 135 -44c30.667 -31.333 46 -81.666 46 -150.999s-14.667 -118.666 -44 -147.999c-26 -26 -63.667 -39 -113 -39h-127v667zM141 305.998v-230h4c34 0 57.667 6.33301 71 19c16.667 16 25 47 25 93
c0 48 -9.33301 80.667 -28 98c-14.667 13.333 -37.667 20 -69 20h-3z" />
    <glyph glyph-name="afii10047" unicode="&#x42d;" horiz-adv-x="369" 
d="M38 22l-0.000976562 93.001c18 -24.667 44.333 -37 79 -37c26.667 0 48.334 8.33301 65.001 25c18.667 18.667 32.167 48.667 40.5 90s12.5 80.333 12.5 117h-155v76h154c-0.666992 88 -17 148 -49 180c-18 18 -39.667 27 -65 27c-30 0 -57.333 -13.667 -82 -41v93
c27.333 20.667 60.333 31 99 31c48.667 0 88 -14.667 118 -44c50.667 -49.333 76 -137 76 -263c0 -168.667 -28 -280.334 -84 -335.001c-30 -29.333 -67.667 -44 -113 -44c-38 0 -70 10.667 -96 32z" />
    <glyph glyph-name="afii10048" unicode="&#x42e;" horiz-adv-x="597" 
d="M559 333c0 -44 -1 -81.1689 -3 -111.502s-8.16699 -64.666 -18.5 -102.999s-25.166 -67.166 -44.499 -86.499c-27.333 -27.333 -63 -41 -107 -41c-44.667 0 -80.667 13.667 -108 41c-25.333 25.333 -42.333 61.5 -51 108.5s-13 106.167 -13 177.5v7h-73v-325h-90v667h90
v-266h74c0 113.333 21 191 63 233c27.333 27.333 63.333 41 108 41c44 0 79.667 -13.667 107 -41s45.166 -67 53.499 -119s12.5 -112.667 12.5 -182zM306 316.998c0 -126.667 12.333 -202.334 37 -227.001c10.667 -10.667 25 -16 43 -16c17.333 0 31.333 5.33301 42 16
c24.667 24.667 37 100.334 37 227.001v50c0 117.333 -12.333 187.666 -37 210.999c-10.667 10.667 -24.667 16 -42 16c-18 0 -32.333 -5.33301 -43 -16c-24.667 -23.333 -37 -93.666 -37 -210.999v-50z" />
    <glyph glyph-name="afii10049" unicode="&#x42f;" horiz-adv-x="356" 
d="M20 0l108.999 309c-26 4 -48 15 -66 33c-28 27.333 -42 72.333 -42 135c0 74 17.333 126.667 52 158c10.667 10 23.334 17.5 38.001 22.5s26.667 7.83301 36 8.5s22.333 1 39 1h119v-667h-90v304l-103 -304h-92zM214.999 593h-24c-23.333 0 -41.333 -5.33301 -54 -16
c-19.333 -17.333 -29 -50 -29 -98s10.333 -79.333 31 -94c13.333 -10.667 34 -16 62 -16h14v224z" />
    <glyph glyph-name="afii10065" unicode="&#x430;" horiz-adv-x="349" 
d="M302 0l-83.001 -0.000976562v57c-9.33301 -21.333 -20 -37.333 -32 -48s-28.667 -16 -50 -16c-16.667 0 -31.5 3.83301 -44.5 11.5s-23.167 19 -30.5 34s-13.333 29.667 -18 44s-8 32 -10 53s-3.16699 37.5 -3.5 49.5s-0.5 26.667 -0.5 44s0.333008 31.833 1 43.5
s1.83398 27.5 3.50098 47.5s5 36.833 10 50.5s11.167 27.334 18.5 41.001s17.5 24.167 30.5 31.5s27.833 11 44.5 11c34 0 61 -19.333 81 -58v51h83v-447zM221.999 198.999v48c0 88 -17.667 132 -53 132c-36 0 -54 -41.667 -54 -125v-61c0 -84 18 -126 54 -126
c35.333 0 53 44 53 132z" />
    <glyph glyph-name="afii10066" unicode="&#x431;" horiz-adv-x="353" 
d="M235 192v55c0 60.667 -8.33301 99.334 -25 116.001c-8 8 -17.333 12 -28 12s-20 -4 -28 -12c-16.667 -16.667 -25 -55.334 -25 -116.001v-55c0 -56.667 8.33301 -93.334 25 -110.001c8 -8 17.333 -12 28 -12s20 4 28 12c16.667 16.667 25 53.334 25 110.001zM219 565
l-23.999 -12.001c-29.333 -14 -50.666 -35.333 -63.999 -64c-12 -26 -17.333 -59 -16 -99c5.33301 17.333 14 31.333 26 42c15.333 14.667 35 22 59 22c28.667 0 53 -10.333 73 -31c32 -34.667 48 -100.667 48 -198c0 -96 -18.667 -162.333 -56 -199
c-22.667 -22 -51 -33 -85 -33c-35.333 0 -64 10.667 -86 32c-16 16 -28.333 38.5 -37 67.5s-13.667 55.167 -15 78.5s-2 53.333 -2 90c0 66 3 127 9 183c7.33301 66.667 27 115.667 59 147c14.667 14.667 38 29.334 70 44.001c4 2 9.83301 4.5 17.5 7.5
s13.167 5.33301 16.5 7l12 6c4.66699 2.33301 8.5 4.5 11.5 6.5s5.5 4.33301 7.5 7c8 8.66699 12 19 12 31h73c-2.66699 -39.333 -15.334 -70 -38.001 -92c-5.33301 -5.33301 -11.333 -10.166 -18 -14.499s-12.334 -7.83301 -17.001 -10.5s-11 -5.83398 -19 -9.50098
s-13.667 -6.5 -17 -8.5z" />
    <glyph glyph-name="afii10067" unicode="&#x432;" horiz-adv-x="331" 
d="M47 447l110 -0.000976562c48 0 82.333 -10.333 103 -31c19.333 -19.333 29 -48.666 29 -87.999c0 -31.333 -7.33301 -55.333 -22 -72c-12 -13.333 -27 -21.333 -45 -24c20 -4.66699 37 -14 51 -28c18.667 -18.667 28 -45 28 -79c0 -42 -11.667 -73.333 -35 -94
c-22 -20.667 -53.667 -31 -95 -31h-124v447zM129 259.999l10 -0.000976562c23.333 0 40.666 5.33301 51.999 16c12 10.667 18 26.334 18 47.001c0 20 -5.66699 35 -17 45c-9.33301 8.66699 -25.666 13 -48.999 13h-14v-121zM129 65.998h15c21.333 0 37.333 4 48 12
c14 10.667 21 28.667 21 54c0 24 -7.33301 42.333 -22 55c-12 10 -29 15 -51 15h-11v-136z" />
    <glyph glyph-name="afii10068" unicode="&#x433;" horiz-adv-x="261" 
d="M249 374h-120v-374h-82v447h202v-73z" />
    <glyph glyph-name="afii10069" unicode="&#x434;" horiz-adv-x="355" 
d="M68 447h240v-373h39v-178h-74v104h-195v-104h-74v178c16 6 29 15.667 39 29c16.667 20.667 25 54.667 25 102v242zM226 74v299h-82v-158c0 -39.333 -3.33301 -68.333 -10 -87c-6 -18.667 -17 -36.667 -33 -54h125z" />
    <glyph glyph-name="afii10070" unicode="&#x435;" horiz-adv-x="326" 
d="M299 207h-188.001c0 -95.333 19 -143 57 -143c34 0 51 29 51 87h77c-1.33301 -39.333 -7 -69.333 -17 -90c-21.333 -45.333 -58.666 -68 -111.999 -68c-24 0 -44.833 5 -62.5 15s-31.167 22.333 -40.5 37s-16.666 33.167 -21.999 55.5s-8.66602 42.333 -9.99902 60
s-2 38.167 -2 61.5c0 28.667 1.33301 54.167 4 76.5s8.16699 46.5 16.5 72.5s22.166 46.333 41.499 61s43.666 22 72.999 22c24 0 44.667 -5.83301 62 -17.5s30.5 -25.667 39.5 -42s16.167 -36.833 21.5 -61.5s8.5 -46 9.5 -64s1.5 -38.667 1.5 -62zM110.999 267h104
c-2.66699 49.333 -8.66699 81.333 -18 96c-8 14 -19.333 21 -34 21c-30.667 0 -48 -36.667 -52 -110v-4v-3z" />
    <glyph glyph-name="afii10072" unicode="&#x436;" horiz-adv-x="450" 
d="M446 0h-92l-89 204v-204h-80v204l-89 -204h-92l104 230l-103 217h93l87 -205v205h80v-205l87 205h93l-103 -217z" />
    <glyph glyph-name="afii10073" unicode="&#x437;" horiz-adv-x="293" 
d="M30 339l0.00195312 83.998c11.333 10 23 17 35 21c17.333 6.66699 37 10 59 10c41.333 0 73.333 -11.333 96 -34c21.333 -21.333 32 -50 32 -86c0 -27.333 -6.33301 -49.666 -19 -66.999c-10.667 -15.333 -25 -26.333 -43 -33c21.333 -6.66699 38.333 -16.667 51 -30
c18 -19.333 27 -44.333 27 -75c0 -43.333 -13.667 -77.666 -41 -102.999c-23.333 -22 -56 -33 -98 -33c-40 0 -73 9.33301 -99 28v87c9.33301 -10 19.666 -18.333 30.999 -25c14 -8 30.667 -12 50 -12c22 0 38.667 5.66699 50 17s17 26.333 17 45
c0 21.333 -8.33301 37.333 -25 48c-12 8 -31.667 12 -59 12h-18v70h18c26 0 45 6 57 18c10 10 15 23.333 15 40c0 18 -6 32.333 -18 43c-10.667 9.33301 -24.334 14 -41.001 14c-18 0 -33.667 -4.33301 -47 -13c-9.33301 -6 -19.333 -14.667 -30 -26z" />
    <glyph glyph-name="afii10074" unicode="&#x438;" horiz-adv-x="370" 
d="M47 447h82v-223c0 -16 -1 -43 -3 -81c4 16.667 12.333 41.667 25 75l92 229h80v-447h-82v222c0 26.667 1 53 3 79c-6 -24.667 -15 -52 -27 -82l-90 -219h-80v447z" />
    <glyph glyph-name="afii10075" unicode="&#x439;" horiz-adv-x="370" 
d="M47 447h82v-223c0 -16 -1 -43 -3 -81c4 16.667 12.333 41.667 25 75l92 229h80v-447h-82v222c0 26.667 1 53 3 79c-6 -24.667 -15 -52 -27 -82l-90 -219h-80v447zM242 617l69.002 -24c-9.33301 -28 -24 -49.667 -44 -65c-20.667 -15.333 -48 -23 -82 -23
s-61.333 7.66699 -82 23c-20 15.333 -34.667 37 -44 65l69 24c3.33301 -14 9.66602 -25 18.999 -33s22 -12 38 -12s28.667 4 38 12s15.666 19 18.999 33z" />
    <glyph glyph-name="afii10076" unicode="&#x43a;" horiz-adv-x="338" 
d="M334 0h-96l-109 203v-203h-82v447h82v-203l105 203h97l-122 -217z" />
    <glyph glyph-name="afii10077" unicode="&#x43b;" horiz-adv-x="373" 
d="M326 447l-0.00195312 -447h-82v373h-90v-176c0 -28.667 -0.666992 -52 -2 -70s-5.16602 -37.833 -11.499 -59.5s-15.833 -38.167 -28.5 -49.5c-16.667 -16 -39.667 -24 -69 -24c-12.667 0 -25.667 2 -39 6v78c8.66699 -5.33301 17.334 -8 26.001 -8
c10.667 0 19.667 3.66699 27 11c12.667 12.667 19 48.667 19 108v258h250z" />
    <glyph glyph-name="afii10078" unicode="&#x43c;" horiz-adv-x="426" 
d="M243 0h-60l-39 157c-12.667 51.333 -23 104 -31 158c0 -38.667 -2 -90 -6 -154l-11 -161h-78l47 446h80l39 -184c2 -10.667 5.83301 -29.167 11.5 -55.5l17.5 -81.5l17.5 81.5c5.66699 26.333 9.5 44.833 11.5 55.5l39 184h80l47 -446h-78l-11 161
c-4 64 -6 115.333 -6 154c-8 -54 -18.333 -106.667 -31 -158z" />
    <glyph glyph-name="afii10079" unicode="&#x43d;" horiz-adv-x="358" 
d="M129 447v-171h100v171h82v-447h-82v202h-100v-202h-82v447h82z" />
    <glyph glyph-name="afii10080" unicode="&#x43e;" horiz-adv-x="341" 
d="M225 192v59c0 60.667 -8.33301 99.334 -25 116.001c-8 8 -17.333 12 -28 12s-20 -4 -28 -12c-16.667 -16.667 -25 -55.334 -25 -116.001v-59c0 -56.667 8.33301 -93.334 25 -110.001c8 -8 17.333 -12 28 -12s20 4 28 12c16.667 16.667 25 53.334 25 110.001zM311 223
c0 -97.333 -18.333 -163.333 -55 -198c-22 -21.333 -50.333 -32 -85 -32c-35.333 0 -64 10.667 -86 32c-36.667 34.667 -55 100.667 -55 198c0 98 18.333 164.333 55 199c22 21.333 50.667 32 86 32c34.667 0 63 -10.667 85 -32c36.667 -34.667 55 -101 55 -199z" />
    <glyph glyph-name="afii10081" unicode="&#x43f;" horiz-adv-x="352" 
d="M47 0v447h258v-447h-82v373h-94v-373h-82z" />
    <glyph glyph-name="afii10082" unicode="&#x440;" horiz-adv-x="349" 
d="M129 447l0.00292969 -57.9971c9.33301 21.333 20.166 37.5 32.499 48.5s29.166 16.5 50.499 16.5c16.667 0 31.5 -3.83301 44.5 -11.5s23.167 -19 30.5 -34s13.333 -29.667 18 -44s8 -32 10 -53s3.16699 -37.5 3.5 -49.5s0.5 -26.667 0.5 -44
c0 -21.333 -0.333008 -39.333 -1 -54s-3 -33.834 -7 -57.501s-9.5 -42.834 -16.5 -57.501s-17.833 -27.667 -32.5 -39s-32.334 -17 -53.001 -17c-20 0 -35.833 4.66699 -47.5 14s-22.5 23.666 -32.5 42.999v-238h-82v635h82zM233.003 193.003v61c0 83.333 -18 125 -54 125
c-34.667 0 -52 -44.333 -52 -133v-46c0 -88.667 17.333 -133 52 -133c36 0 54 42 54 126z" />
    <glyph glyph-name="afii10083" unicode="&#x441;" horiz-adv-x="253" 
d="M229 88l0.00292969 -77.001c-20.667 -12 -42.667 -18 -66 -18c-88.667 0 -133 76 -133 228c0 28.667 1.33301 54.334 4 77.001s8.16699 47 16.5 73s22.166 46.333 41.499 61s43.666 22 72.999 22c22 0 43.333 -5.33301 64 -16v-84c-10.667 14 -24.334 21 -41.001 21
c-45.333 0 -68 -49.333 -68 -148c0 -104 22.333 -156 67 -156c14.667 0 28.667 5.66699 42 17z" />
    <glyph glyph-name="afii10084" unicode="&#x442;" horiz-adv-x="262" 
d="M254 374h-82v-374h-82v374h-82v73h246v-73z" />
    <glyph glyph-name="afii10085" unicode="&#x443;" horiz-adv-x="326" 
d="M323 447l-185 -635h-87l71 224l-119 411h94l65 -312l77 312h84z" />
    <glyph glyph-name="afii10086" unicode="&#x444;" horiz-adv-x="458" 
d="M188 -188v184.001c-43.333 3.33301 -79 19.666 -107 48.999c-35.333 38 -53 97 -53 177c0 85.333 17.667 145.666 53 180.999c28 28 63.667 44 107 48v216h82v-216c43.333 -4 79 -20 107 -48c35.333 -36.667 53 -96.667 53 -180c0 -82 -17.667 -141.333 -53 -178
c-28 -29.333 -63.667 -45.666 -107 -48.999v-184h-82zM264 377.001l-0.000976562 -307c20.667 0 38.334 6.66699 53.001 20c23.333 22 35 67 35 135c0 65.333 -11.333 109 -34 131c-15.333 14 -33.333 21 -54 21zM193.999 70.001l-0.000976562 307
c-20.667 0 -38.667 -7 -54 -21c-22.667 -22 -34 -66.333 -34 -133c0 -66 11.667 -110.333 35 -133c14.667 -13.333 32.334 -20 53.001 -20z" />
    <glyph glyph-name="afii10087" unicode="&#x445;" horiz-adv-x="332" 
d="M329 0l-99.001 0.00292969c-0.666992 2 -6.66699 14.833 -18 38.5s-19.666 41.667 -24.999 54s-11.333 27.666 -18 45.999s-10.667 32.5 -12 42.5c-1.33301 -12 -5 -26.833 -11 -44.5s-11.667 -32.834 -17 -45.501l-21.5 -50c-9 -20.667 -14.833 -34.334 -17.5 -41.001
h-87l112 236l-112 211h98c34 -74 55 -125 63 -153c5.33301 25.333 24.333 76.333 57 153h87l-101 -211z" />
    <glyph glyph-name="afii10088" unicode="&#x446;" horiz-adv-x="367" 
d="M47 447h82v-373h98v373h82v-373h48v-178h-76v104h-234v447z" />
    <glyph glyph-name="afii10089" unicode="&#x447;" horiz-adv-x="337" 
d="M208 0v195c-20.667 -7.33301 -42.667 -11 -66 -11c-36 0 -63.333 9 -82 27c-20 18.667 -30 50.667 -30 96v140h80v-131c0 -22 4.33301 -37.333 13 -46c8 -8 21 -12 39 -12s33.333 3 46 9v180h82v-447h-82z" />
    <glyph glyph-name="afii10090" unicode="&#x448;" horiz-adv-x="532" 
d="M47 447h82v-373h96v373h82v-373h96v373h82v-447h-438v447z" />
    <glyph glyph-name="afii10091" unicode="&#x449;" horiz-adv-x="543" 
d="M47 447h82v-373h96v373h82v-373h96v373h82v-373h48v-178h-76v104h-410v447z" />
    <glyph glyph-name="afii10092" unicode="&#x44a;" horiz-adv-x="357" 
d="M160 276h16c54.667 0 95 -13.333 121 -40c23.333 -23.333 35 -58 35 -104c0 -44 -12 -77.333 -36 -100c-22.667 -21.333 -57.667 -32 -105 -32h-113v374h-68v73h150v-171zM160 70l20 -0.000976562c23.333 0 40 4.66699 50 14c10.667 10.667 16 27.334 16 50.001
c0 24 -6 42 -18 54s-31.333 18 -58 18h-10v-136z" />
    <glyph glyph-name="afii10093" unicode="&#x44b;" horiz-adv-x="460" 
d="M413 0h-82v447h82v-447zM129 447v-171h14c54.667 0 95 -13.333 121 -40c23.333 -23.333 35 -57.333 35 -102c0 -45.333 -12 -79.333 -36 -102c-22.667 -21.333 -57.667 -32 -105 -32h-111v447h82zM129 70l20 -0.000976562c23.333 0 40 4.66699 50 14
c10.667 10.667 16 27.334 16 50.001c0 24 -6 42 -18 54s-31.333 18 -58 18h-10v-136z" />
    </font>
</defs>
</svg>
