<?xml version="1.0" standalone="no"?>
<!DOCTYPE svg PUBLIC "-//W3C//DTD SVG 1.1//EN" "http://www.w3.org/Graphics/SVG/1.1/DTD/svg11.dtd" >
<svg>
<metadata>
Created by FontForge 20090914 at Tue Aug  4 21:49:14 2020
 By www-data
Copyright &#194;&#169; 1995 ParaGraph Intl., &#194;&#169; 1998 ParaType Inc., ParaType Ltd. All rights reserved.
</metadata>
<defs>
<font id="FuturaPTCond-MediumObl" horiz-adv-x="500" >
  <font-face 
    font-family="Futura PT Cond Medium Italic"
    font-weight="400"
    font-style="italic"
    font-stretch="condensed"
    units-per-em="1000"
    panose-1="2 11 6 6 2 2 4 9 2 3"
    ascent="763"
    descent="-237"
    x-height="447"
    cap-height="667"
    bbox="-183 -250 758 921"
    underline-thickness="50"
    underline-position="-150"
    slope="-7"
    unicode-range="U+0020-U+FB02"
  />
<missing-glyph horiz-adv-x="233" 
 />
    <glyph glyph-name="afii10017.var.accented" unicode="&#x410;`" horiz-adv-x="355" 
d="M326 0h-88l-8 130h-131l-40 -130h-86l225 667h69zM120 199l105 -0.000976562c-6.66699 117.333 -10 205.333 -10 264c0 32.667 0.333008 57.334 1 74.001l-11.5 -46.5l-11.5 -46.5c-14 -55.333 -38.333 -137 -73 -245zM166 761.999l95 122l66 -39l-115 -112z" />
    <glyph glyph-name="afii10022.var.accented" unicode="&#x415;`" horiz-adv-x="316" 
d="M339 667l-9 -76h-146l-26 -212h130l-10 -76h-130l-27 -227h146l-9 -76h-235l81 667h235zM147 762l95 122l66 -39l-115 -112z" />
    <glyph glyph-name="afii10026.var.accented" unicode="&#x418;`" horiz-adv-x="410" 
d="M23 0l82.002 666.999h88l-34 -271c-7.33301 -61.333 -22.333 -135.666 -45 -222.999c34.667 84.667 61.667 148.334 81 191.001l138 303h80l-82 -667h-88l36 295c9.33301 67.333 23.666 135.666 42.999 204.999c-26.667 -71.333 -50.334 -130.333 -71.001 -177l-148 -323
h-80zM194.002 761.999l95 122l66 -39l-115 -112z" />
    <glyph glyph-name="afii10032.var.accented" unicode="&#x41e;`" horiz-adv-x="416" 
d="M403 489c0 -117.333 -13.6689 -225.001 -41.002 -323.001c-15.333 -54 -36.666 -96.667 -63.999 -128s-66 -47 -116 -47c-94 0 -141 60 -141 180c0 110.667 10.667 212.334 32 305.001c13.333 60 34.333 108.167 63 144.5s70.334 54.5 125.001 54.5
c94.667 0 142 -62 142 -186zM310.998 494.999c0 12 -0.166016 21.1689 -0.499023 27.502s-1.5 14.833 -3.5 25.5s-4.83301 18.834 -8.5 24.501s-9.5 10.667 -17.5 15s-17.667 6.5 -29 6.5c-34 0 -58.667 -22 -74 -66c-4.66699 -12.667 -8.66699 -25.334 -12 -38.001
s-6.5 -27.834 -9.5 -45.501s-5 -30 -6 -37s-2.83301 -22.333 -5.5 -46s-4 -36.834 -4 -39.501c-7.33301 -60 -11 -109 -11 -147c0 -67.333 19.667 -101 59 -101c23.333 0 40.833 7.66699 52.5 23s21.167 36.666 28.5 63.999c11.333 44.667 20.666 99.334 27.999 164.001
c8.66699 69.333 13 126 13 170zM196.999 762.001l95 122l66 -39l-115 -112z" />
    <glyph glyph-name="afii10037.var.accented" unicode="&#x423;`" horiz-adv-x="355" 
d="M50 667h94l34 -168c13.333 -65.333 22.333 -117.333 27 -156c14 50.667 29.667 101.667 47 153l58 171h90l-238 -667h-88l79 224zM166 762l95 122l66 -39l-115 -112z" />
    <glyph glyph-name="afii10045.var.accented" unicode="&#x42b;`" horiz-adv-x="514" 
d="M517 667l-82 -667h-87l81 667h88zM105 667l88 -0.000976562l-35 -285h6c57.333 0 100.333 -14.333 129 -43c25.333 -26 38 -64.667 38 -116c0 -81.333 -18.667 -140.666 -56 -177.999c-30 -30 -71.333 -45 -124 -45h-128zM149 305.999l-29.001 -230h4
c34.667 0 60.334 8 77.001 24c24 22.667 36 64.334 36 125.001c0 29.333 -7.33301 50.666 -22 63.999c-12.667 11.333 -34 17 -64 17h-2zM245.999 761.999l95 122l66 -39l-115 -112z" />
    <glyph glyph-name="afii10047.var.accented" unicode="&#x42d;`" horiz-adv-x="374" 
d="M20 26l11.002 94c22.667 -27.333 49.334 -41 80.001 -41c27.333 0 50.333 9 69 27c37.333 34.667 61 102.667 71 204h-153l9 76h152c2 18.667 3 37 3 55c0 63.333 -12.333 106.333 -37 129c-14.667 14.667 -34.334 22 -59.001 22c-28.667 0 -54 -12 -76 -36l12 95
c24.667 16.667 52.667 25 84 25c46 0 84 -14.333 114 -43c39.333 -39.333 59 -104 59 -194c0 -74.667 -7.33301 -144 -22 -208c-20 -88 -49.333 -151 -88 -189c-34.667 -34 -78.334 -51 -131.001 -51c-38.667 0 -71.334 11.667 -98.001 35zM160.002 762l95 122l66 -39
l-115 -112z" />
    <glyph glyph-name="afii10048.var.accented" unicode="&#x42e;`" horiz-adv-x="586" 
d="M431 675c39.333 0 70.666 -10.333 93.999 -31c32 -28 48 -80.333 48 -157c0 -84.667 -7.33301 -165 -22 -241c-19.333 -103.333 -47 -173 -83 -209c-30.667 -30.667 -70.667 -46 -120 -46c-40 0 -71.333 12 -94 36c-27.333 28.667 -41 79 -41 151
c0 44.667 2.66699 93.667 8 147h-70l-40 -325h-88l81 667h89l-34 -266h71c16.667 111.333 45.334 187.333 86.001 228c30 30.667 68.333 46 115 46zM422 594c-18.667 0 -34.668 -7 -48.001 -21c-20 -20.667 -36.333 -68 -49 -142c-6 -32 -11.667 -75.333 -17 -130
s-8 -96.667 -8 -126c0 -44 7.33301 -73 22 -87c10.667 -9.33301 23 -14 37 -14c18 0 34 6.33301 48 19c20.667 19.333 37.334 69 50.001 149c16 102 24 189.667 24 263c0 34.667 -5.33301 58.667 -16 72c-10 11.333 -24.333 17 -43 17zM281.999 762l95 122l66 -39l-115 -112
z" />
    <glyph glyph-name="afii10049.var.accented" unicode="&#x42f;`" horiz-adv-x="374" 
d="M10 0l148 308c-27.333 8.66699 -49.333 24.334 -66 47.001c-16.667 24 -25 56 -25 96c0 39.333 6.5 75.666 19.5 108.999s29.833 58.333 50.5 75c17.333 14 35.5 22.833 54.5 26.5s42.833 5.5 71.5 5.5h114l-82 -667h-88l38 304l-136 -304h-99zM280 593h-19
c-28 0 -49.667 -7 -65 -21c-24.667 -22.667 -37 -60.667 -37 -114c0 -29.333 7 -51.333 21 -66c14.667 -15.333 37 -23 67 -23h5zM176 762l95 122l66 -39l-115 -112z" />
    <glyph glyph-name="afii10023.var.accented" unicode="&#x401;`" horiz-adv-x="316" 
d="M339 667l-9 -76h-146l-26 -212h130l-10 -76h-130l-27 -227h146l-9 -76h-235l81 667h235zM173 762l95 122l53 -31l-115 -112zM160 783c0 -12.667 -4.83105 -23.668 -14.498 -33.001s-20.834 -14 -33.501 -14c-10.667 0 -19.334 3.5 -26.001 10.5s-10 15.833 -10 26.5
c0 12.667 4.66699 23.834 14 33.501s20.333 14.5 33 14.5c10.667 0 19.5 -3.5 26.5 -10.5s10.5 -16.167 10.5 -27.5zM371.002 782.999c0 -12.667 -4.66797 -23.668 -14.001 -33.001s-20.333 -14 -33 -14c-10.667 0 -19.667 3.5 -27 10.5s-11 15.833 -11 26.5
c0 12.667 4.83301 23.834 14.5 33.501s21.167 14.5 34.5 14.5c10.667 0 19.334 -3.5 26.001 -10.5s10 -16.167 10 -27.5z" />
    <glyph glyph-name="afii10065.var.accented" unicode="&#x430;`" horiz-adv-x="343" 
d="M324 447l-54.999 -447.001h-81l7 57c-12 -21.333 -24.5 -37.333 -37.5 -48s-30.167 -16 -51.5 -16c-55.333 0 -83 43.333 -83 130c0 30 1.5 60.5 4.5 91.5s8.83301 66.333 17.5 106s23.167 71.834 43.5 96.501s45.166 37 74.499 37c34 0 58.667 -19.333 74 -58l6 51h81z
M224.001 308.999c0 46.667 -12.667 70.001 -38 70.001c-29.333 0 -50 -28.333 -62 -85c-12 -55.333 -18 -107 -18 -155s13.667 -72 41 -72c26 0 45 25.333 57 76c13.333 55.333 20 110.666 20 165.999zM160.001 542l95 122l66 -39l-115 -112z" />
    <glyph glyph-name="afii10070.var.accented" unicode="&#x435;`" horiz-adv-x="321" 
d="M206 151l76.002 0.000976562c-6 -38 -15.333 -68 -28 -90c-12 -21.333 -28.5 -38 -49.5 -50s-43.833 -18 -68.5 -18c-75.333 0 -113 49.333 -113 148c0 54.667 7.33301 110.667 22 168c25.333 96.667 73.666 145 144.999 145c40 0 68.167 -15 84.5 -45
s24.5 -66.667 24.5 -110c0 -26.667 -2.33301 -57.334 -7 -92.001h-185c-2.66699 -26.667 -4 -46.334 -4 -59.001c0 -11.333 0.333008 -20.333 1 -27s2.16699 -15.167 4.5 -25.5s6.66602 -18.166 12.999 -23.499s14.5 -8 24.5 -8c33.333 0 53.333 29 60 87zM218.002 300.001
l0.000976562 14.9971c0 46 -12.667 69 -38 69c-5.33301 0 -10.166 -0.833008 -14.499 -2.5s-8.33301 -4.5 -12 -8.5s-7 -7.83301 -10 -11.5s-5.83301 -8.66699 -8.5 -15s-4.83398 -11.666 -6.50098 -15.999s-3.33398 -10.333 -5.00098 -18s-3 -13.167 -4 -16.5
s-2.16699 -8.66602 -3.5 -15.999s-2 -11.666 -2 -12.999h103c0.666992 7.33301 1 18.333 1 33zM149.003 541.998l95 122l66 -39l-115 -112z" />
    <glyph glyph-name="afii10074.var.accented" unicode="&#x438;`" horiz-adv-x="368" 
d="M73 447l82.001 0.000976562l-27 -219l-13 -81c11.333 28.667 24 56 38 82l116 218h80l-55 -447h-82l27 218c5.33301 35.333 9.66602 61.666 12.999 78.999c-8.66699 -26.667 -21 -54 -37 -82l-117 -215h-80zM173.001 542.001l95 122l66 -39l-115 -112z" />
    <glyph glyph-name="afii10080.var.accented" unicode="&#x43e;`" horiz-adv-x="336" 
d="M311 306c0 -26 -1.16504 -51.3311 -3.49805 -75.998s-7.16602 -52 -14.499 -82s-17 -55.833 -29 -77.5s-28.833 -40 -50.5 -55s-46.834 -22.5 -75.501 -22.5c-76 0 -114 50.333 -114 151c0 33.333 2.16699 65.666 6.5 96.999s12.166 64.166 23.499 98.499
s29.166 62 53.499 83s53.833 31.5 88.5 31.5c76.667 0 115 -49.333 115 -148zM228.002 314.002c0 43.333 -13.667 65 -41 65c-15.333 0 -28 -7.66699 -38 -23c-12.667 -18.667 -22.334 -51.5 -29.001 -98.5s-10 -87.833 -10 -122.5c0 -43.333 13.333 -65 40 -65
c15.333 0 28.333 8 39 24c12.667 18.667 22.334 51.5 29.001 98.5s10 87.5 10 121.5zM157.002 542.002l95 122l66 -39l-115 -112z" />
    <glyph glyph-name="afii10085.var.accented" unicode="&#x443;`" horiz-adv-x="322" 
d="M346 447l-259 -635h-85l96 224l-67 411h92l26 -312l114 312h83zM149 542l95 122l66 -39l-115 -112z" />
    <glyph glyph-name="afii10093.var.accented" unicode="&#x44b;`" horiz-adv-x="458" 
d="M439 447l-55 -447h-82l55 447h82zM73 447h82l-21 -171h8c50.667 0 88 -11.333 112 -34c22.667 -21.333 34 -51 34 -89c0 -51.333 -13.667 -90 -41 -116c-25.333 -24.667 -64 -37 -116 -37h-113zM109 70h12.001c29.333 0 50 5.33301 62 16c14 13.333 21 33 21 59
c0 22 -6.33301 38 -19 48c-10.667 8.66699 -28.334 13 -53.001 13h-7zM218.001 542l95 122l66 -39l-115 -112z" />
    <glyph glyph-name="afii10095.var.accented" unicode="&#x44d;`" horiz-adv-x="287" 
d="M10 23l10.999 84c6.66699 -10.667 13.667 -18.667 21 -24c10 -8 22 -12 36 -12c19.333 0 34.333 5.33301 45 16c20.667 18 34 53 40 105h-98l9 74h96c0 46.667 -7.66699 77.667 -23 93c-10.667 10.667 -24.334 16 -41.001 16c-13.333 0 -25.333 -3.66699 -36 -11
c-8 -4.66699 -15.333 -11.667 -22 -21l10 88c20.667 15.333 44.334 23 71.001 23c36.667 0 66.667 -12.333 90 -37c28.667 -30.667 43 -77.667 43 -141c0 -42.667 -5.33301 -87 -16 -133s-29.667 -82.667 -57 -110c-26.667 -26.667 -59 -40 -97 -40
c-33.333 0 -60.666 10 -81.999 30zM97.999 542l95 122l66 -39l-115 -112z" />
    <glyph glyph-name="afii10096.var.accented" unicode="&#x44e;`" horiz-adv-x="485" 
d="M133 270h53.001c12 66.667 33 115 63 145c25.333 26 57 39 95 39c33.333 0 59.666 -9.66699 78.999 -29c24.667 -24 37 -65.333 37 -124c0 -50 -5.66699 -100.5 -17 -151.5s-31 -90.167 -59 -117.5c-26 -26 -59 -39 -99 -39c-30 0 -54 9 -72 27
c-25.333 25.333 -38 71.333 -38 138c0 16 0.333008 28.333 1 37h-52l-24 -195h-82l55 447h82zM336.001 379c-10.667 0 -20.001 -3.66504 -28.001 -10.998c-14.667 -12.667 -26.667 -44.334 -36 -95.001c-8.66699 -50.667 -13 -96 -13 -136c0 -28.667 5.33301 -48 16 -58
c6 -6 14 -9 24 -9s19.333 3.66699 28 11c16.667 14.667 29.334 48 38.001 100c8 47.333 12 91 12 131c0 29.333 -5.33301 48.666 -16 57.999c-6 6 -14.333 9 -25 9zM231 542.002l95 122l66 -39l-115 -112z" />
    <glyph glyph-name="afii10097.var.accented" unicode="&#x44f;`" horiz-adv-x="331" 
d="M6 0l104.001 184c-18.667 4.66699 -34.334 15 -47.001 31c-14 18 -21 41 -21 69c0 53.333 15.333 95 46 125c26 25.333 64.333 38 115 38h109l-55 -447h-82l22 183l-96 -183h-95zM204.001 236l17 139h-18c-24 0 -42 -6 -54 -18c-14.667 -14.667 -22 -35.667 -22 -63
c0 -20 5 -34.667 15 -44s25.667 -14 47 -14h15zM154.001 542l95 122l66 -39l-115 -112z" />
    <glyph glyph-name="afii10071.var.accented" unicode="&#x451;`" horiz-adv-x="321" 
d="M206 151l76.002 0.000976562c-6 -38 -15.333 -68 -28 -90c-12 -21.333 -28.5 -38 -49.5 -50s-43.833 -18 -68.5 -18c-75.333 0 -113 49.333 -113 148c0 54.667 7.33301 110.667 22 168c25.333 96.667 73.666 145 144.999 145c40 0 68.167 -15 84.5 -45
s24.5 -66.667 24.5 -110c0 -26.667 -2.33301 -57.334 -7 -92.001h-185c-2.66699 -26.667 -4 -46.334 -4 -59.001c0 -11.333 0.333008 -20.333 1 -27s2.16699 -15.167 4.5 -25.5s6.66602 -18.166 12.999 -23.499s14.5 -8 24.5 -8c33.333 0 53.333 29 60 87zM218.002 300.001
l0.000976562 14.9971c0 46 -12.667 69 -38 69c-5.33301 0 -10.166 -0.833008 -14.499 -2.5s-8.33301 -4.5 -12 -8.5s-7 -7.83301 -10 -11.5s-5.83301 -8.66699 -8.5 -15s-4.83398 -11.666 -6.50098 -15.999s-3.33398 -10.333 -5.00098 -18s-3 -13.167 -4 -16.5
s-2.16699 -8.66602 -3.5 -15.999s-2 -11.666 -2 -12.999h103c0.666992 7.33301 1 18.333 1 33zM131.003 541.998l95 122l52 -29l-115 -112zM128.003 576.998c0 -11.333 -4.5 -21.499 -13.5 -30.499s-19.5 -13.5 -31.5 -13.5c-10.667 0 -19.167 3.33301 -25.5 10
s-9.5 15 -9.5 25c0 12 4.5 22.5 13.5 31.5s19.833 13.5 32.5 13.5c10 0 18.167 -3.33301 24.5 -10s9.5 -15.334 9.5 -26.001zM331.003 576.999c0 -11.333 -4.5 -21.499 -13.5 -30.499s-19.833 -13.5 -32.5 -13.5c-10 0 -18.333 3.33301 -25 10s-10 15 -10 25
c0 12 4.66699 22.5 14 31.5s20 13.5 32 13.5c10.667 0 19.167 -3.33301 25.5 -10s9.5 -15.334 9.5 -26.001z" />
    <glyph glyph-name="fi" unicode="fi" horiz-adv-x="367" 
d="M272 728l-11 -87c-12 7.33301 -23 11 -33 11c-9.33301 0 -17 -1.66699 -23 -5s-10.5 -9 -13.5 -17s-5.16699 -14.667 -6.5 -20s-2.5 -13.5 -3.5 -24.5s-1.83301 -18.167 -2.5 -21.5l-15 -117h69l-8 -66h-69l-47 -381h-81l47 381h-41l8 66h41l19 154
c5.33301 44.667 16 79 32 103s44 36 84 36c18 0 36 -4 54 -12zM376 587c0 -16.667 -6.33398 -31.168 -19.001 -43.501s-27.334 -18.5 -44.001 -18.5c-13.333 0 -24.666 4.83301 -33.999 14.5s-14 21.167 -14 34.5c0 16.667 6.33301 31.334 19 44.001s27.334 19 44.001 19
c14 0 25.5 -4.83301 34.5 -14.5s13.5 -21.5 13.5 -35.5zM347.999 446.999l-55 -447h-81l55 447h81z" />
    <glyph glyph-name="fl" unicode="fl" horiz-adv-x="367" 
d="M272 728l-11 -87c-12 7.33301 -23 11 -33 11c-9.33301 0 -17 -1.66699 -23 -5s-10.5 -9 -13.5 -17s-5.16699 -14.667 -6.5 -20s-2.5 -13.5 -3.5 -24.5s-1.83301 -18.167 -2.5 -21.5l-15 -117h69l-8 -66h-69l-47 -381h-81l47 381h-41l8 66h41l19 154
c5.33301 44.667 16 79 32 103s44 36 84 36c18 0 36 -4 54 -12zM382 729l-89 -729h-81l89 729h81z" />
    <glyph glyph-name=".notdef" horiz-adv-x="233" 
 />
    <glyph glyph-name="space" unicode=" " horiz-adv-x="233" 
 />
    <glyph glyph-name="exclam" unicode="!" horiz-adv-x="243" 
d="M218 667l-60 -487h-86l60 487h86zM152 53c0 -16 -6 -30 -18 -42s-26 -18 -42 -18c-12.667 0 -23.5 4.5 -32.5 13.5s-13.5 20.167 -13.5 33.5c0 16 6 30 18 42s26 18 42 18c12.667 0 23.5 -4.5 32.5 -13.5s13.5 -20.167 13.5 -33.5z" />
    <glyph glyph-name="quotedbl" unicode="&#x22;" horiz-adv-x="339" 
d="M332 667l-14 -268h-59l-15 268h88zM184 667l-14 -268h-59l-15 268h88z" />
    <glyph glyph-name="numbersign" unicode="#" horiz-adv-x="600" 
d="M611 476l-20 -73h-108l-35 -127h109l-20 -72h-109l-56 -204h-82l56 204h-128l-57 -204h-81l57 204h-111l20 72h111l35 127h-110l20 73h110l53 191h81l-53 -191h128l53 191h82l-53 -191h108zM401 403h-128l-35 -127h129z" />
    <glyph glyph-name="dollar" unicode="$" horiz-adv-x="380" 
d="M380 575l-72.001 -33.001c-4 41.333 -26.667 62 -68 62c-28.667 0 -50.167 -11.333 -64.5 -34s-21.5 -49 -21.5 -79c0 -21.333 7.5 -41.333 22.5 -60s31.833 -33.667 50.5 -45s38.334 -25.5 59.001 -42.5s35 -34.167 43 -51.5c8.66699 -18 13 -40.333 13 -67
c0 -72.667 -17.333 -131 -52 -175c-22 -28 -54.667 -47 -98 -57l-10 -84h-60l10 84c-30.667 4 -54 13.833 -70 29.5s-27.667 40.5 -35 74.5l76 35c4.66699 -21.333 12 -36.5 22 -45.5s25.333 -13.5 46 -13.5c29.333 0 50.666 12.5 63.999 37.5s20 53.5 20 85.5
c0 22 -4 39.333 -12 52c-9.33301 16 -30 33.333 -62 52c-39.333 23.333 -67.666 47 -84.999 71s-26 57 -26 99c0 52 12.833 98.333 38.5 139s61.5 62.667 107.5 66l9 76h60l-9 -76c60 -7.33301 94.667 -40.666 104 -99.999z" />
    <glyph glyph-name="percent" unicode="%" horiz-adv-x="470" 
d="M234 557c-5.33301 -152 -45.333 -228 -120 -228c-51.333 0 -77 35 -77 105c0 158 39.667 237 119 237c52 0 78 -38 78 -114zM461 667l-371 -667h-54l371 667h54zM177 559c0 39.333 -9.00195 58.999 -27.002 58.999c-17.333 0 -30 -15.667 -38 -47
c-11.333 -52.667 -17 -99 -17 -139c0 -33.333 9 -50 27 -50c6.66699 0 12.5 2.33301 17.5 7s9.33301 11.667 13 21s6.83398 18.333 9.50098 27s4.83398 20 6.50098 34s3 24.833 4 32.5s2 18.334 3 32.001s1.5 21.5 1.5 23.5zM402.998 224.999
c0 39.333 -9.00195 58.999 -27.002 58.999c-17.333 0 -30 -15.667 -38 -47c-11.333 -52.667 -17 -99 -17 -139c0 -33.333 9 -50 27 -50c6.66699 0 12.5 2.33301 17.5 7s9.33301 11.667 13 21s6.83398 18.333 9.50098 27s4.83398 20 6.50098 34s3 24.833 4 32.5
s2 18.334 3 32.001s1.5 21.5 1.5 23.5zM459.996 222.998c-5.33301 -152 -45.333 -228 -120 -228c-51.333 0 -77 35 -77 105c0 158 39.667 237 119 237c52 0 78 -38 78 -114z" />
    <glyph glyph-name="ampersand" unicode="&#x26;" horiz-adv-x="442" 
d="M396 0l-88.998 0.00292969l-25 52c-14 -16 -30.333 -29 -49 -39c-20.667 -11.333 -43.334 -17 -68.001 -17c-39.333 0 -70.666 12.667 -93.999 38c-28 29.333 -42 67 -42 113c0 40.667 12.667 80.667 38 120c21.333 33.333 50.666 64.333 87.999 93
c-8.66699 16 -16.667 35.333 -24 58c-8.66699 28.667 -13 55.667 -13 81c0 55.333 14.667 98.666 44 129.999c27.333 30.667 61.666 46 102.999 46c32 0 58 -10 78 -30c20 -20.667 30 -48.334 30 -83.001c0 -40.667 -11.667 -79.667 -35 -117c-22 -36 -53 -68.667 -93 -98
l71 -169c24 24.667 45.333 50.667 64 78l40 -57c-19.333 -26.667 -44.333 -55.334 -75 -86.001zM219.002 408.003c21.333 18 40 40 56 66c16.667 28 25 55 25 81c0 18 -3.33301 31 -10 39c-6.66699 8.66699 -16.334 13 -29.001 13c-15.333 0 -28.666 -6.33301 -39.999 -19
c-16 -17.333 -24 -42.333 -24 -75c0 -30 7.33301 -65 22 -105zM253.002 113.003l-71.001 179c-23.333 -20 -40 -40.667 -50 -62c-12.667 -25.333 -19 -51 -19 -77c0 -23.333 5.33301 -42 16 -56c12.667 -17.333 29.334 -26 50.001 -26c26 0 50.667 14 74 42z" />
    <glyph glyph-name="quotesingle" unicode="'" horiz-adv-x="191" 
d="M184 667l-14 -268h-59l-15 268h88z" />
    <glyph glyph-name="parenleft" unicode="(" horiz-adv-x="263" 
d="M200 740l84 -20.999c-96.667 -212.667 -145 -412.334 -145 -599.001c0 -76 11.667 -173 35 -291l-89 -23c-26 117.333 -39 218.333 -39 303c0 204.667 51.333 415 154 631z" />
    <glyph glyph-name="parenright" unicode=")" horiz-adv-x="263" 
d="M100 717l89 22.999c26 -116.667 39 -216.334 39 -299.001c0 -99.333 -13.667 -205 -41 -317s-65 -218 -113 -318l-84 21c47.333 108.667 83.333 210.834 108 306.501s37 194.834 37 297.501c0 74 -11.667 169.333 -35 286z" />
    <glyph glyph-name="asterisk" unicode="*" horiz-adv-x="389" 
d="M391 605l-110 -25l59 -87l-55 -34l-47 89l-71 -90l-46 38l80 83l-103 25l24 59l96 -38l10 109l62 -6l-20 -104l101 41z" />
    <glyph glyph-name="plus" unicode="+" 
d="M480 297h-177v-169h-80v169h-177v74h177v169h80v-169h177v-74z" />
    <glyph glyph-name="comma" unicode="," horiz-adv-x="175" 
d="M114 72l-104 -215l-43 13l79 223z" />
    <glyph glyph-name="hyphen" unicode="-" horiz-adv-x="255" 
d="M213 295l-9 -78h-155l9 78h155z" />
    <glyph glyph-name="period" unicode="." horiz-adv-x="184" 
d="M123 53c0 -16 -6 -30 -18 -42s-26 -18 -42 -18c-12.667 0 -23.5 4.5 -32.5 13.5s-13.5 20.167 -13.5 33.5c0 16 5.83301 30 17.5 42s25.5 18 41.5 18c13.333 0 24.5 -4.5 33.5 -13.5s13.5 -20.167 13.5 -33.5z" />
    <glyph glyph-name="slash" unicode="/" horiz-adv-x="390" 
d="M478 729l-501 -912h-70l503 912h68z" />
    <glyph glyph-name="zero" unicode="0" horiz-adv-x="380" 
d="M364 497c0 -114 -12.333 -220 -37 -318c-31.333 -124.667 -86 -187 -164 -187c-80 0 -120 58.333 -120 175c0 103.333 12.667 210 38 320c29.333 125.333 84 188 164 188c79.333 0 119 -59.333 119 -178zM276 509c0 57.333 -14 86.001 -42 86.001c-30 0 -53 -40 -69 -120
c-24 -118.667 -36 -224.334 -36 -317.001c0 -58.667 14 -88 42 -88c30 0 53 39.667 69 119c24 121.333 36 228 36 320z" />
    <glyph glyph-name="one" unicode="1" horiz-adv-x="380" 
d="M292 667l-82 -667h-85l73 590h-65l9 77h150z" />
    <glyph glyph-name="two" unicode="2" horiz-adv-x="380" 
d="M166 450l-87.001 -0.00195312c2.66699 27.333 5.5 50 8.5 68s8.33301 37.833 16 59.5s17.167 38.834 28.5 51.501s27 23.5 47 32.5s43.333 13.5 70 13.5c43.333 0 75.166 -10.5 95.499 -31.5s30.5 -53.5 30.5 -97.5c0 -84 -49.667 -201.333 -149 -352
c-42 -63.333 -67.333 -102.333 -76 -117h163l-9 -77h-289l64 108.5l53 88.5l25.5 42.5l28.5 48l24 42.5l26.5 49.5c7.66699 15 14.834 30.167 21.501 45.5c18.667 42 28 78.333 28 109c0 42 -16.333 63 -49 63c-13.333 0 -24.666 -5.16699 -33.999 -15.5
s-15.333 -20.166 -18 -29.499s-5.66699 -22 -9 -38c-2 -12 -5.33301 -33.333 -10 -64z" />
    <glyph glyph-name="three" unicode="3" horiz-adv-x="380" 
d="M174 488l-83.999 0.000976562l2 16c6.66699 54.667 21.167 96.834 43.5 126.501s58.5 44.5 108.5 44.5c80 0 120 -40 120 -120c0 -44.667 -5.66699 -86 -17 -124c-7.33301 -24 -16.5 -42.333 -27.5 -55s-27.833 -23.334 -50.5 -32.001c24 -8 40.833 -19.833 50.5 -35.5
s14.5 -36.5 14.5 -62.5c0 -60 -9 -112.333 -27 -157c-27.333 -64.667 -79.333 -97 -156 -97c-41.333 0 -71 10.667 -89 32s-27 53 -27 95c0 10.667 1.33301 26.667 4 48h83c0 -2.66699 -0.666992 -8 -2 -16s-2 -14.333 -2 -19c0 -40.667 16 -61 48 -61
c14 0 26.667 4.66699 38 14c13.333 11.333 23.333 33.166 30 65.499s10 61.5 10 87.5c0 48 -22.333 72 -67 72c-4.66699 0 -12.334 -0.666992 -23.001 -2l9 78h14c32 0 55.333 7.33301 70 22c22 22 33 63.333 33 124c0 43.333 -14 65 -42 65c-36.667 0 -58 -36.333 -64 -109
z" />
    <glyph glyph-name="four" unicode="4" horiz-adv-x="380" 
d="M352 667l-52 -430h42l-9 -68h-42l-21 -169h-82l21 169h-180l10 76l231 422h82zM253 521l-150 -284h113z" />
    <glyph glyph-name="five" unicode="5" horiz-adv-x="380" 
d="M379 667l-9.99805 -78.001h-141l-42 -167c100.667 0 151 -49.667 151 -149c0 -45.333 -7.16699 -88.666 -21.5 -129.999s-38.333 -76.833 -72 -106.5s-73.834 -44.5 -120.501 -44.5c-31.333 0 -65 9.33301 -101 28l32 79c27.333 -16 51.666 -24 72.999 -24
c25.333 0 47.166 10.333 65.499 31s31 43.667 38 69s10.5 50.333 10.5 75c0 67.333 -31.333 101 -94 101c-17.333 0 -35.666 -2.66699 -54.999 -8l78 324h209z" />
    <glyph glyph-name="six" unicode="6" horiz-adv-x="380" 
d="M236 667l94 0.000976562c-6 -11.333 -31.667 -54.333 -77 -129c-26 -43.333 -54.667 -96 -86 -158c25.333 20 50.333 30 75 30c31.333 0 54.5 -11.833 69.5 -35.5s22.5 -52.167 22.5 -85.5c0 -72 -7.66699 -132.667 -23 -182c-24 -76.667 -73.333 -115 -148 -115
c-80 0 -120 46.667 -120 140c0 51.333 4.5 99.833 13.5 145.5s23.833 92 44.5 139s40 86.667 58 119s43.667 76.166 77 131.499zM247 260.001c0 14 -0.666992 25.168 -2 33.501s-5.5 16.166 -12.5 23.499s-17.167 11 -30.5 11c-18.667 0 -33.334 -10 -44.001 -30
c-18.667 -37.333 -28 -89 -28 -155c0 -48.667 14 -73 42 -73c15.333 0 28.5 7.33301 39.5 22s18.833 33.5 23.5 56.5s7.83398 43.5 9.50098 61.5s2.5 34.667 2.5 50z" />
    <glyph glyph-name="seven" unicode="7" horiz-adv-x="380" 
d="M400 667l-281 -667h-95l256 591h-183l9 76h294z" />
    <glyph glyph-name="eight" unicode="8" horiz-adv-x="380" 
d="M364 552c0 -63.333 -12 -112.333 -36 -147c-13.333 -19.333 -32 -33.666 -56 -42.999c23.333 -9.33301 39.333 -22.166 48 -38.499s13 -37.833 13 -64.5c0 -61.333 -8.33301 -115 -25 -161c-25.333 -70.667 -74.333 -106 -147 -106c-80 0 -120 45.667 -120 137
c0 93.333 16 159.666 48 198.999c11.333 14 29.333 25.333 54 34c-22.667 10 -37.667 23.167 -45 39.5s-11 38.5 -11 66.5c0 45.333 7 85.333 21 120c12.667 32 30.5 54.5 53.5 67.5s52.833 19.5 89.5 19.5c40 0 68.833 -10.333 86.5 -31s26.5 -51.334 26.5 -92.001z
M275 534c0 42 -13 63 -39 63c-16 0 -29 -8.5 -39 -25.5s-16.333 -34 -19 -51s-4 -33.833 -4 -50.5c0 -46 12.667 -69 38 -69c22 0 38 15 48 45s15 59.333 15 88zM244 245c0 45.333 -15.001 67.999 -45.001 67.999c-14 0 -26.167 -6.66699 -36.5 -20
s-17.666 -30.166 -21.999 -50.499s-7.5 -39 -9.5 -56s-3 -32.5 -3 -46.5c0 -46 14.333 -69 43 -69c15.333 0 28.333 6.5 39 19.5s18.167 30 22.5 51s7.33301 39.5 9 55.5s2.5 32 2.5 48z" />
    <glyph glyph-name="nine" unicode="9" horiz-adv-x="380" 
d="M167 0h-94l83 135c28.667 46.667 56 95 82 145c-18 -18 -39.667 -27 -65 -27c-24.667 0 -45.667 9.33301 -63 28c-25.333 27.333 -38 68.333 -38 123c0 39.333 5.83301 81.833 17.5 127.5s29.5 80.5 53.5 104.5c26 26 60.333 39 103 39c35.333 0 62 -8.66699 80 -26
c25.333 -23.333 38 -61.666 38 -114.999c0 -60.667 -6 -116 -18 -166c-16 -68.667 -39.333 -129.334 -70 -182.001zM159 405c0 -29.333 5.33301 -49.666 16 -60.999c7.33301 -7.33301 16.333 -11 27 -11c13.333 0 24.666 4.33301 33.999 13
c12.667 11.333 22.834 34.166 30.501 68.499s11.5 66.833 11.5 97.5c0 32.667 -4.33301 54.667 -13 66c-7.33301 10 -17.333 15 -30 15c-13.333 0 -25.333 -5.66699 -36 -17c-14 -14.667 -24.167 -39 -30.5 -73s-9.5 -66.667 -9.5 -98z" />
    <glyph glyph-name="colon" unicode=":" horiz-adv-x="184" 
d="M166 406c0 -16 -6 -29.833 -18 -41.5s-26 -17.5 -42 -17.5c-13.333 0 -24.333 4.5 -33 13.5s-13 19.833 -13 32.5c0 16 6 30 18 42s26 18 42 18c12.667 0 23.5 -4.5 32.5 -13.5s13.5 -20.167 13.5 -33.5zM123 53c0 -16 -6 -30 -18 -42s-26 -18 -42 -18
c-12.667 0 -23.5 4.5 -32.5 13.5s-13.5 20.167 -13.5 33.5c0 16 5.83301 30 17.5 42s25.5 18 41.5 18c13.333 0 24.5 -4.5 33.5 -13.5s13.5 -20.167 13.5 -33.5z" />
    <glyph glyph-name="semicolon" unicode=";" horiz-adv-x="175" 
d="M159 406c0 -16 -6 -29.833 -18 -41.5s-26 -17.5 -42 -17.5c-12.667 0 -23.5 4.5 -32.5 13.5s-13.5 19.833 -13.5 32.5c0 16 6 30 18 42s26 18 42 18c12.667 0 23.5 -4.5 32.5 -13.5s13.5 -20.167 13.5 -33.5zM114 72l-104 -215l-43 13l79 223z" />
    <glyph glyph-name="less" unicode="&#x3c;" 
d="M467 91l-434 205v69l434 205v-79l-348 -161l347 -160z" />
    <glyph glyph-name="equal" unicode="=" 
d="M481 384h-434v70h434v-70zM481 229h-434v70h434v-70z" />
    <glyph glyph-name="greater" unicode="&#x3e;" 
d="M492 296l-433 -205v80l347 160l-347 160v79l433 -205v-69z" />
    <glyph glyph-name="question" unicode="?" horiz-adv-x="324" 
d="M151 502l-78.002 0.00585938c2.66699 23.333 5.33398 42.166 8.00098 56.499s7.16699 29.666 13.5 45.999s14.333 29.166 24 38.499s22.834 17 39.501 23s36.334 9 59.001 9c37.333 0 63.833 -10.333 79.5 -31s23.5 -50.334 23.5 -89.001c0 -103.333 -15 -177 -45 -221
c-9.33301 -14 -19.333 -23.5 -30 -28.5s-25 -7.83301 -43 -8.5l-14 -117h-77l22 176c2 0 5 -0.166992 9 -0.5s7 -0.5 9 -0.5c18 0 32.167 3.16699 42.5 9.5s18.5 17.833 24.5 34.5c13.333 35.333 20 82.666 20 141.999c0 40.667 -12.333 61 -37 61
c-8 0 -15 -2.16699 -21 -6.5s-10.667 -11.333 -14 -21s-5.83301 -17.334 -7.5 -23.001s-3.33398 -15.167 -5.00098 -28.5s-2.5 -20.333 -2.5 -21zM185.998 53.0059c0 -16 -6 -30 -18 -42s-26 -18 -42 -18c-12.667 0 -23.5 4.5 -32.5 13.5s-13.5 20.167 -13.5 33.5
c0 16 5.83301 30 17.5 42s25.5 18 41.5 18c13.333 0 24.5 -4.5 33.5 -13.5s13.5 -20.167 13.5 -33.5z" />
    <glyph glyph-name="at" unicode="@" horiz-adv-x="733" 
d="M577 84l8.99902 -52c-70.667 -30 -145.667 -45 -225 -45c-94.667 0 -171.334 26.833 -230.001 80.5s-88 127.167 -88 220.5c0 105.333 39.167 196.333 117.5 273s170.166 115 275.499 115c80 0 146.833 -23.333 200.5 -70s80.5 -109.334 80.5 -188.001
c0 -54.667 -13.333 -106 -40 -154c-18 -32 -40.5 -59.667 -67.5 -83s-56.167 -35 -87.5 -35c-20 0 -36 5.83301 -48 17.5s-17.667 27.5 -17 47.5c-35.333 -46.667 -79.666 -70 -132.999 -70c-38 0 -67.833 13 -89.5 39s-32.5 58.333 -32.5 97c0 56 19.833 107.667 59.5 155
s86.834 71 141.501 71s88 -24 100 -72l19 60h57l-65 -207c-8.66699 -24 -13 -41.667 -13 -53c0 -24.667 10.333 -37 31 -37c19.333 0 41 12 65 36c20.667 21.333 37.167 49 49.5 83s18.5 66.667 18.5 98c0 66.667 -22.167 118.834 -66.5 156.501
s-100.166 56.5 -167.499 56.5c-90 0 -167.833 -33 -233.5 -99s-98.5 -144 -98.5 -234c0 -78.667 24.333 -140.167 73 -184.5s112.667 -66.5 192 -66.5c78.667 0 149.667 14.667 213 44zM474.999 368c0 22 -6.33301 40.168 -19 54.501s-30 21.5 -52 21.5
c-38 0 -70.333 -16.833 -97 -50.5s-40 -69.834 -40 -108.501c0 -26 6.5 -46.833 19.5 -62.5s32.167 -23.5 57.5 -23.5c38 0 69.333 18.333 94 55s37 74.667 37 114z" />
    <glyph glyph-name="A" unicode="A" horiz-adv-x="355" 
d="M326 0h-88l-8 130h-131l-40 -130h-86l225 667h69zM120 199l105 -0.000976562c-6.66699 117.333 -10 205.333 -10 264c0 32.667 0.333008 57.334 1 74.001l-11.5 -46.5l-11.5 -46.5c-14 -55.333 -38.333 -137 -73 -245z" />
    <glyph glyph-name="B" unicode="B" horiz-adv-x="358" 
d="M104 667l120 0.000976562c81.333 0 122 -43 122 -129c0 -70 -13.333 -122.667 -40 -158c-14 -18 -35.333 -31.667 -64 -41c30 -12.667 50.167 -27.334 60.5 -44.001s15.5 -41.667 15.5 -75c0 -69.333 -17 -125 -51 -167c-28.667 -35.333 -71.667 -53 -129 -53h-115z
M152 373.001h6c28.667 0 50.667 7.66699 66 23c12 12 20.833 30 26.5 54s8.5 46.667 8.5 68c0 50.667 -21.667 76 -65 76h-15zM143 302.001l-27.998 -225.001c13.333 0 23.666 0.333008 30.999 1s15.833 3.16699 25.5 7.5s18.167 10.833 25.5 19.5
c20 24.667 30 63.334 30 116.001c0 30 -6.33301 51 -19 63s-34.334 18 -65.001 18z" />
    <glyph glyph-name="C" unicode="C" horiz-adv-x="332" 
d="M360 656l-9.00293 -80.998c-19.333 11.333 -37.666 17 -54.999 17c-51.333 0 -90 -32.333 -116 -97c-13.333 -32.667 -23.833 -73.834 -31.5 -123.501s-11.5 -94.834 -11.5 -135.501c0 -104.667 33.667 -157 101 -157c18.667 0 36.334 4.33301 53.001 13l-10 -82
c-21.333 -12.667 -45.666 -19 -72.999 -19c-110.667 0 -166 75 -166 225c0 113.333 17.667 215.333 53 306c18 46 43.167 83 75.5 111s71.5 42 117.5 42c28 0 52 -6.33301 72 -19z" />
    <glyph glyph-name="D" unicode="D" horiz-adv-x="405" 
d="M104 667h109c42 0 73.333 -5.33301 94 -16c54.667 -28 82 -92.667 82 -194c0 -54.667 -5.33301 -115.167 -16 -181.5s-25.667 -119.5 -45 -159.5c-26 -51.333 -62 -85 -108 -101c-28.667 -10 -70.667 -15 -126 -15h-71zM121 78l3 0.000976562
c26 0 47.833 3.83301 65.5 11.5s33.5 21.5 47.5 41.5c19.333 27.333 34 75.666 44 144.999s15 130 15 182c0 46.667 -7.5 80.5 -22.5 101.5s-44.833 31.5 -89.5 31.5z" />
    <glyph glyph-name="E" unicode="E" horiz-adv-x="316" 
d="M339 667l-9 -76h-146l-26 -212h130l-10 -76h-130l-27 -227h146l-9 -76h-235l81 667h235z" />
    <glyph glyph-name="F" unicode="F" horiz-adv-x="305" 
d="M341 667l-10 -76h-147l-26 -211h133l-9 -76h-133l-38 -304h-88l81 667h237z" />
    <glyph glyph-name="G" unicode="G" horiz-adv-x="406" 
d="M402 539l-87.0049 -35c-1.33301 18.667 -3.16602 33.5 -5.49902 44.5s-8.33301 21.667 -18 32s-23.167 15.5 -40.5 15.5c-20 0 -35.333 -6.16699 -46 -18.5s-19.667 -29.5 -27 -51.5c-14 -40.667 -25.5 -96.5 -34.5 -167.5s-13.5 -131.833 -13.5 -182.5
c0 -16 0.333008 -28.167 1 -36.5s2.83398 -18.333 6.50098 -30s9.83398 -20.334 18.501 -26.001s20.334 -8.5 35.001 -8.5c43.333 0 71.666 35.333 84.999 106c6 26 10.667 57.333 14 94h-76l9 76h161c-0.666992 -4.66699 -2.16699 -18.334 -4.5 -41.001
s-4 -38.334 -5 -47.001s-3.33301 -24.167 -7 -46.5s-7 -38.666 -10 -48.999l-13.5 -44.5c-6 -19.333 -12.333 -33.833 -19 -43.5l-24.5 -34.5c-9.66699 -13.333 -20.167 -23.166 -31.5 -29.499s-24.5 -12 -39.5 -17s-31.167 -7.5 -48.5 -7.5
c-29.333 0 -53.833 5.33301 -73.5 16s-34.167 26.167 -43.5 46.5s-15.666 41 -18.999 62s-5 45.833 -5 74.5c0 78 9.33301 163 28 255c5.33301 26.667 10.5 49.334 15.5 68.001s12.667 39 23 61s22 39.833 35 53.5s29.833 25 50.5 34s44.334 13.5 71.001 13.5
c44 0 76.5 -11.333 97.5 -34s34.833 -56.667 41.5 -102z" />
    <glyph glyph-name="H" unicode="H" horiz-adv-x="408" 
d="M411 667l-82 -667h-88l40 330h-129l-41 -330h-88l81 667h89l-32 -261h129l32 261h89z" />
    <glyph glyph-name="I" unicode="I" horiz-adv-x="190" 
d="M193 667l-82 -667h-88l81 667h89z" />
    <glyph glyph-name="J" unicode="J" horiz-adv-x="255" 
d="M258 667l-62.999 -512c-5.33301 -39.333 -12 -68 -20 -86c-11.333 -25.333 -28.666 -44.666 -51.999 -57.999s-49.666 -20 -78.999 -20c-28.667 0 -53 6 -73 18l11 90c24 -15.333 42.667 -23 56 -23c14 0 25.667 2.83301 35 8.5s16.166 13.667 20.499 24
s7.66602 20.666 9.99902 30.999s4.16602 22.166 5.49902 35.499c0.666992 4.66699 1 8.33398 1 11.001l59 481h89z" />
    <glyph glyph-name="K" unicode="K" horiz-adv-x="366" 
d="M405 667l-174 -325l95 -342h-92l-84 327l-39 -327h-88l81 667h89l-38 -306l158 306h92z" />
    <glyph glyph-name="L" unicode="L" horiz-adv-x="288" 
d="M265 76l-9 -76h-233l81 667h89l-72 -591h144z" />
    <glyph glyph-name="M" unicode="M" horiz-adv-x="497" 
d="M468 667l-22.001 -666.998h-85c8 144.667 13.667 237 17 277c1.33301 10 2.83301 24.833 4.5 44.5s2.83398 34.5 3.50098 44.5c5.33301 50 8 78.333 8 85v8l-24 -84l-18 -61l-98 -314h-60c-19.333 227.333 -29 380.333 -29 459l-82 -459h-83l136 667h75
c1.33301 -16.667 4.33301 -47.667 9 -93s8 -79.5 10 -102.5s4.33301 -53 7 -90s4.66699 -71.333 6 -103s2 -62.834 2 -93.501c1.33301 8.66699 10 40 26 94c2.66699 8 6.16699 20.167 10.5 36.5l9.5 36.5c1.33301 5.33301 3.83301 13.166 7.5 23.499l8.5 23.5l84 268h77z
" />
    <glyph glyph-name="N" unicode="N" horiz-adv-x="407" 
d="M410 667l-81.001 -667.002h-83l-62 300c-8.66699 40.667 -15.334 78.334 -20.001 113.001c-2 12 -3.83301 29.5 -5.5 52.5s-3.16699 38.833 -4.5 47.5v-16c0 -19.333 -1.33301 -47.666 -4 -84.999c-5.33301 -76.667 -18.666 -214 -39.999 -412h-87l81 667h83l55 -267
c18.667 -92 31.334 -172 38.001 -240v110c0 38.667 3.66699 88 11 148l31 249h88z" />
    <glyph glyph-name="O" unicode="O" horiz-adv-x="416" 
d="M403 489c0 -117.333 -13.6689 -225.001 -41.002 -323.001c-15.333 -54 -36.666 -96.667 -63.999 -128s-66 -47 -116 -47c-94 0 -141 60 -141 180c0 110.667 10.667 212.334 32 305.001c13.333 60 34.333 108.167 63 144.5s70.334 54.5 125.001 54.5
c94.667 0 142 -62 142 -186zM310.998 494.999c0 12 -0.166016 21.1689 -0.499023 27.502s-1.5 14.833 -3.5 25.5s-4.83301 18.834 -8.5 24.501s-9.5 10.667 -17.5 15s-17.667 6.5 -29 6.5c-34 0 -58.667 -22 -74 -66c-4.66699 -12.667 -8.66699 -25.334 -12 -38.001
s-6.5 -27.834 -9.5 -45.501s-5 -30 -6 -37s-2.83301 -22.333 -5.5 -46s-4 -36.834 -4 -39.501c-7.33301 -60 -11 -109 -11 -147c0 -67.333 19.667 -101 59 -101c23.333 0 40.833 7.66699 52.5 23s21.167 36.666 28.5 63.999c11.333 44.667 20.666 99.334 27.999 164.001
c8.66699 69.333 13 126 13 170z" />
    <glyph glyph-name="P" unicode="P" horiz-adv-x="345" 
d="M104 667l116.999 0.00195312c50.667 0 86.834 -10.833 108.501 -32.5s32.5 -57.834 32.5 -108.501c0 -39.333 -6.33301 -77.833 -19 -115.5s-32.667 -65.834 -60 -84.501c-28.667 -20 -74 -30 -136 -30l-36 -296h-88zM156.999 373.002h8.00098
c68.667 0 103 44.333 103 133c0 28 -5.33301 49.167 -16 63.5s-29.334 21.5 -56.001 21.5h-12z" />
    <glyph glyph-name="Q" unicode="Q" horiz-adv-x="416" 
d="M307 -51l-36 66c-29.333 -16 -59 -24 -89 -24c-94 0 -141 62.667 -141 188c0 107.333 10.333 206.666 31 297.999c13.333 60 34.333 108 63 144s70 54 124 54c95.333 0 143 -62 143 -186c0 -114.667 -13 -222.667 -39 -324c-10 -39.333 -23.667 -71.666 -41 -96.999
l46 -78zM239 212l29.999 -53.001c12 44.667 21.667 100.334 29 167.001c8.66699 79.333 13 134.666 13 165.999c0 15.333 -0.5 27.333 -1.5 36s-3.16699 19 -6.5 31s-9.5 20.833 -18.5 26.5s-20.5 8.5 -34.5 8.5c-32 0 -56 -22 -72 -66
c-13.333 -37.333 -24.5 -92.666 -33.5 -165.999s-13.5 -135 -13.5 -185c0 -14 0.5 -25.667 1.5 -35s3.33301 -19.833 7 -31.5s9.83398 -20.5 18.501 -26.5s19.667 -9 33 -9c12.667 0 24.667 4 36 12l-46 82z" />
    <glyph glyph-name="R" unicode="R" horiz-adv-x="367" 
d="M104 667l117.001 -0.00195312c47.333 0 81.333 -11 102 -33s31 -57 31 -105c0 -28 -3.5 -55.667 -10.5 -83s-20.333 -53.166 -40 -77.499s-43.834 -39.166 -72.501 -44.499l90 -324h-90l-82 311l-38 -311h-88zM184.001 592.998l-27.001 -222.001
c29.333 0 51.333 5.33301 66 16c28.667 21.333 43 63 43 125c0 28.667 -4.66699 49.334 -14 62.001s-27.666 19 -54.999 19h-13z" />
    <glyph glyph-name="S" unicode="S" horiz-adv-x="325" 
d="M322 653l-11.999 -87.999c-21.333 20 -44 30 -68 30c-27.333 0 -49.333 -10.333 -66 -31s-25 -45 -25 -73c0 -18.667 5 -37 15 -55s22 -34.833 36 -50.5l42 -49c14 -17 26 -37.5 36 -61.5s15 -49.667 15 -77c0 -54.667 -16 -102.834 -48 -144.501
s-74.667 -62.5 -128 -62.5c-36.667 0 -67.667 10.667 -93 32l11 89c28 -23.333 55 -35 81 -35c28 0 50 10.833 66 32.5s24 47.167 24 76.5c0 20.667 -5 40.5 -15 59.5s-22 36.167 -36 51.5l-42.5 47c-14.333 16 -26.5 35.333 -36.5 58s-15 47 -15 73
c0 54.667 15.167 101.667 45.5 141s72.166 59 125.499 59c34 0 63.333 -7.33301 88 -22z" />
    <glyph glyph-name="T" unicode="T" horiz-adv-x="284" 
d="M342 667l-10 -79h-102l-72 -588h-87l73 588h-102l10 79h290z" />
    <glyph glyph-name="U" unicode="U" horiz-adv-x="403" 
d="M406 667l-59.001 -483.998c-8 -64.667 -24.167 -112.834 -48.5 -144.501s-66.833 -47.5 -127.5 -47.5c-87.333 0 -131 41.667 -131 125c0 11.333 2.33301 38 7 80l57 471h87l-58 -471c-3.33301 -23.333 -5 -44 -5 -62c0 -38.667 19.667 -58 59 -58
c11.333 0 21.333 2.16699 30 6.5s15.334 9 20.001 14s8.66699 12.833 12 23.5s5.5 19.167 6.5 25.5s2.16699 16.166 3.5 29.499c0.666992 3.33301 1 6 1 8l60 484h86z" />
    <glyph glyph-name="V" unicode="V" horiz-adv-x="322" 
d="M378 667l-211 -667.001h-70l-45 667h87c10 -238.667 15 -406 15 -502c4 21.333 9 43.333 15 66s13.5 48.834 22.5 78.501s15.167 51.167 18.5 64.5l85 293h83z" />
    <glyph glyph-name="W" unicode="W" horiz-adv-x="516" 
d="M569 667l-197.999 -667.001h-69c-8.66699 234 -13 369 -13 405c0 20 0.666992 50 2 90c-0.666992 -3.33301 -5.5 -25.166 -14.5 -65.499s-16.167 -70.833 -21.5 -91.5c-11.333 -43.333 -28.833 -105.166 -52.5 -185.499l-44.5 -152.5h-71l-32 667h86l6 -310
c0 -4.66699 0.333008 -12.334 1 -23.001s1 -18.334 1 -23.001c0 -54 -1.33301 -102.667 -4 -146l18 81c11.333 48.667 22.666 92.667 33.999 132l83 289h68l9 -280c0 -10 0.333008 -23.833 1 -41.5s1.16699 -33.667 1.5 -48s0.5 -28.166 0.5 -41.499
c0 -18.667 -0.666992 -47.334 -2 -86.001c28.667 122.667 43.667 186.334 45 191.001l81 306h85z" />
    <glyph glyph-name="X" unicode="X" horiz-adv-x="327" 
d="M383 667l-161.999 -327.999l80 -339h-89l-14 60c-6.66699 28 -11.667 49.833 -15 65.5s-6.83301 35.167 -10.5 58.5s-5.83398 45 -6.50098 65c-3.33301 -14 -16.333 -48.333 -39 -103c-6.66699 -16.667 -17.167 -41 -31.5 -73s-24.833 -56.333 -31.5 -73h-94l166 339
l-76 328h86l18 -73c9.33301 -38 16.333 -69.333 21 -94s7.66699 -49.334 9 -74.001c11.333 35.333 22 63.333 32 84c0.666992 2 2 5.16699 4 9.5s3.66699 7.5 5 9.5l59 138h89z" />
    <glyph glyph-name="Y" unicode="Y" horiz-adv-x="336" 
d="M392 667l-161 -380l-35 -287h-89l35 287l-90 380h94l32 -179c4.66699 -26.667 9.66699 -70 15 -130c11.333 41.333 25.333 85.333 42 132l65 177h92z" />
    <glyph glyph-name="Z" unicode="Z" horiz-adv-x="329" 
d="M378 667l-270 -588h187l-10 -79h-302l272 591h-176l9 76h290z" />
    <glyph glyph-name="bracketleft" unicode="[" horiz-adv-x="307" 
d="M336 729l-9 -76h-119l-94 -760h119l-9 -76h-209l113 912h208z" />
    <glyph glyph-name="backslash" unicode="\" horiz-adv-x="531" 
d="M65 729h68l391 -912h-70z" />
    <glyph glyph-name="bracketright" unicode="]" horiz-adv-x="307" 
d="M304 729l-113 -912h-209l10 76h119l94 760h-120l10 76h209z" />
    <glyph glyph-name="asciicircum" unicode="^" 
d="M494 359h-87l-141 244l-141 -244h-86l175 308h105z" />
    <glyph glyph-name="underscore" unicode="_" 
d="M472 -134h-500v70h500v-70z" />
    <glyph glyph-name="grave" unicode="`" 
d="M339 539l-43 -26l-99 107l60 44z" />
    <glyph glyph-name="a" unicode="a" horiz-adv-x="343" 
d="M324 447l-54.999 -447.001h-81l7 57c-12 -21.333 -24.5 -37.333 -37.5 -48s-30.167 -16 -51.5 -16c-55.333 0 -83 43.333 -83 130c0 30 1.5 60.5 4.5 91.5s8.83301 66.333 17.5 106s23.167 71.834 43.5 96.501s45.166 37 74.499 37c34 0 58.667 -19.333 74 -58l6 51h81z
M224.001 308.999c0 46.667 -12.667 70.001 -38 70.001c-29.333 0 -50 -28.333 -62 -85c-12 -55.333 -18 -107 -18 -155s13.667 -72 41 -72c26 0 45 25.333 57 76c13.333 55.333 20 110.666 20 165.999z" />
    <glyph glyph-name="b" unicode="b" horiz-adv-x="343" 
d="M189 729l-40.999 -333c12 19.333 24.333 33.833 37 43.5s29 14.5 49 14.5c32 0 54.5 -12.333 67.5 -37s19.5 -54.667 19.5 -90c0 -70.667 -9 -140 -27 -208c-22 -84 -60 -126 -114 -126c-20.667 0 -36.334 5.16699 -47.001 15.5s-19.667 26.5 -27 48.5l-7 -57h-81l90 729
h81zM236.001 308c0 47.333 -13.667 71 -41 71c-25.333 0 -44.333 -25 -57 -75c-13.333 -56.667 -20 -112.667 -20 -168c0 -46 13 -69 39 -69c28 0 48.333 28.333 61 85c12 55.333 18 107.333 18 156z" />
    <glyph glyph-name="c" unicode="c" horiz-adv-x="249" 
d="M252 438l-10.9971 -83.999c-7.33301 14 -20 21 -38 21c-18.667 0 -34.334 -8 -47.001 -24s-21.834 -36.5 -27.501 -61.5s-9.5 -47.333 -11.5 -67s-3 -38.834 -3 -57.501c0 -12 0.5 -22.333 1.5 -31s3 -18.5 6 -29.5s8.16699 -19.333 15.5 -25s17 -8.5 29 -8.5
c14 0 28.333 5.66699 43 17l-10 -77c-22 -12 -44.667 -18 -68 -18c-38.667 0 -66.334 14 -83.001 42s-25 63 -25 105c0 72 10.667 139 32 201c26 75.333 71 113 135 113c22 0 42.667 -5.33301 62 -16z" />
    <glyph glyph-name="d" unicode="d" horiz-adv-x="342" 
d="M359 729l-90.001 -728.997h-81l7 57c-12 -21.333 -24.5 -37.333 -37.5 -48s-30.167 -16 -51.5 -16c-55.333 0 -83 43.333 -83 130c0 23.333 0.666992 46.666 2 69.999s4.83301 51.666 10.5 84.999s13.334 62.166 23.001 86.499s23.5 45.333 41.5 63s39.333 26.5 64 26.5
c20 0 35.167 -4.66699 45.5 -14s19.5 -24 27.5 -44l40 333h82zM223.999 309.003c0 46.667 -12.667 70.001 -38 70.001c-29.333 0 -50 -28.333 -62 -85c-12 -55.333 -18 -107 -18 -155s13.667 -72 41 -72c26 0 45 25.333 57 76c13.333 55.333 20 110.666 20 165.999z" />
    <glyph glyph-name="e" unicode="e" horiz-adv-x="321" 
d="M206 151l76.002 0.000976562c-6 -38 -15.333 -68 -28 -90c-12 -21.333 -28.5 -38 -49.5 -50s-43.833 -18 -68.5 -18c-75.333 0 -113 49.333 -113 148c0 54.667 7.33301 110.667 22 168c25.333 96.667 73.666 145 144.999 145c40 0 68.167 -15 84.5 -45
s24.5 -66.667 24.5 -110c0 -26.667 -2.33301 -57.334 -7 -92.001h-185c-2.66699 -26.667 -4 -46.334 -4 -59.001c0 -11.333 0.333008 -20.333 1 -27s2.16699 -15.167 4.5 -25.5s6.66602 -18.166 12.999 -23.499s14.5 -8 24.5 -8c33.333 0 53.333 29 60 87zM218.002 300.001
l0.000976562 14.9971c0 46 -12.667 69 -38 69c-5.33301 0 -10.166 -0.833008 -14.499 -2.5s-8.33301 -4.5 -12 -8.5s-7 -7.83301 -10 -11.5s-5.83301 -8.66699 -8.5 -15s-4.83398 -11.666 -6.50098 -15.999s-3.33398 -10.333 -5.00098 -18s-3 -13.167 -4 -16.5
s-2.16699 -8.66602 -3.5 -15.999s-2 -11.666 -2 -12.999h103c0.666992 7.33301 1 18.333 1 33z" />
    <glyph glyph-name="f" unicode="f" horiz-adv-x="213" 
d="M272 728l-11 -87c-12 7.33301 -23 11 -33 11c-9.33301 0 -17 -1.66699 -23 -5s-10.5 -9 -13.5 -17s-5.16699 -14.667 -6.5 -20s-2.5 -13.5 -3.5 -24.5s-1.83301 -18.167 -2.5 -21.5l-15 -117h69l-8 -66h-69l-47 -381h-81l47 381h-41l8 66h41l19 154
c5.33301 44.667 16 79 32 103s44 36 84 36c18 0 36 -4 54 -12z" />
    <glyph glyph-name="g" unicode="g" horiz-adv-x="344" 
d="M325 447l-57.002 -461.003c-5.33301 -46.667 -13 -80.667 -23 -102c-23.333 -48 -67.666 -72 -132.999 -72c-36 0 -63.833 9.16699 -83.5 27.5s-29.5 45.5 -29.5 81.5c0 10.667 1 21.334 3 32.001h79c-1.33301 -9.33301 -2 -16.333 -2 -21
c0 -15.333 4 -27.666 12 -36.999s19.333 -14 34 -14c12 0 22 2.5 30 7.5s13.833 12.5 17.5 22.5s6.33398 18.833 8.00098 26.5s3.16699 17.834 4.5 30.501l10 87c-22 -41.333 -51 -62 -87 -62c-31.333 0 -53.5 12.5 -66.5 37.5s-19.5 55.167 -19.5 90.5
c0 75.333 10 149 30 221c22 74.667 59.333 112 112 112c19.333 0 34.333 -5.16699 45 -15.5s20 -25.5 28 -45.5l6 54h82zM222.998 300.997c0 52 -13.667 78 -41 78c-15.333 0 -28.333 -10 -39 -30s-18.334 -44.667 -23.001 -74s-8 -55.333 -10 -78s-3 -42 -3 -58
c0 -48 14 -72 42 -72c20 0 34.667 12 44 36c8.66699 20.667 15.834 51.667 21.501 93s8.5 76.333 8.5 105z" />
    <glyph glyph-name="h" unicode="h" horiz-adv-x="353" 
d="M189 729l-40.999 -334c27.333 39.333 59.666 59 96.999 59c24.667 0 43.667 -7 57 -21s20 -33.333 20 -58c0 -12.667 -1.33301 -31.667 -4 -57l-39 -318h-82l37 299c0 2.66699 0.333008 6.5 1 11.5s1.16699 9.5 1.5 13.5s0.5 7.66699 0.5 11c0 31.333 -13.333 47 -40 47
c-12 0 -22 -2.66699 -30 -8s-14 -13.5 -18 -24.5s-6.83301 -20.5 -8.5 -28.5s-3.5 -18.667 -5.5 -32l-36 -289h-81l90 729h81z" />
    <glyph glyph-name="i" unicode="i" horiz-adv-x="173" 
d="M182 587c0 -16.667 -6.33398 -31.168 -19.001 -43.501s-27.334 -18.5 -44.001 -18.5c-13.333 0 -24.666 4.83301 -33.999 14.5s-14 21.167 -14 34.5c0 16.667 6.33301 31.334 19 44.001s27.334 19 44.001 19c14 0 25.5 -4.83301 34.5 -14.5s13.5 -21.5 13.5 -35.5z
M153.999 446.999l-55 -447h-81l55 447h81z" />
    <glyph glyph-name="j" unicode="j" horiz-adv-x="174" 
d="M183 587c0 -16.667 -6.33398 -31.168 -19.001 -43.501s-27.334 -18.5 -44.001 -18.5c-13.333 0 -24.666 4.83301 -33.999 14.5s-14 21.167 -14 34.5c0 16.667 6.33301 31.334 19 44.001s27.334 19 44.001 19c14 0 25.5 -4.83301 34.5 -14.5s13.5 -21.5 13.5 -35.5z
M154.999 446.999l-78 -635h-82l79 635h81z" />
    <glyph glyph-name="k" unicode="k" horiz-adv-x="341" 
d="M349 447l-142 -207l102 -240h-92l-90 222l-28 -222h-81l90 729h81l-58 -473l124 191h94z" />
    <glyph glyph-name="l" unicode="l" horiz-adv-x="172" 
d="M188 729l-89 -729h-81l89 729h81z" />
    <glyph glyph-name="m" unicode="m" horiz-adv-x="532" 
d="M154 447l-6.99902 -55.001c28.667 41.333 61 62 97 62c41.333 0 66.333 -20.667 75 -62c26.667 41.333 60 62 100 62c25.333 0 45.666 -6.66699 60.999 -20s23 -32.333 23 -57c0 -9.33301 -0.333008 -16.333 -1 -21l-44 -356h-81l36 294c2 14 3 28 3 42
c0 28.667 -12.333 43 -37 43c-10 0 -18.5 -1.83301 -25.5 -5.5s-12.5 -7.83398 -16.5 -12.501s-7.33301 -11.5 -10 -20.5s-4.5 -16.167 -5.5 -21.5s-2.16699 -13.666 -3.5 -24.999l-36 -294h-84l36 294c2 14.667 3 29.334 3 44.001c0 27.333 -13.333 41 -40 41
c-12 0 -22 -2.33301 -30 -7s-14 -12 -18 -22s-6.66699 -18.5 -8 -25.5s-3 -17.167 -5 -30.5l-37 -294h-81l55 447h81z" />
    <glyph glyph-name="n" unicode="n" horiz-adv-x="353" 
d="M154 447l-5.99902 -52c27.333 39.333 59.666 59 96.999 59c24.667 0 43.667 -7 57 -21s20 -33.333 20 -58c0 -12.667 -1.33301 -31.667 -4 -57l-39 -318h-82l37 299c0 2.66699 0.333008 6.5 1 11.5s1.16699 9.5 1.5 13.5s0.5 7.66699 0.5 11c0 31.333 -13.333 47 -40 47
c-12 0 -22 -2.66699 -30 -8s-14 -13.5 -18 -24.5s-6.83301 -20.5 -8.5 -28.5s-3.5 -18.667 -5.5 -32l-36 -289h-81l55 447h81z" />
    <glyph glyph-name="o" unicode="o" horiz-adv-x="336" 
d="M311 306c0 -26 -1.16504 -51.3311 -3.49805 -75.998s-7.16602 -52 -14.499 -82s-17 -55.833 -29 -77.5s-28.833 -40 -50.5 -55s-46.834 -22.5 -75.501 -22.5c-76 0 -114 50.333 -114 151c0 33.333 2.16699 65.666 6.5 96.999s12.166 64.166 23.499 98.499
s29.166 62 53.499 83s53.833 31.5 88.5 31.5c76.667 0 115 -49.333 115 -148zM228.002 314.002c0 43.333 -13.667 65 -41 65c-15.333 0 -28 -7.66699 -38 -23c-12.667 -18.667 -22.334 -51.5 -29.001 -98.5s-10 -87.833 -10 -122.5c0 -43.333 13.333 -65 40 -65
c15.333 0 28.333 8 39 24c12.667 18.667 22.334 51.5 29.001 98.5s10 87.5 10 121.5z" />
    <glyph glyph-name="p" unicode="p" horiz-adv-x="344" 
d="M155 447l-7 -57.998c12.667 21.333 25.5 37.5 38.5 48.5s29.833 16.5 50.5 16.5c55.333 0 83 -43.667 83 -131c0 -30.667 -1.5 -61.334 -4.5 -92.001s-8.83301 -65.667 -17.5 -105s-23.167 -71.333 -43.5 -96s-45.5 -37 -75.5 -37c-19.333 0 -34.5 4.66699 -45.5 14
s-19.833 23.666 -26.5 42.999l-30 -238h-82l79 635h81zM237 307.002c0 48 -13.667 71.999 -41 71.999c-26 0 -45 -25 -57 -75c-13.333 -55.333 -20 -110.666 -20 -165.999c0 -47.333 13 -71 39 -71c28 0 48.333 28.333 61 85c12 61.333 18 113 18 155z" />
    <glyph glyph-name="q" unicode="q" horiz-adv-x="343" 
d="M324 447l-79.001 -635h-82l31 238c-23.333 -38 -52 -57 -86 -57c-57.333 0 -86 42 -86 126c0 29.333 1.66699 59.833 5 91.5s9.33301 67.5 18 107.5s23.167 72.667 43.5 98s44.833 38 73.5 38c20.667 0 36.334 -5.33301 47.001 -16s19.667 -27 27 -49l7 58h81z
M223.999 309c0 46.667 -12.668 70.001 -38.001 70.001c-13.333 0 -24.666 -5.33301 -33.999 -16s-15.5 -21 -18.5 -31s-6.16699 -22.667 -9.5 -38c-12 -55.333 -18 -107 -18 -155s13.667 -72 41 -72c26 0 45 25.333 57 76c13.333 55.333 20 110.666 20 165.999z" />
    <glyph glyph-name="r" unicode="r" horiz-adv-x="233" 
d="M251 457l-11.001 -86c-3.33301 0.666992 -8 1 -14 1c-31.333 0 -53.666 -8.5 -66.999 -25.5s-22 -42.167 -26 -75.5l-34 -271h-81l55 447h81l-7 -56c16 22 31.167 38 45.5 48s33.833 16 58.5 18z" />
    <glyph glyph-name="s" unicode="s" horiz-adv-x="256" 
d="M242 438l-9.99707 -77.001c-19.333 14.667 -39 22 -59 22c-15.333 0 -29 -5.5 -41 -16.5s-18 -24.167 -18 -39.5c0 -11.333 3.83301 -22.333 11.5 -33s17 -20.5 28 -29.5s22 -18.667 33 -29s20.333 -23.166 28 -38.499s11.5 -32.666 11.5 -51.999
c0 -42.667 -13.5 -78.667 -40.5 -108s-61.5 -44 -103.5 -44c-25.333 0 -48.333 7 -69 21l10 80c21.333 -18 42.666 -27 63.999 -27c19.333 0 34.666 6 45.999 18s17 27.667 17 47c0 14.667 -6 29 -18 43s-25 26.333 -39 37s-27 25.167 -39 43.5s-18 38.166 -18 59.499
c0 40 12.667 73.667 38 101s58 41 98 41c25.333 0 48.666 -6.33301 69.999 -19z" />
    <glyph glyph-name="t" unicode="t" horiz-adv-x="193" 
d="M208 447l-8 -64h-44l-47 -383h-81l47 383h-45l8 64h45l15 127h81l-15 -127h44z" />
    <glyph glyph-name="u" unicode="u" horiz-adv-x="354" 
d="M335 447l-33.001 -268c-4 -32.667 -8.16699 -58 -12.5 -76s-11.833 -36.833 -22.5 -56.5s-26 -33.667 -46 -42s-45.667 -12.5 -77 -12.5c-74 0 -111 36.667 -111 110c0 10.667 1.33301 27.334 4 50.001l36 295h81l-33 -268c-3.33301 -23.333 -5 -44 -5 -62
c0 -16.667 3.5 -28.5 10.5 -35.5s18.833 -10.5 35.5 -10.5c13.333 0 24 4.33301 32 13s13.167 17.167 15.5 25.5s4.5 20.166 6.5 35.499c2.66699 14 4.33398 25.333 5.00098 34l32 268h82z" />
    <glyph glyph-name="v" unicode="v" horiz-adv-x="295" 
d="M319 447l-170 -447h-55l-64 447h87c13.333 -124 20 -217 20 -279c0 -26 -0.333008 -45.667 -1 -59c20 76 54.667 188.667 104 338h79z" />
    <glyph glyph-name="w" unicode="w" horiz-adv-x="442" 
d="M462 447l-157.998 -446.998h-56c-1.33301 14.667 -3.5 40 -6.5 76s-5.33301 67.167 -7 93.5s-2.5 51.833 -2.5 76.5c0 28 1 55.333 3 82c-3.33301 -20 -13.333 -61 -30 -123c-2 -6 -23 -74.333 -63 -205h-56l-53 447h87c6.66699 -124 10 -216.667 10 -278
c0 -19.333 -0.666992 -33.666 -2 -42.999c18.667 75.333 49.667 182.333 93 321h59c1.33301 -18.667 2.66602 -46.334 3.99902 -83.001s2.66602 -64 3.99902 -82c3.33301 -48.667 5 -77.667 5 -87c0 -15.333 -0.666992 -38.333 -2 -69c5.33301 25.333 12 53.166 20 83.499
s15 55.666 21 75.999l26 84.5l24 77h80z" />
    <glyph glyph-name="x" unicode="x" horiz-adv-x="327" 
d="M330 447l-124.999 -211.002l91 -236h-97c-0.666992 2.66699 -5.16699 15.834 -13.5 39.501s-14.333 41.334 -18 53.001s-7.66699 26.5 -12 44.5s-6.5 32.667 -6.5 44c-4 -15.333 -9.83301 -31.5 -17.5 -48.5s-14.667 -31.333 -21 -43l-26 -46.5l-24.5 -43h-85l139 236
l-84 211h96c25.333 -78.667 39.666 -129.667 42.999 -153c7.33301 20 32.333 71 75 153h86z" />
    <glyph glyph-name="y" unicode="y" horiz-adv-x="322" 
d="M346 447l-259 -635h-85l96 224l-67 411h92l26 -312l114 312h83z" />
    <glyph glyph-name="z" unicode="z" horiz-adv-x="294" 
d="M307 447l-192 -372h139l-9 -75h-260l198 374h-140l9 73h255z" />
    <glyph glyph-name="braceleft" unicode="{" horiz-adv-x="503" 
d="M433 728l-9.00195 -68.999c-37.333 0 -63.333 -5.16699 -78 -15.5s-24 -33.166 -28 -68.499l-23 -185c-3.33301 -30 -10.5 -53.833 -21.5 -71.5s-29.167 -32.834 -54.5 -45.501c18 -11.333 30.667 -23.5 38 -36.5s11 -29.833 11 -50.5c0 -5.33301 -0.666992 -16 -2 -32
l-22 -182c-1.33301 -16 -2 -28 -2 -36c0 -9.33301 2 -17.333 6 -24s8.5 -11.667 13.5 -15s12.333 -5.83301 22 -7.5s17.334 -2.66699 23.001 -3s13.5 -0.5 23.5 -0.5l-9 -69h-34c-41.333 0 -72.666 7.83301 -93.999 23.5s-32 43.5 -32 83.5c0 18 0.666992 31.333 2 40
l22 187c1.33301 12 2 21 2 27c0 35.333 -15.667 57 -47 65l8 65c22 6 37.833 16 47.5 30s16.167 33 19.5 57l25 196c6.66699 49.333 22.667 84.666 48 105.999s63 32 113 32c14 0 24.667 -0.333008 32 -1z" />
    <glyph glyph-name="bar" unicode="|" 
d="M293 -250h-80v1000h80v-1000z" />
    <glyph glyph-name="braceright" unicode="}" horiz-adv-x="503" 
d="M379 303l-7.99902 -65c-18 -3.33301 -32.667 -11.333 -44 -24c-12 -13.333 -19.667 -34.333 -23 -63l-24 -196c-5.33301 -44 -18.666 -77 -39.999 -99c-26 -26.667 -63.667 -40 -113 -40c-6.66699 0 -20 0.666992 -40 2l8 68c37.333 0 62.666 5 75.999 15
c16 11.333 26.333 34.666 31 69.999l23 184c4 32 12 57.667 24 77c11.333 18 28.333 31.667 51 41c-13.333 6 -25 16.667 -35 32c-8.66699 14.667 -13 31.667 -13 51c0 5.33301 1.33301 20.666 4 45.999l20 160c0 2 0.5 5.5 1.5 10.5s1.66699 9.83301 2 14.5s0.5 9 0.5 13
c0 17.333 -4.33301 31.333 -13 42c-10.667 12 -30 18 -58 18c-8.66699 0 -14.334 -0.333008 -17.001 -1l8 69c14.667 1.33301 26 2 34 2c46 0 79.333 -10.333 100 -31c18 -18 27 -43.667 27 -77c0 -13.333 -1 -26.666 -3 -39.999l-24 -187c-1.33301 -13.333 -2 -23 -2 -29
c0 -18 3.33301 -31.667 10 -41c8 -11.333 20.333 -18.666 37 -21.999z" />
    <glyph glyph-name="asciitilde" unicode="~" horiz-adv-x="667" 
d="M579 730l48 -28c-37.333 -76.667 -86.333 -115 -147 -115c-24 0 -58.333 10.5 -103 31.5s-77.667 31.5 -99 31.5c-32 0 -60.667 -23.667 -86 -71l-47 31c9.33301 18.667 17.5 33.667 24.5 45s16 23.333 27 36s23.833 22 38.5 28s31 9 49 9c26 0 61.667 -10.667 107 -32
s78.333 -32 99 -32s37.5 5.5 50.5 16.5s25.833 27.5 38.5 49.5z" />
    <glyph glyph-name="uni00A0" unicode="&#xa0;" horiz-adv-x="233" 
 />
    <glyph glyph-name="exclamdown" unicode="&#xa1;" horiz-adv-x="243" 
d="M200 407c0 -16 -6 -30 -18 -42s-26 -18 -42 -18c-12.667 0 -23.5 4.5 -32.5 13.5s-13.5 20.167 -13.5 33.5c0 16 6 30 18 42s26 18 42 18c12.667 0 23.5 -4.5 32.5 -13.5s13.5 -20.167 13.5 -33.5zM174 267l-60 -487h-86l60 487h86z" />
    <glyph glyph-name="cent" unicode="&#xa2;" horiz-adv-x="380" 
d="M325 550l-9 -79.0029c-8 8 -18.333 12 -31 12c-20 0 -37 -9 -51 -27c-12.667 -17.333 -22.334 -44.666 -29.001 -81.999s-10 -71.333 -10 -102c0 -62.667 17 -94 51 -94c6.66699 0 18.334 3 35.001 9l-9 -73c-13.333 -7.33301 -26 -11.333 -38 -12l-9 -79h-60l9 78
c-1.33301 0.666992 -4.66602 2.66699 -9.99902 6s-9.66602 6.33301 -12.999 9s-7.5 7 -12.5 13s-9.5 12.667 -13.5 20c-12.667 24.667 -19 57.334 -19 98.001c0 116.667 21.333 205.334 64 266.001c15.333 21.333 35.666 37.333 60.999 48l11 92h60l-11 -94
c11.333 -1.33301 22.666 -4.33301 33.999 -9z" />
    <glyph glyph-name="sterling" unicode="&#xa3;" horiz-adv-x="380" 
d="M42 353l57.998 -0.000976562c-14 38 -21 76.333 -21 115c0 67.333 19.333 119.666 58 156.999c34.667 33.333 76.667 50 126 50c38.667 0 68.667 -10.667 90 -32c22 -22 33 -50 33 -84c0 -7.33301 -0.333008 -12.666 -1 -15.999l-73 -33
c1.33301 6.66699 2 16.334 2 29.001c0 21.333 -4.66699 37 -14 47c-10 11.333 -24.667 17 -44 17c-26 0 -47.667 -8.66699 -65 -26c-20 -20 -30 -50 -30 -90c0 -31.333 8 -76 24 -134h90l-8 -61h-69c7.33301 -22.667 11 -48 11 -76c0 -22 -3.66699 -44.667 -11 -68
c-7.33301 -20.667 -16 -39.667 -26 -57l26 -16c10.667 -6 21.334 -9 32.001 -9c14.667 0 26 10 34 30l69 -23c-9.33301 -20.667 -21 -38 -35 -52c-18.667 -20 -41 -30 -67 -30c-18 0 -38.333 5.33301 -61 16l-28 14c-17.333 8.66699 -30.666 13 -39.999 13
s-16.333 -3 -21 -9c-2 -2.66699 -4.33301 -6.66699 -7 -12l-5 -8l-63 27c6.66699 21.333 16.667 38.666 30 51.999c16.667 18 36 27 58 27c3.33301 0 8.33301 -0.666992 15 -2c18 24.667 27 54 27 88c0 28.667 -6.66699 60.334 -20 95.001h-82z" />
    <glyph glyph-name="currency" unicode="&#xa4;" horiz-adv-x="667" 
d="M634 125l-43.999 -44.999l-96 96c-44.667 -33.333 -92.334 -50 -143.001 -50c-49.333 0 -97.333 16.333 -144 49l-95 -95l-45 45l96 95c-34 43.333 -51 90.666 -51 141.999c0 49.333 16.667 96.333 50 141l-97 96l45 45l96 -96c46.667 33.333 94.667 50 144 50
c50 0 97.333 -16.333 142 -49l96 95l45 -45l-95 -95c32.667 -46.667 49 -94 49 -142c0 -47.333 -16.333 -94.333 -49 -141zM514.001 362.001c0 45.333 -16 84.166 -48 116.499s-70.667 48.5 -116 48.5s-84 -16.167 -116 -48.5s-48 -71.166 -48 -116.499
s16 -84.166 48 -116.499s70.667 -48.5 116 -48.5c44.667 0 83.167 16.167 115.5 48.5s48.5 71.166 48.5 116.499z" />
    <glyph glyph-name="yen" unicode="&#xa5;" horiz-adv-x="380" 
d="M409 667l-99.999 -236h78l-8 -62h-96l-22 -52h112l-7 -61h-121l-32 -256h-88l31 256h-133l7 61h123l-13 52h-103l7 62h81l-56 236h94c13.333 -78.667 23.666 -137.667 30.999 -177c10 -54 15.667 -98 17 -132c12.667 46.667 48 149.667 106 309h92z" />
    <glyph glyph-name="brokenbar" unicode="&#xa6;" 
d="M293 345h-81v405h81v-405zM293 -250h-81v405h81v-405z" />
    <glyph glyph-name="section" unicode="&#xa7;" horiz-adv-x="373" 
d="M366 593h-72c1.33301 22.667 -2.33398 42.334 -11.001 59.001s-22.667 25 -42 25c-20 0 -36.333 -9 -49 -27c-12.667 -18.667 -19 -41.334 -19 -68.001c0 -26 11 -50 33 -72c9.33301 -9.33301 26 -22 50 -38c23.333 -16 38.333 -27.667 45 -35
c29.333 -29.333 44 -69.666 44 -120.999c0 -66.667 -13.667 -120.334 -41 -161.001c-18 -27.333 -41 -46 -69 -56c36 -27.333 54 -65.333 54 -114c0 -58 -17.667 -103.333 -53 -136c-25.333 -23.333 -56.666 -35 -93.999 -35c-38 0 -68 13 -90 39
c-24.667 28 -34.334 68.333 -29.001 121h72c-3.33301 -34 1 -59.333 13 -76c10 -12.667 22.667 -19 38 -19c17.333 0 32 6.33301 44 19c17.333 19.333 26 46 26 80c0 24 -9.33301 46 -28 66c-8.66699 8.66699 -26 21 -52 37c-26.667 17.333 -44.667 30.666 -54 39.999
c-27.333 28.667 -41 68 -41 118c0 53.333 11.667 100.666 35 141.999c20 34.667 47 59.334 81 74.001c-38.667 34.667 -58 74 -58 118c0 50.667 14.667 92.334 44 125.001c26.667 29.333 61.334 44 104.001 44c34.667 0 62.667 -10.667 84 -32
c23.333 -23.333 35 -59 35 -107v-10zM115 239c0 -38 6 -63.667 18 -77c10 -12.667 24.667 -19 44 -19c18.667 0 34.667 5.66699 48 17c30 24.667 45 77 45 157c0 34 -5.33301 58 -16 72s-25.667 21 -45 21c-17.333 0 -33 -6.33301 -47 -19
c-16.667 -14.667 -28.667 -37 -36 -67s-11 -58.333 -11 -85z" />
    <glyph glyph-name="dieresis" unicode="&#xa8;" horiz-adv-x="490" 
d="M408 569c0 -15.333 -5.66602 -28.5 -16.999 -39.5s-24.333 -16.5 -39 -16.5c-12.667 0 -23.167 4.16699 -31.5 12.5s-12.5 18.833 -12.5 31.5c0 14.667 5.66699 27.667 17 39s24.666 17 39.999 17c12.667 0 23 -4.16699 31 -12.5s12 -18.833 12 -31.5zM262.001 569
c0 -15.333 -5.66699 -28.5 -17 -39.5s-24.333 -16.5 -39 -16.5c-12.667 0 -23 4.16699 -31 12.5s-12 18.833 -12 31.5c0 15.333 5.5 28.5 16.5 39.5s24.167 16.5 39.5 16.5c12.667 0 23 -4.16699 31 -12.5s12 -18.833 12 -31.5z" />
    <glyph glyph-name="copyright" unicode="&#xa9;" horiz-adv-x="757" 
d="M737 333c0 -95.333 -33.6689 -176.833 -101.002 -244.5s-148.666 -101.5 -243.999 -101.5s-176.833 33.833 -244.5 101.5s-101.5 149.167 -101.5 244.5s33.833 176.833 101.5 244.5s149.167 101.5 244.5 101.5c94.667 0 175.834 -33.833 243.501 -101.5
s101.5 -149.167 101.5 -244.5zM682.998 333c0 81.333 -28.1689 151.168 -84.502 209.501s-125.166 87.5 -206.499 87.5s-150.333 -29 -207 -87s-85 -127.667 -85 -209s28.5 -151.333 85.5 -210s125.833 -88 206.5 -88s149.334 29.167 206.001 87.5s85 128.166 85 209.499z
M462.996 204.002v-62c-12 -9.33301 -29 -14 -51 -14c-88.667 0 -133 66.333 -133 199c0 140.667 43.667 211 131 211c20 0 37.667 -4.33301 53 -13v-62c-14.667 9.33301 -28.667 14 -42 14c-46 0 -69 -49 -69 -147c0 -92 24 -138 72 -138c10 0 23 4 39 12z" />
    <glyph glyph-name="ordfeminine" unicode="&#xaa;" horiz-adv-x="262" 
d="M228 372l-61.001 0.000976562l2 17c-11.333 -14 -26 -21 -44 -21c-16.667 0 -29.667 6 -39 18c-12.667 15.333 -19 42.666 -19 81.999c0 38 3.66699 72.333 11 103c8.66699 36 21.334 62.667 38.001 80c13.333 13.333 29 20 47 20c16 0 28.667 -7 38 -21l2 17h61z
M217.999 297.001h-173l5 40h173zM132.999 528.001l-1.00098 -10.001c-2.66699 -24 -4 -41.667 -4 -53c0 -28.667 7 -43 21 -43c5.33301 0 10.333 2.33301 15 7c8.66699 8.66699 16 33.667 22 75l3 21c2.66699 16.667 4 34.334 4 53.001c0 15.333 -2.33301 26 -7 32
c-3.33301 4.66699 -7.66602 7 -12.999 7c-6 0 -12 -3 -18 -9c-10 -12 -17.333 -38.667 -22 -80z" />
    <glyph glyph-name="guillemotleft" unicode="&#xab;" horiz-adv-x="321" 
d="M310 405l-121 -171l69 -177l-41 -21l-80 198l137 196zM204 405l-122 -171l72 -177l-43 -21l-77 198l134 196z" />
    <glyph glyph-name="logicalnot" unicode="&#xac;" 
d="M455 0h-80v195h-353v72h433v-267z" />
    <glyph glyph-name="uni00AD" unicode="&#xad;" horiz-adv-x="255" 
d="M213 295l-9 -78h-155l9 78h155z" />
    <glyph glyph-name="registered" unicode="&#xae;" horiz-adv-x="757" 
d="M522 132l-73 -0.000976562l-82 176v-176h-70v403h92c42 0 71.833 -8.16699 89.5 -24.5s26.5 -45.166 26.5 -86.499c0 -28 -6 -51.667 -18 -71s-31 -30 -57 -32zM367 367.999l18 0.000976562c20.667 0 34.5 4.66699 41.5 14s10.5 24.666 10.5 45.999
s-3.83301 36.333 -11.5 45s-22.167 13 -43.5 13h-15v-118zM683 333c0 81.333 -28.1689 151.168 -84.502 209.501s-125.166 87.5 -206.499 87.5s-150.333 -29 -207 -87s-85 -127.667 -85 -209s28.5 -151.333 85.5 -210s125.833 -88 206.5 -88s149.334 29.167 206.001 87.5
s85 128.166 85 209.499zM736.998 333.002c0 -95.333 -33.6689 -176.833 -101.002 -244.5s-148.666 -101.5 -243.999 -101.5s-176.833 33.833 -244.5 101.5s-101.5 149.167 -101.5 244.5s33.833 176.833 101.5 244.5s149.167 101.5 244.5 101.5
c94.667 0 175.834 -33.833 243.501 -101.5s101.5 -149.167 101.5 -244.5z" />
    <glyph glyph-name="macron" unicode="&#xaf;" 
d="M409 586l-8 -62h-221l7 62h222z" />
    <glyph glyph-name="degree" unicode="&#xb0;" 
d="M430 528c0 -38.667 -14.167 -71.667 -42.5 -99s-61.833 -41 -100.5 -41s-72.167 13.667 -100.5 41s-42.5 60.333 -42.5 99c0 39.333 14 72.5 42 99.5s61.667 40.5 101 40.5s73 -13.5 101 -40.5s42 -60.167 42 -99.5zM379 528c0 25.333 -9 46.666 -27 63.999
s-39.667 26 -65 26s-47 -8.66699 -65 -26s-27 -38.666 -27 -63.999s9 -46.666 27 -63.999s39.667 -26 65 -26s47 8.66699 65 26s27 38.666 27 63.999z" />
    <glyph glyph-name="plusminus" unicode="&#xb1;" 
d="M468 347h-176v-169h-80v169h-177v74h177v169h80v-169h176v-74zM468 64h-433v75h433v-75z" />
    <glyph glyph-name="twosuperior" unicode="&#xb2;" horiz-adv-x="249" 
d="M133 532l-62 -0.00195312c2 21.333 4.5 39.333 7.5 54s8.33301 29.167 16 43.5s18.5 25 32.5 32s31.667 10.5 53 10.5c56 0 84 -27 84 -81c0 -20 -5.83301 -44.167 -17.5 -72.5s-22 -50.166 -31 -65.499s-25.667 -41 -50 -77l-38.5 -57h101l-7 -52h-190l37.5 60.5
l37.5 60.5c0.666992 0.666992 7.16699 10.834 19.5 30.501l27 43.5c5.66699 9.33301 13.167 22.833 22.5 40.5s16 33 20 46s6 24.833 6 35.5c0 23.333 -9.33301 35 -28 35c-24.667 0 -38 -29 -40 -87z" />
    <glyph glyph-name="threesuperior" unicode="&#xb3;" horiz-adv-x="249" 
d="M137 555l-59 0.000976562c4.66699 39.333 13.834 68.666 27.501 87.999s38.167 29 73.5 29c52 0 78 -25.333 78 -76c0 -64.667 -17.667 -105.667 -53 -123c23.333 -10 35 -29 35 -57c0 -102.667 -38.333 -154 -115 -154c-27.333 0 -47.333 6.33301 -60 19
s-19 32.667 -19 60c0 10.667 1 21 3 31h59c-2 -9.33301 -3 -18 -3 -26c0 -20.667 9 -31 27 -31c30 0 45 32.333 45 97c0 11.333 -3.5 20.5 -10.5 27.5s-16.167 10.5 -27.5 10.5c-4.66699 0 -11 -0.666992 -19 -2l6 53h11c14 0 24.667 1.5 32 4.5s13.666 9.83301 18.999 20.5
c6.66699 14 10 32.667 10 56c0 24.667 -7.66699 37 -23 37c-20.667 0 -33 -21.333 -37 -64z" />
    <glyph glyph-name="acute" unicode="&#xb4;" 
d="M239 542l95 122l66 -39l-115 -112z" />
    <glyph glyph-name="mu" unicode="&#xb5;" horiz-adv-x="504" 
d="M430 0l-80.001 0.000976562l8 67c-14 -24.667 -32 -44.334 -54 -59.001c-20.667 -13.333 -47 -20 -79 -20c-30 0 -55.667 9.33301 -77 28c-17.333 15.333 -30.333 35 -39 59l-32 -263h-82l78 635h82l-25 -204c-4 -32.667 -6 -55.667 -6 -69c0 -39.333 11.333 -70 34 -92
c20 -19.333 45.667 -29 77 -29c38 0 68.333 11.667 91 35c12 12.667 21.667 27.5 29 44.5s11.833 30.667 13.5 41s3.83398 25.5 6.50098 45.5l28 228h82z" />
    <glyph glyph-name="mu" unicode="&#x3bc;" horiz-adv-x="504" 
d="M430 0l-80.001 0.000976562l8 67c-14 -24.667 -32 -44.334 -54 -59.001c-20.667 -13.333 -47 -20 -79 -20c-30 0 -55.667 9.33301 -77 28c-17.333 15.333 -30.333 35 -39 59l-32 -263h-82l78 635h82l-25 -204c-4 -32.667 -6 -55.667 -6 -69c0 -39.333 11.333 -70 34 -92
c20 -19.333 45.667 -29 77 -29c38 0 68.333 11.667 91 35c12 12.667 21.667 27.5 29 44.5s11.833 30.667 13.5 41s3.83398 25.5 6.50098 45.5l28 228h82z" />
    <glyph glyph-name="paragraph" unicode="&#xb6;" horiz-adv-x="591" 
d="M575 667l-8 -63h-62l-87 -704h-69l87 704h-102l-87 -704h-69l52 415h-15c-48 0 -87.167 13.333 -117.5 40s-45.5 63.667 -45.5 111c0 59.333 22.667 109 68 149c40.667 34.667 99.667 52 177 52h278z" />
    <glyph glyph-name="periodcentered" unicode="&#xb7;" horiz-adv-x="206" 
d="M175 341c0 -18.667 -7.16699 -35.168 -21.5 -49.501s-31.166 -21.5 -50.499 -21.5c-16 0 -29.333 5.33301 -40 16s-16 24 -16 40c0 18.667 7.16699 35.334 21.5 50.001s31.166 22 50.499 22c16 0 29.333 -5.5 40 -16.5s16 -24.5 16 -40.5z" />
    <glyph glyph-name="cedilla" unicode="&#xb8;" 
d="M261 -74l-89 -117l-35 20l70 126z" />
    <glyph glyph-name="onesuperior" unicode="&#xb9;" horiz-adv-x="249" 
d="M223 667l-50 -400h-60l43 348h-41l6 52h102z" />
    <glyph glyph-name="ordmasculine" unicode="&#xba;" horiz-adv-x="267" 
d="M189 671c20 0 36.667 -7 50 -21c18.667 -20 28 -50 28 -90c0 -30 -4 -60.667 -12 -92s-21 -56 -39 -74c-17.333 -17.333 -38 -26 -62 -26c-20 0 -37 6.33301 -51 19c-20 19.333 -30 52.333 -30 99c0 68.667 16.333 120.667 49 156c18.667 19.333 41 29 67 29zM233 297
h-182l5 40h182zM181 612c-6 0 -11.668 -3.00098 -17.001 -9.00098c-8 -8 -14.667 -24.667 -20 -50c-5.33301 -26.667 -8 -52.667 -8 -78c0 -22 2.66699 -35.667 8 -41c4 -4.66699 8.66699 -7 14 -7s10 2 14 6c8.66699 8 16.334 25.333 23.001 52
c5.33301 23.333 8 48.333 8 75c0 24.667 -3.33301 40.334 -10 47.001c-3.33301 3.33301 -7.33301 5 -12 5z" />
    <glyph glyph-name="guillemotright" unicode="&#xbb;" horiz-adv-x="321" 
d="M289 234l-126 -198l-38 21l115 177l-79 171l42 25zM185 234l-128 -198l-36 21l113 177l-79 171l42 25z" />
    <glyph glyph-name="onequarter" unicode="&#xbc;" horiz-adv-x="621" 
d="M589 400l-32 -255h26l-5 -47h-27l-11 -98h-58l12 98h-114l6 49l146 253h57zM555 667l-408 -667h-54l408 667h54zM223 667l-49 -400h-61l43 348h-41l7 52h101zM518 300l-81 -155h62z" />
    <glyph glyph-name="onehalf" unicode="&#xbd;" horiz-adv-x="621" 
d="M473 265l-62.002 0.00195312c4 45.333 13.333 79.833 28 103.5s42 35.5 82 35.5c55.333 0 83 -26.667 83 -80c0 -20.667 -5.5 -44.834 -16.5 -72.501s-21.833 -50 -32.5 -67s-27 -41.667 -49 -74s-35 -51.833 -39 -58.5h101l-7 -52h-190l17 27.5l20 32l17 27.5
c0.666992 0.666992 8.5 12.5 23.5 35.5s25.833 40 32.5 51l27.5 47.5c11.667 20.667 20 38.667 25 54s7.5 29 7.5 41c0 23.333 -9.33301 35 -28 35c-4 0 -7.66699 -0.666992 -11 -2s-6.16602 -3.33301 -8.49902 -6s-4.5 -5.33398 -6.5 -8.00098s-3.66699 -6.5 -5 -11.5
s-2.5 -8.83301 -3.5 -11.5s-1.83301 -7 -2.5 -13s-1.16699 -10 -1.5 -12s-0.666016 -6 -0.999023 -12s-0.5 -9.33301 -0.5 -10zM554.998 667.002l-408 -667h-54l408 667h54zM222.998 667.002l-49 -400h-61l43 348h-41l7 52h101z" />
    <glyph glyph-name="threequarters" unicode="&#xbe;" horiz-adv-x="621" 
d="M554 667l-407 -667h-54l407 667h54zM137 555l-59 0.000976562c4.66699 39.333 13.834 68.666 27.501 87.999s38.167 29 73.5 29c52 0 78 -25.333 78 -76c0 -64.667 -17.667 -105.667 -53 -123c23.333 -10 35 -29 35 -57c0 -102.667 -38.333 -154 -115 -154
c-27.333 0 -47.333 6.33301 -60 19s-19 32.667 -19 60c0 10.667 1 21 3 31h59c-2 -9.33301 -3 -18 -3 -26c0 -20.667 9 -31 27 -31c30 0 45 32.333 45 97c0 11.333 -3.5 20.5 -10.5 27.5s-16.167 10.5 -27.5 10.5c-4.66699 0 -11 -0.666992 -19 -2l6 53h11
c14 0 24.667 1.5 32 4.5s13.666 9.83301 18.999 20.5c6.66699 14 10 32.667 10 56c0 24.667 -7.66699 37 -23 37c-20.667 0 -33 -21.333 -37 -64zM518 300.001l-81 -155h62zM589 400.001l-32 -255h26l-5 -47h-27l-11 -98h-58l12 98h-114l6 49l146 253h57z" />
    <glyph glyph-name="questiondown" unicode="&#xbf;" horiz-adv-x="324" 
d="M248 407c0 -16 -6 -30 -18 -42s-26 -18 -42 -18c-12.667 0 -23.5 4.5 -32.5 13.5s-13.5 20.167 -13.5 33.5c0 16 6 30 18 42s26 18 42 18c12.667 0 23.5 -4.5 32.5 -13.5s13.5 -20.167 13.5 -33.5zM176 -53h79.0029c-2.66699 -23.333 -5.33398 -42.166 -8.00098 -56.499
s-7.16699 -29.666 -13.5 -45.999s-14.333 -29.166 -24 -38.499s-22.834 -17 -39.501 -23s-36.334 -9 -59.001 -9c-38 0 -64.833 10.167 -80.5 30.5s-23.5 50.166 -23.5 89.499c0 35.333 3.83301 75.666 11.5 120.999s18.834 78.333 33.501 99
c9.33301 13.333 19.333 22.5 30 27.5s25 8.16699 43 9.5l14 116h78l-22 -176c-4 0.666992 -10.333 1 -19 1c-18 0 -32.167 -3.16699 -42.5 -9.5s-18.5 -17.833 -24.5 -34.5c-12.667 -34.667 -19 -81.334 -19 -140.001c0 -40.667 12.333 -61 37 -61
c6 0 11.5 1.16699 16.5 3.5s9 6 12 11s5.66699 10 8 15s4.16602 11.167 5.49902 18.5s2.33301 13.333 3 18s1.5 11 2.5 19s1.5 13 1.5 15z" />
    <glyph glyph-name="Agrave" unicode="&#xc0;" horiz-adv-x="355" 
d="M326 0h-88l-8 130h-131l-40 -130h-86l225 667h69zM120 199l105 -0.000976562c-6.66699 117.333 -10 205.333 -10 264c0 32.667 0.333008 57.334 1 74.001l-11.5 -46.5l-11.5 -46.5c-14 -55.333 -38.333 -137 -73 -245zM274 758.999l-43 -26l-99 107l60 44z" />
    <glyph glyph-name="Aacute" unicode="&#xc1;" horiz-adv-x="355" 
d="M326 0h-88l-8 130h-131l-40 -130h-86l225 667h69zM120 199l105 -0.000976562c-6.66699 117.333 -10 205.333 -10 264c0 32.667 0.333008 57.334 1 74.001l-11.5 -46.5l-11.5 -46.5c-14 -55.333 -38.333 -137 -73 -245zM199 761.999l95 122l66 -39l-115 -112z" />
    <glyph glyph-name="Acircumflex" unicode="&#xc2;" horiz-adv-x="355" 
d="M326 0h-88l-8 130h-131l-40 -130h-86l225 667h69zM120 199l105 -0.000976562c-6.66699 117.333 -10 205.333 -10 264c0 32.667 0.333008 57.334 1 74.001l-11.5 -46.5l-11.5 -46.5c-14 -55.333 -38.333 -137 -73 -245zM343 760.999l-45 -34l-59 74l-72 -74l-41 34
l124 124z" />
    <glyph glyph-name="Atilde" unicode="&#xc3;" horiz-adv-x="355" 
d="M326 0h-88l-8 130h-131l-40 -130h-86l225 667h69zM120 199l105 -0.000976562c-6.66699 117.333 -10 205.333 -10 264c0 32.667 0.333008 57.334 1 74.001l-11.5 -46.5l-11.5 -46.5c-14 -55.333 -38.333 -137 -73 -245zM297 814.999l48.0029 0.000976562
c-6.66699 -58.667 -31.667 -88 -75 -88c-10 0 -23.333 4.66699 -40 14s-29.667 14 -39 14c-14 0 -21 -8 -21 -24h-54c10 58.667 35.667 88 77 88c12.667 0 27.667 -5 45 -15s30 -15 38 -15c5.33301 0 9.16602 1.16699 11.499 3.5s4.16602 6.16602 5.49902 11.499
s2.66602 9 3.99902 11z" />
    <glyph glyph-name="Adieresis" unicode="&#xc4;" horiz-adv-x="355" 
d="M326 0h-88l-8 130h-131l-40 -130h-86l225 667h69zM120 199l105 -0.000976562c-6.66699 117.333 -10 205.333 -10 264c0 32.667 0.333008 57.334 1 74.001l-11.5 -46.5l-11.5 -46.5c-14 -55.333 -38.333 -137 -73 -245zM363 776.999
c0 -15.333 -5.49902 -28.5 -16.499 -39.5s-24.167 -16.5 -39.5 -16.5c-12.667 0 -23.167 4.16699 -31.5 12.5s-12.5 18.833 -12.5 31.5c0 14.667 5.66699 27.667 17 39s24.666 17 39.999 17c12.667 0 23 -4.16699 31 -12.5s12 -18.833 12 -31.5zM217.001 776.999
c0 -15.333 -5.5 -28.5 -16.5 -39.5s-24.167 -16.5 -39.5 -16.5c-12.667 0 -23 4.16699 -31 12.5s-12 18.833 -12 31.5c0 15.333 5.66699 28.5 17 39.5s24.333 16.5 39 16.5c12.667 0 23 -4.16699 31 -12.5s12 -18.833 12 -31.5z" />
    <glyph glyph-name="Aring" unicode="&#xc5;" horiz-adv-x="355" 
d="M326 0h-88l-8 130h-131l-40 -130h-86l225 667h69zM120 199l105 -0.000976562c-6.66699 117.333 -10 205.333 -10 264c0 32.667 0.333008 57.334 1 74.001l-11.5 -46.5l-11.5 -46.5c-14 -55.333 -38.333 -137 -73 -245zM172 798.999c0 24 8.16699 44.167 24.5 60.5
s36.5 24.5 60.5 24.5s44.167 -8.16699 60.5 -24.5s24.5 -36.5 24.5 -60.5s-8.16699 -44.167 -24.5 -60.5s-36.5 -24.5 -60.5 -24.5s-44.167 8.16699 -60.5 24.5s-24.5 36.5 -24.5 60.5zM217 798.999c0 -11.333 3.83301 -20.833 11.5 -28.5s17.167 -11.5 28.5 -11.5
s20.833 3.83301 28.5 11.5s11.5 17.167 11.5 28.5s-3.83301 20.833 -11.5 28.5s-17.167 11.5 -28.5 11.5s-20.833 -3.83301 -28.5 -11.5s-11.5 -17.167 -11.5 -28.5z" />
    <glyph glyph-name="AE" unicode="&#xc6;" horiz-adv-x="503" 
d="M474 0h-228l-10 131h-136l-41 -131h-86l221 667h218l8 -76h-143l19 -212h129l8 -76h-129l22 -227h140zM232 199l-13 151.001c-2.66699 33.333 -4 96.666 -4 189.999c-4 -28 -15.333 -75.667 -34 -143l-60 -198h111z" />
    <glyph glyph-name="Ccedilla" unicode="&#xc7;" horiz-adv-x="332" 
d="M360 656l-9.00293 -80.998c-19.333 11.333 -37.666 17 -54.999 17c-51.333 0 -90 -32.333 -116 -97c-13.333 -32.667 -23.833 -73.834 -31.5 -123.501s-11.5 -94.834 -11.5 -135.501c0 -104.667 33.667 -157 101 -157c18.667 0 36.334 4.33301 53.001 13l-10 -82
c-21.333 -12.667 -45.666 -19 -72.999 -19c-110.667 0 -166 75 -166 225c0 113.333 17.667 215.333 53 306c18 46 43.167 83 75.5 111s71.5 42 117.5 42c28 0 52 -6.33301 72 -19zM243.997 -74.998l-86 -118l-52 26l65 125z" />
    <glyph glyph-name="Egrave" unicode="&#xc8;" horiz-adv-x="316" 
d="M339 667l-9 -76h-146l-26 -212h130l-10 -76h-130l-27 -227h146l-9 -76h-235l81 667h235zM279 759l-43 -26l-99 107l60 44z" />
    <glyph glyph-name="Eacute" unicode="&#xc9;" horiz-adv-x="316" 
d="M339 667l-9 -76h-146l-26 -212h130l-10 -76h-130l-27 -227h146l-9 -76h-235l81 667h235zM179 762l95 122l66 -39l-115 -112z" />
    <glyph glyph-name="Ecircumflex" unicode="&#xca;" horiz-adv-x="316" 
d="M339 667l-9 -76h-146l-26 -212h130l-10 -76h-130l-27 -227h146l-9 -76h-235l81 667h235zM338 761l-45 -34l-59 74l-72 -74l-41 34l124 124z" />
    <glyph glyph-name="Edieresis" unicode="&#xcb;" horiz-adv-x="316" 
d="M339 667l-9 -76h-146l-26 -212h130l-10 -76h-130l-27 -227h146l-9 -76h-235l81 667h235zM348 777c0 -15.333 -5.66602 -28.5 -16.999 -39.5s-24.333 -16.5 -39 -16.5c-12.667 0 -23.167 4.16699 -31.5 12.5s-12.5 18.833 -12.5 31.5c0 14.667 5.66699 27.667 17 39
s24.666 17 39.999 17c12.667 0 23 -4.16699 31 -12.5s12 -18.833 12 -31.5zM202.001 777c0 -15.333 -5.66699 -28.5 -17 -39.5s-24.333 -16.5 -39 -16.5c-12.667 0 -23 4.16699 -31 12.5s-12 18.833 -12 31.5c0 15.333 5.5 28.5 16.5 39.5s24.167 16.5 39.5 16.5
c12.667 0 23 -4.16699 31 -12.5s12 -18.833 12 -31.5z" />
    <glyph glyph-name="Igrave" unicode="&#xcc;" horiz-adv-x="190" 
d="M193 667l-82 -667h-88l81 667h89zM204 759l-43 -26l-99 107l60 44z" />
    <glyph glyph-name="Iacute" unicode="&#xcd;" horiz-adv-x="190" 
d="M193 667l-82 -667h-88l81 667h89zM109 762l95 122l66 -39l-115 -112z" />
    <glyph glyph-name="Icircumflex" unicode="&#xce;" horiz-adv-x="190" 
d="M193 667l-82 -667h-88l81 667h89zM263 761l-45 -34l-59 74l-72 -74l-41 34l124 124z" />
    <glyph glyph-name="Idieresis" unicode="&#xcf;" horiz-adv-x="190" 
d="M193 667l-82 -667h-88l81 667h89zM278 777c0 -15.333 -5.66602 -28.5 -16.999 -39.5s-24.333 -16.5 -39 -16.5c-12.667 0 -23.167 4.16699 -31.5 12.5s-12.5 18.833 -12.5 31.5c0 14.667 5.66699 27.667 17 39s24.666 17 39.999 17c12.667 0 23 -4.16699 31 -12.5
s12 -18.833 12 -31.5zM132.001 777c0 -15.333 -5.66699 -28.5 -17 -39.5s-24.333 -16.5 -39 -16.5c-12.667 0 -23 4.16699 -31 12.5s-12 18.833 -12 31.5c0 15.333 5.5 28.5 16.5 39.5s24.167 16.5 39.5 16.5c12.667 0 23 -4.16699 31 -12.5s12 -18.833 12 -31.5z" />
    <glyph glyph-name="Eth" unicode="&#xd0;" horiz-adv-x="405" 
d="M105 667l108.002 0.00195312c30 0 55 -2.66699 75 -8s38 -17 54 -35c31.333 -34.667 47 -90.334 47 -167.001c0 -97.333 -11 -185 -33 -263c-24.667 -86.667 -62.334 -143.334 -113.001 -170.001c-30.667 -16 -80.334 -24 -149.001 -24h-71l39 320h-50l9 73h50z
M151.002 320.002l-30.001 -241.999c54.667 0 93.334 17.667 116.001 53c18.667 29.333 33.167 78.666 43.5 147.999s15.5 129 15.5 179c0 42.667 -7 75.5 -21 98.5s-41 34.5 -81 34.5h-10l-24 -198h85l-9 -73h-85z" />
    <glyph glyph-name="Ntilde" unicode="&#xd1;" horiz-adv-x="407" 
d="M410 667l-81.001 -667.002h-83l-62 300c-8.66699 40.667 -15.334 78.334 -20.001 113.001c-2 12 -3.83301 29.5 -5.5 52.5s-3.16699 38.833 -4.5 47.5v-16c0 -19.333 -1.33301 -47.666 -4 -84.999c-5.33301 -76.667 -18.666 -214 -39.999 -412h-87l81 667h83l55 -267
c18.667 -92 31.334 -172 38.001 -240v110c0 38.667 3.66699 88 11 148l31 249h88zM330.999 814.998l48.0029 0.000976562c-6.66699 -58.667 -31.667 -88 -75 -88c-10 0 -23.333 4.66699 -40 14s-29.667 14 -39 14c-14 0 -21 -8 -21 -24h-54c10 58.667 35.667 88 77 88
c12.667 0 27.667 -5 45 -15s30 -15 38 -15c5.33301 0 9.16602 1.16699 11.499 3.5s4.16602 6.16602 5.49902 11.499s2.66602 9 3.99902 11z" />
    <glyph glyph-name="Ograve" unicode="&#xd2;" horiz-adv-x="416" 
d="M403 489c0 -117.333 -13.6689 -225.001 -41.002 -323.001c-15.333 -54 -36.666 -96.667 -63.999 -128s-66 -47 -116 -47c-94 0 -141 60 -141 180c0 110.667 10.667 212.334 32 305.001c13.333 60 34.333 108.167 63 144.5s70.334 54.5 125.001 54.5
c94.667 0 142 -62 142 -186zM310.998 494.999c0 12 -0.166016 21.1689 -0.499023 27.502s-1.5 14.833 -3.5 25.5s-4.83301 18.834 -8.5 24.501s-9.5 10.667 -17.5 15s-17.667 6.5 -29 6.5c-34 0 -58.667 -22 -74 -66c-4.66699 -12.667 -8.66699 -25.334 -12 -38.001
s-6.5 -27.834 -9.5 -45.501s-5 -30 -6 -37s-2.83301 -22.333 -5.5 -46s-4 -36.834 -4 -39.501c-7.33301 -60 -11 -109 -11 -147c0 -67.333 19.667 -101 59 -101c23.333 0 40.833 7.66699 52.5 23s21.167 36.666 28.5 63.999c11.333 44.667 20.666 99.334 27.999 164.001
c8.66699 69.333 13 126 13 170zM308.999 759.001l-43 -26l-99 107l60 44z" />
    <glyph glyph-name="Oacute" unicode="&#xd3;" horiz-adv-x="416" 
d="M403 489c0 -117.333 -13.6689 -225.001 -41.002 -323.001c-15.333 -54 -36.666 -96.667 -63.999 -128s-66 -47 -116 -47c-94 0 -141 60 -141 180c0 110.667 10.667 212.334 32 305.001c13.333 60 34.333 108.167 63 144.5s70.334 54.5 125.001 54.5
c94.667 0 142 -62 142 -186zM310.998 494.999c0 12 -0.166016 21.1689 -0.499023 27.502s-1.5 14.833 -3.5 25.5s-4.83301 18.834 -8.5 24.501s-9.5 10.667 -17.5 15s-17.667 6.5 -29 6.5c-34 0 -58.667 -22 -74 -66c-4.66699 -12.667 -8.66699 -25.334 -12 -38.001
s-6.5 -27.834 -9.5 -45.501s-5 -30 -6 -37s-2.83301 -22.333 -5.5 -46s-4 -36.834 -4 -39.501c-7.33301 -60 -11 -109 -11 -147c0 -67.333 19.667 -101 59 -101c23.333 0 40.833 7.66699 52.5 23s21.167 36.666 28.5 63.999c11.333 44.667 20.666 99.334 27.999 164.001
c8.66699 69.333 13 126 13 170zM208.999 762.001l95 122l66 -39l-115 -112z" />
    <glyph glyph-name="Ocircumflex" unicode="&#xd4;" horiz-adv-x="416" 
d="M403 489c0 -117.333 -13.6689 -225.001 -41.002 -323.001c-15.333 -54 -36.666 -96.667 -63.999 -128s-66 -47 -116 -47c-94 0 -141 60 -141 180c0 110.667 10.667 212.334 32 305.001c13.333 60 34.333 108.167 63 144.5s70.334 54.5 125.001 54.5
c94.667 0 142 -62 142 -186zM310.998 494.999c0 12 -0.166016 21.1689 -0.499023 27.502s-1.5 14.833 -3.5 25.5s-4.83301 18.834 -8.5 24.501s-9.5 10.667 -17.5 15s-17.667 6.5 -29 6.5c-34 0 -58.667 -22 -74 -66c-4.66699 -12.667 -8.66699 -25.334 -12 -38.001
s-6.5 -27.834 -9.5 -45.501s-5 -30 -6 -37s-2.83301 -22.333 -5.5 -46s-4 -36.834 -4 -39.501c-7.33301 -60 -11 -109 -11 -147c0 -67.333 19.667 -101 59 -101c23.333 0 40.833 7.66699 52.5 23s21.167 36.666 28.5 63.999c11.333 44.667 20.666 99.334 27.999 164.001
c8.66699 69.333 13 126 13 170zM367.999 761.001l-45 -34l-59 74l-72 -74l-41 34l124 124z" />
    <glyph glyph-name="Otilde" unicode="&#xd5;" horiz-adv-x="416" 
d="M403 489c0 -117.333 -13.6689 -225.001 -41.002 -323.001c-15.333 -54 -36.666 -96.667 -63.999 -128s-66 -47 -116 -47c-94 0 -141 60 -141 180c0 110.667 10.667 212.334 32 305.001c13.333 60 34.333 108.167 63 144.5s70.334 54.5 125.001 54.5
c94.667 0 142 -62 142 -186zM310.998 494.999c0 12 -0.166016 21.1689 -0.499023 27.502s-1.5 14.833 -3.5 25.5s-4.83301 18.834 -8.5 24.501s-9.5 10.667 -17.5 15s-17.667 6.5 -29 6.5c-34 0 -58.667 -22 -74 -66c-4.66699 -12.667 -8.66699 -25.334 -12 -38.001
s-6.5 -27.834 -9.5 -45.501s-5 -30 -6 -37s-2.83301 -22.333 -5.5 -46s-4 -36.834 -4 -39.501c-7.33301 -60 -11 -109 -11 -147c0 -67.333 19.667 -101 59 -101c23.333 0 40.833 7.66699 52.5 23s21.167 36.666 28.5 63.999c11.333 44.667 20.666 99.334 27.999 164.001
c8.66699 69.333 13 126 13 170zM326.999 815.001l48.0029 0.000976562c-6.66699 -58.667 -31.667 -88 -75 -88c-10 0 -23.333 4.66699 -40 14s-29.667 14 -39 14c-14 0 -21 -8 -21 -24h-54c10 58.667 35.667 88 77 88c12.667 0 27.667 -5 45 -15s30 -15 38 -15
c5.33301 0 9.16602 1.16699 11.499 3.5s4.16602 6.16602 5.49902 11.499s2.66602 9 3.99902 11z" />
    <glyph glyph-name="Odieresis" unicode="&#xd6;" horiz-adv-x="416" 
d="M403 489c0 -117.333 -13.6689 -225.001 -41.002 -323.001c-15.333 -54 -36.666 -96.667 -63.999 -128s-66 -47 -116 -47c-94 0 -141 60 -141 180c0 110.667 10.667 212.334 32 305.001c13.333 60 34.333 108.167 63 144.5s70.334 54.5 125.001 54.5
c94.667 0 142 -62 142 -186zM310.998 494.999c0 12 -0.166016 21.1689 -0.499023 27.502s-1.5 14.833 -3.5 25.5s-4.83301 18.834 -8.5 24.501s-9.5 10.667 -17.5 15s-17.667 6.5 -29 6.5c-34 0 -58.667 -22 -74 -66c-4.66699 -12.667 -8.66699 -25.334 -12 -38.001
s-6.5 -27.834 -9.5 -45.501s-5 -30 -6 -37s-2.83301 -22.333 -5.5 -46s-4 -36.834 -4 -39.501c-7.33301 -60 -11 -109 -11 -147c0 -67.333 19.667 -101 59 -101c23.333 0 40.833 7.66699 52.5 23s21.167 36.666 28.5 63.999c11.333 44.667 20.666 99.334 27.999 164.001
c8.66699 69.333 13 126 13 170zM381.999 777.001c0 -15.333 -5.66602 -28.5 -16.999 -39.5s-24.333 -16.5 -39 -16.5c-12.667 0 -23.167 4.16699 -31.5 12.5s-12.5 18.833 -12.5 31.5c0 14.667 5.66699 27.667 17 39s24.666 17 39.999 17c12.667 0 23 -4.16699 31 -12.5
s12 -18.833 12 -31.5zM236 777.001c0 -15.333 -5.66699 -28.5 -17 -39.5s-24.333 -16.5 -39 -16.5c-12.667 0 -23 4.16699 -31 12.5s-12 18.833 -12 31.5c0 15.333 5.5 28.5 16.5 39.5s24.167 16.5 39.5 16.5c12.667 0 23 -4.16699 31 -12.5s12 -18.833 12 -31.5z" />
    <glyph glyph-name="multiply" unicode="&#xd7;" 
d="M390 154l-127 126l-126 -126l-54 53l127 127l-127 127l54 53l126 -126l127 126l54 -53l-127 -127l127 -127z" />
    <glyph glyph-name="Oslash" unicode="&#xd8;" horiz-adv-x="452" 
d="M9 3l56.999 93c-5.33301 34.667 -8 71 -8 109c0 70 7.66699 145.667 23 227c17.333 95.333 44 161 80 197c30.667 30.667 69 46 115 46c52.667 0 89.334 -16.667 110.001 -50l42 64l40 -28l-56 -92c5.33301 -32.667 8 -67.334 8 -104.001
c0 -73.333 -8.33301 -150.666 -25 -231.999c-19.333 -96.667 -46 -162 -80 -196c-31.333 -30.667 -71.333 -46 -120 -46c-47.333 0 -82.333 16.333 -105 49l-41 -68zM148.999 233l178 291.002c0 24 -5 41.667 -15 53s-24.333 17 -43 17s-34.667 -7 -48 -21
c-19.333 -20.667 -36 -69.334 -50 -146.001c-12 -64.667 -19.333 -129.334 -22 -194.001zM324.999 425.002l-175.998 -288c1.33301 -20.667 8 -37 20 -49c9.33301 -9.33301 21.666 -14 36.999 -14c18 0 34 6.33301 48 19c18 16.667 33.333 59 46 127
c13.333 72 21.666 140.333 24.999 205z" />
    <glyph glyph-name="Ugrave" unicode="&#xd9;" horiz-adv-x="403" 
d="M406 667l-59.001 -483.998c-8 -64.667 -24.167 -112.834 -48.5 -144.501s-66.833 -47.5 -127.5 -47.5c-87.333 0 -131 41.667 -131 125c0 11.333 2.33301 38 7 80l57 471h87l-58 -471c-3.33301 -23.333 -5 -44 -5 -62c0 -38.667 19.667 -58 59 -58
c11.333 0 21.333 2.16699 30 6.5s15.334 9 20.001 14s8.66699 12.833 12 23.5s5.5 19.167 6.5 25.5s2.16699 16.166 3.5 29.499c0.666992 3.33301 1 6 1 8l60 484h86zM308.999 759.002l-43 -26l-99 107l60 44z" />
    <glyph glyph-name="Uacute" unicode="&#xda;" horiz-adv-x="403" 
d="M406 667l-59.001 -483.998c-8 -64.667 -24.167 -112.834 -48.5 -144.501s-66.833 -47.5 -127.5 -47.5c-87.333 0 -131 41.667 -131 125c0 11.333 2.33301 38 7 80l57 471h87l-58 -471c-3.33301 -23.333 -5 -44 -5 -62c0 -38.667 19.667 -58 59 -58
c11.333 0 21.333 2.16699 30 6.5s15.334 9 20.001 14s8.66699 12.833 12 23.5s5.5 19.167 6.5 25.5s2.16699 16.166 3.5 29.499c0.666992 3.33301 1 6 1 8l60 484h86zM208.999 762.002l95 122l66 -39l-115 -112z" />
    <glyph glyph-name="Ucircumflex" unicode="&#xdb;" horiz-adv-x="403" 
d="M406 667l-59.001 -483.998c-8 -64.667 -24.167 -112.834 -48.5 -144.501s-66.833 -47.5 -127.5 -47.5c-87.333 0 -131 41.667 -131 125c0 11.333 2.33301 38 7 80l57 471h87l-58 -471c-3.33301 -23.333 -5 -44 -5 -62c0 -38.667 19.667 -58 59 -58
c11.333 0 21.333 2.16699 30 6.5s15.334 9 20.001 14s8.66699 12.833 12 23.5s5.5 19.167 6.5 25.5s2.16699 16.166 3.5 29.499c0.666992 3.33301 1 6 1 8l60 484h86zM367.999 761.002l-45 -34l-59 74l-72 -74l-41 34l124 124z" />
    <glyph glyph-name="Udieresis" unicode="&#xdc;" horiz-adv-x="403" 
d="M406 667l-59.001 -483.998c-8 -64.667 -24.167 -112.834 -48.5 -144.501s-66.833 -47.5 -127.5 -47.5c-87.333 0 -131 41.667 -131 125c0 11.333 2.33301 38 7 80l57 471h87l-58 -471c-3.33301 -23.333 -5 -44 -5 -62c0 -38.667 19.667 -58 59 -58
c11.333 0 21.333 2.16699 30 6.5s15.334 9 20.001 14s8.66699 12.833 12 23.5s5.5 19.167 6.5 25.5s2.16699 16.166 3.5 29.499c0.666992 3.33301 1 6 1 8l60 484h86zM387.999 777.002c0 -15.333 -5.66602 -28.5 -16.999 -39.5s-24.333 -16.5 -39 -16.5
c-12.667 0 -23.167 4.16699 -31.5 12.5s-12.5 18.833 -12.5 31.5c0 14.667 5.66699 27.667 17 39s24.666 17 39.999 17c12.667 0 23 -4.16699 31 -12.5s12 -18.833 12 -31.5zM242 777.002c0 -15.333 -5.66699 -28.5 -17 -39.5s-24.333 -16.5 -39 -16.5
c-12.667 0 -23 4.16699 -31 12.5s-12 18.833 -12 31.5c0 15.333 5.5 28.5 16.5 39.5s24.167 16.5 39.5 16.5c12.667 0 23 -4.16699 31 -12.5s12 -18.833 12 -31.5z" />
    <glyph glyph-name="Yacute" unicode="&#xdd;" horiz-adv-x="336" 
d="M392 667l-161 -380l-35 -287h-89l35 287l-90 380h94l32 -179c4.66699 -26.667 9.66699 -70 15 -130c11.333 41.333 25.333 85.333 42 132l65 177h92zM179 762l95 122l66 -39l-115 -112z" />
    <glyph glyph-name="Thorn" unicode="&#xde;" horiz-adv-x="345" 
d="M181 567h28c50.667 0 86.834 -10.833 108.501 -32.5s32.5 -57.834 32.5 -108.501c0 -49.333 -9.16699 -94.666 -27.5 -135.999s-47.833 -69 -88.5 -83c-20.667 -7.33301 -53.334 -11 -98.001 -11l-24 -196h-89l82 667h89zM145 273h7.99902c24.667 0 43.334 4 56.001 12
c31.333 20 47 60.333 47 121c0 27.333 -5.16699 48.333 -15.5 63s-28.5 22 -54.5 22h-14z" />
    <glyph glyph-name="germandbls" unicode="&#xdf;" horiz-adv-x="361" 
d="M22 0l45.9971 371.998h-50l9 75h50l17 135c6.66699 54.667 21.334 94.667 44.001 120s60.334 38 113.001 38c36.667 0 64.5 -13.667 83.5 -41s28.5 -64.666 28.5 -111.999c0 -64.667 -13.333 -114 -40 -148c-10 -14 -24 -23.667 -42 -29
c22.667 -7.33301 38.334 -18.166 47.001 -32.499s13 -34.166 13 -59.499c0 -88.667 -9.33301 -157.334 -28 -206.001c-10 -40 -25.667 -68.833 -47 -86.5s-52.333 -26.5 -93 -26.5c-14 0 -24.333 0.333008 -31 1l10 76c20 0 34.833 2.83301 44.5 8.5s18.5 17.5 26.5 35.5
s14.333 45.333 19 82s7 67.667 7 93c0 26.667 -5.16699 46.167 -15.5 58.5s-28.5 18.5 -54.5 18.5l9 75c2 -0.666992 5.33301 -1 10 -1c51.333 0 77 41.333 77 124c0 29.333 -2.5 51.5 -7.5 66.5s-15.5 22.5 -31.5 22.5c-10 0 -18.833 -2.16699 -26.5 -6.5
s-13.5 -9.16602 -17.5 -14.499s-7.5 -13.333 -10.5 -24s-5 -18.834 -6 -24.501s-2.16699 -14.167 -3.5 -25.5l-69 -564h-81z" />
    <glyph glyph-name="agrave" unicode="&#xe0;" horiz-adv-x="343" 
d="M324 447l-54.999 -447.001h-81l7 57c-12 -21.333 -24.5 -37.333 -37.5 -48s-30.167 -16 -51.5 -16c-55.333 0 -83 43.333 -83 130c0 30 1.5 60.5 4.5 91.5s8.83301 66.333 17.5 106s23.167 71.834 43.5 96.501s45.166 37 74.499 37c34 0 58.667 -19.333 74 -58l6 51h81z
M224.001 308.999c0 46.667 -12.667 70.001 -38 70.001c-29.333 0 -50 -28.333 -62 -85c-12 -55.333 -18 -107 -18 -155s13.667 -72 41 -72c26 0 45 25.333 57 76c13.333 55.333 20 110.666 20 165.999zM264.001 539l-43 -26l-99 107l60 44z" />
    <glyph glyph-name="aacute" unicode="&#xe1;" horiz-adv-x="343" 
d="M324 447l-54.999 -447.001h-81l7 57c-12 -21.333 -24.5 -37.333 -37.5 -48s-30.167 -16 -51.5 -16c-55.333 0 -83 43.333 -83 130c0 30 1.5 60.5 4.5 91.5s8.83301 66.333 17.5 106s23.167 71.834 43.5 96.501s45.166 37 74.499 37c34 0 58.667 -19.333 74 -58l6 51h81z
M224.001 308.999c0 46.667 -12.667 70.001 -38 70.001c-29.333 0 -50 -28.333 -62 -85c-12 -55.333 -18 -107 -18 -155s13.667 -72 41 -72c26 0 45 25.333 57 76c13.333 55.333 20 110.666 20 165.999zM144.001 542l95 122l66 -39l-115 -112z" />
    <glyph glyph-name="acircumflex" unicode="&#xe2;" horiz-adv-x="343" 
d="M324 447l-54.999 -447.001h-81l7 57c-12 -21.333 -24.5 -37.333 -37.5 -48s-30.167 -16 -51.5 -16c-55.333 0 -83 43.333 -83 130c0 30 1.5 60.5 4.5 91.5s8.83301 66.333 17.5 106s23.167 71.834 43.5 96.501s45.166 37 74.499 37c34 0 58.667 -19.333 74 -58l6 51h81z
M224.001 308.999c0 46.667 -12.667 70.001 -38 70.001c-29.333 0 -50 -28.333 -62 -85c-12 -55.333 -18 -107 -18 -155s13.667 -72 41 -72c26 0 45 25.333 57 76c13.333 55.333 20 110.666 20 165.999zM313.001 547l-45 -34l-59 74l-72 -74l-41 34l124 124z" />
    <glyph glyph-name="atilde" unicode="&#xe3;" horiz-adv-x="343" 
d="M324 447l-54.999 -447.001h-81l7 57c-12 -21.333 -24.5 -37.333 -37.5 -48s-30.167 -16 -51.5 -16c-55.333 0 -83 43.333 -83 130c0 30 1.5 60.5 4.5 91.5s8.83301 66.333 17.5 106s23.167 71.834 43.5 96.501s45.166 37 74.499 37c34 0 58.667 -19.333 74 -58l6 51h81z
M224.001 308.999c0 46.667 -12.667 70.001 -38 70.001c-29.333 0 -50 -28.333 -62 -85c-12 -55.333 -18 -107 -18 -155s13.667 -72 41 -72c26 0 45 25.333 57 76c13.333 55.333 20 110.666 20 165.999zM272.001 601l48.0029 0.000976562
c-6.66699 -58.667 -31.667 -88 -75 -88c-10 0 -23.333 4.66699 -40 14s-29.667 14 -39 14c-14 0 -21 -8 -21 -24h-54c10 58.667 35.667 88 77 88c12.667 0 27.667 -5 45 -15s30 -15 38 -15c5.33301 0 9.16602 1.16699 11.499 3.5s4.16602 6.16602 5.49902 11.499
s2.66602 9 3.99902 11z" />
    <glyph glyph-name="adieresis" unicode="&#xe4;" horiz-adv-x="343" 
d="M324 447l-54.999 -447.001h-81l7 57c-12 -21.333 -24.5 -37.333 -37.5 -48s-30.167 -16 -51.5 -16c-55.333 0 -83 43.333 -83 130c0 30 1.5 60.5 4.5 91.5s8.83301 66.333 17.5 106s23.167 71.834 43.5 96.501s45.166 37 74.499 37c34 0 58.667 -19.333 74 -58l6 51h81z
M224.001 308.999c0 46.667 -12.667 70.001 -38 70.001c-29.333 0 -50 -28.333 -62 -85c-12 -55.333 -18 -107 -18 -155s13.667 -72 41 -72c26 0 45 25.333 57 76c13.333 55.333 20 110.666 20 165.999zM323.001 569c0 -15.333 -5.49902 -28.5 -16.499 -39.5
s-24.167 -16.5 -39.5 -16.5c-12.667 0 -23.167 4.16699 -31.5 12.5s-12.5 18.833 -12.5 31.5c0 14.667 5.66699 27.667 17 39s24.666 17 39.999 17c12.667 0 23 -4.16699 31 -12.5s12 -18.833 12 -31.5zM177.002 569c0 -15.333 -5.5 -28.5 -16.5 -39.5
s-24.167 -16.5 -39.5 -16.5c-12.667 0 -23 4.16699 -31 12.5s-12 18.833 -12 31.5c0 15.333 5.66699 28.5 17 39.5s24.333 16.5 39 16.5c12.667 0 23 -4.16699 31 -12.5s12 -18.833 12 -31.5z" />
    <glyph glyph-name="aring" unicode="&#xe5;" horiz-adv-x="343" 
d="M324 447l-54.999 -447.001h-81l7 57c-12 -21.333 -24.5 -37.333 -37.5 -48s-30.167 -16 -51.5 -16c-55.333 0 -83 43.333 -83 130c0 30 1.5 60.5 4.5 91.5s8.83301 66.333 17.5 106s23.167 71.834 43.5 96.501s45.166 37 74.499 37c34 0 58.667 -19.333 74 -58l6 51h81z
M224.001 308.999c0 46.667 -12.667 70.001 -38 70.001c-29.333 0 -50 -28.333 -62 -85c-12 -55.333 -18 -107 -18 -155s13.667 -72 41 -72c26 0 45 25.333 57 76c13.333 55.333 20 110.666 20 165.999zM118.001 600c0 24 8.16699 44.167 24.5 60.5s36.5 24.5 60.5 24.5
s44.167 -8.16699 60.5 -24.5s24.5 -36.5 24.5 -60.5s-8.16699 -44.167 -24.5 -60.5s-36.5 -24.5 -60.5 -24.5s-44.167 8.16699 -60.5 24.5s-24.5 36.5 -24.5 60.5zM163.001 600c0 -11.333 3.83301 -20.833 11.5 -28.5s17.167 -11.5 28.5 -11.5s20.833 3.83301 28.5 11.5
s11.5 17.167 11.5 28.5s-3.83301 20.833 -11.5 28.5s-17.167 11.5 -28.5 11.5s-20.833 -3.83301 -28.5 -11.5s-11.5 -17.167 -11.5 -28.5z" />
    <glyph glyph-name="ae" unicode="&#xe6;" horiz-adv-x="498" 
d="M66 348l10.0039 84c32 14.667 62.667 22 92 22c50 0 82.333 -19 97 -57c26 38 60 57 102 57c70.667 0 106 -50.333 106 -151c0 -30.667 -2.66699 -63 -8 -97h-182c-2.66699 -22 -4 -46.667 -4 -74c0 -47.333 14.333 -71 43 -71c19.333 0 33.666 9.5 42.999 28.5
s14.666 40.167 15.999 63.5h77c-8 -49.333 -23 -88.333 -45 -117s-55.667 -43 -101 -43c-52 0 -84 23.333 -96 70c-13.333 -24.667 -28 -42.5 -44 -53.5s-37 -16.5 -63 -16.5c-62 0 -93 35.667 -93 107c0 21.333 2.33301 42.5 7 63.5s11.667 41.167 21 60.5
s22.666 34.833 39.999 46.5s37.666 17.5 60.999 17.5c30 0 52 -9.66699 66 -29c0 4 0.666992 12.833 2 26.5s2 24.167 2 31.5c0 38 -20.667 57 -62 57c-27.333 0 -56.333 -8.66699 -87 -26zM293.004 266h97c3.33301 18.667 5 36 5 52c0 45.333 -13 68 -39 68
c-35.333 0 -56.333 -40 -63 -120zM204.004 166c0 38 -14.333 57 -43 57c-22.667 0 -38.667 -10.5 -48 -31.5s-14 -44.5 -14 -70.5c0 -19.333 2.5 -34.5 7.5 -45.5s16.167 -16.5 33.5 -16.5c16 0 29.167 6.5 39.5 19.5s17 26.833 20 41.5s4.5 30 4.5 46z" />
    <glyph glyph-name="ccedilla" unicode="&#xe7;" horiz-adv-x="249" 
d="M252 438l-10.9971 -83.999c-7.33301 14 -20 21 -38 21c-18.667 0 -34.334 -8 -47.001 -24s-21.834 -36.5 -27.501 -61.5s-9.5 -47.333 -11.5 -67s-3 -38.834 -3 -57.501c0 -12 0.5 -22.333 1.5 -31s3 -18.5 6 -29.5s8.16699 -19.333 15.5 -25s17 -8.5 29 -8.5
c14 0 28.333 5.66699 43 17l-10 -77c-22 -12 -44.667 -18 -68 -18c-38.667 0 -66.334 14 -83.001 42s-25 63 -25 105c0 72 10.667 139 32 201c26 75.333 71 113 135 113c22 0 42.667 -5.33301 62 -16zM170.003 -73.999l-89 -117l-35 20l70 126z" />
    <glyph glyph-name="egrave" unicode="&#xe8;" horiz-adv-x="321" 
d="M206 151l76.002 0.000976562c-6 -38 -15.333 -68 -28 -90c-12 -21.333 -28.5 -38 -49.5 -50s-43.833 -18 -68.5 -18c-75.333 0 -113 49.333 -113 148c0 54.667 7.33301 110.667 22 168c25.333 96.667 73.666 145 144.999 145c40 0 68.167 -15 84.5 -45
s24.5 -66.667 24.5 -110c0 -26.667 -2.33301 -57.334 -7 -92.001h-185c-2.66699 -26.667 -4 -46.334 -4 -59.001c0 -11.333 0.333008 -20.333 1 -27s2.16699 -15.167 4.5 -25.5s6.66602 -18.166 12.999 -23.499s14.5 -8 24.5 -8c33.333 0 53.333 29 60 87zM218.002 300.001
l0.000976562 14.9971c0 46 -12.667 69 -38 69c-5.33301 0 -10.166 -0.833008 -14.499 -2.5s-8.33301 -4.5 -12 -8.5s-7 -7.83301 -10 -11.5s-5.83301 -8.66699 -8.5 -15s-4.83398 -11.666 -6.50098 -15.999s-3.33398 -10.333 -5.00098 -18s-3 -13.167 -4 -16.5
s-2.16699 -8.66602 -3.5 -15.999s-2 -11.666 -2 -12.999h103c0.666992 7.33301 1 18.333 1 33zM250.003 538.998l-43 -26l-99 107l60 44z" />
    <glyph glyph-name="eacute" unicode="&#xe9;" horiz-adv-x="321" 
d="M206 151l76.002 0.000976562c-6 -38 -15.333 -68 -28 -90c-12 -21.333 -28.5 -38 -49.5 -50s-43.833 -18 -68.5 -18c-75.333 0 -113 49.333 -113 148c0 54.667 7.33301 110.667 22 168c25.333 96.667 73.666 145 144.999 145c40 0 68.167 -15 84.5 -45
s24.5 -66.667 24.5 -110c0 -26.667 -2.33301 -57.334 -7 -92.001h-185c-2.66699 -26.667 -4 -46.334 -4 -59.001c0 -11.333 0.333008 -20.333 1 -27s2.16699 -15.167 4.5 -25.5s6.66602 -18.166 12.999 -23.499s14.5 -8 24.5 -8c33.333 0 53.333 29 60 87zM218.002 300.001
l0.000976562 14.9971c0 46 -12.667 69 -38 69c-5.33301 0 -10.166 -0.833008 -14.499 -2.5s-8.33301 -4.5 -12 -8.5s-7 -7.83301 -10 -11.5s-5.83301 -8.66699 -8.5 -15s-4.83398 -11.666 -6.50098 -15.999s-3.33398 -10.333 -5.00098 -18s-3 -13.167 -4 -16.5
s-2.16699 -8.66602 -3.5 -15.999s-2 -11.666 -2 -12.999h103c0.666992 7.33301 1 18.333 1 33zM150.003 541.998l95 122l66 -39l-115 -112z" />
    <glyph glyph-name="ecircumflex" unicode="&#xea;" horiz-adv-x="321" 
d="M206 151l76.002 0.000976562c-6 -38 -15.333 -68 -28 -90c-12 -21.333 -28.5 -38 -49.5 -50s-43.833 -18 -68.5 -18c-75.333 0 -113 49.333 -113 148c0 54.667 7.33301 110.667 22 168c25.333 96.667 73.666 145 144.999 145c40 0 68.167 -15 84.5 -45
s24.5 -66.667 24.5 -110c0 -26.667 -2.33301 -57.334 -7 -92.001h-185c-2.66699 -26.667 -4 -46.334 -4 -59.001c0 -11.333 0.333008 -20.333 1 -27s2.16699 -15.167 4.5 -25.5s6.66602 -18.166 12.999 -23.499s14.5 -8 24.5 -8c33.333 0 53.333 29 60 87zM218.002 300.001
l0.000976562 14.9971c0 46 -12.667 69 -38 69c-5.33301 0 -10.166 -0.833008 -14.499 -2.5s-8.33301 -4.5 -12 -8.5s-7 -7.83301 -10 -11.5s-5.83301 -8.66699 -8.5 -15s-4.83398 -11.666 -6.50098 -15.999s-3.33398 -10.333 -5.00098 -18s-3 -13.167 -4 -16.5
s-2.16699 -8.66602 -3.5 -15.999s-2 -11.666 -2 -12.999h103c0.666992 7.33301 1 18.333 1 33zM309.003 546.998l-45 -34l-59 74l-72 -74l-41 34l124 124z" />
    <glyph glyph-name="edieresis" unicode="&#xeb;" horiz-adv-x="321" 
d="M206 151l76.002 0.000976562c-6 -38 -15.333 -68 -28 -90c-12 -21.333 -28.5 -38 -49.5 -50s-43.833 -18 -68.5 -18c-75.333 0 -113 49.333 -113 148c0 54.667 7.33301 110.667 22 168c25.333 96.667 73.666 145 144.999 145c40 0 68.167 -15 84.5 -45
s24.5 -66.667 24.5 -110c0 -26.667 -2.33301 -57.334 -7 -92.001h-185c-2.66699 -26.667 -4 -46.334 -4 -59.001c0 -11.333 0.333008 -20.333 1 -27s2.16699 -15.167 4.5 -25.5s6.66602 -18.166 12.999 -23.499s14.5 -8 24.5 -8c33.333 0 53.333 29 60 87zM218.002 300.001
l0.000976562 14.9971c0 46 -12.667 69 -38 69c-5.33301 0 -10.166 -0.833008 -14.499 -2.5s-8.33301 -4.5 -12 -8.5s-7 -7.83301 -10 -11.5s-5.83301 -8.66699 -8.5 -15s-4.83398 -11.666 -6.50098 -15.999s-3.33398 -10.333 -5.00098 -18s-3 -13.167 -4 -16.5
s-2.16699 -8.66602 -3.5 -15.999s-2 -11.666 -2 -12.999h103c0.666992 7.33301 1 18.333 1 33zM318.003 568.998c0 -15.333 -5.66602 -28.5 -16.999 -39.5s-24.333 -16.5 -39 -16.5c-12.667 0 -23.167 4.16699 -31.5 12.5s-12.5 18.833 -12.5 31.5
c0 14.667 5.66699 27.667 17 39s24.666 17 39.999 17c12.667 0 23 -4.16699 31 -12.5s12 -18.833 12 -31.5zM172.004 568.998c0 -15.333 -5.66699 -28.5 -17 -39.5s-24.333 -16.5 -39 -16.5c-12.667 0 -23 4.16699 -31 12.5s-12 18.833 -12 31.5
c0 15.333 5.5 28.5 16.5 39.5s24.167 16.5 39.5 16.5c12.667 0 23 -4.16699 31 -12.5s12 -18.833 12 -31.5z" />
    <glyph glyph-name="igrave" unicode="&#xec;" horiz-adv-x="173" 
d="M154 447l-55 -447h-81l55 447h81zM171 539l-43 -26l-99 107l60 44z" />
    <glyph glyph-name="iacute" unicode="&#xed;" horiz-adv-x="173" 
d="M154 447l-55 -447h-81l55 447h81zM76 542l95 122l66 -39l-115 -112z" />
    <glyph glyph-name="icircumflex" unicode="&#xee;" horiz-adv-x="173" 
d="M154 447l-55 -447h-81l55 447h81zM228 547l-45 -34l-59 74l-72 -74l-41 34l124 124z" />
    <glyph glyph-name="idieresis" unicode="&#xef;" horiz-adv-x="173" 
d="M154 447l-55 -447h-81l55 447h81zM246 569c0 -15.333 -5.66602 -28.5 -16.999 -39.5s-24.333 -16.5 -39 -16.5c-12.667 0 -23.167 4.16699 -31.5 12.5s-12.5 18.833 -12.5 31.5c0 14.667 5.66699 27.667 17 39s24.666 17 39.999 17c12.667 0 23 -4.16699 31 -12.5
s12 -18.833 12 -31.5zM100.001 569c0 -15.333 -5.66699 -28.5 -17 -39.5s-24.333 -16.5 -39 -16.5c-12.667 0 -23 4.16699 -31 12.5s-12 18.833 -12 31.5c0 15.333 5.5 28.5 16.5 39.5s24.167 16.5 39.5 16.5c12.667 0 23 -4.16699 31 -12.5s12 -18.833 12 -31.5z" />
    <glyph glyph-name="eth" unicode="&#xf0;" horiz-adv-x="336" 
d="M323 679l-75.0029 -51.999c44.667 -68 67 -158 67 -270c0 -48 -4 -99.667 -12 -155s-20.667 -98.333 -38 -129c-30 -53.333 -72 -80 -126 -80c-76.667 0 -115 50 -115 150c0 30.667 2.16699 61.5 6.5 92.5s11.833 63.833 22.5 98.5s27.334 63 50.001 85
s50.334 33 83.001 33c18.667 0 34 -6 46 -18c-7.33301 67.333 -22 117.666 -44 150.999l-74 -51l-40 49l77 53c-15.333 19.333 -34.666 37.333 -57.999 54l47 50c26 -17.333 50 -38 72 -62l72 48zM227.997 313.001c0 43.333 -12.999 64.999 -38.999 64.999
c-22.667 0 -40 -17.667 -52 -53c-7.33301 -21.333 -13.5 -52.166 -18.5 -92.499s-7.5 -73.5 -7.5 -99.5c0 -43.333 13.333 -65 40 -65c23.333 0 40.666 17.667 51.999 53c7.33301 21.333 13.333 51.833 18 91.5s7 73.167 7 100.5z" />
    <glyph glyph-name="ntilde" unicode="&#xf1;" horiz-adv-x="353" 
d="M154 447l-5.99902 -52c27.333 39.333 59.666 59 96.999 59c24.667 0 43.667 -7 57 -21s20 -33.333 20 -58c0 -12.667 -1.33301 -31.667 -4 -57l-39 -318h-82l37 299c0 2.66699 0.333008 6.5 1 11.5s1.16699 9.5 1.5 13.5s0.5 7.66699 0.5 11c0 31.333 -13.333 47 -40 47
c-12 0 -22 -2.66699 -30 -8s-14 -13.5 -18 -24.5s-6.83301 -20.5 -8.5 -28.5s-3.5 -18.667 -5.5 -32l-36 -289h-81l55 447h81zM279.001 601l48.0029 0.000976562c-6.66699 -58.667 -31.667 -88 -75 -88c-10 0 -23.333 4.66699 -40 14s-29.667 14 -39 14
c-14 0 -21 -8 -21 -24h-54c10 58.667 35.667 88 77 88c12.667 0 27.667 -5 45 -15s30 -15 38 -15c5.33301 0 9.16602 1.16699 11.499 3.5s4.16602 6.16602 5.49902 11.499s2.66602 9 3.99902 11z" />
    <glyph glyph-name="ograve" unicode="&#xf2;" horiz-adv-x="336" 
d="M311 306c0 -26 -1.16504 -51.3311 -3.49805 -75.998s-7.16602 -52 -14.499 -82s-17 -55.833 -29 -77.5s-28.833 -40 -50.5 -55s-46.834 -22.5 -75.501 -22.5c-76 0 -114 50.333 -114 151c0 33.333 2.16699 65.666 6.5 96.999s12.166 64.166 23.499 98.499
s29.166 62 53.499 83s53.833 31.5 88.5 31.5c76.667 0 115 -49.333 115 -148zM228.002 314.002c0 43.333 -13.667 65 -41 65c-15.333 0 -28 -7.66699 -38 -23c-12.667 -18.667 -22.334 -51.5 -29.001 -98.5s-10 -87.833 -10 -122.5c0 -43.333 13.333 -65 40 -65
c15.333 0 28.333 8 39 24c12.667 18.667 22.334 51.5 29.001 98.5s10 87.5 10 121.5zM257.002 539.002l-43 -26l-99 107l60 44z" />
    <glyph glyph-name="oacute" unicode="&#xf3;" horiz-adv-x="336" 
d="M311 306c0 -26 -1.16504 -51.3311 -3.49805 -75.998s-7.16602 -52 -14.499 -82s-17 -55.833 -29 -77.5s-28.833 -40 -50.5 -55s-46.834 -22.5 -75.501 -22.5c-76 0 -114 50.333 -114 151c0 33.333 2.16699 65.666 6.5 96.999s12.166 64.166 23.499 98.499
s29.166 62 53.499 83s53.833 31.5 88.5 31.5c76.667 0 115 -49.333 115 -148zM228.002 314.002c0 43.333 -13.667 65 -41 65c-15.333 0 -28 -7.66699 -38 -23c-12.667 -18.667 -22.334 -51.5 -29.001 -98.5s-10 -87.833 -10 -122.5c0 -43.333 13.333 -65 40 -65
c15.333 0 28.333 8 39 24c12.667 18.667 22.334 51.5 29.001 98.5s10 87.5 10 121.5zM157.002 542.002l95 122l66 -39l-115 -112z" />
    <glyph glyph-name="ocircumflex" unicode="&#xf4;" horiz-adv-x="336" 
d="M311 306c0 -26 -1.16504 -51.3311 -3.49805 -75.998s-7.16602 -52 -14.499 -82s-17 -55.833 -29 -77.5s-28.833 -40 -50.5 -55s-46.834 -22.5 -75.501 -22.5c-76 0 -114 50.333 -114 151c0 33.333 2.16699 65.666 6.5 96.999s12.166 64.166 23.499 98.499
s29.166 62 53.499 83s53.833 31.5 88.5 31.5c76.667 0 115 -49.333 115 -148zM228.002 314.002c0 43.333 -13.667 65 -41 65c-15.333 0 -28 -7.66699 -38 -23c-12.667 -18.667 -22.334 -51.5 -29.001 -98.5s-10 -87.833 -10 -122.5c0 -43.333 13.333 -65 40 -65
c15.333 0 28.333 8 39 24c12.667 18.667 22.334 51.5 29.001 98.5s10 87.5 10 121.5zM316.002 547.002l-45 -34l-59 74l-72 -74l-41 34l124 124z" />
    <glyph glyph-name="otilde" unicode="&#xf5;" horiz-adv-x="336" 
d="M311 306c0 -26 -1.16504 -51.3311 -3.49805 -75.998s-7.16602 -52 -14.499 -82s-17 -55.833 -29 -77.5s-28.833 -40 -50.5 -55s-46.834 -22.5 -75.501 -22.5c-76 0 -114 50.333 -114 151c0 33.333 2.16699 65.666 6.5 96.999s12.166 64.166 23.499 98.499
s29.166 62 53.499 83s53.833 31.5 88.5 31.5c76.667 0 115 -49.333 115 -148zM228.002 314.002c0 43.333 -13.667 65 -41 65c-15.333 0 -28 -7.66699 -38 -23c-12.667 -18.667 -22.334 -51.5 -29.001 -98.5s-10 -87.833 -10 -122.5c0 -43.333 13.333 -65 40 -65
c15.333 0 28.333 8 39 24c12.667 18.667 22.334 51.5 29.001 98.5s10 87.5 10 121.5zM275.002 601.002l48.0029 0.000976562c-6.66699 -58.667 -31.667 -88 -75 -88c-10 0 -23.333 4.66699 -40 14s-29.667 14 -39 14c-14 0 -21 -8 -21 -24h-54c10 58.667 35.667 88 77 88
c12.667 0 27.667 -5 45 -15s30 -15 38 -15c5.33301 0 9.16602 1.16699 11.499 3.5s4.16602 6.16602 5.49902 11.499s2.66602 9 3.99902 11z" />
    <glyph glyph-name="odieresis" unicode="&#xf6;" horiz-adv-x="336" 
d="M311 306c0 -26 -1.16504 -51.3311 -3.49805 -75.998s-7.16602 -52 -14.499 -82s-17 -55.833 -29 -77.5s-28.833 -40 -50.5 -55s-46.834 -22.5 -75.501 -22.5c-76 0 -114 50.333 -114 151c0 33.333 2.16699 65.666 6.5 96.999s12.166 64.166 23.499 98.499
s29.166 62 53.499 83s53.833 31.5 88.5 31.5c76.667 0 115 -49.333 115 -148zM228.002 314.002c0 43.333 -13.667 65 -41 65c-15.333 0 -28 -7.66699 -38 -23c-12.667 -18.667 -22.334 -51.5 -29.001 -98.5s-10 -87.833 -10 -122.5c0 -43.333 13.333 -65 40 -65
c15.333 0 28.333 8 39 24c12.667 18.667 22.334 51.5 29.001 98.5s10 87.5 10 121.5zM331.002 569.002c0 -15.333 -5.49902 -28.5 -16.499 -39.5s-24.167 -16.5 -39.5 -16.5c-12.667 0 -23.167 4.16699 -31.5 12.5s-12.5 18.833 -12.5 31.5c0 14.667 5.66699 27.667 17 39
s24.666 17 39.999 17c12.667 0 23 -4.16699 31 -12.5s12 -18.833 12 -31.5zM185.003 569.002c0 -15.333 -5.5 -28.5 -16.5 -39.5s-24.167 -16.5 -39.5 -16.5c-12.667 0 -23 4.16699 -31 12.5s-12 18.833 -12 31.5c0 15.333 5.66699 28.5 17 39.5s24.333 16.5 39 16.5
c12.667 0 23 -4.16699 31 -12.5s12 -18.833 12 -31.5z" />
    <glyph glyph-name="divide" unicode="&#xf7;" 
d="M315 514c0 -14 -5.16699 -26.167 -15.5 -36.5s-22.5 -15.5 -36.5 -15.5s-26.333 5.16699 -37 15.5s-16 22.5 -16 36.5c0 14.667 5.16699 27.167 15.5 37.5s22.833 15.5 37.5 15.5c14 0 26.167 -5.33301 36.5 -16s15.5 -23 15.5 -37zM480 297h-434v74h434v-74zM315 153
c0 -14 -5.16699 -26.167 -15.5 -36.5s-22.5 -15.5 -36.5 -15.5s-26.333 5.16699 -37 15.5s-16 22.5 -16 36.5c0 14.667 5.16699 27.167 15.5 37.5s22.833 15.5 37.5 15.5c14 0 26.167 -5.33301 36.5 -16s15.5 -23 15.5 -37z" />
    <glyph glyph-name="oslash" unicode="&#xf8;" horiz-adv-x="359" 
d="M356 441l-45.998 -64.001c6 -20 9 -43.333 9 -70s-1 -52.167 -3 -76.5s-6.5 -51.666 -13.5 -81.999s-16.333 -56.333 -28 -78s-28.334 -40 -50.001 -55s-47.167 -22.5 -76.5 -22.5c-36 0 -65 12.333 -87 37l-27 -38l-31 22l40 55c-6.66699 22 -10 45.333 -10 70
c0 72 8.66699 135.667 26 191c25.333 82.667 73.666 124 144.999 124c36 0 65 -12.333 87 -37l32 45zM121.002 173.999l112 167c-2.66699 12.667 -6.83398 22.167 -12.501 28.5s-14.167 9.5 -25.5 9.5c-16 0 -29.333 -8.33301 -40 -25c-15.333 -24 -26.666 -84 -33.999 -180
zM234.002 272.999l-113 -168c4 -27.333 16.667 -41 38 -41c33.333 0 55 37.667 65 113c4.66699 28.667 8 60.667 10 96z" />
    <glyph glyph-name="ugrave" unicode="&#xf9;" horiz-adv-x="354" 
d="M335 447l-33.001 -268c-4 -32.667 -8.16699 -58 -12.5 -76s-11.833 -36.833 -22.5 -56.5s-26 -33.667 -46 -42s-45.667 -12.5 -77 -12.5c-74 0 -111 36.667 -111 110c0 10.667 1.33301 27.334 4 50.001l36 295h81l-33 -268c-3.33301 -23.333 -5 -44 -5 -62
c0 -16.667 3.5 -28.5 10.5 -35.5s18.833 -10.5 35.5 -10.5c13.333 0 24 4.33301 32 13s13.167 17.167 15.5 25.5s4.5 20.166 6.5 35.499c2.66699 14 4.33398 25.333 5.00098 34l32 268h82zM258.999 539l-43 -26l-99 107l60 44z" />
    <glyph glyph-name="uacute" unicode="&#xfa;" horiz-adv-x="354" 
d="M335 447l-33.001 -268c-4 -32.667 -8.16699 -58 -12.5 -76s-11.833 -36.833 -22.5 -56.5s-26 -33.667 -46 -42s-45.667 -12.5 -77 -12.5c-74 0 -111 36.667 -111 110c0 10.667 1.33301 27.334 4 50.001l36 295h81l-33 -268c-3.33301 -23.333 -5 -44 -5 -62
c0 -16.667 3.5 -28.5 10.5 -35.5s18.833 -10.5 35.5 -10.5c13.333 0 24 4.33301 32 13s13.167 17.167 15.5 25.5s4.5 20.166 6.5 35.499c2.66699 14 4.33398 25.333 5.00098 34l32 268h82zM165.999 542l95 122l66 -39l-115 -112z" />
    <glyph glyph-name="ucircumflex" unicode="&#xfb;" horiz-adv-x="354" 
d="M335 447l-33.001 -268c-4 -32.667 -8.16699 -58 -12.5 -76s-11.833 -36.833 -22.5 -56.5s-26 -33.667 -46 -42s-45.667 -12.5 -77 -12.5c-74 0 -111 36.667 -111 110c0 10.667 1.33301 27.334 4 50.001l36 295h81l-33 -268c-3.33301 -23.333 -5 -44 -5 -62
c0 -16.667 3.5 -28.5 10.5 -35.5s18.833 -10.5 35.5 -10.5c13.333 0 24 4.33301 32 13s13.167 17.167 15.5 25.5s4.5 20.166 6.5 35.499c2.66699 14 4.33398 25.333 5.00098 34l32 268h82zM324.999 547l-45 -34l-59 74l-72 -74l-41 34l124 124z" />
    <glyph glyph-name="udieresis" unicode="&#xfc;" horiz-adv-x="354" 
d="M335 447l-33.001 -268c-4 -32.667 -8.16699 -58 -12.5 -76s-11.833 -36.833 -22.5 -56.5s-26 -33.667 -46 -42s-45.667 -12.5 -77 -12.5c-74 0 -111 36.667 -111 110c0 10.667 1.33301 27.334 4 50.001l36 295h81l-33 -268c-3.33301 -23.333 -5 -44 -5 -62
c0 -16.667 3.5 -28.5 10.5 -35.5s18.833 -10.5 35.5 -10.5c13.333 0 24 4.33301 32 13s13.167 17.167 15.5 25.5s4.5 20.166 6.5 35.499c2.66699 14 4.33398 25.333 5.00098 34l32 268h82zM333.999 569c0 -15.333 -5.66602 -28.5 -16.999 -39.5s-24.333 -16.5 -39 -16.5
c-12.667 0 -23.167 4.16699 -31.5 12.5s-12.5 18.833 -12.5 31.5c0 14.667 5.66699 27.667 17 39s24.666 17 39.999 17c12.667 0 23 -4.16699 31 -12.5s12 -18.833 12 -31.5zM188 569c0 -15.333 -5.66699 -28.5 -17 -39.5s-24.333 -16.5 -39 -16.5
c-12.667 0 -23 4.16699 -31 12.5s-12 18.833 -12 31.5c0 15.333 5.5 28.5 16.5 39.5s24.167 16.5 39.5 16.5c12.667 0 23 -4.16699 31 -12.5s12 -18.833 12 -31.5z" />
    <glyph glyph-name="yacute" unicode="&#xfd;" horiz-adv-x="322" 
d="M346 447l-259 -635h-85l96 224l-67 411h92l26 -312l114 312h83zM146 542l95 122l66 -39l-115 -112z" />
    <glyph glyph-name="thorn" unicode="&#xfe;" horiz-adv-x="344" 
d="M189 729l-41.001 -340.002c12.667 22 25.334 38.333 38.001 49s30 16 52 16c54.667 0 82 -42 82 -126c0 -30 -1.5 -60.5 -4.5 -91.5s-8.83301 -66.667 -17.5 -107s-23.167 -73.166 -43.5 -98.499s-45.5 -38 -75.5 -38c-20 0 -35.167 4.33301 -45.5 13
s-19.5 23.334 -27.5 44.001l-30 -238h-81l113 917h81zM236.999 311.998c0 44.667 -13.667 67 -41 67c-22 0 -39.667 -20.333 -53 -61c-16 -54.667 -24 -114.667 -24 -180c0 -46.667 13 -70 39 -70c25.333 0 44.333 22.667 57 68c14.667 51.333 22 110 22 176z" />
    <glyph glyph-name="ydieresis" unicode="&#xff;" horiz-adv-x="322" 
d="M346 447l-259 -635h-85l96 224l-67 411h92l26 -312l114 312h83zM318 569c0 -15.333 -5.66602 -28.5 -16.999 -39.5s-24.333 -16.5 -39 -16.5c-12.667 0 -23.167 4.16699 -31.5 12.5s-12.5 18.833 -12.5 31.5c0 14.667 5.66699 27.667 17 39s24.666 17 39.999 17
c12.667 0 23 -4.16699 31 -12.5s12 -18.833 12 -31.5zM172.001 569c0 -15.333 -5.66699 -28.5 -17 -39.5s-24.333 -16.5 -39 -16.5c-12.667 0 -23 4.16699 -31 12.5s-12 18.833 -12 31.5c0 15.333 5.5 28.5 16.5 39.5s24.167 16.5 39.5 16.5c12.667 0 23 -4.16699 31 -12.5
s12 -18.833 12 -31.5z" />
    <glyph glyph-name="Amacron" unicode="&#x100;" horiz-adv-x="355" 
d="M326 0h-88l-8 130h-131l-40 -130h-86l225 667h69zM120 199l105 -0.000976562c-6.66699 117.333 -10 205.333 -10 264c0 32.667 0.333008 57.334 1 74.001l-11.5 -46.5l-11.5 -46.5c-14 -55.333 -38.333 -137 -73 -245zM359 793.999l-8 -62h-221l7 62h222z" />
    <glyph glyph-name="amacron" unicode="&#x101;" horiz-adv-x="343" 
d="M324 447l-54.999 -447.001h-81l7 57c-12 -21.333 -24.5 -37.333 -37.5 -48s-30.167 -16 -51.5 -16c-55.333 0 -83 43.333 -83 130c0 30 1.5 60.5 4.5 91.5s8.83301 66.333 17.5 106s23.167 71.834 43.5 96.501s45.166 37 74.499 37c34 0 58.667 -19.333 74 -58l6 51h81z
M224.001 308.999c0 46.667 -12.667 70.001 -38 70.001c-29.333 0 -50 -28.333 -62 -85c-12 -55.333 -18 -107 -18 -155s13.667 -72 41 -72c26 0 45 25.333 57 76c13.333 55.333 20 110.666 20 165.999zM331.001 586l-8 -62h-221l7 62h222z" />
    <glyph glyph-name="Abreve" unicode="&#x102;" horiz-adv-x="355" 
d="M326 0h-88l-8 130h-131l-40 -130h-86l225 667h69zM120 199l105 -0.000976562c-6.66699 117.333 -10 205.333 -10 264c0 32.667 0.333008 57.334 1 74.001l-11.5 -46.5l-11.5 -46.5c-14 -55.333 -38.333 -137 -73 -245zM314 810.999l54.002 -0.000976562
c-6.66699 -30 -22.334 -53 -47.001 -69s-53.334 -24 -86.001 -24c-32 0 -58.333 7.83301 -79 23.5s-31 38.834 -31 69.501h54c6.66699 -23.333 27.667 -35 63 -35c34.667 0 58.667 11.667 72 35z" />
    <glyph glyph-name="abreve" unicode="&#x103;" horiz-adv-x="343" 
d="M324 447l-54.999 -447.001h-81l7 57c-12 -21.333 -24.5 -37.333 -37.5 -48s-30.167 -16 -51.5 -16c-55.333 0 -83 43.333 -83 130c0 30 1.5 60.5 4.5 91.5s8.83301 66.333 17.5 106s23.167 71.834 43.5 96.501s45.166 37 74.499 37c34 0 58.667 -19.333 74 -58l6 51h81z
M224.001 308.999c0 46.667 -12.667 70.001 -38 70.001c-29.333 0 -50 -28.333 -62 -85c-12 -55.333 -18 -107 -18 -155s13.667 -72 41 -72c26 0 45 25.333 57 76c13.333 55.333 20 110.666 20 165.999zM279.001 606l54.002 -0.000976562
c-6.66699 -30 -22.334 -53 -47.001 -69s-53.334 -24 -86.001 -24c-32 0 -58.333 7.83301 -79 23.5s-31 38.834 -31 69.501h54c6.66699 -23.333 27.667 -35 63 -35c34.667 0 58.667 11.667 72 35z" />
    <glyph glyph-name="Aogonek" unicode="&#x104;" horiz-adv-x="355" 
d="M198 667l69.002 0.000976562l59 -667h-39c-4 -4.66699 -12.333 -16.667 -25 -36c-9.33301 -14.667 -14 -28 -14 -40c0 -10.667 3.33301 -18 10 -22c5.33301 -3.33301 12.666 -5 21.999 -5c16 0 30 2.66699 42 8l-7 -51c-14 -6 -29.333 -9 -46 -9
c-26 0 -45.667 6.33301 -59 19c-10.667 10 -16 23 -16 39c0 17.333 5.33301 35.666 16 54.999c5.33301 9.33301 14.666 23.333 27.999 42l-8 130h-131l-40 -130h-86zM120.002 199.001h105c-3.33301 53.333 -6 110.666 -8 171.999c-1.33301 46.667 -2 79.334 -2 98.001
c0 28 0.333008 50.667 1 68c-16 -64.667 -31.667 -124.667 -47 -180c-12 -41.333 -28.333 -94 -49 -158z" />
    <glyph glyph-name="aogonek" unicode="&#x105;" horiz-adv-x="343" 
d="M324 447l-54.9971 -446.999h-32c-4 -4.66699 -12.333 -16.667 -25 -36c-9.33301 -14.667 -14 -28 -14 -40c0 -10.667 3.33301 -18 10 -22c5.33301 -3.33301 12.666 -5 21.999 -5c16 0 30 2.66699 42 8l-7 -51c-14 -6 -29.333 -9 -46 -9c-26 0 -45.667 6.33301 -59 19
c-10.667 10 -16 23 -16 39c0 17.333 5.33301 35.666 16 54.999c5.33301 9.33301 14.666 23.333 27.999 42l7 57c-9.33301 -18.667 -20.333 -33.334 -33 -44.001c-16.667 -13.333 -35.334 -20 -56.001 -20c-20 0 -36.333 5.66699 -49 17c-22.667 20 -34 57.667 -34 113
c0 52.667 3.33301 99.334 10 140.001c11.333 78 33 132.667 65 164c18 18 39.667 27 65 27c20.667 0 37.667 -6.66699 51 -20c10 -10 17.667 -22.667 23 -38l6 51h81zM186.003 379.001c-12.667 0 -23.001 -3.99902 -31.001 -11.999
c-15.333 -14 -27.666 -48.333 -36.999 -103c-8 -44.667 -12 -85 -12 -121c0 -34 5 -56 15 -66c6.66699 -6.66699 15.334 -10 26.001 -10s19.667 3.66699 27 11c15.333 14 27.666 46.333 36.999 97c8.66699 46.667 13 89.667 13 129c0 31.333 -4.66699 52.666 -14 63.999
c-6.66699 7.33301 -14.667 11 -24 11z" />
    <glyph glyph-name="Cacute" unicode="&#x106;" horiz-adv-x="332" 
d="M360 656l-9.00293 -80.998c-19.333 11.333 -37.666 17 -54.999 17c-51.333 0 -90 -32.333 -116 -97c-13.333 -32.667 -23.833 -73.834 -31.5 -123.501s-11.5 -94.834 -11.5 -135.501c0 -104.667 33.667 -157 101 -157c18.667 0 36.334 4.33301 53.001 13l-10 -82
c-21.333 -12.667 -45.666 -19 -72.999 -19c-110.667 0 -166 75 -166 225c0 113.333 17.667 215.333 53 306c18 46 43.167 83 75.5 111s71.5 42 117.5 42c28 0 52 -6.33301 72 -19zM238.997 762.002l95 122l66 -39l-115 -112z" />
    <glyph glyph-name="cacute" unicode="&#x107;" horiz-adv-x="249" 
d="M252 438l-10.9971 -83.999c-7.33301 14 -20 21 -38 21c-18.667 0 -34.334 -8 -47.001 -24s-21.834 -36.5 -27.501 -61.5s-9.5 -47.333 -11.5 -67s-3 -38.834 -3 -57.501c0 -12 0.5 -22.333 1.5 -31s3 -18.5 6 -29.5s8.16699 -19.333 15.5 -25s17 -8.5 29 -8.5
c14 0 28.333 5.66699 43 17l-10 -77c-22 -12 -44.667 -18 -68 -18c-38.667 0 -66.334 14 -83.001 42s-25 63 -25 105c0 72 10.667 139 32 201c26 75.333 71 113 135 113c22 0 42.667 -5.33301 62 -16zM149.003 542.001l95 122l66 -39l-115 -112z" />
    <glyph glyph-name="Ccircumflex" unicode="&#x108;" horiz-adv-x="332" 
d="M360 656l-9.00293 -80.998c-19.333 11.333 -37.666 17 -54.999 17c-51.333 0 -90 -32.333 -116 -97c-13.333 -32.667 -23.833 -73.834 -31.5 -123.501s-11.5 -94.834 -11.5 -135.501c0 -104.667 33.667 -157 101 -157c18.667 0 36.334 4.33301 53.001 13l-10 -82
c-21.333 -12.667 -45.666 -19 -72.999 -19c-110.667 0 -166 75 -166 225c0 113.333 17.667 215.333 53 306c18 46 43.167 83 75.5 111s71.5 42 117.5 42c28 0 52 -6.33301 72 -19zM397.997 761.002l-45 -34l-59 74l-72 -74l-41 34l124 124z" />
    <glyph glyph-name="ccircumflex" unicode="&#x109;" horiz-adv-x="249" 
d="M252 438l-10.9971 -83.999c-7.33301 14 -20 21 -38 21c-18.667 0 -34.334 -8 -47.001 -24s-21.834 -36.5 -27.501 -61.5s-9.5 -47.333 -11.5 -67s-3 -38.834 -3 -57.501c0 -12 0.5 -22.333 1.5 -31s3 -18.5 6 -29.5s8.16699 -19.333 15.5 -25s17 -8.5 29 -8.5
c14 0 28.333 5.66699 43 17l-10 -77c-22 -12 -44.667 -18 -68 -18c-38.667 0 -66.334 14 -83.001 42s-25 63 -25 105c0 72 10.667 139 32 201c26 75.333 71 113 135 113c22 0 42.667 -5.33301 62 -16zM308.003 547.001l-45 -34l-59 74l-72 -74l-41 34l124 124z" />
    <glyph glyph-name="Cdotaccent" unicode="&#x10a;" horiz-adv-x="332" 
d="M360 656l-9.00293 -80.998c-19.333 11.333 -37.666 17 -54.999 17c-51.333 0 -90 -32.333 -116 -97c-13.333 -32.667 -23.833 -73.834 -31.5 -123.501s-11.5 -94.834 -11.5 -135.501c0 -104.667 33.667 -157 101 -157c18.667 0 36.334 4.33301 53.001 13l-10 -82
c-21.333 -12.667 -45.666 -19 -72.999 -19c-110.667 0 -166 75 -166 225c0 113.333 17.667 215.333 53 306c18 46 43.167 83 75.5 111s71.5 42 117.5 42c28 0 52 -6.33301 72 -19zM350.997 780.002c0 -15.333 -6 -29 -18 -41s-25.667 -18 -41 -18
c-13.333 0 -24.333 4.5 -33 13.5s-13 19.833 -13 32.5c0 15.333 6 29 18 41s25.667 18 41 18c12.667 0 23.5 -4.33301 32.5 -13s13.5 -19.667 13.5 -33z" />
    <glyph glyph-name="cdotaccent" unicode="&#x10b;" horiz-adv-x="249" 
d="M252 438l-10.9971 -83.999c-7.33301 14 -20 21 -38 21c-18.667 0 -34.334 -8 -47.001 -24s-21.834 -36.5 -27.501 -61.5s-9.5 -47.333 -11.5 -67s-3 -38.834 -3 -57.501c0 -12 0.5 -22.333 1.5 -31s3 -18.5 6 -29.5s8.16699 -19.333 15.5 -25s17 -8.5 29 -8.5
c14 0 28.333 5.66699 43 17l-10 -77c-22 -12 -44.667 -18 -68 -18c-38.667 0 -66.334 14 -83.001 42s-25 63 -25 105c0 72 10.667 139 32 201c26 75.333 71 113 135 113c22 0 42.667 -5.33301 62 -16zM253.003 572.001c0 -15.333 -6 -29 -18 -41s-25.667 -18 -41 -18
c-13.333 0 -24.333 4.5 -33 13.5s-13 19.833 -13 32.5c0 15.333 6 29 18 41s25.667 18 41 18c12.667 0 23.5 -4.33301 32.5 -13s13.5 -19.667 13.5 -33z" />
    <glyph glyph-name="Ccaron" unicode="&#x10c;" horiz-adv-x="332" 
d="M360 656l-9.00293 -80.998c-19.333 11.333 -37.666 17 -54.999 17c-51.333 0 -90 -32.333 -116 -97c-13.333 -32.667 -23.833 -73.834 -31.5 -123.501s-11.5 -94.834 -11.5 -135.501c0 -104.667 33.667 -157 101 -157c18.667 0 36.334 4.33301 53.001 13l-10 -82
c-21.333 -12.667 -45.666 -19 -72.999 -19c-110.667 0 -166 75 -166 225c0 113.333 17.667 215.333 53 306c18 46 43.167 83 75.5 111s71.5 42 117.5 42c28 0 52 -6.33301 72 -19zM418.997 851.002l-123 -124l-94 124l49 34l54 -74l77 74z" />
    <glyph glyph-name="ccaron" unicode="&#x10d;" horiz-adv-x="249" 
d="M252 438l-10.9971 -83.999c-7.33301 14 -20 21 -38 21c-18.667 0 -34.334 -8 -47.001 -24s-21.834 -36.5 -27.501 -61.5s-9.5 -47.333 -11.5 -67s-3 -38.834 -3 -57.501c0 -12 0.5 -22.333 1.5 -31s3 -18.5 6 -29.5s8.16699 -19.333 15.5 -25s17 -8.5 29 -8.5
c14 0 28.333 5.66699 43 17l-10 -77c-22 -12 -44.667 -18 -68 -18c-38.667 0 -66.334 14 -83.001 42s-25 63 -25 105c0 72 10.667 139 32 201c26 75.333 71 113 135 113c22 0 42.667 -5.33301 62 -16zM319.003 637.001l-123 -124l-94 124l49 34l54 -74l77 74z" />
    <glyph glyph-name="Dcaron" unicode="&#x10e;" horiz-adv-x="405" 
d="M104 667h109c42 0 73.333 -5.33301 94 -16c54.667 -28 82 -92.667 82 -194c0 -54.667 -5.33301 -115.167 -16 -181.5s-25.667 -119.5 -45 -159.5c-26 -51.333 -62 -85 -108 -101c-28.667 -10 -70.667 -15 -126 -15h-71zM121 78l3 0.000976562
c26 0 47.833 3.83301 65.5 11.5s33.5 21.5 47.5 41.5c19.333 27.333 34 75.666 44 144.999s15 130 15 182c0 46.667 -7.5 80.5 -22.5 101.5s-44.833 31.5 -89.5 31.5zM355 851.001l-123 -124l-94 124l49 34l54 -74l77 74z" />
    <glyph glyph-name="dcaron" unicode="&#x10f;" horiz-adv-x="496" 
d="M359 729l-90.001 -728.997h-81l7 57c-12 -21.333 -24.5 -37.333 -37.5 -48s-30.167 -16 -51.5 -16c-55.333 0 -83 43.333 -83 130c0 23.333 0.666992 46.666 2 69.999s4.83301 51.666 10.5 84.999s13.334 62.166 23.001 86.499s23.5 45.333 41.5 63s39.333 26.5 64 26.5
c20 0 35.167 -4.66699 45.5 -14s19.5 -24 27.5 -44l40 333h82zM223.999 309.003c0 46.667 -12.667 70.001 -38 70.001c-29.333 0 -50 -28.333 -62 -85c-12 -55.333 -18 -107 -18 -155s13.667 -72 41 -72c26 0 45 25.333 57 76c13.333 55.333 20 110.666 20 165.999z
M505.999 667.004l-92 -189l-43 17l67 193z" />
    <glyph glyph-name="Dcroat" unicode="&#x110;" horiz-adv-x="405" 
d="M105 667l108.002 0.00195312c30 0 55 -2.66699 75 -8s38 -17 54 -35c31.333 -34.667 47 -90.334 47 -167.001c0 -97.333 -11 -185 -33 -263c-24.667 -86.667 -62.334 -143.334 -113.001 -170.001c-30.667 -16 -80.334 -24 -149.001 -24h-71l39 320h-50l9 73h50z
M151.002 320.002l-30.001 -241.999c54.667 0 93.334 17.667 116.001 53c18.667 29.333 33.167 78.666 43.5 147.999s15.5 129 15.5 179c0 42.667 -7 75.5 -21 98.5s-41 34.5 -81 34.5h-10l-24 -198h85l-9 -73h-85z" />
    <glyph glyph-name="dcroat" unicode="&#x111;" horiz-adv-x="358" 
d="M234 372l19 149h-106l8 64h106l17 144h82l-19 -144h50l-8 -64h-50l-64 -521h-81l7 57c-8 -18 -19 -33 -33 -45c-16 -12.667 -34 -19 -54 -19c-22 0 -39.667 6.66699 -53 20c-21.333 20.667 -32 59 -32 115c0 54 6 106 18 156c12.667 56 30.667 95.667 54 119
c18 18 39.333 27 64 27c19.333 0 35.333 -5.33301 48 -16c11.333 -10.667 20.333 -24.667 27 -42zM184 354c-12.667 0 -23 -3.99902 -31 -11.999c-12 -12 -22.667 -39.333 -32 -82c-10 -46 -15 -85.667 -15 -119c0 -32.667 5 -54 15 -64c6 -6.66699 14.667 -10 26 -10
s21.333 4.33301 30 13c14 13.333 25 43 33 89c8 52 12 89.667 12 113c0 29.333 -5 49.666 -15 60.999c-7.33301 7.33301 -15 11 -23 11z" />
    <glyph glyph-name="Emacron" unicode="&#x112;" horiz-adv-x="316" 
d="M339 667l-9 -76h-146l-26 -212h130l-10 -76h-130l-27 -227h146l-9 -76h-235l81 667h235zM349 794l-8 -62h-221l7 62h222z" />
    <glyph glyph-name="emacron" unicode="&#x113;" horiz-adv-x="321" 
d="M206 151l76.002 0.000976562c-6 -38 -15.333 -68 -28 -90c-12 -21.333 -28.5 -38 -49.5 -50s-43.833 -18 -68.5 -18c-75.333 0 -113 49.333 -113 148c0 54.667 7.33301 110.667 22 168c25.333 96.667 73.666 145 144.999 145c40 0 68.167 -15 84.5 -45
s24.5 -66.667 24.5 -110c0 -26.667 -2.33301 -57.334 -7 -92.001h-185c-2.66699 -26.667 -4 -46.334 -4 -59.001c0 -11.333 0.333008 -20.333 1 -27s2.16699 -15.167 4.5 -25.5s6.66602 -18.166 12.999 -23.499s14.5 -8 24.5 -8c33.333 0 53.333 29 60 87zM218.002 300.001
l0.000976562 14.9971c0 46 -12.667 69 -38 69c-5.33301 0 -10.166 -0.833008 -14.499 -2.5s-8.33301 -4.5 -12 -8.5s-7 -7.83301 -10 -11.5s-5.83301 -8.66699 -8.5 -15s-4.83398 -11.666 -6.50098 -15.999s-3.33398 -10.333 -5.00098 -18s-3 -13.167 -4 -16.5
s-2.16699 -8.66602 -3.5 -15.999s-2 -11.666 -2 -12.999h103c0.666992 7.33301 1 18.333 1 33zM314.003 585.998l-8 -62h-221l7 62h222z" />
    <glyph glyph-name="Edotaccent" unicode="&#x116;" horiz-adv-x="316" 
d="M339 667l-9 -76h-146l-26 -212h130l-10 -76h-130l-27 -227h146l-9 -76h-235l81 667h235zM283 780c0 -15.333 -6 -29 -18 -41s-25.667 -18 -41 -18c-13.333 0 -24.333 4.5 -33 13.5s-13 19.833 -13 32.5c0 15.333 6 29 18 41s25.667 18 41 18
c12.667 0 23.5 -4.33301 32.5 -13s13.5 -19.667 13.5 -33z" />
    <glyph glyph-name="edotaccent" unicode="&#x117;" horiz-adv-x="321" 
d="M206 151l76.002 0.000976562c-6 -38 -15.333 -68 -28 -90c-12 -21.333 -28.5 -38 -49.5 -50s-43.833 -18 -68.5 -18c-75.333 0 -113 49.333 -113 148c0 54.667 7.33301 110.667 22 168c25.333 96.667 73.666 145 144.999 145c40 0 68.167 -15 84.5 -45
s24.5 -66.667 24.5 -110c0 -26.667 -2.33301 -57.334 -7 -92.001h-185c-2.66699 -26.667 -4 -46.334 -4 -59.001c0 -11.333 0.333008 -20.333 1 -27s2.16699 -15.167 4.5 -25.5s6.66602 -18.166 12.999 -23.499s14.5 -8 24.5 -8c33.333 0 53.333 29 60 87zM218.002 300.001
l0.000976562 14.9971c0 46 -12.667 69 -38 69c-5.33301 0 -10.166 -0.833008 -14.499 -2.5s-8.33301 -4.5 -12 -8.5s-7 -7.83301 -10 -11.5s-5.83301 -8.66699 -8.5 -15s-4.83398 -11.666 -6.50098 -15.999s-3.33398 -10.333 -5.00098 -18s-3 -13.167 -4 -16.5
s-2.16699 -8.66602 -3.5 -15.999s-2 -11.666 -2 -12.999h103c0.666992 7.33301 1 18.333 1 33zM254.003 571.998c0 -15.333 -6 -29 -18 -41s-25.667 -18 -41 -18c-12.667 0 -23.5 4.5 -32.5 13.5s-13.5 19.833 -13.5 32.5c0 15.333 6 29 18 41s25.667 18 41 18
c13.333 0 24.333 -4.33301 33 -13s13 -19.667 13 -33z" />
    <glyph glyph-name="Eogonek" unicode="&#x118;" horiz-adv-x="316" 
d="M339 667l-8.99902 -75.999h-146l-26 -212h130l-10 -76h-130l-27 -227h146l-9 -76h-36c-4 -4.66699 -12.333 -16.667 -25 -36c-9.33301 -14.667 -14 -28 -14 -40c0 -10.667 3.33301 -18 10 -22c4.66699 -3.33301 12 -5 22 -5c16 0 30 2.66699 42 8l-7 -51
c-14 -6 -29.333 -9 -46 -9c-26 0 -45.667 6.33301 -59 19c-10.667 10 -16 23 -16 39c0 17.333 5.33301 35.666 16 54.999c5.33301 9.33301 14.666 23.333 27.999 42h-150l81 667h235z" />
    <glyph glyph-name="eogonek" unicode="&#x119;" horiz-adv-x="321" 
d="M206 151h76.001c-6 -44.667 -21 -84.334 -45 -119.001c-7.33301 -10.667 -16.166 -22.667 -26.499 -36s-17.833 -24 -22.5 -32c-9.33301 -17.333 -14 -30.666 -14 -39.999c0 -10.667 3.33301 -18 10 -22c5.33301 -3.33301 12.666 -5 21.999 -5c16 0 30 2.66699 42 8
l-7 -51c-14 -6 -29.333 -9 -46 -9c-26 0 -45.667 6.33301 -59 19c-10.667 10 -16 23 -16 39c0 17.333 5.33301 35.666 16 54.999c9.33301 15.333 18 27.666 26 36.999c-46 -6.66699 -80.333 2 -103 26c-24 24 -36 64.667 -36 122c0 50.667 6.33301 102.334 19 155.001
c14 56.667 34.667 97.667 62 123c24 22 52.667 33 86 33c31.333 0 56 -10.333 74 -31c33.333 -38 43.666 -102.333 30.999 -193l-3 -23h-185c-2.66699 -13.333 -4 -32.666 -4 -57.999c0 -37.333 5.33301 -62 16 -74c6.66699 -7.33301 16 -11 28 -11s22.333 4.33301 31 13
c14.667 13.333 24 38 28 74zM114.001 267l103.001 0.00195312c4 57.333 0 92.666 -12 105.999c-5.33301 7.33301 -13 11 -23 11c-12 0 -22 -4 -30 -12c-10.667 -10.667 -19.334 -27.334 -26.001 -50.001c-2 -6 -6 -24.333 -12 -55z" />
    <glyph glyph-name="Ecaron" unicode="&#x11a;" horiz-adv-x="316" 
d="M339 667l-9 -76h-146l-26 -212h130l-10 -76h-130l-27 -227h146l-9 -76h-235l81 667h235zM349 851l-123 -124l-94 124l49 34l54 -74l77 74z" />
    <glyph glyph-name="ecaron" unicode="&#x11b;" horiz-adv-x="321" 
d="M206 151l76.002 0.000976562c-6 -38 -15.333 -68 -28 -90c-12 -21.333 -28.5 -38 -49.5 -50s-43.833 -18 -68.5 -18c-75.333 0 -113 49.333 -113 148c0 54.667 7.33301 110.667 22 168c25.333 96.667 73.666 145 144.999 145c40 0 68.167 -15 84.5 -45
s24.5 -66.667 24.5 -110c0 -26.667 -2.33301 -57.334 -7 -92.001h-185c-2.66699 -26.667 -4 -46.334 -4 -59.001c0 -11.333 0.333008 -20.333 1 -27s2.16699 -15.167 4.5 -25.5s6.66602 -18.166 12.999 -23.499s14.5 -8 24.5 -8c33.333 0 53.333 29 60 87zM218.002 300.001
l0.000976562 14.9971c0 46 -12.667 69 -38 69c-5.33301 0 -10.166 -0.833008 -14.499 -2.5s-8.33301 -4.5 -12 -8.5s-7 -7.83301 -10 -11.5s-5.83301 -8.66699 -8.5 -15s-4.83398 -11.666 -6.50098 -15.999s-3.33398 -10.333 -5.00098 -18s-3 -13.167 -4 -16.5
s-2.16699 -8.66602 -3.5 -15.999s-2 -11.666 -2 -12.999h103c0.666992 7.33301 1 18.333 1 33zM320.003 636.998l-123 -124l-94 124l49 34l54 -74l77 74z" />
    <glyph glyph-name="Gcircumflex" unicode="&#x11c;" horiz-adv-x="406" 
d="M402 539l-87.0049 -35c-1.33301 18.667 -3.16602 33.5 -5.49902 44.5s-8.33301 21.667 -18 32s-23.167 15.5 -40.5 15.5c-20 0 -35.333 -6.16699 -46 -18.5s-19.667 -29.5 -27 -51.5c-14 -40.667 -25.5 -96.5 -34.5 -167.5s-13.5 -131.833 -13.5 -182.5
c0 -16 0.333008 -28.167 1 -36.5s2.83398 -18.333 6.50098 -30s9.83398 -20.334 18.501 -26.001s20.334 -8.5 35.001 -8.5c43.333 0 71.666 35.333 84.999 106c6 26 10.667 57.333 14 94h-76l9 76h161c-0.666992 -4.66699 -2.16699 -18.334 -4.5 -41.001
s-4 -38.334 -5 -47.001s-3.33301 -24.167 -7 -46.5s-7 -38.666 -10 -48.999l-13.5 -44.5c-6 -19.333 -12.333 -33.833 -19 -43.5l-24.5 -34.5c-9.66699 -13.333 -20.167 -23.166 -31.5 -29.499s-24.5 -12 -39.5 -17s-31.167 -7.5 -48.5 -7.5
c-29.333 0 -53.833 5.33301 -73.5 16s-34.167 26.167 -43.5 46.5s-15.666 41 -18.999 62s-5 45.833 -5 74.5c0 78 9.33301 163 28 255c5.33301 26.667 10.5 49.334 15.5 68.001s12.667 39 23 61s22 39.833 35 53.5s29.833 25 50.5 34s44.334 13.5 71.001 13.5
c44 0 76.5 -11.333 97.5 -34s34.833 -56.667 41.5 -102zM377.995 761l-45 -34l-59 74l-72 -74l-41 34l124 124z" />
    <glyph glyph-name="gcircumflex" unicode="&#x11d;" horiz-adv-x="344" 
d="M325 447l-57.002 -461.003c-5.33301 -46.667 -13 -80.667 -23 -102c-23.333 -48 -67.666 -72 -132.999 -72c-36 0 -63.833 9.16699 -83.5 27.5s-29.5 45.5 -29.5 81.5c0 10.667 1 21.334 3 32.001h79c-1.33301 -9.33301 -2 -16.333 -2 -21
c0 -15.333 4 -27.666 12 -36.999s19.333 -14 34 -14c12 0 22 2.5 30 7.5s13.833 12.5 17.5 22.5s6.33398 18.833 8.00098 26.5s3.16699 17.834 4.5 30.501l10 87c-22 -41.333 -51 -62 -87 -62c-31.333 0 -53.5 12.5 -66.5 37.5s-19.5 55.167 -19.5 90.5
c0 75.333 10 149 30 221c22 74.667 59.333 112 112 112c19.333 0 34.333 -5.16699 45 -15.5s20 -25.5 28 -45.5l6 54h82zM222.998 300.997c0 52 -13.667 78 -41 78c-15.333 0 -28.333 -10 -39 -30s-18.334 -44.667 -23.001 -74s-8 -55.333 -10 -78s-3 -42 -3 -58
c0 -48 14 -72 42 -72c20 0 34.667 12 44 36c8.66699 20.667 15.834 51.667 21.501 93s8.5 76.333 8.5 105zM313.998 546.997l-45 -34l-59 74l-72 -74l-41 34l124 124z" />
    <glyph glyph-name="Gbreve" unicode="&#x11e;" horiz-adv-x="406" 
d="M402 539l-87.0049 -35c-1.33301 18.667 -3.16602 33.5 -5.49902 44.5s-8.33301 21.667 -18 32s-23.167 15.5 -40.5 15.5c-20 0 -35.333 -6.16699 -46 -18.5s-19.667 -29.5 -27 -51.5c-14 -40.667 -25.5 -96.5 -34.5 -167.5s-13.5 -131.833 -13.5 -182.5
c0 -16 0.333008 -28.167 1 -36.5s2.83398 -18.333 6.50098 -30s9.83398 -20.334 18.501 -26.001s20.334 -8.5 35.001 -8.5c43.333 0 71.666 35.333 84.999 106c6 26 10.667 57.333 14 94h-76l9 76h161c-0.666992 -4.66699 -2.16699 -18.334 -4.5 -41.001
s-4 -38.334 -5 -47.001s-3.33301 -24.167 -7 -46.5s-7 -38.666 -10 -48.999l-13.5 -44.5c-6 -19.333 -12.333 -33.833 -19 -43.5l-24.5 -34.5c-9.66699 -13.333 -20.167 -23.166 -31.5 -29.499s-24.5 -12 -39.5 -17s-31.167 -7.5 -48.5 -7.5
c-29.333 0 -53.833 5.33301 -73.5 16s-34.167 26.167 -43.5 46.5s-15.666 41 -18.999 62s-5 45.833 -5 74.5c0 78 9.33301 163 28 255c5.33301 26.667 10.5 49.334 15.5 68.001s12.667 39 23 61s22 39.833 35 53.5s29.833 25 50.5 34s44.334 13.5 71.001 13.5
c44 0 76.5 -11.333 97.5 -34s34.833 -56.667 41.5 -102zM343.995 811l54.002 -0.000976562c-6.66699 -30 -22.334 -53 -47.001 -69s-53.334 -24 -86.001 -24c-32 0 -58.333 7.83301 -79 23.5s-31 38.834 -31 69.501h54c6.66699 -23.333 27.667 -35 63 -35
c34.667 0 58.667 11.667 72 35z" />
    <glyph glyph-name="gbreve" unicode="&#x11f;" horiz-adv-x="344" 
d="M325 447l-57.002 -461.003c-5.33301 -46.667 -13 -80.667 -23 -102c-23.333 -48 -67.666 -72 -132.999 -72c-36 0 -63.833 9.16699 -83.5 27.5s-29.5 45.5 -29.5 81.5c0 10.667 1 21.334 3 32.001h79c-1.33301 -9.33301 -2 -16.333 -2 -21
c0 -15.333 4 -27.666 12 -36.999s19.333 -14 34 -14c12 0 22 2.5 30 7.5s13.833 12.5 17.5 22.5s6.33398 18.833 8.00098 26.5s3.16699 17.834 4.5 30.501l10 87c-22 -41.333 -51 -62 -87 -62c-31.333 0 -53.5 12.5 -66.5 37.5s-19.5 55.167 -19.5 90.5
c0 75.333 10 149 30 221c22 74.667 59.333 112 112 112c19.333 0 34.333 -5.16699 45 -15.5s20 -25.5 28 -45.5l6 54h82zM222.998 300.997c0 52 -13.667 78 -41 78c-15.333 0 -28.333 -10 -39 -30s-18.334 -44.667 -23.001 -74s-8 -55.333 -10 -78s-3 -42 -3 -58
c0 -48 14 -72 42 -72c20 0 34.667 12 44 36c8.66699 20.667 15.834 51.667 21.501 93s8.5 76.333 8.5 105zM279.998 605.997l54.002 -0.000976562c-6.66699 -30 -22.334 -53 -47.001 -69s-53.334 -24 -86.001 -24c-32 0 -58.333 7.83301 -79 23.5s-31 38.834 -31 69.501h54
c6.66699 -23.333 27.667 -35 63 -35c34.667 0 58.667 11.667 72 35z" />
    <glyph glyph-name="Gdotaccent" unicode="&#x120;" horiz-adv-x="406" 
d="M402 539l-87.0049 -35c-1.33301 18.667 -3.16602 33.5 -5.49902 44.5s-8.33301 21.667 -18 32s-23.167 15.5 -40.5 15.5c-20 0 -35.333 -6.16699 -46 -18.5s-19.667 -29.5 -27 -51.5c-14 -40.667 -25.5 -96.5 -34.5 -167.5s-13.5 -131.833 -13.5 -182.5
c0 -16 0.333008 -28.167 1 -36.5s2.83398 -18.333 6.50098 -30s9.83398 -20.334 18.501 -26.001s20.334 -8.5 35.001 -8.5c43.333 0 71.666 35.333 84.999 106c6 26 10.667 57.333 14 94h-76l9 76h161c-0.666992 -4.66699 -2.16699 -18.334 -4.5 -41.001
s-4 -38.334 -5 -47.001s-3.33301 -24.167 -7 -46.5s-7 -38.666 -10 -48.999l-13.5 -44.5c-6 -19.333 -12.333 -33.833 -19 -43.5l-24.5 -34.5c-9.66699 -13.333 -20.167 -23.166 -31.5 -29.499s-24.5 -12 -39.5 -17s-31.167 -7.5 -48.5 -7.5
c-29.333 0 -53.833 5.33301 -73.5 16s-34.167 26.167 -43.5 46.5s-15.666 41 -18.999 62s-5 45.833 -5 74.5c0 78 9.33301 163 28 255c5.33301 26.667 10.5 49.334 15.5 68.001s12.667 39 23 61s22 39.833 35 53.5s29.833 25 50.5 34s44.334 13.5 71.001 13.5
c44 0 76.5 -11.333 97.5 -34s34.833 -56.667 41.5 -102zM326.995 780c0 -15.333 -6 -29 -18 -41s-25.667 -18 -41 -18c-13.333 0 -24.333 4.5 -33 13.5s-13 19.833 -13 32.5c0 15.333 6 29 18 41s25.667 18 41 18c12.667 0 23.5 -4.33301 32.5 -13s13.5 -19.667 13.5 -33z
" />
    <glyph glyph-name="gdotaccent" unicode="&#x121;" horiz-adv-x="344" 
d="M325 447l-57.002 -461.003c-5.33301 -46.667 -13 -80.667 -23 -102c-23.333 -48 -67.666 -72 -132.999 -72c-36 0 -63.833 9.16699 -83.5 27.5s-29.5 45.5 -29.5 81.5c0 10.667 1 21.334 3 32.001h79c-1.33301 -9.33301 -2 -16.333 -2 -21
c0 -15.333 4 -27.666 12 -36.999s19.333 -14 34 -14c12 0 22 2.5 30 7.5s13.833 12.5 17.5 22.5s6.33398 18.833 8.00098 26.5s3.16699 17.834 4.5 30.501l10 87c-22 -41.333 -51 -62 -87 -62c-31.333 0 -53.5 12.5 -66.5 37.5s-19.5 55.167 -19.5 90.5
c0 75.333 10 149 30 221c22 74.667 59.333 112 112 112c19.333 0 34.333 -5.16699 45 -15.5s20 -25.5 28 -45.5l6 54h82zM222.998 300.997c0 52 -13.667 78 -41 78c-15.333 0 -28.333 -10 -39 -30s-18.334 -44.667 -23.001 -74s-8 -55.333 -10 -78s-3 -42 -3 -58
c0 -48 14 -72 42 -72c20 0 34.667 12 44 36c8.66699 20.667 15.834 51.667 21.501 93s8.5 76.333 8.5 105zM234.998 571.997c0 -15.333 -6 -29 -18 -41s-25.667 -18 -41 -18c-13.333 0 -24.333 4.5 -33 13.5s-13 19.833 -13 32.5c0 15.333 6 29 18 41s25.667 18 41 18
c12.667 0 23.5 -4.33301 32.5 -13s13.5 -19.667 13.5 -33z" />
    <glyph glyph-name="Gcommaaccent" unicode="&#x122;" horiz-adv-x="406" 
d="M402 539l-87.0049 -35c-1.33301 18.667 -3.16602 33.5 -5.49902 44.5s-8.33301 21.667 -18 32s-23.167 15.5 -40.5 15.5c-20 0 -35.333 -6.16699 -46 -18.5s-19.667 -29.5 -27 -51.5c-14 -40.667 -25.5 -96.5 -34.5 -167.5s-13.5 -131.833 -13.5 -182.5
c0 -16 0.333008 -28.167 1 -36.5s2.83398 -18.333 6.50098 -30s9.83398 -20.334 18.501 -26.001s20.334 -8.5 35.001 -8.5c43.333 0 71.666 35.333 84.999 106c6 26 10.667 57.333 14 94h-76l9 76h161c-0.666992 -4.66699 -2.16699 -18.334 -4.5 -41.001
s-4 -38.334 -5 -47.001s-3.33301 -24.167 -7 -46.5s-7 -38.666 -10 -48.999l-13.5 -44.5c-6 -19.333 -12.333 -33.833 -19 -43.5l-24.5 -34.5c-9.66699 -13.333 -20.167 -23.166 -31.5 -29.499s-24.5 -12 -39.5 -17s-31.167 -7.5 -48.5 -7.5
c-29.333 0 -53.833 5.33301 -73.5 16s-34.167 26.167 -43.5 46.5s-15.666 41 -18.999 62s-5 45.833 -5 74.5c0 78 9.33301 163 28 255c5.33301 26.667 10.5 49.334 15.5 68.001s12.667 39 23 61s22 39.833 35 53.5s29.833 25 50.5 34s44.334 13.5 71.001 13.5
c44 0 76.5 -11.333 97.5 -34s34.833 -56.667 41.5 -102zM219.995 -69l-73 -154l-43 13l48 162z" />
    <glyph glyph-name="gcommaaccent" unicode="&#x123;" horiz-adv-x="344" 
d="M325 447l-57.002 -461.003c-5.33301 -46.667 -13 -80.667 -23 -102c-23.333 -48 -67.666 -72 -132.999 -72c-36 0 -63.833 9.16699 -83.5 27.5s-29.5 45.5 -29.5 81.5c0 10.667 1 21.334 3 32.001h79c-1.33301 -9.33301 -2 -16.333 -2 -21
c0 -15.333 4 -27.666 12 -36.999s19.333 -14 34 -14c12 0 22 2.5 30 7.5s13.833 12.5 17.5 22.5s6.33398 18.833 8.00098 26.5s3.16699 17.834 4.5 30.501l10 87c-22 -41.333 -51 -62 -87 -62c-31.333 0 -53.5 12.5 -66.5 37.5s-19.5 55.167 -19.5 90.5
c0 75.333 10 149 30 221c22 74.667 59.333 112 112 112c19.333 0 34.333 -5.16699 45 -15.5s20 -25.5 28 -45.5l6 54h82zM222.998 300.997c0 52 -13.667 78 -41 78c-15.333 0 -28.333 -10 -39 -30s-18.334 -44.667 -23.001 -74s-8 -55.333 -10 -78s-3 -42 -3 -58
c0 -48 14 -72 42 -72c20 0 34.667 12 44 36c8.66699 20.667 15.834 51.667 21.501 93s8.5 76.333 8.5 105zM141.998 507.997l79 165l43 -13l-54 -173z" />
    <glyph glyph-name="Hcircumflex" unicode="&#x124;" horiz-adv-x="408" 
d="M411 667l-82 -667h-88l40 330h-129l-41 -330h-88l81 667h89l-32 -261h129l32 261h89zM378 761l-45 -34l-59 74l-72 -74l-41 34l124 124z" />
    <glyph glyph-name="hcircumflex" unicode="&#x125;" horiz-adv-x="353" 
d="M189 729l-40.999 -334c27.333 39.333 59.666 59 96.999 59c24.667 0 43.667 -7 57 -21s20 -33.333 20 -58c0 -12.667 -1.33301 -31.667 -4 -57l-39 -318h-82l37 299c0 2.66699 0.333008 6.5 1 11.5s1.16699 9.5 1.5 13.5s0.5 7.66699 0.5 11c0 31.333 -13.333 47 -40 47
c-12 0 -22 -2.66699 -30 -8s-14 -13.5 -18 -24.5s-6.83301 -20.5 -8.5 -28.5s-3.5 -18.667 -5.5 -32l-36 -289h-81l90 729h81zM263.001 797l-45 -34l-59 74l-72 -74l-41 34l124 124z" />
    <glyph glyph-name="Hbar" unicode="&#x126;" horiz-adv-x="408" 
d="M329 0h-90l41 330h-128l-41 -330h-90l67 550h-48l8 64h48l7 53h90l-7 -53h128l7 53h90l-6 -53h48l-8 -64h-48zM307 550h-128l-18 -144h128z" />
    <glyph glyph-name="hbar" unicode="&#x127;" horiz-adv-x="359" 
d="M24 0l62.001 521h-50l8 64h50l19 144h81l-17 -144h106l-8 -64h-106l-18 -151c27.333 39.333 59.666 59 96.999 59c24.667 0 43.667 -7 57 -21s20 -33.333 20 -58c0 -12.667 -1.33301 -31.667 -4 -57l-36 -293h-82l34 275c0 2.66699 0.333008 6.5 1 11.5
s1.16699 9.5 1.5 13.5s0.5 7.66699 0.5 11c0 31.333 -13.333 47 -40 47c-12 0 -22 -2.66699 -30 -8s-14 -13.5 -18 -24.5s-6.83301 -20.5 -8.5 -28.5s-3.5 -18.667 -5.5 -32l-33 -265h-81z" />
    <glyph glyph-name="Imacron" unicode="&#x12a;" horiz-adv-x="190" 
d="M193 667l-82 -667h-88l81 667h89zM274 794l-8 -62h-221l7 62h222z" />
    <glyph glyph-name="imacron" unicode="&#x12b;" horiz-adv-x="173" 
d="M154 447l-55 -447h-81l55 447h81zM239 586l-8 -62h-221l7 62h222z" />
    <glyph glyph-name="Iogonek" unicode="&#x12e;" horiz-adv-x="190" 
d="M193 667l-82.002 -667c-1.33301 -1.33301 -11.666 -13.333 -30.999 -36c-10.667 -12 -16 -25.333 -16 -40c0 -10 3.33301 -17.333 10 -22c5.33301 -3.33301 11.333 -5 18 -5c15.333 0 29.333 2.66699 42 8l-7 -51c-13.333 -6 -28.666 -9 -45.999 -9
c-22.667 0 -41 6.33301 -55 19c-10.667 10 -16 23 -16 39c0 18 6 36.333 18 55c8 13.333 19.333 27.333 34 42h-39l81 667h89z" />
    <glyph glyph-name="iogonek" unicode="&#x12f;" horiz-adv-x="173" 
d="M182 587c0 -16.667 -6.33398 -31.168 -19.001 -43.501s-27.334 -18.5 -44.001 -18.5c-13.333 0 -24.666 4.83301 -33.999 14.5s-14 21.167 -14 34.5c0 16.667 6.33301 31.334 19 44.001s27.334 19 44.001 19c14 0 25.5 -4.83301 34.5 -14.5s13.5 -21.5 13.5 -35.5z
M133.999 -95.001l-6.99805 -50.999c-14 -6 -29.333 -9 -46 -9c-26 0 -45.667 6.33301 -59 19c-10.667 10 -16 23 -16 39c0 17.333 5.33301 35.666 16 54.999c5.33301 9.33301 14.666 23.333 27.999 42h-32l55 447h81l-55 -447c-4 -4.66699 -12.333 -16.667 -25 -36
c-9.33301 -14.667 -14 -28 -14 -40c0 -10.667 3.33301 -18 10 -22c5.33301 -3.33301 12.666 -5 21.999 -5c16 0 30 2.66699 42 8z" />
    <glyph glyph-name="Idotaccent" unicode="&#x130;" horiz-adv-x="190" 
d="M193 667l-82 -667h-88l81 667h89zM213 780c0 -15.333 -6 -29 -18 -41s-25.667 -18 -41 -18c-13.333 0 -24.333 4.5 -33 13.5s-13 19.833 -13 32.5c0 15.333 6 29 18 41s25.667 18 41 18c12.667 0 23.5 -4.33301 32.5 -13s13.5 -19.667 13.5 -33z" />
    <glyph glyph-name="dotlessi" unicode="&#x131;" horiz-adv-x="173" 
d="M154 447l-55 -447h-81l55 447h81z" />
    <glyph glyph-name="Jcircumflex" unicode="&#x134;" horiz-adv-x="255" 
d="M258 667l-62.999 -512c-5.33301 -39.333 -12 -68 -20 -86c-11.333 -25.333 -28.666 -44.666 -51.999 -57.999s-49.666 -20 -78.999 -20c-28.667 0 -53 6 -73 18l11 90c24 -15.333 42.667 -23 56 -23c14 0 25.667 2.83301 35 8.5s16.166 13.667 20.499 24
s7.66602 20.666 9.99902 30.999s4.16602 22.166 5.49902 35.499c0.666992 4.66699 1 8.33398 1 11.001l59 481h89zM328.001 761l-45 -34l-59 74l-72 -74l-41 34l124 124z" />
    <glyph glyph-name="jcircumflex" unicode="&#x135;" horiz-adv-x="174" 
d="M155 447l-78 -635h-82l79 635h81zM228 547l-45 -34l-59 74l-72 -74l-41 34l124 124z" />
    <glyph glyph-name="Kcommaaccent" unicode="&#x136;" horiz-adv-x="366" 
d="M405 667l-174 -325l95 -342h-92l-84 327l-39 -327h-88l81 667h89l-38 -306l158 306h92zM215 -69l-73 -154l-43 13l48 162z" />
    <glyph glyph-name="kcommaaccent" unicode="&#x137;" horiz-adv-x="341" 
d="M349 447l-142 -207l102 -240h-92l-90 222l-28 -222h-81l90 729h81l-58 -473l124 191h94zM195 -69l-79 -165l-43 13l54 173z" />
    <glyph glyph-name="Lacute" unicode="&#x139;" horiz-adv-x="288" 
d="M265 76l-9 -76h-233l81 667h89l-72 -591h144zM119 762l95 122l66 -39l-115 -112z" />
    <glyph glyph-name="lacute" unicode="&#x13a;" horiz-adv-x="172" 
d="M188 729l-89 -729h-81l89 729h81zM109 792l95 122l66 -39l-115 -112z" />
    <glyph glyph-name="Lcommaaccent" unicode="&#x13b;" horiz-adv-x="288" 
d="M265 76l-9 -76h-233l81 667h89l-72 -591h144zM180 -69l-73 -154l-43 13l48 162z" />
    <glyph glyph-name="lcommaaccent" unicode="&#x13c;" horiz-adv-x="172" 
d="M188 729l-89 -729h-81l89 729h81zM100 -69l-79 -165l-43 13l54 173z" />
    <glyph glyph-name="Lcaron" unicode="&#x13d;" horiz-adv-x="366" 
d="M265 76l-9 -76h-233l81 667h89l-72 -591h144zM376 667l-94 -189l-43 13l69 197z" />
    <glyph glyph-name="lcaron" unicode="&#x13e;" horiz-adv-x="326" 
d="M188 729l-89 -729h-81l89 729h81zM336 667l-92 -189l-43 17l67 193z" />
    <glyph glyph-name="Ldot" unicode="&#x13f;" horiz-adv-x="288" 
d="M265 76l-9 -76h-233l81 667h89l-72 -591h144zM306 341c0 -15.333 -6 -29 -18 -41s-25.667 -18 -41 -18c-12.667 0 -23.5 4.33301 -32.5 13s-13.5 19.667 -13.5 33c0 15.333 6 29 18 41s25.667 18 41 18c13.333 0 24.333 -4.5 33 -13.5s13 -19.833 13 -32.5z" />
    <glyph glyph-name="ldot" unicode="&#x140;" horiz-adv-x="276" 
d="M188 729l-89 -729h-81l89 729h81zM296 372c0 -15.333 -6 -29 -18 -41s-25.667 -18 -41 -18c-12.667 0 -23.5 4.5 -32.5 13.5s-13.5 19.833 -13.5 32.5c0 15.333 6 29 18 41s25.667 18 41 18c13.333 0 24.333 -4.33301 33 -13s13 -19.667 13 -33z" />
    <glyph glyph-name="Lslash" unicode="&#x141;" horiz-adv-x="288" 
d="M265 76l-9 -76h-233l31 257l-55 -41l11 89l55 42l39 320h89l-34 -277l105 75l-11 -90l-105 -74l-27 -225h144z" />
    <glyph glyph-name="lslash" unicode="&#x142;" horiz-adv-x="187" 
d="M215 480l-11 -86l-55 -45l-43 -349h-81l37 307l-55 -43l11 86l55 43l41 336h81l-36 -294z" />
    <glyph glyph-name="Nacute" unicode="&#x143;" horiz-adv-x="407" 
d="M410 667l-81.001 -667.002h-83l-62 300c-8.66699 40.667 -15.334 78.334 -20.001 113.001c-2 12 -3.83301 29.5 -5.5 52.5s-3.16699 38.833 -4.5 47.5v-16c0 -19.333 -1.33301 -47.666 -4 -84.999c-5.33301 -76.667 -18.666 -214 -39.999 -412h-87l81 667h83l55 -267
c18.667 -92 31.334 -172 38.001 -240v110c0 38.667 3.66699 88 11 148l31 249h88zM213.999 761.998l95 122l66 -39l-115 -112z" />
    <glyph glyph-name="nacute" unicode="&#x144;" horiz-adv-x="353" 
d="M154 447l-5.99902 -52c27.333 39.333 59.666 59 96.999 59c24.667 0 43.667 -7 57 -21s20 -33.333 20 -58c0 -12.667 -1.33301 -31.667 -4 -57l-39 -318h-82l37 299c0 2.66699 0.333008 6.5 1 11.5s1.16699 9.5 1.5 13.5s0.5 7.66699 0.5 11c0 31.333 -13.333 47 -40 47
c-12 0 -22 -2.66699 -30 -8s-14 -13.5 -18 -24.5s-6.83301 -20.5 -8.5 -28.5s-3.5 -18.667 -5.5 -32l-36 -289h-81l55 447h81zM154.001 542l95 122l66 -39l-115 -112z" />
    <glyph glyph-name="Ncommaaccent" unicode="&#x145;" horiz-adv-x="407" 
d="M410 667l-81.001 -667.002h-83l-62 300c-8.66699 40.667 -15.334 78.334 -20.001 113.001c-2 12 -3.83301 29.5 -5.5 52.5s-3.16699 38.833 -4.5 47.5v-16c0 -19.333 -1.33301 -47.666 -4 -84.999c-5.33301 -76.667 -18.666 -214 -39.999 -412h-87l81 667h83l55 -267
c18.667 -92 31.334 -172 38.001 -240v110c0 38.667 3.66699 88 11 148l31 249h88zM214.999 -69.002l-73 -154l-43 13l48 162z" />
    <glyph glyph-name="ncommaaccent" unicode="&#x146;" horiz-adv-x="353" 
d="M154 447l-5.99902 -52c27.333 39.333 59.666 59 96.999 59c24.667 0 43.667 -7 57 -21s20 -33.333 20 -58c0 -12.667 -1.33301 -31.667 -4 -57l-39 -318h-82l37 299c0 2.66699 0.333008 6.5 1 11.5s1.16699 9.5 1.5 13.5s0.5 7.66699 0.5 11c0 31.333 -13.333 47 -40 47
c-12 0 -22 -2.66699 -30 -8s-14 -13.5 -18 -24.5s-6.83301 -20.5 -8.5 -28.5s-3.5 -18.667 -5.5 -32l-36 -289h-81l55 447h81zM187.001 -69l-79 -165l-43 13l54 173z" />
    <glyph glyph-name="Ncaron" unicode="&#x147;" horiz-adv-x="407" 
d="M410 667l-81.001 -667.002h-83l-62 300c-8.66699 40.667 -15.334 78.334 -20.001 113.001c-2 12 -3.83301 29.5 -5.5 52.5s-3.16699 38.833 -4.5 47.5v-16c0 -19.333 -1.33301 -47.666 -4 -84.999c-5.33301 -76.667 -18.666 -214 -39.999 -412h-87l81 667h83l55 -267
c18.667 -92 31.334 -172 38.001 -240v110c0 38.667 3.66699 88 11 148l31 249h88zM382.999 850.998l-123 -124l-94 124l49 34l54 -74l77 74z" />
    <glyph glyph-name="ncaron" unicode="&#x148;" horiz-adv-x="353" 
d="M154 447l-5.99902 -52c27.333 39.333 59.666 59 96.999 59c24.667 0 43.667 -7 57 -21s20 -33.333 20 -58c0 -12.667 -1.33301 -31.667 -4 -57l-39 -318h-82l37 299c0 2.66699 0.333008 6.5 1 11.5s1.16699 9.5 1.5 13.5s0.5 7.66699 0.5 11c0 31.333 -13.333 47 -40 47
c-12 0 -22 -2.66699 -30 -8s-14 -13.5 -18 -24.5s-6.83301 -20.5 -8.5 -28.5s-3.5 -18.667 -5.5 -32l-36 -289h-81l55 447h81zM344.001 637l-123 -124l-94 124l49 34l54 -74l77 74z" />
    <glyph glyph-name="Omacron" unicode="&#x14c;" horiz-adv-x="416" 
d="M403 489c0 -117.333 -13.6689 -225.001 -41.002 -323.001c-15.333 -54 -36.666 -96.667 -63.999 -128s-66 -47 -116 -47c-94 0 -141 60 -141 180c0 110.667 10.667 212.334 32 305.001c13.333 60 34.333 108.167 63 144.5s70.334 54.5 125.001 54.5
c94.667 0 142 -62 142 -186zM310.998 494.999c0 12 -0.166016 21.1689 -0.499023 27.502s-1.5 14.833 -3.5 25.5s-4.83301 18.834 -8.5 24.501s-9.5 10.667 -17.5 15s-17.667 6.5 -29 6.5c-34 0 -58.667 -22 -74 -66c-4.66699 -12.667 -8.66699 -25.334 -12 -38.001
s-6.5 -27.834 -9.5 -45.501s-5 -30 -6 -37s-2.83301 -22.333 -5.5 -46s-4 -36.834 -4 -39.501c-7.33301 -60 -11 -109 -11 -147c0 -67.333 19.667 -101 59 -101c23.333 0 40.833 7.66699 52.5 23s21.167 36.666 28.5 63.999c11.333 44.667 20.666 99.334 27.999 164.001
c8.66699 69.333 13 126 13 170zM388.999 794.001l-8 -62h-221l7 62h222z" />
    <glyph glyph-name="omacron" unicode="&#x14d;" horiz-adv-x="336" 
d="M311 306c0 -26 -1.16504 -51.3311 -3.49805 -75.998s-7.16602 -52 -14.499 -82s-17 -55.833 -29 -77.5s-28.833 -40 -50.5 -55s-46.834 -22.5 -75.501 -22.5c-76 0 -114 50.333 -114 151c0 33.333 2.16699 65.666 6.5 96.999s12.166 64.166 23.499 98.499
s29.166 62 53.499 83s53.833 31.5 88.5 31.5c76.667 0 115 -49.333 115 -148zM228.002 314.002c0 43.333 -13.667 65 -41 65c-15.333 0 -28 -7.66699 -38 -23c-12.667 -18.667 -22.334 -51.5 -29.001 -98.5s-10 -87.833 -10 -122.5c0 -43.333 13.333 -65 40 -65
c15.333 0 28.333 8 39 24c12.667 18.667 22.334 51.5 29.001 98.5s10 87.5 10 121.5zM327.002 586.002l-8 -62h-221l7 62h222z" />
    <glyph glyph-name="Obreve" unicode="&#x14e;" horiz-adv-x="416" 
d="M403 489c0 -117.333 -13.6689 -225.001 -41.002 -323.001c-15.333 -54 -36.666 -96.667 -63.999 -128s-66 -47 -116 -47c-94 0 -141 60 -141 180c0 110.667 10.667 212.334 32 305.001c13.333 60 34.333 108.167 63 144.5s70.334 54.5 125.001 54.5
c94.667 0 142 -62 142 -186zM310.998 494.999c0 12 -0.166016 21.1689 -0.499023 27.502s-1.5 14.833 -3.5 25.5s-4.83301 18.834 -8.5 24.501s-9.5 10.667 -17.5 15s-17.667 6.5 -29 6.5c-34 0 -58.667 -22 -74 -66c-4.66699 -12.667 -8.66699 -25.334 -12 -38.001
s-6.5 -27.834 -9.5 -45.501s-5 -30 -6 -37s-2.83301 -22.333 -5.5 -46s-4 -36.834 -4 -39.501c-7.33301 -60 -11 -109 -11 -147c0 -67.333 19.667 -101 59 -101c23.333 0 40.833 7.66699 52.5 23s21.167 36.666 28.5 63.999c11.333 44.667 20.666 99.334 27.999 164.001
c8.66699 69.333 13 126 13 170zM337.999 811.001l54.002 -0.000976562c-6.66699 -30 -22.334 -53 -47.001 -69s-53.334 -24 -86.001 -24c-32 0 -58.333 7.83301 -79 23.5s-31 38.834 -31 69.501h54c6.66699 -23.333 27.667 -35 63 -35c34.667 0 58.667 11.667 72 35z" />
    <glyph glyph-name="obreve" unicode="&#x14f;" horiz-adv-x="336" 
d="M311 306c0 -26 -1.16504 -51.3311 -3.49805 -75.998s-7.16602 -52 -14.499 -82s-17 -55.833 -29 -77.5s-28.833 -40 -50.5 -55s-46.834 -22.5 -75.501 -22.5c-76 0 -114 50.333 -114 151c0 33.333 2.16699 65.666 6.5 96.999s12.166 64.166 23.499 98.499
s29.166 62 53.499 83s53.833 31.5 88.5 31.5c76.667 0 115 -49.333 115 -148zM228.002 314.002c0 43.333 -13.667 65 -41 65c-15.333 0 -28 -7.66699 -38 -23c-12.667 -18.667 -22.334 -51.5 -29.001 -98.5s-10 -87.833 -10 -122.5c0 -43.333 13.333 -65 40 -65
c15.333 0 28.333 8 39 24c12.667 18.667 22.334 51.5 29.001 98.5s10 87.5 10 121.5zM282.002 606.002l54.002 -0.000976562c-6.66699 -30 -22.334 -53 -47.001 -69s-53.334 -24 -86.001 -24c-32 0 -58.333 7.83301 -79 23.5s-31 38.834 -31 69.501h54
c6.66699 -23.333 27.667 -35 63 -35c34.667 0 58.667 11.667 72 35z" />
    <glyph glyph-name="Ohungarumlaut" unicode="&#x150;" horiz-adv-x="416" 
d="M403 489c0 -117.333 -13.6689 -225.001 -41.002 -323.001c-15.333 -54 -36.666 -96.667 -63.999 -128s-66 -47 -116 -47c-94 0 -141 60 -141 180c0 110.667 10.667 212.334 32 305.001c13.333 60 34.333 108.167 63 144.5s70.334 54.5 125.001 54.5
c94.667 0 142 -62 142 -186zM310.998 494.999c0 12 -0.166016 21.1689 -0.499023 27.502s-1.5 14.833 -3.5 25.5s-4.83301 18.834 -8.5 24.501s-9.5 10.667 -17.5 15s-17.667 6.5 -29 6.5c-34 0 -58.667 -22 -74 -66c-4.66699 -12.667 -8.66699 -25.334 -12 -38.001
s-6.5 -27.834 -9.5 -45.501s-5 -30 -6 -37s-2.83301 -22.333 -5.5 -46s-4 -36.834 -4 -39.501c-7.33301 -60 -11 -109 -11 -147c0 -67.333 19.667 -101 59 -101c23.333 0 40.833 7.66699 52.5 23s21.167 36.666 28.5 63.999c11.333 44.667 20.666 99.334 27.999 164.001
c8.66699 69.333 13 126 13 170zM409.999 852.001l-92 -126l-36 21l77 138zM297.999 852.001l-91 -126l-37 21l77 138z" />
    <glyph glyph-name="ohungarumlaut" unicode="&#x151;" horiz-adv-x="336" 
d="M311 306c0 -26 -1.16504 -51.3311 -3.49805 -75.998s-7.16602 -52 -14.499 -82s-17 -55.833 -29 -77.5s-28.833 -40 -50.5 -55s-46.834 -22.5 -75.501 -22.5c-76 0 -114 50.333 -114 151c0 33.333 2.16699 65.666 6.5 96.999s12.166 64.166 23.499 98.499
s29.166 62 53.499 83s53.833 31.5 88.5 31.5c76.667 0 115 -49.333 115 -148zM228.002 314.002c0 43.333 -13.667 65 -41 65c-15.333 0 -28 -7.66699 -38 -23c-12.667 -18.667 -22.334 -51.5 -29.001 -98.5s-10 -87.833 -10 -122.5c0 -43.333 13.333 -65 40 -65
c15.333 0 28.333 8 39 24c12.667 18.667 22.334 51.5 29.001 98.5s10 87.5 10 121.5zM348.002 638.002l-92 -126l-36 21l77 138zM236.002 638.002l-91 -126l-37 21l77 138z" />
    <glyph glyph-name="OE" unicode="&#x152;" horiz-adv-x="555" 
d="M567 667l-9 -76.001h-145l-26 -212h133l-9 -76h-133l-28 -227h149l-9 -76h-228l6 52c-26.667 -40.667 -62 -61 -106 -61c-82 0 -123 65 -123 195c0 88.667 11.333 183.334 34 284.001c6 26.667 12.667 50.5 20 71.5s17.5 42.5 30.5 64.5s29.667 39 50 51
s43.833 18 70.5 18c45.333 0 75 -20 89 -60l6 52h228zM312 491.999c0 14.667 -0.5 26.333 -1.5 35s-3 19.167 -6 31.5s-8.83301 21.666 -17.5 27.999s-19.667 9.5 -33 9.5c-34.667 0 -61 -28 -79 -84c-30 -95.333 -45 -203.333 -45 -324c0 -76.667 20 -115 60 -115
c34.667 0 60.334 26 77.001 78c4.66699 14 8.66699 29.5 12 46.5s5.83301 31.167 7.5 42.5s3.66699 27.833 6 49.5s4.16602 36.5 5.49902 44.5c9.33301 80.667 14 133.334 14 158.001z" />
    <glyph glyph-name="oe" unicode="&#x153;" horiz-adv-x="516" 
d="M400 151h74.998c-7.33301 -45.333 -23.166 -83 -47.499 -113s-57.833 -45 -100.5 -45c-22.667 0 -40.667 4.83301 -54 14.5s-25 25.167 -35 46.5c-22.667 -40.667 -57 -61 -103 -61c-73.333 0 -110 51.667 -110 155c0 32.667 2.16699 64.5 6.5 95.5s12 63.5 23 97.5
s28.5 61.333 52.5 82s53.333 31 88 31c45.333 0 74.333 -20 87 -60c22.667 40 56.667 60 102 60c38.667 0 66.167 -14.167 82.5 -42.5s24.5 -63.5 24.5 -105.5c0 -27.333 -2.33301 -60.333 -7 -99h-186c0 -4.66699 -0.333008 -11 -1 -19s-1.16699 -15.167 -1.5 -21.5
s-0.5 -12.5 -0.5 -18.5c0 -56 14.333 -84 43 -84c32.667 0 53.334 29 62.001 87zM306.998 264l100.001 0.00195312c2.66699 21.333 4 37.666 4 48.999c0 48 -13.333 72 -40 72c-12.667 0 -23.334 -3.83301 -32.001 -11.5s-15.167 -19.834 -19.5 -36.501s-7 -28.5 -8 -35.5
s-2.5 -19.5 -4.5 -37.5zM225.999 300.002c0 52.667 -13.333 79 -40 79c-18 0 -32.667 -11 -44 -33c-10.667 -20.667 -19 -51.167 -25 -91.5s-9 -76.5 -9 -108.5c0 -52.667 13.333 -79 40 -79c16 0 29.5 9.5 40.5 28.5s19 42.667 24 71s8.5 53.5 10.5 75.5s3 41.333 3 58z
" />
    <glyph glyph-name="Racute" unicode="&#x154;" horiz-adv-x="367" 
d="M104 667l117.001 -0.00195312c47.333 0 81.333 -11 102 -33s31 -57 31 -105c0 -28 -3.5 -55.667 -10.5 -83s-20.333 -53.166 -40 -77.499s-43.834 -39.166 -72.501 -44.499l90 -324h-90l-82 311l-38 -311h-88zM184.001 592.998l-27.001 -222.001
c29.333 0 51.333 5.33301 66 16c28.667 21.333 43 63 43 125c0 28.667 -4.66699 49.334 -14 62.001s-27.666 19 -54.999 19h-13zM189 761.997l95 122l66 -39l-115 -112z" />
    <glyph glyph-name="racute" unicode="&#x155;" horiz-adv-x="233" 
d="M251 457l-11.001 -86c-3.33301 0.666992 -8 1 -14 1c-31.333 0 -53.666 -8.5 -66.999 -25.5s-22 -42.167 -26 -75.5l-34 -271h-81l55 447h81l-7 -56c16 22 31.167 38 45.5 48s33.833 16 58.5 18zM128.999 542l95 122l66 -39l-115 -112z" />
    <glyph glyph-name="Rcommaaccent" unicode="&#x156;" horiz-adv-x="367" 
d="M104 667l117.001 -0.00195312c47.333 0 81.333 -11 102 -33s31 -57 31 -105c0 -28 -3.5 -55.667 -10.5 -83s-20.333 -53.166 -40 -77.499s-43.834 -39.166 -72.501 -44.499l90 -324h-90l-82 311l-38 -311h-88zM184.001 592.998l-27.001 -222.001
c29.333 0 51.333 5.33301 66 16c28.667 21.333 43 63 43 125c0 28.667 -4.66699 49.334 -14 62.001s-27.666 19 -54.999 19h-13zM215 -69.0029l-73 -154l-43 13l48 162z" />
    <glyph glyph-name="rcommaaccent" unicode="&#x157;" horiz-adv-x="233" 
d="M251 457l-11.001 -86c-3.33301 0.666992 -8 1 -14 1c-31.333 0 -53.666 -8.5 -66.999 -25.5s-22 -42.167 -26 -75.5l-34 -271h-81l55 447h81l-7 -56c16 22 31.167 38 45.5 48s33.833 16 58.5 18zM144.999 -69l-79 -165l-43 13l54 173z" />
    <glyph glyph-name="Rcaron" unicode="&#x158;" horiz-adv-x="367" 
d="M104 667l117.001 -0.00195312c47.333 0 81.333 -11 102 -33s31 -57 31 -105c0 -28 -3.5 -55.667 -10.5 -83s-20.333 -53.166 -40 -77.499s-43.834 -39.166 -72.501 -44.499l90 -324h-90l-82 311l-38 -311h-88zM184.001 592.998l-27.001 -222.001
c29.333 0 51.333 5.33301 66 16c28.667 21.333 43 63 43 125c0 28.667 -4.66699 49.334 -14 62.001s-27.666 19 -54.999 19h-13zM359 850.997l-123 -124l-94 124l49 34l54 -74l77 74z" />
    <glyph glyph-name="rcaron" unicode="&#x159;" horiz-adv-x="233" 
d="M251 457l-11.001 -86c-3.33301 0.666992 -8 1 -14 1c-31.333 0 -53.666 -8.5 -66.999 -25.5s-22 -42.167 -26 -75.5l-34 -271h-81l55 447h81l-7 -56c16 22 31.167 38 45.5 48s33.833 16 58.5 18zM303.999 637l-123 -124l-94 124l49 34l54 -74l77 74z" />
    <glyph glyph-name="Sacute" unicode="&#x15a;" horiz-adv-x="325" 
d="M322 653l-11.999 -87.999c-21.333 20 -44 30 -68 30c-27.333 0 -49.333 -10.333 -66 -31s-25 -45 -25 -73c0 -18.667 5 -37 15 -55s22 -34.833 36 -50.5l42 -49c14 -17 26 -37.5 36 -61.5s15 -49.667 15 -77c0 -54.667 -16 -102.834 -48 -144.501
s-74.667 -62.5 -128 -62.5c-36.667 0 -67.667 10.667 -93 32l11 89c28 -23.333 55 -35 81 -35c28 0 50 10.833 66 32.5s24 47.167 24 76.5c0 20.667 -5 40.5 -15 59.5s-22 36.167 -36 51.5l-42.5 47c-14.333 16 -26.5 35.333 -36.5 58s-15 47 -15 73
c0 54.667 15.167 101.667 45.5 141s72.166 59 125.499 59c34 0 63.333 -7.33301 88 -22zM189.001 762.001l95 122l66 -39l-115 -112z" />
    <glyph glyph-name="sacute" unicode="&#x15b;" horiz-adv-x="256" 
d="M242 438l-9.99707 -77.001c-19.333 14.667 -39 22 -59 22c-15.333 0 -29 -5.5 -41 -16.5s-18 -24.167 -18 -39.5c0 -11.333 3.83301 -22.333 11.5 -33s17 -20.5 28 -29.5s22 -18.667 33 -29s20.333 -23.166 28 -38.499s11.5 -32.666 11.5 -51.999
c0 -42.667 -13.5 -78.667 -40.5 -108s-61.5 -44 -103.5 -44c-25.333 0 -48.333 7 -69 21l10 80c21.333 -18 42.666 -27 63.999 -27c19.333 0 34.666 6 45.999 18s17 27.667 17 47c0 14.667 -6 29 -18 43s-25 26.333 -39 37s-27 25.167 -39 43.5s-18 38.166 -18 59.499
c0 40 12.667 73.667 38 101s58 41 98 41c25.333 0 48.666 -6.33301 69.999 -19zM134.003 541.999l95 122l66 -39l-115 -112z" />
    <glyph glyph-name="Scircumflex" unicode="&#x15c;" horiz-adv-x="325" 
d="M322 653l-11.999 -87.999c-21.333 20 -44 30 -68 30c-27.333 0 -49.333 -10.333 -66 -31s-25 -45 -25 -73c0 -18.667 5 -37 15 -55s22 -34.833 36 -50.5l42 -49c14 -17 26 -37.5 36 -61.5s15 -49.667 15 -77c0 -54.667 -16 -102.834 -48 -144.501
s-74.667 -62.5 -128 -62.5c-36.667 0 -67.667 10.667 -93 32l11 89c28 -23.333 55 -35 81 -35c28 0 50 10.833 66 32.5s24 47.167 24 76.5c0 20.667 -5 40.5 -15 59.5s-22 36.167 -36 51.5l-42.5 47c-14.333 16 -26.5 35.333 -36.5 58s-15 47 -15 73
c0 54.667 15.167 101.667 45.5 141s72.166 59 125.499 59c34 0 63.333 -7.33301 88 -22zM348.001 761.001l-45 -34l-59 74l-72 -74l-41 34l124 124z" />
    <glyph glyph-name="scircumflex" unicode="&#x15d;" horiz-adv-x="256" 
d="M242 438l-9.99707 -77.001c-19.333 14.667 -39 22 -59 22c-15.333 0 -29 -5.5 -41 -16.5s-18 -24.167 -18 -39.5c0 -11.333 3.83301 -22.333 11.5 -33s17 -20.5 28 -29.5s22 -18.667 33 -29s20.333 -23.166 28 -38.499s11.5 -32.666 11.5 -51.999
c0 -42.667 -13.5 -78.667 -40.5 -108s-61.5 -44 -103.5 -44c-25.333 0 -48.333 7 -69 21l10 80c21.333 -18 42.666 -27 63.999 -27c19.333 0 34.666 6 45.999 18s17 27.667 17 47c0 14.667 -6 29 -18 43s-25 26.333 -39 37s-27 25.167 -39 43.5s-18 38.166 -18 59.499
c0 40 12.667 73.667 38 101s58 41 98 41c25.333 0 48.666 -6.33301 69.999 -19zM288.003 546.999l-45 -34l-59 74l-72 -74l-41 34l124 124z" />
    <glyph glyph-name="Scedilla" unicode="&#x15e;" horiz-adv-x="325" 
d="M322 653l-11.999 -87.999c-21.333 20 -44 30 -68 30c-27.333 0 -49.333 -10.333 -66 -31s-25 -45 -25 -73c0 -18.667 5 -37 15 -55s22 -34.833 36 -50.5l42 -49c14 -17 26 -37.5 36 -61.5s15 -49.667 15 -77c0 -54.667 -16 -102.834 -48 -144.501
s-74.667 -62.5 -128 -62.5c-36.667 0 -67.667 10.667 -93 32l11 89c28 -23.333 55 -35 81 -35c28 0 50 10.833 66 32.5s24 47.167 24 76.5c0 20.667 -5 40.5 -15 59.5s-22 36.167 -36 51.5l-42.5 47c-14.333 16 -26.5 35.333 -36.5 58s-15 47 -15 73
c0 54.667 15.167 101.667 45.5 141s72.166 59 125.499 59c34 0 63.333 -7.33301 88 -22zM181.001 -74.999l-86 -118l-52 26l65 125z" />
    <glyph glyph-name="scedilla" unicode="&#x15f;" horiz-adv-x="256" 
d="M242 438l-9.99707 -77.001c-19.333 14.667 -39 22 -59 22c-15.333 0 -29 -5.5 -41 -16.5s-18 -24.167 -18 -39.5c0 -11.333 3.83301 -22.333 11.5 -33s17 -20.5 28 -29.5s22 -18.667 33 -29s20.333 -23.166 28 -38.499s11.5 -32.666 11.5 -51.999
c0 -42.667 -13.5 -78.667 -40.5 -108s-61.5 -44 -103.5 -44c-25.333 0 -48.333 7 -69 21l10 80c21.333 -18 42.666 -27 63.999 -27c19.333 0 34.666 6 45.999 18s17 27.667 17 47c0 14.667 -6 29 -18 43s-25 26.333 -39 37s-27 25.167 -39 43.5s-18 38.166 -18 59.499
c0 40 12.667 73.667 38 101s58 41 98 41c25.333 0 48.666 -6.33301 69.999 -19zM139.003 -74.001l-89 -117l-35 20l70 126z" />
    <glyph glyph-name="Scaron" unicode="&#x160;" horiz-adv-x="325" 
d="M322 653l-11.999 -87.999c-21.333 20 -44 30 -68 30c-27.333 0 -49.333 -10.333 -66 -31s-25 -45 -25 -73c0 -18.667 5 -37 15 -55s22 -34.833 36 -50.5l42 -49c14 -17 26 -37.5 36 -61.5s15 -49.667 15 -77c0 -54.667 -16 -102.834 -48 -144.501
s-74.667 -62.5 -128 -62.5c-36.667 0 -67.667 10.667 -93 32l11 89c28 -23.333 55 -35 81 -35c28 0 50 10.833 66 32.5s24 47.167 24 76.5c0 20.667 -5 40.5 -15 59.5s-22 36.167 -36 51.5l-42.5 47c-14.333 16 -26.5 35.333 -36.5 58s-15 47 -15 73
c0 54.667 15.167 101.667 45.5 141s72.166 59 125.499 59c34 0 63.333 -7.33301 88 -22zM359.001 851.001l-123 -124l-94 124l49 34l54 -74l77 74z" />
    <glyph glyph-name="scaron" unicode="&#x161;" horiz-adv-x="256" 
d="M242 438l-9.99707 -77.001c-19.333 14.667 -39 22 -59 22c-15.333 0 -29 -5.5 -41 -16.5s-18 -24.167 -18 -39.5c0 -11.333 3.83301 -22.333 11.5 -33s17 -20.5 28 -29.5s22 -18.667 33 -29s20.333 -23.166 28 -38.499s11.5 -32.666 11.5 -51.999
c0 -42.667 -13.5 -78.667 -40.5 -108s-61.5 -44 -103.5 -44c-25.333 0 -48.333 7 -69 21l10 80c21.333 -18 42.666 -27 63.999 -27c19.333 0 34.666 6 45.999 18s17 27.667 17 47c0 14.667 -6 29 -18 43s-25 26.333 -39 37s-27 25.167 -39 43.5s-18 38.166 -18 59.499
c0 40 12.667 73.667 38 101s58 41 98 41c25.333 0 48.666 -6.33301 69.999 -19zM299.003 636.999l-123 -124l-94 124l49 34l54 -74l77 74z" />
    <glyph glyph-name="Tcedilla" unicode="&#x162;" horiz-adv-x="284" 
d="M342 667l-10 -79h-102l-72 -588h-87l73 588h-102l10 79h290zM160 -75l-86 -118l-52 26l65 125z" />
    <glyph glyph-name="tcedilla" unicode="&#x163;" horiz-adv-x="193" 
d="M208 447l-8 -64h-44l-47 -383h-81l47 383h-45l8 64h45l15 127h81l-15 -127h44zM115 -74l-89 -117l-35 20l70 126z" />
    <glyph glyph-name="Tcaron" unicode="&#x164;" horiz-adv-x="284" 
d="M332 588l10 79h-290l-10 -79h102l-73 -588h87l72 588h102zM329 851l-123 -124l-94 124l49 34l54 -74l77 74z" />
    <glyph glyph-name="tcaron" unicode="&#x165;" horiz-adv-x="296" 
d="M208 447l-8 -64h-44l-47 -383h-81l47 383h-45l8 64h45l15 127h81l-15 -127h44zM346 667l-92 -189l-43 17l67 193z" />
    <glyph glyph-name="Utilde" unicode="&#x168;" horiz-adv-x="403" 
d="M406 667l-59.001 -483.998c-8 -64.667 -24.167 -112.834 -48.5 -144.501s-66.833 -47.5 -127.5 -47.5c-87.333 0 -131 41.667 -131 125c0 11.333 2.33301 38 7 80l57 471h87l-58 -471c-3.33301 -23.333 -5 -44 -5 -62c0 -38.667 19.667 -58 59 -58
c11.333 0 21.333 2.16699 30 6.5s15.334 9 20.001 14s8.66699 12.833 12 23.5s5.5 19.167 6.5 25.5s2.16699 16.166 3.5 29.499c0.666992 3.33301 1 6 1 8l60 484h86zM330.999 815.002l48.0029 0.000976562c-6.66699 -58.667 -31.667 -88 -75 -88
c-10 0 -23.333 4.66699 -40 14s-29.667 14 -39 14c-14 0 -21 -8 -21 -24h-54c10 58.667 35.667 88 77 88c12.667 0 27.667 -5 45 -15s30 -15 38 -15c5.33301 0 9.16602 1.16699 11.499 3.5s4.16602 6.16602 5.49902 11.499s2.66602 9 3.99902 11z" />
    <glyph glyph-name="utilde" unicode="&#x169;" horiz-adv-x="354" 
d="M335 447l-33.001 -268c-4 -32.667 -8.16699 -58 -12.5 -76s-11.833 -36.833 -22.5 -56.5s-26 -33.667 -46 -42s-45.667 -12.5 -77 -12.5c-74 0 -111 36.667 -111 110c0 10.667 1.33301 27.334 4 50.001l36 295h81l-33 -268c-3.33301 -23.333 -5 -44 -5 -62
c0 -16.667 3.5 -28.5 10.5 -35.5s18.833 -10.5 35.5 -10.5c13.333 0 24 4.33301 32 13s13.167 17.167 15.5 25.5s4.5 20.166 6.5 35.499c2.66699 14 4.33398 25.333 5.00098 34l32 268h82zM283.999 601l48.0029 0.000976562c-6.66699 -58.667 -31.667 -88 -75 -88
c-10 0 -23.333 4.66699 -40 14s-29.667 14 -39 14c-14 0 -21 -8 -21 -24h-54c10 58.667 35.667 88 77 88c12.667 0 27.667 -5 45 -15s30 -15 38 -15c5.33301 0 9.16602 1.16699 11.499 3.5s4.16602 6.16602 5.49902 11.499s2.66602 9 3.99902 11z" />
    <glyph glyph-name="Umacron" unicode="&#x16a;" horiz-adv-x="403" 
d="M406 667l-59.001 -483.998c-8 -64.667 -24.167 -112.834 -48.5 -144.501s-66.833 -47.5 -127.5 -47.5c-87.333 0 -131 41.667 -131 125c0 11.333 2.33301 38 7 80l57 471h87l-58 -471c-3.33301 -23.333 -5 -44 -5 -62c0 -38.667 19.667 -58 59 -58
c11.333 0 21.333 2.16699 30 6.5s15.334 9 20.001 14s8.66699 12.833 12 23.5s5.5 19.167 6.5 25.5s2.16699 16.166 3.5 29.499c0.666992 3.33301 1 6 1 8l60 484h86zM378.999 794.002l-8 -62h-221l7 62h222z" />
    <glyph glyph-name="umacron" unicode="&#x16b;" horiz-adv-x="354" 
d="M335 447l-33.001 -268c-4 -32.667 -8.16699 -58 -12.5 -76s-11.833 -36.833 -22.5 -56.5s-26 -33.667 -46 -42s-45.667 -12.5 -77 -12.5c-74 0 -111 36.667 -111 110c0 10.667 1.33301 27.334 4 50.001l36 295h81l-33 -268c-3.33301 -23.333 -5 -44 -5 -62
c0 -16.667 3.5 -28.5 10.5 -35.5s18.833 -10.5 35.5 -10.5c13.333 0 24 4.33301 32 13s13.167 17.167 15.5 25.5s4.5 20.166 6.5 35.499c2.66699 14 4.33398 25.333 5.00098 34l32 268h82zM328.999 586l-8 -62h-221l7 62h222z" />
    <glyph glyph-name="Ubreve" unicode="&#x16c;" horiz-adv-x="403" 
d="M406 667l-59.001 -483.998c-8 -64.667 -24.167 -112.834 -48.5 -144.501s-66.833 -47.5 -127.5 -47.5c-87.333 0 -131 41.667 -131 125c0 11.333 2.33301 38 7 80l57 471h87l-58 -471c-3.33301 -23.333 -5 -44 -5 -62c0 -38.667 19.667 -58 59 -58
c11.333 0 21.333 2.16699 30 6.5s15.334 9 20.001 14s8.66699 12.833 12 23.5s5.5 19.167 6.5 25.5s2.16699 16.166 3.5 29.499c0.666992 3.33301 1 6 1 8l60 484h86zM333.999 811.002l54.002 -0.000976562c-6.66699 -30 -22.334 -53 -47.001 -69s-53.334 -24 -86.001 -24
c-32 0 -58.333 7.83301 -79 23.5s-31 38.834 -31 69.501h54c6.66699 -23.333 27.667 -35 63 -35c34.667 0 58.667 11.667 72 35z" />
    <glyph glyph-name="ubreve" unicode="&#x16d;" horiz-adv-x="354" 
d="M335 447l-33.001 -268c-4 -32.667 -8.16699 -58 -12.5 -76s-11.833 -36.833 -22.5 -56.5s-26 -33.667 -46 -42s-45.667 -12.5 -77 -12.5c-74 0 -111 36.667 -111 110c0 10.667 1.33301 27.334 4 50.001l36 295h81l-33 -268c-3.33301 -23.333 -5 -44 -5 -62
c0 -16.667 3.5 -28.5 10.5 -35.5s18.833 -10.5 35.5 -10.5c13.333 0 24 4.33301 32 13s13.167 17.167 15.5 25.5s4.5 20.166 6.5 35.499c2.66699 14 4.33398 25.333 5.00098 34l32 268h82zM283.999 606l54.002 -0.000976562c-6.66699 -30 -22.334 -53 -47.001 -69
s-53.334 -24 -86.001 -24c-32 0 -58.333 7.83301 -79 23.5s-31 38.834 -31 69.501h54c6.66699 -23.333 27.667 -35 63 -35c34.667 0 58.667 11.667 72 35z" />
    <glyph glyph-name="Uring" unicode="&#x16e;" horiz-adv-x="403" 
d="M406 667l-59.001 -483.998c-8 -64.667 -24.167 -112.834 -48.5 -144.501s-66.833 -47.5 -127.5 -47.5c-87.333 0 -131 41.667 -131 125c0 11.333 2.33301 38 7 80l57 471h87l-58 -471c-3.33301 -23.333 -5 -44 -5 -62c0 -38.667 19.667 -58 59 -58
c11.333 0 21.333 2.16699 30 6.5s15.334 9 20.001 14s8.66699 12.833 12 23.5s5.5 19.167 6.5 25.5s2.16699 16.166 3.5 29.499c0.666992 3.33301 1 6 1 8l60 484h86zM191.999 799.002c0 24 8.16699 44.167 24.5 60.5s36.5 24.5 60.5 24.5s44.167 -8.16699 60.5 -24.5
s24.5 -36.5 24.5 -60.5s-8.16699 -44.167 -24.5 -60.5s-36.5 -24.5 -60.5 -24.5s-44.167 8.16699 -60.5 24.5s-24.5 36.5 -24.5 60.5zM236.999 799.002c0 -11.333 3.83301 -20.833 11.5 -28.5s17.167 -11.5 28.5 -11.5s20.833 3.83301 28.5 11.5s11.5 17.167 11.5 28.5
s-3.83301 20.833 -11.5 28.5s-17.167 11.5 -28.5 11.5s-20.833 -3.83301 -28.5 -11.5s-11.5 -17.167 -11.5 -28.5z" />
    <glyph glyph-name="uring" unicode="&#x16f;" horiz-adv-x="354" 
d="M335 447l-33.001 -268c-4 -32.667 -8.16699 -58 -12.5 -76s-11.833 -36.833 -22.5 -56.5s-26 -33.667 -46 -42s-45.667 -12.5 -77 -12.5c-74 0 -111 36.667 -111 110c0 10.667 1.33301 27.334 4 50.001l36 295h81l-33 -268c-3.33301 -23.333 -5 -44 -5 -62
c0 -16.667 3.5 -28.5 10.5 -35.5s18.833 -10.5 35.5 -10.5c13.333 0 24 4.33301 32 13s13.167 17.167 15.5 25.5s4.5 20.166 6.5 35.499c2.66699 14 4.33398 25.333 5.00098 34l32 268h82zM127.999 600c0 24 8.16699 44.167 24.5 60.5s36.5 24.5 60.5 24.5
s44.167 -8.16699 60.5 -24.5s24.5 -36.5 24.5 -60.5s-8.16699 -44.167 -24.5 -60.5s-36.5 -24.5 -60.5 -24.5s-44.167 8.16699 -60.5 24.5s-24.5 36.5 -24.5 60.5zM172.999 600c0 -11.333 3.83301 -20.833 11.5 -28.5s17.167 -11.5 28.5 -11.5s20.833 3.83301 28.5 11.5
s11.5 17.167 11.5 28.5s-3.83301 20.833 -11.5 28.5s-17.167 11.5 -28.5 11.5s-20.833 -3.83301 -28.5 -11.5s-11.5 -17.167 -11.5 -28.5z" />
    <glyph glyph-name="Uhungarumlaut" unicode="&#x170;" horiz-adv-x="403" 
d="M406 667l-59.001 -483.998c-8 -64.667 -24.167 -112.834 -48.5 -144.501s-66.833 -47.5 -127.5 -47.5c-87.333 0 -131 41.667 -131 125c0 11.333 2.33301 38 7 80l57 471h87l-58 -471c-3.33301 -23.333 -5 -44 -5 -62c0 -38.667 19.667 -58 59 -58
c11.333 0 21.333 2.16699 30 6.5s15.334 9 20.001 14s8.66699 12.833 12 23.5s5.5 19.167 6.5 25.5s2.16699 16.166 3.5 29.499c0.666992 3.33301 1 6 1 8l60 484h86zM394.999 852.002l-92 -126l-36 21l77 138zM282.999 852.002l-91 -126l-37 21l77 138z" />
    <glyph glyph-name="uhungarumlaut" unicode="&#x171;" horiz-adv-x="354" 
d="M335 447l-33.001 -268c-4 -32.667 -8.16699 -58 -12.5 -76s-11.833 -36.833 -22.5 -56.5s-26 -33.667 -46 -42s-45.667 -12.5 -77 -12.5c-74 0 -111 36.667 -111 110c0 10.667 1.33301 27.334 4 50.001l36 295h81l-33 -268c-3.33301 -23.333 -5 -44 -5 -62
c0 -16.667 3.5 -28.5 10.5 -35.5s18.833 -10.5 35.5 -10.5c13.333 0 24 4.33301 32 13s13.167 17.167 15.5 25.5s4.5 20.166 6.5 35.499c2.66699 14 4.33398 25.333 5.00098 34l32 268h82zM349.999 638l-92 -126l-36 21l77 138zM237.999 638l-91 -126l-37 21l77 138z" />
    <glyph glyph-name="Uogonek" unicode="&#x172;" horiz-adv-x="403" 
d="M406 667l-59.002 -483.999c-5.33301 -39.333 -10.666 -68 -15.999 -86c-9.33301 -30 -24.333 -54.667 -45 -74c-5.33301 -5.33301 -16 -14 -32 -26s-27.333 -21.333 -34 -28c-14.667 -14.667 -22 -29.334 -22 -44.001c0 -9.33301 3.33301 -16.666 10 -21.999
c6 -4 15 -6 27 -6s24.333 2.66699 37 8l-7 -51c-15.333 -6 -31.333 -9 -48 -9c-21.333 0 -38.666 5 -51.999 15c-14 11.333 -21 27 -21 47c0 14.667 4.33301 30 13 46c4 9.33301 12.333 22 25 38h-5c-47.333 0 -82 10.333 -104 31s-33 52 -33 94
c0 12.667 1.66699 33.667 5 63l59 488h87l-58 -471c-3.33301 -29.333 -5 -49.333 -5 -60c0 -20.667 4.33301 -35.667 13 -45c10 -10 25.333 -15 46 -15s36 5.66699 46 17c12 13.333 20.667 40.666 26 81.999l61 492h86z" />
    <glyph glyph-name="uogonek" unicode="&#x173;" horiz-adv-x="354" 
d="M335 447l-35.999 -290.001c-4.66699 -38 -10.334 -65.667 -17.001 -83c-8 -23.333 -21.667 -44.666 -41 -63.999l-17 -16.5l-16.5 -16c-4.33301 -4.33301 -8.16602 -8.5 -11.499 -12.5c-10.667 -13.333 -16 -27 -16 -41c0 -10 3.33301 -17.333 10 -22
c5.33301 -3.33301 12.666 -5 21.999 -5c16 0 30 2.66699 42 8l-7 -51c-14 -6 -29.333 -9 -46 -9c-26 0 -45.667 6.33301 -59 19c-10.667 10 -16 23 -16 39c0 31.333 13 61.333 39 90c-4.66699 -0.666992 -11.667 -1 -21 -1c-35.333 0 -63 9.33301 -83 28
c-18.667 18.667 -28 44.667 -28 78c0 12.667 1.33301 29.667 4 51l36 298h81l-33 -268c-3.33301 -24.667 -5 -44.334 -5 -59.001c0 -17.333 3.33301 -29.666 10 -36.999c6.66699 -8 18 -12 34 -12c15.333 0 27.333 4.66699 36 14c10 10.667 18.333 42 25 94l32 268h82z" />
    <glyph glyph-name="Ydieresis" unicode="&#x178;" horiz-adv-x="336" 
d="M392 667l-161 -380l-35 -287h-89l35 287l-90 380h94l32 -179c4.66699 -26.667 9.66699 -70 15 -130c11.333 41.333 25.333 85.333 42 132l65 177h92zM353 777c0 -15.333 -5.49902 -28.5 -16.499 -39.5s-24.167 -16.5 -39.5 -16.5c-12.667 0 -23.167 4.16699 -31.5 12.5
s-12.5 18.833 -12.5 31.5c0 14.667 5.66699 27.667 17 39s24.666 17 39.999 17c12.667 0 23 -4.16699 31 -12.5s12 -18.833 12 -31.5zM207.001 777c0 -15.333 -5.5 -28.5 -16.5 -39.5s-24.167 -16.5 -39.5 -16.5c-12.667 0 -23 4.16699 -31 12.5s-12 18.833 -12 31.5
c0 15.333 5.66699 28.5 17 39.5s24.333 16.5 39 16.5c12.667 0 23 -4.16699 31 -12.5s12 -18.833 12 -31.5z" />
    <glyph glyph-name="Zacute" unicode="&#x179;" horiz-adv-x="329" 
d="M378 667l-270 -588h187l-10 -79h-302l272 591h-176l9 76h290zM184 762l95 122l66 -39l-115 -112z" />
    <glyph glyph-name="zacute" unicode="&#x17a;" horiz-adv-x="294" 
d="M307 447l-192 -372h139l-9 -75h-260l198 374h-140l9 73h255zM133 542l95 122l66 -39l-115 -112z" />
    <glyph glyph-name="Zdotaccent" unicode="&#x17b;" horiz-adv-x="329" 
d="M378 667l-270 -588h187l-10 -79h-302l272 591h-176l9 76h290zM288 780c0 -15.333 -6 -29 -18 -41s-25.667 -18 -41 -18c-12.667 0 -23.5 4.5 -32.5 13.5s-13.5 19.833 -13.5 32.5c0 15.333 6 29 18 41s25.667 18 41 18c13.333 0 24.333 -4.33301 33 -13
s13 -19.667 13 -33z" />
    <glyph glyph-name="zdotaccent" unicode="&#x17c;" horiz-adv-x="294" 
d="M307 447l-192 -372h139l-9 -75h-260l198 374h-140l9 73h255zM232 572c0 -15.333 -6 -29 -18 -41s-25.667 -18 -41 -18c-12.667 0 -23.5 4.5 -32.5 13.5s-13.5 19.833 -13.5 32.5c0 15.333 6 29 18 41s25.667 18 41 18c13.333 0 24.333 -4.33301 33 -13s13 -19.667 13 -33
z" />
    <glyph glyph-name="Zcaron" unicode="&#x17d;" horiz-adv-x="329" 
d="M378 667l-270 -588h187l-10 -79h-302l272 591h-176l9 76h290zM354 851l-123 -124l-94 124l49 34l54 -74l77 74z" />
    <glyph glyph-name="zcaron" unicode="&#x17e;" horiz-adv-x="294" 
d="M307 447l-192 -372h139l-9 -75h-260l198 374h-140l9 73h255zM303 637l-123 -124l-94 124l49 34l54 -74l77 74z" />
    <glyph glyph-name="uni018F" unicode="&#x18f;" horiz-adv-x="418" 
d="M58 351l245 -0.000976562c6.66699 58.667 10 108 10 148s-7 67 -21 81c-10.667 10.667 -25.334 16 -44.001 16c-21.333 0 -38.333 -6.33301 -51 -19c-16.667 -16.667 -28.667 -41 -36 -73l-80 35c12.667 38.667 31.667 70.334 57 95.001c28.667 27.333 67 41 115 41
c46 0 80.667 -10.333 104 -31c32 -28 48 -80.333 48 -157c0 -84.667 -7.33301 -165 -22 -241c-19.333 -103.333 -47 -173 -83 -209c-30.667 -30.667 -69.667 -46 -117 -46c-41.333 0 -73.666 12 -96.999 36c-30 30 -45 77.333 -45 142c0 40 3.66699 85.667 11 137z
M293 274.999l-157.003 -0.000976562c-6 -43.333 -9 -77.666 -9 -102.999c0 -38.667 6.33301 -65 19 -79c10.667 -12 25.334 -18 44.001 -18s34.334 6.33301 47.001 19s24.334 37.667 35.001 75c8 30 15 65.333 21 106z" />
    <glyph glyph-name="florin" unicode="&#x192;" horiz-adv-x="380" 
d="M384 728l-16.999 -84.002c-11.333 7.33301 -23 11 -35 11c-6 0 -11.333 -1 -16 -3s-8.66699 -5.16699 -12 -9.5s-6.16602 -8.33301 -8.49902 -12s-4.5 -9 -6.5 -16s-3.33301 -12.333 -4 -16l-3 -16.5c-1.33301 -7.33301 -2.33301 -12 -3 -14l-24 -121h69l-12 -61h-69
l-59 -310l-6 -31.5c-0.666992 -3.66699 -2.83398 -13.834 -6.50098 -30.501s-6.5 -27.667 -8.5 -33l-11 -28.5c-5.33301 -13.667 -10.166 -23.167 -14.499 -28.5l-18 -22c-7.66699 -9.33301 -15.5 -15.833 -23.5 -19.5s-17.333 -7.16699 -28 -10.5s-22.334 -5 -35.001 -5
c-18 0 -36.667 3.66699 -56 11l15 76c14 -4.66699 26.333 -7 37 -7c6.66699 0 12.834 1 18.501 3s10.5 5.33301 14.5 10s7.33301 8.83398 10 12.501s5.16699 9.5 7.5 17.5l5 17c1 3.33301 2.33301 9.5 4 18.5s2.83398 14.5 3.50098 16.5l67 344h-60l12 61h60l24 121
c3.33301 18 5.66602 30.167 6.99902 36.5s4.16602 17.5 8.49902 33.5s8.16602 27.333 11.499 34s8.5 15.334 15.5 26.001s14.5 18.334 22.5 23.001s18 9 30 13s25.333 6 40 6c18 0 36 -4 54 -12z" />
    <glyph glyph-name="uni01CF" unicode="&#x1cf;" horiz-adv-x="190" 
d="M193 667l-82 -667h-88l81 667h89zM274 851l-123 -124l-94 124l49 34l54 -74l77 74z" />
    <glyph glyph-name="uni01D0" unicode="&#x1d0;" horiz-adv-x="173" 
d="M154 447l-55 -447h-81l55 447h81zM239 637l-123 -124l-94 124l49 34l54 -74l77 74z" />
    <glyph glyph-name="uni01DD" unicode="&#x1dd;" horiz-adv-x="331" 
d="M31 248l188.003 0.000976562c2.66699 32 4 52 4 60c0 26 -3.66699 45 -11 57s-19 18 -35 18c-12 0 -22.333 -4.33301 -31 -13c-12.667 -12.667 -23.334 -37.334 -32.001 -74.001l-75 16c15.333 50.667 33.666 86.667 54.999 108c23.333 22.667 53.666 34 90.999 34
c40.667 0 71 -12.667 91 -38c20 -24.667 30 -62.667 30 -114c0 -50.667 -5.66699 -101.5 -17 -152.5s-31 -90.167 -59 -117.5c-26 -26 -58.667 -39 -98 -39c-28.667 0 -52.667 9.66699 -72 29c-24 24.667 -36 65 -36 121c0 30 1.33301 55.667 4 77zM212.003 188.001
l-104 0.000976562c-2 -32 -3 -50 -3 -54c0 -26.667 3.66699 -45.334 11 -56.001c6 -10 15.333 -15 28 -15c13.333 0 24 4.66699 32 14c17.333 18 29.333 55 36 111z" />
    <glyph glyph-name="Gcaron" unicode="&#x1e6;" horiz-adv-x="406" 
d="M402 539l-87.0049 -35c-1.33301 18.667 -3.16602 33.5 -5.49902 44.5s-8.33301 21.667 -18 32s-23.167 15.5 -40.5 15.5c-20 0 -35.333 -6.16699 -46 -18.5s-19.667 -29.5 -27 -51.5c-14 -40.667 -25.5 -96.5 -34.5 -167.5s-13.5 -131.833 -13.5 -182.5
c0 -16 0.333008 -28.167 1 -36.5s2.83398 -18.333 6.50098 -30s9.83398 -20.334 18.501 -26.001s20.334 -8.5 35.001 -8.5c43.333 0 71.666 35.333 84.999 106c6 26 10.667 57.333 14 94h-76l9 76h161c-0.666992 -4.66699 -2.16699 -18.334 -4.5 -41.001
s-4 -38.334 -5 -47.001s-3.33301 -24.167 -7 -46.5s-7 -38.666 -10 -48.999l-13.5 -44.5c-6 -19.333 -12.333 -33.833 -19 -43.5l-24.5 -34.5c-9.66699 -13.333 -20.167 -23.166 -31.5 -29.499s-24.5 -12 -39.5 -17s-31.167 -7.5 -48.5 -7.5
c-29.333 0 -53.833 5.33301 -73.5 16s-34.167 26.167 -43.5 46.5s-15.666 41 -18.999 62s-5 45.833 -5 74.5c0 78 9.33301 163 28 255c5.33301 26.667 10.5 49.334 15.5 68.001s12.667 39 23 61s22 39.833 35 53.5s29.833 25 50.5 34s44.334 13.5 71.001 13.5
c44 0 76.5 -11.333 97.5 -34s34.833 -56.667 41.5 -102zM393.995 851l-123 -124l-94 124l49 34l54 -74l77 74z" />
    <glyph glyph-name="gcaron" unicode="&#x1e7;" horiz-adv-x="344" 
d="M325 447l-57.002 -461.003c-5.33301 -46.667 -13 -80.667 -23 -102c-23.333 -48 -67.666 -72 -132.999 -72c-36 0 -63.833 9.16699 -83.5 27.5s-29.5 45.5 -29.5 81.5c0 10.667 1 21.334 3 32.001h79c-1.33301 -9.33301 -2 -16.333 -2 -21
c0 -15.333 4 -27.666 12 -36.999s19.333 -14 34 -14c12 0 22 2.5 30 7.5s13.833 12.5 17.5 22.5s6.33398 18.833 8.00098 26.5s3.16699 17.834 4.5 30.501l10 87c-22 -41.333 -51 -62 -87 -62c-31.333 0 -53.5 12.5 -66.5 37.5s-19.5 55.167 -19.5 90.5
c0 75.333 10 149 30 221c22 74.667 59.333 112 112 112c19.333 0 34.333 -5.16699 45 -15.5s20 -25.5 28 -45.5l6 54h82zM222.998 300.997c0 52 -13.667 78 -41 78c-15.333 0 -28.333 -10 -39 -30s-18.334 -44.667 -23.001 -74s-8 -55.333 -10 -78s-3 -42 -3 -58
c0 -48 14 -72 42 -72c20 0 34.667 12 44 36c8.66699 20.667 15.834 51.667 21.501 93s8.5 76.333 8.5 105zM312.998 636.997l-123 -124l-94 124l49 34l54 -74l77 74z" />
    <glyph glyph-name="AEacute" unicode="&#x1fc;" horiz-adv-x="503" 
d="M474 0h-228l-10 131h-136l-41 -131h-86l221 667h218l8 -76h-143l19 -212h129l8 -76h-129l22 -227h140zM232 199l-13 151.001c-2.66699 33.333 -4 96.666 -4 189.999c-4 -28 -15.333 -75.667 -34 -143l-60 -198h111zM240 762.001l95 122l66 -39l-115 -112z" />
    <glyph glyph-name="aeacute" unicode="&#x1fd;" horiz-adv-x="498" 
d="M66 348l10.0039 84c32 14.667 62.667 22 92 22c50 0 82.333 -19 97 -57c26 38 60 57 102 57c70.667 0 106 -50.333 106 -151c0 -30.667 -2.66699 -63 -8 -97h-182c-2.66699 -22 -4 -46.667 -4 -74c0 -47.333 14.333 -71 43 -71c19.333 0 33.666 9.5 42.999 28.5
s14.666 40.167 15.999 63.5h77c-8 -49.333 -23 -88.333 -45 -117s-55.667 -43 -101 -43c-52 0 -84 23.333 -96 70c-13.333 -24.667 -28 -42.5 -44 -53.5s-37 -16.5 -63 -16.5c-62 0 -93 35.667 -93 107c0 21.333 2.33301 42.5 7 63.5s11.667 41.167 21 60.5
s22.666 34.833 39.999 46.5s37.666 17.5 60.999 17.5c30 0 52 -9.66699 66 -29c0 4 0.666992 12.833 2 26.5s2 24.167 2 31.5c0 38 -20.667 57 -62 57c-27.333 0 -56.333 -8.66699 -87 -26zM293.004 266h97c3.33301 18.667 5 36 5 52c0 45.333 -13 68 -39 68
c-35.333 0 -56.333 -40 -63 -120zM204.004 166c0 38 -14.333 57 -43 57c-22.667 0 -38.667 -10.5 -48 -31.5s-14 -44.5 -14 -70.5c0 -19.333 2.5 -34.5 7.5 -45.5s16.167 -16.5 33.5 -16.5c16 0 29.167 6.5 39.5 19.5s17 26.833 20 41.5s4.5 30 4.5 46zM238.004 542l95 122
l66 -39l-115 -112z" />
    <glyph glyph-name="Scommaaccent" unicode="&#x218;" horiz-adv-x="325" 
d="M322 653l-11.999 -87.999c-21.333 20 -44 30 -68 30c-27.333 0 -49.333 -10.333 -66 -31s-25 -45 -25 -73c0 -18.667 5 -37 15 -55s22 -34.833 36 -50.5l42 -49c14 -17 26 -37.5 36 -61.5s15 -49.667 15 -77c0 -54.667 -16 -102.834 -48 -144.501
s-74.667 -62.5 -128 -62.5c-36.667 0 -67.667 10.667 -93 32l11 89c28 -23.333 55 -35 81 -35c28 0 50 10.833 66 32.5s24 47.167 24 76.5c0 20.667 -5 40.5 -15 59.5s-22 36.167 -36 51.5l-42.5 47c-14.333 16 -26.5 35.333 -36.5 58s-15 47 -15 73
c0 54.667 15.167 101.667 45.5 141s72.166 59 125.499 59c34 0 63.333 -7.33301 88 -22zM175.001 -68.999l-73 -154l-43 13l48 162z" />
    <glyph glyph-name="scommaaccent" unicode="&#x219;" horiz-adv-x="256" 
d="M242 438l-9.99707 -77.001c-19.333 14.667 -39 22 -59 22c-15.333 0 -29 -5.5 -41 -16.5s-18 -24.167 -18 -39.5c0 -11.333 3.83301 -22.333 11.5 -33s17 -20.5 28 -29.5s22 -18.667 33 -29s20.333 -23.166 28 -38.499s11.5 -32.666 11.5 -51.999
c0 -42.667 -13.5 -78.667 -40.5 -108s-61.5 -44 -103.5 -44c-25.333 0 -48.333 7 -69 21l10 80c21.333 -18 42.666 -27 63.999 -27c19.333 0 34.666 6 45.999 18s17 27.667 17 47c0 14.667 -6 29 -18 43s-25 26.333 -39 37s-27 25.167 -39 43.5s-18 38.166 -18 59.499
c0 40 12.667 73.667 38 101s58 41 98 41c25.333 0 48.666 -6.33301 69.999 -19zM140.003 -69.001l-79 -165l-43 13l54 173z" />
    <glyph glyph-name="Tcommaaccent" unicode="&#x21a;" horiz-adv-x="284" 
d="M342 667l-10 -79h-102l-72 -588h-87l73 588h-102l10 79h290zM145 -69l-73 -154l-43 13l48 162z" />
    <glyph glyph-name="tcommaaccent" unicode="&#x21b;" horiz-adv-x="193" 
d="M208 447l-8 -64h-44l-47 -383h-81l47 383h-45l8 64h45l15 127h81l-15 -127h44zM115 -69l-79 -165l-43 13l54 173z" />
    <glyph glyph-name="uni0228" unicode="&#x228;" horiz-adv-x="316" 
d="M339 667l-9 -76h-146l-26 -212h130l-10 -76h-130l-27 -227h146l-9 -76h-235l81 667h235zM207 -75l-86 -118l-52 26l65 125z" />
    <glyph glyph-name="uni0229" unicode="&#x229;" horiz-adv-x="321" 
d="M206 151l76.002 0.000976562c-6 -38 -15.333 -68 -28 -90c-12 -21.333 -28.5 -38 -49.5 -50s-43.833 -18 -68.5 -18c-75.333 0 -113 49.333 -113 148c0 54.667 7.33301 110.667 22 168c25.333 96.667 73.666 145 144.999 145c40 0 68.167 -15 84.5 -45
s24.5 -66.667 24.5 -110c0 -26.667 -2.33301 -57.334 -7 -92.001h-185c-2.66699 -26.667 -4 -46.334 -4 -59.001c0 -11.333 0.333008 -20.333 1 -27s2.16699 -15.167 4.5 -25.5s6.66602 -18.166 12.999 -23.499s14.5 -8 24.5 -8c33.333 0 53.333 29 60 87zM218.002 300.001
l0.000976562 14.9971c0 46 -12.667 69 -38 69c-5.33301 0 -10.166 -0.833008 -14.499 -2.5s-8.33301 -4.5 -12 -8.5s-7 -7.83301 -10 -11.5s-5.83301 -8.66699 -8.5 -15s-4.83398 -11.666 -6.50098 -15.999s-3.33398 -10.333 -5.00098 -18s-3 -13.167 -4 -16.5
s-2.16699 -8.66602 -3.5 -15.999s-2 -11.666 -2 -12.999h103c0.666992 7.33301 1 18.333 1 33zM179.003 -74.002l-89 -117l-35 20l70 126z" />
    <glyph glyph-name="uni0237" unicode="&#x237;" horiz-adv-x="174" 
d="M155 447l-78 -635h-82l79 635h81z" />
    <glyph glyph-name="uni0259" unicode="&#x259;" horiz-adv-x="331" 
d="M31 248l188.003 0.000976562c2.66699 32 4 52 4 60c0 26 -3.66699 45 -11 57s-19 18 -35 18c-12 0 -22.333 -4.33301 -31 -13c-12.667 -12.667 -23.334 -37.334 -32.001 -74.001l-75 16c15.333 50.667 33.666 86.667 54.999 108c23.333 22.667 53.666 34 90.999 34
c40.667 0 71 -12.667 91 -38c20 -24.667 30 -62.667 30 -114c0 -50.667 -5.66699 -101.5 -17 -152.5s-31 -90.167 -59 -117.5c-26 -26 -58.667 -39 -98 -39c-28.667 0 -52.667 9.66699 -72 29c-24 24.667 -36 65 -36 121c0 30 1.33301 55.667 4 77zM212.003 188.001
l-104 0.000976562c-2 -32 -3 -50 -3 -54c0 -26.667 3.66699 -45.334 11 -56.001c6 -10 15.333 -15 28 -15c13.333 0 24 4.66699 32 14c17.333 18 29.333 55 36 111z" />
    <glyph glyph-name="afii57929" unicode="&#x2bc;" horiz-adv-x="195" 
d="M216 667l-92 -189l-43 17l67 193z" />
    <glyph glyph-name="circumflex" unicode="&#x2c6;" 
d="M398 547l-45 -34l-59 74l-72 -74l-41 34l124 124z" />
    <glyph glyph-name="caron" unicode="&#x2c7;" 
d="M409 637l-123 -124l-94 124l49 34l54 -74l77 74z" />
    <glyph glyph-name="uni02C9" unicode="&#x2c9;" 
d="M409 586l-8 -62h-221l7 62h222z" />
    <glyph glyph-name="breve" unicode="&#x2d8;" 
d="M364 606l54.002 -0.000976562c-6.66699 -30 -22.334 -53 -47.001 -69s-53.334 -24 -86.001 -24c-32 0 -58.333 7.83301 -79 23.5s-31 38.834 -31 69.501h54c6.66699 -23.333 27.667 -35 63 -35c34.667 0 58.667 11.667 72 35z" />
    <glyph glyph-name="dotaccent" unicode="&#x2d9;" 
d="M343 572c0 -15.333 -6 -29 -18 -41s-25.667 -18 -41 -18c-13.333 0 -24.333 4.5 -33 13.5s-13 19.833 -13 32.5c0 15.333 6 29 18 41s25.667 18 41 18c12.667 0 23.5 -4.33301 32.5 -13s13.5 -19.667 13.5 -33z" />
    <glyph glyph-name="ring" unicode="&#x2da;" 
d="M208 600c0 24 8.16699 44.167 24.5 60.5s36.5 24.5 60.5 24.5s44.167 -8.16699 60.5 -24.5s24.5 -36.5 24.5 -60.5s-8.16699 -44.167 -24.5 -60.5s-36.5 -24.5 -60.5 -24.5s-44.167 8.16699 -60.5 24.5s-24.5 36.5 -24.5 60.5zM253 600
c0 -11.333 3.83301 -20.833 11.5 -28.5s17.167 -11.5 28.5 -11.5s20.833 3.83301 28.5 11.5s11.5 17.167 11.5 28.5s-3.83301 20.833 -11.5 28.5s-17.167 11.5 -28.5 11.5s-20.833 -3.83301 -28.5 -11.5s-11.5 -17.167 -11.5 -28.5z" />
    <glyph glyph-name="ogonek" unicode="&#x2db;" 
d="M364 -95l-6.99805 -50.999c-14 -6 -29.333 -9 -46 -9c-26 0 -45.667 6.33301 -59 19c-10.667 10 -16 23 -16 39c0 17.333 5.33301 35.666 16 54.999c5.33301 9.33301 14.666 23.333 27.999 42h49c-4 -4.66699 -12.333 -16.667 -25 -36c-9.33301 -14.667 -14 -28 -14 -40
c0 -10.667 3.33301 -18 10 -22c5.33301 -3.33301 12.666 -5 21.999 -5c16 0 30 2.66699 42 8z" />
    <glyph glyph-name="tilde" unicode="&#x2dc;" 
d="M357 601l48.0029 0.000976562c-6.66699 -58.667 -31.667 -88 -75 -88c-10 0 -23.333 4.66699 -40 14s-29.667 14 -39 14c-14 0 -21 -8 -21 -24h-54c10 58.667 35.667 88 77 88c12.667 0 27.667 -5 45 -15s30 -15 38 -15c5.33301 0 9.16602 1.16699 11.499 3.5
s4.16602 6.16602 5.49902 11.499s2.66602 9 3.99902 11z" />
    <glyph glyph-name="hungarumlaut" unicode="&#x2dd;" 
d="M430 638l-92 -126l-36 21l77 138zM318 638l-91 -126l-37 21l77 138z" />
    <glyph glyph-name="acutecomb" unicode="&#x301;" horiz-adv-x="2" 
d="M-183 542l95 122l66 -39l-115 -112z" />
    <glyph glyph-name="uni0394" unicode="&#x394;" horiz-adv-x="667" 
d="M613 0h-615l263 667h86zM496 73l-192 496l-191 -496h383z" />
    <glyph glyph-name="uni0394" unicode="&#x2206;" horiz-adv-x="667" 
d="M613 0h-615l263 667h86zM496 73l-192 496l-191 -496h383z" />
    <glyph glyph-name="uni03A9" unicode="&#x3a9;" horiz-adv-x="667" 
d="M632 0l-262 -0.000976562v65c119.333 66.667 179 163 179 289c0 67.333 -20.5 127 -61.5 179s-94.167 78 -159.5 78c-66.667 0 -120.5 -25.667 -161.5 -77s-61.5 -111.333 -61.5 -180c0 -125.333 59.667 -221.666 179 -288.999v-65h-262v72h174
c-116 68.667 -174 166 -174 292c0 88.667 29 164 87 226s130.667 93 218 93s160 -31.167 218 -93.5s87 -137.5 87 -225.5c0 -126 -57.667 -223.333 -173 -292h173v-72z" />
    <glyph glyph-name="uni03A9" unicode="&#x2126;" horiz-adv-x="667" 
d="M632 0l-262 -0.000976562v65c119.333 66.667 179 163 179 289c0 67.333 -20.5 127 -61.5 179s-94.167 78 -159.5 78c-66.667 0 -120.5 -25.667 -161.5 -77s-61.5 -111.333 -61.5 -180c0 -125.333 59.667 -221.666 179 -288.999v-65h-262v72h174
c-116 68.667 -174 166 -174 292c0 88.667 29 164 87 226s130.667 93 218 93s160 -31.167 218 -93.5s87 -137.5 87 -225.5c0 -126 -57.667 -223.333 -173 -292h173v-72z" />
    <glyph glyph-name="pi" unicode="&#x3c0;" horiz-adv-x="593" 
d="M566 374h-74v-374h-82v374h-223v-374h-82v374h-75v73h536v-73z" />
    <glyph glyph-name="afii10023" unicode="&#x401;" horiz-adv-x="316" 
d="M339 667l-9 -76h-146l-26 -212h130l-10 -76h-130l-27 -227h146l-9 -76h-235l81 667h235zM350 766c0 -14.667 -5.66602 -27.667 -16.999 -39s-24.333 -17 -39 -17c-12.667 0 -23.167 4.16699 -31.5 12.5s-12.5 18.833 -12.5 31.5c0 14.667 5.66699 27.667 17 39
s24.666 17 39.999 17c12.667 0 23 -4.16699 31 -12.5s12 -18.833 12 -31.5zM212.001 766c0 -14.667 -5.66699 -27.667 -17 -39s-24.333 -17 -39 -17c-12.667 0 -23 4.16699 -31 12.5s-12 18.833 -12 31.5c0 14.667 5.5 27.667 16.5 39s24.167 17 39.5 17
c12.667 0 23 -4.16699 31 -12.5s12 -18.833 12 -31.5z" />
    <glyph glyph-name="afii10051" unicode="&#x402;" horiz-adv-x="430" 
d="M63 0l70.999 587.998h-88l10 79h297l-10 -79h-121l-24 -201c22.667 12.667 46.667 19 72 19c40.667 0 72.667 -13.667 96 -41c26 -31.333 39 -76.666 39 -135.999c0 -97.333 -20.667 -165.666 -62 -204.999c-23.333 -22 -54 -33 -92 -33c-30.667 0 -55 6 -73 18l28 84
c12 -12.667 25.333 -19 40 -19c12.667 0 23.334 4.66699 32.001 14c21.333 22.667 32 67.667 32 135c0 36.667 -7 63 -21 79c-11.333 13.333 -27 20 -47 20c-22 0 -40.333 -6.66699 -55 -20l-37 -302h-87z" />
    <glyph glyph-name="afii10052" unicode="&#x403;" horiz-adv-x="305" 
d="M341 667l-10 -76h-147l-73 -591h-88l81 667h237zM189 762l95 122l66 -39l-115 -112z" />
    <glyph glyph-name="afii10053" unicode="&#x404;" horiz-adv-x="343" 
d="M371 651l-9.99805 -87c-19.333 19.333 -41.333 29 -66 29c-28.667 0 -53.334 -10 -74.001 -30c-34.667 -33.333 -58.334 -92.333 -71.001 -177h154l-9 -76h-155c-2.66699 -22.667 -4 -44.667 -4 -66c0 -70.667 12.333 -118 37 -142c16 -15.333 37 -23 63 -23
c24 0 46.667 8.33301 68 25l-11 -88c-26.667 -17.333 -55.667 -26 -87 -26c-45.333 0 -81.333 13.333 -108 40c-38 38 -57 103.667 -57 197c0 65.333 8.33301 135.333 25 210c18.667 86 49 148.667 91 188c36 34 80 51 132 51c30 0 57.333 -8.33301 82 -25z" />
    <glyph glyph-name="afii10054" unicode="&#x405;" horiz-adv-x="325" 
d="M322 653l-11.999 -87.999c-21.333 20 -44 30 -68 30c-27.333 0 -49.333 -10.333 -66 -31s-25 -45 -25 -73c0 -18.667 5 -37 15 -55s22 -34.833 36 -50.5l42 -49c14 -17 26 -37.5 36 -61.5s15 -49.667 15 -77c0 -54.667 -16 -102.834 -48 -144.501
s-74.667 -62.5 -128 -62.5c-36.667 0 -67.667 10.667 -93 32l11 89c28 -23.333 55 -35 81 -35c28 0 50 10.833 66 32.5s24 47.167 24 76.5c0 20.667 -5 40.5 -15 59.5s-22 36.167 -36 51.5l-42.5 47c-14.333 16 -26.5 35.333 -36.5 58s-15 47 -15 73
c0 54.667 15.167 101.667 45.5 141s72.166 59 125.499 59c34 0 63.333 -7.33301 88 -22z" />
    <glyph glyph-name="afii10055" unicode="&#x406;" horiz-adv-x="190" 
d="M193 667l-82 -667h-88l81 667h89z" />
    <glyph glyph-name="afii10056" unicode="&#x407;" horiz-adv-x="190" 
d="M193 667l-82 -667h-88l81 667h89zM240 777c0 -15.333 -3.66699 -28.5 -11 -39.5s-16.333 -16.5 -27 -16.5c-8 0 -14.833 4.16699 -20.5 12.5s-8.5 18.833 -8.5 31.5c0 14.667 3.83301 27.667 11.5 39s16.5 17 26.5 17c8.66699 0 15.667 -4.16699 21 -12.5
s8 -18.833 8 -31.5zM146 777c0 -14.667 -3.83301 -27.667 -11.5 -39s-16.5 -17 -26.5 -17c-8.66699 0 -15.667 4.16699 -21 12.5s-8 18.833 -8 31.5c0 15.333 3.66699 28.5 11 39.5s16.333 16.5 27 16.5c8 0 14.833 -4.16699 20.5 -12.5s8.5 -18.833 8.5 -31.5z" />
    <glyph glyph-name="afii10057" unicode="&#x408;" horiz-adv-x="255" 
d="M258 667l-62.999 -512c-5.33301 -39.333 -12 -68 -20 -86c-11.333 -25.333 -28.666 -44.666 -51.999 -57.999s-49.666 -20 -78.999 -20c-28.667 0 -53 6 -73 18l11 90c24 -15.333 42.667 -23 56 -23c14 0 25.667 2.83301 35 8.5s16.166 13.667 20.499 24
s7.66602 20.666 9.99902 30.999s4.16602 22.166 5.49902 35.499c0.666992 4.66699 1 8.33398 1 11.001l59 481h89z" />
    <glyph glyph-name="afii10058" unicode="&#x409;" horiz-adv-x="602" 
d="M439 667l-35 -284.999h6c57.333 0 100.333 -14.333 129 -43c25.333 -26 38 -64.667 38 -116c0 -81.333 -18.667 -140.666 -56 -177.999c-30 -30 -71.333 -45 -124 -45h-128l73 592l-2 -1h-116l-40 -327c-16 -126.667 -41 -206.334 -75 -239.001
c-22 -21.333 -50.667 -32 -86 -32c-19.333 0 -37 3.66699 -53 11l11 93c8.66699 -10 20 -15 34 -15c13.333 0 25 4.66699 35 14c21.333 19.333 38 78.666 50 177.999l48 393h291zM395 306.001l-29.001 -230h4c34.667 0 60.334 8 77.001 24c24 22.667 36 64.334 36 125.001
c0 29.333 -7.33301 50.666 -22 63.999c-12.667 11.333 -34 17 -64 17h-2z" />
    <glyph glyph-name="afii10059" unicode="&#x40a;" horiz-adv-x="574" 
d="M323 667l88 -0.000976562l-35 -285h6c57.333 0 100.333 -14.333 129 -43c25.333 -26 38 -64.667 38 -116c0 -81.333 -18.667 -140.666 -56 -177.999c-30 -30 -71.333 -45 -124 -45h-128l37 306h-129l-38 -306h-88l81 667h89l-35 -285h130zM367 305.999l-29.001 -230h4
c34.667 0 60.334 8 77.001 24c24 22.667 36 64.334 36 125.001c0 29.333 -7.33301 50.666 -22 63.999c-12.667 11.333 -34 17 -64 17h-2z" />
    <glyph glyph-name="afii10060" unicode="&#x40b;" horiz-adv-x="438" 
d="M63 0l71 588h-88l10 79h297l-10 -79h-121l-23 -194c22 8 45.333 12 70 12c40.667 0 72 -9 94 -27c26.667 -21.333 40 -54.333 40 -99c0 -12.667 -2.33301 -38.334 -7 -77.001l-25 -203h-89l26 212c2.66699 18.667 4 33.667 4 45c0 22.667 -5.33301 39.334 -16 50.001
c-11.333 11.333 -28 17 -50 17c-20 0 -39 -4 -57 -12l-39 -312h-87z" />
    <glyph glyph-name="afii10061" unicode="&#x40c;" horiz-adv-x="366" 
d="M405 667l-174 -325l95 -342h-92l-84 327l-39 -327h-88l81 667h89l-38 -306l158 306h92zM209 762l95 122l66 -39l-115 -112z" />
    <glyph glyph-name="afii10062" unicode="&#x40e;" horiz-adv-x="355" 
d="M50 667h94l34 -168c13.333 -65.333 22.333 -117.333 27 -156c14 50.667 29.667 101.667 47 153l58 171h90l-238 -667h-88l79 224zM306 827l81.998 -26.0029c-10 -31.333 -28.333 -55.666 -55 -72.999c-22.667 -14.667 -51.667 -22 -87 -22c-39.333 0 -71 8.33301 -95 25
s-40 40 -48 70l79 26c3.33301 -13.333 9 -24.666 17 -33.999c10.667 -11.333 26 -17 46 -17c18.667 0 33.334 5.33301 44.001 16c8.66699 8.66699 14.334 20.334 17.001 35.001z" />
    <glyph glyph-name="afii10145" unicode="&#x40f;" horiz-adv-x="408" 
d="M105 667h89l-73 -591h128l73 591h89l-82 -667h-110l-16 -130h-86l16 130h-110z" />
    <glyph glyph-name="afii10017" unicode="&#x410;" horiz-adv-x="355" 
d="M326 0h-88l-8 130h-131l-40 -130h-86l225 667h69zM120 199l105 -0.000976562c-6.66699 117.333 -10 205.333 -10 264c0 32.667 0.333008 57.334 1 74.001l-11.5 -46.5l-11.5 -46.5c-14 -55.333 -38.333 -137 -73 -245z" />
    <glyph glyph-name="afii10018" unicode="&#x411;" horiz-adv-x="354" 
d="M105 667l243 -0.000976562l-9 -76h-155l-26 -210h5c54.667 0 95 -12.667 121 -38c26.667 -25.333 40 -64.666 40 -117.999c0 -81.333 -19 -141 -57 -179c-30.667 -30.667 -72 -46 -124 -46h-120zM148 304.999l-28.001 -229h3c33.333 0 58 7.66699 74 23
c23.333 22 35 63 35 123c0 30 -6.66699 51.333 -20 64s-33.666 19 -60.999 19h-3z" />
    <glyph glyph-name="afii10019" unicode="&#x412;" horiz-adv-x="358" 
d="M104 667l120 0.000976562c81.333 0 122 -43 122 -129c0 -70 -13.333 -122.667 -40 -158c-14 -18 -35.333 -31.667 -64 -41c30 -12.667 50.167 -27.334 60.5 -44.001s15.5 -41.667 15.5 -75c0 -69.333 -17 -125 -51 -167c-28.667 -35.333 -71.667 -53 -129 -53h-115z
M152 373.001h6c28.667 0 50.667 7.66699 66 23c12 12 20.833 30 26.5 54s8.5 46.667 8.5 68c0 50.667 -21.667 76 -65 76h-15zM143 302.001l-27.998 -225.001c13.333 0 23.666 0.333008 30.999 1s15.833 3.16699 25.5 7.5s18.167 10.833 25.5 19.5
c20 24.667 30 63.334 30 116.001c0 30 -6.33301 51 -19 63s-34.334 18 -65.001 18z" />
    <glyph glyph-name="afii10020" unicode="&#x413;" horiz-adv-x="305" 
d="M341 667l-10 -76h-147l-73 -591h-88l81 667h237z" />
    <glyph glyph-name="afii10021" unicode="&#x414;" horiz-adv-x="455" 
d="M149 667h286.001l-73 -591h53l-26 -206h-82l17 130h-265l-17 -130h-82l26 206c27.333 12.667 48.666 29 63.999 49c11.333 14.667 20.833 32.667 28.5 54s13 40.5 16 57.5s6.5 42.167 10.5 75.5zM224.001 591l-30.999 -249.001l-3.5 -31
c-1.66699 -14.667 -2.83398 -24.167 -3.50098 -28.5l-3.5 -23.5c-1.66699 -11.333 -3 -19.333 -4 -24s-2.16699 -11.167 -3.5 -19.5s-2.83301 -15.166 -4.5 -20.499l-5.5 -18c-2 -6.66699 -4.33301 -13 -7 -19c-12.667 -32 -31 -59.333 -55 -82h171l64 515h-114z" />
    <glyph glyph-name="afii10022" unicode="&#x415;" horiz-adv-x="316" 
d="M339 667l-9 -76h-146l-26 -212h130l-10 -76h-130l-27 -227h146l-9 -76h-235l81 667h235z" />
    <glyph glyph-name="afii10024" unicode="&#x416;" horiz-adv-x="518" 
d="M481 0h-93l-76 329l-40 -329h-88l40 329l-156 -329h-93l173 347l-85 320h87l78 -308l38 308h88l-38 -308l154 308h87l-164 -323z" />
    <glyph glyph-name="afii10025" unicode="&#x417;" horiz-adv-x="343" 
d="M112 385h17.998c35.333 0 62.333 8.33301 81 25c21.333 19.333 32 48 32 86c0 30.667 -8 54.667 -24 72c-14.667 16 -34.667 24 -60 24c-30 0 -56.667 -12.333 -80 -37l11 91c26 19.333 56.667 29 92 29c43.333 0 78.333 -12.667 105 -38
c30.667 -29.333 46 -72.333 46 -129c0 -56 -14.667 -98 -44 -126c-14 -12.667 -32.667 -23 -56 -31c20 -3.33301 37 -12 51 -26c23.333 -23.333 35 -58 35 -104c0 -76 -22 -136 -66 -180c-33.333 -33.333 -76.666 -50 -129.999 -50c-42 0 -77.667 12.667 -107 38l12 91
c24 -28.667 53 -43 87 -43c31.333 0 56 9.33301 74 28c24 24.667 36 61 36 109c0 32 -8 56 -24 72c-15.333 15.333 -39.666 23 -72.999 23h-25z" />
    <glyph glyph-name="afii10026" unicode="&#x418;" horiz-adv-x="410" 
d="M23 0l82.002 666.999h88l-34 -271c-7.33301 -61.333 -22.333 -135.666 -45 -222.999c34.667 84.667 61.667 148.334 81 191.001l138 303h80l-82 -667h-88l36 295c9.33301 67.333 23.666 135.666 42.999 204.999c-26.667 -71.333 -50.334 -130.333 -71.001 -177l-148 -323
h-80z" />
    <glyph glyph-name="afii10027" unicode="&#x419;" horiz-adv-x="410" 
d="M23 0l82.002 666.999h88l-34 -271c-7.33301 -61.333 -22.333 -135.666 -45 -222.999c34.667 84.667 61.667 148.334 81 191.001l138 303h80l-82 -667h-88l36 295c9.33301 67.333 23.666 135.666 42.999 204.999c-26.667 -71.333 -50.334 -130.333 -71.001 -177l-148 -323
h-80zM330.002 826.999l81.998 -26.0029c-10 -31.333 -28.333 -55.666 -55 -72.999c-22.667 -14.667 -51.667 -22 -87 -22c-39.333 0 -71 8.33301 -95 25s-40 40 -48 70l79 26c3.33301 -13.333 9 -24.666 17 -33.999c10.667 -11.333 26 -17 46 -17
c18.667 0 33.334 5.33301 44.001 16c8.66699 8.66699 14.334 20.334 17.001 35.001z" />
    <glyph glyph-name="afii10028" unicode="&#x41a;" horiz-adv-x="366" 
d="M405 667l-174 -325l95 -342h-92l-84 327l-39 -327h-88l81 667h89l-38 -306l158 306h92z" />
    <glyph glyph-name="afii10029" unicode="&#x41b;" horiz-adv-x="436" 
d="M148 667l291 0.00195312l-82 -667h-90l73 591h-116l-40 -327c-16 -126.667 -41 -206.334 -75 -239.001c-22 -21.333 -50.667 -32 -86 -32c-19.333 0 -37 3.66699 -53 11l11 93c8.66699 -10 20 -15 34 -15c13.333 0 25 4.66699 35 14c21.333 19.333 38 78.666 50 177.999z
" />
    <glyph glyph-name="afii10030" unicode="&#x41c;" horiz-adv-x="497" 
d="M468 667l-22.001 -666.998h-85c8 144.667 13.667 237 17 277c1.33301 10 2.83301 24.833 4.5 44.5s2.83398 34.5 3.50098 44.5c5.33301 50 8 78.333 8 85v8l-24 -84l-18 -61l-98 -314h-60c-19.333 227.333 -29 380.333 -29 459l-82 -459h-83l136 667h75
c1.33301 -16.667 4.33301 -47.667 9 -93s8 -79.5 10 -102.5s4.33301 -53 7 -90s4.66699 -71.333 6 -103s2 -62.834 2 -93.501c1.33301 8.66699 10 40 26 94c2.66699 8 6.16699 20.167 10.5 36.5l9.5 36.5c1.33301 5.33301 3.83301 13.166 7.5 23.499l8.5 23.5l84 268h77z
" />
    <glyph glyph-name="afii10031" unicode="&#x41d;" horiz-adv-x="408" 
d="M411 667l-82 -667h-88l40 330h-129l-41 -330h-88l81 667h89l-32 -261h129l32 261h89z" />
    <glyph glyph-name="afii10032" unicode="&#x41e;" horiz-adv-x="416" 
d="M403 489c0 -117.333 -13.6689 -225.001 -41.002 -323.001c-15.333 -54 -36.666 -96.667 -63.999 -128s-66 -47 -116 -47c-94 0 -141 60 -141 180c0 110.667 10.667 212.334 32 305.001c13.333 60 34.333 108.167 63 144.5s70.334 54.5 125.001 54.5
c94.667 0 142 -62 142 -186zM310.998 494.999c0 12 -0.166016 21.1689 -0.499023 27.502s-1.5 14.833 -3.5 25.5s-4.83301 18.834 -8.5 24.501s-9.5 10.667 -17.5 15s-17.667 6.5 -29 6.5c-34 0 -58.667 -22 -74 -66c-4.66699 -12.667 -8.66699 -25.334 -12 -38.001
s-6.5 -27.834 -9.5 -45.501s-5 -30 -6 -37s-2.83301 -22.333 -5.5 -46s-4 -36.834 -4 -39.501c-7.33301 -60 -11 -109 -11 -147c0 -67.333 19.667 -101 59 -101c23.333 0 40.833 7.66699 52.5 23s21.167 36.666 28.5 63.999c11.333 44.667 20.666 99.334 27.999 164.001
c8.66699 69.333 13 126 13 170z" />
    <glyph glyph-name="afii10033" unicode="&#x41f;" horiz-adv-x="402" 
d="M405 667l-82 -667h-88l72 591h-123l-73 -591h-88l81 667h301z" />
    <glyph glyph-name="afii10034" unicode="&#x420;" horiz-adv-x="345" 
d="M104 667l116.999 0.00195312c50.667 0 86.834 -10.833 108.501 -32.5s32.5 -57.834 32.5 -108.501c0 -39.333 -6.33301 -77.833 -19 -115.5s-32.667 -65.834 -60 -84.501c-28.667 -20 -74 -30 -136 -30l-36 -296h-88zM156.999 373.002h8.00098
c68.667 0 103 44.333 103 133c0 28 -5.33301 49.167 -16 63.5s-29.334 21.5 -56.001 21.5h-12z" />
    <glyph glyph-name="afii10035" unicode="&#x421;" horiz-adv-x="332" 
d="M360 656l-9.00293 -80.998c-19.333 11.333 -37.666 17 -54.999 17c-51.333 0 -90 -32.333 -116 -97c-13.333 -32.667 -23.833 -73.834 -31.5 -123.501s-11.5 -94.834 -11.5 -135.501c0 -104.667 33.667 -157 101 -157c18.667 0 36.334 4.33301 53.001 13l-10 -82
c-21.333 -12.667 -45.666 -19 -72.999 -19c-110.667 0 -166 75 -166 225c0 113.333 17.667 215.333 53 306c18 46 43.167 83 75.5 111s71.5 42 117.5 42c28 0 52 -6.33301 72 -19z" />
    <glyph glyph-name="afii10036" unicode="&#x422;" horiz-adv-x="284" 
d="M342 667l-10 -79h-102l-72 -588h-87l73 588h-102l10 79h290z" />
    <glyph glyph-name="afii10037" unicode="&#x423;" horiz-adv-x="355" 
d="M50 667h94l34 -168c13.333 -65.333 22.333 -117.333 27 -156c14 50.667 29.667 101.667 47 153l58 171h90l-238 -667h-88l79 224z" />
    <glyph glyph-name="afii10038" unicode="&#x424;" horiz-adv-x="508" 
d="M180 0l10.999 85.999c-42 6.66699 -76 23.667 -102 51c-36 36.667 -54 90.334 -54 161.001c0 49.333 7.16699 97.333 21.5 144s36.5 85 66.5 115c36 35.333 80 54.333 132 57l9 80h90l-9 -80c40.667 -6 74.334 -23 101.001 -51c36.667 -38 55 -93 55 -165
c0 -118 -27 -203 -81 -255c-38.667 -35.333 -85 -54.333 -139 -57l-11 -86h-90zM329.999 537.999l-46 -376.003c27.333 2.66699 50 13.334 68 32.001c20.667 20.667 35.667 51.334 45 92.001s14 80.334 14 119.001c0 45.333 -9.33301 79.333 -28 102
c-14 16.667 -31.667 27 -53 31zM205.999 161.996l46 375.999c-29.333 -5.33301 -53 -18 -71 -38c-18.667 -20 -32.667 -49.667 -42 -89s-14 -77.666 -14 -114.999c0 -41.333 8 -73 24 -95c13.333 -19.333 32.333 -32.333 57 -39z" />
    <glyph glyph-name="afii10039" unicode="&#x425;" horiz-adv-x="327" 
d="M383 667l-161.999 -327.999l80 -339h-89l-14 60c-6.66699 28 -11.667 49.833 -15 65.5s-6.83301 35.167 -10.5 58.5s-5.83398 45 -6.50098 65c-3.33301 -14 -16.333 -48.333 -39 -103c-6.66699 -16.667 -17.167 -41 -31.5 -73s-24.833 -56.333 -31.5 -73h-94l166 339
l-76 328h86l18 -73c9.33301 -38 16.333 -69.333 21 -94s7.66699 -49.334 9 -74.001c11.333 35.333 22 63.333 32 84c0.666992 2 2 5.16699 4 9.5s3.66699 7.5 5 9.5l59 138h89z" />
    <glyph glyph-name="afii10040" unicode="&#x426;" horiz-adv-x="415" 
d="M105 667h90l-73 -591h124l73 591h90l-73 -591h59l-25 -206h-86l16 130h-277z" />
    <glyph glyph-name="afii10041" unicode="&#x427;" horiz-adv-x="387" 
d="M390 667l-81.998 -667.001h-88l39 320c-20.667 -6 -42.334 -9 -65.001 -9c-40 0 -72.333 9.66699 -97 29c-24.667 20 -37 49.333 -37 88c0 17.333 2 42 6 74l20 165h88l-21 -171c-2.66699 -21.333 -4 -36.666 -4 -45.999c0 -20 5.66699 -34.333 17 -43
c11.333 -9.33301 28.666 -14 51.999 -14c17.333 0 34.333 3.33301 51 10l33 264h88z" />
    <glyph glyph-name="afii10042" unicode="&#x428;" horiz-adv-x="604" 
d="M105 667h88l-73 -591h119l73 591h88l-73 -591h119l73 591h88l-82 -667h-502z" />
    <glyph glyph-name="afii10043" unicode="&#x429;" horiz-adv-x="615" 
d="M105 667h88l-73 -591h120l73 591h88l-73 -591h120l73 591h88l-73 -591h67l-25 -206h-86l16 130h-485z" />
    <glyph glyph-name="afii10044" unicode="&#x42a;" horiz-adv-x="403" 
d="M70 0l72 590.999h-87l9 76h176l-35 -285h6c57.333 0 100.333 -14.333 129 -43c25.333 -26 38 -64.667 38 -116c0 -81.333 -18.667 -140.666 -56 -177.999c-30 -30 -71.333 -45 -124 -45h-128zM196 305.999l-29.001 -230h4c34.667 0 60.334 8 77.001 24
c24 22.667 36 64.334 36 125.001c0 29.333 -7.33301 50.666 -22 63.999c-12.667 11.333 -34 17 -64 17h-2z" />
    <glyph glyph-name="afii10045" unicode="&#x42b;" horiz-adv-x="514" 
d="M517 667l-82 -667h-87l81 667h88zM105 667l88 -0.000976562l-35 -285h6c57.333 0 100.333 -14.333 129 -43c25.333 -26 38 -64.667 38 -116c0 -81.333 -18.667 -140.666 -56 -177.999c-30 -30 -71.333 -45 -124 -45h-128zM149 305.999l-29.001 -230h4
c34.667 0 60.334 8 77.001 24c24 22.667 36 64.334 36 125.001c0 29.333 -7.33301 50.666 -22 63.999c-12.667 11.333 -34 17 -64 17h-2z" />
    <glyph glyph-name="afii10046" unicode="&#x42c;" horiz-adv-x="356" 
d="M105 667l88 -0.000976562l-35 -285h6c57.333 0 100.333 -14.333 129 -43c25.333 -26 38 -64.667 38 -116c0 -81.333 -18.667 -140.666 -56 -177.999c-30 -30 -71.333 -45 -124 -45h-128zM149 305.999l-29.001 -230h4c34.667 0 60.334 8 77.001 24
c24 22.667 36 64.334 36 125.001c0 29.333 -7.33301 50.666 -22 63.999c-12.667 11.333 -34 17 -64 17h-2z" />
    <glyph glyph-name="afii10047" unicode="&#x42d;" horiz-adv-x="374" 
d="M20 26l11.002 94c22.667 -27.333 49.334 -41 80.001 -41c27.333 0 50.333 9 69 27c37.333 34.667 61 102.667 71 204h-153l9 76h152c2 18.667 3 37 3 55c0 63.333 -12.333 106.333 -37 129c-14.667 14.667 -34.334 22 -59.001 22c-28.667 0 -54 -12 -76 -36l12 95
c24.667 16.667 52.667 25 84 25c46 0 84 -14.333 114 -43c39.333 -39.333 59 -104 59 -194c0 -74.667 -7.33301 -144 -22 -208c-20 -88 -49.333 -151 -88 -189c-34.667 -34 -78.334 -51 -131.001 -51c-38.667 0 -71.334 11.667 -98.001 35z" />
    <glyph glyph-name="afii10048" unicode="&#x42e;" horiz-adv-x="586" 
d="M431 675c39.333 0 70.666 -10.333 93.999 -31c32 -28 48 -80.333 48 -157c0 -84.667 -7.33301 -165 -22 -241c-19.333 -103.333 -47 -173 -83 -209c-30.667 -30.667 -70.667 -46 -120 -46c-40 0 -71.333 12 -94 36c-27.333 28.667 -41 79 -41 151
c0 44.667 2.66699 93.667 8 147h-70l-40 -325h-88l81 667h89l-34 -266h71c16.667 111.333 45.334 187.333 86.001 228c30 30.667 68.333 46 115 46zM422 594c-18.667 0 -34.668 -7 -48.001 -21c-20 -20.667 -36.333 -68 -49 -142c-6 -32 -11.667 -75.333 -17 -130
s-8 -96.667 -8 -126c0 -44 7.33301 -73 22 -87c10.667 -9.33301 23 -14 37 -14c18 0 34 6.33301 48 19c20.667 19.333 37.334 69 50.001 149c16 102 24 189.667 24 263c0 34.667 -5.33301 58.667 -16 72c-10 11.333 -24.333 17 -43 17z" />
    <glyph glyph-name="afii10049" unicode="&#x42f;" horiz-adv-x="374" 
d="M10 0l148 308c-27.333 8.66699 -49.333 24.334 -66 47.001c-16.667 24 -25 56 -25 96c0 39.333 6.5 75.666 19.5 108.999s29.833 58.333 50.5 75c17.333 14 35.5 22.833 54.5 26.5s42.833 5.5 71.5 5.5h114l-82 -667h-88l38 304l-136 -304h-99zM280 593h-19
c-28 0 -49.667 -7 -65 -21c-24.667 -22.667 -37 -60.667 -37 -114c0 -29.333 7 -51.333 21 -66c14.667 -15.333 37 -23 67 -23h5z" />
    <glyph glyph-name="afii10065" unicode="&#x430;" horiz-adv-x="343" 
d="M324 447l-54.999 -447.001h-81l7 57c-12 -21.333 -24.5 -37.333 -37.5 -48s-30.167 -16 -51.5 -16c-55.333 0 -83 43.333 -83 130c0 30 1.5 60.5 4.5 91.5s8.83301 66.333 17.5 106s23.167 71.834 43.5 96.501s45.166 37 74.499 37c34 0 58.667 -19.333 74 -58l6 51h81z
M224.001 308.999c0 46.667 -12.667 70.001 -38 70.001c-29.333 0 -50 -28.333 -62 -85c-12 -55.333 -18 -107 -18 -155s13.667 -72 41 -72c26 0 45 25.333 57 76c13.333 55.333 20 110.666 20 165.999z" />
    <glyph glyph-name="afii10066" unicode="&#x431;" horiz-adv-x="348" 
d="M299 700l74.998 -0.00585938c-2 -32 -12 -59 -30 -81c-14 -17.333 -37.333 -33.333 -70 -48l-40 -18c-18 -8 -33.167 -16.667 -45.5 -26s-23.166 -22.333 -32.499 -39c-16.667 -28 -27.667 -61.333 -33 -100c6.66699 18 17.334 33 32.001 45c16.667 14 37 21 61 21
c26.667 0 48.334 -8.33301 65.001 -25c24 -24 36 -67 36 -129c0 -24.667 -1.16699 -50 -3.5 -76s-9.66602 -59.333 -21.999 -100s-29.166 -71.667 -50.499 -93c-26 -25.333 -57 -38 -93 -38c-41.333 0 -72 16 -92 48c-17.333 28.667 -26 70.667 -26 126
c0 84.667 11 174.334 33 269.001c13.333 58 32.666 102 57.999 132c21.333 25.333 50.666 46.333 87.999 63c5.33301 2.66699 12.5 5.83398 21.5 9.50098l19.5 8c4 1.66699 8.66699 3.83398 14 6.50098s9.66602 5.33398 12.999 8.00098s6.33301 5.33398 9 8.00098
c8 8.66699 12.333 18.334 13 29.001zM193.998 378.994c-11.333 0 -21.001 -3.66504 -29.001 -10.998c-14.667 -12.667 -26.667 -44.334 -36 -95.001c-8.66699 -50.667 -13 -96 -13 -136c0 -28.667 5.33301 -48 16 -58c6 -6 14 -9 24 -9s19.333 3.66699 28 11
c16.667 14.667 29.334 48 38.001 100c8 47.333 12 91 12 131c0 29.333 -5.33301 48.666 -16 57.999c-7.33301 6 -15.333 9 -24 9z" />
    <glyph glyph-name="afii10067" unicode="&#x432;" horiz-adv-x="318" 
d="M73 447l104 -0.000976562c43.333 0 74.666 -9.66699 93.999 -29c18 -17.333 27 -43 27 -77c0 -38 -10 -66.333 -30 -85c-9.33301 -8.66699 -25.666 -17 -48.999 -25c15.333 -3.33301 29.333 -10.666 42 -21.999c16.667 -16 25 -39 25 -69c0 -42.667 -12 -76.667 -36 -102
s-59.333 -38 -106 -38h-126zM132 259.999h16c22.667 0 39 4.33301 49 13c14 12 21 30.667 21 56c0 18 -5 31.333 -15 40c-9.33301 8 -25 12 -47 12h-9zM108 65.999h13c26 0 44.667 5.33301 56 16c14 12.667 21 33 21 61c0 20 -5.33301 35 -16 45c-10 9.33301 -27 14 -51 14
h-6z" />
    <glyph glyph-name="afii10068" unicode="&#x433;" horiz-adv-x="260" 
d="M266 373h-120l-46 -373h-82l55 447h202z" />
    <glyph glyph-name="afii10069" unicode="&#x434;" horiz-adv-x="352" 
d="M93 447h240l-46 -373h39l-22 -178h-74l13 104h-195l-14 -104h-74l23 178c15.333 4.66699 28.666 12 39.999 22c20.667 20 34.334 56.667 41.001 110zM205 74l37 299h-82l-20 -158c-6 -43.333 -11 -71 -15 -83c-7.33301 -22.667 -19.333 -42 -36 -58h116z" />
    </font>
</defs>
</svg>
