<?xml version="1.0" standalone="no"?>
<!DOCTYPE svg PUBLIC "-//W3C//DTD SVG 1.1//EN" "http://www.w3.org/Graphics/SVG/1.1/DTD/svg11.dtd" >
<svg>
<metadata>
Created by FontForge 20090914 at Tue Aug  4 21:47:42 2020
 By www-data
Copyright &#194;&#169; 1995 ParaGraph Intl., &#194;&#169; 1998 ParaType Inc., ParaType Ltd. All rights reserved.
</metadata>
<defs>
<font id="FuturaPTCond-BookObl" horiz-adv-x="493" >
  <font-face 
    font-family="Futura PT Cond Book Italic"
    font-weight="400"
    font-style="italic"
    font-stretch="condensed"
    units-per-em="1000"
    panose-1="2 11 4 6 2 2 4 9 2 3"
    ascent="763"
    descent="-237"
    x-height="447"
    cap-height="667"
    bbox="-172 -250 757 903"
    underline-thickness="50"
    underline-position="-150"
    slope="-7"
    unicode-range="U+0020-U+FB02"
  />
<missing-glyph horiz-adv-x="233" 
 />
    <glyph glyph-name="afii10017.var.accented" unicode="&#x410;`" horiz-adv-x="320" 
d="M291 0h-65l-8 137h-139l-41 -137h-65l211 667h58zM215 191l-14.001 234.997c-2 26.667 -3 53.334 -3 80.001c0 25.333 1 51 3 77c-5.33301 -31.333 -12.666 -65.666 -21.999 -102.999s-17.333 -67.666 -24 -90.999l-31 -104.5l-28 -93.5h119zM319.999 816.997l-126 -103
l-32 26l110 120z" />
    <glyph glyph-name="afii10022.var.accented" unicode="&#x415;`" horiz-adv-x="297" 
d="M313 667l-7 -57h-144l-29 -235h140l-6 -57h-141l-32 -261h144l-7 -57h-205l82 667h205zM309 817l-126 -103l-32 26l110 120z" />
    <glyph glyph-name="afii10026.var.accented" unicode="&#x418;`" horiz-adv-x="392" 
d="M26 0l82 666.999h62l-55 -444c-3.33301 -26.667 -9 -55.667 -17 -87l16.5 40c5 12.667 8.66699 21.667 11 27s4.5 10 6.5 14l198 450h62l-82 -667h-62l53 426c4.66699 37.333 11 72.333 19 105c-11.333 -29.333 -24.333 -60.666 -39 -93.999l-193 -437h-62zM356 816.999
l-126 -103l-32 26l110 120z" />
    <glyph glyph-name="afii10032.var.accented" unicode="&#x41e;`" horiz-adv-x="398" 
d="M382 477c0 -128 -15.668 -238.002 -47.001 -330.002c-34 -104 -89 -156 -165 -156c-85.333 0 -128 71.667 -128 215c0 31.333 1.5 64.5 4.5 99.5s9.16699 75.333 18.5 121s21.333 86.334 36 122.001s35.334 65.834 62.001 90.501s57 37 91 37
c85.333 0 128 -66.333 128 -199zM320.999 481.998c0 89.333 -24.332 134 -72.999 134c-30.667 0 -56 -17.333 -76 -52c-22.667 -38 -39.667 -94.333 -51 -169s-17 -142.667 -17 -204c0 -93.333 24.333 -140 73 -140c33.333 0 60.333 19.333 81 58
c19.333 36 34.666 93 45.999 171s17 145.333 17 202zM359 816.998l-126 -103l-32 26l110 120z" />
    <glyph glyph-name="afii10037.var.accented" unicode="&#x423;`" horiz-adv-x="331" 
d="M55 667h68l42 -205c12 -58 20.333 -109.333 25 -154c10.667 42.667 29 97 55 163l76 196h62l-249 -667h-60l78 221zM326 817l-126 -103l-32 26l110 120z" />
    <glyph glyph-name="afii10045.var.accented" unicode="&#x42b;`" horiz-adv-x="482" 
d="M400 0h-62l82 667h62zM134 378h27.999c49.333 0 87 -13 113 -39c24.667 -24.667 37 -61.667 37 -111c0 -92.667 -21.667 -157 -65 -193c-27.333 -23.333 -64.666 -35 -111.999 -35h-109l82 667h62zM94.999 53h33c32 0 57 7.66699 75 23c30.667 26 46 75.333 46 148
c0 35.333 -8.66699 61 -26 77c-14.667 13.333 -39 20 -73 20h-23zM400.999 817l-126 -103l-32 26l110 120z" />
    <glyph glyph-name="afii10047.var.accented" unicode="&#x42d;`" horiz-adv-x="362" 
d="M10 28l11 82.998c8.66699 -17.333 20.667 -31.666 36 -42.999s32.333 -17 51 -17c25.333 0 48 10 68 30c22 22 41.333 56.333 58 103c16 44.667 27 89.334 33 134.001h-163l7 57h163c4 37.333 3.5 77 -1.5 119s-16.5 73 -34.5 93c-17.333 19.333 -39.333 29 -66 29
c-18.667 0 -35.667 -5 -51 -15c-12 -8 -24.333 -19 -37 -33l10 83c25.333 16.667 54 25 86 25c42 0 77 -14 105 -42c38 -39.333 57 -104.333 57 -195c0 -100 -15.333 -192.333 -46 -277c-20.667 -58 -46.667 -101 -78 -129c-30.667 -28 -68.667 -42 -114 -42
c-36.667 0 -68 12.333 -94 37zM301 816.998l-126 -103l-32 26l110 120z" />
    <glyph glyph-name="afii10048.var.accented" unicode="&#x42e;`" horiz-adv-x="548" 
d="M136 401l80.001 -0.00195312c18 112 49.667 190 95 234c27.333 27.333 59.666 41 96.999 41c31.333 0 57.666 -11 78.999 -33c18.667 -20 30.834 -44.167 36.501 -72.5s8.5 -63.166 8.5 -104.499c0 -69.333 -7 -144.666 -21 -225.999c-16 -94.667 -44 -163 -84 -205
c-28.667 -29.333 -61.667 -44 -99 -44c-35.333 0 -64 12.667 -86 38c-28.667 34 -43 92.667 -43 176c0 48.667 3 95 9 139h-79l-42 -344h-61l82 667h61zM400.001 615.998c-18.667 0 -35.668 -8.00098 -51.001 -24.001c-23.333 -25.333 -42.666 -69.333 -57.999 -132
c-20 -80 -30 -167.667 -30 -263c0 -63.333 9.33301 -105.666 28 -126.999c11.333 -12.667 26.333 -19 45 -19c19.333 0 37 9 53 27c30.667 34.667 53 101 67 199c11.333 82 17 151 17 207c0 58 -9.66699 96.667 -29 116c-10.667 10.667 -24.667 16 -42 16zM434 816.997
l-126 -103l-32 26l110 120z" />
    <glyph glyph-name="afii10049.var.accented" unicode="&#x42f;`" horiz-adv-x="374" 
d="M0 0l187 314c-30 5.33301 -54.667 18 -74 38c-23.333 24.667 -35 60.667 -35 108c0 76 20.333 132 61 168c29.333 26 75.333 39 138 39h97l-82 -667h-68l39 320l-187 -320h-76zM269 369l30.001 241.001h-36c-33.333 0 -58.333 -7.33301 -75 -22
c-28.667 -24.667 -43 -66.667 -43 -126c0 -32.667 8 -56.334 24 -71.001c15.333 -14.667 39.666 -22 72.999 -22h27zM347.001 817.001l-126 -103l-32 26l110 120z" />
    <glyph glyph-name="afii10023.var.accented" unicode="&#x401;`" horiz-adv-x="297" 
d="M313 667l-7 -57h-144l-29 -235h140l-6 -57h-141l-32 -261h144l-7 -57h-205l82 667h205zM291 828l-111 -103l-20 15l95 120zM158 776c0 -10.667 -3.83203 -19.833 -11.499 -27.5s-16.834 -11.5 -27.501 -11.5c-8.66699 0 -15.834 3 -21.501 9s-8.5 13.333 -8.5 22
c0 10 4 19 12 27s17 12 27 12c8.66699 0 15.834 -3 21.501 -9s8.5 -13.333 8.5 -22zM333.001 776.001c0 -10.667 -3.99902 -19.833 -11.999 -27.5s-17 -11.5 -27 -11.5c-8.66699 0 -15.834 3 -21.501 9s-8.5 13.333 -8.5 22c0 10 3.83301 19 11.5 27s16.5 12 26.5 12
c9.33301 0 16.833 -2.83301 22.5 -8.5s8.5 -13.167 8.5 -22.5z" />
    <glyph glyph-name="afii10065.var.accented" unicode="&#x430;`" horiz-adv-x="322" 
d="M300 447l-55 -447h-55l4 36c-25.333 -28.667 -52.333 -43 -81 -43c-54.667 0 -82 40 -82 120c0 46.667 4.33301 99.167 13 157.5s21.667 101.833 39 130.5c22 35.333 53 53 93 53c27.333 0 49 -12.333 65 -37l4 30h55zM231 327c0 54.667 -16 82 -48 82
c-21.333 0 -39 -12.333 -53 -37c-13.333 -24 -23.666 -61.833 -30.999 -113.5s-11 -96.5 -11 -134.5c0 -56.667 16 -85 48 -85c12.667 0 23.5 3.16699 32.5 9.5s16.167 15.5 21.5 27.5s9.16602 22.667 11.499 32s4.83301 20.666 7.5 33.999
c14.667 74.667 22 136.334 22 185.001zM323 610l-126 -103l-32 26l110 120z" />
    <glyph glyph-name="afii10070.var.accented" unicode="&#x435;`" horiz-adv-x="308" 
d="M207 152l56.001 -0.000976562c-6.66699 -44 -20.334 -81.5 -41.001 -112.5s-50.667 -46.5 -90 -46.5c-69.333 0 -104 53.333 -104 160c0 44 4.33301 85.333 13 124c5.33301 27.333 13.333 53.333 24 78s26.667 47.334 48 68.001s45.333 31 72 31c64 0 96 -51.667 96 -155
c0 -27.333 -2.66699 -56.333 -8 -87h-185c-3.33301 -22 -5 -41.667 -5 -59c0 -71.333 18 -107 54 -107c12 0 22.333 3.33301 31 10s15.5 16.5 20.5 29.5s8.66699 24 11 33s4.83301 20.167 7.5 33.5zM94.001 259.999h131c1.33301 21.333 2 38.333 2 51
c0 60.667 -15.667 91 -47 91c-42 0 -70.667 -47.333 -86 -142zM316.001 609.999l-126 -103l-32 26l110 120z" />
    <glyph glyph-name="afii10074.var.accented" unicode="&#x438;`" horiz-adv-x="331" 
d="M254 0l-55.999 -0.000976562l33 274c2 20.667 5.33301 41.334 10 62.001c-8.66699 -24.667 -18.334 -47 -29.001 -67l-135 -269h-56l55 447h56l-33 -271c-3.33301 -26 -7.33301 -49 -12 -69c12 28 22 50 30 66l136 274h56zM328.001 609.999l-126 -103l-32 26l110 120z
" />
    <glyph glyph-name="afii10080.var.accented" unicode="&#x43e;`" horiz-adv-x="318" 
d="M290 328l-0.000976562 -17c0 -31.333 -2 -62.5 -6 -93.5s-11 -64.833 -21 -101.5s-26.167 -66.334 -48.5 -89.001s-49.5 -34 -81.5 -34c-70 0 -105 54 -105 162c0 28.667 2.33301 58.5 7 89.5s12.5 63 23.5 96s27.833 60.167 50.5 81.5s49.334 32 80.001 32
c34 0 59.333 -12.167 76 -36.5s25 -54.166 25 -89.499zM231.999 298c0 69.333 -16.667 104.003 -50 104.003c-19.333 0 -35.833 -10.167 -49.5 -30.5s-23.667 -45.833 -30 -76.5s-10.833 -58.334 -13.5 -83.001s-4 -46.334 -4 -65.001c0 -67.333 17.667 -101 53 -101
c18.667 0 34.667 10 48 30s23 45.167 29 75.5s10.333 57.666 13 81.999s4 45.833 4 64.5zM320.999 610.003l-126 -103l-32 26l110 120z" />
    <glyph glyph-name="afii10085.var.accented" unicode="&#x443;`" horiz-adv-x="291" 
d="M312 447l-232 -626.999h-59l71 192l-52 435h57l25 -248c4 -36.667 6 -74 6 -112c4 13.333 15.667 47.666 35 102.999l91 257h58zM305 610.001l-126 -103l-32 26l110 120z" />
    <glyph glyph-name="afii10093.var.accented" unicode="&#x44b;`" horiz-adv-x="422" 
d="M347 0h-56l55 447h56zM21 0l54.999 447h56l-21 -175h13c52.667 0 89.667 -11.333 111 -34c18.667 -20 28 -48 28 -84c0 -52 -14 -91.333 -42 -118c-25.333 -24 -65.666 -36 -120.999 -36h-79zM83.999 52h28.999c28.667 0 50.334 7 65.001 21c17.333 17.333 26 43 26 77
c0 23.333 -6 41 -18 53c-12 11.333 -32.667 17 -62 17h-20zM373.998 610l-126 -103l-32 26l110 120z" />
    <glyph glyph-name="afii10095.var.accented" unicode="&#x44d;`" horiz-adv-x="276" 
d="M10 29l9.00293 70.001c6 -14.667 14.333 -26.667 25 -36c12 -11.333 26.667 -17 44 -17c16.667 0 32 7 46 21c27.333 26 44.666 73.333 51.999 142h-114l7 52h113c2 24 0.5 47.667 -4.5 71s-12.5 40.666 -22.5 51.999c-10.667 12 -25.667 18 -45 18
c-13.333 0 -25.333 -4 -36 -12c-10.667 -7.33301 -20.334 -17 -29.001 -29l9 75c19.333 12 41 18 65 18c32.667 0 59 -10 79 -30c28.667 -28.667 43 -75.667 43 -141c0 -48 -5 -93 -15 -135c-12 -51.333 -32.333 -91 -61 -119c-24 -24 -53.333 -36 -88 -36
c-32.667 0 -58.334 12 -77.001 36zM250.003 610.001l-126 -103l-32 26l110 120z" />
    <glyph glyph-name="afii10096.var.accented" unicode="&#x44e;`" horiz-adv-x="439" 
d="M109 261l55.999 -0.000976562c10.667 72.667 32.334 126 65.001 160c21.333 22 48 33 80 33c27.333 0 49.333 -8.33301 66 -25c23.333 -22.667 35 -62 35 -118c0 -60.667 -5.33301 -113.667 -16 -159c-12 -55.333 -32 -97 -60 -125c-22.667 -22.667 -49 -34 -79 -34
c-28 0 -50.667 9.33301 -68 28c-30 34.667 -40.333 97.334 -31 188.001h-54l-26 -209h-56l55 447h56zM303.999 401.999c-13.333 0 -24.999 -4.66699 -34.999 -14c-18.667 -17.333 -33.667 -54 -45 -110c-9.33301 -46.667 -14 -91 -14 -133c0 -35.333 4.66699 -61 14 -77
c8 -14.667 20 -22 36 -22c14 0 26.333 5.66699 37 17c19.333 20.667 33.666 55.667 42.999 105c8.66699 48 13 95 13 141c0 36 -5.66699 61.667 -17 77c-8 10.667 -18.667 16 -32 16zM383 609.999l-126 -103l-32 26l110 120z" />
    <glyph glyph-name="afii10097.var.accented" unicode="&#x44f;`" horiz-adv-x="303" 
d="M0 0l134 187.001c-26.667 5.33301 -47.667 15 -63 29c-20 18.667 -30 45 -30 79c0 51.333 14.667 90.666 44 117.999c24 22.667 60.333 34 109 34h89l-55 -447h-56l22 182l-124 -182h-70zM200 234.001l20 161h-30c-27.333 0 -48 -6.33301 -62 -19
c-18 -16 -27 -39.667 -27 -71c0 -27.333 8 -46.333 24 -57c13.333 -9.33301 32.333 -14 57 -14h18zM314 610.001l-126 -103l-32 26l110 120z" />
    <glyph glyph-name="afii10071.var.accented" unicode="&#x451;`" horiz-adv-x="308" 
d="M207 152l56.001 -0.000976562c-6.66699 -44 -20.334 -81.5 -41.001 -112.5s-50.667 -46.5 -90 -46.5c-69.333 0 -104 53.333 -104 160c0 44 4.33301 85.333 13 124c5.33301 27.333 13.333 53.333 24 78s26.667 47.334 48 68.001s45.333 31 72 31c64 0 96 -51.667 96 -155
c0 -27.333 -2.66699 -56.333 -8 -87h-185c-3.33301 -22 -5 -41.667 -5 -59c0 -71.333 18 -107 54 -107c12 0 22.333 3.33301 31 10s15.5 16.5 20.5 29.5s8.66699 24 11 33s4.83301 20.167 7.5 33.5zM94.001 259.999h131c1.33301 21.333 2 38.333 2 51
c0 60.667 -15.667 91 -47 91c-42 0 -70.667 -47.333 -86 -142zM273.001 616.999l-107 -103l-25 19l91 120zM139.001 567.999c0 -11.333 -4.16699 -21.166 -12.5 -29.499s-18.166 -12.5 -29.499 -12.5c-9.33301 0 -17 3.16699 -23 9.5s-9 14.166 -9 23.499
c0 10.667 4.16699 20.167 12.5 28.5s17.833 12.5 28.5 12.5c9.33301 0 17.166 -3 23.499 -9s9.5 -13.667 9.5 -23zM321.001 567.999c0 -11.333 -4.16699 -21.166 -12.5 -29.499s-18.166 -12.5 -29.499 -12.5c-8.66699 0 -16.167 3.16699 -22.5 9.5s-9.5 14.166 -9.5 23.499
c0 10.667 4.16699 20.167 12.5 28.5s17.833 12.5 28.5 12.5c9.33301 0 17.166 -3 23.499 -9s9.5 -13.667 9.5 -23z" />
    <glyph glyph-name="fi" unicode="fi" horiz-adv-x="344" 
d="M261 730l-6.99805 -62.002c-14.667 13.333 -27.334 20 -38.001 20s-19.334 -3.66699 -26.001 -11s-10.667 -14.166 -12 -20.499s-3 -16.166 -5 -29.499l-24 -180h76l-7 -52h-75l-49 -395h-56l49 395h-51l7 52h51l22 179c9.33301 76 42 114 98 114
c17.333 0 33 -3.33301 47 -10zM352.002 592.998c0 -12.667 -4.66602 -23.666 -13.999 -32.999s-20.333 -14 -33 -14c-10.667 0 -19.5 3.5 -26.5 10.5s-10.5 15.5 -10.5 25.5c0 13.333 4.66699 24.666 14 33.999s20.666 14 33.999 14c10 0 18.5 -3.5 25.5 -10.5
s10.5 -15.833 10.5 -26.5zM320.003 446.999l-54 -447h-56l55 447h55z" />
    <glyph glyph-name="fl" unicode="fl" horiz-adv-x="344" 
d="M261 730l-6.99805 -62.002c-14.667 13.333 -27.334 20 -38.001 20s-19.334 -3.66699 -26.001 -11s-10.667 -14.166 -12 -20.499s-3 -16.166 -5 -29.499l-24 -180h76l-7 -52h-75l-49 -395h-56l49 395h-51l7 52h51l22 179c9.33301 76 42 114 98 114
c17.333 0 33 -3.33301 47 -10zM355.002 728.998l-89 -729h-56l90 729h55z" />
    <glyph glyph-name=".notdef" horiz-adv-x="233" 
 />
    <glyph glyph-name="space" unicode=" " horiz-adv-x="233" 
 />
    <glyph glyph-name="exclam" unicode="!" horiz-adv-x="233" 
d="M200 667l-62 -500h-59l62 500h59zM138 44c0 -13.333 -5 -25.166 -15 -35.499s-21.667 -15.5 -35 -15.5c-11.333 0 -20.666 3.83301 -27.999 11.5s-11 17.167 -11 28.5c0 13.333 5 25 15 35s21.667 15 35 15c11.333 0 20.666 -3.83301 27.999 -11.5s11 -16.834 11 -27.501
z" />
    <glyph glyph-name="quotedbl" unicode="&#x22;" horiz-adv-x="302" 
d="M288 667l-10 -269h-41l-9 269h60zM159 667l-9 -269h-41l-10 269h60z" />
    <glyph glyph-name="numbersign" unicode="#" horiz-adv-x="600" 
d="M597 465l-14 -51h-111l-41 -149h112l-14 -50h-113l-58 -215h-57l59 215h-150l-59 -215h-56l59 215h-115l14 50h115l41 149h-115l14 51h115l55 202h56l-55 -202h150l55 202h57l-56 -202h112zM415 414h-150l-41 -149h151z" />
    <glyph glyph-name="dollar" unicode="$" horiz-adv-x="366" 
d="M352 636l-35.9971 -47.002c-28.667 20 -56.334 30 -83.001 30c-32.667 0 -59.167 -11.5 -79.5 -34.5s-30.5 -51.167 -30.5 -84.5c0 -24.667 5 -46.167 15 -64.5s22.667 -32.833 38 -43.5l49 -34c17.333 -12 33.666 -23.833 48.999 -35.5s28 -28 38 -49
s15 -45.167 15 -72.5c0 -51.333 -14.167 -96.666 -42.5 -135.999s-65.166 -63 -110.499 -71l-11 -85h-47l10 83c-24.667 4 -44.167 10 -58.5 18s-29.5 21 -45.5 39l41 43c32 -29.333 62 -44 90 -44c33.333 0 61 13.833 83 41.5s33 60.5 33 98.5
c0 22.667 -4.66699 42.334 -14 59.001c-2.66699 4 -5.83398 8.16699 -9.50098 12.5s-7.33398 8.16602 -11.001 11.499s-8.5 7.33301 -14.5 12s-10.667 8.16699 -14 10.5l-15 10l-13 8.5c-27.333 18.667 -47.5 33.667 -60.5 45s-25 28.166 -36 50.499s-16.5 48.5 -16.5 78.5
c0 46.667 12.167 86.834 36.5 120.501s59.166 55.834 104.499 66.501l9 78h48l-9 -76c34.667 -2 67.334 -15 98.001 -39z" />
    <glyph glyph-name="percent" unicode="%" horiz-adv-x="511" 
d="M477 667l-371 -667h-46l371 667h46zM173 629c-10.667 0 -19.334 -3.33301 -26.001 -10c-9.33301 -8.66699 -18.333 -39.667 -27 -93c-7.33301 -46 -11 -79.667 -11 -101c0 -18 2.33301 -31.333 7 -40c5.33301 -9.33301 14 -14 26 -14s21.667 5.66699 29 17
c9.33301 14 17.333 45.333 24 94c6 42 9 76.333 9 103c0 16 -3 27.333 -9 34c-5.33301 6.66699 -12.666 10 -21.999 10zM249 576c0 -34 -3.66895 -72.334 -11.002 -115.001c-8.66699 -53.333 -22 -89.666 -40 -108.999c-15.333 -15.333 -35 -23 -59 -23
s-42.333 6.66699 -55 20c-14 15.333 -21 40 -21 74c0 33.333 4.66699 75.666 14 126.999c8 48.667 21 81.334 39 98.001c16.667 15.333 37.334 23 62.001 23c20.667 0 37.334 -6.33301 50.001 -19c14 -14 21 -39.333 21 -76zM391.998 294.999
c-10.667 0 -19.334 -3.33301 -26.001 -10c-9.33301 -8.66699 -18.333 -39.667 -27 -93c-7.33301 -46 -11 -79.667 -11 -101c0 -18 2.33301 -31.333 7 -40c5.33301 -9.33301 14 -14 26 -14s21.667 5.66699 29 17c9.33301 14.667 17.333 46 24 94c6 42 9 76.333 9 103
c0 16 -3 27.333 -9 34c-5.33301 6.66699 -12.666 10 -21.999 10zM467.998 241.999c0 -34 -3.66895 -72.334 -11.002 -115.001c-8.66699 -53.333 -22 -89.666 -40 -108.999c-15.333 -15.333 -35 -23 -59 -23s-42.333 6.66699 -55 20c-14 15.333 -21 40 -21 74
c0 33.333 4.66699 75.666 14 126.999c8 48.667 21 81.334 39 98.001c16.667 15.333 37.334 23 62.001 23c20.667 0 37.334 -6.33301 50.001 -19c14 -14 21 -39.333 21 -76z" />
    <glyph glyph-name="ampersand" unicode="&#x26;" horiz-adv-x="437" 
d="M376 192l35 -42.001c-20.667 -24 -42.667 -47 -66 -69l30 -81h-64l-15 37c-36 -30.667 -74.333 -46 -115 -46c-41.333 0 -74.5 15 -99.5 45s-37.5 66.333 -37.5 109c0 80 40.667 153 122 219c-27.333 64.667 -41 118.667 -41 162c0 40 14.667 75 44 105s64 45 104 45
c31.333 0 56.5 -10.167 75.5 -30.5s28.5 -46.166 28.5 -77.499c0 -30.667 -8 -60.5 -24 -89.5s-32.667 -52 -50 -69s-39.333 -35.5 -66 -55.5l87 -218c12 12 29.333 30.667 52 56zM319 560.999c0 17.333 -4.83301 31.668 -14.5 43.001s-22.834 17 -39.501 17
c-24.667 0 -44.5 -9 -59.5 -27s-22.5 -39.667 -22.5 -65c0 -36 10.667 -78.667 32 -128c68.667 51.333 103.334 104.666 104.001 159.999zM274 90.001l-87.001 220c-57.333 -54.667 -86 -106 -86 -154c0 -28 7.33301 -52.5 22 -73.5s35.334 -31.5 62.001 -31.5
c27.333 0 57 13 89 39z" />
    <glyph glyph-name="quotesingle" unicode="'" horiz-adv-x="174" 
d="M159 667l-9 -269h-41l-10 269h60z" />
    <glyph glyph-name="parenleft" unicode="(" horiz-adv-x="257" 
d="M232 737l45 -23c-112.667 -196 -169 -376.333 -169 -541c0 -106.667 20.667 -217 62 -331l-51 -23c-44.667 103.333 -67 219.333 -67 348c0 97.333 16 195.833 48 295.5s76 191.167 132 274.5z" />
    <glyph glyph-name="parenright" unicode=")" horiz-adv-x="257" 
d="M99 714l51 22.999c44.667 -103.333 67 -219 67 -347c0 -97.333 -16 -196.166 -48 -296.499s-76 -191.833 -132 -274.5l-45 23c112.667 196 169 376.667 169 542c0 111.333 -20.667 221.333 -62 330z" />
    <glyph glyph-name="asterisk" unicode="*" horiz-adv-x="361" 
d="M367 596l-116 -23l57 -105l-30 -17l-57 104l-80 -87l-26 24l80 88l-106 50l15 32l106 -50l15 118l34 -4l-14 -118l115 23z" />
    <glyph glyph-name="plus" unicode="+" horiz-adv-x="500" 
d="M479 305h-189v-176h-55v176h-189v52h189v176h55v-176h189v-52z" />
    <glyph glyph-name="comma" unicode="," horiz-adv-x="174" 
d="M114 55l-111 -197l-40 20l93 205z" />
    <glyph glyph-name="hyphen" unicode="-" horiz-adv-x="238" 
d="M189 233h-138l7 58h138z" />
    <glyph glyph-name="period" unicode="." horiz-adv-x="174" 
d="M108 44c0 -13.333 -4.99902 -25.167 -14.999 -35.5s-21.667 -15.5 -35 -15.5c-26 0 -39 15 -39 45c0 11.333 5.5 21.666 16.5 30.999s22.167 14 33.5 14s20.666 -3.66699 27.999 -11s11 -16.666 11 -27.999z" />
    <glyph glyph-name="slash" unicode="/" horiz-adv-x="402" 
d="M490 729l-495 -902h-57l496 902h56z" />
    <glyph glyph-name="zero" unicode="0" horiz-adv-x="366" 
d="M356 504c0 -30.667 -1.33301 -64.666 -4 -101.999s-8.33398 -81.333 -17.001 -132s-20 -95.834 -34 -135.501s-33.833 -73.5 -59.5 -101.5s-55.167 -42 -88.5 -42c-76 0 -114 67 -114 201c0 30 1.5 63.167 4.5 99.5s9.33301 78 19 125s21.834 89 36.501 126
s35 68.5 61 94.5s55.667 39 89 39c71.333 0 107 -57.333 107 -172zM297 503.001c0 77.333 -19.333 115.998 -58 115.998c-26 0 -49 -17.667 -69 -53s-34.667 -78.166 -44 -128.499s-16.333 -96.166 -21 -137.499s-7 -75 -7 -101c0 -100.667 22 -151 66 -151
c25.333 0 46.333 16.667 63 50c20.667 40.667 37.5 103.5 50.5 188.5s19.5 157.167 19.5 216.5z" />
    <glyph glyph-name="one" unicode="1" horiz-adv-x="366" 
d="M277 667l-82 -667h-61l75 609h-85l8 58h145z" />
    <glyph glyph-name="two" unicode="2" horiz-adv-x="366" 
d="M141 485l-60.001 -0.00195312c4.66699 36 11.5 66.833 20.5 92.5s25 48.5 48 68.5s52.167 30 87.5 30c37.333 0 66.333 -11.167 87 -33.5s31 -52.166 31 -89.499c0 -30.667 -6.66699 -64.667 -20 -102s-26.666 -67.666 -39.999 -90.999s-31.666 -53.666 -54.999 -90.999
l-131 -210h179l-7 -59h-269l177 295c69.333 113.333 104 197.666 104 252.999c0 21.333 -4.83301 38.5 -14.5 51.5s-24.834 19.5 -45.501 19.5c-53.333 0 -84 -44.667 -92 -134z" />
    <glyph glyph-name="three" unicode="3" horiz-adv-x="366" 
d="M144 511h-56.998c6 47.333 20.833 86.666 44.5 117.999s57.5 47 101.5 47c35.333 0 63.166 -10.5 83.499 -31.5s30.5 -49.5 30.5 -85.5c0 -98 -32 -161.333 -96 -190c25.333 -11.333 42.333 -28 51 -50s13 -49.333 13 -82c0 -30 -2.5 -58.167 -7.5 -84.5
s-13.167 -52.333 -24.5 -78s-28.333 -46 -51 -61s-49.667 -22.5 -81 -22.5c-78.667 0 -118 42.667 -118 128c0 14.667 2 36 6 64h60c0 -4 -0.666992 -12.167 -2 -24.5s-2 -21.833 -2 -28.5c0 -52.667 21.333 -79 64 -79c26 0 46.667 10.667 62 32
c10.667 15.333 19.167 37.833 25.5 67.5s9.5 56.5 9.5 80.5c0 71.333 -31.667 107 -95 107h-29l7 55h13c45.333 0 77.666 9.66699 96.999 29c12.667 12.667 22.167 30.834 28.5 54.501s9.5 46.5 9.5 68.5c0 47.333 -20.667 71 -62 71c-28 0 -47.5 -9.5 -58.5 -28.5
s-18.5 -44.5 -22.5 -76.5z" />
    <glyph glyph-name="four" unicode="4" horiz-adv-x="366" 
d="M326 667l-53 -431h49l-6 -57h-50l-22 -179h-60l22 179h-173l8 63l225 425h60zM213 236l26 210c2 18 9.33301 59 22 123c-12 -32 -29.333 -70.333 -52 -115l-111 -218h115z" />
    <glyph glyph-name="five" unicode="5" horiz-adv-x="366" 
d="M351 667l-7 -57.999h-142l-49 -204c12 2 24 3 36 3c44 0 76 -16.167 96 -48.5s30 -71.833 30 -118.5c0 -38.667 -6 -76.334 -18 -113.001s-32.333 -68.667 -61 -96s-63 -41 -103 -41c-42 0 -77.667 10.333 -107 31l24 61c26.667 -21.333 55 -32 85 -32
c27.333 0 50.333 11 69 33s31.5 46 38.5 72s10.5 51.667 10.5 77c0 76.667 -35.333 115 -106 115c-24.667 0 -48 -4 -70 -12l78 331h196z" />
    <glyph glyph-name="six" unicode="6" horiz-adv-x="366" 
d="M317 667l-111.001 -208.999c-4.66699 -9.33301 -12.334 -22.5 -23.001 -39.5s-21.667 -38.167 -33 -63.5c20.667 15.333 43.334 23 68.001 23c22.667 0 42 -7.33301 58 -22c26.667 -25.333 40 -67 40 -125c0 -92.667 -21 -159.667 -63 -201c-26 -26 -58.667 -39 -98 -39
c-30 0 -54.333 8.66699 -73 26c-28 24.667 -42 68 -42 130c0 53.333 8.33301 104.666 25 153.999c12.667 37.333 35.334 86.333 68.001 147l120 219h64zM98.999 144.001c0 -66 22.333 -98.9971 67 -98.9971c18 0 33.333 6.33301 46 19c14 14 25.167 38.167 33.5 72.5
s12.5 66.166 12.5 95.499c0 37.333 -8.33301 63.666 -25 78.999c-9.33301 9.33301 -22.333 14 -39 14c-17.333 0 -33.333 -7.33301 -48 -22c-15.333 -14.667 -27 -37.334 -35 -68.001s-12 -61 -12 -91z" />
    <glyph glyph-name="seven" unicode="7" horiz-adv-x="366" 
d="M381 667l-284 -667h-64l260 609h-189l7 58h270z" />
    <glyph glyph-name="eight" unicode="8" horiz-adv-x="366" 
d="M352 547c0 -85.333 -29.335 -144.67 -88.002 -178.003c22 -13.333 36.833 -30.166 44.5 -50.499s11.5 -45.166 11.5 -74.499s-2.83301 -57.833 -8.5 -85.5s-14.5 -54.5 -26.5 -80.5s-29.667 -47 -53 -63s-50.666 -24 -81.999 -24c-39.333 0 -68 13.333 -86 40
s-27 60.667 -27 102c0 50.667 8.33301 98.834 25 144.501s44.334 76.167 83.001 91.5c-35.333 24 -53 61 -53 111c0 52 13.333 97.667 40 137s65 59 115 59c70 0 105 -43 105 -129zM292.998 538.996c0 53.333 -19.667 79.999 -59 79.999c-16.667 0 -30.667 -4.66699 -42 -14
s-19.833 -21.666 -25.5 -36.999s-9.5 -30.333 -11.5 -45s-3 -29.667 -3 -45c0 -54 18.667 -81 56 -81c30 0 51.667 15 65 45s20 62.333 20 97zM261.998 241.995c0 66 -21.334 99 -64.001 99c-19.333 0 -36 -7 -50 -21s-24.5 -32 -31.5 -54s-12 -43 -15 -63
s-4.5 -39 -4.5 -57c0 -65.333 21 -98 63 -98c22.667 0 41.667 8.66699 57 26c14.667 16.667 25.834 41.667 33.501 75s11.5 64.333 11.5 93z" />
    <glyph glyph-name="nine" unicode="9" horiz-adv-x="366" 
d="M75 0l167 311.999c-23.333 -15.333 -46 -23 -68 -23c-34.667 0 -59.667 14 -75 42s-23 61 -23 99c0 28.667 2.33301 56.167 7 82.5s12.5 52.333 23.5 78s27.5 46.334 49.5 62.001s48.333 23.5 79 23.5c41.333 0 71.333 -13.5 90 -40.5s28 -62.167 28 -105.5
c0 -84.667 -28.667 -180.667 -86 -288l-128 -242h-64zM293 522.999c0 66.667 -22 99.999 -66 99.999c-18.667 0 -34.5 -7 -47.5 -21s-22.5 -32 -28.5 -54s-10.167 -42.5 -12.5 -61.5s-3.5 -37.167 -3.5 -54.5c0 -24 4.83301 -45 14.5 -63s25.5 -27 47.5 -27
c18 0 33.833 6.5 47.5 19.5s23.667 29.667 30 50s11 39.833 14 58.5s4.5 36.334 4.5 53.001z" />
    <glyph glyph-name="colon" unicode=":" horiz-adv-x="174" 
d="M155 415c0 -13.333 -5 -25.168 -15 -35.501s-21.667 -15.5 -35 -15.5c-11.333 0 -20.833 3.83301 -28.5 11.5s-11.5 17.167 -11.5 28.5c0 12.667 5.16699 24.167 15.5 34.5s22.166 15.5 35.499 15.5c10.667 0 19.834 -3.66699 27.501 -11s11.5 -16.666 11.5 -27.999z
M108 43.998c0 -13.333 -4.99902 -25.167 -14.999 -35.5s-21.667 -15.5 -35 -15.5c-26 0 -39 15 -39 45c0 11.333 5.5 21.666 16.5 30.999s22.167 14 33.5 14s20.666 -3.66699 27.999 -11s11 -16.666 11 -27.999z" />
    <glyph glyph-name="semicolon" unicode=";" horiz-adv-x="174" 
d="M158 414c0 -13.333 -4.99902 -24.999 -14.999 -34.999s-21.667 -15 -35 -15c-26 0 -39 15 -39 45c0 11.333 5.33301 21.666 16 30.999s22 14 34 14c11.333 0 20.666 -3.83301 27.999 -11.5s11 -17.167 11 -28.5zM114.001 55.001l-111 -197l-40 20l93 205z" />
    <glyph glyph-name="less" unicode="&#x3c;" horiz-adv-x="500" 
d="M467 107l-433 198v49l433 197v-56l-374 -166l374 -167v-55z" />
    <glyph glyph-name="equal" unicode="=" horiz-adv-x="500" 
d="M481 391h-434v49h434v-49zM481 245h-434v49h434v-49z" />
    <glyph glyph-name="greater" unicode="&#x3e;" horiz-adv-x="500" 
d="M491 304l-433 -197v56l374 166l-374 167v55l433 -198v-49z" />
    <glyph glyph-name="question" unicode="?" horiz-adv-x="327" 
d="M86 498l4.99805 47.002c4 40.667 16.833 72.667 38.5 96s52.167 35 91.5 35c30.667 0 54 -8.33301 70 -25s24 -40.334 24 -71.001c0 -19.333 -1.66699 -41.333 -5 -66c-2.66699 -22 -5.33398 -40 -8.00098 -54s-7.16699 -30 -13.5 -48s-14 -32.5 -23 -43.5
s-21.5 -20.5 -37.5 -28.5s-34.333 -12.333 -55 -13l-20 -160h-58l26 214h42c20.667 0 36.334 3.66699 47.001 11s19 21 25 41c12.667 41.333 19 85.666 19 132.999c0 37.333 -14 56 -42 56c-6.66699 0 -12.667 -0.833008 -18 -2.5s-10.166 -4.5 -14.499 -8.5
s-8 -7.83301 -11 -11.5s-5.66699 -8.66699 -8 -15l-6 -16.5c-1.66699 -4.66699 -3.16699 -11 -4.5 -19s-2.16602 -13.833 -2.49902 -17.5s-1 -9.66699 -2 -18s-1.5 -13.5 -1.5 -15.5h-58zM155.998 44.002c0 -13.333 -5.16895 -25.168 -15.502 -35.501
s-22.166 -15.5 -35.499 -15.5c-11.333 0 -20.666 3.83301 -27.999 11.5s-11 17.167 -11 28.5c0 12.667 5 24.167 15 34.5s21.667 15.5 35 15.5c11.333 0 20.833 -3.66699 28.5 -11s11.5 -16.666 11.5 -27.999z" />
    <glyph glyph-name="at" unicode="@" horiz-adv-x="733" 
d="M589 77l7.99707 -37.002c-76 -35.333 -154.333 -53 -235 -53c-95.333 0 -172.333 26.833 -231 80.5s-88 127.5 -88 221.5c0 104.667 38.833 195.167 116.5 271.5s168.834 114.5 273.501 114.5c80.667 0 147.834 -23.333 201.501 -70s80.5 -110 80.5 -190
c0 -49.333 -12.333 -98.666 -37 -147.999c-17.333 -33.333 -39.833 -62.666 -67.5 -87.999s-57.5 -38 -89.5 -38c-17.333 0 -32.166 5.5 -44.499 16.5s-18.5 25.167 -18.5 42.5v12c-37.333 -49.333 -82 -74 -134 -74c-38 0 -67.667 13 -89 39s-32 58.333 -32 97
c0 57.333 19.5 110 58.5 158s86.5 72 142.5 72c57.333 0 92 -28 104 -84l23 71h41l-68 -216c-8.66699 -26 -13 -44.333 -13 -55c0 -28.667 12.333 -43 37 -43c24 0 48.333 13 73 39c23.333 24.667 41.666 54.667 54.999 90s20 70.666 20 105.999
c0 69.333 -23.5 124 -70.5 164s-105.833 60 -176.5 60c-93.333 0 -174.166 -34.167 -242.499 -102.5s-102.5 -149.166 -102.5 -242.499c0 -82.667 25.833 -147.5 77.5 -194.5s119.5 -70.5 203.5 -70.5c75.333 0 150 17 224 51zM483.997 375.998
c0 25.333 -7.16797 46 -21.501 62s-33.833 24 -58.5 24c-42.667 0 -79.167 -19.167 -109.5 -57.5s-45.5 -79.5 -45.5 -123.5c0 -29.333 7.33301 -53.5 22 -72.5s36.334 -28.5 65.001 -28.5c42.667 0 78 21.333 106 64s42 86.667 42 132z" />
    <glyph glyph-name="A" unicode="A" horiz-adv-x="320" 
d="M291 0h-65l-8 137h-139l-41 -137h-65l211 667h58zM215 191l-14.001 234.997c-2 26.667 -3 53.334 -3 80.001c0 25.333 1 51 3 77c-5.33301 -31.333 -12.666 -65.666 -21.999 -102.999s-17.333 -67.666 -24 -90.999l-31 -104.5l-28 -93.5h119z" />
    <glyph glyph-name="B" unicode="B" horiz-adv-x="346" 
d="M108 667l96 0.000976562c48 0 81.333 -10 100 -30s28 -54 28 -102c0 -44 -7.66699 -82.667 -23 -116c-8.66699 -20 -19.167 -35.667 -31.5 -47s-28.5 -21.333 -48.5 -30c30 -8.66699 50.833 -21.834 62.5 -39.501s17.5 -42.5 17.5 -74.5c0 -97.333 -25 -164 -75 -200
c-25.333 -18.667 -61 -28 -107 -28h-101zM133 372.001l33 -0.000976562c32 0 55.333 9 70 27c22.667 26.667 34 74 34 142c0 26.667 -5 45.334 -15 56.001s-28 16 -54 16h-39zM93 53h33.001c31.333 0 55.666 6.66699 72.999 20c16 12 27.833 32 35.5 60s11.5 55 11.5 81
c0 68.667 -28.333 103 -85 103h-35z" />
    <glyph glyph-name="C" unicode="C" horiz-adv-x="315" 
d="M350 655l-7.99902 -68c-26 19.333 -50.333 29 -73 29c-39.333 0 -71.333 -20.333 -96 -61c-22.667 -36.667 -39.5 -88.667 -50.5 -156s-16.5 -130 -16.5 -188c0 -106.667 29.333 -160 88 -160c26 0 54.333 10 85 30l-7 -62c-29.333 -18.667 -59 -28 -89 -28
c-36 0 -65.167 12 -87.5 36s-37 50.833 -44 80.5s-10.5 62.167 -10.5 97.5c0 68.667 8.66699 142.5 26 221.5s42.666 139.833 75.999 182.5c36 44.667 79.333 67 130 67c32 0 57.667 -7 77 -21z" />
    <glyph glyph-name="D" unicode="D" horiz-adv-x="365" 
d="M108 667l76.001 0.000976562c60.667 0 103.667 -13.333 129 -40s38 -70.334 38 -131.001c0 -124 -13.667 -234.333 -41 -331c-15.333 -56 -38.833 -97.5 -70.5 -124.5s-75.834 -40.5 -132.501 -40.5h-81zM94.001 57.001h29.002c33.333 0 59.666 9.33301 78.999 28
c22 20 38.333 49 49 87c24 86 36 190.667 36 314c0 40.667 -6.83301 71.5 -20.5 92.5s-39.834 31.5 -78.501 31.5h-26z" />
    <glyph glyph-name="E" unicode="E" horiz-adv-x="297" 
d="M313 667l-7 -57h-144l-29 -235h140l-6 -57h-141l-32 -261h144l-7 -57h-205l82 667h205z" />
    <glyph glyph-name="F" unicode="F" horiz-adv-x="291" 
d="M317 667l-7 -57h-148l-29 -235h140l-6 -57h-141l-39 -318h-61l82 667h209z" />
    <glyph glyph-name="G" unicode="G" horiz-adv-x="368" 
d="M369 550l-63 -24c-2.66699 60 -23.334 90 -62.001 90c-52 0 -88.667 -50 -110 -150c-21.333 -94.667 -32 -190.334 -32 -287.001c0 -16.667 0.666992 -30.667 2 -42s4 -24.5 8 -39.5s11.167 -26.5 21.5 -34.5s23.5 -12 39.5 -12c32 0 55.667 16.333 71 49
c4.66699 10 9.16699 24.667 13.5 44s7.33301 35.333 9 48s4 32.5 7 59.5s4.5 41.5 4.5 43.5h-89l7 57h150l-16 -134c-5.33301 -42.667 -11 -75 -17 -97c-10.667 -39.333 -29 -70.833 -55 -94.5s-58.333 -35.5 -97 -35.5c-80.667 0 -121 56.333 -121 169
c0 132.667 13.667 248.334 41 347.001c13.333 48.667 33.833 89 61.5 121s64.167 48 109.5 48c38 0 65.833 -11 83.5 -33s28.834 -53 33.501 -93z" />
    <glyph glyph-name="H" unicode="H" horiz-adv-x="380" 
d="M380 667l-82 -667h-61l42 344h-150l-42 -344h-61l82 667h61l-33 -266h150l33 266h61z" />
    <glyph glyph-name="I" unicode="I" horiz-adv-x="169" 
d="M169 667l-82 -667h-61l82 667h61z" />
    <glyph glyph-name="J" unicode="J" horiz-adv-x="221" 
d="M221 667l-68 -553c0 -1.33301 -0.5 -5.5 -1.5 -12.5s-1.66699 -11.5 -2 -13.5s-0.833008 -6 -1.5 -12s-1.5 -10.5 -2.5 -13.5l-4 -12c-1.66699 -5 -3.33398 -9 -5.00098 -12s-3.83398 -6.5 -6.50098 -10.5s-5.66699 -7.33301 -9 -10
c-19.333 -18.667 -45.666 -28 -78.999 -28c-21.333 0 -44 6 -68 18l8 64c20 -18.667 39 -28 57 -28c8 0 15.167 1.5 21.5 4.5s11 5.66699 14 8s5.83301 7.5 8.5 15.5s4.33398 13.333 5.00098 16s1.66699 9.5 3 20.5s2 17.167 2 18.5l67 540h61z" />
    <glyph glyph-name="K" unicode="K" horiz-adv-x="320" 
d="M365 667l-180 -320l98 -347h-64l-91 336l-41 -336h-61l82 667h61l-37 -303l169 303h64z" />
    <glyph glyph-name="L" unicode="L" horiz-adv-x="259" 
d="M236 57l-7 -57h-203l82 667h61l-75 -610h142z" />
    <glyph glyph-name="M" unicode="M" horiz-adv-x="492" 
d="M444 667l-0.99707 -666.998h-60l7 433c1.33301 40.667 4.33301 81 9 121c-0.666992 -1.33301 -3.66699 -15 -9 -41c-4.66699 -25.333 -11.334 -52 -20.001 -80l-126 -433h-50l-17 434v64c0 6.66699 0.5 16 1.5 28s1.5 21.333 1.5 28
c-6.66699 -54.667 -13.334 -94.667 -20.001 -120l-107 -434h-60l174 667h53l14 -458c0.666992 -12.667 1 -32 1 -58c0 -20.667 -0.333008 -36.334 -1 -47.001c7.33301 37.333 15.666 71.666 24.999 102.999l133 460h52z" />
    <glyph glyph-name="N" unicode="N" horiz-adv-x="381" 
d="M381 667l-82 -667.001h-53l-92 440c-2 10 -4.5 25.667 -7.5 47s-5.5 37 -7.5 47c-2.66699 -53.333 -5.66699 -92.666 -9 -117.999l-51 -416h-53l82 667h53l94 -453c1.33301 -7.33301 3.33301 -20 6 -38s5 -31.667 7 -41c0 32.667 2 65 6 97l54 435h53z" />
    <glyph glyph-name="O" unicode="O" horiz-adv-x="398" 
d="M382 477c0 -128 -15.668 -238.002 -47.001 -330.002c-34 -104 -89 -156 -165 -156c-85.333 0 -128 71.667 -128 215c0 31.333 1.5 64.5 4.5 99.5s9.16699 75.333 18.5 121s21.333 86.334 36 122.001s35.334 65.834 62.001 90.501s57 37 91 37
c85.333 0 128 -66.333 128 -199zM320.999 481.998c0 89.333 -24.332 134 -72.999 134c-30.667 0 -56 -17.333 -76 -52c-22.667 -38 -39.667 -94.333 -51 -169s-17 -142.667 -17 -204c0 -93.333 24.333 -140 73 -140c33.333 0 60.333 19.333 81 58
c19.333 36 34.666 93 45.999 171s17 145.333 17 202z" />
    <glyph glyph-name="P" unicode="P" horiz-adv-x="324" 
d="M108 667h78.999c50.667 0 87.834 -9.33301 111.501 -28s35.5 -52.667 35.5 -102c0 -54 -8.66699 -100.667 -26 -140c-8.66699 -18.667 -19.167 -33.5 -31.5 -44.5s-27.833 -18.833 -46.5 -23.5s-34.667 -7.5 -48 -8.5s-32 -1.5 -56 -1.5l-39 -319h-61zM132.999 376h41
c24 0 43 5.33301 57 16s24.333 29.834 31 57.501s10 54.167 10 79.5c0 29.333 -6 50.166 -18 62.499s-32.667 18.5 -62 18.5h-30z" />
    <glyph glyph-name="Q" unicode="Q" horiz-adv-x="398" 
d="M278 -49l-31.001 61.999c-21.333 -14.667 -47.333 -22 -78 -22c-84.667 0 -127 71.667 -127 215c0 31.333 1.5 64.666 4.5 99.999s9.16699 75.833 18.5 121.5s21.333 86.167 36 121.5s35.334 65.333 62.001 90s57 37 91 37c85.333 0 128 -70.333 128 -211
c0 -67.333 -7.66699 -142.166 -23 -224.499s-38 -143.166 -68 -182.499l39 -76zM224.999 187.999l37 -72c18.667 43.333 33.167 100.5 43.5 171.5s15.5 136.167 15.5 195.5c0 88.667 -24.333 133 -73 133c-30.667 0 -56 -17.333 -76 -52
c-22.667 -38 -39.667 -94.333 -51 -169s-17 -142.667 -17 -204c0 -93.333 25 -140 75 -140c16 0 29.667 4.33301 41 13l-47 92z" />
    <glyph glyph-name="R" unicode="R" horiz-adv-x="370" 
d="M112 667h83c56 0 97.333 -9 124 -27s40 -53.667 40 -107c0 -134.667 -51.667 -205.667 -155 -213l112 -320h-66l-113 326l-40 -326h-66zM143 375l41 -0.000976562c31.333 0 54.666 7.33301 69.999 22c25.333 23.333 38 67.333 38 132
c0 30.667 -6.66699 51.834 -20 63.501s-35.666 17.5 -66.999 17.5h-33z" />
    <glyph glyph-name="S" unicode="S" horiz-adv-x="342" 
d="M336 640l-10.001 -77.999c-26.667 36 -57 54 -91 54c-32 0 -58.167 -12.667 -78.5 -38s-30.5 -54.333 -30.5 -87c0 -24.667 6.5 -46.667 19.5 -66s28.5 -35.833 46.5 -49.5l54.5 -41.5c18.333 -14 34 -32 47 -54s19.5 -47 19.5 -75c0 -55.333 -18.167 -105 -54.5 -149
s-81.5 -66 -135.5 -66c-37.333 0 -70.333 11.667 -99 35l10 80c30 -36 63 -54 99 -54c34.667 0 62.834 14.167 84.501 42.5s32.5 60.166 32.5 95.499c0 22.667 -6.5 43.167 -19.5 61.5s-28.667 34.5 -47 48.5l-55 43c-18.333 14.667 -34 33 -47 55s-19.5 46.667 -19.5 74
c0 52.667 16.333 100 49 142s74.667 63 126 63c36 0 69 -12 99 -36z" />
    <glyph glyph-name="T" unicode="T" horiz-adv-x="261" 
d="M314 667l-7 -57h-99l-75 -610h-61l75 610h-99l7 57h259z" />
    <glyph glyph-name="U" unicode="U" horiz-adv-x="384" 
d="M384 667l-57 -467.001c-7.33301 -56 -15 -94.667 -23 -116c-11.333 -30 -29.666 -53 -54.999 -69s-54.333 -24 -87 -24c-39.333 0 -69 10.833 -89 32.5s-30 52.5 -30 92.5c0 12.667 2.33301 40.667 7 84l58 467h61l-57 -462c-4.66699 -40.667 -7 -66.667 -7 -78
c0 -50.667 21.667 -76 65 -76c9.33301 0 17.666 0.833008 24.999 2.5s14 5 20 10l15.5 13c4.33301 3.66699 8.16602 10 11.499 19s6 15.5 8 19.5s4 11.833 6 23.5s3.33301 18.834 4 21.501s1.83398 10.5 3.50098 23.5s2.5 20.167 2.5 21.5l57 462h61z" />
    <glyph glyph-name="V" unicode="V" horiz-adv-x="321" 
d="M374 667l-215 -667.001h-54l-50 667h63l28 -442c1.33301 -25.333 2 -44.333 2 -57c0 -8 -0.166992 -16.167 -0.5 -24.5s-0.833008 -17.666 -1.5 -27.999s-1 -18.5 -1 -24.5c16 70 26.667 114 32 132l134 444h63z" />
    <glyph glyph-name="W" unicode="W" horiz-adv-x="498" 
d="M551 667l-198.001 -667.001h-56l-11 433v11c0 24.667 1.33301 62.334 4 113.001c-3.33301 -11.333 -7.16602 -28 -11.499 -50s-7.16602 -35.667 -8.49902 -41c-1.33301 -4 -3 -9.83301 -5 -17.5s-3.66699 -13.5 -5 -17.5l-126 -431h-56l-23 667h63l8 -420v-12
c0 -10 -0.833008 -26.167 -2.5 -48.5s-2.16699 -39.5 -1.5 -51.5v-13c10.667 47.333 22 90.666 34 129.999l122 415h52c7.33301 -333.333 11 -515 11 -545c1.33301 10.667 3.5 22.167 6.5 34.5s6.66699 25.833 11 40.5s7.5 26 9.5 34
c1.33301 6.66699 2.66602 12.334 3.99902 17.001l116 419h63z" />
    <glyph glyph-name="X" unicode="X" horiz-adv-x="313" 
d="M366 667l-165 -328.002l83 -339h-65l-41 189c-8.66699 36.667 -13.667 68.334 -15 95.001c-2.66699 -11.333 -15.667 -43.666 -39 -96.999l-85 -187h-66l169 339l-87 328h65l39 -165c9.33301 -39.333 15 -78.333 17 -117c6 22 21.333 59.667 46 113l79 169h65z" />
    <glyph glyph-name="Y" unicode="Y" horiz-adv-x="315" 
d="M367 667l-168 -378.001l-35 -289h-61l35 289l-83 378h66l38 -191c9.33301 -48.667 15 -89.667 17 -123c12 38.667 26.667 79.334 44 122.001l81 192h66z" />
    <glyph glyph-name="Z" unicode="Z" horiz-adv-x="275" 
d="M321 667l-259 -610h166l-7 -57h-241l257 610h-165l7 57h242z" />
    <glyph glyph-name="bracketleft" unicode="[" horiz-adv-x="263" 
d="M292 729l-6 -46h-100l-99 -810h100l-6 -46h-158l111 902h158z" />
    <glyph glyph-name="backslash" unicode="\" horiz-adv-x="513" 
d="M63 729h56l385 -902h-57z" />
    <glyph glyph-name="bracketright" unicode="]" horiz-adv-x="263" 
d="M253 729l-111 -902h-158l5 46h101l99 810h-100l5 46h159z" />
    <glyph glyph-name="asciicircum" unicode="^" horiz-adv-x="500" 
d="M486 373h-61l-158 250l-156 -250h-61l182 294h72z" />
    <glyph glyph-name="underscore" unicode="_" horiz-adv-x="500" 
d="M472 -124h-500v50h500v-50z" />
    <glyph glyph-name="grave" unicode="`" 
d="M319 533l-39 -26l-100 103l58 43z" />
    <glyph glyph-name="a" unicode="a" horiz-adv-x="322" 
d="M300 447l-55 -447h-55l4 36c-25.333 -28.667 -52.333 -43 -81 -43c-54.667 0 -82 40 -82 120c0 46.667 4.33301 99.167 13 157.5s21.667 101.833 39 130.5c22 35.333 53 53 93 53c27.333 0 49 -12.333 65 -37l4 30h55zM231 327c0 54.667 -16 82 -48 82
c-21.333 0 -39 -12.333 -53 -37c-13.333 -24 -23.666 -61.833 -30.999 -113.5s-11 -96.5 -11 -134.5c0 -56.667 16 -85 48 -85c12.667 0 23.5 3.16699 32.5 9.5s16.167 15.5 21.5 27.5s9.16602 22.667 11.499 32s4.83301 20.666 7.5 33.999
c14.667 74.667 22 136.334 22 185.001z" />
    <glyph glyph-name="b" unicode="b" horiz-adv-x="317" 
d="M166 729l-37.999 -311.999c22 24.667 47 37 75 37c58.667 0 88 -39.667 88 -119c0 -72.667 -8.66699 -145.334 -26 -218.001c-21.333 -82.667 -59 -124 -113 -124c-28.667 0 -52.334 14.333 -71.001 43l-4 -36h-56l90 729h55zM233.001 325.001
c0 56 -16.001 83.999 -48.001 83.999c-35.333 0 -59 -31 -71 -93c-15.333 -70 -23 -136 -23 -198c0 -52.667 16.333 -79 49 -79c20.667 0 37.334 10.667 50.001 32s23 59.833 31 115.5s12 101.834 12 138.501z" />
    <glyph glyph-name="c" unicode="c" horiz-adv-x="242" 
d="M249 437l-8.00098 -66.001c-16.667 20.667 -33.667 31 -51 31c-18 0 -34.333 -9.5 -49 -28.5s-25.334 -38.5 -32.001 -58.5s-11.334 -39.667 -14.001 -59c-5.33301 -33.333 -8 -64.666 -8 -93.999c0 -12 0.666992 -23.667 2 -35s3.83301 -23.666 7.5 -36.999
s9.66699 -24 18 -32s18.5 -12 30.5 -12c18.667 0 38.667 13.333 60 40l-8 -70c-20.667 -15.333 -42.667 -23 -66 -23c-25.333 0 -46.166 9.33301 -62.499 28s-27.166 39.167 -32.499 61.5s-8 46.166 -8 71.499c0 44 4.33301 84.667 13 122c10.667 46 28.5 87.167 53.5 123.5
s56.833 54.5 95.5 54.5c20.667 0 40.334 -5.66699 59.001 -17z" />
    <glyph glyph-name="d" unicode="d" horiz-adv-x="319" 
d="M331 729l-91 -729h-55l4 36c-25.333 -28.667 -52.333 -43 -81 -43c-54.667 0 -82 40 -82 120c0 47.333 4.33301 99.833 13 157.5s21.667 101.167 39 130.5c22 35.333 52.667 53 92 53c15.333 0 27.833 -2.83301 37.5 -8.5s19.167 -15.167 28.5 -28.5l39 312h56zM225 327
c0 54.667 -15.668 82 -47.001 82c-20.667 0 -38 -12.333 -52 -37c-13.333 -24 -23.833 -61.667 -31.5 -113s-11.5 -96.333 -11.5 -135c0 -56.667 16 -85 48 -85c12.667 0 23.5 3.16699 32.5 9.5s16.167 15.5 21.5 27.5s9.33301 22.5 12 31.5s5.33398 20.5 8.00098 34.5
c13.333 74 20 135.667 20 185z" />
    <glyph glyph-name="e" unicode="e" horiz-adv-x="308" 
d="M207 152l56.001 -0.000976562c-6.66699 -44 -20.334 -81.5 -41.001 -112.5s-50.667 -46.5 -90 -46.5c-69.333 0 -104 53.333 -104 160c0 44 4.33301 85.333 13 124c5.33301 27.333 13.333 53.333 24 78s26.667 47.334 48 68.001s45.333 31 72 31c64 0 96 -51.667 96 -155
c0 -27.333 -2.66699 -56.333 -8 -87h-185c-3.33301 -22 -5 -41.667 -5 -59c0 -71.333 18 -107 54 -107c12 0 22.333 3.33301 31 10s15.5 16.5 20.5 29.5s8.66699 24 11 33s4.83301 20.167 7.5 33.5zM94.001 259.999h131c1.33301 21.333 2 38.333 2 51
c0 60.667 -15.667 91 -47 91c-42 0 -70.667 -47.333 -86 -142z" />
    <glyph glyph-name="f" unicode="f" horiz-adv-x="202" 
d="M261 730l-6.99805 -62.002c-14.667 13.333 -27.334 20 -38.001 20s-19.334 -3.66699 -26.001 -11s-10.667 -14.166 -12 -20.499s-3 -16.166 -5 -29.499l-24 -180h76l-7 -52h-75l-49 -395h-56l49 395h-51l7 52h51l22 179c9.33301 76 42 114 98 114
c17.333 0 33 -3.33301 47 -10z" />
    <glyph glyph-name="g" unicode="g" horiz-adv-x="326" 
d="M304 447l-58 -476c-0.666992 -2.66699 -1.5 -8.5 -2.5 -17.5s-1.66699 -15.167 -2 -18.5s-1.33301 -8.5 -3 -15.5s-3.16699 -12.667 -4.5 -17s-3.5 -9.33301 -6.5 -15s-6.16699 -11.167 -9.5 -16.5c-20.667 -34 -56.334 -51 -107.001 -51c-66 0 -99 33.667 -99 101
c0 9.33301 1.33301 22.666 4 39.999h55c-1.33301 -12 -2 -21.667 -2 -29c0 -39.333 17.333 -59 52 -59c16.667 0 30.167 4.66699 40.5 14s17 19.333 20 30s5.5 25 7.5 43c0.666992 8 1.83398 19.833 3.50098 35.5s3.16699 27.834 4.5 36.501
c-22.667 -21.333 -47.667 -32 -75 -32c-60 -0 -90 43.333 -90 130c0 29.333 1.66699 59.5 5 90.5s9.5 65.667 18.5 104s23.833 69.5 44.5 93.5s46 36 76 36c28 0 51 -12.667 69 -38l4 31h55zM234 321c0 58 -16.999 87.002 -50.999 87.002
c-14.667 0 -27.167 -5.33301 -37.5 -16s-17.5 -21.334 -21.5 -32.001s-8 -24.334 -12 -41.001c-15.333 -64.667 -23 -125.667 -23 -183c0 -60 17.333 -90 52 -90c12.667 0 23.5 3.16699 32.5 9.5s16.167 16 21.5 29s9.16602 23.5 11.499 31.5s4.83301 19.333 7.5 34
c13.333 68 20 125 20 171z" />
    <glyph glyph-name="h" unicode="h" horiz-adv-x="325" 
d="M166 729l-39.001 -318c28.667 28.667 59 43 91 43c49.333 0 74 -26 74 -78c0 -16 -1 -31 -3 -45l-40 -331h-56l39 321c2.66699 17.333 4 30.333 4 39c0 14 -3.66699 25.5 -11 34.5s-17.666 13.5 -30.999 13.5c-46 0 -72.667 -35.667 -80 -107l-37 -301h-56l90 729h55z
" />
    <glyph glyph-name="i" unicode="i" horiz-adv-x="154" 
d="M163 593c0 -12.667 -4.66797 -23.666 -14.001 -32.999s-20.333 -14 -33 -14c-10.667 0 -19.5 3.5 -26.5 10.5s-10.5 15.5 -10.5 25.5c0 13.333 4.83301 24.666 14.5 33.999s20.834 14 33.501 14c10 0 18.5 -3.5 25.5 -10.5s10.5 -15.833 10.5 -26.5zM130.999 447.001
l-54 -447h-56l55 447h55z" />
    <glyph glyph-name="j" unicode="j" horiz-adv-x="159" 
d="M168 593c0 -12.667 -4.5 -23.668 -13.5 -33.001s-19.833 -14 -32.5 -14c-10.667 0 -19.5 3.5 -26.5 10.5s-10.5 15.5 -10.5 25.5c0 12.667 4.5 23.834 13.5 33.501s19.833 14.5 32.5 14.5c10.667 0 19.5 -3.5 26.5 -10.5s10.5 -15.833 10.5 -26.5zM137 446.999l-78 -627
h-56l78 627h56z" />
    <glyph glyph-name="k" unicode="k" horiz-adv-x="305" 
d="M304 447l-155 -207l128 -240h-63l-111 214l-26 -214h-56l90 729h55l-56 -464l131 182h63z" />
    <glyph glyph-name="l" unicode="l" horiz-adv-x="154" 
d="M166 729l-89 -729h-56l90 729h55z" />
    <glyph glyph-name="m" unicode="m" horiz-adv-x="500" 
d="M132 447l-4.00098 -37.001c29.333 29.333 57.666 44 84.999 44c38 0 63 -17.333 75 -52c32.667 34.667 65.334 52 98.001 52c54.667 0 82 -26.667 82 -80c0 -10 -1.33301 -23.667 -4 -41l-40 -333h-56l41 331c1.33301 10.667 2 19.667 2 27c0 33.333 -14.667 50 -44 50
c-14 0 -27.167 -4.33301 -39.5 -13s-21.166 -19.667 -26.499 -33c-6 -15.333 -11.333 -40.666 -16 -75.999l-35 -286h-55l40 330c1.33301 12 2 22 2 30c0 32 -13 48 -39 48c-24.667 0 -44 -9.66699 -58 -29c-13.333 -18 -23 -52 -29 -102l-34 -277h-56l55 447h56z" />
    <glyph glyph-name="n" unicode="n" horiz-adv-x="325" 
d="M131 447l-4.00195 -35.999c28.667 28.667 58.667 43 90 43c24.667 0 43.334 -7.5 56.001 -22.5s19 -34.833 19 -59.5c0 -14.667 -1 -28.334 -3 -41.001l-40 -331h-56l39 321c2.66699 17.333 4 30.333 4 39c0 14 -3.66699 25.5 -11 34.5s-17.666 13.5 -30.999 13.5
c-46 0 -72.667 -35.667 -80 -107l-37 -301h-56l55 447h55z" />
    <glyph glyph-name="o" unicode="o" horiz-adv-x="318" 
d="M290 328l-0.000976562 -17c0 -31.333 -2 -62.5 -6 -93.5s-11 -64.833 -21 -101.5s-26.167 -66.334 -48.5 -89.001s-49.5 -34 -81.5 -34c-70 0 -105 54 -105 162c0 28.667 2.33301 58.5 7 89.5s12.5 63 23.5 96s27.833 60.167 50.5 81.5s49.334 32 80.001 32
c34 0 59.333 -12.167 76 -36.5s25 -54.166 25 -89.499zM231.999 298c0 69.333 -16.667 104.003 -50 104.003c-19.333 0 -35.833 -10.167 -49.5 -30.5s-23.667 -45.833 -30 -76.5s-10.833 -58.334 -13.5 -83.001s-4 -46.334 -4 -65.001c0 -67.333 17.667 -101 53 -101
c18.667 0 34.667 10 48 30s23 45.167 29 75.5s10.333 57.666 13 81.999s4 45.833 4 64.5z" />
    <glyph glyph-name="p" unicode="p" horiz-adv-x="318" 
d="M132 447l-3 -30c22.667 24.667 47.334 37 74.001 37c59.333 0 89 -39.667 89 -119c0 -74 -9 -146.667 -27 -218c-20 -82.667 -57.333 -124 -112 -124c-28.667 0 -52.334 14.333 -71.001 43l-27 -216h-55l77 627h55zM234 325c0 56 -16.332 84.002 -48.999 84.002
c-34 0 -57.667 -31 -71 -93c-14.667 -72 -22 -138 -22 -198c0 -52.667 16.333 -79 49 -79c21.333 0 37.666 10.667 48.999 32c13.333 21.333 24 59.666 32 114.999s12 101.666 12 138.999z" />
    <glyph glyph-name="q" unicode="q" horiz-adv-x="322" 
d="M300 447l-77 -627h-55l26 216c-25.333 -28.667 -52.333 -43 -81 -43c-54.667 0 -82 40 -82 120c0 46.667 4.33301 99.167 13 157.5s21.667 101.833 39 130.5c22 35.333 53 53 93 53c27.333 0 49 -12.333 65 -37l4 30h55zM231 327c0 54.667 -16 82 -48 82
c-21.333 0 -39 -12.333 -53 -37c-13.333 -24 -23.666 -61.833 -30.999 -113.5s-11 -96.5 -11 -134.5c0 -56.667 16 -85 48 -85c12.667 0 23.5 3.16699 32.5 9.5s16.167 15.5 21.5 27.5s9.16602 22.667 11.499 32s4.83301 20.666 7.5 33.999
c14.667 74.667 22 136.334 22 185.001z" />
    <glyph glyph-name="r" unicode="r" horiz-adv-x="192" 
d="M208 454l-8.00098 -65.001c-14.667 0 -27.167 -2.33301 -37.5 -7s-18.333 -10.167 -24 -16.5s-10.5 -15.666 -14.5 -27.999s-6.66699 -22.5 -8 -30.5s-3 -20 -5 -36l-34 -271h-56l56 447h55l-7 -58c24.667 42 52.334 63.667 83.001 65z" />
    <glyph glyph-name="s" unicode="s" horiz-adv-x="243" 
d="M238 425l-6.99805 -68.999c-22 30.667 -45.333 46 -70 46c-18 0 -33 -6.66699 -45 -20s-18 -29.333 -18 -48c0 -16.667 6.16699 -33 18.5 -49s25.666 -29.5 39.999 -40.5s27.666 -26 39.999 -45s18.5 -39.5 18.5 -61.5c0 -38.667 -13 -72.5 -39 -101.5
s-57.667 -43.5 -95 -43.5c-29.333 0 -55.333 10.333 -78 31l7 66c23.333 -29.333 47.666 -44 72.999 -44c20.667 0 38 8 52 24s21 34.333 21 55c0 14 -4 27.667 -12 41s-17.667 25.666 -29 36.999l-34 34.5c-11.333 11.667 -21 25.167 -29 40.5s-12 31.333 -12 48
c0 35.333 11.833 65.5 35.5 90.5s52.834 37.5 87.501 37.5c27.333 0 52.333 -9.66699 75 -29z" />
    <glyph glyph-name="t" unicode="t" horiz-adv-x="196" 
d="M222 447l-6 -52h-74l-49 -395h-55l49 395h-47l6 52h48l15 127h55l-15 -127h73z" />
    <glyph glyph-name="u" unicode="u" horiz-adv-x="327" 
d="M305 447l-40.999 -337.998c-4.66699 -36 -18.5 -64.333 -41.5 -85s-52.5 -31 -88.5 -31c-30.667 0 -55 8.5 -73 25.5s-27 40.833 -27 71.5c0 8.66699 0.333008 15 1 19l41 338h56l-36 -291c-2.66699 -22.667 -4 -39.667 -4 -51c0 -39.333 16.667 -59 50 -59
c14 0 25.667 3 35 9s16.166 14.667 20.499 26s7.5 21.666 9.5 30.999s4 21 6 35c0 2 0.166992 3.66699 0.5 5s0.5 2.66602 0.5 3.99902l36 291h55z" />
    <glyph glyph-name="v" unicode="v" horiz-adv-x="271" 
d="M293 447l-153 -446.999h-60l-46 447h58l25 -267c2.66699 -34.667 4 -60.334 4 -77.001c0 -8.66699 0.333008 -15 1 -19c4 22.667 12.667 54 26 94l87 269h58z" />
    <glyph glyph-name="w" unicode="w" horiz-adv-x="433" 
d="M450 447l-151.001 -447.003h-57c-7.33301 227.333 -11 351.333 -11 372c-4 -19.333 -10 -42.666 -18 -69.999l-84 -302h-58l-33 447h56l17 -271c0.666992 -10 1 -25.333 1 -46c0 -21.333 -0.333008 -37.333 -1 -48c2 8.66699 9.66699 39.334 23 92.001l79 273h57
c7.33301 -177.333 11 -299 11 -365c8.66699 30.667 46.334 152.334 113.001 365.001h56z" />
    <glyph glyph-name="x" unicode="x" horiz-adv-x="275" 
d="M296 447l-126 -217.998l71 -229h-63l-33 127c-8 29.333 -12.333 51.333 -13 66c-6 -18.667 -15.333 -41 -28 -67l-63 -126h-62l129 229l-64 218h61l12 -45.5c5.33301 -20.333 9.5 -36.833 12.5 -49.5s6 -27.834 9 -45.501s4.83301 -33.834 5.5 -48.501
c15.333 38.667 25 62 29 70c4.66699 8.66699 11 21.167 19 37.5l22.5 44.5l19.5 37h62z" />
    <glyph glyph-name="y" unicode="y" horiz-adv-x="291" 
d="M312 447l-232 -626.999h-59l71 192l-52 435h57l25 -248c4 -36.667 6 -74 6 -112c4 13.333 15.667 47.666 35 102.999l91 257h58z" />
    <glyph glyph-name="z" unicode="z" horiz-adv-x="267" 
d="M290 447l-227 -395h149l-6 -52h-229l222 395h-150l6 52h235z" />
    <glyph glyph-name="braceleft" unicode="{" horiz-adv-x="502" 
d="M418 729l-6.00098 -45.998c-36 -1.33301 -61.5 -8.33301 -76.5 -21s-24.833 -36.667 -29.5 -72l-24 -199c-2 -18.667 -7.33301 -38.334 -16 -59.001c-9.33301 -22 -29.333 -40 -60 -54c33.333 -17.333 50 -45.333 50 -84c0 -7.33301 -0.666992 -17.666 -2 -30.999
l-24 -193c-1.33301 -8.66699 -2 -21.334 -2 -38.001c0 -38.667 28.333 -58 85 -58l-6 -46c-3.33301 -0.666992 -8.66602 -1 -15.999 -1c-38.667 0 -68 7.83301 -88 23.5s-30 42.167 -30 79.5c0 16 1 31.333 3 46l23 187c1.33301 12 2 21.333 2 28
c0 18.667 -3.5 33.167 -10.5 43.5s-19.5 18.166 -37.5 23.499l5 43c22.667 6 39 16.5 49 31.5s16.667 35.167 20 60.5l25 201c6 52 21.833 87.5 47.5 106.5s65.167 28.5 118.5 28.5z" />
    <glyph glyph-name="bar" unicode="|" horiz-adv-x="500" 
d="M280 -250h-55v1000h55v-1000z" />
    <glyph glyph-name="braceright" unicode="}" horiz-adv-x="502" 
d="M361 299l-5 -41.999c-22.667 -7.33301 -39 -18.333 -49 -33s-16.667 -34.667 -20 -60l-25 -201c-6 -46.667 -20.667 -81 -44 -103s-58.333 -33 -105 -33c-7.33301 0 -13 0.333008 -17 1l6 46c36 1.33301 61.5 8.16602 76.5 20.499s24.833 36.166 29.5 71.499l24 201
c4 30 11.333 53.5 22 70.5s28.667 30.833 54 41.5c-18.667 10 -31.667 21.333 -39 34s-11 29.667 -11 51c0 7.33301 0.666992 17.666 2 30.999l23 191c1.33301 8.66699 2 21.334 2 38.001c0 23.333 -7.5 38.833 -22.5 46.5s-35.833 11.834 -62.5 12.501l6 46h16
c39.333 0 68.833 -7.83301 88.5 -23.5s29.5 -42.5 29.5 -80.5c0 -15.333 -1 -30.333 -3 -45l-22 -185c-1.33301 -12 -2 -21.333 -2 -28c0 -35.333 16 -58 48 -68z" />
    <glyph glyph-name="asciitilde" unicode="~" horiz-adv-x="667" 
d="M590 721l34.999 -21c-35.333 -70.667 -81 -106 -137 -106c-24.667 0 -61.167 11.833 -109.5 35.5s-82.5 35.5 -102.5 35.5c-34.667 0 -66.334 -25.333 -95.001 -76l-35 22c13.333 24 24.5 42.333 33.5 55s22.333 24.667 40 36s37.5 17 59.5 17
c24.667 0 61.334 -11.833 110.001 -35.5s83.334 -35.5 104.001 -35.5c22 0 40.167 6.16699 54.5 18.5s28.5 30.5 42.5 54.5z" />
    <glyph glyph-name="uni00A0" unicode="&#xa0;" horiz-adv-x="233" 
 />
    <glyph glyph-name="exclamdown" unicode="&#xa1;" horiz-adv-x="233" 
d="M189 415c0 -13.333 -5.00195 -25.168 -15.002 -35.501s-21.667 -15.5 -35 -15.5c-11.333 0 -20.666 3.83301 -27.999 11.5s-11 17.167 -11 28.5c0 13.333 5 25 15 35s21.667 15 35 15c10.667 0 19.834 -3.66699 27.501 -11s11.5 -16.666 11.5 -27.999zM157.998 279.998
l-61 -500h-60l62 500h59z" />
    <glyph glyph-name="cent" unicode="&#xa2;" horiz-adv-x="366" 
d="M318 558l-7.99805 -67.002c-15.333 20 -32.333 30 -51 30c-18 0 -34.167 -9.16699 -48.5 -27.5s-24.833 -37.333 -31.5 -57s-11.334 -38.834 -14.001 -57.501c-6 -32.667 -9 -65 -9 -97c0 -11.333 0.666992 -22.666 2 -33.999s3.83301 -23.666 7.5 -36.999
s9.66699 -24.166 18 -32.499s18.5 -12.5 30.5 -12.5c18.667 0 39 13.333 61 40l-9 -70c-14 -10 -27.667 -16.333 -41 -19l-12 -92h-49l10 92c-52 20.667 -78 73 -78 157c0 61.333 9.66699 120 29 176c21.333 63.333 56.666 103.333 105.999 120l11 83h48l-10 -82
c14 -2 26.667 -6.33301 38 -13z" />
    <glyph glyph-name="sterling" unicode="&#xa3;" horiz-adv-x="366" 
d="M42 340l60.998 0.000976562c-18.667 42.667 -28 86 -28 130c0 70.667 20.333 125 61 163c30 28.667 67 43 111 43c36 0 65.667 -12.333 89 -37c21.333 -22.667 32 -52.334 32 -89.001c0 -8.66699 -0.333008 -15 -1 -19l-59 -12c0.666992 3.33301 1 9 1 17
c0 27.333 -7.66699 48.333 -23 63c-12.667 11.333 -28.334 17 -47.001 17c-26 0 -47.667 -8.66699 -65 -26c-24 -22.667 -36 -59 -36 -109c0 -44 10.667 -91 32 -141h103l-6 -42h-82c18.667 -32.667 28 -64.667 28 -96c0 -21.333 -5.66699 -44 -17 -68
c-9.33301 -20 -20.666 -37.667 -33.999 -53l24 -19c18 -14.667 33.667 -22 47 -22c11.333 0 20.333 5 27 15c6.66699 8 11.334 19.333 14.001 34l49 -17c-6 -27.333 -17.667 -49.333 -35 -66c-16.667 -16.667 -36.667 -25 -60 -25c-20.667 0 -40 6.66699 -58 20l-22 16
c-21.333 15.333 -36.666 23 -45.999 23c-11.333 0 -21.333 -4.33301 -30 -13c-6 -6 -12 -15 -18 -27l-46 30c9.33301 15.333 19.333 28.333 30 39c20 20 41 30 63 30c6 0 11 -0.666992 15 -2c24 30.667 36 62.667 36 96c0 31.333 -11 66.333 -33 105h-82z" />
    <glyph glyph-name="currency" unicode="&#xa4;" horiz-adv-x="667" 
d="M619 119l-32 -31.998l-93 93c-43.333 -36 -91.333 -54 -144 -54c-48 0 -96.333 17.333 -145 52l-92 -92l-31 33l91 91c-36 45.333 -54 93.666 -54 144.999c0 49.333 17.333 96.666 52 141.999l-92 92l32 32l92 -92c46 36 94.667 54 146 54c50.667 0 99 -17.667 145 -53
l92 91l32 -32l-92 -92c34.667 -45.333 52 -93 52 -143c0 -50.667 -17.333 -98 -52 -142zM527 354.002c0 49.333 -17.333 91.5 -52 126.5s-76.667 52.5 -126 52.5s-91.333 -17.5 -126 -52.5s-52 -77.167 -52 -126.5s17.5 -91.333 52.5 -126s76.833 -52 125.5 -52
s90.5 17.333 125.5 52s52.5 76.667 52.5 126z" />
    <glyph glyph-name="yen" unicode="&#xa5;" horiz-adv-x="366" 
d="M389 667l-111 -249h93l-5 -42h-106l-29 -65h127l-5 -42h-133l-33 -269h-56l33 269h-141l5 42h135l-15 65h-112l6 42h97l-54 249h63l38 -195c7.33301 -36 12.666 -75.667 15.999 -119c10.667 37.333 25.334 78 44.001 122l80 192h63z" />
    <glyph glyph-name="brokenbar" unicode="&#xa6;" horiz-adv-x="500" 
d="M280 337h-55v412h55v-412zM280 -250h-55v403h55v-403z" />
    <glyph glyph-name="section" unicode="&#xa7;" horiz-adv-x="361" 
d="M24 -32h58.0029c-0.666992 -5.33301 -1 -13 -1 -23c0 -47.333 18.667 -71 56 -71c26 0 45.833 11.167 59.5 33.5s20.5 47.166 20.5 74.499c0 20 -4.16699 37.167 -12.5 51.5s-18.833 25 -31.5 32s-26.5 15.333 -41.5 25s-28.833 19.834 -41.5 30.501
s-23.167 26.667 -31.5 48s-12.5 47 -12.5 77c0 48 10.167 92.333 30.5 133s51.166 66.667 92.499 78c-43.333 30.667 -65 72 -65 124c0 42.667 13.167 79.834 39.5 111.501s60.5 47.5 102.5 47.5c33.333 0 59.666 -11 78.999 -33s29 -49.667 29 -83
c0 -2.66699 -0.166992 -6.33398 -0.5 -11.001s-0.5 -8 -0.5 -10h-58c0 56 -19 84 -57 84c-24.667 0 -43.834 -10.833 -57.501 -32.5s-20.5 -45.5 -20.5 -71.5c0 -21.333 6.5 -40.5 19.5 -57.5s27.667 -30.333 44 -40s33.5 -21.667 51.5 -36s31 -29.166 39 -44.499
c10 -20 15 -48 15 -84c0 -30.667 -3.16699 -59.834 -9.5 -87.501s-18.666 -54 -36.999 -79s-41.166 -41.833 -68.499 -50.5c39.333 -26.667 59 -66 59 -118c0 -44 -12.833 -82.667 -38.5 -116s-59.834 -50 -102.501 -50c-34.667 0 -61.334 11.833 -80.001 35.5
s-28 53.167 -28 88.5v24zM273.003 325c0 26 -5.50293 48.335 -16.5029 67.002s-28.5 28 -52.5 28c-19.333 0 -36 -6.33301 -50 -19s-24.667 -28.834 -32 -48.501s-12.666 -39.167 -15.999 -58.5s-5 -37.666 -5 -54.999c0 -65.333 22.667 -98 68 -98
c21.333 0 39.333 6.16699 54 18.5s25.334 28.666 32.001 48.999s11.334 39.666 14.001 57.999s4 37.833 4 58.5z" />
    <glyph glyph-name="dieresis" unicode="&#xa8;" 
d="M393 562c0 -13.333 -4.83398 -24.835 -14.501 -34.502s-21.167 -14.5 -34.5 -14.5c-10.667 0 -19.5 3.83301 -26.5 11.5s-10.5 16.834 -10.5 27.501c0 12.667 4.83301 23.834 14.5 33.501s20.834 14.5 33.501 14.5c11.333 0 20.5 -3.66699 27.5 -11
s10.5 -16.333 10.5 -27zM266.999 561.998c0 -13.333 -4.83398 -24.835 -14.501 -34.502s-21.167 -14.5 -34.5 -14.5c-10.667 0 -19.5 3.83301 -26.5 11.5s-10.5 16.834 -10.5 27.501c0 12.667 4.83301 23.834 14.5 33.501s20.834 14.5 33.501 14.5
c11.333 0 20.5 -3.66699 27.5 -11s10.5 -16.333 10.5 -27z" />
    <glyph glyph-name="copyright" unicode="&#xa9;" horiz-adv-x="756" 
d="M736 333c0 -95.333 -33.6689 -176.666 -101.002 -243.999s-148.666 -101 -243.999 -101s-176.666 33.667 -243.999 101s-101 148.666 -101 243.999s33.833 176.833 101.5 244.5s149.167 101.5 244.5 101.5c94.667 0 175.667 -34 243 -102s101 -149.333 101 -244z
M695.998 333c0 84.667 -29.501 157.5 -88.501 218.5s-130.833 91.5 -215.5 91.5c-85.333 0 -157.666 -30.333 -216.999 -91s-89 -133.667 -89 -219c0 -84.667 29.833 -157.334 89.5 -218.001s131.5 -91 215.5 -91c84.667 0 156.667 30.333 216 91s89 133.334 89 218.001z
M446.997 199l0.000976562 -51.999c-20 -12.667 -40.333 -19 -61 -19c-32 0 -59 13.667 -81 41c-24.667 31.333 -37 84.666 -37 159.999c0 140 40.667 210 122 210c14 0 32 -4.66699 54 -14l1 -1h2v-55c-24.667 14.667 -43 22 -55 22c-47.333 0 -71 -52 -71 -156
c0 -106 22.667 -159 68 -159c13.333 0 32.666 7.66699 57.999 23z" />
    <glyph glyph-name="ordfeminine" unicode="&#xaa;" horiz-adv-x="236" 
d="M244 667l-36.001 -295.002h-42l2 18c-14.667 -14.667 -31 -22 -49 -22c-38 0 -57 26.667 -57 80c0 30.667 2.83301 64.834 8.5 102.501s14.5 65.834 26.5 84.501c15.333 24 36 36 62 36c16.667 0 30.334 -6.33301 41.001 -19l2 15h42zM201.999 329.998l-4 -33h-155l4 33
h155zM191.999 585.998c0 33.333 -9.66699 49.999 -29 49.999c-12.667 0 -23 -7.33301 -31 -22c-8 -15.333 -14.5 -39.666 -19.5 -72.999s-7.5 -62 -7.5 -86c0 -34.667 9.66699 -52 29 -52c10 0 18.333 4 25 12s11 15.5 13 22.5s4.33301 16.5 7 28.5c8.66699 42 13 82 13 120
z" />
    <glyph glyph-name="guillemotleft" unicode="&#xab;" horiz-adv-x="320" 
d="M309 404l-114 -167l73 -171l-41 -23l-83 194l130 188zM199 404l-114 -167l72 -171l-40 -23l-83 194l130 188z" />
    <glyph glyph-name="logicalnot" unicode="&#xac;" horiz-adv-x="500" 
d="M455 0h-55v217h-378v50h433v-267z" />
    <glyph glyph-name="uni00AD" unicode="&#xad;" horiz-adv-x="238" 
d="M189 233h-138l7 58h138z" />
    <glyph glyph-name="registered" unicode="&#xae;" horiz-adv-x="756" 
d="M495 131h-51l-85 176v-176h-49v405h53c42 0 72 -8.16699 90 -24.5s27 -45.5 27 -87.5c0 -28.667 -6 -52.667 -18 -72s-31.333 -30 -58 -32zM359 363h21c20 0 33.167 5.16699 39.5 15.5s9.5 26.5 9.5 48.5c0 23.333 -3.5 40 -10.5 50s-21.833 15 -44.5 15h-15v-129z
M696 333c0 84.667 -29.501 157.5 -88.501 218.5s-130.833 91.5 -215.5 91.5c-85.333 0 -157.666 -30.333 -216.999 -91s-89 -133.667 -89 -219c0 -84.667 29.833 -157.334 89.5 -218.001s131.5 -91 215.5 -91c84.667 0 156.667 30.333 216 91s89 133.334 89 218.001z
M735.999 333c0 -95.333 -33.6689 -176.666 -101.002 -243.999s-148.666 -101 -243.999 -101s-176.666 33.667 -243.999 101s-101 148.666 -101 243.999s33.833 176.833 101.5 244.5s149.167 101.5 244.5 101.5c94.667 0 175.667 -34 243 -102s101 -149.333 101 -244z" />
    <glyph glyph-name="macron" unicode="&#xaf;" 
d="M400 575l-7 -55h-221l6 55h222z" />
    <glyph glyph-name="degree" unicode="&#xb0;" horiz-adv-x="500" 
d="M426 538c0 -37.333 -13.667 -69.166 -41 -95.499s-59.666 -39.5 -96.999 -39.5s-69.666 13.167 -96.999 39.5s-41 58.166 -41 95.499s13.667 69 41 95s59.666 39 96.999 39s69.666 -13 96.999 -39s41 -57.667 41 -95zM388 538c0 27.333 -9.83301 50.5 -29.5 69.5
s-43.167 28.5 -70.5 28.5s-50.833 -9.5 -70.5 -28.5s-29.5 -42.167 -29.5 -69.5s9.83301 -50.5 29.5 -69.5s43.167 -28.5 70.5 -28.5s50.833 9.5 70.5 28.5s29.5 42.167 29.5 69.5z" />
    <glyph glyph-name="plusminus" unicode="&#xb1;" horiz-adv-x="500" 
d="M467 342h-189v-176h-55v176h-189v51h189v177h55v-177h189v-51zM467 71h-433v52h433v-52z" />
    <glyph glyph-name="twosuperior" unicode="&#xb2;" horiz-adv-x="248" 
d="M121 553l-44.002 -0.00292969c10.667 80 44.334 120 101.001 120c24 0 42.833 -6.83301 56.5 -20.5s20.5 -32.5 20.5 -56.5c0 -8 -0.666992 -16.167 -2 -24.5s-2.83301 -15.666 -4.5 -21.999s-4.66699 -14.166 -9 -23.499s-7.5 -16.333 -9.5 -21
s-6.16699 -12.167 -12.5 -22.5s-10.333 -17 -12 -20s-6.16699 -10.167 -13.5 -21.5s-11.666 -17.666 -12.999 -18.999l-74 -115h110l-5 -41h-176l108 172l10.5 16.5l11.5 18.5l11 18.5c5.33301 9 9.16602 15.833 11.499 20.5s5.33301 11.167 9 19.5
s6.33398 15.5 8.00098 21.5s3.16699 12.5 4.5 19.5s2 13.833 2 20.5c0 26.667 -11.667 40 -35 40c-31.333 0 -49.333 -26.667 -54 -80z" />
    <glyph glyph-name="threesuperior" unicode="&#xb3;" horiz-adv-x="248" 
d="M122 569l-40.998 -0.000976562c3.33301 30 12.5 54.833 27.5 74.5s36.833 29.5 65.5 29.5c23.333 0 41.666 -6.33301 54.999 -19s20 -30.667 20 -54c0 -26.667 -3.83301 -48.834 -11.5 -66.501s-21.834 -32.834 -42.501 -45.501
c14.667 -9.33301 24.334 -19.833 29.001 -31.5s7 -27.5 7 -47.5c0 -41.333 -8.16699 -76.166 -24.5 -104.499s-43.5 -42.5 -81.5 -42.5c-24 0 -42.667 6.5 -56 19.5s-20 31.5 -20 55.5c0 10.667 1.33301 25.334 4 44.001h43c-1.33301 -14.667 -2 -25.667 -2 -33
c0 -30 12 -45 36 -45c21.333 0 36.666 11.667 45.999 35c8 20.667 12 42.667 12 66c0 26.667 -6 43.834 -18 51.501s-32 11.5 -60 11.5l4 38h19c29.333 0 49.333 10 60 30c8 15.333 12 34 12 56c0 26.667 -11.667 40 -35 40c-17.333 0 -29 -5.33301 -35 -16
s-10.333 -26 -13 -46z" />
    <glyph glyph-name="acute" unicode="&#xb4;" 
d="M407 610l-126 -103l-32 26l110 120z" />
    <glyph glyph-name="mu" unicode="&#xb5;" horiz-adv-x="492" 
d="M415 0l-55.999 -0.000976562l9 79c-18 -32.667 -38.667 -56 -62 -70c-24.667 -14.667 -53.334 -22 -86.001 -22c-36 0 -65.667 10 -89 30c-18.667 16 -32.667 38.333 -42 67l-33 -264h-56l77 627h56l-26 -212c-4 -28 -6 -50.667 -6 -68c0 -39.333 11.667 -71 35 -95
c24.667 -24.667 55.334 -37 92.001 -37c37.333 0 69.666 12.667 96.999 38c32 30.667 52.667 83.334 62 158.001l27 216h56z" />
    <glyph glyph-name="mu" unicode="&#x3bc;" horiz-adv-x="492" 
d="M415 0l-55.999 -0.000976562l9 79c-18 -32.667 -38.667 -56 -62 -70c-24.667 -14.667 -53.334 -22 -86.001 -22c-36 0 -65.667 10 -89 30c-18.667 16 -32.667 38.333 -42 67l-33 -264h-56l77 627h56l-26 -212c-4 -28 -6 -50.667 -6 -68c0 -39.333 11.667 -71 35 -95
c24.667 -24.667 55.334 -37 92.001 -37c37.333 0 69.666 12.667 96.999 38c32 30.667 52.667 83.334 62 158.001l27 216h56z" />
    <glyph glyph-name="paragraph" unicode="&#xb6;" horiz-adv-x="554" 
d="M538 667l-5 -44h-56l-89 -723h-48l88 723h-111l-89 -723h-49l51 413c-1.33301 0 -4 -0.166992 -8 -0.5s-6.66699 -0.5 -8 -0.5c-48.667 0 -88.167 13.5 -118.5 40.5s-45.5 64.5 -45.5 112.5c0 62 23.333 112.667 70 152c40 33.333 96.667 50 170 50h248z" />
    <glyph glyph-name="periodcentered" unicode="&#xb7;" horiz-adv-x="201" 
d="M173 351c0 -17.333 -6.5 -32.666 -19.5 -45.999s-28.167 -20 -45.5 -20c-16.667 0 -29.334 5.33301 -38.001 16s-13 24.667 -13 42c0 15.333 7 29 21 41s28.667 18 44 18c14.667 0 26.834 -4.83301 36.501 -14.5s14.5 -21.834 14.5 -36.501z" />
    <glyph glyph-name="cedilla" unicode="&#xb8;" 
d="M269 -62l-99 -134l-32 21l89 138z" />
    <glyph glyph-name="onesuperior" unicode="&#xb9;" horiz-adv-x="250" 
d="M207 667l-49 -400h-44l44 359h-54l5 41h98z" />
    <glyph glyph-name="ordmasculine" unicode="&#xba;" horiz-adv-x="236" 
d="M243 576c0 -20.667 -1.33203 -41.3311 -3.99902 -61.998s-7.33398 -42.834 -14.001 -66.501s-17.667 -42.834 -33 -57.501s-33.666 -22 -54.999 -22c-47.333 0 -71 35.667 -71 107c0 19.333 1.66699 39.166 5 59.499s8.66602 41.333 15.999 63s18.5 39.334 33.5 53.001
s32.833 20.5 53.5 20.5c46 0 69 -31.667 69 -95zM213.001 330.003l-4 -33h-164l4 33h164zM199.001 566.003c0 43.333 -10.334 65.002 -31.001 65.002c-21.333 0 -36.666 -18.667 -45.999 -56s-14 -72 -14 -104c0 -42.667 11 -64 33 -64c11.333 0 21.166 6.33301 29.499 19
s14.333 28.667 18 48s6.33398 36.666 8.00098 51.999s2.5 28.666 2.5 39.999z" />
    <glyph glyph-name="guillemotright" unicode="&#xbb;" horiz-adv-x="320" 
d="M289 237l-131 -194l-35 23l115 171l-73 167l40 21zM178 237l-130 -194l-35 23l114 171l-73 167l41 21z" />
    <glyph glyph-name="onequarter" unicode="&#xbc;" horiz-adv-x="612" 
d="M569 400l-32 -255h31l-5 -39h-30l-13 -106h-44l13 106h-109l5 40l141 254h43zM207 667l-49 -400h-44l44 359h-54l5 41h98zM429 145h64c12.667 98 20 153 22 165zM523 667l-371 -667h-46l371 667h46z" />
    <glyph glyph-name="onehalf" unicode="&#xbd;" horiz-adv-x="612" 
d="M452 287l-43.001 0.000976562c4.66699 31.333 9.33398 52.333 14.001 63c16 37.333 44.667 56 86 56c24 0 42.833 -6.83301 56.5 -20.5s20.5 -32.5 20.5 -56.5c0 -18.667 -4.66699 -39.667 -14 -63s-17.833 -41.5 -25.5 -54.5s-19.5 -31.5 -35.5 -55.5l-75 -115h110
l-5 -41h-176l108 173c0.666992 1.33301 4.5 7.5 11.5 18.5l14 22c2.33301 3.66699 6.33301 10.667 12 21s9.66699 18.5 12 24.5s5.33301 13.333 9 22s6.16699 16.667 7.5 24s2 14.666 2 21.999c0 26.667 -11.667 40 -35 40c-31.333 0 -49.333 -26.667 -54 -80z
M206.999 667.001l-49 -400h-44l44 359h-54l6 41h97zM522.999 667.001l-371 -667h-46l371 667h46z" />
    <glyph glyph-name="threequarters" unicode="&#xbe;" horiz-adv-x="611" 
d="M567 400l-31 -255h30l-5 -39h-30l-13 -106h-44l13 106h-109l5 40l141 254h43zM122 569l-40.998 -0.000976562c3.33301 30 12.5 54.833 27.5 74.5s36.833 29.5 65.5 29.5c23.333 0 41.666 -6.33301 54.999 -19s20 -30.667 20 -54
c0 -26.667 -3.83301 -48.834 -11.5 -66.501s-21.834 -32.834 -42.501 -45.501c14.667 -9.33301 24.334 -19.833 29.001 -31.5s7 -27.5 7 -47.5c0 -41.333 -8.16699 -76.166 -24.5 -104.499s-43.5 -42.5 -81.5 -42.5c-24 0 -42.667 6.5 -56 19.5s-20 31.5 -20 55.5
c0 10.667 1.33301 25.334 4 44.001h43c-1.33301 -14.667 -2 -25.667 -2 -33c0 -30 12 -45 36 -45c21.333 0 36.666 11.667 45.999 35c8 20.667 12 42.667 12 66c0 26.667 -6 43.834 -18 51.501s-32 11.5 -60 11.5l4 38h19c29.333 0 49.333 10 60 30c8 15.333 12 34 12 56
c0 26.667 -11.667 40 -35 40c-17.333 0 -29 -5.33301 -35 -16s-10.333 -26 -13 -46zM427.002 144.999l65.001 -0.000976562c7.33301 71.333 14.666 126.333 21.999 165c-1.33301 -3.33301 -8.33301 -16.666 -21 -39.999zM523.003 666.998l-371 -667h-46l371 667h46z" />
    <glyph glyph-name="questiondown" unicode="&#xbf;" horiz-adv-x="326" 
d="M265 415c0 -13.333 -5 -25.168 -15 -35.501s-21.667 -15.5 -35 -15.5c-11.333 0 -20.833 3.83301 -28.5 11.5s-11.5 17.167 -11.5 28.5c0 13.333 5.16699 25 15.5 35s22.166 15 35.499 15c10.667 0 19.834 -3.66699 27.501 -11s11.5 -16.666 11.5 -27.999zM245 -51.002
l-6 -47.001c-11.333 -87.333 -54.333 -131 -129 -131c-30 0 -53.167 8.5 -69.5 25.5s-24.5 40.5 -24.5 70.5c0 14.667 2 36.667 6 66c3.33301 23.333 6.16602 41.333 8.49902 54s6.66602 28.5 12.999 47.5s13.833 33.667 22.5 44s20.834 19.666 36.501 27.999
s34.167 12.833 55.5 13.5l20 161h58l-26 -215h-42c-21.333 0 -37 -3.66699 -47 -11s-18.333 -21 -25 -41c-12.667 -40 -19 -84.333 -19 -133c0 -37.333 14 -56 42 -56c8.66699 0 16.334 1.33301 23.001 4s12.167 7 16.5 13s8 11.833 11 17.5s5.5 13.334 7.5 23.001
s3.5 17.167 4.5 22.5s2 13.333 3 24s1.83301 17.334 2.5 20.001h58z" />
    <glyph glyph-name="Agrave" unicode="&#xc0;" horiz-adv-x="320" 
d="M291 0h-65l-8 137h-139l-41 -137h-65l211 667h58zM215 191l-14.001 234.997c-2 26.667 -3 53.334 -3 80.001c0 25.333 1 51 3 77c-5.33301 -31.333 -12.666 -65.666 -21.999 -102.999s-17.333 -67.666 -24 -90.999l-31 -104.5l-28 -93.5h119zM238.999 739.997l-39 -26
l-100 103l58 43z" />
    <glyph glyph-name="Aacute" unicode="&#xc1;" horiz-adv-x="320" 
d="M291 0h-65l-8 137h-139l-41 -137h-65l211 667h58zM215 191l-14.001 234.997c-2 26.667 -3 53.334 -3 80.001c0 25.333 1 51 3 77c-5.33301 -31.333 -12.666 -65.666 -21.999 -102.999s-17.333 -67.666 -24 -90.999l-31 -104.5l-28 -93.5h119zM346.999 816.997l-126 -103
l-32 26l110 120z" />
    <glyph glyph-name="Acircumflex" unicode="&#xc2;" horiz-adv-x="320" 
d="M291 0h-65l-8 137h-139l-41 -137h-65l211 667h58zM215 191l-14.001 234.997c-2 26.667 -3 53.334 -3 80.001c0 25.333 1 51 3 77c-5.33301 -31.333 -12.666 -65.666 -21.999 -102.999s-17.333 -67.666 -24 -90.999l-31 -104.5l-28 -93.5h119zM330.999 751.997l-44 -38
l-64 69l-82 -69l-32 38l123 107z" />
    <glyph glyph-name="Atilde" unicode="&#xc3;" horiz-adv-x="320" 
d="M291 0h-65l-8 137h-139l-41 -137h-65l211 667h58zM215 191l-14.001 234.997c-2 26.667 -3 53.334 -3 80.001c0 25.333 1 51 3 77c-5.33301 -31.333 -12.666 -65.666 -21.999 -102.999s-17.333 -67.666 -24 -90.999l-31 -104.5l-28 -93.5h119zM277.999 801.997h56.999
c-4.66699 -22 -13.667 -41.167 -27 -57.5s-30 -24.5 -50 -24.5c-13.333 0 -29.333 5.66699 -48 17s-31 17 -37 17c-11.333 0 -17.666 -8.33301 -18.999 -25h-55c5.33301 22 14.5 40.333 27.5 55s29.833 22 50.5 22c11.333 0 26.333 -5.33301 45 -16s31 -16 37 -16
c10.667 0 17 9.33301 19 28z" />
    <glyph glyph-name="Adieresis" unicode="&#xc4;" horiz-adv-x="320" 
d="M291 0h-65l-8 137h-139l-41 -137h-65l211 667h58zM215 191l-14.001 234.997c-2 26.667 -3 53.334 -3 80.001c0 25.333 1 51 3 77c-5.33301 -31.333 -12.666 -65.666 -21.999 -102.999s-17.333 -67.666 -24 -90.999l-31 -104.5l-28 -93.5h119zM322.999 768.997
c0 -12.667 -4.83398 -24.002 -14.501 -34.002s-21.167 -15 -34.5 -15c-10.667 0 -19.5 3.83301 -26.5 11.5s-10.5 16.834 -10.5 27.501c0 12.667 4.83301 23.834 14.5 33.501s20.834 14.5 33.501 14.5c11.333 0 20.5 -3.5 27.5 -10.5s10.5 -16.167 10.5 -27.5z
M196.998 768.995c0 -12.667 -4.83398 -24.002 -14.501 -34.002s-21.167 -15 -34.5 -15c-10.667 0 -19.5 3.83301 -26.5 11.5s-10.5 16.834 -10.5 27.501c0 12.667 4.83301 23.834 14.5 33.501s20.834 14.5 33.501 14.5c11.333 0 20.5 -3.5 27.5 -10.5
s10.5 -16.167 10.5 -27.5z" />
    <glyph glyph-name="Aring" unicode="&#xc5;" horiz-adv-x="320" 
d="M291 0h-65l-8 137h-139l-41 -137h-65l211 667h58zM215 191l-14.001 234.997c-2 26.667 -3 53.334 -3 80.001c0 25.333 1 51 3 77c-5.33301 -31.333 -12.666 -65.666 -21.999 -102.999s-17.333 -67.666 -24 -90.999l-31 -104.5l-28 -93.5h119zM293.999 793.997
c0 -22 -7.66699 -40.833 -23 -56.5s-34 -23.5 -56 -23.5s-40.667 7.83301 -56 23.5s-23 34.5 -23 56.5s7.66699 40.833 23 56.5s34 23.5 56 23.5s40.667 -7.83301 56 -23.5s23 -34.5 23 -56.5zM253.999 793.997c0 11.333 -3.83105 20.833 -11.498 28.5
s-16.834 11.5 -27.501 11.5c-11.333 0 -20.833 -4 -28.5 -12s-11.5 -17.333 -11.5 -28s3.83301 -20 11.5 -28s17.167 -12 28.5 -12s20.666 3.83301 27.999 11.5s11 17.167 11 28.5z" />
    <glyph glyph-name="AE" unicode="&#xc6;" horiz-adv-x="455" 
d="M436 0h-204l-5 137h-149l-40 -137h-65l211 667h219l3 -57h-141l13 -235h133l3 -57h-133l15 -261h138zM225 190l-12 282.001c-0.666992 0 -1 20.667 -1 62l1 61c-10.667 -42.667 -21.667 -83.334 -33 -122.001l-85 -283h130z" />
    <glyph glyph-name="Ccedilla" unicode="&#xc7;" horiz-adv-x="315" 
d="M350 655l-7.99902 -68c-26 19.333 -50.333 29 -73 29c-39.333 0 -71.333 -20.333 -96 -61c-22.667 -36.667 -39.5 -88.667 -50.5 -156s-16.5 -130 -16.5 -188c0 -106.667 29.333 -160 88 -160c26 0 54.333 10 85 30l-7 -62c-29.333 -18.667 -59 -28 -89 -28
c-36 0 -65.167 12 -87.5 36s-37 50.833 -44 80.5s-10.5 62.167 -10.5 97.5c0 68.667 8.66699 142.5 26 221.5s42.666 139.833 75.999 182.5c36 44.667 79.333 67 130 67c32 0 57.667 -7 77 -21zM187.001 -62l-99 -134l-32 21l89 138z" />
    <glyph glyph-name="Egrave" unicode="&#xc8;" horiz-adv-x="297" 
d="M313 667l-7 -57h-144l-29 -235h140l-6 -57h-141l-32 -261h144l-7 -57h-205l82 667h205zM259 740l-39 -26l-100 103l58 43z" />
    <glyph glyph-name="Eacute" unicode="&#xc9;" horiz-adv-x="297" 
d="M313 667l-7 -57h-144l-29 -235h140l-6 -57h-141l-32 -261h144l-7 -57h-205l82 667h205zM327 817l-126 -103l-32 26l110 120z" />
    <glyph glyph-name="Ecircumflex" unicode="&#xca;" horiz-adv-x="297" 
d="M313 667l-7 -57h-144l-29 -235h140l-6 -57h-141l-32 -261h144l-7 -57h-205l82 667h205zM336 752l-44 -38l-64 69l-82 -69l-32 38l123 107z" />
    <glyph glyph-name="Edieresis" unicode="&#xcb;" horiz-adv-x="297" 
d="M313 667l-7 -57h-144l-29 -235h140l-6 -57h-141l-32 -261h144l-7 -57h-205l82 667h205zM333 769c0 -12.667 -4.83398 -24.002 -14.501 -34.002s-21.167 -15 -34.5 -15c-10.667 0 -19.5 3.83301 -26.5 11.5s-10.5 16.834 -10.5 27.501
c0 12.667 4.83301 23.834 14.5 33.501s20.834 14.5 33.501 14.5c11.333 0 20.5 -3.5 27.5 -10.5s10.5 -16.167 10.5 -27.5zM206.999 768.998c0 -12.667 -4.83398 -24.002 -14.501 -34.002s-21.167 -15 -34.5 -15c-10.667 0 -19.5 3.83301 -26.5 11.5
s-10.5 16.834 -10.5 27.501c0 12.667 4.83301 23.834 14.5 33.501s20.834 14.5 33.501 14.5c11.333 0 20.5 -3.5 27.5 -10.5s10.5 -16.167 10.5 -27.5z" />
    <glyph glyph-name="Igrave" unicode="&#xcc;" horiz-adv-x="169" 
d="M169 667l-82 -667h-61l82 667h61zM189 740l-39 -26l-100 103l58 43z" />
    <glyph glyph-name="Iacute" unicode="&#xcd;" horiz-adv-x="169" 
d="M169 667l-82 -667h-61l82 667h61zM257 817l-126 -103l-32 26l110 120z" />
    <glyph glyph-name="Icircumflex" unicode="&#xce;" horiz-adv-x="169" 
d="M169 667l-82 -667h-61l82 667h61zM256 752l-44 -38l-64 69l-82 -69l-32 38l123 107z" />
    <glyph glyph-name="Idieresis" unicode="&#xcf;" horiz-adv-x="169" 
d="M169 667l-82 -667h-61l82 667h61zM253 769c0 -12.667 -4.83398 -24.002 -14.501 -34.002s-21.167 -15 -34.5 -15c-10.667 0 -19.5 3.83301 -26.5 11.5s-10.5 16.834 -10.5 27.501c0 12.667 4.83301 23.834 14.5 33.501s20.834 14.5 33.501 14.5
c11.333 0 20.5 -3.5 27.5 -10.5s10.5 -16.167 10.5 -27.5zM126.999 768.998c0 -12.667 -4.83398 -24.002 -14.501 -34.002s-21.167 -15 -34.5 -15c-10.667 0 -19.5 3.83301 -26.5 11.5s-10.5 16.834 -10.5 27.501c0 12.667 4.83301 23.834 14.5 33.501
s20.834 14.5 33.501 14.5c11.333 0 20.5 -3.5 27.5 -10.5s10.5 -16.167 10.5 -27.5z" />
    <glyph glyph-name="Eth" unicode="&#xd0;" horiz-adv-x="365" 
d="M108 667l77 0.000976562c50 0 87.333 -8.66699 112 -26c36 -26.667 54 -74 54 -142c0 -90.667 -9.33301 -183.334 -28 -278.001c-7.33301 -36 -15.5 -66.167 -24.5 -90.5s-21.5 -47 -37.5 -68s-36.667 -36.667 -62 -47s-56 -15.5 -92 -15.5h-81l40 321h-47l6 50h47z
M94 57.001l29 0.000976562c29.333 0 53 7 71 21s33.333 35 46 63c14.667 32 26.167 85 34.5 159s12.5 136.333 12.5 187c0 39.333 -7 69.666 -21 90.999s-39.667 32 -77 32h-27l-29 -239h88l-6 -50h-88z" />
    <glyph glyph-name="Ntilde" unicode="&#xd1;" horiz-adv-x="381" 
d="M381 667l-82 -667.001h-53l-92 440c-2 10 -4.5 25.667 -7.5 47s-5.5 37 -7.5 47c-2.66699 -53.333 -5.66699 -92.666 -9 -117.999l-51 -416h-53l82 667h53l94 -453c1.33301 -7.33301 3.33301 -20 6 -38s5 -31.667 7 -41c0 32.667 2 65 6 97l54 435h53zM312 801.999
h56.999c-4.66699 -22 -13.667 -41.167 -27 -57.5s-30 -24.5 -50 -24.5c-13.333 0 -29.333 5.66699 -48 17s-31 17 -37 17c-11.333 0 -17.666 -8.33301 -18.999 -25h-55c5.33301 22 14.5 40.333 27.5 55s29.833 22 50.5 22c11.333 0 26.333 -5.33301 45 -16s31 -16 37 -16
c10.667 0 17 9.33301 19 28z" />
    <glyph glyph-name="Ograve" unicode="&#xd2;" horiz-adv-x="398" 
d="M382 477c0 -128 -15.668 -238.002 -47.001 -330.002c-34 -104 -89 -156 -165 -156c-85.333 0 -128 71.667 -128 215c0 31.333 1.5 64.5 4.5 99.5s9.16699 75.333 18.5 121s21.333 86.334 36 122.001s35.334 65.834 62.001 90.501s57 37 91 37
c85.333 0 128 -66.333 128 -199zM320.999 481.998c0 89.333 -24.332 134 -72.999 134c-30.667 0 -56 -17.333 -76 -52c-22.667 -38 -39.667 -94.333 -51 -169s-17 -142.667 -17 -204c0 -93.333 24.333 -140 73 -140c33.333 0 60.333 19.333 81 58
c19.333 36 34.666 93 45.999 171s17 145.333 17 202zM282 739.998l-39 -26l-100 103l58 43z" />
    <glyph glyph-name="Oacute" unicode="&#xd3;" horiz-adv-x="398" 
d="M382 477c0 -128 -15.668 -238.002 -47.001 -330.002c-34 -104 -89 -156 -165 -156c-85.333 0 -128 71.667 -128 215c0 31.333 1.5 64.5 4.5 99.5s9.16699 75.333 18.5 121s21.333 86.334 36 122.001s35.334 65.834 62.001 90.501s57 37 91 37
c85.333 0 128 -66.333 128 -199zM320.999 481.998c0 89.333 -24.332 134 -72.999 134c-30.667 0 -56 -17.333 -76 -52c-22.667 -38 -39.667 -94.333 -51 -169s-17 -142.667 -17 -204c0 -93.333 24.333 -140 73 -140c33.333 0 60.333 19.333 81 58
c19.333 36 34.666 93 45.999 171s17 145.333 17 202zM380 816.998l-126 -103l-32 26l110 120z" />
    <glyph glyph-name="Ocircumflex" unicode="&#xd4;" horiz-adv-x="398" 
d="M382 477c0 -128 -15.668 -238.002 -47.001 -330.002c-34 -104 -89 -156 -165 -156c-85.333 0 -128 71.667 -128 215c0 31.333 1.5 64.5 4.5 99.5s9.16699 75.333 18.5 121s21.333 86.334 36 122.001s35.334 65.834 62.001 90.501s57 37 91 37
c85.333 0 128 -66.333 128 -199zM320.999 481.998c0 89.333 -24.332 134 -72.999 134c-30.667 0 -56 -17.333 -76 -52c-22.667 -38 -39.667 -94.333 -51 -169s-17 -142.667 -17 -204c0 -93.333 24.333 -140 73 -140c33.333 0 60.333 19.333 81 58
c19.333 36 34.666 93 45.999 171s17 145.333 17 202zM369 751.998l-44 -38l-64 69l-82 -69l-32 38l123 107z" />
    <glyph glyph-name="Otilde" unicode="&#xd5;" horiz-adv-x="398" 
d="M382 477c0 -128 -15.668 -238.002 -47.001 -330.002c-34 -104 -89 -156 -165 -156c-85.333 0 -128 71.667 -128 215c0 31.333 1.5 64.5 4.5 99.5s9.16699 75.333 18.5 121s21.333 86.334 36 122.001s35.334 65.834 62.001 90.501s57 37 91 37
c85.333 0 128 -66.333 128 -199zM320.999 481.998c0 89.333 -24.332 134 -72.999 134c-30.667 0 -56 -17.333 -76 -52c-22.667 -38 -39.667 -94.333 -51 -169s-17 -142.667 -17 -204c0 -93.333 24.333 -140 73 -140c33.333 0 60.333 19.333 81 58
c19.333 36 34.666 93 45.999 171s17 145.333 17 202zM321 801.998h56.999c-4.66699 -22 -13.667 -41.167 -27 -57.5s-30 -24.5 -50 -24.5c-13.333 0 -29.333 5.66699 -48 17s-31 17 -37 17c-11.333 0 -17.666 -8.33301 -18.999 -25h-55c5.33301 22 14.5 40.333 27.5 55
s29.833 22 50.5 22c11.333 0 26.333 -5.33301 45 -16s31 -16 37 -16c10.667 0 17 9.33301 19 28z" />
    <glyph glyph-name="Odieresis" unicode="&#xd6;" horiz-adv-x="398" 
d="M382 477c0 -128 -15.668 -238.002 -47.001 -330.002c-34 -104 -89 -156 -165 -156c-85.333 0 -128 71.667 -128 215c0 31.333 1.5 64.5 4.5 99.5s9.16699 75.333 18.5 121s21.333 86.334 36 122.001s35.334 65.834 62.001 90.501s57 37 91 37
c85.333 0 128 -66.333 128 -199zM320.999 481.998c0 89.333 -24.332 134 -72.999 134c-30.667 0 -56 -17.333 -76 -52c-22.667 -38 -39.667 -94.333 -51 -169s-17 -142.667 -17 -204c0 -93.333 24.333 -140 73 -140c33.333 0 60.333 19.333 81 58
c19.333 36 34.666 93 45.999 171s17 145.333 17 202zM371 768.998c0 -12.667 -4.83398 -24.002 -14.501 -34.002s-21.167 -15 -34.5 -15c-10.667 0 -19.5 3.83301 -26.5 11.5s-10.5 16.834 -10.5 27.501c0 12.667 4.83301 23.834 14.5 33.501s20.834 14.5 33.501 14.5
c11.333 0 20.5 -3.5 27.5 -10.5s10.5 -16.167 10.5 -27.5zM244.999 768.996c0 -12.667 -4.83398 -24.002 -14.501 -34.002s-21.167 -15 -34.5 -15c-10.667 0 -19.5 3.83301 -26.5 11.5s-10.5 16.834 -10.5 27.501c0 12.667 4.83301 23.834 14.5 33.501
s20.834 14.5 33.501 14.5c11.333 0 20.5 -3.5 27.5 -10.5s10.5 -16.167 10.5 -27.5z" />
    <glyph glyph-name="multiply" unicode="&#xd7;" horiz-adv-x="500" 
d="M422 466l-135 -135l135 -134l-37 -38l-135 135l-135 -135l-37 38l135 134l-135 135l37 38l135 -135l135 135z" />
    <glyph glyph-name="Oslash" unicode="&#xd8;" horiz-adv-x="421" 
d="M436 656l-51 -89.001c6 -24.667 9 -58 9 -100c0 -115.333 -15.667 -222 -47 -320c-33.333 -104 -88.333 -156 -165 -156c-45.333 0 -78.333 20 -99 60l-36 -59l-36 19l53 89c-6.66699 25.333 -10 60.333 -10 105c0 31.333 1.5 64.666 4.5 99.999
s9.16699 75.833 18.5 121.5s21.333 86.334 36 122.001s35.167 65.834 61.5 90.501s56.5 37 90.5 37c46 0 79.667 -20 101 -60l35 59zM115 179.999l211 373c-10.667 42 -33 63 -67 63c-48 0 -84 -45 -108 -135c-24 -90.667 -36 -191 -36 -301zM333 485.999l-209 -372
c9.33301 -42 31.333 -63 66 -63c50 0 86 47 108 141c22 93.333 33.667 191.333 35 294z" />
    <glyph glyph-name="Ugrave" unicode="&#xd9;" horiz-adv-x="384" 
d="M384 667l-57 -467.001c-7.33301 -56 -15 -94.667 -23 -116c-11.333 -30 -29.666 -53 -54.999 -69s-54.333 -24 -87 -24c-39.333 0 -69 10.833 -89 32.5s-30 52.5 -30 92.5c0 12.667 2.33301 40.667 7 84l58 467h61l-57 -462c-4.66699 -40.667 -7 -66.667 -7 -78
c0 -50.667 21.667 -76 65 -76c9.33301 0 17.666 0.833008 24.999 2.5s14 5 20 10l15.5 13c4.33301 3.66699 8.16602 10 11.499 19s6 15.5 8 19.5s4 11.833 6 23.5s3.33301 18.834 4 21.501s1.83398 10.5 3.50098 23.5s2.5 20.167 2.5 21.5l57 462h61zM299 739.999l-39 -26
l-100 103l58 43z" />
    <glyph glyph-name="Uacute" unicode="&#xda;" horiz-adv-x="384" 
d="M384 667l-57 -467.001c-7.33301 -56 -15 -94.667 -23 -116c-11.333 -30 -29.666 -53 -54.999 -69s-54.333 -24 -87 -24c-39.333 0 -69 10.833 -89 32.5s-30 52.5 -30 92.5c0 12.667 2.33301 40.667 7 84l58 467h61l-57 -462c-4.66699 -40.667 -7 -66.667 -7 -78
c0 -50.667 21.667 -76 65 -76c9.33301 0 17.666 0.833008 24.999 2.5s14 5 20 10l15.5 13c4.33301 3.66699 8.16602 10 11.499 19s6 15.5 8 19.5s4 11.833 6 23.5s3.33301 18.834 4 21.501s1.83398 10.5 3.50098 23.5s2.5 20.167 2.5 21.5l57 462h61zM367 816.999l-126 -103
l-32 26l110 120z" />
    <glyph glyph-name="Ucircumflex" unicode="&#xdb;" horiz-adv-x="384" 
d="M384 667l-57 -467.001c-7.33301 -56 -15 -94.667 -23 -116c-11.333 -30 -29.666 -53 -54.999 -69s-54.333 -24 -87 -24c-39.333 0 -69 10.833 -89 32.5s-30 52.5 -30 92.5c0 12.667 2.33301 40.667 7 84l58 467h61l-57 -462c-4.66699 -40.667 -7 -66.667 -7 -78
c0 -50.667 21.667 -76 65 -76c9.33301 0 17.666 0.833008 24.999 2.5s14 5 20 10l15.5 13c4.33301 3.66699 8.16602 10 11.499 19s6 15.5 8 19.5s4 11.833 6 23.5s3.33301 18.834 4 21.501s1.83398 10.5 3.50098 23.5s2.5 20.167 2.5 21.5l57 462h61zM366 751.999l-44 -38
l-64 69l-82 -69l-32 38l123 107z" />
    <glyph glyph-name="Udieresis" unicode="&#xdc;" horiz-adv-x="384" 
d="M384 667l-57 -467.001c-7.33301 -56 -15 -94.667 -23 -116c-11.333 -30 -29.666 -53 -54.999 -69s-54.333 -24 -87 -24c-39.333 0 -69 10.833 -89 32.5s-30 52.5 -30 92.5c0 12.667 2.33301 40.667 7 84l58 467h61l-57 -462c-4.66699 -40.667 -7 -66.667 -7 -78
c0 -50.667 21.667 -76 65 -76c9.33301 0 17.666 0.833008 24.999 2.5s14 5 20 10l15.5 13c4.33301 3.66699 8.16602 10 11.499 19s6 15.5 8 19.5s4 11.833 6 23.5s3.33301 18.834 4 21.501s1.83398 10.5 3.50098 23.5s2.5 20.167 2.5 21.5l57 462h61zM363 768.999
c0 -12.667 -4.83398 -24.002 -14.501 -34.002s-21.167 -15 -34.5 -15c-10.667 0 -19.5 3.83301 -26.5 11.5s-10.5 16.834 -10.5 27.501c0 12.667 4.83301 23.834 14.5 33.501s20.834 14.5 33.501 14.5c11.333 0 20.5 -3.5 27.5 -10.5s10.5 -16.167 10.5 -27.5z
M236.999 768.997c0 -12.667 -4.83398 -24.002 -14.501 -34.002s-21.167 -15 -34.5 -15c-10.667 0 -19.5 3.83301 -26.5 11.5s-10.5 16.834 -10.5 27.501c0 12.667 4.83301 23.834 14.5 33.501s20.834 14.5 33.501 14.5c11.333 0 20.5 -3.5 27.5 -10.5
s10.5 -16.167 10.5 -27.5z" />
    <glyph glyph-name="Yacute" unicode="&#xdd;" horiz-adv-x="315" 
d="M367 667l-168 -378.001l-35 -289h-61l35 289l-83 378h66l38 -191c9.33301 -48.667 15 -89.667 17 -123c12 38.667 26.667 79.334 44 122.001l81 192h66zM327 816.999l-126 -103l-32 26l110 120z" />
    <glyph glyph-name="Thorn" unicode="&#xde;" horiz-adv-x="324" 
d="M169 667l-14 -117c48 0 82.333 -4 103 -12c21.333 -8.66699 37 -24.334 47 -47.001s15 -47 15 -73c0 -33.333 -4.66699 -67.166 -14 -101.499s-24 -60.5 -44 -78.5c-12.667 -11.333 -28.834 -19.833 -48.501 -25.5s-35.167 -8.66699 -46.5 -9s-29.666 -0.5 -54.999 -0.5
l-25 -203h-61l82 667h61zM119 260h41c37.333 0 63 13.667 77 41c14 26 21 63.333 21 112c0 28 -6.5 48.333 -19.5 61s-33.167 19 -60.5 19h-30z" />
    <glyph glyph-name="germandbls" unicode="&#xdf;" horiz-adv-x="335" 
d="M84 447l14.999 113.001c3.33301 26 7.33301 48 12 66s11.667 36.5 21 55.5s22.833 33.5 40.5 43.5s38.834 15 63.501 15c68.667 0 103 -44 103 -132c0 -100.667 -28.333 -164 -85 -190c21.333 -10 35.166 -24.167 41.499 -42.5s9.5 -42.166 9.5 -71.499
c0 -22.667 -0.833008 -44.834 -2.5 -66.501s-5.5 -47.667 -11.5 -78s-14.333 -56.5 -25 -78.5s-26.167 -41 -46.5 -57s-44.166 -24 -71.499 -24h-20l7 56h16c22 0 38.333 6.83301 49 20.5s19 32.5 25 56.5c16 60 24 117.333 24 172c0 56 -18.667 84 -56 84h-17l7 58h17
c52 0 78 50 78 150c0 29.333 -3.5 51.833 -10.5 67.5s-20.5 23.5 -40.5 23.5c-11.333 0 -21.333 -3 -30 -9s-15.167 -12.333 -19.5 -19s-8.33301 -16.834 -12 -30.501s-6 -24 -7 -31l-4.5 -31.5l-69 -567h-55l47 389h-50l7 58h50z" />
    <glyph glyph-name="agrave" unicode="&#xe0;" horiz-adv-x="322" 
d="M300 447l-55 -447h-55l4 36c-25.333 -28.667 -52.333 -43 -81 -43c-54.667 0 -82 40 -82 120c0 46.667 4.33301 99.167 13 157.5s21.667 101.833 39 130.5c22 35.333 53 53 93 53c27.333 0 49 -12.333 65 -37l4 30h55zM231 327c0 54.667 -16 82 -48 82
c-21.333 0 -39 -12.333 -53 -37c-13.333 -24 -23.666 -61.833 -30.999 -113.5s-11 -96.5 -11 -134.5c0 -56.667 16 -85 48 -85c12.667 0 23.5 3.16699 32.5 9.5s16.167 15.5 21.5 27.5s9.16602 22.667 11.499 32s4.83301 20.666 7.5 33.999
c14.667 74.667 22 136.334 22 185.001zM224 533l-39 -26l-100 103l58 43z" />
    <glyph glyph-name="aacute" unicode="&#xe1;" horiz-adv-x="322" 
d="M300 447l-55 -447h-55l4 36c-25.333 -28.667 -52.333 -43 -81 -43c-54.667 0 -82 40 -82 120c0 46.667 4.33301 99.167 13 157.5s21.667 101.833 39 130.5c22 35.333 53 53 93 53c27.333 0 49 -12.333 65 -37l4 30h55zM231 327c0 54.667 -16 82 -48 82
c-21.333 0 -39 -12.333 -53 -37c-13.333 -24 -23.666 -61.833 -30.999 -113.5s-11 -96.5 -11 -134.5c0 -56.667 16 -85 48 -85c12.667 0 23.5 3.16699 32.5 9.5s16.167 15.5 21.5 27.5s9.16602 22.667 11.499 32s4.83301 20.666 7.5 33.999
c14.667 74.667 22 136.334 22 185.001zM312 610l-126 -103l-32 26l110 120z" />
    <glyph glyph-name="acircumflex" unicode="&#xe2;" horiz-adv-x="322" 
d="M300 447l-55 -447h-55l4 36c-25.333 -28.667 -52.333 -43 -81 -43c-54.667 0 -82 40 -82 120c0 46.667 4.33301 99.167 13 157.5s21.667 101.833 39 130.5c22 35.333 53 53 93 53c27.333 0 49 -12.333 65 -37l4 30h55zM231 327c0 54.667 -16 82 -48 82
c-21.333 0 -39 -12.333 -53 -37c-13.333 -24 -23.666 -61.833 -30.999 -113.5s-11 -96.5 -11 -134.5c0 -56.667 16 -85 48 -85c12.667 0 23.5 3.16699 32.5 9.5s16.167 15.5 21.5 27.5s9.16602 22.667 11.499 32s4.83301 20.666 7.5 33.999
c14.667 74.667 22 136.334 22 185.001zM306 545l-44 -38l-64 69l-82 -69l-32 38l123 107z" />
    <glyph glyph-name="atilde" unicode="&#xe3;" horiz-adv-x="322" 
d="M300 447l-55 -447h-55l4 36c-25.333 -28.667 -52.333 -43 -81 -43c-54.667 0 -82 40 -82 120c0 46.667 4.33301 99.167 13 157.5s21.667 101.833 39 130.5c22 35.333 53 53 93 53c27.333 0 49 -12.333 65 -37l4 30h55zM231 327c0 54.667 -16 82 -48 82
c-21.333 0 -39 -12.333 -53 -37c-13.333 -24 -23.666 -61.833 -30.999 -113.5s-11 -96.5 -11 -134.5c0 -56.667 16 -85 48 -85c12.667 0 23.5 3.16699 32.5 9.5s16.167 15.5 21.5 27.5s9.16602 22.667 11.499 32s4.83301 20.666 7.5 33.999
c14.667 74.667 22 136.334 22 185.001zM258 595h56.999c-4.66699 -22 -13.667 -41.167 -27 -57.5s-30 -24.5 -50 -24.5c-13.333 0 -29.333 5.66699 -48 17s-31 17 -37 17c-11.333 0 -17.666 -8.33301 -18.999 -25h-55c5.33301 22 14.5 40.333 27.5 55s29.833 22 50.5 22
c11.333 0 26.333 -5.33301 45 -16s31 -16 37 -16c10.667 0 17 9.33301 19 28z" />
    <glyph glyph-name="adieresis" unicode="&#xe4;" horiz-adv-x="322" 
d="M300 447l-55 -447h-55l4 36c-25.333 -28.667 -52.333 -43 -81 -43c-54.667 0 -82 40 -82 120c0 46.667 4.33301 99.167 13 157.5s21.667 101.833 39 130.5c22 35.333 53 53 93 53c27.333 0 49 -12.333 65 -37l4 30h55zM231 327c0 54.667 -16 82 -48 82
c-21.333 0 -39 -12.333 -53 -37c-13.333 -24 -23.666 -61.833 -30.999 -113.5s-11 -96.5 -11 -134.5c0 -56.667 16 -85 48 -85c12.667 0 23.5 3.16699 32.5 9.5s16.167 15.5 21.5 27.5s9.16602 22.667 11.499 32s4.83301 20.666 7.5 33.999
c14.667 74.667 22 136.334 22 185.001zM303 562c0 -13.333 -4.83398 -24.835 -14.501 -34.502s-21.167 -14.5 -34.5 -14.5c-10.667 0 -19.5 3.83301 -26.5 11.5s-10.5 16.834 -10.5 27.501c0 12.667 4.83301 23.834 14.5 33.501s20.834 14.5 33.501 14.5
c11.333 0 20.5 -3.66699 27.5 -11s10.5 -16.333 10.5 -27zM176.999 561.998c0 -13.333 -4.83398 -24.835 -14.501 -34.502s-21.167 -14.5 -34.5 -14.5c-10.667 0 -19.5 3.83301 -26.5 11.5s-10.5 16.834 -10.5 27.501c0 12.667 4.83301 23.834 14.5 33.501
s20.834 14.5 33.501 14.5c11.333 0 20.5 -3.66699 27.5 -11s10.5 -16.333 10.5 -27z" />
    <glyph glyph-name="aring" unicode="&#xe5;" horiz-adv-x="322" 
d="M300 447l-55 -447h-55l4 36c-25.333 -28.667 -52.333 -43 -81 -43c-54.667 0 -82 40 -82 120c0 46.667 4.33301 99.167 13 157.5s21.667 101.833 39 130.5c22 35.333 53 53 93 53c27.333 0 49 -12.333 65 -37l4 30h55zM231 327c0 54.667 -16 82 -48 82
c-21.333 0 -39 -12.333 -53 -37c-13.333 -24 -23.666 -61.833 -30.999 -113.5s-11 -96.5 -11 -134.5c0 -56.667 16 -85 48 -85c12.667 0 23.5 3.16699 32.5 9.5s16.167 15.5 21.5 27.5s9.16602 22.667 11.499 32s4.83301 20.666 7.5 33.999
c14.667 74.667 22 136.334 22 185.001zM279 587c0 -22 -7.66699 -40.833 -23 -56.5s-34 -23.5 -56 -23.5s-40.667 7.83301 -56 23.5s-23 34.5 -23 56.5s7.66699 40.833 23 56.5s34 23.5 56 23.5s40.667 -7.83301 56 -23.5s23 -34.5 23 -56.5zM239 587
c0 11.333 -3.83105 20.833 -11.498 28.5s-16.834 11.5 -27.501 11.5s-20 -3.83301 -28 -11.5s-12 -17.167 -12 -28.5s4 -20.833 12 -28.5s17.333 -11.5 28 -11.5c11.333 0 20.666 3.83301 27.999 11.5s11 17.167 11 28.5z" />
    <glyph glyph-name="ae" unicode="&#xe6;" horiz-adv-x="500" 
d="M76 366l6.99902 62.001c28 17.333 55.667 26 83 26c53.333 0 88.333 -25 105 -75c10 20.667 24.167 38.334 42.5 53.001s38.166 22 59.499 22c25.333 0 45.833 -9.33301 61.5 -28s25.834 -39 30.501 -61s7 -45.667 7 -71c0 -17.333 -2 -44 -6 -80h-194
c-2.66699 -24 -4 -41.667 -4 -53c0 -77.333 20 -116 60 -116c37.333 0 61.333 36.667 72 110h52c-6.66699 -42.667 -21.5 -80.334 -44.5 -113.001s-53.5 -49 -91.5 -49c-39.333 0 -67.333 24.667 -84 74c-12 -22 -28.167 -39.833 -48.5 -53.5s-42.5 -20.5 -66.5 -20.5
c-34 0 -58.5 11.667 -73.5 35s-22.5 53 -22.5 89c0 28.667 4.16699 56.167 12.5 82.5s22.833 49.333 43.5 69s45.667 29.5 75 29.5c32.667 0 57.334 -12.333 74.001 -37c2.66699 21.333 4 37.666 4 48.999c0 26 -5.83301 47.833 -17.5 65.5s-30.167 26.5 -55.5 26.5
c-22 0 -49 -12 -81 -36zM279.999 261.001l136 0.000976562c0 2.66699 0.333008 6.66699 1 12s1.16699 10 1.5 14s0.5 8 0.5 12c0 15.333 -1.16699 29.833 -3.5 43.5s-8 27 -17 40s-20.833 19.5 -35.5 19.5c-24 0 -43.167 -15.833 -57.5 -47.5s-22.833 -62.834 -25.5 -93.501
zM213.999 167.002c0 56.667 -19 85 -57 85c-28.667 0 -49.5 -13.5 -62.5 -40.5s-19.5 -56.833 -19.5 -89.5c0 -50.667 18.667 -76 56 -76c27.333 0 48 12.667 62 38s21 53 21 83z" />
    <glyph glyph-name="ccedilla" unicode="&#xe7;" horiz-adv-x="242" 
d="M249 437l-8.00098 -66.001c-16.667 20.667 -33.667 31 -51 31c-18 0 -34.333 -9.5 -49 -28.5s-25.334 -38.5 -32.001 -58.5s-11.334 -39.667 -14.001 -59c-5.33301 -33.333 -8 -64.666 -8 -93.999c0 -12 0.666992 -23.667 2 -35s3.83301 -23.666 7.5 -36.999
s9.66699 -24 18 -32s18.5 -12 30.5 -12c18.667 0 38.667 13.333 60 40l-8 -70c-20.667 -15.333 -42.667 -23 -66 -23c-25.333 0 -46.166 9.33301 -62.499 28s-27.166 39.167 -32.499 61.5s-8 46.166 -8 71.499c0 44 4.33301 84.667 13 122c10.667 46 28.5 87.167 53.5 123.5
s56.833 54.5 95.5 54.5c20.667 0 40.334 -5.66699 59.001 -17zM145.999 -62.001l-99 -134l-32 21l89 138z" />
    <glyph glyph-name="egrave" unicode="&#xe8;" horiz-adv-x="308" 
d="M207 152l56.001 -0.000976562c-6.66699 -44 -20.334 -81.5 -41.001 -112.5s-50.667 -46.5 -90 -46.5c-69.333 0 -104 53.333 -104 160c0 44 4.33301 85.333 13 124c5.33301 27.333 13.333 53.333 24 78s26.667 47.334 48 68.001s45.333 31 72 31c64 0 96 -51.667 96 -155
c0 -27.333 -2.66699 -56.333 -8 -87h-185c-3.33301 -22 -5 -41.667 -5 -59c0 -71.333 18 -107 54 -107c12 0 22.333 3.33301 31 10s15.5 16.5 20.5 29.5s8.66699 24 11 33s4.83301 20.167 7.5 33.5zM94.001 259.999h131c1.33301 21.333 2 38.333 2 51
c0 60.667 -15.667 91 -47 91c-42 0 -70.667 -47.333 -86 -142zM229.001 532.999l-39 -26l-100 103l58 43z" />
    <glyph glyph-name="eacute" unicode="&#xe9;" horiz-adv-x="308" 
d="M207 152l56.001 -0.000976562c-6.66699 -44 -20.334 -81.5 -41.001 -112.5s-50.667 -46.5 -90 -46.5c-69.333 0 -104 53.333 -104 160c0 44 4.33301 85.333 13 124c5.33301 27.333 13.333 53.333 24 78s26.667 47.334 48 68.001s45.333 31 72 31c64 0 96 -51.667 96 -155
c0 -27.333 -2.66699 -56.333 -8 -87h-185c-3.33301 -22 -5 -41.667 -5 -59c0 -71.333 18 -107 54 -107c12 0 22.333 3.33301 31 10s15.5 16.5 20.5 29.5s8.66699 24 11 33s4.83301 20.167 7.5 33.5zM94.001 259.999h131c1.33301 21.333 2 38.333 2 51
c0 60.667 -15.667 91 -47 91c-42 0 -70.667 -47.333 -86 -142zM317.001 609.999l-126 -103l-32 26l110 120z" />
    <glyph glyph-name="ecircumflex" unicode="&#xea;" horiz-adv-x="308" 
d="M207 152l56.001 -0.000976562c-6.66699 -44 -20.334 -81.5 -41.001 -112.5s-50.667 -46.5 -90 -46.5c-69.333 0 -104 53.333 -104 160c0 44 4.33301 85.333 13 124c5.33301 27.333 13.333 53.333 24 78s26.667 47.334 48 68.001s45.333 31 72 31c64 0 96 -51.667 96 -155
c0 -27.333 -2.66699 -56.333 -8 -87h-185c-3.33301 -22 -5 -41.667 -5 -59c0 -71.333 18 -107 54 -107c12 0 22.333 3.33301 31 10s15.5 16.5 20.5 29.5s8.66699 24 11 33s4.83301 20.167 7.5 33.5zM94.001 259.999h131c1.33301 21.333 2 38.333 2 51
c0 60.667 -15.667 91 -47 91c-42 0 -70.667 -47.333 -86 -142zM306.001 544.999l-44 -38l-64 69l-82 -69l-32 38l123 107z" />
    <glyph glyph-name="edieresis" unicode="&#xeb;" horiz-adv-x="308" 
d="M207 152l56.001 -0.000976562c-6.66699 -44 -20.334 -81.5 -41.001 -112.5s-50.667 -46.5 -90 -46.5c-69.333 0 -104 53.333 -104 160c0 44 4.33301 85.333 13 124c5.33301 27.333 13.333 53.333 24 78s26.667 47.334 48 68.001s45.333 31 72 31c64 0 96 -51.667 96 -155
c0 -27.333 -2.66699 -56.333 -8 -87h-185c-3.33301 -22 -5 -41.667 -5 -59c0 -71.333 18 -107 54 -107c12 0 22.333 3.33301 31 10s15.5 16.5 20.5 29.5s8.66699 24 11 33s4.83301 20.167 7.5 33.5zM94.001 259.999h131c1.33301 21.333 2 38.333 2 51
c0 60.667 -15.667 91 -47 91c-42 0 -70.667 -47.333 -86 -142zM303.001 561.999c0 -13.333 -4.83398 -24.835 -14.501 -34.502s-21.167 -14.5 -34.5 -14.5c-10.667 0 -19.5 3.83301 -26.5 11.5s-10.5 16.834 -10.5 27.501c0 12.667 4.83301 23.834 14.5 33.501
s20.834 14.5 33.501 14.5c11.333 0 20.5 -3.66699 27.5 -11s10.5 -16.333 10.5 -27zM177 561.997c0 -13.333 -4.83398 -24.835 -14.501 -34.502s-21.167 -14.5 -34.5 -14.5c-10.667 0 -19.5 3.83301 -26.5 11.5s-10.5 16.834 -10.5 27.501
c0 12.667 4.83301 23.834 14.5 33.501s20.834 14.5 33.501 14.5c11.333 0 20.5 -3.66699 27.5 -11s10.5 -16.333 10.5 -27z" />
    <glyph glyph-name="igrave" unicode="&#xec;" horiz-adv-x="154" 
d="M131 447l-54 -447h-56l55 447h55zM150 533l-39 -26l-100 103l58 43z" />
    <glyph glyph-name="iacute" unicode="&#xed;" horiz-adv-x="154" 
d="M131 447l-54 -447h-56l55 447h55zM238 610l-126 -103l-32 26l110 120z" />
    <glyph glyph-name="icircumflex" unicode="&#xee;" horiz-adv-x="154" 
d="M131 447l-54 -447h-56l55 447h55zM227 545l-44 -38l-64 69l-82 -69l-32 38l123 107z" />
    <glyph glyph-name="idieresis" unicode="&#xef;" horiz-adv-x="154" 
d="M131 447l-54 -447h-56l55 447h55zM224 562c0 -13.333 -5.00098 -24.835 -15.001 -34.502s-21.333 -14.5 -34 -14.5c-10.667 0 -19.5 3.83301 -26.5 11.5s-10.5 16.834 -10.5 27.501c0 12.667 4.83301 23.834 14.5 33.501s20.834 14.5 33.501 14.5
c10.667 0 19.667 -3.66699 27 -11s11 -16.333 11 -27zM97.999 561.998c0 -13.333 -5.00098 -24.835 -15.001 -34.502s-21.333 -14.5 -34 -14.5c-10.667 0 -19.5 3.83301 -26.5 11.5s-10.5 16.834 -10.5 27.501c0 12.667 4.83301 23.834 14.5 33.501s20.834 14.5 33.501 14.5
c10.667 0 19.667 -3.66699 27 -11s11 -16.333 11 -27z" />
    <glyph glyph-name="eth" unicode="&#xf0;" horiz-adv-x="318" 
d="M313 690l-56.001 -36.9971c18 -24 30 -49.667 36 -77s9 -60 9 -98c0 -80.667 -5.66699 -165.334 -17 -254.001c-10 -80.667 -28 -139.334 -54 -176.001c-27.333 -36.667 -59.666 -55 -96.999 -55c-70 0 -105 54 -105 162c0 21.333 1.33301 44 4 68
s7.83398 50.167 15.501 78.5s17.167 53.5 28.5 75.5s26.666 40.333 45.999 55s41 22 65 22c26 0 44.333 -10 55 -30c2 40 3 66 3 78c0 51.333 -10 93.666 -30 126.999l-67 -42l-21 38l56 35c-18 14 -44.667 30 -80 48l25 32c38 -14.667 70.333 -32 97 -52l64 38z
M231.999 303.003c0 66 -16.999 98.999 -50.999 98.999c-18.667 0 -34.834 -10.333 -48.501 -31s-23.667 -46.167 -30 -76.5s-10.833 -58 -13.5 -83s-4 -46.5 -4 -64.5c0 -68 18 -102 54 -102c18.667 0 34.5 10.5 47.5 31.5s22.5 47 28.5 78s10.333 58.833 13 83.5
s4 46.334 4 65.001z" />
    <glyph glyph-name="ntilde" unicode="&#xf1;" horiz-adv-x="325" 
d="M131 447l-4.00195 -35.999c28.667 28.667 58.667 43 90 43c24.667 0 43.334 -7.5 56.001 -22.5s19 -34.833 19 -59.5c0 -14.667 -1 -28.334 -3 -41.001l-40 -331h-56l39 321c2.66699 17.333 4 30.333 4 39c0 14 -3.66699 25.5 -11 34.5s-17.666 13.5 -30.999 13.5
c-46 0 -72.667 -35.667 -80 -107l-37 -301h-56l55 447h55zM269.998 595.001h56.999c-4.66699 -22 -13.667 -41.167 -27 -57.5s-30 -24.5 -50 -24.5c-13.333 0 -29.333 5.66699 -48 17s-31 17 -37 17c-11.333 0 -17.666 -8.33301 -18.999 -25h-55
c5.33301 22 14.5 40.333 27.5 55s29.833 22 50.5 22c11.333 0 26.333 -5.33301 45 -16s31 -16 37 -16c10.667 0 17 9.33301 19 28z" />
    <glyph glyph-name="ograve" unicode="&#xf2;" horiz-adv-x="318" 
d="M290 328l-0.000976562 -17c0 -31.333 -2 -62.5 -6 -93.5s-11 -64.833 -21 -101.5s-26.167 -66.334 -48.5 -89.001s-49.5 -34 -81.5 -34c-70 0 -105 54 -105 162c0 28.667 2.33301 58.5 7 89.5s12.5 63 23.5 96s27.833 60.167 50.5 81.5s49.334 32 80.001 32
c34 0 59.333 -12.167 76 -36.5s25 -54.166 25 -89.499zM231.999 298c0 69.333 -16.667 104.003 -50 104.003c-19.333 0 -35.833 -10.167 -49.5 -30.5s-23.667 -45.833 -30 -76.5s-10.833 -58.334 -13.5 -83.001s-4 -46.334 -4 -65.001c0 -67.333 17.667 -101 53 -101
c18.667 0 34.667 10 48 30s23 45.167 29 75.5s10.333 57.666 13 81.999s4 45.833 4 64.5zM233.999 533.003l-39 -26l-100 103l58 43z" />
    <glyph glyph-name="oacute" unicode="&#xf3;" horiz-adv-x="318" 
d="M290 328l-0.000976562 -17c0 -31.333 -2 -62.5 -6 -93.5s-11 -64.833 -21 -101.5s-26.167 -66.334 -48.5 -89.001s-49.5 -34 -81.5 -34c-70 0 -105 54 -105 162c0 28.667 2.33301 58.5 7 89.5s12.5 63 23.5 96s27.833 60.167 50.5 81.5s49.334 32 80.001 32
c34 0 59.333 -12.167 76 -36.5s25 -54.166 25 -89.499zM231.999 298c0 69.333 -16.667 104.003 -50 104.003c-19.333 0 -35.833 -10.167 -49.5 -30.5s-23.667 -45.833 -30 -76.5s-10.833 -58.334 -13.5 -83.001s-4 -46.334 -4 -65.001c0 -67.333 17.667 -101 53 -101
c18.667 0 34.667 10 48 30s23 45.167 29 75.5s10.333 57.666 13 81.999s4 45.833 4 64.5zM321.999 610.003l-126 -103l-32 26l110 120z" />
    <glyph glyph-name="ocircumflex" unicode="&#xf4;" horiz-adv-x="318" 
d="M290 328l-0.000976562 -17c0 -31.333 -2 -62.5 -6 -93.5s-11 -64.833 -21 -101.5s-26.167 -66.334 -48.5 -89.001s-49.5 -34 -81.5 -34c-70 0 -105 54 -105 162c0 28.667 2.33301 58.5 7 89.5s12.5 63 23.5 96s27.833 60.167 50.5 81.5s49.334 32 80.001 32
c34 0 59.333 -12.167 76 -36.5s25 -54.166 25 -89.499zM231.999 298c0 69.333 -16.667 104.003 -50 104.003c-19.333 0 -35.833 -10.167 -49.5 -30.5s-23.667 -45.833 -30 -76.5s-10.833 -58.334 -13.5 -83.001s-4 -46.334 -4 -65.001c0 -67.333 17.667 -101 53 -101
c18.667 0 34.667 10 48 30s23 45.167 29 75.5s10.333 57.666 13 81.999s4 45.833 4 64.5zM310.999 545.003l-44 -38l-64 69l-82 -69l-32 38l123 107z" />
    <glyph glyph-name="otilde" unicode="&#xf5;" horiz-adv-x="318" 
d="M290 328l-0.000976562 -17c0 -31.333 -2 -62.5 -6 -93.5s-11 -64.833 -21 -101.5s-26.167 -66.334 -48.5 -89.001s-49.5 -34 -81.5 -34c-70 0 -105 54 -105 162c0 28.667 2.33301 58.5 7 89.5s12.5 63 23.5 96s27.833 60.167 50.5 81.5s49.334 32 80.001 32
c34 0 59.333 -12.167 76 -36.5s25 -54.166 25 -89.499zM231.999 298c0 69.333 -16.667 104.003 -50 104.003c-19.333 0 -35.833 -10.167 -49.5 -30.5s-23.667 -45.833 -30 -76.5s-10.833 -58.334 -13.5 -83.001s-4 -46.334 -4 -65.001c0 -67.333 17.667 -101 53 -101
c18.667 0 34.667 10 48 30s23 45.167 29 75.5s10.333 57.666 13 81.999s4 45.833 4 64.5zM262.999 595.003h56.999c-4.66699 -22 -13.667 -41.167 -27 -57.5s-30 -24.5 -50 -24.5c-13.333 0 -29.333 5.66699 -48 17s-31 17 -37 17c-11.333 0 -17.666 -8.33301 -18.999 -25
h-55c5.33301 22 14.5 40.333 27.5 55s29.833 22 50.5 22c11.333 0 26.333 -5.33301 45 -16s31 -16 37 -16c10.667 0 17 9.33301 19 28z" />
    <glyph glyph-name="odieresis" unicode="&#xf6;" horiz-adv-x="318" 
d="M290 328l-0.000976562 -17c0 -31.333 -2 -62.5 -6 -93.5s-11 -64.833 -21 -101.5s-26.167 -66.334 -48.5 -89.001s-49.5 -34 -81.5 -34c-70 0 -105 54 -105 162c0 28.667 2.33301 58.5 7 89.5s12.5 63 23.5 96s27.833 60.167 50.5 81.5s49.334 32 80.001 32
c34 0 59.333 -12.167 76 -36.5s25 -54.166 25 -89.499zM231.999 298c0 69.333 -16.667 104.003 -50 104.003c-19.333 0 -35.833 -10.167 -49.5 -30.5s-23.667 -45.833 -30 -76.5s-10.833 -58.334 -13.5 -83.001s-4 -46.334 -4 -65.001c0 -67.333 17.667 -101 53 -101
c18.667 0 34.667 10 48 30s23 45.167 29 75.5s10.333 57.666 13 81.999s4 45.833 4 64.5zM307.999 562.003c0 -13.333 -5.00098 -24.835 -15.001 -34.502s-21.333 -14.5 -34 -14.5c-10.667 0 -19.5 3.83301 -26.5 11.5s-10.5 16.834 -10.5 27.501
c0 12.667 4.83301 23.834 14.5 33.501s20.834 14.5 33.501 14.5c10.667 0 19.667 -3.66699 27 -11s11 -16.333 11 -27zM181.998 562.001c0 -13.333 -5.00098 -24.835 -15.001 -34.502s-21.333 -14.5 -34 -14.5c-10.667 0 -19.5 3.83301 -26.5 11.5
s-10.5 16.834 -10.5 27.501c0 12.667 4.83301 23.834 14.5 33.501s20.834 14.5 33.501 14.5c10.667 0 19.667 -3.66699 27 -11s11 -16.333 11 -27z" />
    <glyph glyph-name="divide" unicode="&#xf7;" horiz-adv-x="500" 
d="M304 517c0 -11.333 -4 -21.166 -12 -29.499s-17.667 -12.5 -29 -12.5s-21.166 4.16699 -29.499 12.5s-12.5 18.166 -12.5 29.499s4.16699 21 12.5 29s18.166 12 29.499 12s21 -4 29 -12s12 -17.667 12 -29zM479 305h-433v52h433v-52zM304 145c0 -11.333 -4 -21 -12 -29
s-17.667 -12 -29 -12s-21.166 4 -29.499 12s-12.5 17.667 -12.5 29s4.16699 21.166 12.5 29.499s18.166 12.5 29.499 12.5s21 -4.16699 29 -12.5s12 -18.166 12 -29.499z" />
    <glyph glyph-name="oslash" unicode="&#xf8;" horiz-adv-x="346" 
d="M339 435l-42.002 -59.998c5.33301 -24.667 8 -47.334 8 -68.001c0 -30.667 -2 -61.5 -6 -92.5s-11.167 -64.5 -21.5 -100.5s-26.666 -65.167 -48.999 -87.5s-49.5 -33.5 -81.5 -33.5c-36 0 -63.667 14.667 -83 44l-28 -40l-29 18l43 62c-4.66699 24 -7 49.667 -7 77
c0 28.667 2.33301 58.5 7 89.5s12.5 63.167 23.5 96.5s27.833 60.666 50.5 81.999s49.334 32 80.001 32c33.333 0 59.333 -14 78 -42l29 42zM98.998 141.002l140.999 218c-6 28.667 -20.667 43 -44 43c-19.333 0 -35.833 -10.333 -49.5 -31s-23.667 -47 -30 -79
s-10.666 -60 -12.999 -84s-3.83301 -46.333 -4.5 -67zM245.997 304.002l-139.998 -214c7.33301 -29.333 22.666 -44 45.999 -44c19.333 0 35.666 10.167 48.999 30.5s23 46.5 29 78.5s10 59.667 12 83s3.33301 45.333 4 66z" />
    <glyph glyph-name="ugrave" unicode="&#xf9;" horiz-adv-x="327" 
d="M305 447l-40.999 -337.998c-4.66699 -36 -18.5 -64.333 -41.5 -85s-52.5 -31 -88.5 -31c-30.667 0 -55 8.5 -73 25.5s-27 40.833 -27 71.5c0 8.66699 0.333008 15 1 19l41 338h56l-36 -291c-2.66699 -22.667 -4 -39.667 -4 -51c0 -39.333 16.667 -59 50 -59
c14 0 25.667 3 35 9s16.166 14.667 20.499 26s7.5 21.666 9.5 30.999s4 21 6 35c0 2 0.166992 3.66699 0.5 5s0.5 2.66602 0.5 3.99902l36 291h55zM238.001 533.002l-39 -26l-100 103l58 43z" />
    <glyph glyph-name="uacute" unicode="&#xfa;" horiz-adv-x="327" 
d="M305 447l-40.999 -337.998c-4.66699 -36 -18.5 -64.333 -41.5 -85s-52.5 -31 -88.5 -31c-30.667 0 -55 8.5 -73 25.5s-27 40.833 -27 71.5c0 8.66699 0.333008 15 1 19l41 338h56l-36 -291c-2.66699 -22.667 -4 -39.667 -4 -51c0 -39.333 16.667 -59 50 -59
c14 0 25.667 3 35 9s16.166 14.667 20.499 26s7.5 21.666 9.5 30.999s4 21 6 35c0 2 0.166992 3.66699 0.5 5s0.5 2.66602 0.5 3.99902l36 291h55zM317.001 610.002l-126 -103l-32 26l110 120z" />
    <glyph glyph-name="ucircumflex" unicode="&#xfb;" horiz-adv-x="327" 
d="M305 447l-40.999 -337.998c-4.66699 -36 -18.5 -64.333 -41.5 -85s-52.5 -31 -88.5 -31c-30.667 0 -55 8.5 -73 25.5s-27 40.833 -27 71.5c0 8.66699 0.333008 15 1 19l41 338h56l-36 -291c-2.66699 -22.667 -4 -39.667 -4 -51c0 -39.333 16.667 -59 50 -59
c14 0 25.667 3 35 9s16.166 14.667 20.499 26s7.5 21.666 9.5 30.999s4 21 6 35c0 2 0.166992 3.66699 0.5 5s0.5 2.66602 0.5 3.99902l36 291h55zM315.001 545.002l-44 -38l-64 69l-82 -69l-32 38l123 107z" />
    <glyph glyph-name="udieresis" unicode="&#xfc;" horiz-adv-x="327" 
d="M305 447l-40.999 -337.998c-4.66699 -36 -18.5 -64.333 -41.5 -85s-52.5 -31 -88.5 -31c-30.667 0 -55 8.5 -73 25.5s-27 40.833 -27 71.5c0 8.66699 0.333008 15 1 19l41 338h56l-36 -291c-2.66699 -22.667 -4 -39.667 -4 -51c0 -39.333 16.667 -59 50 -59
c14 0 25.667 3 35 9s16.166 14.667 20.499 26s7.5 21.666 9.5 30.999s4 21 6 35c0 2 0.166992 3.66699 0.5 5s0.5 2.66602 0.5 3.99902l36 291h55zM307.001 562.002c0 -13.333 -4.83398 -24.835 -14.501 -34.502s-21.167 -14.5 -34.5 -14.5
c-10.667 0 -19.5 3.83301 -26.5 11.5s-10.5 16.834 -10.5 27.501c0 12.667 4.83301 23.834 14.5 33.501s20.834 14.5 33.501 14.5c11.333 0 20.5 -3.66699 27.5 -11s10.5 -16.333 10.5 -27zM181 562c0 -13.333 -4.83398 -24.835 -14.501 -34.502s-21.167 -14.5 -34.5 -14.5
c-10.667 0 -19.5 3.83301 -26.5 11.5s-10.5 16.834 -10.5 27.501c0 12.667 4.83301 23.834 14.5 33.501s20.834 14.5 33.501 14.5c11.333 0 20.5 -3.66699 27.5 -11s10.5 -16.333 10.5 -27z" />
    <glyph glyph-name="yacute" unicode="&#xfd;" horiz-adv-x="291" 
d="M312 447l-232 -626.999h-59l71 192l-52 435h57l25 -248c4 -36.667 6 -74 6 -112c4 13.333 15.667 47.666 35 102.999l91 257h58zM291 610.001l-126 -103l-32 26l110 120z" />
    <glyph glyph-name="thorn" unicode="&#xfe;" horiz-adv-x="318" 
d="M167 729l-38 -312.999c23.333 25.333 48 38 74 38c59.333 0 89 -39.667 89 -119c0 -43.333 -4 -92.333 -12 -147s-19 -97.334 -33 -128.001c-22 -44.667 -54 -67 -96 -67c-28 0 -51 14.333 -69 43l-27 -216h-55l111 909h56zM235 323.001c0 56.667 -17.002 85 -51.002 85
c-29.333 0 -51 -24.667 -65 -74c-18 -64 -27 -137.667 -27 -221c0 -49.333 16.667 -74 50 -74c13.333 0 24.833 4.83301 34.5 14.5s16.334 19 20.001 28s7.83398 21.5 12.501 37.5c17.333 64 26 132 26 204z" />
    <glyph glyph-name="ydieresis" unicode="&#xff;" horiz-adv-x="291" 
d="M312 447l-232 -626.999h-59l71 192l-52 435h57l25 -248c4 -36.667 6 -74 6 -112c4 13.333 15.667 47.666 35 102.999l91 257h58zM287 562.001c0 -13.333 -4.83398 -24.835 -14.501 -34.502s-21.167 -14.5 -34.5 -14.5c-10.667 0 -19.5 3.83301 -26.5 11.5
s-10.5 16.834 -10.5 27.501c0 12.667 4.83301 23.834 14.5 33.501s20.834 14.5 33.501 14.5c11.333 0 20.5 -3.66699 27.5 -11s10.5 -16.333 10.5 -27zM160.999 561.999c0 -13.333 -4.83398 -24.835 -14.501 -34.502s-21.167 -14.5 -34.5 -14.5
c-10.667 0 -19.5 3.83301 -26.5 11.5s-10.5 16.834 -10.5 27.501c0 12.667 4.83301 23.834 14.5 33.501s20.834 14.5 33.501 14.5c11.333 0 20.5 -3.66699 27.5 -11s10.5 -16.333 10.5 -27z" />
    <glyph glyph-name="Amacron" unicode="&#x100;" horiz-adv-x="320" 
d="M291 0h-65l-8 137h-139l-41 -137h-65l211 667h58zM215 191l-14.001 234.997c-2 26.667 -3 53.334 -3 80.001c0 25.333 1 51 3 77c-5.33301 -31.333 -12.666 -65.666 -21.999 -102.999s-17.333 -67.666 -24 -90.999l-31 -104.5l-28 -93.5h119zM329.999 781.997l-7 -55
h-221l6 55h222z" />
    <glyph glyph-name="amacron" unicode="&#x101;" horiz-adv-x="322" 
d="M300 447l-55 -447h-55l4 36c-25.333 -28.667 -52.333 -43 -81 -43c-54.667 0 -82 40 -82 120c0 46.667 4.33301 99.167 13 157.5s21.667 101.833 39 130.5c22 35.333 53 53 93 53c27.333 0 49 -12.333 65 -37l4 30h55zM231 327c0 54.667 -16 82 -48 82
c-21.333 0 -39 -12.333 -53 -37c-13.333 -24 -23.666 -61.833 -30.999 -113.5s-11 -96.5 -11 -134.5c0 -56.667 16 -85 48 -85c12.667 0 23.5 3.16699 32.5 9.5s16.167 15.5 21.5 27.5s9.16602 22.667 11.499 32s4.83301 20.666 7.5 33.999
c14.667 74.667 22 136.334 22 185.001zM310 575l-7 -55h-221l6 55h222z" />
    <glyph glyph-name="Abreve" unicode="&#x102;" horiz-adv-x="320" 
d="M291 0h-65l-8 137h-139l-41 -137h-65l211 667h58zM215 191l-14.001 234.997c-2 26.667 -3 53.334 -3 80.001c0 25.333 1 51 3 77c-5.33301 -31.333 -12.666 -65.666 -21.999 -102.999s-17.333 -67.666 -24 -90.999l-31 -104.5l-28 -93.5h119zM295.999 809.997h47
c-6.66699 -30 -22.334 -52.833 -47.001 -68.5s-53 -23.5 -85 -23.5c-31.333 0 -57.666 7.66699 -78.999 23s-32 38.333 -32 69h48c6.66699 -27.333 29.667 -41 69 -41c38 0 64.333 13.667 79 41z" />
    <glyph glyph-name="abreve" unicode="&#x103;" horiz-adv-x="322" 
d="M300 447l-55 -447h-55l4 36c-25.333 -28.667 -52.333 -43 -81 -43c-54.667 0 -82 40 -82 120c0 46.667 4.33301 99.167 13 157.5s21.667 101.833 39 130.5c22 35.333 53 53 93 53c27.333 0 49 -12.333 65 -37l4 30h55zM231 327c0 54.667 -16 82 -48 82
c-21.333 0 -39 -12.333 -53 -37c-13.333 -24 -23.666 -61.833 -30.999 -113.5s-11 -96.5 -11 -134.5c0 -56.667 16 -85 48 -85c12.667 0 23.5 3.16699 32.5 9.5s16.167 15.5 21.5 27.5s9.16602 22.667 11.499 32s4.83301 20.666 7.5 33.999
c14.667 74.667 22 136.334 22 185.001zM276 599h47c-6.66699 -30 -22.334 -52.833 -47.001 -68.5s-53 -23.5 -85 -23.5c-31.333 0 -57.666 7.66699 -78.999 23s-32 38.333 -32 69h48c6.66699 -27.333 29.667 -41 69 -41c38 0 64.333 13.667 79 41z" />
    <glyph glyph-name="Aogonek" unicode="&#x104;" horiz-adv-x="320" 
d="M184 667l58 0.00195312l49 -667h-20l-26 -36c-10 -16.667 -15 -30.334 -15 -41.001c0 -7.33301 2 -13 6 -17c6 -6 15.667 -9 29 -9c10 0 22.667 2.66699 38 8l-5 -48c-14 -6 -29 -9 -45 -9c-20.667 0 -37.667 4.33301 -51 13c-15.333 9.33301 -23 23.666 -23 42.999
c0 16 6 34.667 18 56l29 40l-8 137h-139l-41 -137h-65zM215 191.002l-14 234.999c-2 24.667 -3 51.334 -3 80.001c0 32 1 57.667 3 77c-9.33301 -48 -21.666 -101.333 -36.999 -160c-4.66699 -18 -19.334 -68.333 -44.001 -151l-24 -81h119z" />
    <glyph glyph-name="aogonek" unicode="&#x105;" horiz-adv-x="322" 
d="M300 447l-55 -447.001h-11c-10 -12 -19 -24.667 -27 -38c-9.33301 -15.333 -14 -28 -14 -38c0 -8.66699 3 -15 9 -19c5.33301 -4.66699 14 -7 26 -7c10 0 22.667 2.66699 38 8l-5 -47c-14 -6 -29 -9 -45 -9c-20 0 -36.667 4.33301 -50 13
c-15.333 9.33301 -23 23.333 -23 42c0 17.333 5.66699 35.333 17 54c8.66699 13.333 18.667 27 30 41l4 36c-6.66699 -11.333 -17 -21 -31 -29c-15.333 -9.33301 -32 -14 -50 -14c-22.667 0 -41 7 -55 21c-18 18 -27 53.333 -27 106c0 40.667 4.66699 92.334 14 155.001
c11.333 72 29.333 120.667 54 146c20.667 22 47 33 79 33c28 0 49 -12.333 63 -37l4 30h55zM88 123.999c0 -36.667 5.66699 -60.668 17 -72.001c8.66699 -8.66699 19.334 -13 32.001 -13c14 0 26.333 5 37 15c17.333 16 31.666 59.333 42.999 130
c9.33301 60 14 107.333 14 142s-6.33301 58.334 -19 71.001c-8 8 -17.667 12 -29 12c-15.333 0 -28.333 -5.66699 -39 -17c-22 -23.333 -37.667 -73.333 -47 -150c-6 -48 -9 -87.333 -9 -118z" />
    <glyph glyph-name="Cacute" unicode="&#x106;" horiz-adv-x="315" 
d="M350 655l-7.99902 -68c-26 19.333 -50.333 29 -73 29c-39.333 0 -71.333 -20.333 -96 -61c-22.667 -36.667 -39.5 -88.667 -50.5 -156s-16.5 -130 -16.5 -188c0 -106.667 29.333 -160 88 -160c26 0 54.333 10 85 30l-7 -62c-29.333 -18.667 -59 -28 -89 -28
c-36 0 -65.167 12 -87.5 36s-37 50.833 -44 80.5s-10.5 62.167 -10.5 97.5c0 68.667 8.66699 142.5 26 221.5s42.666 139.833 75.999 182.5c36 44.667 79.333 67 130 67c32 0 57.667 -7 77 -21zM407.001 817l-126 -103l-32 26l110 120z" />
    <glyph glyph-name="cacute" unicode="&#x107;" horiz-adv-x="242" 
d="M249 437l-8.00098 -66.001c-16.667 20.667 -33.667 31 -51 31c-18 0 -34.333 -9.5 -49 -28.5s-25.334 -38.5 -32.001 -58.5s-11.334 -39.667 -14.001 -59c-5.33301 -33.333 -8 -64.666 -8 -93.999c0 -12 0.666992 -23.667 2 -35s3.83301 -23.666 7.5 -36.999
s9.66699 -24 18 -32s18.5 -12 30.5 -12c18.667 0 38.667 13.333 60 40l-8 -70c-20.667 -15.333 -42.667 -23 -66 -23c-25.333 0 -46.166 9.33301 -62.499 28s-27.166 39.167 -32.499 61.5s-8 46.166 -8 71.499c0 44 4.33301 84.667 13 122c10.667 46 28.5 87.167 53.5 123.5
s56.833 54.5 95.5 54.5c20.667 0 40.334 -5.66699 59.001 -17zM321.999 609.999l-126 -103l-32 26l110 120z" />
    <glyph glyph-name="Ccircumflex" unicode="&#x108;" horiz-adv-x="315" 
d="M350 655l-7.99902 -68c-26 19.333 -50.333 29 -73 29c-39.333 0 -71.333 -20.333 -96 -61c-22.667 -36.667 -39.5 -88.667 -50.5 -156s-16.5 -130 -16.5 -188c0 -106.667 29.333 -160 88 -160c26 0 54.333 10 85 30l-7 -62c-29.333 -18.667 -59 -28 -89 -28
c-36 0 -65.167 12 -87.5 36s-37 50.833 -44 80.5s-10.5 62.167 -10.5 97.5c0 68.667 8.66699 142.5 26 221.5s42.666 139.833 75.999 182.5c36 44.667 79.333 67 130 67c32 0 57.667 -7 77 -21zM396.001 752l-44 -38l-64 69l-82 -69l-32 38l123 107z" />
    <glyph glyph-name="ccircumflex" unicode="&#x109;" horiz-adv-x="242" 
d="M249 437l-8.00098 -66.001c-16.667 20.667 -33.667 31 -51 31c-18 0 -34.333 -9.5 -49 -28.5s-25.334 -38.5 -32.001 -58.5s-11.334 -39.667 -14.001 -59c-5.33301 -33.333 -8 -64.666 -8 -93.999c0 -12 0.666992 -23.667 2 -35s3.83301 -23.666 7.5 -36.999
s9.66699 -24 18 -32s18.5 -12 30.5 -12c18.667 0 38.667 13.333 60 40l-8 -70c-20.667 -15.333 -42.667 -23 -66 -23c-25.333 0 -46.166 9.33301 -62.499 28s-27.166 39.167 -32.499 61.5s-8 46.166 -8 71.499c0 44 4.33301 84.667 13 122c10.667 46 28.5 87.167 53.5 123.5
s56.833 54.5 95.5 54.5c20.667 0 40.334 -5.66699 59.001 -17zM310.999 544.999l-44 -38l-64 69l-82 -69l-32 38l123 107z" />
    <glyph glyph-name="Cdotaccent" unicode="&#x10a;" horiz-adv-x="315" 
d="M350 655l-7.99902 -68c-26 19.333 -50.333 29 -73 29c-39.333 0 -71.333 -20.333 -96 -61c-22.667 -36.667 -39.5 -88.667 -50.5 -156s-16.5 -130 -16.5 -188c0 -106.667 29.333 -160 88 -160c26 0 54.333 10 85 30l-7 -62c-29.333 -18.667 -59 -28 -89 -28
c-36 0 -65.167 12 -87.5 36s-37 50.833 -44 80.5s-10.5 62.167 -10.5 97.5c0 68.667 8.66699 142.5 26 221.5s42.666 139.833 75.999 182.5c36 44.667 79.333 67 130 67c32 0 57.667 -7 77 -21zM324.001 771c0 -13.333 -5.16504 -25.166 -15.498 -35.499
s-22.166 -15.5 -35.499 -15.5c-10.667 0 -19.834 3.83301 -27.501 11.5s-11.5 17.167 -11.5 28.5c0 13.333 5.16699 25.166 15.5 35.499s22.166 15.5 35.499 15.5c11.333 0 20.666 -3.83301 27.999 -11.5s11 -17.167 11 -28.5z" />
    <glyph glyph-name="cdotaccent" unicode="&#x10b;" horiz-adv-x="242" 
d="M249 437l-8.00098 -66.001c-16.667 20.667 -33.667 31 -51 31c-18 0 -34.333 -9.5 -49 -28.5s-25.334 -38.5 -32.001 -58.5s-11.334 -39.667 -14.001 -59c-5.33301 -33.333 -8 -64.666 -8 -93.999c0 -12 0.666992 -23.667 2 -35s3.83301 -23.666 7.5 -36.999
s9.66699 -24 18 -32s18.5 -12 30.5 -12c18.667 0 38.667 13.333 60 40l-8 -70c-20.667 -15.333 -42.667 -23 -66 -23c-25.333 0 -46.166 9.33301 -62.499 28s-27.166 39.167 -32.499 61.5s-8 46.166 -8 71.499c0 44 4.33301 84.667 13 122c10.667 46 28.5 87.167 53.5 123.5
s56.833 54.5 95.5 54.5c20.667 0 40.334 -5.66699 59.001 -17zM240.999 563.999c0 -13.333 -5.16504 -25.166 -15.498 -35.499s-22.166 -15.5 -35.499 -15.5c-10.667 0 -19.834 3.83301 -27.501 11.5s-11.5 17.167 -11.5 28.5c0 13.333 5.16699 25.166 15.5 35.499
s22.166 15.5 35.499 15.5c11.333 0 20.666 -3.83301 27.999 -11.5s11 -17.167 11 -28.5z" />
    <glyph glyph-name="Ccaron" unicode="&#x10c;" horiz-adv-x="315" 
d="M350 655l-7.99902 -68c-26 19.333 -50.333 29 -73 29c-39.333 0 -71.333 -20.333 -96 -61c-22.667 -36.667 -39.5 -88.667 -50.5 -156s-16.5 -130 -16.5 -188c0 -106.667 29.333 -160 88 -160c26 0 54.333 10 85 30l-7 -62c-29.333 -18.667 -59 -28 -89 -28
c-36 0 -65.167 12 -87.5 36s-37 50.833 -44 80.5s-10.5 62.167 -10.5 97.5c0 68.667 8.66699 142.5 26 221.5s42.666 139.833 75.999 182.5c36 44.667 79.333 67 130 67c32 0 57.667 -7 77 -21zM405.001 821l-126 -107l-96 107l41 38l64 -69l82 69z" />
    <glyph glyph-name="ccaron" unicode="&#x10d;" horiz-adv-x="242" 
d="M249 437l-8.00098 -66.001c-16.667 20.667 -33.667 31 -51 31c-18 0 -34.333 -9.5 -49 -28.5s-25.334 -38.5 -32.001 -58.5s-11.334 -39.667 -14.001 -59c-5.33301 -33.333 -8 -64.666 -8 -93.999c0 -12 0.666992 -23.667 2 -35s3.83301 -23.666 7.5 -36.999
s9.66699 -24 18 -32s18.5 -12 30.5 -12c18.667 0 38.667 13.333 60 40l-8 -70c-20.667 -15.333 -42.667 -23 -66 -23c-25.333 0 -46.166 9.33301 -62.499 28s-27.166 39.167 -32.499 61.5s-8 46.166 -8 71.499c0 44 4.33301 84.667 13 122c10.667 46 28.5 87.167 53.5 123.5
s56.833 54.5 95.5 54.5c20.667 0 40.334 -5.66699 59.001 -17zM319.999 613.999l-126 -107l-96 107l41 38l64 -69l82 69z" />
    <glyph glyph-name="Dcaron" unicode="&#x10e;" horiz-adv-x="365" 
d="M108 667l76.001 0.000976562c60.667 0 103.667 -13.333 129 -40s38 -70.334 38 -131.001c0 -124 -13.667 -234.333 -41 -331c-15.333 -56 -38.833 -97.5 -70.5 -124.5s-75.834 -40.5 -132.501 -40.5h-81zM94.001 57.001h29.002c33.333 0 59.666 9.33301 78.999 28
c22 20 38.333 49 49 87c24 86 36 190.667 36 314c0 40.667 -6.83301 71.5 -20.5 92.5s-39.834 31.5 -78.501 31.5h-26zM341.003 821.001l-126 -107l-96 107l41 38l64 -69l82 69z" />
    <glyph glyph-name="dcaron" unicode="&#x10f;" horiz-adv-x="397" 
d="M331 729l-91 -729h-55l4 36c-25.333 -28.667 -52.333 -43 -81 -43c-54.667 0 -82 40 -82 120c0 47.333 4.33301 99.833 13 157.5s21.667 101.167 39 130.5c22 35.333 52.667 53 92 53c15.333 0 27.833 -2.83301 37.5 -8.5s19.167 -15.167 28.5 -28.5l39 312h56zM225 327
c0 54.667 -15.668 82 -47.001 82c-20.667 0 -38 -12.333 -52 -37c-13.333 -24 -23.833 -61.667 -31.5 -113s-11.5 -96.333 -11.5 -135c0 -56.667 16 -85 48 -85c12.667 0 23.5 3.16699 32.5 9.5s16.167 15.5 21.5 27.5s9.33301 22.5 12 31.5s5.33398 20.5 8.00098 34.5
c13.333 74 20 135.667 20 185zM471.999 648l-106 -186l-37 19l88 195z" />
    <glyph glyph-name="Dcroat" unicode="&#x110;" horiz-adv-x="365" 
d="M108 667l77 0.000976562c50 0 87.333 -8.66699 112 -26c36 -26.667 54 -74 54 -142c0 -90.667 -9.33301 -183.334 -28 -278.001c-7.33301 -36 -15.5 -66.167 -24.5 -90.5s-21.5 -47 -37.5 -68s-36.667 -36.667 -62 -47s-56 -15.5 -92 -15.5h-81l40 321h-47l6 50h47z
M94 57.001l29 0.000976562c29.333 0 53 7 71 21s33.333 35 46 63c14.667 32 26.167 85 34.5 159s12.5 136.333 12.5 187c0 39.333 -7 69.666 -21 90.999s-39.667 32 -77 32h-27l-29 -239h88l-6 -50h-88z" />
    <glyph glyph-name="dcroat" unicode="&#x111;" horiz-adv-x="323" 
d="M233 397l14.998 125.998h-103l7 52h103l19 154h56l-19 -155h50l-7 -52h-49l-65 -522h-55l4 36c-21.333 -28.667 -47.666 -43 -78.999 -43c-21.333 0 -39 7 -53 21c-20.667 20.667 -31 57.334 -31 110.001c0 48.667 6.66699 102.334 20 161.001
c13.333 56.667 32 97 56 121c18.667 18.667 40.334 28 65.001 28c30 0 52 -12.333 66 -37zM175.998 388.998c-13.333 0 -25 -5 -35 -15c-19.333 -21.333 -34.333 -60.333 -45 -117c-8.66699 -42 -13 -86.333 -13 -133c0 -36 6.33301 -60.333 19 -73c8 -8 17.667 -12 29 -12
c15.333 0 27.666 4.66699 36.999 14c16.667 15.333 30.334 52.333 41.001 111c10 58.667 15 102.667 15 132c0 40 -7 67 -21 81c-8 8 -17 12 -27 12z" />
    <glyph glyph-name="Emacron" unicode="&#x112;" horiz-adv-x="297" 
d="M313 667l-7 -57h-144l-29 -235h140l-6 -57h-141l-32 -261h144l-7 -57h-205l82 667h205zM335 782l-7 -55h-221l6 55h222z" />
    <glyph glyph-name="emacron" unicode="&#x113;" horiz-adv-x="308" 
d="M207 152l56.001 -0.000976562c-6.66699 -44 -20.334 -81.5 -41.001 -112.5s-50.667 -46.5 -90 -46.5c-69.333 0 -104 53.333 -104 160c0 44 4.33301 85.333 13 124c5.33301 27.333 13.333 53.333 24 78s26.667 47.334 48 68.001s45.333 31 72 31c64 0 96 -51.667 96 -155
c0 -27.333 -2.66699 -56.333 -8 -87h-185c-3.33301 -22 -5 -41.667 -5 -59c0 -71.333 18 -107 54 -107c12 0 22.333 3.33301 31 10s15.5 16.5 20.5 29.5s8.66699 24 11 33s4.83301 20.167 7.5 33.5zM94.001 259.999h131c1.33301 21.333 2 38.333 2 51
c0 60.667 -15.667 91 -47 91c-42 0 -70.667 -47.333 -86 -142zM310.001 574.999l-7 -55h-221l6 55h222z" />
    <glyph glyph-name="Edotaccent" unicode="&#x116;" horiz-adv-x="297" 
d="M313 667l-7 -57h-144l-29 -235h140l-6 -57h-141l-32 -261h144l-7 -57h-205l82 667h205zM267 771c0 -13.333 -5.16504 -25.166 -15.498 -35.499s-22.166 -15.5 -35.499 -15.5c-10.667 0 -19.834 3.83301 -27.501 11.5s-11.5 17.167 -11.5 28.5
c0 13.333 5.16699 25.166 15.5 35.499s22.166 15.5 35.499 15.5c11.333 0 20.666 -3.83301 27.999 -11.5s11 -17.167 11 -28.5z" />
    <glyph glyph-name="edotaccent" unicode="&#x117;" horiz-adv-x="308" 
d="M207 152l56.001 -0.000976562c-6.66699 -44 -20.334 -81.5 -41.001 -112.5s-50.667 -46.5 -90 -46.5c-69.333 0 -104 53.333 -104 160c0 44 4.33301 85.333 13 124c5.33301 27.333 13.333 53.333 24 78s26.667 47.334 48 68.001s45.333 31 72 31c64 0 96 -51.667 96 -155
c0 -27.333 -2.66699 -56.333 -8 -87h-185c-3.33301 -22 -5 -41.667 -5 -59c0 -71.333 18 -107 54 -107c12 0 22.333 3.33301 31 10s15.5 16.5 20.5 29.5s8.66699 24 11 33s4.83301 20.167 7.5 33.5zM94.001 259.999h131c1.33301 21.333 2 38.333 2 51
c0 60.667 -15.667 91 -47 91c-42 0 -70.667 -47.333 -86 -142zM242.001 563.999c0 -13.333 -5.16504 -25.166 -15.498 -35.499s-22.166 -15.5 -35.499 -15.5c-10.667 0 -19.834 3.83301 -27.501 11.5s-11.5 17.167 -11.5 28.5c0 13.333 5.16699 25.166 15.5 35.499
s22.166 15.5 35.499 15.5c11.333 0 20.666 -3.83301 27.999 -11.5s11 -17.167 11 -28.5z" />
    <glyph glyph-name="Eogonek" unicode="&#x118;" horiz-adv-x="297" 
d="M313 667l-7 -56.998h-144l-29 -235h140l-6 -57h-141l-32 -261h144l-7 -57h-28l-26 -36c-10 -16.667 -15 -30.334 -15 -41.001c0 -7.33301 2 -13 6 -17c6 -6 15.667 -9 29 -9c10 0 22.667 2.66699 38 8l-5 -48c-14 -6 -29 -9 -45 -9c-20.667 0 -37.667 4.33301 -51 13
c-15.333 9.33301 -23 23.666 -23 42.999c0 16 6 34.667 18 56l29 40h-132l82 667h205z" />
    <glyph glyph-name="eogonek" unicode="&#x119;" horiz-adv-x="308" 
d="M207 152l56.0039 -0.000976562c-4.66699 -26 -11 -50 -19 -72s-19.333 -42.333 -34 -61c-22.667 -30.667 -35.334 -48 -38.001 -52c-10 -16 -15 -30.333 -15 -43c0 -8.66699 3 -15 9 -19c5.33301 -4.66699 13.666 -7 24.999 -7c13.333 0 26 2.66699 38 8l-5 -47
c-14.667 -6 -29.334 -9 -44.001 -9c-20 0 -37 4.33301 -51 13c-15.333 9.33301 -23 23.333 -23 42c0 26.667 13.667 56 41 88c-37.333 0 -65 9 -83 27c-24 24 -36 68.667 -36 134c0 58.667 7 111.334 21 158.001c14 46 33.667 81.667 59 107c23.333 23.333 49 35 77 35
c22.667 0 42 -7.33301 58 -22c25.333 -24 38 -68 38 -132c0 -26.667 -2.66699 -56 -8 -88h-185c-3.33301 -20 -5 -41.667 -5 -65c0 -40.667 6.66699 -69 20 -85c8.66699 -10.667 20 -16 34 -16s26 5.33301 36 16c15.333 16 26.666 46 33.999 90zM94.0039 259.999h131
c0 2 0.333008 9.33301 1 22s1 21.667 1 27c0 41.333 -6.66699 68.666 -20 81.999c-7.33301 7.33301 -16.333 11 -27 11c-14 0 -27 -6 -39 -18c-21.333 -21.333 -37 -62.666 -47 -123.999z" />
    <glyph glyph-name="Ecaron" unicode="&#x11a;" horiz-adv-x="297" 
d="M313 667l-7 -57h-144l-29 -235h140l-6 -57h-141l-32 -261h144l-7 -57h-205l82 667h205zM345 821l-126 -107l-96 107l41 38l64 -69l82 69z" />
    <glyph glyph-name="ecaron" unicode="&#x11b;" horiz-adv-x="308" 
d="M207 152l56.001 -0.000976562c-6.66699 -44 -20.334 -81.5 -41.001 -112.5s-50.667 -46.5 -90 -46.5c-69.333 0 -104 53.333 -104 160c0 44 4.33301 85.333 13 124c5.33301 27.333 13.333 53.333 24 78s26.667 47.334 48 68.001s45.333 31 72 31c64 0 96 -51.667 96 -155
c0 -27.333 -2.66699 -56.333 -8 -87h-185c-3.33301 -22 -5 -41.667 -5 -59c0 -71.333 18 -107 54 -107c12 0 22.333 3.33301 31 10s15.5 16.5 20.5 29.5s8.66699 24 11 33s4.83301 20.167 7.5 33.5zM94.001 259.999h131c1.33301 21.333 2 38.333 2 51
c0 60.667 -15.667 91 -47 91c-42 0 -70.667 -47.333 -86 -142zM315.001 613.999l-126 -107l-96 107l41 38l64 -69l82 69z" />
    <glyph glyph-name="Gcircumflex" unicode="&#x11c;" horiz-adv-x="368" 
d="M369 550l-63 -24c-2.66699 60 -23.334 90 -62.001 90c-52 0 -88.667 -50 -110 -150c-21.333 -94.667 -32 -190.334 -32 -287.001c0 -16.667 0.666992 -30.667 2 -42s4 -24.5 8 -39.5s11.167 -26.5 21.5 -34.5s23.5 -12 39.5 -12c32 0 55.667 16.333 71 49
c4.66699 10 9.16699 24.667 13.5 44s7.33301 35.333 9 48s4 32.5 7 59.5s4.5 41.5 4.5 43.5h-89l7 57h150l-16 -134c-5.33301 -42.667 -11 -75 -17 -97c-10.667 -39.333 -29 -70.833 -55 -94.5s-58.333 -35.5 -97 -35.5c-80.667 0 -121 56.333 -121 169
c0 132.667 13.667 248.334 41 347.001c13.333 48.667 33.833 89 61.5 121s64.167 48 109.5 48c38 0 65.833 -11 83.5 -33s28.834 -53 33.501 -93zM376 752l-44 -38l-64 69l-82 -69l-32 38l123 107z" />
    <glyph glyph-name="gcircumflex" unicode="&#x11d;" horiz-adv-x="326" 
d="M304 447l-58 -476c-0.666992 -2.66699 -1.5 -8.5 -2.5 -17.5s-1.66699 -15.167 -2 -18.5s-1.33301 -8.5 -3 -15.5s-3.16699 -12.667 -4.5 -17s-3.5 -9.33301 -6.5 -15s-6.16699 -11.167 -9.5 -16.5c-20.667 -34 -56.334 -51 -107.001 -51c-66 0 -99 33.667 -99 101
c0 9.33301 1.33301 22.666 4 39.999h55c-1.33301 -12 -2 -21.667 -2 -29c0 -39.333 17.333 -59 52 -59c16.667 0 30.167 4.66699 40.5 14s17 19.333 20 30s5.5 25 7.5 43c0.666992 8 1.83398 19.833 3.50098 35.5s3.16699 27.834 4.5 36.501
c-22.667 -21.333 -47.667 -32 -75 -32c-60 -0 -90 43.333 -90 130c0 29.333 1.66699 59.5 5 90.5s9.5 65.667 18.5 104s23.833 69.5 44.5 93.5s46 36 76 36c28 0 51 -12.667 69 -38l4 31h55zM234 321c0 58 -16.999 87.002 -50.999 87.002
c-14.667 0 -27.167 -5.33301 -37.5 -16s-17.5 -21.334 -21.5 -32.001s-8 -24.334 -12 -41.001c-15.333 -64.667 -23 -125.667 -23 -183c0 -60 17.333 -90 52 -90c12.667 0 23.5 3.16699 32.5 9.5s16.167 16 21.5 29s9.16602 23.5 11.499 31.5s4.83301 19.333 7.5 34
c13.333 68 20 125 20 171zM306.001 545.002l-44 -38l-64 69l-82 -69l-32 38l123 107z" />
    <glyph glyph-name="Gbreve" unicode="&#x11e;" horiz-adv-x="368" 
d="M369 550l-63 -24c-2.66699 60 -23.334 90 -62.001 90c-52 0 -88.667 -50 -110 -150c-21.333 -94.667 -32 -190.334 -32 -287.001c0 -16.667 0.666992 -30.667 2 -42s4 -24.5 8 -39.5s11.167 -26.5 21.5 -34.5s23.5 -12 39.5 -12c32 0 55.667 16.333 71 49
c4.66699 10 9.16699 24.667 13.5 44s7.33301 35.333 9 48s4 32.5 7 59.5s4.5 41.5 4.5 43.5h-89l7 57h150l-16 -134c-5.33301 -42.667 -11 -75 -17 -97c-10.667 -39.333 -29 -70.833 -55 -94.5s-58.333 -35.5 -97 -35.5c-80.667 0 -121 56.333 -121 169
c0 132.667 13.667 248.334 41 347.001c13.333 48.667 33.833 89 61.5 121s64.167 48 109.5 48c38 0 65.833 -11 83.5 -33s28.834 -53 33.501 -93zM341 810h47c-6.66699 -30 -22.334 -52.833 -47.001 -68.5s-53 -23.5 -85 -23.5c-31.333 0 -57.666 7.66699 -78.999 23
s-32 38.333 -32 69h48c6.66699 -27.333 29.667 -41 69 -41c38 0 64.333 13.667 79 41z" />
    <glyph glyph-name="gbreve" unicode="&#x11f;" horiz-adv-x="326" 
d="M304 447l-58 -476c-0.666992 -2.66699 -1.5 -8.5 -2.5 -17.5s-1.66699 -15.167 -2 -18.5s-1.33301 -8.5 -3 -15.5s-3.16699 -12.667 -4.5 -17s-3.5 -9.33301 -6.5 -15s-6.16699 -11.167 -9.5 -16.5c-20.667 -34 -56.334 -51 -107.001 -51c-66 0 -99 33.667 -99 101
c0 9.33301 1.33301 22.666 4 39.999h55c-1.33301 -12 -2 -21.667 -2 -29c0 -39.333 17.333 -59 52 -59c16.667 0 30.167 4.66699 40.5 14s17 19.333 20 30s5.5 25 7.5 43c0.666992 8 1.83398 19.833 3.50098 35.5s3.16699 27.834 4.5 36.501
c-22.667 -21.333 -47.667 -32 -75 -32c-60 -0 -90 43.333 -90 130c0 29.333 1.66699 59.5 5 90.5s9.5 65.667 18.5 104s23.833 69.5 44.5 93.5s46 36 76 36c28 0 51 -12.667 69 -38l4 31h55zM234 321c0 58 -16.999 87.002 -50.999 87.002
c-14.667 0 -27.167 -5.33301 -37.5 -16s-17.5 -21.334 -21.5 -32.001s-8 -24.334 -12 -41.001c-15.333 -64.667 -23 -125.667 -23 -183c0 -60 17.333 -90 52 -90c12.667 0 23.5 3.16699 32.5 9.5s16.167 16 21.5 29s9.16602 23.5 11.499 31.5s4.83301 19.333 7.5 34
c13.333 68 20 125 20 171zM276.001 599.002h47c-6.66699 -30 -22.334 -52.833 -47.001 -68.5s-53 -23.5 -85 -23.5c-31.333 0 -57.666 7.66699 -78.999 23s-32 38.333 -32 69h48c6.66699 -27.333 29.667 -41 69 -41c38 0 64.333 13.667 79 41z" />
    <glyph glyph-name="Gdotaccent" unicode="&#x120;" horiz-adv-x="368" 
d="M369 550l-63 -24c-2.66699 60 -23.334 90 -62.001 90c-52 0 -88.667 -50 -110 -150c-21.333 -94.667 -32 -190.334 -32 -287.001c0 -16.667 0.666992 -30.667 2 -42s4 -24.5 8 -39.5s11.167 -26.5 21.5 -34.5s23.5 -12 39.5 -12c32 0 55.667 16.333 71 49
c4.66699 10 9.16699 24.667 13.5 44s7.33301 35.333 9 48s4 32.5 7 59.5s4.5 41.5 4.5 43.5h-89l7 57h150l-16 -134c-5.33301 -42.667 -11 -75 -17 -97c-10.667 -39.333 -29 -70.833 -55 -94.5s-58.333 -35.5 -97 -35.5c-80.667 0 -121 56.333 -121 169
c0 132.667 13.667 248.334 41 347.001c13.333 48.667 33.833 89 61.5 121s64.167 48 109.5 48c38 0 65.833 -11 83.5 -33s28.834 -53 33.501 -93zM307 771c0 -13.333 -5.16504 -25.166 -15.498 -35.499s-22.166 -15.5 -35.499 -15.5c-10.667 0 -19.834 3.83301 -27.501 11.5
s-11.5 17.167 -11.5 28.5c0 13.333 5.16699 25.166 15.5 35.499s22.166 15.5 35.499 15.5c11.333 0 20.666 -3.83301 27.999 -11.5s11 -17.167 11 -28.5z" />
    <glyph glyph-name="gdotaccent" unicode="&#x121;" horiz-adv-x="326" 
d="M304 447l-58 -476c-0.666992 -2.66699 -1.5 -8.5 -2.5 -17.5s-1.66699 -15.167 -2 -18.5s-1.33301 -8.5 -3 -15.5s-3.16699 -12.667 -4.5 -17s-3.5 -9.33301 -6.5 -15s-6.16699 -11.167 -9.5 -16.5c-20.667 -34 -56.334 -51 -107.001 -51c-66 0 -99 33.667 -99 101
c0 9.33301 1.33301 22.666 4 39.999h55c-1.33301 -12 -2 -21.667 -2 -29c0 -39.333 17.333 -59 52 -59c16.667 0 30.167 4.66699 40.5 14s17 19.333 20 30s5.5 25 7.5 43c0.666992 8 1.83398 19.833 3.50098 35.5s3.16699 27.834 4.5 36.501
c-22.667 -21.333 -47.667 -32 -75 -32c-60 -0 -90 43.333 -90 130c0 29.333 1.66699 59.5 5 90.5s9.5 65.667 18.5 104s23.833 69.5 44.5 93.5s46 36 76 36c28 0 51 -12.667 69 -38l4 31h55zM234 321c0 58 -16.999 87.002 -50.999 87.002
c-14.667 0 -27.167 -5.33301 -37.5 -16s-17.5 -21.334 -21.5 -32.001s-8 -24.334 -12 -41.001c-15.333 -64.667 -23 -125.667 -23 -183c0 -60 17.333 -90 52 -90c12.667 0 23.5 3.16699 32.5 9.5s16.167 16 21.5 29s9.16602 23.5 11.499 31.5s4.83301 19.333 7.5 34
c13.333 68 20 125 20 171zM242.001 564.002c0 -13.333 -5.16504 -25.166 -15.498 -35.499s-22.166 -15.5 -35.499 -15.5c-10.667 0 -19.834 3.83301 -27.501 11.5s-11.5 17.167 -11.5 28.5c0 13.333 5.16699 25.166 15.5 35.499s22.166 15.5 35.499 15.5
c11.333 0 20.666 -3.83301 27.999 -11.5s11 -17.167 11 -28.5z" />
    <glyph glyph-name="Gcommaaccent" unicode="&#x122;" horiz-adv-x="368" 
d="M369 550l-63 -24c-2.66699 60 -23.334 90 -62.001 90c-52 0 -88.667 -50 -110 -150c-21.333 -94.667 -32 -190.334 -32 -287.001c0 -16.667 0.666992 -30.667 2 -42s4 -24.5 8 -39.5s11.167 -26.5 21.5 -34.5s23.5 -12 39.5 -12c32 0 55.667 16.333 71 49
c4.66699 10 9.16699 24.667 13.5 44s7.33301 35.333 9 48s4 32.5 7 59.5s4.5 41.5 4.5 43.5h-89l7 57h150l-16 -134c-5.33301 -42.667 -11 -75 -17 -97c-10.667 -39.333 -29 -70.833 -55 -94.5s-58.333 -35.5 -97 -35.5c-80.667 0 -121 56.333 -121 169
c0 132.667 13.667 248.334 41 347.001c13.333 48.667 33.833 89 61.5 121s64.167 48 109.5 48c38 0 65.833 -11 83.5 -33s28.834 -53 33.501 -93zM192 -77l-91 -154l-37 19l73 163z" />
    <glyph glyph-name="gcommaaccent" unicode="&#x123;" horiz-adv-x="326" 
d="M304 447l-58 -476c-0.666992 -2.66699 -1.5 -8.5 -2.5 -17.5s-1.66699 -15.167 -2 -18.5s-1.33301 -8.5 -3 -15.5s-3.16699 -12.667 -4.5 -17s-3.5 -9.33301 -6.5 -15s-6.16699 -11.167 -9.5 -16.5c-20.667 -34 -56.334 -51 -107.001 -51c-66 0 -99 33.667 -99 101
c0 9.33301 1.33301 22.666 4 39.999h55c-1.33301 -12 -2 -21.667 -2 -29c0 -39.333 17.333 -59 52 -59c16.667 0 30.167 4.66699 40.5 14s17 19.333 20 30s5.5 25 7.5 43c0.666992 8 1.83398 19.833 3.50098 35.5s3.16699 27.834 4.5 36.501
c-22.667 -21.333 -47.667 -32 -75 -32c-60 -0 -90 43.333 -90 130c0 29.333 1.66699 59.5 5 90.5s9.5 65.667 18.5 104s23.833 69.5 44.5 93.5s46 36 76 36c28 0 51 -12.667 69 -38l4 31h55zM234 321c0 58 -16.999 87.002 -50.999 87.002
c-14.667 0 -27.167 -5.33301 -37.5 -16s-17.5 -21.334 -21.5 -32.001s-8 -24.334 -12 -41.001c-15.333 -64.667 -23 -125.667 -23 -183c0 -60 17.333 -90 52 -90c12.667 0 23.5 3.16699 32.5 9.5s16.167 16 21.5 29s9.16602 23.5 11.499 31.5s4.83301 19.333 7.5 34
c13.333 68 20 125 20 171zM137.001 523.002l91 154l37 -19l-73 -163z" />
    <glyph glyph-name="Hcircumflex" unicode="&#x124;" horiz-adv-x="380" 
d="M380 667l-82 -667h-61l42 344h-150l-42 -344h-61l82 667h61l-33 -266h150l33 266h61zM366 752l-44 -38l-64 69l-82 -69l-32 38l123 107z" />
    <glyph glyph-name="hcircumflex" unicode="&#x125;" horiz-adv-x="325" 
d="M166 729l-39.001 -318c28.667 28.667 59 43 91 43c49.333 0 74 -26 74 -78c0 -16 -1 -31 -3 -45l-40 -331h-56l39 321c2.66699 17.333 4 30.333 4 39c0 14 -3.66699 25.5 -11 34.5s-17.666 13.5 -30.999 13.5c-46 0 -72.667 -35.667 -80 -107l-37 -301h-56l90 729h55z
M255.999 795l-44 -38l-64 69l-82 -69l-32 38l123 107z" />
    <glyph glyph-name="Hbar" unicode="&#x126;" horiz-adv-x="380" 
d="M129 344l-42 -344h-61l69 562h-50l6 47h50l7 58h61l-7 -58h150l7 58h61l-7 -58h50l-6 -47h-50l-69 -562h-61l42 344h-150zM306 562h-150l-20 -161h150z" />
    <glyph glyph-name="hbar" unicode="&#x127;" horiz-adv-x="322" 
d="M21 0l63.999 522h-49l7 52h49l18 155h56l-19 -155h104l-7 -52h-104l-16 -131c28.667 28.667 59 43 91 43c49.333 0 74 -26 74 -78c0 -16 -1 -31 -3 -45l-37 -311h-56l37 301c2.66699 17.333 4 30.333 4 39c0 14 -3.66699 25.5 -11 34.5s-17.666 13.5 -30.999 13.5
c-46 0 -72.667 -35.667 -80 -107l-35 -281h-56z" />
    <glyph glyph-name="Imacron" unicode="&#x12a;" horiz-adv-x="169" 
d="M169 667l-82 -667h-61l82 667h61zM255 782l-7 -55h-221l6 55h222z" />
    <glyph glyph-name="imacron" unicode="&#x12b;" horiz-adv-x="154" 
d="M131 447l-54 -447h-56l55 447h55zM231 575l-7 -55h-221l6 55h222z" />
    <glyph glyph-name="Iogonek" unicode="&#x12e;" horiz-adv-x="169" 
d="M169 667l-82 -666.999l-26 -36c-10 -15.333 -15 -29 -15 -41c0 -7.33301 2 -13 6 -17c6 -6 15.667 -9 29 -9c10 0 22.667 2.66699 38 8l-5 -48c-14 -6 -29 -9 -45 -9c-20.667 0 -37.667 4.33301 -51 13c-15.333 9.33301 -23 23.666 -23 42.999c0 16 6 34.667 18 56l29 40
h-16l82 667h61z" />
    <glyph glyph-name="iogonek" unicode="&#x12f;" horiz-adv-x="154" 
d="M163 593c0 -12.667 -4.66797 -23.666 -14.001 -32.999s-20.333 -14 -33 -14c-10.667 0 -19.5 3.5 -26.5 10.5s-10.5 15.5 -10.5 25.5c0 13.333 4.83301 24.666 14.5 33.999s20.834 14 33.501 14c10 0 18.5 -3.5 25.5 -10.5s10.5 -15.833 10.5 -26.5zM108.999 -94.999
l-5 -47.999c-14 -6 -29 -9 -45 -9c-20.667 0 -37.667 4.33301 -51 13c-15.333 9.33301 -23 23.666 -23 42.999c0 16 6 34.667 18 56l29 40h-11l55 447h55l-54 -447l-26 -36c-10 -15.333 -15 -29 -15 -41c0 -7.33301 2 -13 6 -17c6 -6 15.667 -9 29 -9
c10 0 22.667 2.66699 38 8z" />
    <glyph glyph-name="Idotaccent" unicode="&#x130;" horiz-adv-x="169" 
d="M169 667l-82 -667h-61l82 667h61zM197 771c0 -13.333 -5.16504 -25.166 -15.498 -35.499s-22.166 -15.5 -35.499 -15.5c-10.667 0 -19.834 3.83301 -27.501 11.5s-11.5 17.167 -11.5 28.5c0 13.333 5.16699 25.166 15.5 35.499s22.166 15.5 35.499 15.5
c11.333 0 20.666 -3.83301 27.999 -11.5s11 -17.167 11 -28.5z" />
    <glyph glyph-name="dotlessi" unicode="&#x131;" horiz-adv-x="154" 
d="M131 447l-54 -447h-56l55 447h55z" />
    <glyph glyph-name="Jcircumflex" unicode="&#x134;" horiz-adv-x="221" 
d="M221 667l-68 -553c0 -1.33301 -0.5 -5.5 -1.5 -12.5s-1.66699 -11.5 -2 -13.5s-0.833008 -6 -1.5 -12s-1.5 -10.5 -2.5 -13.5l-4 -12c-1.66699 -5 -3.33398 -9 -5.00098 -12s-3.83398 -6.5 -6.50098 -10.5s-5.66699 -7.33301 -9 -10
c-19.333 -18.667 -45.666 -28 -78.999 -28c-21.333 0 -44 6 -68 18l8 64c20 -18.667 39 -28 57 -28c8 0 15.167 1.5 21.5 4.5s11 5.66699 14 8s5.83301 7.5 8.5 15.5s4.33398 13.333 5.00098 16s1.66699 9.5 3 20.5s2 17.167 2 18.5l67 540h61zM306 752l-44 -38l-64 69
l-82 -69l-32 38l123 107z" />
    <glyph glyph-name="jcircumflex" unicode="&#x135;" horiz-adv-x="158" 
d="M136 447l-77 -627h-56l77 627h56zM229 545l-44 -38l-64 69l-82 -69l-32 38l123 107z" />
    <glyph glyph-name="Kcommaaccent" unicode="&#x136;" horiz-adv-x="320" 
d="M365 667l-180 -320l98 -347h-64l-91 336l-41 -336h-61l82 667h61l-37 -303l169 303h64zM192 -77l-91 -154l-37 19l73 163z" />
    <glyph glyph-name="kcommaaccent" unicode="&#x137;" horiz-adv-x="305" 
d="M304 447l-155 -207l128 -240h-63l-111 214l-26 -214h-56l90 729h55l-56 -464l131 182h63zM192 -77l-91 -154l-37 19l73 163z" />
    <glyph glyph-name="Lacute" unicode="&#x139;" horiz-adv-x="259" 
d="M236 57l-7 -57h-203l82 667h61l-75 -610h142zM290 817l-126 -103l-32 26l110 120z" />
    <glyph glyph-name="lacute" unicode="&#x13a;" horiz-adv-x="154" 
d="M166 729l-89 -729h-56l90 729h55zM277 860l-126 -103l-32 26l110 120z" />
    <glyph glyph-name="Lcommaaccent" unicode="&#x13b;" horiz-adv-x="259" 
d="M236 57l-7 -57h-203l82 667h61l-75 -610h142zM172 -77l-91 -154l-37 19l73 163z" />
    <glyph glyph-name="lcommaaccent" unicode="&#x13c;" horiz-adv-x="154" 
d="M166 729l-89 -729h-56l90 729h55zM72 -77l-91 -154l-37 19l73 163z" />
    <glyph glyph-name="Lcaron" unicode="&#x13d;" horiz-adv-x="259" 
d="M236 57l-7 -57h-203l82 667h61l-75 -610h142zM352 648l-106 -186l-37 19l88 195z" />
    <glyph glyph-name="lcaron" unicode="&#x13e;" horiz-adv-x="237" 
d="M166 729l-89 -729h-56l90 729h55zM312 648l-106 -186l-37 19l88 195z" />
    <glyph glyph-name="Ldot" unicode="&#x13f;" horiz-adv-x="259" 
d="M236 57l-7 -57h-203l82 667h61l-75 -610h142zM273 339c0 -13.333 -5.16504 -25.166 -15.498 -35.499s-22.166 -15.5 -35.499 -15.5c-10.667 0 -19.834 3.83301 -27.501 11.5s-11.5 17.167 -11.5 28.5c0 13.333 5.16699 25.166 15.5 35.499s22.166 15.5 35.499 15.5
c11.333 0 20.666 -3.83301 27.999 -11.5s11 -17.167 11 -28.5z" />
    <glyph glyph-name="ldot" unicode="&#x140;" horiz-adv-x="232" 
d="M166 729l-89 -729h-56l90 729h55zM256 370c0 -13.333 -5.16504 -25.166 -15.498 -35.499s-22.166 -15.5 -35.499 -15.5c-10.667 0 -19.834 3.83301 -27.501 11.5s-11.5 17.167 -11.5 28.5c0 13.333 5.16699 25.166 15.5 35.499s22.166 15.5 35.499 15.5
c11.333 0 20.666 -3.83301 27.999 -11.5s11 -17.167 11 -28.5z" />
    <glyph glyph-name="Lslash" unicode="&#x141;" horiz-adv-x="259" 
d="M236 57l-7 -57h-203l35 281l-55 -48l8 66l55 49l39 319h61l-34 -279l95 81l-9 -66l-94 -81l-33 -265h142z" />
    <glyph glyph-name="lslash" unicode="&#x142;" horiz-adv-x="180" 
d="M197 486l-8 -64l-55 -49l-47 -373h-55l41 340l-56 -50l8 65l56 50l40 324h56l-35 -292z" />
    <glyph glyph-name="Nacute" unicode="&#x143;" horiz-adv-x="381" 
d="M381 667l-82 -667.001h-53l-92 440c-2 10 -4.5 25.667 -7.5 47s-5.5 37 -7.5 47c-2.66699 -53.333 -5.66699 -92.666 -9 -117.999l-51 -416h-53l82 667h53l94 -453c1.33301 -7.33301 3.33301 -20 6 -38s5 -31.667 7 -41c0 32.667 2 65 6 97l54 435h53zM361 816.999
l-126 -103l-32 26l110 120z" />
    <glyph glyph-name="nacute" unicode="&#x144;" horiz-adv-x="325" 
d="M131 447l-4.00195 -35.999c28.667 28.667 58.667 43 90 43c24.667 0 43.334 -7.5 56.001 -22.5s19 -34.833 19 -59.5c0 -14.667 -1 -28.334 -3 -41.001l-40 -331h-56l39 321c2.66699 17.333 4 30.333 4 39c0 14 -3.66699 25.5 -11 34.5s-17.666 13.5 -30.999 13.5
c-46 0 -72.667 -35.667 -80 -107l-37 -301h-56l55 447h55zM306.998 610.001l-126 -103l-32 26l110 120z" />
    <glyph glyph-name="Ncommaaccent" unicode="&#x145;" horiz-adv-x="381" 
d="M381 667l-82 -667.001h-53l-92 440c-2 10 -4.5 25.667 -7.5 47s-5.5 37 -7.5 47c-2.66699 -53.333 -5.66699 -92.666 -9 -117.999l-51 -416h-53l82 667h53l94 -453c1.33301 -7.33301 3.33301 -20 6 -38s5 -31.667 7 -41c0 32.667 2 65 6 97l54 435h53zM207 -77.001
l-91 -154l-37 19l73 163z" />
    <glyph glyph-name="ncommaaccent" unicode="&#x146;" horiz-adv-x="325" 
d="M131 447l-4.00195 -35.999c28.667 28.667 58.667 43 90 43c24.667 0 43.334 -7.5 56.001 -22.5s19 -34.833 19 -59.5c0 -14.667 -1 -28.334 -3 -41.001l-40 -331h-56l39 321c2.66699 17.333 4 30.333 4 39c0 14 -3.66699 25.5 -11 34.5s-17.666 13.5 -30.999 13.5
c-46 0 -72.667 -35.667 -80 -107l-37 -301h-56l55 447h55zM181.998 -76.999l-91 -154l-37 19l73 163z" />
    <glyph glyph-name="Ncaron" unicode="&#x147;" horiz-adv-x="381" 
d="M381 667l-82 -667.001h-53l-92 440c-2 10 -4.5 25.667 -7.5 47s-5.5 37 -7.5 47c-2.66699 -53.333 -5.66699 -92.666 -9 -117.999l-51 -416h-53l82 667h53l94 -453c1.33301 -7.33301 3.33301 -20 6 -38s5 -31.667 7 -41c0 32.667 2 65 6 97l54 435h53zM375 820.999
l-126 -107l-96 107l41 38l64 -69l82 69z" />
    <glyph glyph-name="ncaron" unicode="&#x148;" horiz-adv-x="325" 
d="M131 447l-4.00195 -35.999c28.667 28.667 58.667 43 90 43c24.667 0 43.334 -7.5 56.001 -22.5s19 -34.833 19 -59.5c0 -14.667 -1 -28.334 -3 -41.001l-40 -331h-56l39 321c2.66699 17.333 4 30.333 4 39c0 14 -3.66699 25.5 -11 34.5s-17.666 13.5 -30.999 13.5
c-46 0 -72.667 -35.667 -80 -107l-37 -301h-56l55 447h55zM334.998 614.001l-126 -107l-96 107l41 38l64 -69l82 69z" />
    <glyph glyph-name="Omacron" unicode="&#x14c;" horiz-adv-x="398" 
d="M382 477c0 -128 -15.668 -238.002 -47.001 -330.002c-34 -104 -89 -156 -165 -156c-85.333 0 -128 71.667 -128 215c0 31.333 1.5 64.5 4.5 99.5s9.16699 75.333 18.5 121s21.333 86.334 36 122.001s35.334 65.834 62.001 90.501s57 37 91 37
c85.333 0 128 -66.333 128 -199zM320.999 481.998c0 89.333 -24.332 134 -72.999 134c-30.667 0 -56 -17.333 -76 -52c-22.667 -38 -39.667 -94.333 -51 -169s-17 -142.667 -17 -204c0 -93.333 24.333 -140 73 -140c33.333 0 60.333 19.333 81 58
c19.333 36 34.666 93 45.999 171s17 145.333 17 202zM378 781.998l-7 -55h-221l6 55h222z" />
    <glyph glyph-name="omacron" unicode="&#x14d;" horiz-adv-x="318" 
d="M290 328l-0.000976562 -17c0 -31.333 -2 -62.5 -6 -93.5s-11 -64.833 -21 -101.5s-26.167 -66.334 -48.5 -89.001s-49.5 -34 -81.5 -34c-70 0 -105 54 -105 162c0 28.667 2.33301 58.5 7 89.5s12.5 63 23.5 96s27.833 60.167 50.5 81.5s49.334 32 80.001 32
c34 0 59.333 -12.167 76 -36.5s25 -54.166 25 -89.499zM231.999 298c0 69.333 -16.667 104.003 -50 104.003c-19.333 0 -35.833 -10.167 -49.5 -30.5s-23.667 -45.833 -30 -76.5s-10.833 -58.334 -13.5 -83.001s-4 -46.334 -4 -65.001c0 -67.333 17.667 -101 53 -101
c18.667 0 34.667 10 48 30s23 45.167 29 75.5s10.333 57.666 13 81.999s4 45.833 4 64.5zM314.999 575.003l-7 -55h-221l6 55h222z" />
    <glyph glyph-name="Obreve" unicode="&#x14e;" horiz-adv-x="398" 
d="M382 477c0 -128 -15.668 -238.002 -47.001 -330.002c-34 -104 -89 -156 -165 -156c-85.333 0 -128 71.667 -128 215c0 31.333 1.5 64.5 4.5 99.5s9.16699 75.333 18.5 121s21.333 86.334 36 122.001s35.334 65.834 62.001 90.501s57 37 91 37
c85.333 0 128 -66.333 128 -199zM320.999 481.998c0 89.333 -24.332 134 -72.999 134c-30.667 0 -56 -17.333 -76 -52c-22.667 -38 -39.667 -94.333 -51 -169s-17 -142.667 -17 -204c0 -93.333 24.333 -140 73 -140c33.333 0 60.333 19.333 81 58
c19.333 36 34.666 93 45.999 171s17 145.333 17 202zM344 809.998h47c-6.66699 -30 -22.334 -52.833 -47.001 -68.5s-53 -23.5 -85 -23.5c-31.333 0 -57.666 7.66699 -78.999 23s-32 38.333 -32 69h48c6.66699 -27.333 29.667 -41 69 -41c38 0 64.333 13.667 79 41z" />
    <glyph glyph-name="obreve" unicode="&#x14f;" horiz-adv-x="318" 
d="M290 328l-0.000976562 -17c0 -31.333 -2 -62.5 -6 -93.5s-11 -64.833 -21 -101.5s-26.167 -66.334 -48.5 -89.001s-49.5 -34 -81.5 -34c-70 0 -105 54 -105 162c0 28.667 2.33301 58.5 7 89.5s12.5 63 23.5 96s27.833 60.167 50.5 81.5s49.334 32 80.001 32
c34 0 59.333 -12.167 76 -36.5s25 -54.166 25 -89.499zM231.999 298c0 69.333 -16.667 104.003 -50 104.003c-19.333 0 -35.833 -10.167 -49.5 -30.5s-23.667 -45.833 -30 -76.5s-10.833 -58.334 -13.5 -83.001s-4 -46.334 -4 -65.001c0 -67.333 17.667 -101 53 -101
c18.667 0 34.667 10 48 30s23 45.167 29 75.5s10.333 57.666 13 81.999s4 45.833 4 64.5zM280.999 599.003h47c-6.66699 -30 -22.334 -52.833 -47.001 -68.5s-53 -23.5 -85 -23.5c-31.333 0 -57.666 7.66699 -78.999 23s-32 38.333 -32 69h48
c6.66699 -27.333 29.667 -41 69 -41c38 0 64.333 13.667 79 41z" />
    <glyph glyph-name="Ohungarumlaut" unicode="&#x150;" horiz-adv-x="398" 
d="M382 477c0 -128 -15.668 -238.002 -47.001 -330.002c-34 -104 -89 -156 -165 -156c-85.333 0 -128 71.667 -128 215c0 31.333 1.5 64.5 4.5 99.5s9.16699 75.333 18.5 121s21.333 86.334 36 122.001s35.334 65.834 62.001 90.501s57 37 91 37
c85.333 0 128 -66.333 128 -199zM320.999 481.998c0 89.333 -24.332 134 -72.999 134c-30.667 0 -56 -17.333 -76 -52c-22.667 -38 -39.667 -94.333 -51 -169s-17 -142.667 -17 -204c0 -93.333 24.333 -140 73 -140c33.333 0 60.333 19.333 81 58
c19.333 36 34.666 93 45.999 171s17 145.333 17 202zM409 829.998l-83 -116l-35 13l65 125zM308 829.998l-83 -116l-35 13l65 125z" />
    <glyph glyph-name="ohungarumlaut" unicode="&#x151;" horiz-adv-x="318" 
d="M290 328l-0.000976562 -17c0 -31.333 -2 -62.5 -6 -93.5s-11 -64.833 -21 -101.5s-26.167 -66.334 -48.5 -89.001s-49.5 -34 -81.5 -34c-70 0 -105 54 -105 162c0 28.667 2.33301 58.5 7 89.5s12.5 63 23.5 96s27.833 60.167 50.5 81.5s49.334 32 80.001 32
c34 0 59.333 -12.167 76 -36.5s25 -54.166 25 -89.499zM231.999 298c0 69.333 -16.667 104.003 -50 104.003c-19.333 0 -35.833 -10.167 -49.5 -30.5s-23.667 -45.833 -30 -76.5s-10.833 -58.334 -13.5 -83.001s-4 -46.334 -4 -65.001c0 -67.333 17.667 -101 53 -101
c18.667 0 34.667 10 48 30s23 45.167 29 75.5s10.333 57.666 13 81.999s4 45.833 4 64.5zM340.999 623.003l-83 -116l-35 13l65 125zM239.999 623.003l-83 -116l-35 13l65 125z" />
    <glyph glyph-name="OE" unicode="&#x152;" horiz-adv-x="532" 
d="M549 667l-7 -56.999h-144l-29 -235h140l-7 -57h-140l-32 -261h144l-7 -57h-203l9 69c-29.333 -52.667 -67 -79 -113 -79c-78.667 0 -118 69 -118 207c0 31.333 1.33301 64.666 4 99.999s8.5 76.5 17.5 123.5s20.667 88.5 35 124.5s34.5 66.833 60.5 92.5s56 38.5 90 38.5
c41.333 0 71.333 -23 90 -69l7 60h203zM312 484.001c0 88 -22.667 132 -68 132c-14.667 0 -27.834 -4.16699 -39.501 -12.5s-21.667 -20.333 -30 -36s-14.5 -29 -18.5 -40s-8.33301 -25.167 -13 -42.5c-28 -102 -42 -199.333 -42 -292c0 -94.667 24.333 -142 73 -142
c28.667 0 53.334 17 74.001 51c21.333 36 37.333 93 48 171s16 148.333 16 211z" />
    <glyph glyph-name="oe" unicode="&#x153;" horiz-adv-x="495" 
d="M392 154h51.999c-4.66699 -42.667 -17.667 -80.167 -39 -112.5s-51 -48.5 -89 -48.5c-25.333 0 -45.333 9.16699 -60 27.5s-23.667 40.833 -27 67.5c-22.667 -63.333 -57.334 -95 -104.001 -95c-64 0 -96 53.667 -96 161c0 42 4 83 12 123c4 19.333 9.5 38.333 16.5 57
s16 37.5 27 56.5s24.833 34.333 41.5 46s35 17.5 55 17.5c24.667 0 43.834 -9 57.501 -27s21.834 -40.333 24.501 -67c9.33301 26 23.833 48.167 43.5 66.5s42.167 27.5 67.5 27.5c18 0 33.5 -4.83301 46.5 -14.5s22.667 -22.5 29 -38.5s11 -32 14 -48s4.5 -32.333 4.5 -49
c0 -20 -2.66699 -50 -8 -90h-189c-2 -19.333 -3 -38 -3 -56c0 -74.667 19.667 -112 59 -112c35.333 0 57 36 65 108zM277.999 261h134.999c2.66699 17.333 4 30.666 4 39.999c0 14.667 -1 28.667 -3 42s-7.33301 26.5 -16 39.5s-20.334 19.5 -35.001 19.5
c-17.333 0 -32.666 -9.16699 -45.999 -27.5s-22.666 -37.166 -27.999 -56.499s-9 -38.333 -11 -57zM224.998 298c0 69.333 -16.666 104.001 -49.999 104.001c-16.667 0 -31.667 -10.5 -45 -31.5s-22.833 -41.833 -28.5 -62.5s-9.83398 -40.334 -12.501 -59.001
c-4.66699 -28.667 -7 -59 -7 -91c0 -74.667 16.667 -112 50 -112c13.333 0 25.333 6.16699 36 18.5s19.5 28 26.5 47s12.333 36.333 16 52s6.5 30.5 8.5 44.5c4 30 6 60 6 90z" />
    <glyph glyph-name="Racute" unicode="&#x154;" horiz-adv-x="370" 
d="M112 667h83c56 0 97.333 -9 124 -27s40 -53.667 40 -107c0 -134.667 -51.667 -205.667 -155 -213l112 -320h-66l-113 326l-40 -326h-66zM143 375l41 -0.000976562c31.333 0 54.666 7.33301 69.999 22c25.333 23.333 38 67.333 38 132
c0 30.667 -6.66699 51.834 -20 63.501s-35.666 17.5 -66.999 17.5h-33zM357 816.999l-126 -103l-32 26l110 120z" />
    <glyph glyph-name="racute" unicode="&#x155;" horiz-adv-x="192" 
d="M208 454l-8.00098 -65.001c-14.667 0 -27.167 -2.33301 -37.5 -7s-18.333 -10.167 -24 -16.5s-10.5 -15.666 -14.5 -27.999s-6.66699 -22.5 -8 -30.5s-3 -20 -5 -36l-34 -271h-56l56 447h55l-7 -58c24.667 42 52.334 63.667 83.001 65zM281.999 609.999l-126 -103l-32 26
l110 120z" />
    <glyph glyph-name="Rcommaaccent" unicode="&#x156;" horiz-adv-x="370" 
d="M112 667h83c56 0 97.333 -9 124 -27s40 -53.667 40 -107c0 -134.667 -51.667 -205.667 -155 -213l112 -320h-66l-113 326l-40 -326h-66zM143 375l41 -0.000976562c31.333 0 54.666 7.33301 69.999 22c25.333 23.333 38 67.333 38 132
c0 30.667 -6.66699 51.834 -20 63.501s-35.666 17.5 -66.999 17.5h-33zM212 -77.001l-91 -154l-37 19l73 163z" />
    <glyph glyph-name="rcommaaccent" unicode="&#x157;" horiz-adv-x="192" 
d="M208 454l-8.00098 -65.001c-14.667 0 -27.167 -2.33301 -37.5 -7s-18.333 -10.167 -24 -16.5s-10.5 -15.666 -14.5 -27.999s-6.66699 -22.5 -8 -30.5s-3 -20 -5 -36l-34 -271h-56l56 447h55l-7 -58c24.667 42 52.334 63.667 83.001 65zM104.999 -77.001l-91 -154l-37 19
l73 163z" />
    <glyph glyph-name="Rcaron" unicode="&#x158;" horiz-adv-x="370" 
d="M112 667h83c56 0 97.333 -9 124 -27s40 -53.667 40 -107c0 -134.667 -51.667 -205.667 -155 -213l112 -320h-66l-113 326l-40 -326h-66zM143 375l41 -0.000976562c31.333 0 54.666 7.33301 69.999 22c25.333 23.333 38 67.333 38 132
c0 30.667 -6.66699 51.834 -20 63.501s-35.666 17.5 -66.999 17.5h-33zM355 820.999l-126 -107l-96 107l41 38l64 -69l82 69z" />
    <glyph glyph-name="rcaron" unicode="&#x159;" horiz-adv-x="192" 
d="M208 454l-8.00098 -65.001c-14.667 0 -27.167 -2.33301 -37.5 -7s-18.333 -10.167 -24 -16.5s-10.5 -15.666 -14.5 -27.999s-6.66699 -22.5 -8 -30.5s-3 -20 -5 -36l-34 -271h-56l56 447h55l-7 -58c24.667 42 52.334 63.667 83.001 65zM279.999 613.999l-126 -107
l-96 107l41 38l64 -69l82 69z" />
    <glyph glyph-name="Sacute" unicode="&#x15a;" horiz-adv-x="342" 
d="M336 640l-10.001 -77.999c-26.667 36 -57 54 -91 54c-32 0 -58.167 -12.667 -78.5 -38s-30.5 -54.333 -30.5 -87c0 -24.667 6.5 -46.667 19.5 -66s28.5 -35.833 46.5 -49.5l54.5 -41.5c18.333 -14 34 -32 47 -54s19.5 -47 19.5 -75c0 -55.333 -18.167 -105 -54.5 -149
s-81.5 -66 -135.5 -66c-37.333 0 -70.333 11.667 -99 35l10 80c30 -36 63 -54 99 -54c34.667 0 62.834 14.167 84.501 42.5s32.5 60.166 32.5 95.499c0 22.667 -6.5 43.167 -19.5 61.5s-28.667 34.5 -47 48.5l-55 43c-18.333 14.667 -34 33 -47 55s-19.5 46.667 -19.5 74
c0 52.667 16.333 100 49 142s74.667 63 126 63c36 0 69 -12 99 -36zM361.999 817.001l-126 -103l-32 26l110 120z" />
    <glyph glyph-name="sacute" unicode="&#x15b;" horiz-adv-x="243" 
d="M238 425l-6.99805 -68.999c-22 30.667 -45.333 46 -70 46c-18 0 -33 -6.66699 -45 -20s-18 -29.333 -18 -48c0 -16.667 6.16699 -33 18.5 -49s25.666 -29.5 39.999 -40.5s27.666 -26 39.999 -45s18.5 -39.5 18.5 -61.5c0 -38.667 -13 -72.5 -39 -101.5
s-57.667 -43.5 -95 -43.5c-29.333 0 -55.333 10.333 -78 31l7 66c23.333 -29.333 47.666 -44 72.999 -44c20.667 0 38 8 52 24s21 34.333 21 55c0 14 -4 27.667 -12 41s-17.667 25.666 -29 36.999l-34 34.5c-11.333 11.667 -21 25.167 -29 40.5s-12 31.333 -12 48
c0 35.333 11.833 65.5 35.5 90.5s52.834 37.5 87.501 37.5c27.333 0 52.333 -9.66699 75 -29zM284.002 610.001l-126 -103l-32 26l110 120z" />
    <glyph glyph-name="Scircumflex" unicode="&#x15c;" horiz-adv-x="342" 
d="M336 640l-10.001 -77.999c-26.667 36 -57 54 -91 54c-32 0 -58.167 -12.667 -78.5 -38s-30.5 -54.333 -30.5 -87c0 -24.667 6.5 -46.667 19.5 -66s28.5 -35.833 46.5 -49.5l54.5 -41.5c18.333 -14 34 -32 47 -54s19.5 -47 19.5 -75c0 -55.333 -18.167 -105 -54.5 -149
s-81.5 -66 -135.5 -66c-37.333 0 -70.333 11.667 -99 35l10 80c30 -36 63 -54 99 -54c34.667 0 62.834 14.167 84.501 42.5s32.5 60.166 32.5 95.499c0 22.667 -6.5 43.167 -19.5 61.5s-28.667 34.5 -47 48.5l-55 43c-18.333 14.667 -34 33 -47 55s-19.5 46.667 -19.5 74
c0 52.667 16.333 100 49 142s74.667 63 126 63c36 0 69 -12 99 -36zM350.999 752.001l-44 -38l-64 69l-82 -69l-32 38l123 107z" />
    <glyph glyph-name="scircumflex" unicode="&#x15d;" horiz-adv-x="243" 
d="M238 425l-6.99805 -68.999c-22 30.667 -45.333 46 -70 46c-18 0 -33 -6.66699 -45 -20s-18 -29.333 -18 -48c0 -16.667 6.16699 -33 18.5 -49s25.666 -29.5 39.999 -40.5s27.666 -26 39.999 -45s18.5 -39.5 18.5 -61.5c0 -38.667 -13 -72.5 -39 -101.5
s-57.667 -43.5 -95 -43.5c-29.333 0 -55.333 10.333 -78 31l7 66c23.333 -29.333 47.666 -44 72.999 -44c20.667 0 38 8 52 24s21 34.333 21 55c0 14 -4 27.667 -12 41s-17.667 25.666 -29 36.999l-34 34.5c-11.333 11.667 -21 25.167 -29 40.5s-12 31.333 -12 48
c0 35.333 11.833 65.5 35.5 90.5s52.834 37.5 87.501 37.5c27.333 0 52.333 -9.66699 75 -29zM286.002 545.001l-44 -38l-64 69l-82 -69l-32 38l123 107z" />
    <glyph glyph-name="Scedilla" unicode="&#x15e;" horiz-adv-x="342" 
d="M336 640l-10.001 -77.999c-26.667 36 -57 54 -91 54c-32 0 -58.167 -12.667 -78.5 -38s-30.5 -54.333 -30.5 -87c0 -24.667 6.5 -46.667 19.5 -66s28.5 -35.833 46.5 -49.5l54.5 -41.5c18.333 -14 34 -32 47 -54s19.5 -47 19.5 -75c0 -55.333 -18.167 -105 -54.5 -149
s-81.5 -66 -135.5 -66c-37.333 0 -70.333 11.667 -99 35l10 80c30 -36 63 -54 99 -54c34.667 0 62.834 14.167 84.501 42.5s32.5 60.166 32.5 95.499c0 22.667 -6.5 43.167 -19.5 61.5s-28.667 34.5 -47 48.5l-55 43c-18.333 14.667 -34 33 -47 55s-19.5 46.667 -19.5 74
c0 52.667 16.333 100 49 142s74.667 63 126 63c36 0 69 -12 99 -36zM164.999 -61.999l-99 -134l-32 21l89 138z" />
    <glyph glyph-name="scedilla" unicode="&#x15f;" horiz-adv-x="243" 
d="M238 425l-6.99805 -68.999c-22 30.667 -45.333 46 -70 46c-18 0 -33 -6.66699 -45 -20s-18 -29.333 -18 -48c0 -16.667 6.16699 -33 18.5 -49s25.666 -29.5 39.999 -40.5s27.666 -26 39.999 -45s18.5 -39.5 18.5 -61.5c0 -38.667 -13 -72.5 -39 -101.5
s-57.667 -43.5 -95 -43.5c-29.333 0 -55.333 10.333 -78 31l7 66c23.333 -29.333 47.666 -44 72.999 -44c20.667 0 38 8 52 24s21 34.333 21 55c0 14 -4 27.667 -12 41s-17.667 25.666 -29 36.999l-34 34.5c-11.333 11.667 -21 25.167 -29 40.5s-12 31.333 -12 48
c0 35.333 11.833 65.5 35.5 90.5s52.834 37.5 87.501 37.5c27.333 0 52.333 -9.66699 75 -29zM115.002 -61.999l-99 -134l-32 21l89 138z" />
    <glyph glyph-name="Scaron" unicode="&#x160;" horiz-adv-x="342" 
d="M336 640l-10.001 -77.999c-26.667 36 -57 54 -91 54c-32 0 -58.167 -12.667 -78.5 -38s-30.5 -54.333 -30.5 -87c0 -24.667 6.5 -46.667 19.5 -66s28.5 -35.833 46.5 -49.5l54.5 -41.5c18.333 -14 34 -32 47 -54s19.5 -47 19.5 -75c0 -55.333 -18.167 -105 -54.5 -149
s-81.5 -66 -135.5 -66c-37.333 0 -70.333 11.667 -99 35l10 80c30 -36 63 -54 99 -54c34.667 0 62.834 14.167 84.501 42.5s32.5 60.166 32.5 95.499c0 22.667 -6.5 43.167 -19.5 61.5s-28.667 34.5 -47 48.5l-55 43c-18.333 14.667 -34 33 -47 55s-19.5 46.667 -19.5 74
c0 52.667 16.333 100 49 142s74.667 63 126 63c36 0 69 -12 99 -36zM359.999 821.001l-126 -107l-96 107l41 38l64 -69l82 69z" />
    <glyph glyph-name="scaron" unicode="&#x161;" horiz-adv-x="243" 
d="M238 425l-6.99805 -68.999c-22 30.667 -45.333 46 -70 46c-18 0 -33 -6.66699 -45 -20s-18 -29.333 -18 -48c0 -16.667 6.16699 -33 18.5 -49s25.666 -29.5 39.999 -40.5s27.666 -26 39.999 -45s18.5 -39.5 18.5 -61.5c0 -38.667 -13 -72.5 -39 -101.5
s-57.667 -43.5 -95 -43.5c-29.333 0 -55.333 10.333 -78 31l7 66c23.333 -29.333 47.666 -44 72.999 -44c20.667 0 38 8 52 24s21 34.333 21 55c0 14 -4 27.667 -12 41s-17.667 25.666 -29 36.999l-34 34.5c-11.333 11.667 -21 25.167 -29 40.5s-12 31.333 -12 48
c0 35.333 11.833 65.5 35.5 90.5s52.834 37.5 87.501 37.5c27.333 0 52.333 -9.66699 75 -29zM295.002 614.001l-126 -107l-96 107l41 38l64 -69l82 69z" />
    <glyph glyph-name="Tcedilla" unicode="&#x162;" horiz-adv-x="261" 
d="M314 667l-7 -57h-99l-75 -610h-61l75 610h-99l7 57h259zM122 -62l-99 -134l-32 21l89 138z" />
    <glyph glyph-name="tcedilla" unicode="&#x163;" horiz-adv-x="196" 
d="M222 447l-6 -52h-74l-49 -395h-55l49 395h-47l6 52h48l15 127h55l-15 -127h73zM107 -62l-99 -134l-32 21l89 138z" />
    <glyph glyph-name="Tcaron" unicode="&#x164;" horiz-adv-x="261" 
d="M307 610l7 57h-259l-7 -57h99l-75 -610h61l75 610h99zM315 821l-126 -107l-96 107l41 38l64 -69l82 69z" />
    <glyph glyph-name="tcaron" unicode="&#x165;" horiz-adv-x="247" 
d="M222 447l-6 -52h-74l-49 -395h-55l49 395h-47l6 52h48l15 127h55l-15 -127h73zM322 668l-106 -186l-37 19l88 195z" />
    <glyph glyph-name="Utilde" unicode="&#x168;" horiz-adv-x="384" 
d="M384 667l-57 -467.001c-7.33301 -56 -15 -94.667 -23 -116c-11.333 -30 -29.666 -53 -54.999 -69s-54.333 -24 -87 -24c-39.333 0 -69 10.833 -89 32.5s-30 52.5 -30 92.5c0 12.667 2.33301 40.667 7 84l58 467h61l-57 -462c-4.66699 -40.667 -7 -66.667 -7 -78
c0 -50.667 21.667 -76 65 -76c9.33301 0 17.666 0.833008 24.999 2.5s14 5 20 10l15.5 13c4.33301 3.66699 8.16602 10 11.499 19s6 15.5 8 19.5s4 11.833 6 23.5s3.33301 18.834 4 21.501s1.83398 10.5 3.50098 23.5s2.5 20.167 2.5 21.5l57 462h61zM324 801.999h56.999
c-4.66699 -22 -13.667 -41.167 -27 -57.5s-30 -24.5 -50 -24.5c-13.333 0 -29.333 5.66699 -48 17s-31 17 -37 17c-11.333 0 -17.666 -8.33301 -18.999 -25h-55c5.33301 22 14.5 40.333 27.5 55s29.833 22 50.5 22c11.333 0 26.333 -5.33301 45 -16s31 -16 37 -16
c10.667 0 17 9.33301 19 28z" />
    <glyph glyph-name="utilde" unicode="&#x169;" horiz-adv-x="327" 
d="M305 447l-40.999 -337.998c-4.66699 -36 -18.5 -64.333 -41.5 -85s-52.5 -31 -88.5 -31c-30.667 0 -55 8.5 -73 25.5s-27 40.833 -27 71.5c0 8.66699 0.333008 15 1 19l41 338h56l-36 -291c-2.66699 -22.667 -4 -39.667 -4 -51c0 -39.333 16.667 -59 50 -59
c14 0 25.667 3 35 9s16.166 14.667 20.499 26s7.5 21.666 9.5 30.999s4 21 6 35c0 2 0.166992 3.66699 0.5 5s0.5 2.66602 0.5 3.99902l36 291h55zM267.001 595.002h56.999c-4.66699 -22 -13.667 -41.167 -27 -57.5s-30 -24.5 -50 -24.5c-13.333 0 -29.333 5.66699 -48 17
s-31 17 -37 17c-11.333 0 -17.666 -8.33301 -18.999 -25h-55c5.33301 22 14.5 40.333 27.5 55s29.833 22 50.5 22c11.333 0 26.333 -5.33301 45 -16s31 -16 37 -16c10.667 0 17 9.33301 19 28z" />
    <glyph glyph-name="Umacron" unicode="&#x16a;" horiz-adv-x="384" 
d="M384 667l-57 -467.001c-7.33301 -56 -15 -94.667 -23 -116c-11.333 -30 -29.666 -53 -54.999 -69s-54.333 -24 -87 -24c-39.333 0 -69 10.833 -89 32.5s-30 52.5 -30 92.5c0 12.667 2.33301 40.667 7 84l58 467h61l-57 -462c-4.66699 -40.667 -7 -66.667 -7 -78
c0 -50.667 21.667 -76 65 -76c9.33301 0 17.666 0.833008 24.999 2.5s14 5 20 10l15.5 13c4.33301 3.66699 8.16602 10 11.499 19s6 15.5 8 19.5s4 11.833 6 23.5s3.33301 18.834 4 21.501s1.83398 10.5 3.50098 23.5s2.5 20.167 2.5 21.5l57 462h61zM365 781.999l-7 -55
h-221l6 55h222z" />
    <glyph glyph-name="umacron" unicode="&#x16b;" horiz-adv-x="327" 
d="M305 447l-40.999 -337.998c-4.66699 -36 -18.5 -64.333 -41.5 -85s-52.5 -31 -88.5 -31c-30.667 0 -55 8.5 -73 25.5s-27 40.833 -27 71.5c0 8.66699 0.333008 15 1 19l41 338h56l-36 -291c-2.66699 -22.667 -4 -39.667 -4 -51c0 -39.333 16.667 -59 50 -59
c14 0 25.667 3 35 9s16.166 14.667 20.499 26s7.5 21.666 9.5 30.999s4 21 6 35c0 2 0.166992 3.66699 0.5 5s0.5 2.66602 0.5 3.99902l36 291h55zM316.001 575.002l-7 -55h-221l6 55h222z" />
    <glyph glyph-name="Ubreve" unicode="&#x16c;" horiz-adv-x="384" 
d="M384 667l-57 -467.001c-7.33301 -56 -15 -94.667 -23 -116c-11.333 -30 -29.666 -53 -54.999 -69s-54.333 -24 -87 -24c-39.333 0 -69 10.833 -89 32.5s-30 52.5 -30 92.5c0 12.667 2.33301 40.667 7 84l58 467h61l-57 -462c-4.66699 -40.667 -7 -66.667 -7 -78
c0 -50.667 21.667 -76 65 -76c9.33301 0 17.666 0.833008 24.999 2.5s14 5 20 10l15.5 13c4.33301 3.66699 8.16602 10 11.499 19s6 15.5 8 19.5s4 11.833 6 23.5s3.33301 18.834 4 21.501s1.83398 10.5 3.50098 23.5s2.5 20.167 2.5 21.5l57 462h61zM331 809.999h47
c-6.66699 -30 -22.334 -52.833 -47.001 -68.5s-53 -23.5 -85 -23.5c-31.333 0 -57.666 7.66699 -78.999 23s-32 38.333 -32 69h48c6.66699 -27.333 29.667 -41 69 -41c38 0 64.333 13.667 79 41z" />
    <glyph glyph-name="ubreve" unicode="&#x16d;" horiz-adv-x="327" 
d="M305 447l-40.999 -337.998c-4.66699 -36 -18.5 -64.333 -41.5 -85s-52.5 -31 -88.5 -31c-30.667 0 -55 8.5 -73 25.5s-27 40.833 -27 71.5c0 8.66699 0.333008 15 1 19l41 338h56l-36 -291c-2.66699 -22.667 -4 -39.667 -4 -51c0 -39.333 16.667 -59 50 -59
c14 0 25.667 3 35 9s16.166 14.667 20.499 26s7.5 21.666 9.5 30.999s4 21 6 35c0 2 0.166992 3.66699 0.5 5s0.5 2.66602 0.5 3.99902l36 291h55zM280.001 599.002h47c-6.66699 -30 -22.334 -52.833 -47.001 -68.5s-53 -23.5 -85 -23.5
c-31.333 0 -57.666 7.66699 -78.999 23s-32 38.333 -32 69h48c6.66699 -27.333 29.667 -41 69 -41c38 0 64.333 13.667 79 41z" />
    <glyph glyph-name="Uring" unicode="&#x16e;" horiz-adv-x="384" 
d="M384 667l-57 -467.001c-7.33301 -56 -15 -94.667 -23 -116c-11.333 -30 -29.666 -53 -54.999 -69s-54.333 -24 -87 -24c-39.333 0 -69 10.833 -89 32.5s-30 52.5 -30 92.5c0 12.667 2.33301 40.667 7 84l58 467h61l-57 -462c-4.66699 -40.667 -7 -66.667 -7 -78
c0 -50.667 21.667 -76 65 -76c9.33301 0 17.666 0.833008 24.999 2.5s14 5 20 10l15.5 13c4.33301 3.66699 8.16602 10 11.499 19s6 15.5 8 19.5s4 11.833 6 23.5s3.33301 18.834 4 21.501s1.83398 10.5 3.50098 23.5s2.5 20.167 2.5 21.5l57 462h61zM334 793.999
c0 -22 -7.66699 -40.833 -23 -56.5s-34 -23.5 -56 -23.5s-40.667 7.83301 -56 23.5s-23 34.5 -23 56.5s7.66699 40.833 23 56.5s34 23.5 56 23.5s40.667 -7.83301 56 -23.5s23 -34.5 23 -56.5zM294 793.999c0 11.333 -3.83105 20.833 -11.498 28.5
s-16.834 11.5 -27.501 11.5c-11.333 0 -20.833 -4 -28.5 -12s-11.5 -17.333 -11.5 -28s3.83301 -20 11.5 -28s17.167 -12 28.5 -12s20.666 3.83301 27.999 11.5s11 17.167 11 28.5z" />
    <glyph glyph-name="uring" unicode="&#x16f;" horiz-adv-x="327" 
d="M305 447l-40.999 -337.998c-4.66699 -36 -18.5 -64.333 -41.5 -85s-52.5 -31 -88.5 -31c-30.667 0 -55 8.5 -73 25.5s-27 40.833 -27 71.5c0 8.66699 0.333008 15 1 19l41 338h56l-36 -291c-2.66699 -22.667 -4 -39.667 -4 -51c0 -39.333 16.667 -59 50 -59
c14 0 25.667 3 35 9s16.166 14.667 20.499 26s7.5 21.666 9.5 30.999s4 21 6 35c0 2 0.166992 3.66699 0.5 5s0.5 2.66602 0.5 3.99902l36 291h55zM279.001 587.002c0 -22 -7.66699 -40.833 -23 -56.5s-34 -23.5 -56 -23.5s-40.667 7.83301 -56 23.5s-23 34.5 -23 56.5
s7.66699 40.833 23 56.5s34 23.5 56 23.5s40.667 -7.83301 56 -23.5s23 -34.5 23 -56.5zM239.001 587.002c0 11.333 -3.83105 20.833 -11.498 28.5s-16.834 11.5 -27.501 11.5s-20 -3.83301 -28 -11.5s-12 -17.167 -12 -28.5s4 -20.833 12 -28.5s17.333 -11.5 28 -11.5
c11.333 0 20.666 3.83301 27.999 11.5s11 17.167 11 28.5z" />
    <glyph glyph-name="Uhungarumlaut" unicode="&#x170;" horiz-adv-x="384" 
d="M384 667l-57 -467.001c-7.33301 -56 -15 -94.667 -23 -116c-11.333 -30 -29.666 -53 -54.999 -69s-54.333 -24 -87 -24c-39.333 0 -69 10.833 -89 32.5s-30 52.5 -30 92.5c0 12.667 2.33301 40.667 7 84l58 467h61l-57 -462c-4.66699 -40.667 -7 -66.667 -7 -78
c0 -50.667 21.667 -76 65 -76c9.33301 0 17.666 0.833008 24.999 2.5s14 5 20 10l15.5 13c4.33301 3.66699 8.16602 10 11.499 19s6 15.5 8 19.5s4 11.833 6 23.5s3.33301 18.834 4 21.501s1.83398 10.5 3.50098 23.5s2.5 20.167 2.5 21.5l57 462h61zM387 829.999l-83 -116
l-35 13l65 125zM286 829.999l-83 -116l-35 13l65 125z" />
    <glyph glyph-name="uhungarumlaut" unicode="&#x171;" horiz-adv-x="327" 
d="M305 447l-40.999 -337.998c-4.66699 -36 -18.5 -64.333 -41.5 -85s-52.5 -31 -88.5 -31c-30.667 0 -55 8.5 -73 25.5s-27 40.833 -27 71.5c0 8.66699 0.333008 15 1 19l41 338h56l-36 -291c-2.66699 -22.667 -4 -39.667 -4 -51c0 -39.333 16.667 -59 50 -59
c14 0 25.667 3 35 9s16.166 14.667 20.499 26s7.5 21.666 9.5 30.999s4 21 6 35c0 2 0.166992 3.66699 0.5 5s0.5 2.66602 0.5 3.99902l36 291h55zM335.001 623.002l-83 -116l-35 13l65 125zM234.001 623.002l-83 -116l-35 13l65 125z" />
    <glyph glyph-name="Uogonek" unicode="&#x172;" horiz-adv-x="384" 
d="M384 667l-60.001 -489.001c-6 -43.333 -11.667 -73.333 -17 -90c-10 -27.333 -27.667 -52.666 -53 -75.999c-29.333 -26.667 -45.333 -42 -48 -46c-12 -14.667 -18 -29 -18 -43c0 -7.33301 2 -13 6 -17c6 -6 15.667 -9 29 -9c10 0 22.667 2.66699 38 8l-5 -48
c-14 -6 -29 -9 -45 -9c-20.667 0 -37.667 4.33301 -51 13c-15.333 9.33301 -23 24.666 -23 45.999c0 26 13.667 54.333 41 85c-4 -1.33301 -10.667 -2 -20 -2c-34 0 -62 11 -84 33c-20.667 20.667 -31 51.334 -31 92.001c0 12 1.66699 34.667 5 68l60 484h61l-59 -478
c-3.33301 -24.667 -5 -44.667 -5 -60c0 -28.667 6 -49 18 -61c10.667 -11.333 26.334 -17 47.001 -17c25.333 0 44 7 56 21c17.333 18.667 30 58 38 118l59 477h61z" />
    <glyph glyph-name="uogonek" unicode="&#x173;" horiz-adv-x="327" 
d="M305 447l-41.001 -337.998c-3.33301 -26 -8.33301 -45.5 -15 -58.5s-17.334 -27.167 -32.001 -42.5c-25.333 -25.333 -40.333 -41.333 -45 -48c-8.66699 -12 -13 -23.667 -13 -35c0 -8 2 -14 6 -18c6 -6 15 -9 27 -9c10 0 23 2.66699 39 8l-5 -47
c-14 -6 -28.667 -9 -44 -9c-20.667 0 -37.667 4.33301 -51 13c-15.333 9.33301 -23 23.666 -23 42.999c0 28.667 14 57.667 42 87c-41.333 0 -70.666 8 -87.999 24c-18.667 17.333 -28 42.333 -28 75c0 5.33301 0.333008 11.166 1 17.499s1.5 13 2.5 20l2.5 17.5l36 300h56
l-36 -291c-2.66699 -22.667 -4 -39.667 -4 -51c0 -22 4.66699 -37.667 14 -47c8 -8 20 -12 36 -12c18.667 0 33.334 5.66699 44.001 17c12.667 13.333 21.667 42 27 86l37 298h55z" />
    <glyph glyph-name="Ydieresis" unicode="&#x178;" horiz-adv-x="315" 
d="M367 667l-168 -378.001l-35 -289h-61l35 289l-83 378h66l38 -191c9.33301 -48.667 15 -89.667 17 -123c12 38.667 26.667 79.334 44 122.001l81 192h66zM323 768.999c0 -12.667 -4.83398 -24.002 -14.501 -34.002s-21.167 -15 -34.5 -15
c-10.667 0 -19.5 3.83301 -26.5 11.5s-10.5 16.834 -10.5 27.501c0 12.667 4.83301 23.834 14.5 33.501s20.834 14.5 33.501 14.5c11.333 0 20.5 -3.5 27.5 -10.5s10.5 -16.167 10.5 -27.5zM196.999 768.997c0 -12.667 -4.83398 -24.002 -14.501 -34.002
s-21.167 -15 -34.5 -15c-10.667 0 -19.5 3.83301 -26.5 11.5s-10.5 16.834 -10.5 27.501c0 12.667 4.83301 23.834 14.5 33.501s20.834 14.5 33.501 14.5c11.333 0 20.5 -3.5 27.5 -10.5s10.5 -16.167 10.5 -27.5z" />
    <glyph glyph-name="Zacute" unicode="&#x179;" horiz-adv-x="275" 
d="M321 667l-259 -610h166l-7 -57h-241l257 610h-165l7 57h242zM317 817l-126 -103l-32 26l110 120z" />
    <glyph glyph-name="zacute" unicode="&#x17a;" horiz-adv-x="267" 
d="M290 447l-227 -395h149l-6 -52h-229l222 395h-150l6 52h235zM296 610l-126 -103l-32 26l110 120z" />
    <glyph glyph-name="Zdotaccent" unicode="&#x17b;" horiz-adv-x="275" 
d="M321 667l-259 -610h166l-7 -57h-241l257 610h-165l7 57h242zM252 771c0 -13.333 -5.16504 -25.166 -15.498 -35.499s-22.166 -15.5 -35.499 -15.5c-10.667 0 -19.834 3.83301 -27.501 11.5s-11.5 17.167 -11.5 28.5c0 13.333 5.16699 25.166 15.5 35.499
s22.166 15.5 35.499 15.5c11.333 0 20.666 -3.83301 27.999 -11.5s11 -17.167 11 -28.5z" />
    <glyph glyph-name="zdotaccent" unicode="&#x17c;" horiz-adv-x="267" 
d="M290 447l-227 -395h149l-6 -52h-229l222 395h-150l6 52h235zM224 564c0 -13.333 -5.16504 -25.166 -15.498 -35.499s-22.166 -15.5 -35.499 -15.5c-10.667 0 -19.834 3.83301 -27.501 11.5s-11.5 17.167 -11.5 28.5c0 13.333 5.16699 25.166 15.5 35.499
s22.166 15.5 35.499 15.5c11.333 0 20.666 -3.83301 27.999 -11.5s11 -17.167 11 -28.5z" />
    <glyph glyph-name="Zcaron" unicode="&#x17d;" horiz-adv-x="275" 
d="M321 667l-259 -610h166l-7 -57h-241l257 610h-165l7 57h242zM315 821l-126 -107l-96 107l41 38l64 -69l82 69z" />
    <glyph glyph-name="zcaron" unicode="&#x17e;" horiz-adv-x="267" 
d="M290 447l-227 -395h149l-6 -52h-229l222 395h-150l6 52h235zM300 614l-126 -107l-96 107l41 38l64 -69l82 69z" />
    <glyph glyph-name="uni018F" unicode="&#x18f;" horiz-adv-x="387" 
d="M63 352l235 0.000976562c6.66699 42 10 83.333 10 124c0 51.333 -6.66699 87.333 -20 108c-13.333 21.333 -32.333 32 -57 32c-22 0 -40 -8 -54 -24c-16 -16.667 -27.667 -40.334 -35 -71.001l-58 24c14 40 33.333 72 58 96c24 23.333 54.667 35 92 35
c46 0 81 -17.667 105 -53c21.333 -31.333 32 -77.333 32 -138c0 -36.667 -3.66699 -86.667 -11 -150s-16 -115.333 -26 -156c-17.333 -72.667 -42 -123.334 -74 -152.001c-26.667 -24 -59.667 -36 -99 -36c-36.667 0 -64.667 11 -84 33c-23.333 25.333 -35 67 -35 125
c0 44.667 7 112.334 21 203.001zM290 295.001h-171.999c-10 -56.667 -15 -104.667 -15 -144c0 -33.333 6 -58.333 18 -75s28 -25 48 -25c20.667 0 38 6 52 18c19.333 16 34.666 47.333 45.999 94c8 32 15.667 76 23 132z" />
    <glyph glyph-name="florin" unicode="&#x192;" horiz-adv-x="366" 
d="M364 729l-9.99707 -59c-12.667 11.333 -25.334 17 -38.001 17c-10.667 0 -19.5 -3.5 -26.5 -10.5s-11.5 -13.5 -13.5 -19.5s-4.33301 -15.667 -7 -29l-36 -181h77l-9 -42h-76l-83 -424c-7.33301 -36.667 -18.333 -64.834 -33 -84.501s-38.334 -29.5 -71.001 -29.5
c-14 0 -30.667 3.66699 -50 11l11 59c12.667 -11.333 25.667 -17 39 -17c23.333 0 38.666 19.667 45.999 59l84 426h-73l8 42h73l35 179c7.33301 36.667 18 64.834 32 84.501s37.667 29.5 71 29.5c19.333 0 36 -3.66699 50 -11z" />
    <glyph glyph-name="uni01CF" unicode="&#x1cf;" horiz-adv-x="169" 
d="M169 667l-82 -667h-61l82 667h61zM265 821l-126 -107l-96 107l41 38l64 -69l82 69z" />
    <glyph glyph-name="uni01D0" unicode="&#x1d0;" horiz-adv-x="154" 
d="M131 447l-54 -447h-56l55 447h55zM236 614l-126 -107l-96 107l41 38l64 -69l82 69z" />
    <glyph glyph-name="uni01DD" unicode="&#x1dd;" horiz-adv-x="314" 
d="M36 235l189.002 -0.000976562c3.33301 21.333 5 44.666 5 69.999c0 38.667 -6.66699 65.334 -20 80.001c-10 10.667 -22 16 -36 16c-16 0 -29.333 -5.66699 -40 -17c-16.667 -16.667 -29.334 -42.667 -38.001 -78l-53 22c9.33301 37.333 26.666 68.333 51.999 93
c22.667 22 51 33 85 33c30.667 0 55 -9 73 -27c22 -22 33 -60.333 33 -115c0 -56.667 -5.66699 -110 -17 -160c-12 -54.667 -31.667 -96 -59 -124c-23.333 -23.333 -50.333 -35 -81 -35c-24.667 0 -45.667 8.33301 -63 25c-25.333 24.667 -38 67.334 -38 128.001
c0 27.333 2.66699 57 8 89zM218.002 186.999l-133 -0.000976562c-4 -65.333 1.66699 -107.666 17 -126.999c7.33301 -10 17.666 -15 30.999 -15s25.333 5 36 15s20 25.5 28 46.5s13.333 37.667 16 50s4.33398 22.5 5.00098 30.5z" />
    <glyph glyph-name="Gcaron" unicode="&#x1e6;" horiz-adv-x="368" 
d="M369 550l-63 -24c-2.66699 60 -23.334 90 -62.001 90c-52 0 -88.667 -50 -110 -150c-21.333 -94.667 -32 -190.334 -32 -287.001c0 -16.667 0.666992 -30.667 2 -42s4 -24.5 8 -39.5s11.167 -26.5 21.5 -34.5s23.5 -12 39.5 -12c32 0 55.667 16.333 71 49
c4.66699 10 9.16699 24.667 13.5 44s7.33301 35.333 9 48s4 32.5 7 59.5s4.5 41.5 4.5 43.5h-89l7 57h150l-16 -134c-5.33301 -42.667 -11 -75 -17 -97c-10.667 -39.333 -29 -70.833 -55 -94.5s-58.333 -35.5 -97 -35.5c-80.667 0 -121 56.333 -121 169
c0 132.667 13.667 248.334 41 347.001c13.333 48.667 33.833 89 61.5 121s64.167 48 109.5 48c38 0 65.833 -11 83.5 -33s28.834 -53 33.501 -93zM380 821l-126 -107l-96 107l41 38l64 -69l82 69z" />
    <glyph glyph-name="gcaron" unicode="&#x1e7;" horiz-adv-x="326" 
d="M304 447l-58 -476c-0.666992 -2.66699 -1.5 -8.5 -2.5 -17.5s-1.66699 -15.167 -2 -18.5s-1.33301 -8.5 -3 -15.5s-3.16699 -12.667 -4.5 -17s-3.5 -9.33301 -6.5 -15s-6.16699 -11.167 -9.5 -16.5c-20.667 -34 -56.334 -51 -107.001 -51c-66 0 -99 33.667 -99 101
c0 9.33301 1.33301 22.666 4 39.999h55c-1.33301 -12 -2 -21.667 -2 -29c0 -39.333 17.333 -59 52 -59c16.667 0 30.167 4.66699 40.5 14s17 19.333 20 30s5.5 25 7.5 43c0.666992 8 1.83398 19.833 3.50098 35.5s3.16699 27.834 4.5 36.501
c-22.667 -21.333 -47.667 -32 -75 -32c-60 -0 -90 43.333 -90 130c0 29.333 1.66699 59.5 5 90.5s9.5 65.667 18.5 104s23.833 69.5 44.5 93.5s46 36 76 36c28 0 51 -12.667 69 -38l4 31h55zM234 321c0 58 -16.999 87.002 -50.999 87.002
c-14.667 0 -27.167 -5.33301 -37.5 -16s-17.5 -21.334 -21.5 -32.001s-8 -24.334 -12 -41.001c-15.333 -64.667 -23 -125.667 -23 -183c0 -60 17.333 -90 52 -90c12.667 0 23.5 3.16699 32.5 9.5s16.167 16 21.5 29s9.16602 23.5 11.499 31.5s4.83301 19.333 7.5 34
c13.333 68 20 125 20 171zM315.001 614.002l-126 -107l-96 107l41 38l64 -69l82 69z" />
    <glyph glyph-name="AEacute" unicode="&#x1fc;" horiz-adv-x="455" 
d="M436 0h-204l-5 137h-149l-40 -137h-65l211 667h219l3 -57h-141l13 -235h133l3 -57h-133l15 -261h138zM225 190l-12 282.001c-0.666992 0 -1 20.667 -1 62l1 61c-10.667 -42.667 -21.667 -83.334 -33 -122.001l-85 -283h130zM388 817.001l-126 -103l-32 26l110 120z" />
    <glyph glyph-name="aeacute" unicode="&#x1fd;" horiz-adv-x="500" 
d="M76 366l6.99902 62.001c28 17.333 55.667 26 83 26c53.333 0 88.333 -25 105 -75c10 20.667 24.167 38.334 42.5 53.001s38.166 22 59.499 22c25.333 0 45.833 -9.33301 61.5 -28s25.834 -39 30.501 -61s7 -45.667 7 -71c0 -17.333 -2 -44 -6 -80h-194
c-2.66699 -24 -4 -41.667 -4 -53c0 -77.333 20 -116 60 -116c37.333 0 61.333 36.667 72 110h52c-6.66699 -42.667 -21.5 -80.334 -44.5 -113.001s-53.5 -49 -91.5 -49c-39.333 0 -67.333 24.667 -84 74c-12 -22 -28.167 -39.833 -48.5 -53.5s-42.5 -20.5 -66.5 -20.5
c-34 0 -58.5 11.667 -73.5 35s-22.5 53 -22.5 89c0 28.667 4.16699 56.167 12.5 82.5s22.833 49.333 43.5 69s45.667 29.5 75 29.5c32.667 0 57.334 -12.333 74.001 -37c2.66699 21.333 4 37.666 4 48.999c0 26 -5.83301 47.833 -17.5 65.5s-30.167 26.5 -55.5 26.5
c-22 0 -49 -12 -81 -36zM279.999 261.001l136 0.000976562c0 2.66699 0.333008 6.66699 1 12s1.16699 10 1.5 14s0.5 8 0.5 12c0 15.333 -1.16699 29.833 -3.5 43.5s-8 27 -17 40s-20.833 19.5 -35.5 19.5c-24 0 -43.167 -15.833 -57.5 -47.5s-22.833 -62.834 -25.5 -93.501
zM213.999 167.002c0 56.667 -19 85 -57 85c-28.667 0 -49.5 -13.5 -62.5 -40.5s-19.5 -56.833 -19.5 -89.5c0 -50.667 18.667 -76 56 -76c27.333 0 48 12.667 62 38s21 53 21 83zM409.999 610.002l-126 -103l-32 26l110 120z" />
    <glyph glyph-name="Scommaaccent" unicode="&#x218;" horiz-adv-x="342" 
d="M336 640l-10.001 -77.999c-26.667 36 -57 54 -91 54c-32 0 -58.167 -12.667 -78.5 -38s-30.5 -54.333 -30.5 -87c0 -24.667 6.5 -46.667 19.5 -66s28.5 -35.833 46.5 -49.5l54.5 -41.5c18.333 -14 34 -32 47 -54s19.5 -47 19.5 -75c0 -55.333 -18.167 -105 -54.5 -149
s-81.5 -66 -135.5 -66c-37.333 0 -70.333 11.667 -99 35l10 80c30 -36 63 -54 99 -54c34.667 0 62.834 14.167 84.501 42.5s32.5 60.166 32.5 95.499c0 22.667 -6.5 43.167 -19.5 61.5s-28.667 34.5 -47 48.5l-55 43c-18.333 14.667 -34 33 -47 55s-19.5 46.667 -19.5 74
c0 52.667 16.333 100 49 142s74.667 63 126 63c36 0 69 -12 99 -36zM169.999 -76.999l-91 -154l-37 19l73 163z" />
    <glyph glyph-name="scommaaccent" unicode="&#x219;" horiz-adv-x="243" 
d="M238 425l-6.99805 -68.999c-22 30.667 -45.333 46 -70 46c-18 0 -33 -6.66699 -45 -20s-18 -29.333 -18 -48c0 -16.667 6.16699 -33 18.5 -49s25.666 -29.5 39.999 -40.5s27.666 -26 39.999 -45s18.5 -39.5 18.5 -61.5c0 -38.667 -13 -72.5 -39 -101.5
s-57.667 -43.5 -95 -43.5c-29.333 0 -55.333 10.333 -78 31l7 66c23.333 -29.333 47.666 -44 72.999 -44c20.667 0 38 8 52 24s21 34.333 21 55c0 14 -4 27.667 -12 41s-17.667 25.666 -29 36.999l-34 34.5c-11.333 11.667 -21 25.167 -29 40.5s-12 31.333 -12 48
c0 35.333 11.833 65.5 35.5 90.5s52.834 37.5 87.501 37.5c27.333 0 52.333 -9.66699 75 -29zM132.002 -76.999l-91 -154l-37 19l73 163z" />
    <glyph glyph-name="Tcommaaccent" unicode="&#x21a;" horiz-adv-x="261" 
d="M314 667l-7 -57h-99l-75 -610h-61l75 610h-99l7 57h259zM127 -77l-91 -154l-37 19l73 163z" />
    <glyph glyph-name="tcommaaccent" unicode="&#x21b;" horiz-adv-x="196" 
d="M222 447l-6 -52h-74l-49 -395h-55l49 395h-47l6 52h48l15 127h55l-15 -127h73zM92 -77l-91 -154l-37 19l73 163z" />
    <glyph glyph-name="uni0228" unicode="&#x228;" horiz-adv-x="297" 
d="M313 667l-7 -57h-144l-29 -235h140l-6 -57h-141l-32 -261h144l-7 -57h-205l82 667h205zM166 -62l-99 -134l-32 21l89 138z" />
    <glyph glyph-name="uni0229" unicode="&#x229;" horiz-adv-x="308" 
d="M207 152l56.001 -0.000976562c-6.66699 -44 -20.334 -81.5 -41.001 -112.5s-50.667 -46.5 -90 -46.5c-69.333 0 -104 53.333 -104 160c0 44 4.33301 85.333 13 124c5.33301 27.333 13.333 53.333 24 78s26.667 47.334 48 68.001s45.333 31 72 31c64 0 96 -51.667 96 -155
c0 -27.333 -2.66699 -56.333 -8 -87h-185c-3.33301 -22 -5 -41.667 -5 -59c0 -71.333 18 -107 54 -107c12 0 22.333 3.33301 31 10s15.5 16.5 20.5 29.5s8.66699 24 11 33s4.83301 20.167 7.5 33.5zM94.001 259.999h131c1.33301 21.333 2 38.333 2 51
c0 60.667 -15.667 91 -47 91c-42 0 -70.667 -47.333 -86 -142zM171.001 -62.001l-99 -134l-32 21l89 138z" />
    <glyph glyph-name="uni0237" unicode="&#x237;" horiz-adv-x="158" 
d="M136 447l-77 -627h-56l77 627h56z" />
    <glyph glyph-name="uni0259" unicode="&#x259;" horiz-adv-x="314" 
d="M36 235l189.002 -0.000976562c3.33301 21.333 5 44.666 5 69.999c0 38.667 -6.66699 65.334 -20 80.001c-10 10.667 -22 16 -36 16c-16 0 -29.333 -5.66699 -40 -17c-16.667 -16.667 -29.334 -42.667 -38.001 -78l-53 22c9.33301 37.333 26.666 68.333 51.999 93
c22.667 22 51 33 85 33c30.667 0 55 -9 73 -27c22 -22 33 -60.333 33 -115c0 -56.667 -5.66699 -110 -17 -160c-12 -54.667 -31.667 -96 -59 -124c-23.333 -23.333 -50.333 -35 -81 -35c-24.667 0 -45.667 8.33301 -63 25c-25.333 24.667 -38 67.334 -38 128.001
c0 27.333 2.66699 57 8 89zM218.002 186.999l-133 -0.000976562c-4 -65.333 1.66699 -107.666 17 -126.999c7.33301 -10 17.666 -15 30.999 -15s25.333 5 36 15s20 25.5 28 46.5s13.333 37.667 16 50s4.33398 22.5 5.00098 30.5z" />
    <glyph glyph-name="afii57929" unicode="&#x2bc;" horiz-adv-x="194" 
d="M212 648l-106 -186l-37 19l88 195z" />
    <glyph glyph-name="circumflex" unicode="&#x2c6;" 
d="M396 545l-44 -38l-64 69l-82 -69l-32 38l123 107z" />
    <glyph glyph-name="caron" unicode="&#x2c7;" 
d="M405 614l-126 -107l-96 107l41 38l64 -69l82 69z" />
    <glyph glyph-name="uni02C9" unicode="&#x2c9;" 
d="M400 575l-7 -55h-221l6 55h222z" />
    <glyph glyph-name="breve" unicode="&#x2d8;" 
d="M366 599h47c-6.66699 -30 -22.334 -52.833 -47.001 -68.5s-53 -23.5 -85 -23.5c-31.333 0 -57.666 7.66699 -78.999 23s-32 38.333 -32 69h48c6.66699 -27.333 29.667 -41 69 -41c38 0 64.333 13.667 79 41z" />
    <glyph glyph-name="dotaccent" unicode="&#x2d9;" 
d="M332 564c0 -13.333 -5.16504 -25.166 -15.498 -35.499s-22.166 -15.5 -35.499 -15.5c-10.667 0 -19.834 3.83301 -27.501 11.5s-11.5 17.167 -11.5 28.5c0 13.333 5.16699 25.166 15.5 35.499s22.166 15.5 35.499 15.5c11.333 0 20.666 -3.83301 27.999 -11.5
s11 -17.167 11 -28.5z" />
    <glyph glyph-name="ring" unicode="&#x2da;" horiz-adv-x="492" 
d="M369 587c0 -22 -7.66699 -40.833 -23 -56.5s-34 -23.5 -56 -23.5s-40.667 7.83301 -56 23.5s-23 34.5 -23 56.5s7.66699 40.833 23 56.5s34 23.5 56 23.5s40.667 -7.83301 56 -23.5s23 -34.5 23 -56.5zM329 587c0 11.333 -3.83105 20.833 -11.498 28.5
s-16.834 11.5 -27.501 11.5s-20 -3.83301 -28 -11.5s-12 -17.167 -12 -28.5s4 -20.833 12 -28.5s17.333 -11.5 28 -11.5c11.333 0 20.666 3.83301 27.999 11.5s11 17.167 11 28.5z" />
    <glyph glyph-name="ogonek" unicode="&#x2db;" 
d="M288 -95l-5 -47.999c-14 -6 -29 -9 -45 -9c-21.333 0 -38.333 4.33301 -51 13c-15.333 9.33301 -23 23.666 -23 42.999c0 16 6 34.667 18 56l29 40h45l-26 -36c-10 -15.333 -15 -29 -15 -41c0 -7.33301 2 -13 6 -17c6 -6 15.667 -9 29 -9c10 0 22.667 2.66699 38 8z" />
    <glyph glyph-name="tilde" unicode="&#x2dc;" 
d="M348 595h56.999c-4.66699 -22 -13.667 -41.167 -27 -57.5s-30 -24.5 -50 -24.5c-13.333 0 -29.333 5.66699 -48 17s-31 17 -37 17c-11.333 0 -17.666 -8.33301 -18.999 -25h-55c5.33301 22 14.5 40.333 27.5 55s29.833 22 50.5 22c11.333 0 26.333 -5.33301 45 -16
s31 -16 37 -16c10.667 0 17 9.33301 19 28z" />
    <glyph glyph-name="hungarumlaut" unicode="&#x2dd;" 
d="M431 623l-83 -116l-35 13l65 125zM330 623l-83 -116l-35 13l65 125z" />
    <glyph glyph-name="acutecomb" unicode="&#x301;" horiz-adv-x="2" 
d="M-14 610l-126 -103l-32 26l110 120z" />
    <glyph glyph-name="uni0394" unicode="&#x394;" horiz-adv-x="667" 
d="M608 0h-605l272 667h59zM528 51l-223 549l-223 -549h446z" />
    <glyph glyph-name="uni0394" unicode="&#x2206;" horiz-adv-x="667" 
d="M608 0h-605l272 667h59zM528 51l-223 549l-223 -549h446z" />
    <glyph glyph-name="uni03A9" unicode="&#x3a9;" horiz-adv-x="667" 
d="M632 0h-259v46c134.667 72.667 202 176 202 310c0 74 -23.167 138.667 -69.5 194s-105.5 83 -177.5 83c-74.667 0 -135 -27.5 -181 -82.5s-69 -120.167 -69 -195.5c0 -130 67.333 -233 202 -309v-46h-259v50h193c-128 72.667 -192 176.334 -192 311.001
c0 88.667 28.667 164.5 86 227.5s130 94.5 218 94.5s160.833 -31.5 218.5 -94.5s86.5 -138.833 86.5 -227.5c0 -134.667 -64 -238.334 -192 -311.001h193v-50z" />
    <glyph glyph-name="uni03A9" unicode="&#x2126;" horiz-adv-x="667" 
d="M632 0h-259v46c134.667 72.667 202 176 202 310c0 74 -23.167 138.667 -69.5 194s-105.5 83 -177.5 83c-74.667 0 -135 -27.5 -181 -82.5s-69 -120.167 -69 -195.5c0 -130 67.333 -233 202 -309v-46h-259v50h193c-128 72.667 -192 176.334 -192 311.001
c0 88.667 28.667 164.5 86 227.5s130 94.5 218 94.5s160.833 -31.5 218.5 -94.5s86.5 -138.833 86.5 -227.5c0 -134.667 -64 -238.334 -192 -311.001h193v-50z" />
    <glyph glyph-name="pi" unicode="&#x3c0;" horiz-adv-x="556" 
d="M531 396h-72v-396h-57v396h-246v-396h-57v396h-74v51h506v-51z" />
    <glyph glyph-name="afii10023" unicode="&#x401;" horiz-adv-x="297" 
d="M313 667l-7 -57h-144l-29 -235h140l-6 -57h-141l-32 -261h144l-7 -57h-205l82 667h205zM203 759c0 -12.667 -4.83398 -24.002 -14.501 -34.002s-21.167 -15 -34.5 -15c-10.667 0 -19.5 3.83301 -26.5 11.5s-10.5 16.834 -10.5 27.501
c0 12.667 4.83301 23.834 14.5 33.501s20.834 14.5 33.501 14.5c11.333 0 20.5 -3.5 27.5 -10.5s10.5 -16.167 10.5 -27.5zM324.999 758.998c0 -12.667 -4.83398 -24.002 -14.501 -34.002s-21.167 -15 -34.5 -15c-10.667 0 -19.5 3.83301 -26.5 11.5
s-10.5 16.834 -10.5 27.501c0 12.667 4.83301 23.834 14.5 33.501s20.834 14.5 33.501 14.5c11.333 0 20.5 -3.5 27.5 -10.5s10.5 -16.167 10.5 -27.5z" />
    <glyph glyph-name="afii10051" unicode="&#x402;" horiz-adv-x="407" 
d="M61 0l75.002 610.003h-88l7 57h273l-7 -57h-124l-27 -221c19.333 10.667 42 16 68 16c42.667 0 76 -13.333 100 -40c26 -28.667 39 -71.334 39 -128.001c0 -38 -5.33301 -77.667 -16 -119s-27.334 -73 -50.001 -95c-24.667 -23.333 -54.334 -35 -89.001 -35
c-26.667 0 -50.667 7.66699 -72 23l26 59c14 -14.667 30.333 -22 49 -22c16 0 30 6 42 18c14 13.333 25.167 37.166 33.5 71.499s12.5 66.166 12.5 95.499c0 40.667 -8.66699 70.667 -26 90c-14.667 16.667 -35 25 -61 25c-22 0 -43 -6.33301 -63 -19l-41 -329h-61z" />
    <glyph glyph-name="afii10052" unicode="&#x403;" horiz-adv-x="291" 
d="M317 667l-7 -57h-148l-75 -610h-61l82 667h209zM347 817l-126 -103l-32 26l110 120z" />
    <glyph glyph-name="afii10053" unicode="&#x404;" horiz-adv-x="319" 
d="M288 96l-8.00391 -72c-25.333 -22 -57.666 -33 -96.999 -33c-36 0 -65.667 12 -89 36c-35.333 37.333 -53 106.666 -53 207.999c0 74.667 8 144.667 24 210c20 80 46.667 138.667 80 176c32.667 36.667 72.667 55 120 55c32.667 0 62.334 -10.667 89.001 -32l-10 -71
c-23.333 28.667 -49.666 43 -78.999 43c-27.333 0 -51 -10 -71 -30c-20.667 -20.667 -37.5 -51.5 -50.5 -92.5s-21.833 -80.5 -26.5 -118.5h168l-7 -57h-169c-2.66699 -50.667 -4 -83 -4 -97c0 -67.333 10.333 -114.666 31 -141.999c14 -18.667 34 -28 60 -28
c34.667 0 65.334 15 92.001 45z" />
    <glyph glyph-name="afii10054" unicode="&#x405;" horiz-adv-x="342" 
d="M336 640l-10.001 -77.999c-26.667 36 -57 54 -91 54c-32 0 -58.167 -12.667 -78.5 -38s-30.5 -54.333 -30.5 -87c0 -24.667 6.5 -46.667 19.5 -66s28.5 -35.833 46.5 -49.5l54.5 -41.5c18.333 -14 34 -32 47 -54s19.5 -47 19.5 -75c0 -55.333 -18.167 -105 -54.5 -149
s-81.5 -66 -135.5 -66c-37.333 0 -70.333 11.667 -99 35l10 80c30 -36 63 -54 99 -54c34.667 0 62.834 14.167 84.501 42.5s32.5 60.166 32.5 95.499c0 22.667 -6.5 43.167 -19.5 61.5s-28.667 34.5 -47 48.5l-55 43c-18.333 14.667 -34 33 -47 55s-19.5 46.667 -19.5 74
c0 52.667 16.333 100 49 142s74.667 63 126 63c36 0 69 -12 99 -36z" />
    <glyph glyph-name="afii10055" unicode="&#x406;" horiz-adv-x="169" 
d="M169 667l-82 -667h-61l82 667h61z" />
    <glyph glyph-name="afii10056" unicode="&#x407;" horiz-adv-x="169" 
d="M169 667l-82 -667h-61l82 667h61zM221 769c0 -12.667 -3.33301 -24.002 -10 -34.002s-14.667 -15 -24 -15c-7.33301 0 -13.5 3.83301 -18.5 11.5s-7.5 16.834 -7.5 27.501c0 12.667 3.5 23.834 10.5 33.501s14.833 14.5 23.5 14.5c7.33301 0 13.5 -3.66699 18.5 -11
s7.5 -16.333 7.5 -27zM133 768.998c0 -12.667 -3.33398 -24.002 -10.001 -34.002s-14.667 -15 -24 -15c-8 0 -14.333 3.83301 -19 11.5s-7 16.834 -7 27.501c0 12.667 3.33301 23.834 10 33.501s14.334 14.5 23.001 14.5c8 0 14.5 -3.5 19.5 -10.5s7.5 -16.167 7.5 -27.5z
" />
    <glyph glyph-name="afii10057" unicode="&#x408;" horiz-adv-x="221" 
d="M221 667l-68 -553c0 -1.33301 -0.5 -5.5 -1.5 -12.5s-1.66699 -11.5 -2 -13.5s-0.833008 -6 -1.5 -12s-1.5 -10.5 -2.5 -13.5l-4 -12c-1.66699 -5 -3.33398 -9 -5.00098 -12s-3.83398 -6.5 -6.50098 -10.5s-5.66699 -7.33301 -9 -10
c-19.333 -18.667 -45.666 -28 -78.999 -28c-21.333 0 -44 6 -68 18l8 64c20 -18.667 39 -28 57 -28c8 0 15.167 1.5 21.5 4.5s11 5.66699 14 8s5.83301 7.5 8.5 15.5s4.33398 13.333 5.00098 16s1.66699 9.5 3 20.5s2 17.167 2 18.5l67 540h61z" />
    <glyph glyph-name="afii10058" unicode="&#x409;" horiz-adv-x="575" 
d="M367 378l28.0049 0.000976562c49.333 0 87 -13 113 -39c24.667 -24.667 37 -61.667 37 -111c0 -92.667 -21.667 -157 -65 -193c-27.333 -23.333 -64.666 -35 -111.999 -35h-109l75 610h-138l-42 -344c-6.66699 -53.333 -13.334 -96 -20.001 -128
c-10.667 -52.667 -27.334 -90.334 -50.001 -113.001c-20.667 -20.667 -46.334 -31 -77.001 -31c-14.667 0 -28.667 3.33301 -42 10l7 68c9.33301 -11.333 20.666 -17 33.999 -17s24.666 4.33301 33.999 13c15.333 13.333 27.333 39.333 36 78
c5.33301 22.667 11.666 61 18.999 115l50 406h258zM328.005 53.001h33c32 0 57 7.66699 75 23c30.667 26 46 75.333 46 148c0 35.333 -8.66699 61 -26 77c-14.667 13.333 -39 20 -73 20h-23z" />
    <glyph glyph-name="afii10059" unicode="&#x40a;" horiz-adv-x="553" 
d="M345 378h27.999c49.333 0 87 -13 113 -39c24.667 -24.667 37 -61.667 37 -111c0 -92.667 -21.667 -157 -65 -193c-27.333 -23.333 -64.666 -35 -111.999 -35h-109l39 321h-149l-40 -321h-61l82 667h61l-35 -289h149l36 289h62zM305.999 53h33c32 0 57 7.66699 75 23
c30.667 26 46 75.333 46 148c0 35.333 -8.66699 61 -26 77c-14.667 13.333 -39 20 -73 20h-23z" />
    <glyph glyph-name="afii10060" unicode="&#x40b;" horiz-adv-x="401" 
d="M61 0l75 610.001h-88l7 57h261l-7 -57h-112l-27 -219c28 9.33301 54 14 78 14c42.667 0 74.334 -9.33301 95.001 -28c15.333 -14 24.333 -33 27 -57s1.66699 -49.667 -3 -77l-30 -243h-61l29 236c6 49.333 2.33301 80.666 -11 93.999c-12 12 -32 18 -60 18
c-24.667 0 -48.334 -5.66699 -71.001 -17l-41 -331h-61z" />
    <glyph glyph-name="afii10061" unicode="&#x40c;" horiz-adv-x="320" 
d="M365 667l-180 -320l98 -347h-64l-91 336l-41 -336h-61l82 667h61l-37 -303l169 303h64zM353 817l-126 -103l-32 26l110 120z" />
    <glyph glyph-name="afii10062" unicode="&#x40e;" horiz-adv-x="331" 
d="M55 667h68l42 -205c12 -58 20.333 -109.333 25 -154c10.667 42.667 29 97 55 163l76 196h62l-249 -667h-60l78 221zM301 808l53.998 -21c-11.333 -28.667 -28.333 -50 -51 -64c-20.667 -12.667 -46.667 -19 -78 -19s-56.666 6.66699 -75.999 20
c-22 15.333 -37.333 36.333 -46 63l54 21c4.66699 -16.667 13.334 -29.667 26.001 -39c11.333 -8 27 -12 47 -12c19.333 0 34.333 4.33301 45 13c12 10 20.333 22.667 25 38z" />
    <glyph glyph-name="afii10145" unicode="&#x40f;" horiz-adv-x="380" 
d="M380 667l-82 -667h-105l-17 -130h-62l17 130h-105l82 667h61l-75 -610h150l75 610h61z" />
    <glyph glyph-name="afii10017" unicode="&#x410;" horiz-adv-x="320" 
d="M291 0h-65l-8 137h-139l-41 -137h-65l211 667h58zM215 191l-14.001 234.997c-2 26.667 -3 53.334 -3 80.001c0 25.333 1 51 3 77c-5.33301 -31.333 -12.666 -65.666 -21.999 -102.999s-17.333 -67.666 -24 -90.999l-31 -104.5l-28 -93.5h119z" />
    <glyph glyph-name="afii10018" unicode="&#x411;" horiz-adv-x="342" 
d="M108 667h223.999l-7 -57h-162l-29 -232h28c49.333 0 87 -13 113 -39c24.667 -24.667 37 -61.667 37 -111c0 -92.667 -21.667 -157 -65 -193c-27.333 -23.333 -64.666 -35 -111.999 -35h-109zM94.999 53h33c32 0 57 7.66699 75 23c30.667 26 46 75.333 46 148
c0 35.333 -8.66699 61 -26 77c-14.667 13.333 -39 20 -73 20h-23z" />
    <glyph glyph-name="afii10019" unicode="&#x412;" horiz-adv-x="346" 
d="M108 667l96 0.000976562c48 0 81.333 -10 100 -30s28 -54 28 -102c0 -44 -7.66699 -82.667 -23 -116c-8.66699 -20 -19.167 -35.667 -31.5 -47s-28.5 -21.333 -48.5 -30c30 -8.66699 50.833 -21.834 62.5 -39.501s17.5 -42.5 17.5 -74.5c0 -97.333 -25 -164 -75 -200
c-25.333 -18.667 -61 -28 -107 -28h-101zM133 372.001l33 -0.000976562c32 0 55.333 9 70 27c22.667 26.667 34 74 34 142c0 26.667 -5 45.334 -15 56.001s-28 16 -54 16h-39zM93 53h33.001c31.333 0 55.666 6.66699 72.999 20c16 12 27.833 32 35.5 60s11.5 55 11.5 81
c0 68.667 -28.333 103 -85 103h-35z" />
    <glyph glyph-name="afii10020" unicode="&#x413;" horiz-adv-x="291" 
d="M317 667l-7 -57h-148l-75 -610h-61l82 667h209z" />
    <glyph glyph-name="afii10021" unicode="&#x414;" horiz-adv-x="422" 
d="M146 667h251l-75 -610h52l-24 -187h-62l17 130h-275l-17 -130h-58l24 187c27.333 14 50 34.667 68 62c27.333 42 46.333 109.333 57 202zM197 610l-32.001 -259.001c-11.333 -94 -25.666 -161.667 -42.999 -203c-14 -35.333 -34.667 -65.666 -62 -90.999h200l68 553h-131
z" />
    <glyph glyph-name="afii10022" unicode="&#x415;" horiz-adv-x="297" 
d="M313 667l-7 -57h-144l-29 -235h140l-6 -57h-141l-32 -261h144l-7 -57h-205l82 667h205z" />
    <glyph glyph-name="afii10024" unicode="&#x416;" horiz-adv-x="459" 
d="M426 0h-64l-91 336l-41 -336h-62l41 336l-175 -336h-64l187 355l-100 312h64l92 -303l37 303h62l-37 -303l165 303h64l-178 -318z" />
    <glyph glyph-name="afii10025" unicode="&#x417;" horiz-adv-x="360" 
d="M132 371l18 -0.00195312c33.333 0 59 6 77 18c31.333 20.667 47 59.667 47 117c0 34 -7.66699 60.333 -23 79c-16 19.333 -39 29 -69 29c-21.333 0 -41.333 -6.33301 -60 -19c-15.333 -10 -28.666 -22.667 -39.999 -38l11 86c28 22 61.667 33 101 33
c43.333 0 77.666 -12 102.999 -36c28.667 -27.333 43 -67.666 43 -120.999c0 -66 -16 -113.667 -48 -143c-14 -12.667 -31 -22.667 -51 -30c22 -7.33301 40 -19 54 -35c20.667 -23.333 31 -53.333 31 -90c0 -74 -23 -133.667 -69 -179c-34 -34 -77 -51 -129 -51
c-46 0 -85.333 14.333 -118 43l10 86c13.333 -20 28 -35.667 44 -47c18 -13.333 39.333 -20 64 -20c29.333 0 54.666 8.66699 75.999 26c17.333 14.667 30.5 34.334 39.5 59.001s13.5 49 13.5 73c0 34 -10 60.333 -30 79c-17.333 16 -45.666 24 -84.999 24h-17z" />
    <glyph glyph-name="afii10026" unicode="&#x418;" horiz-adv-x="392" 
d="M26 0l82 666.999h62l-55 -444c-3.33301 -26.667 -9 -55.667 -17 -87l16.5 40c5 12.667 8.66699 21.667 11 27s4.5 10 6.5 14l198 450h62l-82 -667h-62l53 426c4.66699 37.333 11 72.333 19 105c-11.333 -29.333 -24.333 -60.666 -39 -93.999l-193 -437h-62z" />
    <glyph glyph-name="afii10027" unicode="&#x419;" horiz-adv-x="392" 
d="M26 0l82 666.999h62l-55 -444c-3.33301 -26.667 -9 -55.667 -17 -87l16.5 40c5 12.667 8.66699 21.667 11 27s4.5 10 6.5 14l198 450h62l-82 -667h-62l53 426c4.66699 37.333 11 72.333 19 105c-11.333 -29.333 -24.333 -60.666 -39 -93.999l-193 -437h-62zM330 807.999
l53.998 -21c-11.333 -28.667 -28.333 -50 -51 -64c-20.667 -12.667 -46.667 -19 -78 -19s-56.666 6.66699 -75.999 20c-22 15.333 -37.333 36.333 -46 63l54 21c4.66699 -16.667 13.334 -29.667 26.001 -39c11.333 -8 27 -12 47 -12c19.333 0 34.333 4.33301 45 13
c12 10 20.333 22.667 25 38z" />
    <glyph glyph-name="afii10028" unicode="&#x41a;" horiz-adv-x="320" 
d="M365 667l-180 -320l98 -347h-64l-91 336l-41 -336h-61l82 667h61l-37 -303l169 303h64z" />
    <glyph glyph-name="afii10029" unicode="&#x41b;" horiz-adv-x="403" 
d="M145 667l258.006 0.000976562l-82 -667h-62l75 610h-138l-42 -344c-6.66699 -53.333 -13.334 -96 -20.001 -128c-10.667 -52.667 -27.334 -90.334 -50.001 -113.001c-20.667 -20.667 -46.334 -31 -77.001 -31c-14.667 0 -28.667 3.33301 -42 10l7 68
c9.33301 -11.333 20.666 -17 33.999 -17s24.666 4.33301 33.999 13c15.333 13.333 27.333 39.333 36 78c5.33301 22.667 11.666 61 18.999 115z" />
    <glyph glyph-name="afii10030" unicode="&#x41c;" horiz-adv-x="492" 
d="M444 667l-0.99707 -666.998h-60l7 433c1.33301 40.667 4.33301 81 9 121c-0.666992 -1.33301 -3.66699 -15 -9 -41c-4.66699 -25.333 -11.334 -52 -20.001 -80l-126 -433h-50l-17 434v64c0 6.66699 0.5 16 1.5 28s1.5 21.333 1.5 28
c-6.66699 -54.667 -13.334 -94.667 -20.001 -120l-107 -434h-60l174 667h53l14 -458c0.666992 -12.667 1 -32 1 -58c0 -20.667 -0.333008 -36.334 -1 -47.001c7.33301 37.333 15.666 71.666 24.999 102.999l133 460h52z" />
    <glyph glyph-name="afii10031" unicode="&#x41d;" horiz-adv-x="380" 
d="M380 667l-82 -667h-61l42 344h-150l-42 -344h-61l82 667h61l-33 -266h150l33 266h61z" />
    <glyph glyph-name="afii10032" unicode="&#x41e;" horiz-adv-x="398" 
d="M382 477c0 -128 -15.668 -238.002 -47.001 -330.002c-34 -104 -89 -156 -165 -156c-85.333 0 -128 71.667 -128 215c0 31.333 1.5 64.5 4.5 99.5s9.16699 75.333 18.5 121s21.333 86.334 36 122.001s35.334 65.834 62.001 90.501s57 37 91 37
c85.333 0 128 -66.333 128 -199zM320.999 481.998c0 89.333 -24.332 134 -72.999 134c-30.667 0 -56 -17.333 -76 -52c-22.667 -38 -39.667 -94.333 -51 -169s-17 -142.667 -17 -204c0 -93.333 24.333 -140 73 -140c33.333 0 60.333 19.333 81 58
c19.333 36 34.666 93 45.999 171s17 145.333 17 202z" />
    <glyph glyph-name="afii10033" unicode="&#x41f;" horiz-adv-x="374" 
d="M374 667l-82 -667h-61l74 610h-143l-75 -610h-61l82 667h266z" />
    <glyph glyph-name="afii10034" unicode="&#x420;" horiz-adv-x="324" 
d="M108 667h78.999c50.667 0 87.834 -9.33301 111.501 -28s35.5 -52.667 35.5 -102c0 -54 -8.66699 -100.667 -26 -140c-8.66699 -18.667 -19.167 -33.5 -31.5 -44.5s-27.833 -18.833 -46.5 -23.5s-34.667 -7.5 -48 -8.5s-32 -1.5 -56 -1.5l-39 -319h-61zM132.999 376h41
c24 0 43 5.33301 57 16s24.333 29.834 31 57.501s10 54.167 10 79.5c0 29.333 -6 50.166 -18 62.499s-32.667 18.5 -62 18.5h-30z" />
    <glyph glyph-name="afii10035" unicode="&#x421;" horiz-adv-x="315" 
d="M350 655l-7.99902 -68c-26 19.333 -50.333 29 -73 29c-39.333 0 -71.333 -20.333 -96 -61c-22.667 -36.667 -39.5 -88.667 -50.5 -156s-16.5 -130 -16.5 -188c0 -106.667 29.333 -160 88 -160c26 0 54.333 10 85 30l-7 -62c-29.333 -18.667 -59 -28 -89 -28
c-36 0 -65.167 12 -87.5 36s-37 50.833 -44 80.5s-10.5 62.167 -10.5 97.5c0 68.667 8.66699 142.5 26 221.5s42.666 139.833 75.999 182.5c36 44.667 79.333 67 130 67c32 0 57.667 -7 77 -21z" />
    <glyph glyph-name="afii10036" unicode="&#x422;" horiz-adv-x="261" 
d="M314 667l-7 -57h-99l-75 -610h-61l75 610h-99l7 57h259z" />
    <glyph glyph-name="afii10037" unicode="&#x423;" horiz-adv-x="331" 
d="M55 667h68l42 -205c12 -58 20.333 -109.333 25 -154c10.667 42.667 29 97 55 163l76 196h62l-249 -667h-60l78 221z" />
    <glyph glyph-name="afii10038" unicode="&#x424;" horiz-adv-x="515" 
d="M196 0l11 90.0029c-46.667 6 -83.667 23.333 -111 52c-36 37.333 -54 92.666 -54 165.999c0 42 6.5 86.667 19.5 134s34.5 85.666 64.5 114.999c40 38.667 88.667 59 146 61l9 76h62l-9 -76c46.667 -6 83.667 -23.333 111 -52c36 -36.667 54 -92 54 -166
c0 -44.667 -6.66699 -91.334 -20 -140.001s-37 -87.667 -71 -117c-38 -32 -84.333 -49.667 -139 -53l-11 -90h-62zM325 558.003l-51.001 -408c40.667 0 74.334 13.333 101.001 40c22.667 22 39 52.667 49 92s15 77 15 113c0 58 -12.667 100.333 -38 127
c-18.667 20 -44 32 -76 36zM215.999 150.003l50.999 408c-37.333 -2 -68.666 -14.667 -93.999 -38c-22.667 -21.333 -40.167 -52.666 -52.5 -93.999s-18.5 -81 -18.5 -119c0 -53.333 13 -94 39 -122c19.333 -20.667 44.333 -32.334 75 -35.001z" />
    <glyph glyph-name="afii10039" unicode="&#x425;" horiz-adv-x="313" 
d="M366 667l-165 -328.002l83 -339h-65l-41 189c-8.66699 36.667 -13.667 68.334 -15 95.001c-2.66699 -11.333 -15.667 -43.666 -39 -96.999l-85 -187h-66l169 339l-87 328h65l39 -165c9.33301 -39.333 15 -78.333 17 -117c6 22 21.333 59.667 46 113l79 169h65z" />
    <glyph glyph-name="afii10040" unicode="&#x426;" horiz-adv-x="380" 
d="M376 667l-75 -610h58l-23 -187h-62l16 130h-264l82 667h61l-75 -610h146l75 610h61z" />
    <glyph glyph-name="afii10041" unicode="&#x427;" horiz-adv-x="369" 
d="M369 667l-81.999 -666.997h-62l41 338c-20.667 -6.66699 -44 -10 -70 -10c-36.667 0 -65.334 7.33301 -86.001 22c-26.667 19.333 -40 47.666 -40 84.999c0 17.333 2 41 6 71l20 161h63l-20 -164c-3.33301 -24.667 -5 -41.334 -5 -50.001
c0 -22.667 6.33301 -39.334 19 -50.001c12 -10 30 -15 54 -15s46.333 4 67 12l33 267h62z" />
    <glyph glyph-name="afii10042" unicode="&#x428;" horiz-adv-x="575" 
d="M108 667h61l-75 -610h142l75 610h61l-75 -610h142l75 610h61l-82 -667h-467z" />
    <glyph glyph-name="afii10043" unicode="&#x429;" horiz-adv-x="583" 
d="M108 667h61l-75 -610h142l75 610h61l-75 -610h142l75 610h61l-75 -610h62l-23 -187h-62l16 130h-467z" />
    <glyph glyph-name="afii10044" unicode="&#x42a;" horiz-adv-x="375" 
d="M167 378h27.999c49.333 0 87 -13 113 -39c24.667 -24.667 37 -61.667 37 -111c0 -92.667 -21.667 -157 -65 -193c-27.333 -23.333 -64.666 -35 -111.999 -35h-109l75 610h-86l7 57h148zM127.999 53h33c32 0 57 7.66699 75 23c30.667 26 46 75.333 46 148
c0 35.333 -8.66699 61 -26 77c-14.667 13.333 -39 20 -73 20h-23z" />
    <glyph glyph-name="afii10045" unicode="&#x42b;" horiz-adv-x="482" 
d="M400 0h-62l82 667h62zM134 378h27.999c49.333 0 87 -13 113 -39c24.667 -24.667 37 -61.667 37 -111c0 -92.667 -21.667 -157 -65 -193c-27.333 -23.333 -64.666 -35 -111.999 -35h-109l82 667h62zM94.999 53h33c32 0 57 7.66699 75 23c30.667 26 46 75.333 46 148
c0 35.333 -8.66699 61 -26 77c-14.667 13.333 -39 20 -73 20h-23z" />
    <glyph glyph-name="afii10046" unicode="&#x42c;" horiz-adv-x="342" 
d="M134 378h27.999c49.333 0 87 -13 113 -39c24.667 -24.667 37 -61.667 37 -111c0 -92.667 -21.667 -157 -65 -193c-27.333 -23.333 -64.666 -35 -111.999 -35h-109l82 667h62zM94.999 53h33c32 0 57 7.66699 75 23c30.667 26 46 75.333 46 148
c0 35.333 -8.66699 61 -26 77c-14.667 13.333 -39 20 -73 20h-23z" />
    <glyph glyph-name="afii10047" unicode="&#x42d;" horiz-adv-x="362" 
d="M10 28l11 82.998c8.66699 -17.333 20.667 -31.666 36 -42.999s32.333 -17 51 -17c25.333 0 48 10 68 30c22 22 41.333 56.333 58 103c16 44.667 27 89.334 33 134.001h-163l7 57h163c4 37.333 3.5 77 -1.5 119s-16.5 73 -34.5 93c-17.333 19.333 -39.333 29 -66 29
c-18.667 0 -35.667 -5 -51 -15c-12 -8 -24.333 -19 -37 -33l10 83c25.333 16.667 54 25 86 25c42 0 77 -14 105 -42c38 -39.333 57 -104.333 57 -195c0 -100 -15.333 -192.333 -46 -277c-20.667 -58 -46.667 -101 -78 -129c-30.667 -28 -68.667 -42 -114 -42
c-36.667 0 -68 12.333 -94 37z" />
    <glyph glyph-name="afii10048" unicode="&#x42e;" horiz-adv-x="548" 
d="M136 401l80.001 -0.00195312c18 112 49.667 190 95 234c27.333 27.333 59.666 41 96.999 41c31.333 0 57.666 -11 78.999 -33c18.667 -20 30.834 -44.167 36.501 -72.5s8.5 -63.166 8.5 -104.499c0 -69.333 -7 -144.666 -21 -225.999c-16 -94.667 -44 -163 -84 -205
c-28.667 -29.333 -61.667 -44 -99 -44c-35.333 0 -64 12.667 -86 38c-28.667 34 -43 92.667 -43 176c0 48.667 3 95 9 139h-79l-42 -344h-61l82 667h61zM400.001 615.998c-18.667 0 -35.668 -8.00098 -51.001 -24.001c-23.333 -25.333 -42.666 -69.333 -57.999 -132
c-20 -80 -30 -167.667 -30 -263c0 -63.333 9.33301 -105.666 28 -126.999c11.333 -12.667 26.333 -19 45 -19c19.333 0 37 9 53 27c30.667 34.667 53 101 67 199c11.333 82 17 151 17 207c0 58 -9.66699 96.667 -29 116c-10.667 10.667 -24.667 16 -42 16z" />
    <glyph glyph-name="afii10049" unicode="&#x42f;" horiz-adv-x="374" 
d="M0 0l187 314c-30 5.33301 -54.667 18 -74 38c-23.333 24.667 -35 60.667 -35 108c0 76 20.333 132 61 168c29.333 26 75.333 39 138 39h97l-82 -667h-68l39 320l-187 -320h-76zM269 369l30.001 241.001h-36c-33.333 0 -58.333 -7.33301 -75 -22
c-28.667 -24.667 -43 -66.667 -43 -126c0 -32.667 8 -56.334 24 -71.001c15.333 -14.667 39.666 -22 72.999 -22h27z" />
    <glyph glyph-name="afii10065" unicode="&#x430;" horiz-adv-x="322" 
d="M300 447l-55 -447h-55l4 36c-25.333 -28.667 -52.333 -43 -81 -43c-54.667 0 -82 40 -82 120c0 46.667 4.33301 99.167 13 157.5s21.667 101.833 39 130.5c22 35.333 53 53 93 53c27.333 0 49 -12.333 65 -37l4 30h55zM231 327c0 54.667 -16 82 -48 82
c-21.333 0 -39 -12.333 -53 -37c-13.333 -24 -23.666 -61.833 -30.999 -113.5s-11 -96.5 -11 -134.5c0 -56.667 16 -85 48 -85c12.667 0 23.5 3.16699 32.5 9.5s16.167 15.5 21.5 27.5s9.16602 22.667 11.499 32s4.83301 20.666 7.5 33.999
c14.667 74.667 22 136.334 22 185.001z" />
    <glyph glyph-name="afii10066" unicode="&#x431;" horiz-adv-x="327" 
d="M304 700l52.999 0.000976562c-2.66699 -30.667 -14 -55.334 -34 -74.001c-12 -11.333 -40 -25.666 -84 -42.999c-36 -14 -61 -28 -75 -42c-26 -25.333 -45 -74.333 -57 -147c7.33301 15.333 18.333 29.333 33 42c14.667 12 32.334 18 53.001 18
c28.667 0 52 -9.33301 70 -28c22.667 -24 34 -64.667 34 -122c0 -54 -5.66699 -104.667 -17 -152c-12 -54 -31.667 -95.333 -59 -124c-22 -23.333 -49 -35 -81 -35c-28 0 -50.333 8.33301 -67 25c-26 26 -39 70.667 -39 134c0 73.333 12 168.333 36 285
c14 69.333 37 119.666 69 150.999c19.333 18.667 46.666 34.667 81.999 48c38.667 14 61.667 25 69 33c8.66699 8.66699 13.334 19 14.001 31zM182.999 402.001c-16 0 -29.332 -5.33301 -39.999 -16c-16.667 -16.667 -30 -52 -40 -106c-8 -44 -12 -87.333 -12 -130
c0 -46 7.66699 -76.667 23 -92c9.33301 -8 19.666 -12 30.999 -12c14 0 26.333 6 37 18c20.667 21.333 35.334 55.666 44.001 102.999c8 44.667 12 90.334 12 137.001c0 38 -4.66699 64 -14 78c-8.66699 13.333 -22.334 20 -41.001 20z" />
    <glyph glyph-name="afii10067" unicode="&#x432;" horiz-adv-x="292" 
d="M75 447h87.999c38 0 65.667 -8.33301 83 -25c17.333 -15.333 26 -40.333 26 -75c0 -40 -10.333 -69.667 -31 -89c-14 -12.667 -29 -20.667 -45 -24c16.667 -3.33301 31.334 -11.333 44.001 -24c14 -15.333 21 -38 21 -68c0 -48 -12 -83.667 -36 -107
c-23.333 -23.333 -56.333 -35 -99 -35h-106zM107.999 259l23 0.000976562c28.667 0 48.667 4.66699 60 14c15.333 13.333 23 35.666 23 66.999c0 20 -5 34.667 -15 44c-8.66699 7.33301 -22.667 11 -42 11h-33zM82.999 52.001l27 0.000976562c32 0 54.667 6 68 18
c15.333 15.333 23 37.666 23 66.999c0 25.333 -6 43.333 -18 54c-11.333 10 -29.333 15 -54 15h-27z" />
    <glyph glyph-name="afii10068" unicode="&#x433;" horiz-adv-x="240" 
d="M21 0l55 447h180l-6 -52h-125l-48 -395h-56z" />
    <glyph glyph-name="afii10069" unicode="&#x434;" horiz-adv-x="335" 
d="M95 447h214.999l-49 -395h41l-20 -156h-53l13 104h-221l-12 -104h-54l20 156c28.667 11.333 50.334 30.333 65.001 57c12 22 21.333 59.667 28 113zM204.999 52l41 342.999h-104l-23 -183c-6 -43.333 -13 -75.666 -21 -96.999c-10 -26 -26 -47 -48 -63h155z" />
    <glyph glyph-name="afii10070" unicode="&#x435;" horiz-adv-x="308" 
d="M207 152l56.001 -0.000976562c-6.66699 -44 -20.334 -81.5 -41.001 -112.5s-50.667 -46.5 -90 -46.5c-69.333 0 -104 53.333 -104 160c0 44 4.33301 85.333 13 124c5.33301 27.333 13.333 53.333 24 78s26.667 47.334 48 68.001s45.333 31 72 31c64 0 96 -51.667 96 -155
c0 -27.333 -2.66699 -56.333 -8 -87h-185c-3.33301 -22 -5 -41.667 -5 -59c0 -71.333 18 -107 54 -107c12 0 22.333 3.33301 31 10s15.5 16.5 20.5 29.5s8.66699 24 11 33s4.83301 20.167 7.5 33.5zM94.001 259.999h131c1.33301 21.333 2 38.333 2 51
c0 60.667 -15.667 91 -47 91c-42 0 -70.667 -47.333 -86 -142z" />
    <glyph glyph-name="afii10072" unicode="&#x436;" horiz-adv-x="426" 
d="M395 0h-64l-92 205l-26 -205h-54l25 205l-139 -205h-65l161 235l-105 212h62l91 -195l25 195h54l-24 -195l139 195h63l-158 -216z" />
    <glyph glyph-name="afii10073" unicode="&#x437;" horiz-adv-x="291" 
d="M185 232c16.667 -3.33301 31.0039 -10.999 43.0039 -22.999c16.667 -16.667 25 -39.334 25 -68.001c0 -45.333 -14.333 -82.333 -43 -111c-24.667 -24.667 -57.334 -37 -98.001 -37c-45.333 0 -79.333 12.667 -102 38l9 71c10 -17.333 22.333 -30.666 37 -39.999
s30.667 -14 48 -14c25.333 0 45.333 8 60 24c15.333 17.333 23 39 23 65c0 23.333 -8.33301 41 -25 53c-12 8.66699 -30.333 13 -55 13h-18l7 54h9c35.333 0 60.666 7.33301 75.999 22c14 14 21 32 21 54c0 19.333 -6.66699 35.666 -20 48.999
c-11.333 11.333 -27.333 17 -48 17c-18.667 0 -35.334 -5.33301 -50.001 -16s-26.334 -22 -35.001 -34l9 75c26.667 20 55.667 30 87 30c38.667 0 68 -10 88 -30s30 -47.333 30 -82c0 -31.333 -7 -56 -21 -74c-14 -17.333 -33 -29.333 -57 -36z" />
    <glyph glyph-name="afii10074" unicode="&#x438;" horiz-adv-x="331" 
d="M254 0l-55.999 -0.000976562l33 274c2 20.667 5.33301 41.334 10 62.001c-8.66699 -24.667 -18.334 -47 -29.001 -67l-135 -269h-56l55 447h56l-33 -271c-3.33301 -26 -7.33301 -49 -12 -69c12 28 22 50 30 66l136 274h56z" />
    <glyph glyph-name="afii10075" unicode="&#x439;" horiz-adv-x="331" 
d="M254 0l-55.999 -0.000976562l33 274c2 20.667 5.33301 41.334 10 62.001c-8.66699 -24.667 -18.334 -47 -29.001 -67l-135 -269h-56l55 447h56l-33 -271c-3.33301 -26 -7.33301 -49 -12 -69c12 28 22 50 30 66l136 274h56zM256.001 596.999l53 -19
c-8.66699 -26 -22.334 -45.667 -41.001 -59c-18 -12.667 -41 -19 -69 -19c-29.333 0 -53 6.66699 -71 20c-19.333 14 -32 33.333 -38 58l52 19c3.33301 -14 9.33301 -24.667 18 -32c9.33301 -8.66699 22.333 -13 39 -13c12.667 0 24.334 3.33301 35.001 10
c12 9.33301 19.333 21 22 35z" />
    <glyph glyph-name="afii10076" unicode="&#x43a;" horiz-adv-x="290" 
d="M132 447l-24 -195l144 195h63l-162 -219l117 -228h-64l-103 205l-26 -205h-56l55 447h56z" />
    <glyph glyph-name="afii10077" unicode="&#x43b;" horiz-adv-x="344" 
d="M324 447l-55.998 -446.999h-56l49 395h-105l-27 -214c-5.33301 -40 -10 -68 -14 -84c-8 -34.667 -20.333 -60.334 -37 -77.001c-16 -16 -36.333 -24 -61 -24c-10.667 0 -23 2.33301 -37 7l7 56c7.33301 -5.33301 15.666 -8 24.999 -8s18.666 3 27.999 9
c16 12.667 28.333 53.667 37 123l33 264h214z" />
    <glyph glyph-name="afii10078" unicode="&#x43c;" horiz-adv-x="416" 
d="M203 0h-46l-24 270c-2.66699 29.333 -4 52.666 -4 69.999c-1.33301 -8.66699 -6.66602 -31.334 -15.999 -68.001l-70 -272h-53l124 447h50l23 -283c2.66699 -36 3.66699 -62.667 3 -80c8 30.667 15.667 57.334 23 80.001l93 283h51l13 -447h-53l-3 272
c0 4.66699 -0.166992 10.667 -0.5 18s-0.5 14.833 -0.5 22.5s0.333008 16.834 1 27.501c-6.66699 -26.667 -13.334 -50 -20.001 -70z" />
    <glyph glyph-name="afii10079" unicode="&#x43d;" horiz-adv-x="326" 
d="M249 0h-56l25 209h-115l-26 -209h-56l55 447h56l-22 -186h115l23 186h56z" />
    <glyph glyph-name="afii10080" unicode="&#x43e;" horiz-adv-x="318" 
d="M290 328l-0.000976562 -17c0 -31.333 -2 -62.5 -6 -93.5s-11 -64.833 -21 -101.5s-26.167 -66.334 -48.5 -89.001s-49.5 -34 -81.5 -34c-70 0 -105 54 -105 162c0 28.667 2.33301 58.5 7 89.5s12.5 63 23.5 96s27.833 60.167 50.5 81.5s49.334 32 80.001 32
c34 0 59.333 -12.167 76 -36.5s25 -54.166 25 -89.499zM231.999 298c0 69.333 -16.667 104.003 -50 104.003c-19.333 0 -35.833 -10.167 -49.5 -30.5s-23.667 -45.833 -30 -76.5s-10.833 -58.334 -13.5 -83.001s-4 -46.334 -4 -65.001c0 -67.333 17.667 -101 53 -101
c18.667 0 34.667 10 48 30s23 45.167 29 75.5s10.333 57.666 13 81.999s4 45.833 4 64.5z" />
    <glyph glyph-name="afii10081" unicode="&#x43f;" horiz-adv-x="322" 
d="M245 0h-56l48 395h-112l-48 -395h-56l55 447h224z" />
    <glyph glyph-name="afii10082" unicode="&#x440;" horiz-adv-x="318" 
d="M132 447l-3 -30c22.667 24.667 47.334 37 74.001 37c59.333 0 89 -39.667 89 -119c0 -74 -9 -146.667 -27 -218c-20 -82.667 -57.333 -124 -112 -124c-28.667 0 -52.334 14.333 -71.001 43l-27 -216h-55l77 627h55zM234 325c0 56 -16.332 84.002 -48.999 84.002
c-34 0 -57.667 -31 -71 -93c-14.667 -72 -22 -138 -22 -198c0 -52.667 16.333 -79 49 -79c21.333 0 37.666 10.667 48.999 32c13.333 21.333 24 59.666 32 114.999s12 101.666 12 138.999z" />
    <glyph glyph-name="afii10083" unicode="&#x441;" horiz-adv-x="242" 
d="M249 437l-8.00098 -66.001c-16.667 20.667 -33.667 31 -51 31c-18 0 -34.333 -9.5 -49 -28.5s-25.334 -38.5 -32.001 -58.5s-11.334 -39.667 -14.001 -59c-5.33301 -33.333 -8 -64.666 -8 -93.999c0 -12 0.666992 -23.667 2 -35s3.83301 -23.666 7.5 -36.999
s9.66699 -24 18 -32s18.5 -12 30.5 -12c18.667 0 38.667 13.333 60 40l-8 -70c-20.667 -15.333 -42.667 -23 -66 -23c-25.333 0 -46.166 9.33301 -62.499 28s-27.166 39.167 -32.499 61.5s-8 46.166 -8 71.499c0 44 4.33301 84.667 13 122c10.667 46 28.5 87.167 53.5 123.5
s56.833 54.5 95.5 54.5c20.667 0 40.334 -5.66699 59.001 -17z" />
    <glyph glyph-name="afii10084" unicode="&#x442;" horiz-adv-x="256" 
d="M264 395h-87l-49 -395h-56l48 395h-86l6 52h230z" />
    </font>
</defs>
</svg>
